<?xml version="1.0" encoding="UTF-8" standalone="no"?>
<svg
   xmlns:dc="http://purl.org/dc/elements/1.1/"
   xmlns:cc="http://creativecommons.org/ns#"
   xmlns:rdf="http://www.w3.org/1999/02/22-rdf-syntax-ns#"
   xmlns:svg="http://www.w3.org/2000/svg"
   xmlns="http://www.w3.org/2000/svg"
   viewBox="0 0 3333.3333 1333.3333"
   height="1333.3333"
   width="3333.3333"
   xml:space="preserve"
   id="svg2"
   version="1.1"><metadata
     id="metadata8"><rdf:RDF><cc:Work
         rdf:about=""><dc:format>image/svg+xml</dc:format><dc:type
           rdf:resource="http://purl.org/dc/dcmitype/StillImage" /></cc:Work></rdf:RDF></metadata><defs
     id="defs6"><clipPath
       id="clipPath20"
       clipPathUnits="userSpaceOnUse"><path
         id="path18"
         d="M 0,0 H 2500 V 1000 H 0 Z" /></clipPath></defs><g
     transform="matrix(1.3333333,0,0,-1.3333333,0,1333.3333)"
     id="g10"><g
       id="g12" /><g
       id="g14"><g
         clip-path="url(#clipPath20)"
         id="g16"><path
           id="path22"
           style="fill:#ffffff;fill-opacity:1;fill-rule:nonzero;stroke:none"
           d="M 0,1000 H 2500 V 0 H 0 Z" /><g
           transform="matrix(1,0,0,-1,120.3112,812.4076)"
           id="g24"><path
             id="path26"
             style="fill:none;stroke:#000000;stroke-width:82;stroke-linecap:butt;stroke-linejoin:miter;stroke-miterlimit:4;stroke-dasharray:none;stroke-opacity:1"
             d="M 0,0 H 614.5222 V 622.7701 H 0 Z" /></g><g
           transform="matrix(1,0,0,-1,917.2723,816.8068)"
           id="g28"><path
             id="path30"
             style="fill:none;stroke:#000000;stroke-width:82;stroke-linecap:butt;stroke-linejoin:miter;stroke-miterlimit:4;stroke-dasharray:none;stroke-opacity:1"
             d="m 532.1314,91.69051 c 121.7324,122.25399 121.7324,320.46689 0,442.72089 -121.7324,122.254 -319.0997,122.254 -440.83208,0 -121.73243,-122.254 -121.73243,-320.4669 0,-442.72089 121.73238,-122.25401 319.09968,-122.25401 440.83208,0 z" /></g><g
           transform="matrix(1,0,0,-1,1660.169,776.7265)"
           id="g32"><path
             id="path34"
             style="fill:none;stroke:#000000;stroke-width:82;stroke-linecap:butt;stroke-linejoin:miter;stroke-miterlimit:4;stroke-dasharray:none;stroke-opacity:1"
             d="m 350.2079,0 350.208,589.1341 H 0 Z" /></g></g></g></g></svg>