<?xml version="1.0" standalone="no"?>
<!DOCTYPE svg PUBLIC "-//W3C//DTD SVG 20010904//EN"
 "http://www.w3.org/TR/2001/REC-SVG-20010904/DTD/svg10.dtd">
<svg version="1.0" xmlns="http://www.w3.org/2000/svg"
 width="1198.000000pt" height="400.000000pt" viewBox="0 0 1198.000000 400.000000"
 preserveAspectRatio="xMidYMid meet">

<g transform="translate(0.000000,400.000000) scale(0.100000,-0.100000)"
fill="#000000" stroke="none">
<path d="M1305 3955 c-617 -99 -1109 -573 -1242 -1195 -28 -131 -25 -470 4
-600 41 -178 94 -314 177 -454 208 -350 579 -621 966 -704 255 -55 490 -45
688 28 29 11 55 20 57 20 3 0 5 -16 5 -35 l0 -35 293 2 292 3 3 998 2 997
-505 0 -505 0 0 -295 0 -295 208 -2 207 -3 3 -200 c3 -231 -7 -314 -48 -394
-79 -158 -245 -242 -450 -227 -205 14 -392 100 -554 255 -122 117 -200 249
-248 417 -32 113 -32 332 0 454 43 165 134 323 246 427 212 199 459 284 735
253 130 -14 233 -46 334 -104 l77 -44 -2 330 -3 331 -53 18 c-28 10 -98 28
-155 40 -132 28 -397 35 -532 14z"/>
<path d="M4877 3553 c-4 -3 -7 -584 -7 -1290 l0 -1283 300 0 300 0 -2 1288 -3
1287 -291 3 c-160 1 -293 -1 -297 -5z"/>
<path d="M5647 3553 c-4 -3 -7 -584 -7 -1290 l0 -1283 300 0 300 0 -2 1288 -3
1287 -291 3 c-160 1 -293 -1 -297 -5z"/>
<path d="M3535 2970 c-182 -27 -371 -117 -516 -247 -234 -208 -352 -494 -336
-807 22 -419 292 -767 700 -901 213 -69 451 -64 658 15 30 11 55 20 57 20 1 0
2 -16 2 -35 l0 -35 298 2 297 3 0 990 0 990 -295 0 -295 0 -3 -32 c-2 -18 -4
-33 -6 -33 -1 0 -35 11 -76 25 -148 50 -334 68 -485 45z m290 -607 c103 -35
206 -138 245 -241 94 -250 -55 -507 -321 -554 -128 -22 -259 21 -356 118 -122
121 -151 306 -75 467 51 108 171 203 284 227 53 11 169 2 223 -17z"/>
<path d="M7250 2974 c-81 -11 -211 -49 -288 -85 -295 -137 -492 -379 -569
-701 -26 -109 -24 -336 4 -448 30 -118 73 -216 136 -313 71 -108 121 -163 220
-242 207 -166 457 -241 709 -215 318 34 579 185 750 433 42 61 113 204 123
248 l6 26 -103 16 c-57 9 -192 29 -301 44 -193 27 -199 27 -209 9 -58 -104
-214 -186 -354 -186 -62 0 -174 29 -206 53 -18 14 106 84 882 498 157 83 287
153 289 155 6 5 -31 107 -59 164 -129 256 -368 442 -670 522 -74 19 -281 32
-360 22z m205 -595 c33 -6 79 -21 104 -33 l45 -23 -25 -15 c-13 -9 -123 -68
-244 -133 -121 -65 -250 -135 -287 -157 -36 -21 -70 -38 -73 -38 -19 0 4 114
35 177 56 114 150 189 275 219 65 16 98 16 170 3z"/>
<path d="M9307 2964 c-44 -8 -112 -25 -153 -39 -41 -14 -77 -25 -79 -25 -3 0
-5 16 -5 35 l0 35 -295 0 -295 0 0 -995 0 -995 295 0 294 0 3 543 c3 528 4
543 24 594 12 29 39 75 59 103 136 185 397 221 583 80 l52 -40 0 335 0 335
-27 11 c-96 38 -315 49 -456 23z"/>
<path d="M9970 2433 c0 -595 4 -651 61 -807 152 -421 604 -705 1045 -655 90
10 243 47 285 69 28 15 29 13 29 -43 0 -195 -147 -363 -349 -398 l-61 -11 0
-296 0 -295 93 6 c365 23 717 291 851 650 57 153 56 125 56 1267 l0 1050 -292
-2 -293 -3 -5 -550 -5 -550 -29 -60 c-84 -171 -265 -266 -448 -236 -91 15
-160 51 -224 117 -65 66 -101 138 -114 229 -5 39 -10 289 -10 563 l0 492 -295
0 -295 0 0 -537z"/>
</g>
</svg>
