<?xml version="1.0" encoding="utf-8"?>
<!-- Svg Vector Icons : http://www.onlinewebfonts.com/icon -->
<!DOCTYPE svg PUBLIC "-//W3C//DTD SVG 1.1//EN" "http://www.w3.org/Graphics/SVG/1.1/DTD/svg11.dtd">
<svg version="1.1" xmlns="http://www.w3.org/2000/svg" xmlns:xlink="http://www.w3.org/1999/xlink" x="0px" y="0px" viewBox="0 0 1000 1000" enable-background="new 0 0 1000 1000" xml:space="preserve">
<metadata> Svg Vector Icons : http://www.onlinewebfonts.com/icon </metadata>
<g><g><g><path d="M765.6,757.6c-27.2-65.5-52.1-131.4-72.6-199.4c-0.6-4.1-1.4-8.1-2.5-12.2c-19.7-73.3-39.5-146.7-59.2-220c52.2-23.2,99.4-60.3,138.3-100.8c14.4-15,18.4-38.5,7.3-56.7c-27.8-45.4-55.5-90.9-83.3-136.3c-31.4-51.4-112.3-4.4-80.8,47.2c21.4,35,42.8,70,64.2,105.1c-34.2,30.6-73.8,56.6-117.8,68c-2.4,0.6-4.4,1.5-6.5,2.4c-11.3-0.6-22.5,0.8-32.7,4.7c-6.4,2.4-12.1,5.5-17.4,9c-0.4,0-0.8-0.1-1.2-0.1c-79.2-1.6-149.8-26.9-216.1-69.6c-50.9-32.8-97.7,48.2-47.2,80.8c71,45.7,148.9,73.6,232.2,80.6c0.4,1.9,0.8,3.8,1.3,5.7c21.4,79.4,42.8,158.8,64.1,238.2c0,0,0,0,0,0c-57.4,45.2-112,94.6-174.2,133.1c-51.2,31.7-4.2,112.6,47.2,80.8c71.1-44,132-102.1,198.8-152c3.6-2.7,6.7-5.7,9.2-8.9c3.3-0.1,6.7-0.3,9.9-0.8c13.3,37.9,27.7,75.3,43,112.6c-42.2,46.9-80.5,97.1-112.7,151.5c-30.9,52,50,99.1,80.8,47.2c33.8-57,74.3-108,119.8-156.1c13.8-14.6,15.5-31.6,10.3-46.3C767.5,762.6,766.7,760.1,765.6,757.6z"/><circle cx="501.4" cy="140.8" r="85"/></g></g><g></g><g></g><g></g><g></g><g></g><g></g><g></g><g></g><g></g><g></g><g></g><g></g><g></g><g></g><g></g></g>
</svg>