<?xml version="1.0" encoding="UTF-8" standalone="no"?>
<svg
   xmlns:dc="http://purl.org/dc/elements/1.1/"
   xmlns:cc="http://creativecommons.org/ns#"
   xmlns:rdf="http://www.w3.org/1999/02/22-rdf-syntax-ns#"
   xmlns:svg="http://www.w3.org/2000/svg"
   xmlns="http://www.w3.org/2000/svg"
   viewBox="0 0 3333.3333 1333.3333"
   height="1333.3333"
   width="3333.3333"
   xml:space="preserve"
   id="svg2"
   version="1.1"><metadata
     id="metadata8"><rdf:RDF><cc:Work
         rdf:about=""><dc:format>image/svg+xml</dc:format><dc:type
           rdf:resource="http://purl.org/dc/dcmitype/StillImage" /></cc:Work></rdf:RDF></metadata><defs
     id="defs6"><clipPath
       id="clipPath20"
       clipPathUnits="userSpaceOnUse"><path
         id="path18"
         d="M 0,0 H 2500 V 1000 H 0 Z" /></clipPath></defs><g
     transform="matrix(1.3333333,0,0,-1.3333333,0,1333.3333)"
     id="g10"><g
       id="g12" /><g
       id="g14"><g
         clip-path="url(#clipPath20)"
         id="g16"><path
           id="path22"
           style="fill:#ffffff;fill-opacity:1;fill-rule:nonzero;stroke:none"
           d="M 0,1000 H 2500 V 0 H 0 Z" /><g
           transform="matrix(1,0,0,-1,67.88024,189.2308)"
           id="g24"><path
             id="path26"
             style="fill:none;stroke:#000000;stroke-width:85;stroke-linecap:butt;stroke-linejoin:miter;stroke-miterlimit:4;stroke-dasharray:none;stroke-opacity:1"
             d="M 0,0 H 2364.24" /></g><g
           transform="matrix(1,0,0,-1,103.734,830.1985)"
           id="g28"><path
             id="path30"
             style="fill:none;stroke:#000000;stroke-width:85;stroke-linecap:butt;stroke-linejoin:miter;stroke-miterlimit:4;stroke-dasharray:none;stroke-opacity:1"
             d="M 0,502.2355 C 124.7371,463.7146 232.2635,387.9528 310.3184,285.973 373.9753,202.8044 418.275,99.64569 508.5197,41.92163 c 83.7062,-53.54184 192.1351,-56.39415 278.8346,-5.12938 85.2394,50.40143 131.911,143.20445 192.8891,224.25725 122.9396,163.4121 304.5676,276.7311 489.8606,197.1058 143.757,-61.776 221.947,-257.5901 384.982,-242.961 153.925,13.8116 202.07,207.9213 334.794,272.6803 34.263,16.7179 72.424,23.8145 110.407,20.5317" /></g></g></g></g></svg>