<?xml version="1.0" encoding="UTF-8"?>
<!-- Generator: visioncortex VTracer 0.6.12 -->
<svg version="1.1" xmlns="http://www.w3.org/2000/svg" width="1600" height="474">
<path d="M0 0 C528 0 1056 0 1600 0 C1600 156.42 1600 312.84 1600 474 C1072 474 544 474 0 474 C0 317.58 0 161.16 0 0 Z " fill="#FEFEFE" transform="translate(0,0)"/>
<path d="M0 0 C2.5625 0.5 2.5625 0.5 7.5625 4.5 C7.5625 15.72 7.5625 26.94 7.5625 38.5 C178.5025 38.5 349.4425 38.5 525.5625 38.5 C525.5625 33.88 525.5625 29.26 525.5625 24.5 C529.3962 25.4584 531.25 26.44 534.4414 28.625 C534.9019 28.937 534.9019 28.937 537.2324 30.5156 C538.187 31.1705 539.1415 31.8253 540.125 32.5 C542.02 33.7948 543.9171 35.0866 545.8164 36.375 C546.655 36.9499 547.4936 37.5248 548.3577 38.1172 C550.5625 39.5 550.5625 39.5 553.5625 40.5 C553.5625 41.49 553.5625 42.48 553.5625 43.5 C552.4075 44.0981 551.2525 44.6962 550.0625 45.3125 C544.4414 48.4014 539.2625 52.1026 534.0605 55.8411 C533.727 56.0768 533.727 56.0768 532.0391 57.2695 C531.7404 57.484 531.7404 57.484 530.229 58.5696 C528.5625 59.5 528.5625 59.5 525.5625 59.5 C525.5625 54.88 525.5625 50.26 525.5625 45.5 C354.2925 45.5 183.0225 45.5 6.5625 45.5 C6.8925 89.06 7.2225 132.62 7.5625 177.5 C26.3725 177.83 45.1825 178.16 64.5625 178.5 C64.8925 196.98 65.2225 215.46 65.5625 234.5 C71.3563 234.5036 77.1502 234.5073 83.1196 234.511 C136.1997 234.5463 189.2797 234.6013 242.3597 234.6779 C249.3107 234.688 256.2617 234.6978 263.2126 234.7075 C263.9044 234.7085 264.5961 234.7095 265.3088 234.7105 C287.7441 234.7419 310.1795 234.7603 332.6149 234.7721 C356.3159 234.7846 380.0169 234.8118 403.718 234.8546 C417.9227 234.8798 432.1272 234.8931 446.3319 234.8914 C456.0609 234.8914 465.7897 234.9059 475.5186 234.9322 C481.1392 234.9469 486.7595 234.955 492.3801 234.9458 C497.519 234.9376 502.6575 234.9475 507.7964 234.9723 C509.6619 234.9781 511.5273 234.9769 513.3928 234.9685 C515.9165 234.9581 518.4389 234.9719 520.9625 234.9922 C521.6974 234.9833 522.4324 234.9744 523.1896 234.9652 C526.3989 235.0151 528.1258 235.1024 530.5453 237.3052 C532.0922 240.6429 531.4667 243.0124 530.5625 246.5 C526.6735 249.0927 523.4377 248.7793 518.9273 248.7573 C518.0302 248.7608 517.1331 248.7643 516.2088 248.7679 C513.1751 248.7773 510.1415 248.7723 507.1078 248.7674 C504.9219 248.7712 502.736 248.7758 500.5502 248.7812 C494.5218 248.7934 488.4935 248.7931 482.4652 248.7908 C475.9722 248.7904 469.4793 248.8014 462.9864 248.8109 C450.2579 248.828 437.5294 248.833 424.8009 248.8341 C414.4596 248.835 404.1184 248.8391 393.7772 248.8455 C390.8033 248.8473 387.8294 248.8491 384.8554 248.8509 C384.1162 248.8513 383.3769 248.8517 382.6153 248.8522 C361.8145 248.8645 341.0138 248.8724 320.2131 248.8715 C319.4285 248.8715 318.6439 248.8714 317.8355 248.8714 C313.8585 248.8713 309.8815 248.8711 305.9044 248.8708 C305.1146 248.8708 304.3247 248.8708 303.5109 248.8707 C301.9135 248.8706 300.3162 248.8706 298.7188 248.8705 C273.8592 248.8693 248.9995 248.8843 224.1399 248.9116 C196.228 248.9423 168.3162 248.9596 140.4043 248.9577 C137.4301 248.9575 134.4559 248.9574 131.4817 248.9574 C130.7493 248.9574 130.0169 248.9573 129.2624 248.9573 C117.4591 248.9573 105.6558 248.97 93.8526 248.9873 C81.9977 249.0042 70.1429 249.0059 58.288 248.993 C51.8612 248.9865 45.4346 248.9865 39.0079 249.0037 C33.1314 249.0194 27.2552 249.0167 21.3787 248.9992 C19.2461 248.9961 17.1136 248.9998 14.9811 249.0109 C12.0948 249.0249 9.2097 249.0145 6.3235 248.9978 C5.4846 249.0077 4.6456 249.0177 3.7813 249.0279 C0.1821 248.9834 -1.9954 248.8191 -4.9543 246.6832 C-7.0995 243.5256 -6.9782 240.5664 -6.9185 236.8818 C-6.9219 236.1106 -6.9254 235.3395 -6.9289 234.545 C-6.9355 231.959 -6.9135 229.374 -6.8916 226.7881 C-6.8905 224.9353 -6.8911 223.0825 -6.8934 221.2297 C-6.8945 216.1969 -6.871 211.1645 -6.8431 206.1318 C-6.8181 200.8734 -6.8157 195.615 -6.811 190.3565 C-6.7985 180.3976 -6.7657 170.4388 -6.7256 160.48 C-6.6809 149.1428 -6.6589 137.8056 -6.6388 126.4683 C-6.597 103.1454 -6.5266 79.8227 -6.4375 56.5 C-7.2117 56.3657 -7.9858 56.2314 -8.7834 56.093 C-11.9547 55.3844 -13.7686 54.1104 -16.375 52.1875 C-19.2202 50.1035 -22.031 48.1127 -25.0625 46.3125 C-25.8462 45.7144 -26.63 45.1163 -27.4375 44.5 C-27.4375 43.18 -27.4375 41.86 -27.4375 40.5 C-26.9425 40.335 -26.9425 40.335 -24.4375 39.5 C-23.2986 38.3276 -22.1605 37.1545 -21.0273 35.9766 C-16.6931 31.9512 -12.4356 28.5 -6.4375 28.5 C-6.4584 27.7939 -6.4794 27.0878 -6.501 26.3604 C-6.5842 23.157 -6.6362 19.954 -6.6875 16.75 C-6.721 15.6388 -6.7545 14.5277 -6.7891 13.3828 C-6.802 12.3129 -6.8148 11.243 -6.8281 10.1406 C-6.8491 9.1561 -6.87 8.1716 -6.8916 7.1572 C-6.1916 3.0611 -4.0732 0.8355 0 0 Z " fill="#46413B" transform="translate(300.4375,107.5)"/>
<path d="M0 0 C2.5625 0.5 2.5625 0.5 7.5625 4.5 C7.5625 15.72 7.5625 26.94 7.5625 38.5 C178.5025 38.5 349.4425 38.5 525.5625 38.5 C525.5625 33.88 525.5625 29.26 525.5625 24.5 C529.3962 25.4584 531.25 26.44 534.4414 28.625 C534.9019 28.937 534.9019 28.937 537.2324 30.5156 C538.187 31.1705 539.1415 31.8253 540.125 32.5 C542.02 33.7948 543.9171 35.0866 545.8164 36.375 C546.655 36.9499 547.4936 37.5248 548.3577 38.1172 C550.5625 39.5 550.5625 39.5 553.5625 40.5 C553.5625 41.49 553.5625 42.48 553.5625 43.5 C552.4075 44.0981 551.2525 44.6962 550.0625 45.3125 C544.4414 48.4014 539.2625 52.1026 534.0605 55.8411 C533.727 56.0768 533.727 56.0768 532.0391 57.2695 C531.7404 57.484 531.7404 57.484 530.229 58.5696 C528.5625 59.5 528.5625 59.5 525.5625 59.5 C525.5625 54.88 525.5625 50.26 525.5625 45.5 C525.0133 45.5012 525.0133 45.5012 522.234 45.5076 C473.8389 45.6175 425.4438 45.7261 377.0486 45.8284 C376.6824 45.8291 376.6824 45.8291 374.8293 45.833 C358.9139 45.8667 342.9985 45.9001 327.083 45.9332 C319.2784 45.9495 311.4738 45.9658 303.6692 45.9822 C302.8925 45.9838 302.1159 45.9854 301.3157 45.9871 C276.1297 46.0398 250.9437 46.0959 225.7577 46.1536 C199.8816 46.2129 174.0054 46.2688 148.1293 46.3207 C144.4767 46.328 140.8241 46.3353 137.1715 46.3427 C136.4526 46.3441 135.7337 46.3456 134.993 46.3471 C123.4083 46.3706 111.8236 46.3975 100.2388 46.4258 C88.5998 46.4541 76.9608 46.4787 65.3217 46.4997 C59.0124 46.5112 52.7031 46.5243 46.3937 46.5418 C40.6232 46.5578 34.8528 46.5692 29.0823 46.5768 C26.9893 46.5804 24.8964 46.5858 22.8034 46.5929 C19.9685 46.6024 17.1337 46.6057 14.2988 46.6074 C13.8882 46.6095 13.8882 46.6095 11.8105 46.6203 C7.8426 46.616 4.491 46.2857 0.5625 45.5 C0.5625 50.45 0.5625 55.4 0.5625 60.5 C-1.4175 59.84 -3.3975 59.18 -5.4375 58.5 C-5.1075 120.21 -4.7775 181.92 -4.4375 245.5 C-5.0975 245.17 -5.7575 244.84 -6.4375 244.5 C-6.4375 182.46 -6.4375 120.42 -6.4375 56.5 C-8.0875 56.17 -9.7375 55.84 -11.4375 55.5 C-13.9023 54.0117 -13.9023 54.0117 -16.375 52.1875 C-19.2202 50.1035 -22.031 48.1127 -25.0625 46.3125 C-25.8462 45.7144 -26.63 45.1163 -27.4375 44.5 C-27.4375 43.18 -27.4375 41.86 -27.4375 40.5 C-26.9425 40.335 -26.9425 40.335 -24.4375 39.5 C-23.2986 38.3276 -22.1605 37.1545 -21.0273 35.9766 C-16.6931 31.9512 -12.4356 28.5 -6.4375 28.5 C-6.4584 27.7939 -6.4794 27.0878 -6.501 26.3604 C-6.5842 23.157 -6.6362 19.954 -6.6875 16.75 C-6.721 15.6388 -6.7545 14.5277 -6.7891 13.3828 C-6.802 12.3129 -6.8148 11.243 -6.8281 10.1406 C-6.8491 9.1561 -6.87 8.1716 -6.8916 7.1572 C-6.1916 3.0611 -4.0732 0.8355 0 0 Z " fill="#C79735" transform="translate(300.4375,107.5)"/>
<path d="M0 0 C3.5625 0.3125 3.5625 0.3125 5.2639 1.3919 C7.2525 4.3329 6.9212 6.8351 6.9031 10.3542 C6.9033 10.7105 6.9033 10.7105 6.9044 12.5132 C6.9023 14.8671 6.879 17.2204 6.8555 19.5742 C6.8499 21.2066 6.8456 22.839 6.8426 24.4714 C6.8312 28.7672 6.8017 33.0628 6.7685 37.3585 C6.7378 41.7422 6.7241 46.126 6.709 50.5098 C6.6768 59.1108 6.6256 67.7116 6.5625 76.3125 C7.6943 76.2893 8.8261 76.2661 9.9922 76.2422 C11.474 76.2234 12.9557 76.2052 14.4375 76.1875 C15.1839 76.1707 15.9302 76.154 16.6992 76.1367 C18.6544 76.1191 20.6099 76.2093 22.5625 76.3125 C24.5625 78.3125 24.5625 78.3125 24.6875 81.4375 C24.6463 82.3863 24.605 83.335 24.5625 84.3125 C23.9025 84.3125 23.2425 84.3125 22.5625 84.3125 C22.5625 84.9725 22.5625 85.6325 22.5625 86.3125 C17.2825 86.3125 12.0025 86.3125 6.5625 86.3125 C6.5625 99.1825 6.5625 112.0525 6.5625 125.3125 C12.1725 125.3125 17.7825 125.3125 23.5625 125.3125 C25.8641 128.765 25.9074 130.2599 25.5625 134.3125 C23.5625 136.3125 23.5625 136.3125 19.6484 136.5078 C18.078 136.4945 16.5076 136.4706 14.9375 136.4375 C14.1357 136.4285 13.3339 136.4195 12.5078 136.4102 C10.5259 136.3866 8.5442 136.3507 6.5625 136.3125 C6.5714 137.2079 6.5803 138.1032 6.5894 139.0257 C6.6695 147.4571 6.7304 155.8883 6.7697 164.32 C6.7906 168.655 6.819 172.9896 6.8643 177.3245 C6.9077 181.5066 6.9316 185.6884 6.942 189.8708 C6.9494 191.4676 6.9639 193.0645 6.9854 194.6612 C7.0144 196.8954 7.0185 199.1282 7.0166 201.3625 C7.0255 202.635 7.0344 203.9074 7.0435 205.2183 C6.5625 208.3125 6.5625 208.3125 5.0341 210.3094 C2.5625 211.3125 2.5625 211.3125 -5.4375 210.3125 C-5.7675 185.8925 -6.0975 161.4725 -6.4375 136.3125 C-11.3875 135.9825 -16.3375 135.6525 -21.4375 135.3125 C-22.8037 132.58 -22.5659 130.3305 -22.4375 127.3125 C-18.6369 123.5119 -11.8004 125.67 -6.4375 125.3125 C-6.1075 112.4425 -5.7775 99.5725 -5.4375 86.3125 C-11.0475 86.3125 -16.6575 86.3125 -22.4375 86.3125 C-24.4375 83.3125 -24.4375 83.3125 -23.4375 76.3125 C-20.6325 76.1475 -20.6325 76.1475 -6.4375 75.3125 C-6.4177 73.1116 -6.3979 70.9107 -6.3774 68.6431 C-6.3106 61.3826 -6.233 54.1223 -6.15 46.8621 C-6.1 42.4589 -6.0536 38.0557 -6.0156 33.6523 C-5.9788 29.4053 -5.9325 25.1584 -5.8794 20.9115 C-5.8609 19.2888 -5.8458 17.6661 -5.8342 16.0433 C-5.8173 13.7755 -5.7883 11.5083 -5.7563 9.2407 C-5.743 7.9483 -5.7297 6.6559 -5.716 5.3244 C-5.3072 0.9033 -4.3814 0.3983 0 0 Z " fill="#CA9A36" transform="translate(999.4375,143.6875)"/>
<path d="M0 0 C16.83 0 33.66 0 51 0 C51.0206 8.2294 51.0412 16.4588 51.0625 24.9375 C51.0716 27.5387 51.0807 30.14 51.0901 32.8201 C51.093 34.8683 51.0956 36.9166 51.0977 38.9648 C51.1028 40.0393 51.1079 41.1138 51.1132 42.2208 C51.1132 42.7283 51.1132 42.7283 51.1135 45.2966 C51.1157 46.1827 51.118 47.0687 51.1203 47.9816 C51 50 51 50 50 51 C48.4345 51.0933 46.8649 51.1175 45.2966 51.1135 C44.2816 51.1134 43.2666 51.1133 42.2208 51.1132 C41.1464 51.108 40.0719 51.1029 38.9648 51.0977 C37.9829 51.0966 37.001 51.0956 35.9894 51.0946 C32.3054 51.0894 28.6215 51.0754 24.9375 51.0625 C16.7081 51.0419 8.4787 51.0213 0 51 C0 34.17 0 17.34 0 0 Z " fill="#FEFEFE" transform="translate(307,293)"/>
<path d="M0 0 C171.27 0 342.54 0 519 0 C519 4.62 519 9.24 519 14 C519.99 14 520.98 14 522 14 C522 14.66 522 15.32 522 16 C521.175 16.165 521.175 16.165 517 17 C517 12.05 517 7.1 517 2 C347.05 2 177.1 2 2 2 C2 44.9 2 87.8 2 132 C20.81 132 39.62 132 59 132 C59 150.48 59 168.96 59 188 C210.8 188 362.6 188 519 188 C519.33 188.66 519.66 189.32 520 190 C461.2883 190.0229 402.5767 190.0405 343.865 190.0511 C336.9415 190.0523 330.018 190.0536 323.0945 190.0549 C322.4055 190.0551 321.7165 190.0552 321.0066 190.0553 C298.6543 190.0596 276.3019 190.0671 253.9496 190.0763 C230.3392 190.086 206.7287 190.092 183.1183 190.0941 C168.9658 190.0955 154.8134 190.0998 140.6609 190.1079 C130.9704 190.1132 121.2798 190.1148 111.5892 190.1135 C105.9892 190.1129 100.3893 190.1139 94.7893 190.1192 C89.6716 190.124 84.5539 190.1243 79.4362 190.1209 C77.5761 190.1205 75.7161 190.1218 73.8561 190.1249 C71.3449 190.1288 68.8338 190.1268 66.3227 190.123 C65.9542 190.1244 65.9542 190.1244 64.0894 190.131 C59.1141 190.1141 59.1141 190.1141 58 189 C57.9063 187.2507 57.8826 185.4976 57.8865 183.7458 C57.8866 182.6248 57.8866 181.5037 57.8867 180.3486 C57.8893 179.7387 57.8893 179.7387 57.9023 176.6523 C57.9038 175.4108 57.9052 174.1692 57.9066 172.89 C57.9113 169.5839 57.9203 166.2779 57.9313 162.9719 C57.9416 159.6004 57.9461 156.2289 57.9512 152.8574 C57.9622 146.2383 57.979 139.6191 58 133 C57.2881 133.0022 56.5762 133.0044 55.8428 133.0067 C49.1473 133.0267 42.4517 133.042 35.7562 133.0518 C32.3136 133.057 28.871 133.0641 25.4285 133.0754 C21.4744 133.0883 17.5204 133.0932 13.5664 133.0977 C12.9456 133.1002 12.9456 133.1002 9.8038 133.1133 C9.2333 133.1133 9.2333 133.1133 6.3459 133.1135 C5.3356 133.1157 4.3252 133.118 3.2842 133.1203 C1 133 1 133 0 132 C0 88.44 0 44.88 0 0 Z " fill="#DFD6C5" transform="translate(307,153)"/>
<path d="M0 0 C1.65 0 3.3 0 5 0 C6.6847 1.6847 6.1428 3.7825 6.1582 6.0935 C6.168 7.1971 6.1778 8.3008 6.1879 9.4379 C6.1936 10.6592 6.1994 11.8806 6.2053 13.1389 C6.2152 14.4168 6.2251 15.6946 6.2353 17.0112 C6.2624 20.5255 6.2834 24.0398 6.3033 27.5541 C6.3251 31.223 6.3526 34.8919 6.3794 38.5608 C6.4294 45.5129 6.4743 52.465 6.5174 59.4171 C6.5667 67.33 6.6217 75.2428 6.6771 83.1556 C6.791 99.437 6.8971 115.7185 7 132 C25.81 132.33 44.62 132.66 64 133 C64.33 151.48 64.66 169.96 65 189 C70.7938 189.0036 76.5877 189.0073 82.5571 189.011 C135.6372 189.0463 188.7172 189.1013 241.7972 189.1779 C248.7482 189.188 255.6992 189.1978 262.6501 189.2075 C263.3419 189.2085 264.0336 189.2095 264.7463 189.2105 C287.1816 189.2419 309.617 189.2603 332.0524 189.2721 C355.7534 189.2846 379.4544 189.3118 403.1555 189.3546 C417.3602 189.3798 431.5647 189.3931 445.7694 189.3914 C455.4984 189.3914 465.2272 189.4059 474.9561 189.4322 C480.5767 189.4469 486.197 189.455 491.8176 189.4458 C496.9565 189.4376 502.095 189.4475 507.2339 189.4723 C509.0994 189.4781 510.9648 189.4769 512.8303 189.4685 C515.354 189.4581 517.8764 189.4719 520.4 189.4922 C521.1349 189.4833 521.8699 189.4744 522.6271 189.4652 C525.8341 189.5151 527.5666 189.6094 529.9945 191.7974 C531.4802 195.0519 530.7232 197.5813 530 201 C529.34 200.67 528.68 200.34 528 200 C528.0206 198.8656 528.0412 197.7312 528.0625 196.5625 C528 193 528 193 527 192 C524.5354 191.897 522.0986 191.8598 519.6333 191.8641 C518.849 191.8616 518.0648 191.859 517.2567 191.8564 C514.5949 191.849 511.9331 191.8488 509.2712 191.8485 C507.3572 191.8447 505.4431 191.8404 503.5291 191.8357 C498.2429 191.824 492.9568 191.8185 487.6706 191.8141 C481.9801 191.8081 476.2895 191.7964 470.5989 191.7854 C460.7306 191.767 450.8623 191.7522 440.9939 191.7396 C426.7247 191.7214 412.4555 191.6967 398.1863 191.6703 C391.5449 191.658 384.9036 191.646 378.2623 191.6341 C377.5973 191.6329 376.9324 191.6317 376.2473 191.6304 C360.4107 191.6021 344.574 191.5769 328.7373 191.5522 C328.0441 191.5512 327.3509 191.5501 326.6367 191.549 C316.0911 191.5325 305.5456 191.5162 295 191.5 C283.7542 191.4827 272.5085 191.4653 261.2627 191.4478 C260.5699 191.4467 259.877 191.4456 259.1632 191.4445 C243.3547 191.4198 227.5462 191.3943 211.7377 191.3659 C211.0739 191.3648 210.41 191.3636 209.7261 191.3623 C202.4456 191.3493 195.1652 191.3359 187.8847 191.3225 C173.6439 191.2962 159.4031 191.2736 145.1623 191.2555 C135.4119 191.2428 125.6616 191.2267 115.9112 191.2078 C110.2768 191.197 104.6424 191.1879 99.0079 191.1831 C93.8588 191.1787 88.7097 191.1698 83.5606 191.1572 C81.6891 191.1534 79.8177 191.1514 77.9462 191.1512 C75.4197 191.1506 72.8932 191.1441 70.3667 191.1359 C69.6252 191.1372 68.8837 191.1385 68.1197 191.1398 C63.1141 191.1141 63.1141 191.1141 62 190 C61.9063 188.2507 61.8826 186.4976 61.8865 184.7458 C61.8865 184.1853 61.8865 184.1853 61.8867 181.3486 C61.8893 180.7387 61.8893 180.7387 61.9023 177.6523 C61.9038 176.4108 61.9052 175.1692 61.9066 173.89 C61.9113 170.5839 61.9203 167.2779 61.9313 163.9719 C61.9416 160.6004 61.9461 157.2289 61.9512 153.8574 C61.9622 147.2383 61.979 140.6191 62 134 C61.3029 134.0044 60.6057 134.0089 59.8875 134.0135 C53.3247 134.0535 46.762 134.084 40.1991 134.1036 C36.8249 134.1141 33.4508 134.1282 30.0767 134.1509 C26.1995 134.175 22.3225 134.1865 18.4453 134.1953 C17.2307 134.2056 16.0161 134.216 14.7647 134.2266 C13.6437 134.2267 12.5227 134.2269 11.3677 134.2271 C10.3773 134.2315 9.3869 134.2359 8.3665 134.2405 C6 134 6 134 4 132 C3.7539 129.7236 3.7539 129.7236 3.7595 126.8242 C3.7567 125.7276 3.754 124.631 3.7512 123.5012 C3.7584 122.2928 3.7655 121.0844 3.7729 119.8394 C3.7727 118.5711 3.7724 117.3028 3.7721 115.9962 C3.7715 112.5129 3.7833 109.0297 3.7972 105.5464 C3.8097 101.9082 3.8109 98.2701 3.8133 94.6319 C3.8195 87.74 3.8359 80.8481 3.856 73.9562 C3.8783 66.1111 3.8893 58.266 3.8994 50.4209 C3.9203 34.2805 3.9555 18.1403 4 2 C3.34 2 2.68 2 2 2 C2 6.95 2 11.9 2 17 C0.68 17.33 -0.64 17.66 -2 18 C-2 17.34 -2 16.68 -2 16 C-2.66 16 -3.32 16 -4 16 C-3.9982 16.9137 -3.9963 17.8274 -3.9944 18.7687 C-3.9503 40.985 -3.9172 63.2014 -3.8964 85.4177 C-3.8861 96.1613 -3.872 106.9049 -3.8491 117.6484 C-3.8292 127.0109 -3.8163 136.3733 -3.8118 145.7358 C-3.8092 150.6946 -3.8031 155.6534 -3.7885 160.6122 C-3.775 165.2775 -3.7708 169.9428 -3.7738 174.6081 C-3.7732 176.3222 -3.7692 178.0363 -3.7616 179.7504 C-3.7517 182.0875 -3.754 184.4243 -3.7595 186.7614 C-3.7576 188.0704 -3.7558 189.3793 -3.7539 190.7279 C-4 194 -4 194 -6 198 C-6 136.95 -6 75.9 -6 13 C-2 14 -2 14 0 15 C0 10.05 0 5.1 0 0 Z " fill="#6E6963" transform="translate(301,153)"/>
<path d="M0 0 C3.3 0 6.6 0 10 0 C10 14.52 10 29.04 10 44 C7.03 44 4.06 44 1 44 C1 43.34 1 42.68 1 42 C0.5875 42.165 0.5875 42.165 -1.5 43 C-6.8802 44.5372 -11.0621 44.5638 -16.4375 43 C-19.3305 40.742 -19.4283 40.2695 -19.875 36.8125 C-19.9162 35.5544 -19.9575 34.2963 -20 33 C-20.66 33 -21.32 33 -22 33 C-22.4214 20.9438 -22.4214 20.9438 -18.6602 16.3711 C-15.2269 12.8894 -12.6812 11.5937 -7.75 11.5 C-4.1597 11.6338 -3.1027 11.9315 0 14 C0 9.38 0 4.76 0 0 Z " fill="#CFA449" transform="translate(568,86)"/>
<path d="M0 0 C0.33 0 0.66 0 1 0 C1 10.89 1 21.78 1 33 C170.95 33 340.9 33 516 33 C516 28.05 516 23.1 516 18 C517.32 18.33 518.64 18.66 520 19 C519.34 19.33 518.68 19.66 518 20 C518 24.62 518 29.24 518 34 C347.06 34 176.12 34 0 34 C0 22.78 0 11.56 0 0 Z " fill="#F1E7D0" transform="translate(308,112)"/>
<path d="M0 0 C2.1875 -0.25 2.1875 -0.25 5 0 C6.65 1.32 8.3 2.64 10 4 C10 15.22 10 26.44 10 38 C180.28 38 350.56 38 526 38 C526 38.33 526 38.66 526 39 C355.39 39 184.78 39 9 39 C8.67 27.78 8.34 16.56 8 5 C5.03 4.01 2.06 3.02 -1 2 C-0.67 1.34 -0.34 0.68 0 0 Z " fill="#CEAA5F" transform="translate(298,108)"/>
<path d="M0 0 C16.83 0 33.66 0 51 0 C51.0206 8.2294 51.0412 16.4588 51.0625 24.9375 C51.0716 27.5387 51.0807 30.14 51.0901 32.8201 C51.093 34.8683 51.0956 36.9166 51.0977 38.9648 C51.1028 40.0393 51.1079 41.1138 51.1132 42.2208 C51.1132 42.7283 51.1132 42.7283 51.1135 45.2966 C51.1157 46.1827 51.118 47.0687 51.1203 47.9816 C51 50 51 50 50 51 C48.4345 51.0933 46.8649 51.1175 45.2966 51.1135 C44.2816 51.1134 43.2666 51.1133 42.2208 51.1132 C41.1464 51.108 40.0719 51.1029 38.9648 51.0977 C37.9829 51.0966 37.001 51.0956 35.9894 51.0946 C32.3054 51.0894 28.6215 51.0754 24.9375 51.0625 C16.7081 51.0419 8.4787 51.0213 0 51 C0 34.17 0 17.34 0 0 Z M2 2 C2 17.18 2 32.36 2 48 C17.51 48 33.02 48 49 48 C49 32.82 49 17.64 49 2 C33.49 2 17.98 2 2 2 Z " fill="#BEBDBB" transform="translate(307,293)"/>
<path d="M0 0 C1.98 0 3.96 0 6 0 C6 13.86 6 27.72 6 42 C4.02 42 2.04 42 0 42 C0 40.68 0 39.36 0 38 C-0.99 38.825 -1.98 39.65 -3 40.5 C-7.2116 43.5071 -9.9006 43.6688 -15 43 C-17.5 41.5 -17.5 41.5 -19 40 C-18.8466 39.3361 -18.6932 38.6723 -18.5352 37.9883 C-17.8923 34.3984 -17.6497 30.822 -17.4375 27.1875 C-17.3943 26.4946 -17.3511 25.8018 -17.3066 25.0879 C-17.2014 23.3921 -17.1003 21.6961 -17 20 C-16.34 20 -15.68 20 -15 20 C-15 24.62 -15 29.24 -15 34 C-14.01 34 -13.02 34 -12 34 C-12 34.99 -12 35.98 -12 37 C-9.36 37 -6.72 37 -4 37 C-1.4322 33.1584 -1.7731 29.1861 -1.875 24.75 C-1.884 24.0049 -1.893 23.2598 -1.9023 22.4922 C-1.9258 20.6613 -1.9617 18.8306 -2 17 C-1.34 16.67 -0.68 16.34 0 16 C0 10.72 0 5.44 0 0 Z " fill="#C99936" transform="translate(570,87)"/>
<path d="M0 0 C1.9961 0.0508 1.9961 0.0508 4.4375 0.3125 C4.839 0.3518 4.839 0.3518 6.8711 0.5508 C9 1 9 1 11 3 C11.175 5.5092 11.2317 7.9062 11.1953 10.4141 C11.1925 11.1437 11.1897 11.8733 11.1867 12.6251 C11.1755 14.9586 11.1504 17.2916 11.125 19.625 C11.115 21.2057 11.1058 22.7865 11.0977 24.3672 C11.0756 28.2449 11.0411 32.1224 11 36 C8.69 36 6.38 36 4 36 C3.67 31.71 3.34 27.42 3 23 C1.68 23.33 0.36 23.66 -1 24 C-1.0289 20.1875 -1.0468 16.3751 -1.0625 12.5625 C-1.0709 11.4739 -1.0793 10.3853 -1.0879 9.2637 C-1.0911 8.2292 -1.0943 7.1947 -1.0977 6.1289 C-1.1029 5.1706 -1.1081 4.2122 -1.1135 3.2249 C-1 1 -1 1 0 0 Z " fill="#3F3A33" transform="translate(296,110)"/>
<path d="M0 0 C5.28 0 10.56 0 16 0 C16.0246 5.5359 16.0428 11.0717 16.0549 16.6077 C16.06 18.4924 16.0668 20.3772 16.0754 22.262 C16.0875 24.965 16.0932 27.668 16.0977 30.3711 C16.1028 31.219 16.108 32.0669 16.1133 32.9405 C16.1135 34.9607 16.0621 36.9808 16 39 C14.0038 40.9962 10.183 40.4098 7.4375 40.5625 C7.082 40.5841 7.082 40.5841 5.2832 40.6934 C3.5224 40.7997 1.7612 40.9004 0 41 C0 43.64 0 46.28 0 49 C0.5356 48.9942 0.5356 48.9942 3.2461 48.9648 C4.6432 48.9555 6.0404 48.9464 7.4375 48.9375 C8.1446 48.9291 8.8516 48.9207 9.5801 48.9121 C11.3869 48.9035 13.1939 48.9478 15 49 C16 50 16 50 16.1203 52.8157 C16.118 54.0748 16.1158 55.3339 16.1135 56.6311 C16.1137 57.3238 16.1138 58.0164 16.114 58.73 C16.1133 61.0297 16.1055 63.3293 16.0977 65.6289 C16.0958 67.2193 16.0944 68.8097 16.0934 70.4001 C16.0895 74.594 16.0797 78.7878 16.0687 82.9816 C16.0585 87.2579 16.0539 91.5342 16.0488 95.8105 C16.0381 104.207 16.021 112.6035 16 121 C15.34 120.67 14.68 120.34 14 120 C14 97.23 14 74.46 14 51 C9.38 51 4.76 51 0 51 C-4 46 -4 46 -4 43.375 C-3 41 -3 41 1 38 C5.29 38 9.58 38 14 38 C14 25.79 14 13.58 14 1 C9.38 1 4.76 1 0 1 C0 0.67 0 0.34 0 0 Z " fill="#EBD9B3" transform="translate(978,230)"/>
<path d="M0 0 C2.4832 2.4832 2.2601 3.9667 2.2734 7.3613 C2.2657 8.0465 2.258 8.7316 2.25 9.4375 C2.2577 10.1188 2.2655 10.8 2.2734 11.502 C2.2589 15.2141 2.1094 16.8359 0 20 C-1.9453 20.293 -1.9453 20.293 -4.125 20.1875 C-5.4037 20.1256 -6.6825 20.0637 -8 20 C-8 19.01 -8 18.02 -8 17 C-8.66 17 -9.32 17 -10 17 C-10 12.05 -10 7.1 -10 2 C-6.0041 0.002 -4.3216 -0.3758 0 0 Z " fill="#FBF8F2" transform="translate(566,104)"/>
<path d="M0 0 C3.3 0 6.6 0 10 0 C10 14.52 10 29.04 10 44 C7.03 44 4.06 44 1 44 C1 43.34 1 42.68 1 42 C0.01 41.67 -0.98 41.34 -2 41 C-0.68 40.34 0.64 39.68 2 39 C2 40.32 2 41.64 2 43 C3.98 43 5.96 43 8 43 C8 29.14 8 15.28 8 1 C6.02 1 4.04 1 2 1 C2.0954 2.1318 2.1908 3.2636 2.2891 4.4297 C2.4016 5.9114 2.5135 7.3932 2.625 8.875 C2.6895 9.6214 2.7539 10.3677 2.8203 11.1367 C2.9609 13.087 2.9876 15.0447 3 17 C2.34 17.66 1.68 18.32 1 19 C0.855 21.5806 0.8132 24.0494 0.875 26.625 C0.884 27.3314 0.893 28.0378 0.9023 28.7656 C0.9259 30.5106 0.9618 32.2553 1 34 C0.67 34 0.34 34 0 34 C-0.0606 33.001 -0.1212 32.002 -0.1836 30.9727 C-0.2255 30.3275 -0.2255 30.3275 -0.4375 27.0625 C-0.5187 25.7747 -0.5999 24.487 -0.6836 23.1602 C-1 20 -1 20 -2 19 C-4.6706 18.8588 -7.3243 18.9575 -10 19 C-9.67 18.34 -9.34 17.68 -9 17 C-6.36 17 -3.72 17 -1 17 C-0.67 11.39 -0.34 5.78 0 0 Z " fill="#DFC287" transform="translate(568,86)"/>
<path d="M0 0 C0.33 0 0.66 0 1 0 C1.0231 9.5007 1.0409 19.0015 1.0518 28.5022 C1.057 32.9134 1.0641 37.3245 1.0754 41.7356 C1.0863 45.989 1.0923 50.2424 1.0949 54.4958 C1.0967 56.1222 1.1004 57.7486 1.1057 59.375 C1.1129 61.6451 1.114 63.9152 1.1135 66.1853 C1.1157 67.4799 1.118 68.7745 1.1203 70.1084 C1 73 1 73 0 74 C-2.5305 74.0731 -5.033 74.0925 -7.5625 74.0625 C-8.2734 74.058 -8.9843 74.0535 -9.7168 74.0488 C-11.4779 74.037 -13.239 74.0191 -15 74 C-14.835 73.67 -14.835 73.67 -14 72 C-9.71 72 -5.42 72 -1 72 C-1.0052 69.89 -1.0105 67.7799 -1.0159 65.606 C-1.0324 58.645 -1.0435 51.684 -1.0518 44.723 C-1.057 40.5014 -1.0641 36.2797 -1.0754 32.0581 C-1.0863 27.9862 -1.0923 23.9144 -1.0949 19.8425 C-1.0967 18.2867 -1.1003 16.7309 -1.1057 15.1752 C-1.113 13.001 -1.114 10.827 -1.1135 8.6528 C-1.1157 7.4137 -1.118 6.1746 -1.1203 4.898 C-1 2 -1 2 0 0 Z " fill="#ECDBB7" transform="translate(993,146)"/>
<path d="M0 0 C1.2263 2.4525 1.0343 3.8431 0.8789 6.5703 C0.8306 7.4662 0.7822 8.3621 0.7324 9.2852 C0.6763 10.2223 0.6203 11.1595 0.5625 12.125 C0.5103 13.0699 0.4581 14.0148 0.4043 14.9883 C0.2744 17.3258 0.1395 19.663 0 22 C0.4125 21.505 0.825 21.01 1.25 20.5 C3 19 3 19 7 19 C7 24.28 7 29.56 7 35 C7.99 35 8.98 35 10 35 C10 24.44 10 13.88 10 3 C10.33 3 10.66 3 11 3 C11 13.89 11 24.78 11 36 C8.69 36 6.38 36 4 36 C3.67 31.71 3.34 27.42 3 23 C1.68 23.33 0.36 23.66 -1 24 C-1.0289 20.1875 -1.0468 16.3751 -1.0625 12.5625 C-1.0709 11.4739 -1.0793 10.3853 -1.0879 9.2637 C-1.0911 8.2292 -1.0943 7.1947 -1.0977 6.1289 C-1.1029 5.1706 -1.1081 4.2122 -1.1135 3.2249 C-1 1 -1 1 0 0 Z " fill="#74664A" transform="translate(296,110)"/>
<path d="M0 0 C0.66 0 1.32 0 2 0 C2 4.62 2 9.24 2 14 C2.66 14 3.32 14 4 14 C4.33 15.32 4.66 16.64 5 18 C5.66 18 6.32 18 7 18 C7 18.66 7 19.32 7 20 C7.66 20 8.32 20 9 20 C9 20.66 9 21.32 9 22 C7.7419 22.0412 6.4837 22.0825 5.1875 22.125 C4.4798 22.1482 3.7721 22.1714 3.043 22.1953 C1 22 1 22 -2 20 C-1.8466 19.3361 -1.6932 18.6723 -1.5352 17.9883 C-0.8923 14.3984 -0.6497 10.822 -0.4375 7.1875 C-0.3943 6.4946 -0.3511 5.8018 -0.3066 5.0879 C-0.2014 3.3921 -0.1003 1.6961 0 0 Z " fill="#C69328" transform="translate(553,107)"/>
</svg>
