<?xml version="1.0" encoding="UTF-8"?>
<!-- Generator: visioncortex VTracer 0.6.12 -->
<svg version="1.1" xmlns="http://www.w3.org/2000/svg" width="1600" height="474">
<path d="M0 0 C528 0 1056 0 1600 0 C1600 156.42 1600 312.84 1600 474 C1072 474 544 474 0 474 C0 317.58 0 161.16 0 0 Z " fill="#FEFEFE" transform="translate(0,0)"/>
<path d="M0 0 C1.6956 -0.0049 3.3911 -0.0123 5.0867 -0.0221 C9.684 -0.0409 14.2805 -0.0221 18.8777 0.0045 C23.6915 0.0272 28.5053 0.019 33.3192 0.015 C41.4029 0.0133 49.4862 0.0354 57.5698 0.0723 C66.9119 0.1146 76.2535 0.1216 85.5957 0.1091 C94.5872 0.0977 103.5786 0.1091 112.5701 0.1315 C116.3945 0.1408 120.2189 0.1425 124.0433 0.1383 C128.548 0.1345 133.0523 0.1508 137.5569 0.1824 C139.2088 0.1909 140.8608 0.1926 142.5128 0.1871 C144.7705 0.1806 147.0267 0.1988 149.2843 0.2232 C149.9155 0.2253 149.9155 0.2253 153.1099 0.2357 C157.1677 0.839 159.3555 2.1965 162.5332 4.7446 C163.6706 7.0194 163.6681 8.2898 163.6871 10.8171 C163.6957 11.6694 163.7043 12.5217 163.7132 13.3999 C163.7153 13.8685 163.7153 13.8685 163.7261 16.2397 C163.7302 16.7325 163.7302 16.7325 163.7509 19.2262 C163.7757 22.4979 163.7922 25.7697 163.8066 29.0415 C163.812 30.1575 163.8173 31.2735 163.8228 32.4233 C163.8495 38.3305 163.8689 44.2378 163.8833 50.145 C163.8999 56.2496 163.9447 62.3536 163.9957 68.458 C164.0293 73.1489 164.0409 77.8397 164.0465 82.5307 C164.0532 84.781 164.0685 87.0312 164.0924 89.2814 C164.124 92.432 164.1241 95.5812 164.1167 98.7319 C164.1331 99.661 164.1495 100.5901 164.1664 101.5473 C164.1623 101.9791 164.1623 101.9791 164.1412 104.1642 C164.1429 104.5363 164.1429 104.5363 164.1512 106.419 C163.2111 109.9566 161.3562 112.492 158.5332 114.7446 C155.1961 115.4941 155.1961 115.4941 151.3152 115.4931 C150.5991 115.501 149.883 115.509 149.1453 115.5172 C146.7509 115.5364 144.3589 115.5128 141.9646 115.4893 C140.2462 115.4941 138.5279 115.5016 136.8095 115.5114 C132.1462 115.5302 127.4837 115.5114 122.8204 115.4847 C117.9415 115.4621 113.0627 115.4703 108.1839 115.4742 C99.9917 115.476 91.7998 115.4538 83.6077 115.417 C74.1332 115.3746 64.6592 115.3676 55.1847 115.3801 C46.073 115.3915 36.9615 115.3802 27.8499 115.3578 C23.9707 115.3485 20.0917 115.3467 16.2126 115.3509 C11.6463 115.3547 7.0806 115.3385 2.5144 115.3068 C0.8374 115.2983 -0.8396 115.2966 -2.5166 115.3022 C-4.8035 115.3086 -7.089 115.2905 -9.3757 115.266 C-10.6561 115.2619 -11.9364 115.2578 -13.2555 115.2536 C-17.0681 114.6493 -18.1632 113.7818 -20.4668 110.7446 C-22.2222 107.9171 -22.7206 105.8158 -22.7477 102.5076 C-22.7591 101.6694 -22.7705 100.8311 -22.7823 99.9675 C-22.7845 99.0562 -22.7868 98.1449 -22.7891 97.2061 C-22.799 96.2398 -22.8089 95.2734 -22.8192 94.2779 C-22.8484 91.0819 -22.862 87.8861 -22.873 84.6899 C-22.8846 82.468 -22.8961 80.2461 -22.9076 78.0241 C-22.9286 73.3654 -22.9403 68.7067 -22.9473 64.0479 C-22.9582 58.0799 -23.0063 52.1129 -23.0632 46.1453 C-23.1005 41.5556 -23.1109 36.9662 -23.1139 32.3763 C-23.12 30.1763 -23.136 27.9762 -23.1623 25.7763 C-23.1964 22.6975 -23.1927 19.6209 -23.1797 16.542 C-23.1981 15.6348 -23.2165 14.7276 -23.2355 13.7928 C-23.1825 9.7768 -22.8695 6.4827 -20.4514 3.1788 C-15.0201 -1.3652 -6.6936 -0.0669 0 0 Z " fill="#D7D0C2" transform="translate(372.466796875,179.25537109375)"/>
<path d="M0 0 C1.289 -0.0023 2.578 -0.0045 3.9061 -0.0069 C4.6254 -0.0162 5.3447 -0.0256 6.0858 -0.0352 C8.497 -0.0592 10.906 -0.0402 13.3172 -0.0213 C15.0453 -0.0295 16.7734 -0.0401 18.5014 -0.0532 C23.1958 -0.0806 27.8893 -0.0699 32.5837 -0.0509 C37.4933 -0.0357 42.4028 -0.0498 47.3123 -0.0592 C55.5576 -0.0701 63.8025 -0.0557 72.0477 -0.0272 C81.5841 0.0055 91.1199 -0.0051 100.6563 -0.0381 C108.8399 -0.0654 117.0232 -0.0692 125.2069 -0.0535 C130.0964 -0.0441 134.9856 -0.0429 139.8752 -0.0627 C144.472 -0.08 149.0677 -0.0681 153.6644 -0.0334 C155.3527 -0.0254 157.041 -0.0277 158.7293 -0.0409 C161.0322 -0.0573 163.3319 -0.0368 165.6346 -0.0069 C166.2791 -0.0057 166.2791 -0.0057 169.5406 0 C172.7703 0.755 172.7703 0.755 175.1846 3.5181 C176.6342 6.4772 177.2717 8.0864 177.2783 11.3085 C177.2895 12.1663 177.3008 13.0242 177.3124 13.908 C177.3043 14.8307 177.2962 15.7535 177.2879 16.7043 C177.2949 17.6904 177.3019 18.6765 177.3091 19.6925 C177.3267 22.9428 177.3151 26.1922 177.3016 29.4425 C177.3043 31.7065 177.3082 33.9704 177.3132 36.2343 C177.3191 40.9754 177.3105 45.7162 177.2918 50.4572 C177.269 56.5303 177.2821 62.6026 177.3061 68.6757 C177.3206 73.3495 177.3159 78.0231 177.3056 82.6968 C177.3029 84.9359 177.3062 87.175 177.3155 89.4141 C177.3257 92.5451 177.3102 95.6749 177.2879 98.8058 C177.296 99.7286 177.3041 100.6514 177.3124 101.6021 C177.3012 102.4599 177.2899 103.3178 177.2783 104.2016 C177.2768 104.9404 177.2752 105.6793 177.2737 106.4405 C176.5055 109.9727 175.1426 112.04 172.7703 114.755 C169.5406 115.5101 169.5406 115.5101 165.6346 115.5169 C164.9153 115.5263 164.196 115.5357 163.4549 115.5453 C161.0437 115.5693 158.6347 115.5503 156.2234 115.5314 C154.4954 115.5395 152.7673 115.5502 151.0392 115.5633 C146.3449 115.5907 141.6513 115.58 136.957 115.561 C132.0474 115.5458 127.1379 115.5599 122.2283 115.5693 C113.9831 115.5802 105.7382 115.5658 97.493 115.5373 C87.9565 115.5046 78.4208 115.5152 68.8843 115.5482 C60.7008 115.5754 52.5174 115.5793 44.3338 115.5636 C39.4442 115.5542 34.555 115.553 29.6655 115.5728 C25.0687 115.5901 20.4729 115.5782 15.8762 115.5435 C14.188 115.5355 12.4996 115.5378 10.8114 115.551 C8.5085 115.5674 6.2088 115.5469 3.9061 115.5169 C2.6171 115.5147 1.3281 115.5124 0 115.5101 C-3.2297 114.755 -3.2297 114.755 -5.6439 111.992 C-7.0935 109.0329 -7.731 107.4237 -7.7376 104.2016 C-7.7489 103.3438 -7.7602 102.4859 -7.7718 101.6021 C-7.7637 100.6793 -7.7556 99.7566 -7.7473 98.8058 C-7.7508 98.3128 -7.7508 98.3128 -7.7685 95.8176 C-7.7861 92.5673 -7.7745 89.3179 -7.7609 86.0675 C-7.7636 83.8036 -7.7675 81.5397 -7.7725 79.2758 C-7.7784 74.5347 -7.7699 69.7939 -7.7512 65.0529 C-7.7284 58.9798 -7.7415 52.9075 -7.7654 46.8344 C-7.7799 42.1606 -7.7753 37.487 -7.7649 32.8132 C-7.7623 30.5742 -7.7655 28.3351 -7.7749 26.096 C-7.785 22.965 -7.7695 19.8352 -7.7473 16.7043 C-7.7554 15.7815 -7.7634 14.8587 -7.7718 13.908 C-7.7605 13.0501 -7.7492 12.1923 -7.7376 11.3085 C-7.7361 10.5697 -7.7346 9.8308 -7.733 9.0695 C-6.6844 4.2478 -4.9128 1.1485 0 0 Z " fill="#D7D0C2" transform="translate(947.2296752929688,179.24495315551758)"/>
<path d="M0 0 C0.3502 -0.0011 0.3502 -0.0011 2.1224 -0.0069 C4.487 -0.0132 6.8514 -0.0124 9.216 -0.0116 C10.9042 -0.0145 12.5924 -0.0179 14.2806 -0.0217 C18.8799 -0.0306 23.4791 -0.0329 28.0783 -0.0335 C31.9129 -0.0345 35.7474 -0.0382 39.582 -0.0417 C48.6276 -0.0499 57.6733 -0.0523 66.7189 -0.0516 C76.0591 -0.051 85.3993 -0.0615 94.7395 -0.0773 C102.7488 -0.0904 110.7582 -0.0958 118.7675 -0.0951 C123.5553 -0.0949 128.343 -0.0978 133.1308 -0.1083 C137.6345 -0.118 142.138 -0.1181 146.6417 -0.1108 C148.2961 -0.1097 149.9505 -0.1121 151.6049 -0.1182 C153.861 -0.1258 156.1167 -0.1213 158.3728 -0.1135 C159.0045 -0.1138 159.0045 -0.1138 162.2013 -0.1152 C165.2445 0.1233 166.8953 0.4099 169.3769 2.1337 C171.4398 5.2281 171.6302 5.9041 171.6578 9.4091 C171.6692 10.281 171.6806 11.153 171.6924 12.0514 C171.6935 12.5283 171.6935 12.5283 171.6991 14.9418 C171.7041 15.4452 171.7041 15.4452 171.7292 17.9927 C171.7585 21.3288 171.7721 24.6647 171.7831 28.0009 C171.7946 30.3163 171.8061 32.6318 171.8177 34.9472 C171.8387 39.8045 171.8504 44.6617 171.8573 49.519 C171.8683 55.7459 171.9164 61.972 171.9733 68.1987 C172.0105 72.9823 172.021 77.7656 172.024 82.5492 C172.0301 84.845 172.0462 87.1408 172.0724 89.4364 C172.1065 92.6472 172.1028 95.8559 172.0898 99.0668 C172.1082 100.0166 172.1266 100.9664 172.1456 101.945 C172.1345 102.8226 172.1233 103.7002 172.1119 104.6044 C172.1133 104.9836 172.1133 104.9836 172.1208 106.9026 C170.9475 110.4214 168.5056 112.3559 165.3769 114.1337 C161.9692 114.7629 161.9692 114.7629 158.1659 114.7686 C157.8143 114.7725 157.8143 114.7725 156.0348 114.7923 C153.69 114.8121 151.3467 114.7964 149.0019 114.7807 C147.3162 114.7875 145.6304 114.7964 143.9447 114.8072 C139.3744 114.83 134.8046 114.8212 130.2343 114.8053 C125.4485 114.7927 120.6627 114.8044 115.8769 114.8123 C107.8403 114.8214 99.804 114.8094 91.7675 114.7856 C82.4799 114.7584 73.1928 114.7672 63.9053 114.7947 C55.9271 114.8174 47.9492 114.8206 39.9711 114.8075 C35.2078 114.7997 30.4448 114.7987 25.6816 114.8152 C21.2031 114.8296 16.7252 114.8196 12.2468 114.7907 C10.6045 114.7841 8.9622 114.786 7.3199 114.797 C5.0751 114.8107 2.8325 114.7935 0.5878 114.7686 C-0.6672 114.7667 -1.9223 114.7649 -3.2154 114.7629 C-7.8071 113.9151 -9.4206 112.5134 -12.6231 109.1337 C-13.3754 106.9239 -13.3754 106.9239 -13.3783 104.6558 C-13.3938 103.7895 -13.4092 102.9232 -13.4252 102.0306 C-13.4115 101.0933 -13.3978 100.1561 -13.3836 99.1904 C-13.3925 98.193 -13.4014 97.1957 -13.4106 96.1682 C-13.4319 92.8748 -13.4096 89.5833 -13.3848 86.29 C-13.3863 83.9998 -13.3898 81.7096 -13.3951 79.4195 C-13.3994 74.621 -13.3825 69.8232 -13.3504 65.0248 C-13.3106 58.8741 -13.3199 52.7247 -13.3447 46.5739 C-13.3588 41.8452 -13.3487 37.1168 -13.3311 32.3882 C-13.3253 30.1203 -13.3266 27.8525 -13.3352 25.5847 C-13.3432 22.4148 -13.3189 19.2468 -13.286 16.0771 C-13.2945 15.1398 -13.3031 14.2025 -13.3119 13.2368 C-13.2293 8.635 -13.132 6.7617 -10.1442 3.0748 C-9.3122 2.4342 -8.4803 1.7937 -7.6231 1.1337 C-5.7419 -0.7475 -2.5019 0.0033 0 0 Z " fill="#D7D0C2" transform="translate(658.6231231689453,179.8662872314453)"/>
<path d="M0 0 C0 0.66 0 1.32 0 2 C0.6394 2.0825 1.2788 2.165 1.9375 2.25 C10.263 4.2889 15.9187 8.1303 21.8125 14.25 C22.1332 14.5652 22.1332 14.5652 23.7559 16.1602 C28.3802 20.8562 33 26.1218 33 33 C33.66 33 34.32 33 35 33 C39.7354 46.1915 41.5505 62.4044 37 76 C35.5 78.75 35.5 78.75 34 81 C33.8453 81.4847 33.8453 81.4847 33.0625 83.9375 C31.4555 88.5694 28.8334 92.8635 25 96 C24.34 96 23.68 96 23 96 C22.7525 96.6187 22.505 97.2375 22.25 97.875 C20.7937 100.3507 19.6219 100.9513 17 102 C17 102.66 17 103.32 17 104 C3.4364 114.989 -11.8336 118.1773 -29 117 C-36.0084 115.9746 -41.9434 113.9078 -47.9648 110.1836 C-50 109 -50 109 -52.3828 108.1602 C-55.7589 106.6636 -58.2567 104.4807 -60.9375 102 C-61.4631 101.5167 -61.9887 101.0334 -62.5303 100.5354 C-66.9926 96.2854 -70.4737 91.662 -73 86 C-73 85.34 -73 84.68 -73 84 C-73.66 84 -74.32 84 -75 84 C-79.6043 72.0422 -84.7293 57.4966 -79.6875 44.8125 C-79.4065 44.217 -79.1255 43.6214 -78.8359 43.0078 C-77.7717 40.4516 -77.3472 37.9027 -76.8125 35.1875 C-74.0691 23.9453 -64.5442 12.8498 -54.8672 6.6289 C-52.9401 5.6578 -50.9929 4.8256 -49 4 C-47.7481 3.3159 -46.4982 2.6283 -45.25 1.9375 C-30.6822 -5.2191 -15.2542 -3.9487 0 0 Z " fill="#C03B2D" transform="translate(237,180)"/>
<path d="M0 0 C5.4826 1.0965 10.5894 2.4364 15.3125 5.5 C17.9563 6.9756 20.0134 7.5509 22.9375 8.25 C28.3534 9.6259 33.0918 11.8891 38.0173 14.4521 C40.9683 15.9859 43.8522 17.4215 47 18.5 C51.4898 20.0482 55.6386 22.2945 59.8584 24.4487 C62.9426 26.0108 65.9897 27.472 69.25 28.625 C72.3382 29.7573 75.0838 31.0065 78 32.5 C81.5185 34.2993 84.9885 35.7906 88.707 37.1094 C93.9179 39.1334 98.9448 41.6188 104 44 C104 44.66 104 45.32 104 46 C105.2581 46.2269 106.5162 46.4538 107.8125 46.6875 C114.7746 48.2358 121.2331 51.1185 127.125 55.125 C130.8657 57.5646 134.7386 58.75 139 60 C139 60.66 139 61.32 139 62 C131.7411 65.6955 124.607 69.3243 116.75 71.5625 C113.0582 72.6157 110.265 73.9593 107 76 C105.405 76.6681 103.7994 77.3113 102.1875 77.9375 C90.5046 82.4954 90.5046 82.4954 87 86 C85.498 86.5168 83.9725 86.9666 82.4375 87.375 C78.8445 88.3875 75.559 89.5866 72.1875 91.1875 C68.9808 92.6828 66.6025 93.4648 63 93 C63 93.66 63 94.32 63 95 C62.3477 95.3145 61.6955 95.6291 61.0234 95.9531 C57.1286 97.8603 53.4348 99.6956 49.875 102.1875 C46.8715 104.081 44.5765 104.7372 41.125 105.3125 C39 106 39 106 36.2305 107.9023 C32.6524 110.2257 29.3666 111.3715 25.3125 112.5625 C21.1501 113.7882 18.0105 114.7626 15 118 C12.6953 118.9141 12.6953 118.9141 10.125 119.625 C9.282 119.8648 8.4389 120.1045 7.5703 120.3516 C5.0662 120.9833 2.5324 121.4935 0 122 C0 81.74 0 41.48 0 0 Z " fill="#C99731" transform="translate(1249,176)"/>
<path d="M0 0 C9.8746 -0.0463 19.7492 -0.0818 29.6239 -0.1036 C34.2088 -0.1141 38.7936 -0.1283 43.3784 -0.1509 C47.8004 -0.1726 52.2224 -0.1846 56.6444 -0.1898 C58.3342 -0.1935 60.0239 -0.2007 61.7136 -0.2115 C64.0746 -0.2259 66.4354 -0.228 68.7964 -0.2271 C69.4999 -0.2342 70.2033 -0.2414 70.9281 -0.2488 C75.7719 -0.2281 75.7719 -0.2281 78 2 C78.125 5.125 78.125 5.125 78 8 C77.34 8 76.68 8 76 8 C76 8.66 76 9.32 76 10 C66.4207 10.0695 56.8415 10.1228 47.262 10.1554 C42.8139 10.1711 38.366 10.1923 33.918 10.2263 C29.6256 10.2589 25.3334 10.2769 21.041 10.2846 C19.4031 10.2902 17.7652 10.301 16.1274 10.3172 C13.8338 10.339 11.5408 10.342 9.2471 10.3406 C8.5942 10.3439 8.5942 10.3439 5.2903 10.3608 C1.824 9.9807 0.3826 9.5106 -2 7 C-2.25 4.3125 -2.25 4.3125 -2 2 C-1.34 2 -0.68 2 0 2 C0 1.34 0 0.68 0 0 Z " fill="#A5A093" transform="translate(552,232)"/>
<path d="M0 0 C0.691 0.004 1.3819 0.0081 2.0939 0.0123 C2.8225 0.0088 3.5511 0.0053 4.3017 0.0016 C6.7163 -0.0072 9.1305 -0.0013 11.545 0.0054 C13.2189 0.0041 14.8928 0.0021 16.5666 -0.0004 C20.0772 -0.0033 23.5877 0.001 27.0983 0.0103 C31.6045 0.0217 36.1105 0.0152 40.6168 0.0032 C44.074 -0.004 47.5311 -0.0018 50.9883 0.0034 C52.6501 0.0048 54.3119 0.0031 55.9738 -0.0015 C58.2939 -0.0066 60.6136 0.0011 62.9337 0.0123 C63.6247 0.0082 64.3156 0.0042 65.0276 0 C69.7852 0.0425 69.7852 0.0425 72.0138 2.2711 C72.2013 5.8336 72.2013 5.8336 72.0138 9.2711 C70.1137 11.1711 66.649 10.428 64.0631 10.4322 C63.3363 10.4372 62.6094 10.4421 61.8605 10.4472 C59.4455 10.4619 57.0305 10.4687 54.6153 10.4742 C52.9424 10.4799 51.2695 10.4857 49.5966 10.4915 C46.0843 10.502 42.572 10.5078 39.0597 10.5113 C34.5546 10.5168 30.0497 10.5408 25.5447 10.5693 C22.0875 10.5879 18.6304 10.5931 15.1731 10.5946 C13.5121 10.5977 11.8511 10.6057 10.1901 10.6188 C7.8676 10.6358 5.5458 10.634 3.2233 10.6275 C2.5343 10.6367 1.8454 10.6459 1.1355 10.6554 C-1.7052 10.6305 -3.5589 10.5725 -5.9173 8.9089 C-7.4304 6.5905 -7.3333 4.9785 -6.9862 2.2711 C-4.5646 -0.1506 -3.3048 0.0295 0 0 Z " fill="#A7A295" transform="translate(851.9862213134766,231.72894287109375)"/>
<path d="M0 0 C0.825 0.165 0.825 0.165 5 1 C4.01 1.33 3.02 1.66 2 2 C2 42.26 2 82.52 2 124 C2.99 124.33 3.98 124.66 5 125 C4.175 125.165 4.175 125.165 0 126 C0 84.42 0 42.84 0 0 Z " fill="#F3EAD5" transform="translate(1247,174)"/>
<path d="M0 0 C0.66 0 1.32 0 2 0 C2 0.66 2 1.32 2 2 C3.32 2 4.64 2 6 2 C6 2.66 6 3.32 6 4 C4.68 4 3.36 4 2 4 C2 42.28 2 80.56 2 120 C1.34 120 0.68 120 0 120 C0 80.4 0 40.8 0 0 Z " fill="#C59226" transform="translate(1251,177)"/>
<path d="M0 0 C1 2 1 2 0.5696 4.0158 C-0.2416 8.2656 -0.1304 12.4305 -0.1135 16.7473 C-0.1137 17.7234 -0.1138 18.6995 -0.114 19.7052 C-0.1133 22.9246 -0.1055 26.1439 -0.0977 29.3633 C-0.0958 31.5982 -0.0944 33.833 -0.0934 36.0679 C-0.0896 41.9451 -0.0797 47.8223 -0.0687 53.6995 C-0.0584 59.6988 -0.0539 65.698 -0.0488 71.6973 C-0.0381 83.4649 -0.021 95.2324 0 107 C-2.7032 104.4339 -3.2317 102.329 -3.381 98.7428 C-3.3988 96.9665 -3.4 95.1901 -3.3882 93.4138 C-3.3934 92.4427 -3.3987 91.4716 -3.4041 90.471 C-3.4173 87.2605 -3.4086 84.0504 -3.3984 80.8398 C-3.4005 78.6107 -3.4034 76.3816 -3.4071 74.1525 C-3.4116 69.4811 -3.4051 64.8098 -3.3911 60.1384 C-3.374 54.1436 -3.3839 48.1491 -3.4018 42.1543 C-3.4127 37.5519 -3.4092 32.9495 -3.4014 28.3471 C-3.3994 26.1362 -3.4019 23.9254 -3.4089 21.7145 C-3.4165 18.6284 -3.4049 15.5429 -3.3882 12.4568 C-3.3943 11.5388 -3.4003 10.6208 -3.4066 9.675 C-3.3981 8.8352 -3.3897 7.9954 -3.381 7.1302 C-3.3798 6.4008 -3.3787 5.6713 -3.3775 4.9197 C-2.8978 2.4801 -1.8709 1.5739 0 0 Z " fill="#E9E6DE" transform="translate(353,183)"/>
<path d="M0 0 C9.4835 -0.0231 18.9669 -0.0409 28.4504 -0.0518 C32.8537 -0.057 37.2569 -0.0641 41.6602 -0.0754 C45.9071 -0.0863 50.154 -0.0923 54.401 -0.0949 C56.0237 -0.0967 57.6465 -0.1003 59.2692 -0.1057 C61.5368 -0.113 63.8042 -0.114 66.0718 -0.1135 C67.3642 -0.1157 68.6566 -0.118 69.9881 -0.1203 C73 0 73 0 75 1 C75 2.65 75 4.3 75 6 C74.67 5.835 74.67 5.835 73 5 C73 4.01 73 3.02 73 2 C63.6468 2.1074 54.2937 2.22 44.9407 2.3393 C40.598 2.3946 36.2554 2.448 31.9126 2.4973 C27.724 2.5449 23.5354 2.5973 19.3469 2.6529 C17.7464 2.6734 16.146 2.6921 14.5456 2.7091 C12.3091 2.7331 10.0728 2.7632 7.8364 2.7947 C6.5618 2.8102 5.2872 2.8258 3.9739 2.8418 C1 3 1 3 -1 4 C-0.67 2.68 -0.34 1.36 0 0 Z " fill="#9B9587" transform="translate(848,233)"/>
</svg>
