<?xml version="1.0" encoding="UTF-8"?>
<!-- Generator: visioncortex VTracer 0.6.12 -->
<svg version="1.1" xmlns="http://www.w3.org/2000/svg" width="1600" height="474">
<path d="M0 0 C528 0 1056 0 1600 0 C1600 156.42 1600 312.84 1600 474 C1072 474 544 474 0 474 C0 317.58 0 161.16 0 0 Z " fill="#FEFEFE" transform="translate(0,0)"/>
<path d="M0 0 C210.21 0 420.42 0 637 0 C636 3 636 3 633.625 4.25 C633.09 4.4962 632.5551 4.7424 632.0039 4.9961 C626.1627 7.9224 620.4382 11.5025 615.6875 16 C612.006 19.3525 607.638 21.2216 603.1843 23.3242 C598.7917 25.4543 595.6636 27.8938 592.1875 31.25 C588.8363 33.9309 584.9943 35.5654 581.1328 37.375 C577.616 39.0655 574.8044 40.7923 572 43.5 C567.7308 47.6122 562.675 49.8476 557.3672 52.3242 C552.8661 54.5643 549.0351 56.9118 545.5625 60.5625 C543.109 62.8963 541.1472 63.9206 538.0273 65.1289 C532.6004 67.4607 527.4872 70.5128 523.3125 74.6875 C520.9919 77.0081 519.0543 77.9565 516.0273 79.1289 C510.6004 81.4607 505.4872 84.5128 501.3125 88.6875 C498.9919 91.0081 497.0543 91.9565 494.0273 93.1289 C488.6004 95.4607 483.4872 98.5128 479.3125 102.6875 C476.9919 105.0081 475.0543 105.9565 472.0273 107.1289 C466.6004 109.4607 461.4872 112.5128 457.3125 116.6875 C454.9919 119.0081 453.0543 119.9565 450.0273 121.1289 C444.6004 123.4607 439.4872 126.5128 435.3125 130.6875 C432.9899 133.0101 431.0511 133.9599 428.0195 135.1289 C423.7773 136.9587 419.8738 139.4982 416 142 C414.8095 142.507 413.6189 143.014 412.3923 143.5364 C409.493 145.6435 409.0359 146.8139 408.3457 150.3905 C407.9955 154.9609 408.0557 159.533 408.0977 164.1133 C408.0883 165.8101 408.0758 167.5069 408.0604 169.2037 C408.0282 173.6608 408.0376 178.1169 408.0558 182.574 C408.0669 187.1256 408.0386 191.677 408.0137 196.2285 C407.9705 205.1525 407.9714 214.0759 408 223 C406.4229 223.6431 404.8445 224.2831 403.2656 224.9219 C402.3868 225.2786 401.508 225.6354 400.6025 226.0029 C395.1092 228.1075 389.9333 229.2967 384 229 C384 229.66 384 230.32 384 231 C378.277 232.5408 372.6004 233.5865 366.7344 234.4375 C364.1429 234.9706 362.3303 235.8052 360 237 C356.75 237.125 356.75 237.125 354 237 C353.67 237.99 353.34 238.98 353 240 C348.38 240.33 343.76 240.66 339 241 C339.33 241.66 339.66 242.32 340 243 C340.5696 243.0007 340.5696 243.0007 343.4523 243.0043 C354.1934 243.021 364.9341 243.0638 375.6751 243.1321 C381.197 243.1664 386.7187 243.1915 392.2407 243.1956 C397.5708 243.1998 402.9002 243.2283 408.23 243.2734 C410.2625 243.2864 412.2951 243.2907 414.3276 243.2862 C417.1769 243.2813 420.0244 243.3073 422.8735 243.3406 C423.7122 243.332 424.5509 243.3233 425.415 243.3144 C429.547 243.3952 432.224 243.7554 435.5229 246.3605 C438.4619 249.4922 438.7601 250.8023 438.7617 255.0352 C438.7633 255.6046 438.7633 255.6046 438.7715 258.4863 C438.7576 259.0764 438.7576 259.0764 438.6875 262.0625 C438.6949 262.6545 438.6949 262.6545 438.7324 265.6504 C438.6492 274.2921 438.6492 274.2921 436.0374 277.14 C431.8583 279.6991 428.5502 279.5631 423.7386 279.5214 C422.8028 279.529 421.8669 279.5367 420.9027 279.5446 C417.765 279.5652 414.628 279.5573 411.4902 279.5493 C409.2415 279.558 406.9927 279.5684 404.744 279.5803 C398.6346 279.6071 392.5254 279.6082 386.4159 279.6032 C381.3187 279.601 376.2216 279.6108 371.1244 279.6204 C358.4146 279.6438 345.7051 279.6421 332.9953 279.6293 C321.9573 279.6189 310.9196 279.6414 299.8816 279.6795 C288.5463 279.7182 277.2111 279.7341 265.8756 279.7272 C259.5122 279.7236 253.1491 279.7289 246.7857 279.7566 C240.8036 279.7817 234.8221 279.778 228.84 279.7518 C226.6426 279.7471 224.4451 279.7526 222.2477 279.7691 C219.2514 279.7899 216.2575 279.7739 213.2614 279.7484 C212.3883 279.7632 211.5152 279.7779 210.6157 279.7931 C204.8632 279.6901 204.8632 279.6901 202.3547 277.6847 C197.7038 272.2352 197.7315 268.0868 197.625 261.25 C197.5876 260.3554 197.5502 259.4608 197.5117 258.5391 C197.454 254.193 197.5102 250.9623 200.2109 247.4219 C204.1852 243.9708 207.7386 243.8693 212.8633 243.9023 C213.7495 243.9056 214.6357 243.9088 215.5488 243.9121 C216.4608 243.9205 217.3729 243.9289 218.3125 243.9375 C219.2438 243.942 220.1752 243.9465 221.1348 243.9512 C223.4232 243.9629 225.7116 243.9793 228 244 C227.9389 231.3872 227.8619 218.7745 227.7643 206.1619 C227.7195 200.3059 227.6803 194.4499 227.6536 188.5938 C227.6276 182.9462 227.5873 177.2988 227.5368 171.6514 C227.5201 169.4928 227.5086 167.3341 227.5024 165.1755 C227.4928 162.1605 227.4648 159.1462 227.4324 156.1313 C227.4338 155.2315 227.4352 154.3317 227.4367 153.4046 C227.3987 150.923 227.3987 150.923 227 147 C226.01 146.34 225.02 145.68 224 145 C224 144.34 224 143.68 224 143 C223.4534 142.8556 223.4534 142.8556 220.6875 142.125 C217 141 217 141 214 139 C214 138.34 214 137.68 214 137 C211.8397 135.8798 209.7067 134.8856 207.4375 134 C205 133 205 133 202 131 C202 130.34 202 129.68 202 129 C201.4534 128.8556 201.4534 128.8556 198.6875 128.125 C195 127 195 127 192 125 C192 124.34 192 123.68 192 123 C189.8397 121.8798 187.7067 120.8856 185.4375 120 C183 119 183 119 180 117 C180 116.34 180 115.68 180 115 C178.9069 114.7113 177.8138 114.4225 176.6875 114.125 C173 113 173 113 170 111 C170 110.34 170 109.68 170 109 C167.8397 107.8798 165.7067 106.8856 163.4375 106 C161 105 161 105 158 103 C158 102.34 158 101.68 158 101 C156.9069 100.7113 155.8138 100.4225 154.6875 100.125 C151 99 151 99 148 97 C148 96.34 148 95.68 148 95 C145.8397 93.8798 143.7067 92.8856 141.4375 92 C139 91 139 91 136 89 C136 88.34 136 87.68 136 87 C134.9069 86.7113 133.8138 86.4225 132.6875 86.125 C129 85 129 85 126 83 C126 82.34 126 81.68 126 81 C123.8397 79.8798 121.7067 78.8856 119.4375 78 C117 77 117 77 114 75 C114 74.34 114 73.68 114 73 C112.9069 72.7113 111.8138 72.4225 110.6875 72.125 C107 71 107 71 104 69 C104 68.34 104 67.68 104 67 C101.8397 65.8798 99.7067 64.8856 97.4375 64 C95 63 95 63 92 61 C92 60.34 92 59.68 92 59 C90.9069 58.7113 89.8138 58.4225 88.6875 58.125 C85 57 85 57 82 55 C82 54.34 82 53.68 82 53 C79.8397 51.8798 77.7067 50.8856 75.4375 50 C73 49 73 49 70 47 C70 46.34 70 45.68 70 45 C68.9069 44.7113 67.8138 44.4225 66.6875 44.125 C63 43 63 43 60 41 C60 40.34 60 39.68 60 39 C57.8397 37.8798 55.7067 36.8856 53.4375 36 C51 35 51 35 48 33 C48 32.34 48 31.68 48 31 C46.9069 30.7113 45.8137 30.4225 44.6875 30.125 C41 29 41 29 38 27 C38 26.34 38 25.68 38 25 C35.8397 23.8798 33.7067 22.8856 31.4375 22 C29 21 29 21 26 19 C26 18.34 26 17.68 26 17 C25.5153 16.8969 25.5153 16.8969 23.0625 16.375 C18.1674 14.9907 13.8893 12.2455 10 9 C10 8.34 10 7.68 10 7 C9.01 7 8.02 7 7 7 C7 6.34 7 5.68 7 5 C6.01 5 5.02 5 4 5 C4 4.34 4 3.68 4 3 C2.68 2.34 1.36 1.68 0 1 C0 0.67 0 0.34 0 0 Z " fill="#E8E3D8" transform="translate(202,155)"/>
<path d="M0 0 C210.21 0 420.42 0 637 0 C636 3 636 3 633.625 4.25 C633.09 4.4962 632.5551 4.7424 632.0039 4.9961 C626.1627 7.9224 620.4382 11.5025 615.6875 16 C612.006 19.3525 607.638 21.2216 603.1843 23.3242 C598.7917 25.4543 595.6636 27.8938 592.1875 31.25 C588.8363 33.9309 584.9943 35.5654 581.1328 37.375 C577.616 39.0655 574.8044 40.7923 572 43.5 C567.7308 47.6122 562.675 49.8476 557.3672 52.3242 C552.8661 54.5643 549.0351 56.9118 545.5625 60.5625 C543.109 62.8963 541.1472 63.9206 538.0273 65.1289 C532.6004 67.4607 527.4872 70.5128 523.3125 74.6875 C520.9919 77.0081 519.0543 77.9565 516.0273 79.1289 C510.6004 81.4607 505.4872 84.5128 501.3125 88.6875 C498.9919 91.0081 497.0543 91.9565 494.0273 93.1289 C488.6004 95.4607 483.4872 98.5128 479.3125 102.6875 C476.9919 105.0081 475.0543 105.9565 472.0273 107.1289 C466.6004 109.4607 461.4872 112.5128 457.3125 116.6875 C454.9919 119.0081 453.0543 119.9565 450.0273 121.1289 C444.6004 123.4607 439.4872 126.5128 435.3125 130.6875 C432.9899 133.0101 431.0511 133.9599 428.0195 135.1289 C423.7773 136.9587 419.8738 139.4982 416 142 C414.8095 142.507 413.6189 143.014 412.3923 143.5364 C409.493 145.6435 409.0359 146.8139 408.3457 150.3905 C407.9955 154.9609 408.0557 159.533 408.0977 164.1133 C408.0883 165.8101 408.0758 167.5069 408.0604 169.2037 C408.0282 173.6608 408.0376 178.1169 408.0558 182.574 C408.0669 187.1256 408.0386 191.677 408.0137 196.2285 C407.9705 205.1525 407.9714 214.0759 408 223 C406.4229 223.6431 404.8445 224.2831 403.2656 224.9219 C402.3868 225.2786 401.508 225.6354 400.6025 226.0029 C395.1092 228.1075 389.9333 229.2967 384 229 C384 229.66 384 230.32 384 231 C378.277 232.5408 372.6004 233.5865 366.7344 234.4375 C364.1429 234.9706 362.3303 235.8052 360 237 C356.75 237.125 356.75 237.125 354 237 C353.67 237.99 353.34 238.98 353 240 C348.38 240.33 343.76 240.66 339 241 C339.33 241.66 339.66 242.32 340 243 C340.5696 243.0007 340.5696 243.0007 343.4523 243.0043 C354.1934 243.021 364.9341 243.0638 375.6751 243.1321 C381.197 243.1664 386.7187 243.1915 392.2407 243.1956 C397.5708 243.1998 402.9002 243.2283 408.23 243.2734 C410.2625 243.2864 412.2951 243.2907 414.3276 243.2862 C417.1769 243.2813 420.0244 243.3073 422.8735 243.3406 C423.7122 243.332 424.5509 243.3233 425.415 243.3144 C429.547 243.3952 432.224 243.7554 435.5229 246.3605 C438.4619 249.4922 438.7601 250.8023 438.7617 255.0352 C438.7633 255.6046 438.7633 255.6046 438.7715 258.4863 C438.7576 259.0764 438.7576 259.0764 438.6875 262.0625 C438.6949 262.6545 438.6949 262.6545 438.7324 265.6504 C438.6492 274.2921 438.6492 274.2921 436.0374 277.14 C431.8583 279.6991 428.5502 279.5631 423.7386 279.5214 C422.8028 279.529 421.8669 279.5367 420.9027 279.5446 C417.765 279.5652 414.628 279.5573 411.4902 279.5493 C409.2415 279.558 406.9927 279.5684 404.744 279.5803 C398.6346 279.6071 392.5254 279.6082 386.4159 279.6032 C381.3187 279.601 376.2216 279.6108 371.1244 279.6204 C358.4146 279.6438 345.7051 279.6421 332.9953 279.6293 C321.9573 279.6189 310.9196 279.6414 299.8816 279.6795 C288.5463 279.7182 277.2111 279.7341 265.8756 279.7272 C259.5122 279.7236 253.1491 279.7289 246.7857 279.7566 C240.8036 279.7817 234.8221 279.778 228.84 279.7518 C226.6426 279.7471 224.4451 279.7526 222.2477 279.7691 C219.2514 279.7899 216.2575 279.7739 213.2614 279.7484 C212.3883 279.7632 211.5152 279.7779 210.6157 279.7931 C204.8632 279.6901 204.8632 279.6901 202.3547 277.6847 C197.7038 272.2352 197.7315 268.0868 197.625 261.25 C197.5876 260.3554 197.5502 259.4608 197.5117 258.5391 C197.454 254.193 197.5102 250.9623 200.2109 247.4219 C204.1852 243.9708 207.7386 243.8693 212.8633 243.9023 C213.7495 243.9056 214.6357 243.9088 215.5488 243.9121 C216.4608 243.9205 217.3729 243.9289 218.3125 243.9375 C219.2438 243.942 220.1752 243.9465 221.1348 243.9512 C223.4232 243.9629 225.7116 243.9793 228 244 C227.9389 231.3872 227.8619 218.7745 227.7643 206.1619 C227.7195 200.3059 227.6803 194.4499 227.6536 188.5938 C227.6276 182.9462 227.5873 177.2988 227.5368 171.6514 C227.5201 169.4928 227.5086 167.3341 227.5024 165.1755 C227.4928 162.1605 227.4648 159.1462 227.4324 156.1313 C227.4338 155.2315 227.4352 154.3317 227.4367 153.4046 C227.3987 150.923 227.3987 150.923 227 147 C226.01 146.34 225.02 145.68 224 145 C224 144.34 224 143.68 224 143 C223.4534 142.8556 223.4534 142.8556 220.6875 142.125 C217 141 217 141 214 139 C214 138.34 214 137.68 214 137 C211.8397 135.8798 209.7067 134.8856 207.4375 134 C205 133 205 133 202 131 C202 130.34 202 129.68 202 129 C201.4534 128.8556 201.4534 128.8556 198.6875 128.125 C195 127 195 127 192 125 C192 124.34 192 123.68 192 123 C189.8397 121.8798 187.7067 120.8856 185.4375 120 C183 119 183 119 180 117 C180 116.34 180 115.68 180 115 C178.9069 114.7113 177.8138 114.4225 176.6875 114.125 C173 113 173 113 170 111 C170 110.34 170 109.68 170 109 C167.8397 107.8798 165.7067 106.8856 163.4375 106 C161 105 161 105 158 103 C158 102.34 158 101.68 158 101 C156.9069 100.7113 155.8138 100.4225 154.6875 100.125 C151 99 151 99 148 97 C148 96.34 148 95.68 148 95 C145.8397 93.8798 143.7067 92.8856 141.4375 92 C139 91 139 91 136 89 C136 88.34 136 87.68 136 87 C134.9069 86.7113 133.8138 86.4225 132.6875 86.125 C129 85 129 85 126 83 C126 82.34 126 81.68 126 81 C123.8397 79.8798 121.7067 78.8856 119.4375 78 C117 77 117 77 114 75 C114 74.34 114 73.68 114 73 C112.9069 72.7113 111.8138 72.4225 110.6875 72.125 C107 71 107 71 104 69 C104 68.34 104 67.68 104 67 C101.8397 65.8798 99.7067 64.8856 97.4375 64 C95 63 95 63 92 61 C92 60.34 92 59.68 92 59 C90.9069 58.7113 89.8138 58.4225 88.6875 58.125 C85 57 85 57 82 55 C82 54.34 82 53.68 82 53 C79.8397 51.8798 77.7067 50.8856 75.4375 50 C73 49 73 49 70 47 C70 46.34 70 45.68 70 45 C68.9069 44.7113 67.8138 44.4225 66.6875 44.125 C63 43 63 43 60 41 C60 40.34 60 39.68 60 39 C57.8397 37.8798 55.7067 36.8856 53.4375 36 C51 35 51 35 48 33 C48 32.34 48 31.68 48 31 C46.9069 30.7113 45.8137 30.4225 44.6875 30.125 C41 29 41 29 38 27 C38 26.34 38 25.68 38 25 C35.8397 23.8798 33.7067 22.8856 31.4375 22 C29 21 29 21 26 19 C26 18.34 26 17.68 26 17 C25.5153 16.8969 25.5153 16.8969 23.0625 16.375 C18.1674 14.9907 13.8893 12.2455 10 9 C10 8.34 10 7.68 10 7 C9.01 7 8.02 7 7 7 C7 6.34 7 5.68 7 5 C6.01 5 5.02 5 4 5 C4 4.34 4 3.68 4 3 C2.68 2.34 1.36 1.68 0 1 C0 0.67 0 0.34 0 0 Z M34 10 C34.33 10.99 34.66 11.98 35 13 C37.3125 14.0625 37.3125 14.0625 40 15 C41.3405 15.6521 42.6766 16.3138 44 17 C44 17.66 44 18.32 44 19 C45.0931 19.4744 46.1863 19.9487 47.3125 20.4375 C47.6199 20.5709 47.6199 20.5709 49.1758 21.2461 C50.7571 21.8996 52.3768 22.4589 54 23 C54 23.66 54 24.32 54 25 C57.5186 28.2549 61.1541 30.5595 66 31 C66 31.66 66 32.32 66 33 C67.0931 33.4744 68.1862 33.9488 69.3125 34.4375 C69.9274 34.7043 70.5423 34.9712 71.1758 35.2461 C72.7571 35.8996 74.3768 36.4589 76 37 C76 37.66 76 38.32 76 39 C79.5186 42.2549 83.1541 44.5595 88 45 C88 45.66 88 46.32 88 47 C89.0931 47.4744 90.1862 47.9487 91.3125 48.4375 C91.9274 48.7043 92.5423 48.9712 93.1758 49.2461 C94.7571 49.8996 96.3768 50.4589 98 51 C98 51.66 98 52.32 98 53 C101.5186 56.2549 105.1541 58.5595 110 59 C110 59.66 110 60.32 110 61 C111.0931 61.4744 112.1862 61.9487 113.3125 62.4375 C113.9274 62.7043 114.5423 62.9712 115.1758 63.2461 C116.7571 63.8996 118.3768 64.4589 120 65 C120 65.66 120 66.32 120 67 C123.5186 70.2549 127.1541 72.5595 132 73 C132 73.66 132 74.32 132 75 C133.0931 75.4744 134.1862 75.9488 135.3125 76.4375 C135.9274 76.7043 136.5423 76.9712 137.1758 77.2461 C138.7571 77.8996 140.3768 78.4589 142 79 C142 79.66 142 80.32 142 81 C145.5186 84.2549 149.1541 86.5595 154 87 C154 87.66 154 88.32 154 89 C155.0931 89.4744 156.1862 89.9488 157.3125 90.4375 C157.9274 90.7043 158.5423 90.9712 159.1758 91.2461 C160.7571 91.8996 162.3768 92.4589 164 93 C164 93.66 164 94.32 164 95 C167.5186 98.2549 171.1541 100.5595 176 101 C176 101.66 176 102.32 176 103 C176.5466 103.2372 176.5466 103.2372 179.3125 104.4375 C179.6199 104.5709 179.6199 104.5709 181.1758 105.2461 C182.7571 105.8996 184.3768 106.4589 186 107 C186 107.66 186 108.32 186 109 C189.5186 112.2549 193.1541 114.5595 198 115 C198 115.66 198 116.32 198 117 C198.5466 117.2372 198.5466 117.2372 201.3125 118.4375 C201.6199 118.5709 201.6199 118.5709 203.1758 119.2461 C204.7571 119.8996 206.3768 120.4589 208 121 C208 121.66 208 122.32 208 123 C211.5186 126.2549 215.1541 128.5595 220 129 C220 129.66 220 130.32 220 131 C220.5466 131.2372 220.5466 131.2372 223.3125 132.4375 C223.6199 132.5709 223.6199 132.5709 225.1758 133.2461 C226.7571 133.8996 228.3768 134.4589 230 135 C230 135.66 230 136.32 230 137 C235.4118 141 235.4118 141 238 141 C238 175.32 238 209.64 238 245 C294.4167 245 294.4167 245 302.4375 241.5 C306.0557 239.9765 309.3277 239.2518 313.1797 238.625 C315.6501 238.0775 317.8996 237.3743 320.2852 236.5469 C324.6677 235.051 329.0187 234.1036 333.5625 233.25 C344.3433 231.1069 354.7804 227.9431 365.3018 224.7944 C370.0354 223.4007 374.8054 222.1588 379.5781 220.9062 C383.3531 219.9065 387.1165 218.8722 390.875 217.8125 C391.4512 217.6507 391.4512 217.6507 394.3672 216.832 C397 216 397 216 398 215 C398.0397 212.751 398.0088 210.5008 397.9514 208.2522 C397.9186 206.7884 397.8867 205.3246 397.8554 203.8607 C397.8377 203.0802 397.8201 202.2996 397.8019 201.4954 C397.7031 196.4945 397.6785 191.4925 397.6443 186.4908 C397.6101 182.0972 397.5473 177.7077 397.4207 173.3157 C396.6362 144.9783 396.6362 144.9783 400.4883 138.4953 C404.0883 134.8452 408.1945 133.0892 413.0479 131.6308 C415.7125 130.7698 417.8273 129.3702 420.1211 127.7852 C420.8393 127.3325 421.5576 126.8799 422.2976 126.4136 C422.6507 126.1906 422.6507 126.1906 424.4375 125.0625 C425.2255 124.5651 426.0135 124.0677 426.8254 123.5552 C432.8421 119.7496 438.8208 115.888 444.79 112.0085 C450.2219 108.4854 455.7012 105.0435 461.1987 101.624 C465.9949 98.6378 470.7548 95.5998 475.5007 92.5347 C480.4798 89.3235 485.4878 86.1592 490.5 83 C512.8521 68.8997 512.8521 68.8997 517.8125 65.25 C520.2616 63.5212 522.566 62.1009 525.1875 60.6875 C529.8619 58.1536 534.2089 55.2288 538.6094 52.25 C543.0968 49.2405 547.701 46.416 552.3049 43.5891 C556.1327 41.224 559.8096 38.7275 563.4524 36.0872 C565.2928 34.7943 567.1904 33.7199 569.1875 32.6875 C573.9275 30.121 578.3334 27.1446 582.7969 24.1289 C596.1162 15.2764 596.1162 15.2764 603 12 C603 11.34 603 10.68 603 10 C415.23 10 227.46 10 34 10 Z " fill="#433E38" transform="translate(202,155)"/>
<path d="M0 0 C1.2166 -0.0072 2.4332 -0.0143 3.6867 -0.0217 C5.0322 -0.0245 6.3776 -0.0272 7.723 -0.0298 C9.1425 -0.0361 10.5621 -0.0427 11.9816 -0.0497 C16.6421 -0.0708 21.3027 -0.0811 25.9633 -0.0911 C27.5714 -0.0952 29.1796 -0.0993 30.7878 -0.1035 C38.3484 -0.1225 45.9089 -0.1367 53.4695 -0.1451 C62.1754 -0.1548 70.8811 -0.1811 79.587 -0.2216 C86.3286 -0.2518 93.0701 -0.2665 99.8118 -0.2699 C103.832 -0.2722 107.8518 -0.281 111.8719 -0.3063 C115.6608 -0.3298 119.4493 -0.3338 123.2383 -0.3236 C125.2732 -0.3228 127.3082 -0.3418 129.343 -0.3616 C137.3727 -0.3166 147.4747 -0.069 153.7418 5.6973 C154.1758 6.1758 154.6098 6.6542 155.057 7.1472 C155.8201 7.5945 156.5833 8.0418 157.3695 8.5026 C168.4368 15.2749 173.6418 23.9946 177.057 36.1472 C177.387 36.4772 177.717 36.8072 178.057 37.1472 C178.3398 40.4508 178.289 43.7704 178.307 47.0847 C178.3173 47.5413 178.3173 47.5413 178.3695 49.8522 C178.4276 60.1095 175.4836 69.4293 170.057 78.1472 C167.557 80.4597 167.557 80.4597 165.057 82.1472 C164.2733 82.9515 163.4895 83.7559 162.682 84.5847 C149.9053 97.0572 134.6961 97.3054 117.7103 97.2766 C116.4227 97.2783 115.1352 97.2801 113.8085 97.2819 C110.3109 97.2864 106.8133 97.2847 103.3156 97.2815 C99.6394 97.2789 95.9632 97.2813 92.2869 97.2829 C86.1206 97.2847 79.9543 97.2823 73.788 97.2775 C66.6721 97.2721 59.5562 97.2739 52.4403 97.2794 C46.3101 97.2839 40.1799 97.2845 34.0496 97.2819 C30.3971 97.2804 26.7445 97.2801 23.092 97.2835 C19.0233 97.2869 14.9547 97.2821 10.8861 97.2766 C10.2855 97.2776 10.2855 97.2776 7.2461 97.2827 C-6.1494 97.2488 -17.7346 95.1785 -27.775 85.5222 C-33.5656 79.1786 -39.291 72.4151 -41.943 64.1472 C-42.1441 63.522 -42.3452 62.8968 -42.5524 62.2526 C-46.047 49.5256 -44.5566 36.7463 -38.3649 25.2058 C-32.3646 15.2729 -25.6255 8.6451 -14.943 4.1472 C-14.0561 3.6109 -13.1692 3.0747 -12.2555 2.5222 C-8.2223 0.124 -4.6435 0.0188 0 0 Z " fill="#E7E2D7" transform="translate(1213.9429931640625,95.85282897949219)"/>
<path d="M0 0 C4.1829 1.0722 7.4167 2.6217 11 5 C11.7322 5.4344 12.4644 5.8688 13.2188 6.3164 C20.9463 11.3768 24.9453 19.1621 27 28 C27.2078 30.6957 27.3338 33.2483 27.3125 35.9375 C27.3098 36.6404 27.307 37.3434 27.3042 38.0676 C27.1959 43.4298 26.3435 47.2229 24 52 C23.7164 52.7992 23.4328 53.5984 23.1406 54.4219 C21.8492 57.3407 20.2837 59.2205 18.125 61.5625 C17.447 62.3063 16.7689 63.0501 16.0703 63.8164 C15.3871 64.537 14.7039 65.2576 14 66 C13.3439 66.7051 12.6877 67.4102 12.0117 68.1367 C5.4221 74.2401 -2.8368 74.4996 -11.4141 74.2734 C-15.8064 73.9385 -19.7636 73.1892 -24 72 C-24 71.34 -24 70.68 -24 70 C-24.6806 69.9588 -25.3612 69.9175 -26.0625 69.875 C-30.185 68.647 -33.1 66.1508 -36 63 C-36 62.34 -36 61.68 -36 61 C-36.66 61 -37.32 61 -38 61 C-39.2188 59.5039 -39.2188 59.5039 -40.5 57.5625 C-42.7915 54.1042 -42.7915 54.1042 -45 53 C-47.7846 43.6835 -48.3544 33.1804 -45 24 C-44.6081 22.8656 -44.2162 21.7312 -43.8125 20.5625 C-41.5025 16.0222 -38.4788 12.6796 -35 9 C-34.34 8.2369 -33.68 7.4737 -33 6.6875 C-30.2733 4.3868 -27.2956 3.3182 -24 2 C-17.638 -2.2413 -7.4062 -0.7193 0 0 Z " fill="#C8962F" transform="translate(1348,108)"/>
<path d="M0 0 C0.8442 -0.0014 1.6883 -0.0027 2.5581 -0.0042 C3.486 -0.0006 4.4138 0.003 5.3698 0.0067 C6.3455 0.0066 7.3211 0.0064 8.3264 0.0063 C11.5621 0.007 14.7977 0.0148 18.0334 0.0226 C20.2726 0.0245 22.5117 0.0259 24.7509 0.0269 C30.6528 0.0307 36.5547 0.0405 42.4566 0.0516 C48.4757 0.0618 54.4948 0.0664 60.5139 0.0714 C72.3303 0.0822 84.1467 0.0992 95.9631 0.1203 C95.9631 0.7803 95.9631 1.4403 95.9631 2.1203 C96.5819 2.2646 97.2006 2.409 97.8381 2.5578 C100.4166 3.2403 101.6222 3.5765 103.0605 5.8707 C104.7495 10.0802 104.4584 14.5128 104.5256 18.9953 C104.5752 19.9762 104.6249 20.9572 104.676 21.9679 C104.6895 22.9231 104.7031 23.8783 104.717 24.8624 C104.7409 25.7272 104.7649 26.592 104.7895 27.483 C103.4791 31.6649 100.6741 33.8997 96.9631 36.1203 C93.5588 36.9341 90.2919 36.8824 86.8051 36.8014 C85.8093 36.8023 84.8134 36.8032 83.7873 36.8041 C80.5131 36.7999 77.2409 36.7533 73.967 36.7062 C71.6902 36.695 69.4133 36.6865 67.1364 36.6805 C61.1569 36.6576 55.1783 36.5987 49.1991 36.5322 C43.0926 36.4708 36.9859 36.4434 30.8791 36.4132 C18.9067 36.349 6.935 36.2466 -5.0369 36.1203 C-5.0369 35.4603 -5.0369 34.8003 -5.0369 34.1203 C-5.6763 33.8728 -6.3156 33.6253 -6.9744 33.3703 C-9.0369 32.1203 -9.0369 32.1203 -9.7869 29.9953 C-9.8694 29.3765 -9.9519 28.7578 -10.0369 28.1203 C-10.6969 28.1203 -11.3569 28.1203 -12.0369 28.1203 C-12.2128 24.9335 -12.3183 21.7479 -12.4119 18.5578 C-12.4622 17.6625 -12.5124 16.7672 -12.5642 15.8449 C-12.6728 10.9062 -12.3837 7.8902 -9.1385 4.0304 C-6.1533 0.9686 -4.2733 -0.0054 0 0 Z " fill="#A39E91" transform="translate(262.0368957519531,83.87974548339844)"/>
<path d="M0 0 C0.986 -0.0009 1.972 -0.0018 2.9878 -0.0027 C6.2351 0.0015 9.4802 0.0481 12.7271 0.0952 C14.9829 0.1064 17.2388 0.1149 19.4947 0.1209 C25.4232 0.1438 31.3509 0.2027 37.2791 0.2692 C43.3319 0.3306 49.3849 0.358 55.438 0.3882 C67.3082 0.4525 79.1777 0.5548 91.0474 0.6812 C91.0474 1.3412 91.0474 2.0012 91.0474 2.6812 C91.6249 2.743 92.2024 2.8049 92.7974 2.8687 C96.1907 4.094 97.1565 5.5958 99.0474 8.6812 C99.6871 12.1484 99.6968 15.538 99.6724 19.0562 C99.7046 19.9765 99.7368 20.8969 99.77 21.8452 C99.7713 22.7476 99.7726 23.6499 99.7739 24.5796 C99.7799 25.3909 99.7858 26.2022 99.792 27.0381 C98.6264 31.1752 96.4168 34.0202 93.0474 36.6812 C89.6827 37.6773 86.4643 37.6098 82.9746 37.5393 C82.4751 37.543 82.4751 37.543 79.9471 37.5619 C76.654 37.5774 73.3637 37.5424 70.0708 37.5054 C67.7797 37.5025 65.4885 37.5021 63.1974 37.5041 C58.4006 37.5009 53.6047 37.4739 48.8081 37.429 C42.6563 37.3722 36.5056 37.3641 30.3536 37.3724 C25.625 37.3752 20.8966 37.3576 16.168 37.3332 C13.8994 37.323 11.6307 37.3179 9.3621 37.318 C6.1946 37.3141 3.0285 37.284 -0.1387 37.2463 C-1.078 37.2497 -2.0173 37.2531 -2.9851 37.2566 C-9.3323 37.1418 -9.3323 37.1418 -12.441 34.8333 C-16.4653 29.1038 -16.3847 25.248 -16.4526 18.3687 C-16.4939 17.3355 -16.5351 16.3023 -16.5776 15.2378 C-16.5828 14.7354 -16.5828 14.7354 -16.6089 12.1929 C-16.6276 11.2798 -16.6463 10.3668 -16.6655 9.426 C-14.3865 0.6509 -7.7903 -0.1821 0 0 Z " fill="#A6A094" transform="translate(441.95263671875,83.31884765625)"/>
<path d="M0 0 C0.488 -0.0003 0.488 -0.0003 2.9578 -0.0018 C6.1776 0.001 9.3964 0.0321 12.616 0.0635 C14.8508 0.0709 17.0857 0.0766 19.3206 0.0806 C25.198 0.0959 31.075 0.1352 36.9522 0.1794 C42.9514 0.2204 48.9507 0.2386 54.95 0.2588 C66.7177 0.3017 78.4852 0.3699 90.2527 0.4541 C90.2527 1.1141 90.2527 1.7741 90.2527 2.4541 C90.8302 2.516 91.4077 2.5779 92.0027 2.6416 C95.3832 3.8623 96.3683 5.3876 98.2527 8.4541 C98.8144 11.779 98.7661 15.0276 98.6902 18.3916 C98.6973 19.2727 98.7044 20.1538 98.7117 21.0615 C98.6615 26.2118 98.2677 30.0854 95.2527 34.4541 C92.3942 36.2309 90.2394 36.7028 86.8994 36.6946 C86.0356 36.6974 85.1719 36.7001 84.282 36.7029 C83.8123 36.6993 83.8123 36.6993 81.4353 36.6812 C80.4399 36.6814 79.4444 36.6817 78.4188 36.682 C75.129 36.6806 71.8394 36.6651 68.5496 36.6494 C66.2684 36.6457 63.9873 36.6428 61.7061 36.6408 C55.7023 36.6332 49.6985 36.6136 43.6947 36.5914 C37.5682 36.571 31.4417 36.5618 25.3152 36.5518 C13.2943 36.5303 1.2735 36.4962 -10.7473 36.4541 C-10.7473 35.7941 -10.7473 35.1341 -10.7473 34.4541 C-11.3661 34.2066 -11.9848 33.9591 -12.6223 33.7041 C-15.3029 32.1273 -15.7011 31.3889 -16.7473 28.4541 C-17.0394 25.4922 -17.0261 22.5531 -16.9973 19.5791 C-17.005 18.7889 -17.0128 17.9987 -17.0208 17.1846 C-17.0019 11.507 -16.8033 6.6844 -12.7755 2.315 C-8.4877 -0.32 -4.9393 -0.0775 0 0 Z " fill="#A39E91" transform="translate(791.747314453125,83.5458984375)"/>
<path d="M0 0 C1.2166 -0.0072 2.4332 -0.0143 3.6867 -0.0217 C5.0322 -0.0245 6.3776 -0.0272 7.723 -0.0298 C9.1425 -0.0361 10.5621 -0.0427 11.9816 -0.0497 C16.6421 -0.0708 21.3027 -0.0811 25.9633 -0.0911 C27.5714 -0.0952 29.1796 -0.0993 30.7878 -0.1035 C38.3484 -0.1225 45.9089 -0.1367 53.4695 -0.1451 C62.1754 -0.1548 70.8811 -0.1811 79.587 -0.2216 C86.3286 -0.2518 93.0701 -0.2665 99.8118 -0.2699 C103.832 -0.2722 107.8518 -0.281 111.8719 -0.3063 C115.6608 -0.3298 119.4493 -0.3338 123.2383 -0.3236 C125.2732 -0.3228 127.3082 -0.3418 129.343 -0.3616 C137.3727 -0.3166 147.4747 -0.069 153.7418 5.6973 C154.1758 6.1758 154.6098 6.6542 155.057 7.1472 C155.8201 7.5945 156.5833 8.0418 157.3695 8.5026 C168.4368 15.2749 173.6418 23.9946 177.057 36.1472 C177.387 36.4772 177.717 36.8072 178.057 37.1472 C178.3398 40.4508 178.289 43.7704 178.307 47.0847 C178.3173 47.5413 178.3173 47.5413 178.3695 49.8522 C178.4276 60.1095 175.4836 69.4293 170.057 78.1472 C167.557 80.4597 167.557 80.4597 165.057 82.1472 C164.2733 82.9515 163.4895 83.7559 162.682 84.5847 C149.9053 97.0572 134.6961 97.3054 117.7103 97.2766 C116.4227 97.2783 115.1352 97.2801 113.8085 97.2819 C110.3109 97.2864 106.8133 97.2847 103.3156 97.2815 C99.6394 97.2789 95.9632 97.2813 92.2869 97.2829 C86.1206 97.2847 79.9543 97.2823 73.788 97.2775 C66.6721 97.2721 59.5562 97.2739 52.4403 97.2794 C46.3101 97.2839 40.1799 97.2845 34.0496 97.2819 C30.3971 97.2804 26.7445 97.2801 23.092 97.2835 C19.0233 97.2869 14.9547 97.2821 10.8861 97.2766 C10.2855 97.2776 10.2855 97.2776 7.2461 97.2827 C-6.1494 97.2488 -17.7346 95.1785 -27.775 85.5222 C-33.5656 79.1786 -39.291 72.4151 -41.943 64.1472 C-42.1441 63.522 -42.3452 62.8968 -42.5524 62.2526 C-46.047 49.5256 -44.5566 36.7463 -38.3649 25.2058 C-32.3646 15.2729 -25.6255 8.6451 -14.943 4.1472 C-14.0561 3.6109 -13.1692 3.0747 -12.2555 2.5222 C-8.2223 0.124 -4.6435 0.0188 0 0 Z M-13.943 12.1472 C-14.449 12.4166 -14.449 12.4166 -17.0094 13.78 C-17.8331 14.2724 -18.6568 14.7648 -19.5055 15.2722 C-20.3524 15.7697 -21.1993 16.2673 -22.0719 16.78 C-22.6894 17.2312 -23.3068 17.6823 -23.943 18.1472 C-23.943 18.8072 -23.943 19.4672 -23.943 20.1472 C-24.603 20.1472 -25.263 20.1472 -25.943 20.1472 C-29.2986 23.7171 -30.976 27.2575 -32.6305 31.8347 C-34.9303 38.1219 -34.9303 38.1219 -35.943 40.1472 C-36.0261 41.5227 -36.0504 42.902 -36.0406 44.28 C-36.0374 45.0856 -36.0342 45.8913 -36.0309 46.7214 C-36.0225 47.5631 -36.0141 48.4049 -36.0055 49.2722 C-36.001 50.1217 -35.9965 50.9712 -35.9918 51.8464 C-35.98 53.9467 -35.9621 56.0469 -35.943 58.1472 C-35.283 58.1472 -34.623 58.1472 -33.943 58.1472 C-34.0049 59.0547 -34.0667 59.9622 -34.1305 60.8972 C-33.9188 64.566 -33.235 65.4144 -30.943 68.1472 C-30.8076 68.53 -30.8076 68.53 -30.1227 70.4675 C-28.713 73.6696 -26.9364 75.5189 -24.443 77.9597 C-24.046 78.3548 -24.046 78.3548 -22.0367 80.3542 C-19.943 82.1472 -19.943 82.1472 -17.943 82.1472 C-17.943 82.8072 -17.943 83.4672 -17.943 84.1472 C-7.6501 88.8461 1.274 90.5914 12.6256 90.5354 C13.9622 90.5394 15.2988 90.5448 16.6354 90.5513 C20.2367 90.5649 23.8376 90.5597 27.4388 90.5501 C31.2236 90.5425 35.0083 90.5496 38.7931 90.5543 C45.1453 90.5597 51.4975 90.5526 57.8497 90.5383 C65.1753 90.522 72.5005 90.5273 79.826 90.5438 C86.1372 90.5574 92.4482 90.5593 98.7594 90.5514 C102.5194 90.5468 106.2793 90.5461 110.0392 90.5561 C113.5746 90.5648 117.1096 90.5586 120.645 90.5414 C122.548 90.5356 124.4511 90.5444 126.3541 90.5538 C133.1472 90.5038 138.7945 89.8364 145.057 87.1472 C146.0483 86.7218 147.0396 86.2964 148.0609 85.8581 C154.7004 82.3914 159.7388 78.3338 164.057 72.1472 C164.057 71.4872 164.057 70.8272 164.057 70.1472 C164.717 70.1472 165.377 70.1472 166.057 70.1472 C169.5655 62.8506 170.6858 56.7061 170.557 48.6472 C170.5725 47.6791 170.5879 46.711 170.6039 45.7136 C170.5479 35.2925 167.3839 27.5657 160.1195 20.1472 C159.6071 19.589 159.0947 19.0308 158.5668 18.4558 C155.6535 15.3833 153.2502 13.2824 149.057 12.1472 C148.067 12.1472 147.077 12.1472 146.057 12.1472 C146.057 11.4872 146.057 10.8272 146.057 10.1472 C141.855 8.5669 138.3732 7.894 133.8913 7.8797 C132.676 7.8712 131.4607 7.8627 130.2086 7.8539 C128.8751 7.8546 127.5416 7.8555 126.2081 7.8566 C124.7933 7.8507 123.3785 7.8438 121.9636 7.8363 C118.1308 7.8187 114.2981 7.8139 110.4653 7.8127 C108.0675 7.8112 105.6696 7.807 103.2718 7.8017 C94.8972 7.7832 86.5227 7.775 78.1481 7.7766 C70.3568 7.7778 62.5658 7.7567 54.7746 7.7251 C48.0729 7.6989 41.3713 7.6882 34.6696 7.6895 C30.6725 7.69 26.6756 7.6844 22.6786 7.6631 C18.9167 7.6437 15.1553 7.6437 11.3934 7.6582 C9.3663 7.6612 7.3391 7.6446 5.312 7.6273 C-2.0396 7.6777 -7.5398 8.4618 -13.943 12.1472 Z " fill="#47423B" transform="translate(1213.9429931640625,95.85282897949219)"/>
<path d="M0 0 C0.8509 -0.0071 1.7018 -0.0142 2.5784 -0.0215 C3.0462 -0.0202 3.0462 -0.0202 5.4135 -0.014 C5.9055 -0.0165 5.9055 -0.0165 8.3951 -0.0294 C11.6621 -0.0434 14.9289 -0.0424 18.196 -0.0401 C20.4632 -0.044 22.7305 -0.0483 24.9977 -0.0531 C29.7584 -0.0605 34.519 -0.0602 39.2797 -0.055 C45.3751 -0.0492 51.4702 -0.0661 57.5655 -0.0893 C62.2522 -0.1041 66.9388 -0.1049 71.6255 -0.1018 C73.8721 -0.1023 76.1187 -0.1076 78.3653 -0.1176 C81.5131 -0.13 84.6603 -0.1232 87.8081 -0.1116 C88.7335 -0.1193 89.659 -0.1269 90.6125 -0.1348 C96.1426 -0.0899 100.0417 0.6212 104.9343 3.2607 C107.072 6.0949 107.1743 8.5388 107.1296 12.0263 C107.1231 12.9158 107.1167 13.8052 107.1101 14.7216 C107.1017 15.1818 107.1017 15.1818 107.0593 17.5107 C107.0503 18.4466 107.0412 19.3824 107.0319 20.3466 C107.0084 22.6516 106.9755 24.956 106.9343 27.2607 C106.2743 27.2607 105.6143 27.2607 104.9343 27.2607 C104.8518 27.8794 104.7693 28.4982 104.6843 29.1357 C103.9343 31.2607 103.9343 31.2607 101.8718 32.5107 C101.2324 32.7582 100.593 33.0057 99.9343 33.2607 C99.9343 33.9207 99.9343 34.5807 99.9343 35.2607 C86.5739 35.3533 73.2136 35.4244 59.8529 35.4679 C53.6493 35.4888 47.4459 35.5172 41.2424 35.5625 C35.2577 35.6059 29.2733 35.6298 23.2885 35.6402 C21.0031 35.6476 18.7177 35.6621 16.4324 35.6836 C13.2358 35.7126 10.0401 35.7167 6.8435 35.7148 C5.8947 35.7292 4.946 35.7436 3.9685 35.7584 C-2.4364 35.718 -2.4364 35.718 -5.685 33.3573 C-7.0657 31.2607 -7.0657 31.2607 -7.0657 29.2607 C-7.7257 29.2607 -8.3857 29.2607 -9.0657 29.2607 C-9.1531 25.6984 -9.2062 22.1363 -9.2532 18.5732 C-9.2784 17.5658 -9.3035 16.5584 -9.3294 15.5205 C-9.4212 6.2499 -9.4212 6.2499 -6.0657 2.2607 C-3.6905 -0.1146 -3.2256 0.0089 0 0 Z " fill="#A59F92" transform="translate(609.0657196044922,84.73930358886719)"/>
<path d="M0 0 C211.53 0 423.06 0 641 0 C641 1.32 641 2.64 641 4 C640.01 4 639.02 4 638 4 C638.33 3.34 638.66 2.68 639 2 C429.12 2.33 219.24 2.66 3 3 C3.33 3.66 3.66 4.32 4 5 C2.68 4.34 1.36 3.68 0 3 C0 2.01 0 1.02 0 0 Z " fill="#C4C2C0" transform="translate(200,153)"/>
<path d="M0 0 C210.21 0 420.42 0 637 0 C636.67 0.99 636.34 1.98 636 3 C633.9375 3.6875 633.9375 3.6875 632 4 C632 3.34 632 2.68 632 2 C425.09 2 218.18 2 5 2 C5 2.66 5 3.32 5 4 C5.99 4 6.98 4 8 4 C8 4.66 8 5.32 8 6 C8.99 6 9.98 6 11 6 C11.33 6.99 11.66 7.98 12 9 C11.34 9 10.68 9 10 9 C10 8.34 10 7.68 10 7 C9.01 7 8.02 7 7 7 C7 6.34 7 5.68 7 5 C6.01 5 5.02 5 4 5 C4 4.34 4 3.68 4 3 C2.68 2.34 1.36 1.68 0 1 C0 0.67 0 0.34 0 0 Z " fill="#54504A" transform="translate(202,155)"/>
<path d="M0 0 C189.09 0 378.18 0 573 0 C573 1.32 573 2.64 573 4 C572.01 4 571.02 4 570 4 C570.33 3.34 570.66 2.68 571 2 C569.7993 2.0021 568.5985 2.0042 567.3614 2.0064 C514.4653 2.0996 461.5691 2.1928 408.6729 2.286 C407.8726 2.2874 407.0723 2.2888 406.2477 2.2903 C388.8564 2.3209 371.465 2.3516 354.0737 2.3822 C345.5454 2.3972 337.0172 2.4122 328.489 2.4272 C328.0647 2.428 328.0647 2.428 325.9173 2.4318 C298.3892 2.4803 270.8611 2.5288 243.3331 2.5773 C215.0539 2.6271 186.7748 2.6769 158.4956 2.7267 C154.5051 2.7338 150.5146 2.7408 146.524 2.7478 C145.7386 2.7492 144.9532 2.7506 144.1439 2.752 C131.4802 2.7743 118.8165 2.7966 106.1527 2.819 C93.4338 2.8414 80.715 2.8638 67.9961 2.8862 C61.0997 2.8983 54.2033 2.9105 47.3069 2.9226 C41.0023 2.9337 34.6978 2.9449 28.3932 2.9559 C26.1038 2.96 23.8144 2.964 21.525 2.968 C18.4299 2.9735 15.3349 2.979 12.2398 2.9844 C11.7881 2.9852 11.7881 2.9852 9.5023 2.9892 C9.0918 2.99 9.0918 2.99 7.0146 2.9936 C6.3063 2.9948 5.598 2.9961 4.8682 2.9974 C3.2455 2.9997 1.6227 3 0 3 C0 2.01 0 1.02 0 0 Z " fill="#726D65" transform="translate(234,163)"/>
<path d="M0 0 C1.4201 -0.0057 2.8402 -0.0127 4.2603 -0.0208 C8.0995 -0.0387 11.9384 -0.0376 15.7775 -0.0319 C18.9928 -0.0288 22.2081 -0.0349 25.4234 -0.0409 C33.0163 -0.0549 40.6092 -0.0534 48.2021 -0.042 C56.0093 -0.0305 63.8161 -0.0446 71.6232 -0.0714 C78.348 -0.0936 85.0726 -0.1002 91.7974 -0.0943 C95.804 -0.091 99.8104 -0.0933 103.817 -0.1106 C107.5896 -0.1261 111.3617 -0.122 115.1343 -0.1033 C117.1597 -0.0979 119.1851 -0.112 121.2104 -0.127 C129.2206 -0.0631 139.3155 0.2053 145.5649 5.9541 C145.7819 6.1933 145.7819 6.1933 146.8799 7.4041 C147.643 7.8514 148.4061 8.2987 149.1924 8.7595 C160.2597 15.5318 165.4647 24.2515 168.8799 36.4041 C169.2099 36.7341 169.5399 37.0641 169.8799 37.4041 C170.1627 40.7077 170.1119 44.0273 170.1299 47.3416 C170.1402 47.7982 170.1402 47.7982 170.1924 50.1091 C170.2505 60.3663 167.3065 69.6862 161.8799 78.4041 C159.3799 80.7166 159.3799 80.7166 156.8799 82.4041 C156.0961 83.2084 155.3124 84.0128 154.5049 84.8416 C151.4424 87.8312 148.5056 90.1212 144.8799 92.4041 C143.8899 92.0741 142.8999 91.7441 141.8799 91.4041 C142.5399 91.4041 143.1999 91.4041 143.8799 91.4041 C143.8799 90.7441 143.8799 90.0841 143.8799 89.4041 C142.8899 89.7341 141.8999 90.0641 140.8799 90.4041 C140.8799 89.7441 140.8799 89.0841 140.8799 88.4041 C139.2299 88.4041 137.5799 88.4041 135.8799 88.4041 C137.2872 85.5894 139.1156 85.2416 141.9424 83.9041 C147.5351 80.9766 150.6994 77.4858 154.3213 72.3806 C154.8356 71.7283 155.35 71.0761 155.8799 70.4041 C156.5399 70.4041 157.1999 70.4041 157.8799 70.4041 C157.9418 70.0431 157.9418 70.0431 158.2549 68.2166 C158.8799 65.4041 158.8799 65.4041 159.8979 63.0513 C161.571 58.5409 161.2488 53.9797 161.2549 49.2166 C161.2794 48.2259 161.3039 47.2353 161.3291 46.2146 C161.3686 36.1804 158.6306 28.2214 151.6299 20.9666 C151.1519 20.4558 150.6739 19.945 150.1814 19.4187 C146.3596 15.5094 143.1643 13.6005 137.8799 12.4041 C137.8799 11.7441 137.8799 11.0841 137.8799 10.4041 C137.0755 10.4247 136.2711 10.4453 135.4424 10.4666 C132.8799 10.4041 132.8799 10.4041 131.8799 9.4041 C130.0706 9.2954 128.2572 9.2572 126.4447 9.2458 C125.2653 9.236 124.086 9.2263 122.8709 9.2162 C121.5654 9.2104 120.2599 9.2047 118.9148 9.1987 C117.5354 9.1892 116.1559 9.1791 114.7765 9.1687 C111.0205 9.1416 107.2645 9.1206 103.5084 9.1007 C99.5873 9.0789 95.6661 9.0515 91.745 9.0247 C84.3148 8.9747 76.8846 8.9298 69.4543 8.8867 C60.9973 8.8373 52.5404 8.7824 44.0835 8.727 C26.6823 8.6131 9.2811 8.5062 -8.1201 8.4041 C-8.1201 8.0741 -8.1201 7.7441 -8.1201 7.4041 C38.7399 7.4041 85.5999 7.4041 133.8799 7.4041 C133.8799 8.0641 133.8799 8.7241 133.8799 9.4041 C134.6224 9.3628 135.3649 9.3216 136.1299 9.2791 C138.9675 9.408 140.4676 9.9746 142.8799 11.4041 C142.8799 10.7441 142.8799 10.0841 142.8799 9.4041 C143.5399 9.4041 144.1999 9.4041 144.8799 9.4041 C144.8799 8.7441 144.8799 8.0841 144.8799 7.4041 C143.8899 7.4041 142.8999 7.4041 141.8799 7.4041 C141.8799 6.7441 141.8799 6.0841 141.8799 5.4041 C140.2299 5.4041 138.5799 5.4041 136.8799 5.4041 C136.8799 4.7441 136.8799 4.0841 136.8799 3.4041 C130.0588 2.1428 123.2798 2.2563 116.3606 2.2588 C114.9932 2.2558 113.6259 2.2524 112.2586 2.2486 C108.5602 2.2398 104.8619 2.2374 101.1635 2.2368 C98.8496 2.2361 96.5357 2.2339 94.2218 2.2313 C86.1401 2.2221 78.0585 2.218 69.9768 2.2188 C62.4577 2.2194 54.9386 2.2088 47.4195 2.193 C40.9505 2.1799 34.4815 2.1746 28.0125 2.1752 C24.1547 2.1755 20.297 2.1726 16.4392 2.162 C12.8104 2.1523 9.1817 2.1523 5.5529 2.1595 C3.5959 2.1611 1.639 2.1528 -0.3179 2.1441 C-9.9577 2.1784 -9.9577 2.1784 -14.7232 3.4817 C-18.0566 4.3868 -19.0011 4.377 -22.1201 3.4041 C-14.7699 -0.073 -8.0411 -0.0275 0 0 Z " fill="#4A453E" transform="translate(1222.1201171875,95.595947265625)"/>
<path d="M0 0 C1.3699 -0.0024 2.7397 -0.0062 4.1096 -0.0111 C7.7869 -0.0204 11.464 -0.0111 15.1414 0.0023 C19.0084 0.0137 22.8755 0.0095 26.7426 0.0075 C33.2265 0.0066 39.7104 0.0176 46.1943 0.0361 C53.6773 0.0573 61.16 0.0608 68.643 0.0546 C75.8688 0.0489 83.0945 0.0545 90.3203 0.0657 C93.3847 0.0704 96.4491 0.0713 99.5135 0.0692 C103.1202 0.0673 106.7268 0.0754 110.3335 0.0912 C112.2799 0.0975 114.2262 0.094 116.1726 0.0901 C122.0876 0.126 127.212 0.3136 132.7837 2.3723 C132.7837 3.0323 132.7837 3.6923 132.7837 4.3723 C134.4337 4.3723 136.0837 4.3723 137.7837 4.3723 C137.7837 5.0323 137.7837 5.6923 137.7837 6.3723 C138.7737 6.3723 139.7637 6.3723 140.7837 6.3723 C140.7837 7.0323 140.7837 7.6923 140.7837 8.3723 C140.1237 8.3723 139.4637 8.3723 138.7837 8.3723 C138.7837 9.0323 138.7837 9.6923 138.7837 10.3723 C137.2987 10.0423 137.2987 10.0423 129.7837 8.3723 C129.7837 7.7123 129.7837 7.0523 129.7837 6.3723 C111.3555 6.4796 92.9274 6.5923 74.4992 6.7117 C65.9428 6.7669 57.3863 6.8204 48.8298 6.8696 C41.3721 6.9125 33.9145 6.9588 26.4568 7.0092 C22.5079 7.0357 18.5591 7.0606 14.6102 7.0814 C10.8928 7.101 7.1755 7.1252 3.4582 7.1528 C1.4446 7.1666 -0.569 7.1756 -2.5827 7.1844 C-3.7844 7.1942 -4.9861 7.204 -6.2242 7.2141 C-7.2667 7.2205 -8.3093 7.227 -9.3834 7.2336 C-12.1 7.3666 -14.56 7.8172 -17.2163 8.3723 C-19.5493 8.4106 -21.8834 8.4181 -24.2163 8.3723 C-24.2163 7.7123 -24.2163 7.0523 -24.2163 6.3723 C-24.8763 6.3723 -25.5363 6.3723 -26.2163 6.3723 C-26.5463 5.3823 -26.8763 4.3923 -27.2163 3.3723 C-18.0151 0.8476 -9.5195 -0.0581 0 0 Z " fill="#3F3A33" transform="translate(1226.21630859375,96.627685546875)"/>
<path d="M0 0 C0.6078 -0.0028 0.6078 -0.0028 3.6833 -0.0171 C5.0325 -0.0132 6.3816 -0.0091 7.7308 -0.0048 C9.15 -0.0075 10.5693 -0.0111 11.9885 -0.0154 C15.8461 -0.0246 19.7036 -0.021 23.5612 -0.0147 C27.5983 -0.0096 31.6354 -0.0143 35.6725 -0.0175 C42.4557 -0.0211 49.239 -0.0163 56.0223 -0.0068 C63.8595 0.0041 71.6965 0.0006 79.5337 -0.0104 C86.2633 -0.0195 92.9929 -0.0208 99.7226 -0.0156 C103.7413 -0.0124 107.76 -0.012 111.7788 -0.0186 C115.5602 -0.0244 119.3415 -0.0204 123.1229 -0.0088 C124.5088 -0.0062 125.8947 -0.0069 127.2806 -0.0114 C129.1766 -0.0168 131.0727 -0.0087 132.9688 0 C134.0286 0.0008 135.0885 0.0015 136.1804 0.0023 C139.4366 0.276 142.126 1.1053 145.1749 2.254 C145.1749 2.914 145.1749 3.574 145.1749 4.254 C145.7317 4.3777 146.2886 4.5015 146.8624 4.629 C153.36 6.3851 156.685 9.356 161.1749 14.254 C161.8967 15.0171 162.6186 15.7802 163.3624 16.5665 C168.5162 24.2085 169.8199 31.677 169.6749 40.754 C169.6826 41.238 169.6826 41.238 169.7217 43.6876 C169.6845 50.6238 168.1741 56.0163 165.1749 62.254 C164.5149 62.254 163.8549 62.254 163.1749 62.254 C162.8938 62.8456 162.6128 63.4373 162.3233 64.0469 C158.1565 72.0545 151.2402 76.5372 143.1749 80.254 C140.36 80.9813 138.0981 81.1978 135.1749 81.254 C135.8349 80.594 136.4949 79.934 137.1749 79.254 C138.4949 79.254 139.8149 79.254 141.1749 79.254 C141.1749 78.594 141.1749 77.934 141.1749 77.254 C138.5349 77.584 135.8949 77.914 133.1749 78.254 C134.1749 76.254 134.1749 76.254 136.0655 75.5782 C136.8441 75.3681 137.6227 75.158 138.4249 74.9415 C142.8655 73.5266 145.1214 71.8699 148.1749 68.254 C148.764 67.6185 149.3531 66.983 149.96 66.3282 C155.8684 59.886 155.8684 59.886 157.1749 55.254 C157.3437 54.7325 157.3437 54.7325 158.1983 52.0938 C159.2089 48.1199 159.5217 44.45 159.4874 40.379 C159.4845 40.0273 159.4845 40.0273 159.4703 38.2479 C159.239 28.3311 155.83 19.7012 148.5811 12.7188 C146.8448 11.3798 145.095 10.3112 143.1749 9.254 C142.5381 8.8621 141.9013 8.4702 141.2452 8.0665 C135.1883 4.9626 129.0967 4.8347 122.4249 4.754 C121.5133 4.7355 120.6018 4.7171 119.6626 4.6981 C113.8706 4.7518 110.6477 5.5217 106.1749 9.254 C105.8449 9.089 105.8449 9.089 104.1749 8.254 C107.9249 5.254 107.9249 5.254 110.1749 5.254 C110.1749 4.594 110.1749 3.934 110.1749 3.254 C118.7549 3.254 127.3349 3.254 136.1749 3.254 C136.1749 2.594 136.1749 1.934 136.1749 1.254 C88.3249 1.584 40.4749 1.914 -8.8251 2.254 C-5.3667 -0.0516 -4.0757 0.0029 0 0 Z " fill="#DED8CA" transform="translate(1214.8251495361328,103.74603271484375)"/>
<path d="M0 0 C0 0.66 0 1.32 0 2 C0.66 2 1.32 2 2 2 C2 2.66 2 3.32 2 4 C3.32 4.33 4.64 4.66 6 5 C0.6667 7.6667 -4.6667 10.3333 -10 13 C-10 13.66 -10 14.32 -10 15 C-10.66 15 -11.32 15 -12 15 C-13.5811 18.111 -15.055 21.2611 -16.5 24.4375 C-16.9228 25.3643 -17.3456 26.2912 -17.7812 27.2461 C-18.1834 28.1549 -18.5856 29.0637 -19 30 C-19.3687 30.7477 -19.7373 31.4953 -20.1172 32.2656 C-21.4018 36.2446 -21.4675 40.1546 -21.625 44.3125 C-21.6637 45.1485 -21.7023 45.9844 -21.7422 46.8457 C-21.836 48.8968 -21.919 50.9484 -22 53 C-21.34 53 -20.68 53 -20 53 C-19.7525 53.99 -19.505 54.98 -19.25 56 C-16.7587 64.4808 -12.6957 70.1884 -6 76 C-5.34 76.33 -4.68 76.66 -4 77 C-4 77.66 -4 78.32 -4 79 C-3.6081 79.0619 -3.6081 79.0619 -1.625 79.375 C1 80 1 80 3 82 C1.35 82 -0.3 82 -2 82 C-2 81.34 -2 80.68 -2 80 C-2.495 80.165 -2.495 80.165 -5 81 C-5 80.01 -5 79.02 -5 78 C-5.66 78 -6.32 78 -7 78 C-7 78.66 -7 79.32 -7 80 C-8.32 79.67 -9.64 79.34 -11 79 C-10.34 80.32 -9.68 81.64 -9 83 C-12.9618 81.4603 -14.8978 78.9803 -17.5 75.6875 C-17.8764 75.2151 -17.8764 75.2151 -19.7812 72.8242 C-20.5134 71.8922 -21.2456 70.9602 -22 70 C-22.3532 69.5997 -22.3532 69.5997 -24.1406 67.5742 C-30.4793 58.7986 -31.0994 45.3481 -30 35 C-27.5675 23.1251 -21.0584 12.9432 -12 5 C-11.6597 4.7009 -11.6597 4.7009 -9.9375 3.1875 C-6.8809 1.3141 -3.6123 0 0 0 Z " fill="#4D4841" transform="translate(1200,101)"/>
<path d="M0 0 C0.99 0.33 1.98 0.66 3 1 C3 34 3 67 3 101 C22.47 100.67 41.94 100.34 62 100 C61.67 100.66 61.34 101.32 61 102 C41.1402 106.4133 20.3443 104 0 104 C0 69.68 0 35.36 0 0 Z " fill="#B8B3A8" transform="translate(440,296)"/>
<path d="M0 0 C1.4201 -0.0057 2.8402 -0.0127 4.2603 -0.0208 C8.0995 -0.0387 11.9384 -0.0376 15.7775 -0.0319 C18.9928 -0.0288 22.2081 -0.0349 25.4234 -0.0409 C33.0163 -0.0549 40.6092 -0.0534 48.2021 -0.042 C56.0093 -0.0305 63.8161 -0.0446 71.6232 -0.0714 C78.348 -0.0936 85.0726 -0.1002 91.7974 -0.0943 C95.804 -0.091 99.8104 -0.0933 103.817 -0.1106 C107.5896 -0.1261 111.3617 -0.122 115.1343 -0.1033 C117.1597 -0.0979 119.1851 -0.112 121.2104 -0.127 C129.1983 -0.0633 139.3187 0.1944 145.5454 5.9412 C145.9858 6.4239 146.4261 6.9067 146.8799 7.4041 C147.7461 7.9197 148.6124 8.4353 149.5049 8.9666 C151.8799 10.4041 151.8799 10.4041 152.8799 12.4041 C151.2299 12.0741 149.5799 11.7441 147.8799 11.4041 C147.8799 10.7441 147.8799 10.0841 147.8799 9.4041 C147.2199 9.4041 146.5599 9.4041 145.8799 9.4041 C145.8799 10.0641 145.8799 10.7241 145.8799 11.4041 C145.2199 11.4041 144.5599 11.4041 143.8799 11.4041 C143.8799 12.3941 143.8799 13.3841 143.8799 14.4041 C141.8999 13.7441 139.9199 13.0841 137.8799 12.4041 C137.8799 11.7441 137.8799 11.0841 137.8799 10.4041 C137.0755 10.4247 136.2711 10.4453 135.4424 10.4666 C132.8799 10.4041 132.8799 10.4041 131.8799 9.4041 C130.0706 9.2954 128.2572 9.2572 126.4447 9.2458 C125.2653 9.236 124.086 9.2263 122.8709 9.2162 C121.5654 9.2104 120.2599 9.2047 118.9148 9.1987 C117.5354 9.1892 116.1559 9.1791 114.7765 9.1687 C111.0205 9.1416 107.2645 9.1206 103.5084 9.1007 C99.5873 9.0789 95.6661 9.0515 91.745 9.0247 C84.3148 8.9747 76.8846 8.9298 69.4543 8.8867 C60.9973 8.8373 52.5404 8.7824 44.0835 8.727 C26.6823 8.6131 9.2811 8.5062 -8.1201 8.4041 C-8.1201 8.0741 -8.1201 7.7441 -8.1201 7.4041 C38.7399 7.4041 85.5999 7.4041 133.8799 7.4041 C133.8799 8.0641 133.8799 8.7241 133.8799 9.4041 C134.6224 9.3628 135.3649 9.3216 136.1299 9.2791 C138.9675 9.408 140.4676 9.9746 142.8799 11.4041 C142.8799 10.7441 142.8799 10.0841 142.8799 9.4041 C143.5399 9.4041 144.1999 9.4041 144.8799 9.4041 C144.8799 8.7441 144.8799 8.0841 144.8799 7.4041 C143.8899 7.4041 142.8999 7.4041 141.8799 7.4041 C141.8799 6.7441 141.8799 6.0841 141.8799 5.4041 C140.2299 5.4041 138.5799 5.4041 136.8799 5.4041 C136.8799 4.7441 136.8799 4.0841 136.8799 3.4041 C130.0588 2.1428 123.2798 2.2563 116.3606 2.2588 C114.9932 2.2558 113.6259 2.2524 112.2586 2.2486 C108.5602 2.2398 104.8619 2.2374 101.1635 2.2368 C98.8496 2.2361 96.5357 2.2339 94.2218 2.2313 C86.1401 2.2221 78.0585 2.218 69.9768 2.2188 C62.4577 2.2194 54.9386 2.2088 47.4195 2.193 C40.9505 2.1799 34.4815 2.1746 28.0125 2.1752 C24.1547 2.1755 20.297 2.1726 16.4392 2.162 C12.8104 2.1523 9.1817 2.1523 5.5529 2.1595 C3.5959 2.1611 1.639 2.1528 -0.3179 2.1441 C-9.9577 2.1784 -9.9577 2.1784 -14.7232 3.4817 C-18.0566 4.3868 -19.0011 4.377 -22.1201 3.4041 C-14.7699 -0.073 -8.0411 -0.0275 0 0 Z " fill="#78746D" transform="translate(1222.1201171875,95.595947265625)"/>
<path d="M0 0 C0.488 -0.0003 0.488 -0.0003 2.9578 -0.0018 C6.1776 0.001 9.3964 0.0321 12.616 0.0635 C14.8508 0.0709 17.0857 0.0766 19.3206 0.0806 C25.198 0.0959 31.075 0.1352 36.9522 0.1794 C42.9514 0.2204 48.9507 0.2386 54.95 0.2588 C66.7177 0.3017 78.4852 0.3699 90.2527 0.4541 C90.2527 1.1141 90.2527 1.7741 90.2527 2.4541 C91.2427 2.7841 92.2327 3.1141 93.2527 3.4541 C91.9417 3.4622 90.6307 3.4703 89.2799 3.4786 C76.9483 3.556 64.6169 3.6437 52.2854 3.7416 C45.9451 3.7917 39.6048 3.838 33.2644 3.876 C27.15 3.9127 21.0358 3.9591 14.9216 4.0122 C12.5843 4.0308 10.247 4.0458 7.9097 4.0574 C4.6458 4.0742 1.3822 4.1032 -1.8816 4.1353 C-2.3689 4.1363 -2.3689 4.1363 -4.835 4.1418 C-5.7213 4.153 -6.6075 4.1641 -7.5206 4.1756 C-7.9068 4.1784 -7.9068 4.1784 -9.8614 4.1924 C-11.7473 4.4541 -11.7473 4.4541 -13.7473 6.4541 C-14.0662 8.9761 -14.0662 8.9761 -14.1614 12.1182 C-14.2 13.2396 -14.2387 14.3611 -14.2786 15.5166 C-14.3095 16.6922 -14.3404 17.8679 -14.3723 19.0791 C-14.411 20.2625 -14.4497 21.4458 -14.4895 22.665 C-14.584 25.5946 -14.6696 28.5241 -14.7473 31.4541 C-16.7635 28.4299 -17.002 27.827 -17.0129 24.4346 C-17.0155 23.6592 -17.0181 22.8838 -17.0208 22.085 C-17.013 21.2787 -17.0053 20.4723 -16.9973 19.6416 C-17.005 18.8469 -17.0128 18.0522 -17.0208 17.2334 C-17.0019 11.539 -16.8162 6.6982 -12.7755 2.3152 C-8.4877 -0.3201 -4.9394 -0.0775 0 0 Z " fill="#BDB8AF" transform="translate(791.747314453125,83.5458984375)"/>
<path d="M0 0 C0.8442 -0.0014 1.6883 -0.0027 2.5581 -0.0042 C3.486 -0.0006 4.4138 0.003 5.3698 0.0067 C6.3455 0.0066 7.3211 0.0064 8.3264 0.0063 C11.5621 0.007 14.7977 0.0148 18.0334 0.0226 C20.2726 0.0245 22.5117 0.0259 24.7509 0.0269 C30.6528 0.0307 36.5547 0.0405 42.4566 0.0516 C48.4757 0.0618 54.4948 0.0664 60.5139 0.0714 C72.3303 0.0822 84.1467 0.0992 95.9631 0.1203 C95.9631 0.7803 95.9631 1.4403 95.9631 2.1203 C96.9531 2.4503 97.9431 2.7803 98.9631 3.1203 C98.3087 3.1232 98.3087 3.1232 94.9971 3.138 C82.6805 3.1952 70.3641 3.2679 58.0476 3.356 C51.7152 3.4008 45.3828 3.44 39.0503 3.4667 C32.9423 3.4926 26.8346 3.533 20.7268 3.5834 C18.3932 3.6002 16.0595 3.6116 13.7259 3.6179 C10.4644 3.6275 7.2036 3.6554 3.9424 3.6879 C2.9713 3.6864 2.0003 3.685 0.9998 3.6835 C0.556 3.6898 0.556 3.6898 -1.6899 3.7215 C-2.0757 3.7238 -2.0757 3.7238 -4.0279 3.7355 C-6.573 4.2229 -7.4649 5.0955 -9.0369 7.1203 C-9.4693 9.3886 -9.4693 9.3886 -9.5486 12.007 C-9.5663 12.4759 -9.5663 12.4759 -9.656 14.8488 C-9.6786 15.8252 -9.7012 16.8017 -9.7244 17.8078 C-9.7586 18.7958 -9.7927 19.7839 -9.8279 20.8019 C-9.9104 23.2412 -9.9795 25.6802 -10.0369 28.1203 C-10.6969 28.1203 -11.3569 28.1203 -12.0369 28.1203 C-12.2128 24.9335 -12.3183 21.7479 -12.4119 18.5578 C-12.4622 17.6625 -12.5124 16.7672 -12.5642 15.8449 C-12.6728 10.9062 -12.3837 7.8902 -9.1385 4.0304 C-6.1533 0.9686 -4.2733 -0.0054 0 0 Z " fill="#C1BDB4" transform="translate(262.0368957519531,83.87974548339844)"/>
<path d="M0 0 C0.841 0.2126 1.6819 0.4252 2.5484 0.6443 C11.3974 2.7315 19.5226 3.4174 28.6245 3.3406 C30.0256 3.3397 31.4266 3.3402 32.8277 3.3419 C36.5831 3.3428 40.3381 3.3253 44.0934 3.3042 C48.0358 3.2853 51.9782 3.2837 55.9207 3.2801 C63.3647 3.2708 70.8086 3.2463 78.2526 3.2161 C86.7364 3.1824 95.2202 3.166 103.7041 3.151 C121.1362 3.1197 138.5681 3.0671 156 3 C156 3.66 156 4.32 156 5 C152.8884 6.0372 150.7204 6.1333 147.4565 6.1472 C146.303 6.1543 145.1495 6.1615 143.9611 6.1689 C142.6942 6.1715 141.4272 6.1742 140.1218 6.177 C138.7747 6.1833 137.4275 6.1899 136.0803 6.1969 C131.6512 6.218 127.2221 6.2283 122.793 6.2383 C121.2644 6.2423 119.7358 6.2464 118.2072 6.2506 C111.0172 6.2697 103.8272 6.2839 96.6372 6.2922 C88.3637 6.302 80.0904 6.3282 71.817 6.3687 C65.4082 6.399 58.9996 6.4137 52.5908 6.417 C48.7707 6.4194 44.9508 6.4281 41.1308 6.4535 C37.5265 6.477 33.9227 6.4809 30.3184 6.4707 C28.3888 6.47 26.4592 6.4889 24.5297 6.5088 C15.6923 6.457 8.3253 4.7921 0 2 C0 1.34 0 0.68 0 0 Z " fill="#C4C2C1" transform="translate(1198,189)"/>
<path d="M0 0 C0 0.66 0 1.32 0 2 C-4.0555 3.5121 -7.4099 4.2487 -11.7328 4.2405 C-12.8517 4.2433 -13.9706 4.246 -15.1234 4.2488 C-16.3361 4.2416 -17.5489 4.2345 -18.7983 4.2271 C-19.4425 4.2272 -19.4425 4.2272 -22.7024 4.2279 C-26.2227 4.2285 -29.7428 4.2168 -33.263 4.2028 C-36.9465 4.1903 -40.6301 4.1891 -44.3136 4.1867 C-51.2833 4.1805 -58.253 4.1641 -65.2226 4.144 C-73.1597 4.1217 -81.0968 4.1107 -89.0339 4.1006 C-105.356 4.0798 -121.678 4.0446 -138 4 C-138 3.34 -138 2.68 -138 2 C-137.3319 1.9958 -136.6637 1.9915 -135.9753 1.9872 C-119.7348 1.884 -103.4944 1.7754 -87.2539 1.6607 C-79.4003 1.6053 -71.5466 1.5518 -63.6929 1.5027 C-56.8494 1.4598 -50.0059 1.4136 -43.1625 1.3631 C-39.5373 1.3365 -35.9121 1.3117 -32.2869 1.2909 C-28.2448 1.2677 -24.2027 1.2369 -20.1606 1.2053 C-19.5564 1.2024 -19.5564 1.2024 -16.4988 1.1879 C-15.4022 1.1781 -14.3056 1.1683 -13.1758 1.1582 C-12.6974 1.155 -12.6974 1.155 -10.2764 1.1387 C-6.6943 0.9205 -3.7941 -0.0825 0 0 Z " fill="#EFEBE1" transform="translate(1356,181)"/>
<path d="M0 0 C1.3955 2.791 0.5838 4.7322 -0.207 7.6406 C-2.4584 14.3393 -5.0258 19.9674 -11 24 C-11.7838 24.8044 -12.5675 25.6087 -13.375 26.4375 C-16.4375 29.4271 -19.3743 31.7172 -23 34 C-23.99 33.67 -24.98 33.34 -26 33 C-25.34 33 -24.68 33 -24 33 C-24 32.34 -24 31.68 -24 31 C-24.99 31.33 -25.98 31.66 -27 32 C-27 31.34 -27 30.68 -27 30 C-28.65 30 -30.3 30 -32 30 C-30.5927 27.1854 -28.7642 26.8375 -25.9375 25.5 C-20.3448 22.5726 -17.1804 19.0818 -13.5586 13.9766 C-13.3014 13.6504 -13.3014 13.6504 -12 12 C-11.34 12 -10.68 12 -10 12 C-9.8763 11.2369 -9.7525 10.4737 -9.625 9.6875 C-9 7 -9 7 -7 4 C-6.67 5.32 -6.34 6.64 -6 8 C-5.01 7.01 -4.02 6.02 -3 5 C-3 5.66 -3 6.32 -3 7 C-2.34 7 -1.68 7 -1 7 C-1.0206 6.0306 -1.0412 5.0613 -1.0625 4.0625 C-1 1 -1 1 0 0 Z " fill="#555049" transform="translate(1390,154)"/>
<path d="M0 0 C0.8757 2.6272 0.9885 4.6333 0.9375 7.4375 C0.8483 13.371 1.9779 19.1736 3 25 C3.0722 25.4641 3.0722 25.4641 3.4375 27.8125 C4 30 4 30 6.0625 31.3125 C6.7019 31.5394 7.3412 31.7663 8 32 C8.66 30.68 9.32 29.36 10 28 C9.34 28 8.68 28 8 28 C8 26.02 8 24.04 8 22 C7.34 22 6.68 22 6 22 C6 15.07 6 8.14 6 1 C6.66 0.67 7.32 0.34 8 0 C7.67 6.6 7.34 13.2 7 20 C7.66 20 8.32 20 9 20 C9.2475 20.99 9.495 21.98 9.75 23 C12.2413 31.4808 16.3043 37.1884 23 43 C23.66 43.33 24.32 43.66 25 44 C25 44.66 25 45.32 25 46 C25.3919 46.0619 25.3919 46.0619 27.375 46.375 C30 47 30 47 32 49 C30.35 49 28.7 49 27 49 C27 48.34 27 47.68 27 47 C26.505 47.165 26.505 47.165 24 48 C24 47.01 24 46.02 24 45 C23.34 45 22.68 45 22 45 C22 45.66 22 46.32 22 47 C20.68 46.67 19.36 46.34 18 46 C18.66 47.32 19.32 48.64 20 50 C16.0382 48.4603 14.1022 45.9803 11.5 42.6875 C10.7472 41.7426 9.9944 40.7977 9.2188 39.8242 C8.4866 38.8922 7.7544 37.9602 7 37 C6.6468 36.5997 6.6468 36.5997 4.8594 34.5742 C-1.5854 25.6518 -1.8546 12.5769 -1 2 C-0.67 1.34 -0.34 0.68 0 0 Z " fill="#646059" transform="translate(1171,134)"/>
<path d="M0 0 C0.66 0 1.32 0 2 0 C2 0.99 2 1.98 2 3 C2.66 3 3.32 3 4 3 C4.0427 4.6661 4.0406 6.3338 4 8 C3.67 8.33 3.34 8.66 3 9 C2.8431 10.5595 2.7492 12.1254 2.6836 13.6914 C2.6417 14.6356 2.5998 15.5799 2.5566 16.5527 C2.5173 17.546 2.478 18.5392 2.4375 19.5625 C2.4159 20.061 2.4159 20.061 2.3066 22.584 C2.2002 25.0558 2.0982 27.5278 2 30 C2.66 30 3.32 30 4 30 C4 31.98 4 33.96 4 36 C4.66 36 5.32 36 6 36 C5.625 37.9375 5.625 37.9375 5 40 C4.67 40.165 4.67 40.165 3 41 C-2.9323 35.8766 -3.3988 27.366 -4 20 C-3.9698 14.6486 -3.5058 9.3243 -3 4 C-2.01 4 -1.02 4 0 4 C0 2.68 0 1.36 0 0 Z " fill="#3A342E" transform="translate(1175,126)"/>
<path d="M0 0 C-2.7088 1.3544 -5.0093 1.065 -8 1 C-8.33 1.99 -8.66 2.98 -9 4 C-13.62 4.33 -18.24 4.66 -23 5 C-22.67 5.66 -22.34 6.32 -22 7 C8.36 7.33 38.72 7.66 70 8 C70 8.33 70 8.66 70 9 C35.35 9.33 0.7 9.66 -35 10 C-35.33 9.01 -35.66 8.02 -36 7 C-35.681 6.9336 -35.681 6.9336 -34.0664 6.5977 C-33.2401 6.4211 -32.4138 6.2445 -31.5625 6.0625 C-30.7388 5.8885 -29.9151 5.7145 -29.0664 5.5352 C-27 5 -27 5 -26 4 C-22.4479 3.4595 -18.8867 3.0334 -15.3203 2.5977 C-12 2 -12 2 -9 0 C-5.6271 -0.9513 -3.3338 -1.1113 0 0 Z " fill="#969390" transform="translate(564,391)"/>
<path d="M0 0 C0.66 0.33 1.32 0.66 2 1 C1.4337 1.2419 0.8674 1.4838 0.2839 1.733 C-2.427 3.2408 -4.0745 4.5465 -6 7 C-7.219 12.477 -7.0481 17.897 -6.9648 23.4844 C-6.9698 25.1077 -6.9785 26.731 -6.9906 28.3543 C-7.0133 32.6152 -6.9893 36.8746 -6.9546 41.1354 C-6.9207 46.323 -6.9406 51.5106 -6.9536 56.6982 C-6.9629 60.7315 -6.9638 64.7641 -6.9394 68.7973 C-6.9365 69.5366 -6.9336 70.276 -6.9306 71.0377 C-6.9222 73.0347 -6.9091 75.0316 -6.8956 77.0285 C-7 80 -7 80 -8 82 C-9.32 81.67 -10.64 81.34 -12 81 C-11.67 80.835 -11.67 80.835 -10 80 C-10.0075 79.0862 -10.0149 78.1725 -10.0226 77.231 C-10.085 68.6089 -10.1042 59.988 -10.0752 51.3657 C-10.0618 46.9329 -10.0649 42.5015 -10.1062 38.0688 C-10.1455 33.7888 -10.1408 29.5108 -10.1061 25.2307 C-10.1005 23.6001 -10.1106 21.9693 -10.1368 20.3389 C-10.3276 7.5145 -10.3276 7.5145 -6.9231 3.6307 C-4.657 2.1037 -2.5541 0.9565 0 0 Z " fill="#6C675F" transform="translate(609,290)"/>
<path d="M0 0 C0.66 0 1.32 0 2 0 C1.4359 5.0767 -2.3019 7.57 -6.0039 10.6875 C-10.085 13.9343 -10.085 13.9343 -12 15 C-12.99 14.67 -13.98 14.34 -15 14 C-14.34 14 -13.68 14 -13 14 C-13 13.34 -13 12.68 -13 12 C-13.99 12.33 -14.98 12.66 -16 13 C-16 12.34 -16 11.68 -16 11 C-17.65 11 -19.3 11 -21 11 C-18.8454 6.6909 -12.5132 4.739 -8.3125 2.6875 C-5.4702 1.8425 -2.9482 1.8629 0 2 C0 1.34 0 0.68 0 0 Z " fill="#4B4640" transform="translate(1379,173)"/>
<path d="M0 0 C0.66 0 1.32 0 2 0 C2.0544 2.6878 2.0939 5.3744 2.125 8.0625 C2.1418 8.8147 2.1585 9.5668 2.1758 10.3418 C2.2187 15.2933 1.584 19.3041 0 24 C-0.99 23.67 -1.98 23.34 -3 23 C-3.99 23.99 -4.98 24.98 -6 26 C-6.332 20.7982 -5.5043 17.0253 -3.7266 12.1406 C-2.8198 9.4692 -2.4524 6.7792 -2 4 C-0.9375 1.625 -0.9375 1.625 0 0 Z " fill="#3D3831" transform="translate(1389,137)"/>
<path d="M0 0 C0.4589 0.3983 0.9178 0.7966 1.3906 1.207 C6.6535 5.7512 6.6535 5.7512 9.4375 7.75 C9.9531 8.1625 10.4688 8.575 11 9 C11 9.66 11 10.32 11 11 C11.7838 11.1238 12.5675 11.2475 13.375 11.375 C16 12 16 12 18 14 C16.35 14 14.7 14 13 14 C13 13.34 13 12.68 13 12 C12.01 12.33 11.02 12.66 10 13 C10 12.01 10 11.02 10 10 C9.34 10 8.68 10 8 10 C8 10.66 8 11.32 8 12 C6.68 11.67 5.36 11.34 4 11 C4.66 12.32 5.32 13.64 6 15 C2.204 13.5087 0.2828 11.3427 -2 8 C-2 4.796 -1.2566 2.906 0 0 Z " fill="#524D46" transform="translate(1185,169)"/>
<path d="M0 0 C0.3094 0.6394 0.6188 1.2788 0.9375 1.9375 C2 4 2 4 3 5 C3.0869 6.5617 3.107 8.1273 3.0977 9.6914 C3.0944 10.6356 3.0912 11.5799 3.0879 12.5527 C3.0795 13.546 3.0711 14.5392 3.0625 15.5625 C3.058 16.5596 3.0535 17.5567 3.0488 18.584 C3.037 21.056 3.0205 23.528 3 26 C2.67 26 2.34 26 2 26 C2 20.39 2 14.78 2 9 C1.34 9 0.68 9 0 9 C0.0412 9.9075 0.0825 10.815 0.125 11.75 C0.0001 14.9973 -0.4141 16.2687 -2 19 C-2.6797 20.6614 -3.3494 22.327 -4 24 C-4.33 24 -4.66 24 -5 24 C-5 18.72 -5 13.44 -5 8 C-4.01 7.67 -3.02 7.34 -2 7 C-0.8125 3.4375 -0.8125 3.4375 0 0 Z " fill="#625D57" transform="translate(1389,128)"/>
<path d="M0 0 C0 0.66 0 1.32 0 2 C0.66 2 1.32 2 2 2 C2 2.66 2 3.32 2 4 C3.32 4.33 4.64 4.66 6 5 C-0.75 9 -0.75 9 -3 9 C-3.33 7.35 -3.66 5.7 -4 4 C-4.99 4 -5.98 4 -7 4 C-7.0516 4.2991 -7.0516 4.2991 -7.3125 5.8125 C-8.1232 8.392 -8.8426 9.3819 -11 11 C-12.665 11.3415 -14.3318 11.6745 -16 12 C-18.3125 13.5625 -18.3125 13.5625 -20 15 C-18.4664 11.2683 -16.2201 9.0661 -13.25 6.375 C-12.4095 5.599 -11.5691 4.823 -10.7031 4.0234 C-7.4058 1.5552 -4.1787 0 0 0 Z " fill="#5C5751" transform="translate(1200,101)"/>
<path d="M0 0 C3.2894 4.9341 4.3576 7.7522 4.3125 13.625 C4.309 14.3441 4.3056 15.0633 4.302 15.8042 C4.1375 23.8636 1.71 29.9027 -2 37 C-2.2887 37.8869 -2.5775 38.7738 -2.875 39.6875 C-4.3467 42.7126 -5.9715 43.6372 -9 45 C-9.66 44.67 -10.32 44.34 -11 44 C-10.4457 43.4083 -9.8914 42.8166 -9.3203 42.207 C-8.5959 41.4168 -7.8714 40.6266 -7.125 39.8125 C-6.4057 39.0352 -5.6864 38.2579 -4.9453 37.457 C-2.9584 34.9475 -1.9949 33.0249 -1 30 C-0.8163 29.4534 -0.8163 29.4534 0.1133 26.6875 C1.0663 22.7242 1.2611 19.0453 1.1875 15 C1.1869 14.3271 1.1862 13.6542 1.1855 12.9609 C1.1472 8.543 0.7076 4.3472 0 0 Z " fill="#D8BD84" transform="translate(1373,129)"/>
<path d="M0 0 C0.33 0.66 0.66 1.32 1 2 C0.5785 2.4963 0.157 2.9926 -0.2773 3.5039 C-3.9598 8.0701 -5.7546 11.1102 -6 17 C-6.66 17 -7.32 17 -8 17 C-7.221 34.8565 -7.221 34.8565 -5 43 C-5.99 42.67 -6.98 42.34 -8 42 C-10.8326 28.9246 -11.0155 18.2538 -5 6 C-3.4351 3.8729 -1.7733 1.965 0 0 Z " fill="#D5B572" transform="translate(1311,119)"/>
<path d="M0 0 C2.31 0 4.62 0 7 0 C7 0.66 7 1.32 7 2 C8.65 2 10.3 2 12 2 C12 2.66 12 3.32 12 4 C12.99 4 13.98 4 15 4 C15 4.66 15 5.32 15 6 C14.34 6 13.68 6 13 6 C13 6.66 13 7.32 13 8 C11.515 7.67 11.515 7.67 4 6 C4 5.34 4 4.68 4 4 C1.36 4 -1.28 4 -4 4 C-4 3.34 -4 2.68 -4 2 C-2.68 2 -1.36 2 0 2 C0 1.34 0 0.68 0 0 Z " fill="#3A352E" transform="translate(1352,99)"/>
<path d="M0 0 C-2.7088 1.3544 -5.0093 1.065 -8 1 C-8.33 1.99 -8.66 2.98 -9 4 C-9.5485 4.0664 -9.5485 4.0664 -12.3242 4.4023 C-13.7787 4.5806 -15.2331 4.759 -16.6875 4.9375 C-17.4087 5.0245 -18.13 5.1115 -18.873 5.2012 C-22.6201 5.6631 -26.3079 6.1917 -30 7 C-30 7.66 -30 8.32 -30 9 C-25.38 9 -20.76 9 -16 9 C-16 9.33 -16 9.66 -16 10 C-22.27 10 -28.54 10 -35 10 C-35.33 9.01 -35.66 8.02 -36 7 C-35.681 6.9336 -35.681 6.9336 -34.0664 6.5977 C-33.2401 6.4211 -32.4138 6.2445 -31.5625 6.0625 C-30.7388 5.8885 -29.9151 5.7145 -29.0664 5.5352 C-27 5 -27 5 -26 4 C-22.4479 3.4595 -18.8867 3.0334 -15.3203 2.5977 C-12 2 -12 2 -9 0 C-5.6271 -0.9513 -3.3338 -1.1113 0 0 Z " fill="#7A7671" transform="translate(564,391)"/>
<path d="M0 0 C0.66 0 1.32 0 2 0 C2 0.66 2 1.32 2 2 C2.9281 2.0825 3.8563 2.165 4.8125 2.25 C8 3 8 3 9.875 5.0625 C10.0606 5.3822 10.0606 5.3822 11 7 C10.01 7.66 9.02 8.32 8 9 C7.67 9.495 7.67 9.495 6 12 C4.6579 10.9065 3.3265 9.7998 2 8.6875 C1.2575 8.0726 0.515 7.4577 -0.25 6.8242 C-2 5 -2 5 -2 2 C-1.34 2 -0.68 2 0 2 C0 1.34 0 0.68 0 0 Z " fill="#433E37" transform="translate(1368,105)"/>
<path d="M0 0 C0.33 0 0.66 0 1 0 C1.33 2.97 1.66 5.94 2 9 C2.33 9 2.66 9 3 9 C3.33 14.94 3.66 20.88 4 27 C-0.3792 22.6208 -0.6548 21.8561 -1 16 C-0.9632 13.1758 -0.7866 10.3775 -0.5625 7.5625 C-0.5364 7.1967 -0.5364 7.1967 -0.4043 5.3457 C-0.2762 3.5633 -0.139 1.7816 0 0 Z " fill="#49443E" transform="translate(1172,130)"/>
</svg>
