<?xml version="1.0" encoding="UTF-8"?>
<!-- Generator: visioncortex VTracer 0.6.12 -->
<svg version="1.1" xmlns="http://www.w3.org/2000/svg" width="1600" height="474">
<path d="M0 0 C528 0 1056 0 1600 0 C1600 156.42 1600 312.84 1600 474 C1072 474 544 474 0 474 C0 317.58 0 161.16 0 0 Z " fill="#FEFEFE" transform="translate(0,0)"/>
<path d="M0 0 C40.19 -0.0165 80.38 -0.0323 120.5701 -0.0476 C121.3565 -0.0479 122.1429 -0.0482 122.9532 -0.0485 C207.2098 -0.0806 291.4664 -0.1082 375.723 -0.127 C377.5943 -0.1274 379.4656 -0.1279 381.3369 -0.1283 C420.6142 -0.1371 459.8916 -0.1452 499.169 -0.1526 C518.8989 -0.1564 538.6288 -0.1602 558.3588 -0.1642 C561.335 -0.1648 564.3112 -0.1654 567.2874 -0.166 C613.1242 -0.1752 658.9611 -0.1869 704.798 -0.206 C705.2909 -0.2062 705.2909 -0.2062 707.7851 -0.2072 C723.6787 -0.2139 739.5723 -0.2207 755.4658 -0.2276 C801.2366 -0.2474 847.0074 -0.2656 892.7782 -0.2734 C893.7192 -0.2736 894.6601 -0.2737 895.6296 -0.2739 C916.2848 -0.2774 936.9399 -0.2801 957.5951 -0.282 C965.9056 -0.2828 974.2162 -0.2837 982.5268 -0.2846 C983.4363 -0.2847 984.3459 -0.2848 985.283 -0.2849 C1014.6034 -0.2882 1043.9237 -0.301 1073.244 -0.3188 C1102.7726 -0.3367 1132.3011 -0.3453 1161.8296 -0.3409 C1165.9078 -0.3403 1169.986 -0.3398 1174.0641 -0.3393 C1174.4639 -0.3393 1174.4639 -0.3393 1176.4867 -0.3391 C1189.1587 -0.3379 1201.8307 -0.3469 1214.5027 -0.36 C1226.9556 -0.3728 1239.4084 -0.3748 1251.8612 -0.3655 C1258.526 -0.3608 1265.1907 -0.3612 1271.8555 -0.3746 C1277.9135 -0.3867 1283.9714 -0.3851 1290.0294 -0.3724 C1292.2123 -0.3703 1294.3952 -0.3732 1296.5781 -0.3817 C1299.5357 -0.3925 1302.4928 -0.3849 1305.4504 -0.3726 C1306.2947 -0.3801 1307.1391 -0.3876 1308.009 -0.3954 C1314.4965 -0.3378 1320.1861 1.0931 1326 4 C1326 4.66 1326 5.32 1326 6 C1326.2784 6.0206 1326.2784 6.0206 1327.6875 6.125 C1331.8493 7.6997 1334.0324 10.9675 1335.8823 14.8533 C1338.9865 23.7948 1338.3971 33.0666 1338.3406 42.4028 C1338.3397 44.3649 1338.3402 46.3269 1338.3419 48.289 C1338.3428 53.592 1338.3252 58.8948 1338.3042 64.1978 C1338.2854 69.7485 1338.2837 75.2991 1338.2801 80.8498 C1338.2708 91.3504 1338.2462 101.8508 1338.2161 112.3513 C1338.1825 124.3102 1338.166 136.2691 1338.151 148.228 C1338.1196 172.8187 1338.0669 197.4094 1338 222 C1337.34 222 1336.68 222 1336 222 C1335.8144 222.825 1335.6288 223.65 1335.4375 224.5 C1333.3169 229.6632 1329.7964 234.3072 1324.9609 237.2344 C1323 238 1323 238 1320 238 C1320 238.66 1320 239.32 1320 240 C1279.5387 240.011 1239.0775 240.0215 1198.6162 240.0317 C1198.2203 240.0318 1198.2203 240.0318 1196.217 240.0323 C1111.4038 240.0537 1026.5905 240.0722 941.7772 240.0847 C939.8938 240.085 938.0104 240.0852 936.1271 240.0855 C896.5971 240.0914 857.0671 240.0968 817.5371 240.1018 C797.6806 240.1043 777.8242 240.1068 757.9677 240.1095 C754.9724 240.1099 751.9771 240.1103 748.9818 240.1107 C702.8436 240.1168 656.7054 240.1246 610.5672 240.1373 C609.5748 240.1376 608.5823 240.1379 607.5598 240.1382 C591.5581 240.1426 575.5564 240.1472 559.5547 240.1517 C513.4797 240.1649 467.4047 240.1771 421.3298 240.1823 C420.3828 240.1824 419.4358 240.1825 418.4602 240.1826 C397.6748 240.1849 376.8895 240.1867 356.1041 240.188 C347.7415 240.1885 339.3789 240.1891 331.0163 240.1898 C330.5587 240.1898 330.5587 240.1898 328.2428 240.19 C298.725 240.1922 269.2072 240.2007 239.6895 240.2126 C209.9689 240.2245 180.2484 240.2302 150.5278 240.2272 C146.4257 240.2268 142.3236 240.2265 138.2215 240.2262 C137.4174 240.2262 136.6132 240.2261 135.7847 240.226 C123.0238 240.2253 110.2629 240.2313 97.502 240.24 C84.9704 240.2485 72.4387 240.2499 59.9071 240.2437 C53.1966 240.2405 46.4862 240.2408 39.7758 240.2498 C33.6821 240.2578 27.5886 240.2568 21.495 240.2483 C19.2936 240.2468 17.0922 240.2488 14.8909 240.2545 C11.9204 240.2616 8.9503 240.2566 5.9799 240.2484 C5.1178 240.2534 4.2556 240.2584 3.3673 240.2636 C-0.6755 240.2395 -3.483 239.9769 -7 238 C-7 237.34 -7 236.68 -7 236 C-7.5943 235.7396 -8.1885 235.4792 -8.8008 235.2109 C-11.1411 233.9223 -12.466 232.6519 -14.1875 230.625 C-14.6967 230.0398 -15.2059 229.4545 -15.7305 228.8516 C-17.0793 226.8843 -17.4398 225.2893 -18 223 C-18.66 222.67 -19.32 222.34 -20 222 C-21.3808 216.6331 -21.1135 211.1254 -21.0625 205.625 C-21.058 204.6982 -21.0535 203.7713 -21.0488 202.8164 C-21.0371 200.5442 -21.0207 198.2721 -21 196 C-21.6403 196.0209 -22.2805 196.0419 -22.9402 196.0635 C-25.8558 196.1469 -28.7712 196.1987 -31.6875 196.25 C-32.6949 196.2835 -33.7023 196.317 -34.7402 196.3516 C-42.2504 196.4507 -42.2504 196.4507 -46.1445 194.1094 C-49.0625 190.7922 -49.1299 188.8979 -49.1539 184.5541 C-49.1625 183.3974 -49.1711 182.2408 -49.18 181.049 C-49.1842 179.7737 -49.1885 178.4983 -49.1929 177.1843 C-49.2008 175.8326 -49.209 174.4808 -49.2177 173.129 C-49.2439 168.6837 -49.2592 164.2383 -49.2734 159.793 C-49.2788 158.2633 -49.2842 156.7335 -49.2896 155.2038 C-49.3112 148.8412 -49.3299 142.4786 -49.3412 136.1159 C-49.3574 126.9942 -49.3906 117.873 -49.4476 108.7515 C-49.4863 102.3396 -49.5058 95.9277 -49.5111 89.5156 C-49.5148 85.6851 -49.5268 81.855 -49.5592 78.0246 C-49.5893 74.4203 -49.5956 70.8167 -49.5838 67.2124 C-49.5835 65.2607 -49.608 63.3091 -49.6332 61.3575 C-49.5651 51.8187 -49.5651 51.8187 -46.526 48.7373 C-45.6924 48.164 -44.8589 47.5907 -44 47 C-43.835 46.835 -43.835 46.835 -43 46 C-41.2923 45.9129 -39.581 45.893 -37.8711 45.9023 C-37.3539 45.904 -37.3539 45.904 -34.7363 45.9121 C-33.6477 45.9205 -32.5591 45.9289 -31.4375 45.9375 C-30.8913 45.9398 -30.8913 45.9398 -28.127 45.9512 C-25.4179 45.963 -22.709 45.9795 -20 46 C-20.0157 45.3609 -20.0314 44.7217 -20.0476 44.0632 C-20.1108 41.1047 -20.1493 38.1464 -20.1875 35.1875 C-20.2126 34.1827 -20.2378 33.1779 -20.2637 32.1426 C-20.3415 24.0743 -19.6461 16.2206 -15.2734 9.2461 C-10.4984 4.6971 -6.6144 2.6124 0 2 C0 1.34 0 0.68 0 0 Z " fill="#FDFDFD" transform="translate(141,84)"/>
<path d="M0 0 C40.19 -0.0165 80.38 -0.0323 120.5701 -0.0476 C121.3565 -0.0479 122.1429 -0.0482 122.9532 -0.0485 C207.2098 -0.0806 291.4664 -0.1082 375.723 -0.127 C377.5943 -0.1274 379.4656 -0.1279 381.3369 -0.1283 C420.6142 -0.1371 459.8916 -0.1452 499.169 -0.1526 C518.8989 -0.1564 538.6288 -0.1602 558.3588 -0.1642 C561.335 -0.1648 564.3112 -0.1654 567.2874 -0.166 C613.1242 -0.1752 658.9611 -0.1869 704.798 -0.206 C705.2909 -0.2062 705.2909 -0.2062 707.7851 -0.2072 C723.6787 -0.2139 739.5723 -0.2207 755.4658 -0.2276 C801.2366 -0.2474 847.0074 -0.2656 892.7782 -0.2734 C893.7192 -0.2736 894.6601 -0.2737 895.6296 -0.2739 C916.2848 -0.2774 936.9399 -0.2801 957.5951 -0.282 C965.9056 -0.2828 974.2162 -0.2837 982.5268 -0.2846 C983.4363 -0.2847 984.3459 -0.2848 985.283 -0.2849 C1014.6034 -0.2882 1043.9237 -0.301 1073.244 -0.3188 C1102.7726 -0.3367 1132.3011 -0.3453 1161.8296 -0.3409 C1165.9078 -0.3403 1169.986 -0.3398 1174.0641 -0.3393 C1174.4639 -0.3393 1174.4639 -0.3393 1176.4867 -0.3391 C1189.1587 -0.3379 1201.8307 -0.3469 1214.5027 -0.36 C1226.9556 -0.3728 1239.4084 -0.3748 1251.8612 -0.3655 C1258.526 -0.3608 1265.1907 -0.3612 1271.8555 -0.3746 C1277.9135 -0.3867 1283.9714 -0.3851 1290.0294 -0.3724 C1292.2123 -0.3703 1294.3952 -0.3732 1296.5781 -0.3817 C1299.5357 -0.3925 1302.4928 -0.3849 1305.4504 -0.3726 C1306.2947 -0.3801 1307.1391 -0.3876 1308.009 -0.3954 C1314.4965 -0.3378 1320.1861 1.0931 1326 4 C1326 4.66 1326 5.32 1326 6 C1326.2784 6.0206 1326.2784 6.0206 1327.6875 6.125 C1331.8493 7.6997 1334.0324 10.9675 1335.8823 14.8533 C1338.9865 23.7948 1338.3971 33.0666 1338.3406 42.4028 C1338.3397 44.3649 1338.3402 46.3269 1338.3419 48.289 C1338.3428 53.592 1338.3252 58.8948 1338.3042 64.1978 C1338.2854 69.7485 1338.2837 75.2991 1338.2801 80.8498 C1338.2708 91.3504 1338.2462 101.8508 1338.2161 112.3513 C1338.1825 124.3102 1338.166 136.2691 1338.151 148.228 C1338.1196 172.8187 1338.0669 197.4094 1338 222 C1337.34 222 1336.68 222 1336 222 C1335.8144 222.825 1335.6288 223.65 1335.4375 224.5 C1333.3169 229.6632 1329.7964 234.3072 1324.9609 237.2344 C1323 238 1323 238 1320 238 C1320 238.66 1320 239.32 1320 240 C1279.5387 240.011 1239.0775 240.0215 1198.6162 240.0317 C1198.2203 240.0318 1198.2203 240.0318 1196.217 240.0323 C1111.4038 240.0537 1026.5905 240.0722 941.7772 240.0847 C939.8938 240.085 938.0104 240.0852 936.1271 240.0855 C896.5971 240.0914 857.0671 240.0968 817.5371 240.1018 C797.6806 240.1043 777.8242 240.1068 757.9677 240.1095 C754.9724 240.1099 751.9771 240.1103 748.9818 240.1107 C702.8436 240.1168 656.7054 240.1246 610.5672 240.1373 C609.5748 240.1376 608.5823 240.1379 607.5598 240.1382 C591.5581 240.1426 575.5564 240.1472 559.5547 240.1517 C513.4797 240.1649 467.4047 240.1771 421.3298 240.1823 C420.3828 240.1824 419.4358 240.1825 418.4602 240.1826 C397.6748 240.1849 376.8895 240.1867 356.1041 240.188 C347.7415 240.1885 339.3789 240.1891 331.0163 240.1898 C330.5587 240.1898 330.5587 240.1898 328.2428 240.19 C298.725 240.1922 269.2072 240.2007 239.6895 240.2126 C209.9689 240.2245 180.2484 240.2302 150.5278 240.2272 C146.4257 240.2268 142.3236 240.2265 138.2215 240.2262 C137.4174 240.2262 136.6132 240.2261 135.7847 240.226 C123.0238 240.2253 110.2629 240.2313 97.502 240.24 C84.9704 240.2485 72.4387 240.2499 59.9071 240.2437 C53.1966 240.2405 46.4862 240.2408 39.7758 240.2498 C33.6821 240.2578 27.5886 240.2568 21.495 240.2483 C19.2936 240.2468 17.0922 240.2488 14.8909 240.2545 C11.9204 240.2616 8.9503 240.2566 5.9799 240.2484 C5.1178 240.2534 4.2556 240.2584 3.3673 240.2636 C-0.6755 240.2395 -3.483 239.9769 -7 238 C-7 237.34 -7 236.68 -7 236 C-7.5943 235.7396 -8.1885 235.4792 -8.8008 235.2109 C-11.1411 233.9223 -12.466 232.6519 -14.1875 230.625 C-14.6967 230.0398 -15.2059 229.4545 -15.7305 228.8516 C-17.0793 226.8843 -17.4398 225.2893 -18 223 C-18.66 222.67 -19.32 222.34 -20 222 C-21.3808 216.6331 -21.1135 211.1254 -21.0625 205.625 C-21.058 204.6982 -21.0535 203.7713 -21.0488 202.8164 C-21.0371 200.5442 -21.0207 198.2721 -21 196 C-21.6403 196.0209 -22.2805 196.0419 -22.9402 196.0635 C-25.8558 196.1469 -28.7712 196.1987 -31.6875 196.25 C-32.6949 196.2835 -33.7023 196.317 -34.7402 196.3516 C-42.2504 196.4507 -42.2504 196.4507 -46.1445 194.1094 C-49.0625 190.7922 -49.1299 188.8979 -49.1539 184.5541 C-49.1625 183.3974 -49.1711 182.2408 -49.18 181.049 C-49.1842 179.7737 -49.1885 178.4983 -49.1929 177.1843 C-49.2008 175.8326 -49.209 174.4808 -49.2177 173.129 C-49.2439 168.6837 -49.2592 164.2383 -49.2734 159.793 C-49.2788 158.2633 -49.2842 156.7335 -49.2896 155.2038 C-49.3112 148.8412 -49.3299 142.4786 -49.3412 136.1159 C-49.3574 126.9942 -49.3906 117.873 -49.4476 108.7515 C-49.4863 102.3396 -49.5058 95.9277 -49.5111 89.5156 C-49.5148 85.6851 -49.5268 81.855 -49.5592 78.0246 C-49.5893 74.4203 -49.5956 70.8167 -49.5838 67.2124 C-49.5835 65.2607 -49.608 63.3091 -49.6332 61.3575 C-49.5651 51.8187 -49.5651 51.8187 -46.526 48.7373 C-45.6924 48.164 -44.8589 47.5907 -44 47 C-43.835 46.835 -43.835 46.835 -43 46 C-41.2923 45.9129 -39.581 45.893 -37.8711 45.9023 C-37.3539 45.904 -37.3539 45.904 -34.7363 45.9121 C-33.6477 45.9205 -32.5591 45.9289 -31.4375 45.9375 C-30.8913 45.9398 -30.8913 45.9398 -28.127 45.9512 C-25.4179 45.963 -22.709 45.9795 -20 46 C-20.0157 45.3609 -20.0314 44.7217 -20.0476 44.0632 C-20.1108 41.1047 -20.1493 38.1464 -20.1875 35.1875 C-20.2126 34.1827 -20.2378 33.1779 -20.2637 32.1426 C-20.3415 24.0743 -19.6461 16.2206 -15.2734 9.2461 C-10.4984 4.6971 -6.6144 2.6124 0 2 C0 1.34 0 0.68 0 0 Z M1 10 C1 10.66 1 11.32 1 12 C0.6184 12.0516 0.6184 12.0516 -1.3125 12.3125 C-4.9102 13.2328 -6.1546 14.6364 -8.0698 17.7256 C-9.2583 20.6316 -9.2261 22.9418 -9.1953 26.0781 C-9.1889 27.2383 -9.1824 28.3984 -9.1758 29.5938 C-9.159 30.8003 -9.1423 32.0069 -9.125 33.25 C-9.116 34.472 -9.107 35.6941 -9.0977 36.9531 C-9.0741 39.9689 -9.0412 42.9844 -9 46 C-7.6937 46.0024 -6.3874 46.0048 -5.0416 46.0072 C25.946 46.0646 56.9336 46.1373 87.9211 46.229 C91.7326 46.2403 95.5442 46.2514 99.3557 46.2625 C100.1145 46.2647 100.8734 46.2669 101.6552 46.2691 C113.9525 46.3045 126.2498 46.3294 138.5471 46.3503 C151.1592 46.3721 163.7713 46.4051 176.3834 46.4487 C184.1698 46.4753 191.9561 46.4929 199.7425 46.4993 C205.7066 46.5052 211.6706 46.5268 217.6347 46.5543 C220.0861 46.5631 222.5376 46.5668 224.989 46.565 C228.325 46.5634 231.6605 46.5799 234.9964 46.6013 C235.4862 46.5988 235.4862 46.5988 237.9648 46.5866 C238.8555 46.596 239.7463 46.6055 240.664 46.6152 C241.4345 46.6171 242.2049 46.619 242.9987 46.621 C245.5475 47.1037 246.4381 47.9618 248 50 C248.3803 52.5416 248.3803 52.5416 248.3877 55.6421 C248.3926 56.2295 248.3926 56.2295 248.4177 59.2023 C248.4132 60.4928 248.4087 61.7832 248.4041 63.1128 C248.4098 64.4844 248.4167 65.856 248.4249 67.2277 C248.4428 70.955 248.4416 74.6822 248.4359 78.4096 C248.4328 81.5209 248.4389 84.6322 248.4449 87.7435 C248.459 95.0844 248.4574 102.4252 248.446 109.7661 C248.4346 117.3387 248.4486 124.911 248.4754 132.4835 C248.4976 138.9847 248.5042 145.4857 248.4984 151.987 C248.495 155.8699 248.4974 159.7527 248.5146 163.6356 C248.5301 167.2883 248.5261 170.9405 248.5073 174.5931 C248.5019 176.571 248.5161 178.5488 248.531 180.5266 C248.5212 181.7072 248.5113 182.8877 248.5012 184.104 C248.501 185.1279 248.5008 186.1518 248.5006 187.2067 C247.8186 191.0124 246.9864 192.5026 244 195 C240.655 195.7444 237.3671 195.6769 233.9521 195.6392 C232.9196 195.6476 231.8871 195.6559 230.8234 195.6646 C227.3529 195.6866 223.8836 195.6729 220.4131 195.6594 C217.9298 195.6679 215.4464 195.6785 212.9631 195.6912 C207.6112 195.7136 202.2596 195.7206 196.9077 195.7138 C189.1698 195.7041 181.4321 195.7218 173.6942 195.7462 C161.1402 195.7851 148.5863 195.8018 136.0322 195.8044 C123.8369 195.8071 111.6416 195.8202 99.4463 195.8474 C99.0705 195.8482 99.0705 195.8482 97.1685 195.8525 C93.3976 195.8609 89.6267 195.8696 85.8558 195.8784 C54.5705 195.9509 23.2853 195.9868 -8 196 C-8.1457 200.208 -8.2342 204.4153 -8.3125 208.625 C-8.3544 209.8148 -8.3963 211.0046 -8.4395 212.2305 C-8.5776 222.1227 -8.5776 222.1227 -5.6055 225.8359 C-3 228 -3 228 -1 228 C-1 228.66 -1 229.32 -1 230 C39.343 230.0495 79.686 230.0969 120.0291 230.1428 C120.8185 230.1437 121.6079 230.1446 122.4213 230.1455 C206.9985 230.2417 291.5758 230.3247 376.1531 230.3811 C378.0315 230.3823 379.9099 230.3836 381.7883 230.3849 C421.2151 230.4112 460.6419 230.4356 500.0687 230.4579 C519.8737 230.4691 539.6787 230.4807 559.4837 230.4926 C562.4712 230.4944 565.4587 230.4962 568.4463 230.498 C614.4576 230.5255 660.4689 230.5607 706.4802 230.618 C707.4697 230.6192 708.4592 230.6204 709.4787 230.6217 C725.4328 230.6416 741.3868 230.6622 757.3409 230.6828 C803.2859 230.7422 849.2309 230.7969 895.1759 230.8203 C896.1204 230.8207 897.065 230.8212 898.0382 230.8217 C918.7719 230.8322 939.5056 230.8403 960.2393 230.846 C968.5815 230.8484 976.9237 230.8511 985.2659 230.8539 C985.7224 230.854 985.7224 230.854 988.0326 230.8548 C1017.4646 230.8647 1046.8965 230.9031 1076.3285 230.9565 C1105.9694 231.0102 1135.6102 231.0359 1165.2511 231.0226 C1169.3448 231.0208 1173.4385 231.0193 1177.5321 231.018 C1178.3346 231.0177 1179.1371 231.0174 1179.9639 231.0172 C1192.6843 231.0137 1205.4044 231.0406 1218.1247 231.0801 C1230.625 231.1183 1243.125 231.1245 1255.6253 231.0965 C1262.3158 231.0824 1269.0053 231.0837 1275.6957 231.1239 C1281.7772 231.1603 1287.8572 231.1554 1293.9387 231.1173 C1296.13 231.1108 1298.3213 231.1196 1300.5124 231.1451 C1318.8528 231.3453 1318.8528 231.3453 1324.7874 225.6938 C1328.2534 221.3963 1329.2838 217.8175 1329.1227 212.3788 C1329.1286 211.9694 1329.1286 211.9694 1329.1588 209.8977 C1329.1875 207.1788 1329.1524 204.4646 1329.1169 201.7458 C1329.1242 199.7871 1329.1354 197.8283 1329.1501 195.8696 C1329.1783 190.5675 1329.1502 185.267 1329.1101 179.9651 C1329.0761 174.4088 1329.0885 168.8526 1329.0944 163.2963 C1329.097 153.9677 1329.0638 144.6397 1329.0085 135.3113 C1328.945 124.5347 1328.9345 113.7592 1328.9532 102.9825 C1328.9703 92.6032 1328.9534 82.2242 1328.9197 71.845 C1328.9058 67.4332 1328.9031 63.0217 1328.9095 58.6099 C1328.9151 53.4131 1328.8907 48.2172 1328.8433 43.0205 C1328.8306 41.1162 1328.828 39.2119 1328.8364 37.3076 C1328.9012 19.9065 1328.9012 19.9065 1323.4788 14.273 C1322.9908 13.8529 1322.5028 13.4328 1322 13 C1321.34 12.34 1320.68 11.68 1320 11 C1315.7805 9.613 1311.4646 9.8629 1307.0714 9.8758 C1306.1531 9.8745 1305.2348 9.8732 1304.2887 9.8719 C1301.1828 9.8688 1298.0769 9.8729 1294.971 9.877 C1292.7237 9.8762 1290.4764 9.875 1288.2291 9.8735 C1282.008 9.8704 1275.7869 9.8736 1269.5659 9.8777 C1263.5106 9.8808 1257.4552 9.8792 1251.3999 9.8777 C1238.8581 9.8747 1226.3163 9.8765 1213.7745 9.8808 C1201.0596 9.8852 1188.3446 9.8874 1175.6297 9.8869 C1174.8275 9.8869 1174.0253 9.8868 1173.1988 9.8868 C1169.1087 9.8866 1165.0185 9.8865 1160.9284 9.8863 C1131.3004 9.8848 1101.6724 9.8883 1072.0444 9.8943 C1042.6967 9.9002 1013.3489 9.904 984.0012 9.9051 C983.0902 9.9052 982.1793 9.9052 981.2408 9.9052 C972.9213 9.9055 964.6018 9.9058 956.2823 9.9061 C935.5995 9.9067 914.9167 9.9077 894.2339 9.9089 C893.292 9.9089 892.35 9.909 891.3796 9.909 C845.5429 9.9116 799.7063 9.918 753.8696 9.9246 C737.9602 9.9269 722.0507 9.9291 706.1413 9.9313 C705.1546 9.9315 704.1679 9.9316 703.1513 9.9318 C657.2962 9.9381 611.4411 9.9418 565.586 9.9449 C562.6096 9.9451 559.6333 9.9453 556.6569 9.9455 C536.9325 9.9468 517.2082 9.9481 497.4838 9.9493 C458.2361 9.9518 418.9885 9.9545 379.7408 9.9574 C377.8716 9.9576 376.0025 9.9577 374.1333 9.9579 C289.972 9.9641 205.8107 9.9735 121.6494 9.9841 C120.8612 9.9842 120.0731 9.9843 119.261 9.9844 C79.8407 9.9894 40.4203 9.9946 1 10 Z " fill="#D7D0C2" transform="translate(141,84)"/>
<path d="M0 0 C102.3 0 204.6 0 310 0 C310 52.8 310 105.6 310 160 C207.7 160 105.4 160 0 160 C0 107.2 0 54.4 0 0 Z " fill="#F5E5C1" transform="translate(800,124)"/>
<path d="M0 0 C1.185 -0.0085 2.3699 -0.017 3.5908 -0.0258 C6.8766 -0.0442 10.1615 -0.0402 13.4474 -0.0266 C16.9921 -0.0174 20.5367 -0.0369 24.0814 -0.0526 C31.0241 -0.0787 37.9666 -0.0776 44.9093 -0.0666 C50.5514 -0.058 56.1933 -0.0588 61.8353 -0.0664 C62.6381 -0.0674 63.4408 -0.0685 64.2679 -0.0696 C65.8985 -0.0717 67.5292 -0.0739 69.1599 -0.0761 C84.4541 -0.0956 99.7482 -0.0836 115.0423 -0.0613 C128.168 -0.0431 141.2933 -0.054 154.4189 -0.0856 C169.6581 -0.1224 184.897 -0.1394 200.1362 -0.1262 C201.7609 -0.1249 203.3857 -0.1236 205.0104 -0.1223 C205.8098 -0.1217 206.6092 -0.121 207.4328 -0.1204 C213.0687 -0.1174 218.7044 -0.1286 224.3402 -0.1456 C231.2077 -0.1659 238.0747 -0.165 244.9422 -0.1369 C248.4468 -0.1231 251.9507 -0.119 255.4552 -0.1409 C259.2527 -0.1594 263.0483 -0.1413 266.8457 -0.1135 C267.9561 -0.1276 269.0665 -0.1417 270.2106 -0.1562 C277.3638 -0.0504 277.3638 -0.0504 280.2231 1.8182 C283.2876 5.1313 284.0441 8.2126 284.0241 12.6022 C284.0276 13.1869 284.0276 13.1869 284.045 16.1458 C284.027 17.4147 284.009 18.6835 283.9905 19.9908 C283.9891 21.3512 283.9899 22.7117 283.9927 24.0722 C283.9941 27.7539 283.9648 31.4347 283.9298 35.1162 C283.8985 38.9679 283.8956 42.8196 283.8897 46.6713 C283.8742 53.9599 283.8332 61.2481 283.7829 68.5366 C283.727 76.8364 283.6996 85.1362 283.6745 93.4361 C283.6222 110.5049 283.5343 127.5732 283.4229 144.6416 C282.7629 144.9716 282.7629 144.9716 279.4229 146.6416 C279.4229 147.3016 279.4229 147.9616 279.4229 148.6416 C278.4329 148.6416 277.4429 148.6416 276.4229 148.6416 C276.4229 149.3016 276.4229 149.9616 276.4229 150.6416 C240.1073 150.779 203.7919 150.8847 167.4762 150.948 C163.1891 150.9555 158.9021 150.9633 154.615 150.9712 C153.7615 150.9728 152.908 150.9744 152.0287 150.976 C138.2079 151.0021 124.3873 151.0494 110.5666 151.1046 C96.386 151.1607 82.2056 151.194 68.0249 151.2062 C59.2741 151.2144 50.5237 151.2404 41.773 151.2891 C35.7729 151.3209 29.773 151.3304 23.7728 151.3227 C20.3105 151.3188 16.8489 151.3247 13.3867 151.3569 C9.6313 151.3867 5.8777 151.3796 2.1223 151.3632 C1.0299 151.3807 -0.0625 151.3981 -1.1881 151.4161 C-7.191 151.3451 -11.0659 150.71 -15.3717 146.3194 C-17.2159 143.7526 -17.4524 141.8138 -17.4526 138.6768 C-17.4694 137.5062 -17.4863 136.3356 -17.5036 135.1295 C-17.4863 133.8592 -17.469 132.5889 -17.4512 131.2801 C-17.4574 129.9178 -17.4666 128.5556 -17.4786 127.1934 C-17.5019 123.505 -17.4814 119.8181 -17.4516 116.1298 C-17.4263 112.2657 -17.437 108.4018 -17.4424 104.5377 C-17.446 98.0504 -17.4215 91.5636 -17.3799 85.0765 C-17.3321 77.5804 -17.3269 70.0851 -17.3448 62.5889 C-17.3613 55.3711 -17.3495 48.1535 -17.3241 40.9357 C-17.3137 37.8668 -17.3129 34.7981 -17.3198 31.7291 C-17.3264 28.1148 -17.3081 24.5014 -17.2707 20.8872 C-17.2563 18.9309 -17.2663 16.9745 -17.277 15.0182 C-17.2685 14.4343 -17.2685 14.4343 -17.2255 11.4795 C-17.221 10.4669 -17.2166 9.4543 -17.2119 8.4109 C-15.1247 -0.6946 -7.7024 -0.0726 0 0 Z " fill="#D7D0C2" transform="translate(1170.5771484375,129.3583526611328)"/>
<path d="M0 0 C2.0905 -0.3749 2.0905 -0.3749 4.7327 -0.3747 C5.2351 -0.3783 5.2351 -0.3783 7.7774 -0.3966 C8.3334 -0.3929 8.3334 -0.3929 11.1472 -0.3742 C12.3221 -0.3782 13.4971 -0.3822 14.7076 -0.3863 C17.9792 -0.3943 21.2504 -0.3887 24.5219 -0.3775 C28.0462 -0.3687 31.5704 -0.3771 35.0947 -0.3834 C42.0034 -0.3929 48.9119 -0.3862 55.8206 -0.3741 C63.8612 -0.3605 71.9017 -0.3621 79.9424 -0.3642 C94.2876 -0.3674 108.6328 -0.3558 122.978 -0.3362 C136.9058 -0.3172 150.8335 -0.3101 164.7612 -0.3157 C179.9153 -0.3217 195.0694 -0.3216 210.2235 -0.3102 C211.839 -0.309 213.4545 -0.3078 215.07 -0.3066 C215.8649 -0.306 216.6598 -0.3054 217.4788 -0.3047 C223.0864 -0.3009 228.6941 -0.3013 234.3018 -0.3032 C241.1352 -0.3053 247.9685 -0.3001 254.8019 -0.2855 C258.29 -0.2783 261.7779 -0.2742 265.266 -0.2788 C269.0437 -0.282 272.8212 -0.273 276.5988 -0.2607 C277.7064 -0.2645 278.814 -0.2683 279.9551 -0.2721 C280.4601 -0.2692 280.4601 -0.2692 283.0156 -0.2545 C283.4517 -0.254 283.4517 -0.254 285.6588 -0.2518 C288.2505 0.0269 289.8154 0.5886 292 2 C294.2696 5.4045 294.2559 6.6069 294.2742 10.6041 C294.2841 11.7706 294.2941 12.937 294.3044 14.1388 C294.305 15.42 294.3057 16.7011 294.3064 18.021 C294.314 19.3828 294.3224 20.7445 294.3316 22.1063 C294.3536 25.8068 294.3624 29.5071 294.3674 33.2077 C294.3711 35.5195 294.3773 37.8314 294.3844 40.1432 C294.4089 48.2085 294.422 56.2736 294.4255 64.3389 C294.4292 71.857 294.4591 79.3747 294.5009 86.8927 C294.5356 93.3471 294.5511 99.8014 294.5518 106.256 C294.5526 110.1111 294.5613 113.9658 294.5898 117.8208 C294.6159 121.4473 294.6182 125.073 294.6021 128.6995 C294.5994 130.6631 294.6215 132.6267 294.6443 134.5901 C294.5644 144.1868 294.5644 144.1868 291.5875 147.2675 C288.1107 149.5954 286.4343 150.1257 282.3013 150.1342 C281.8027 150.1364 281.8027 150.1364 279.2796 150.1477 C278.7278 150.1476 278.7278 150.1476 275.9355 150.1472 C274.7694 150.1508 273.6033 150.1545 272.4019 150.1583 C269.1552 150.1675 265.9086 150.1721 262.6619 150.1747 C259.1642 150.1786 255.6665 150.1882 252.1687 150.1969 C243.7171 150.2167 235.2655 150.2267 226.8139 150.2356 C222.8362 150.24 218.8586 150.2454 214.8809 150.2506 C201.6624 150.2676 188.444 150.2821 175.2255 150.2894 C171.7941 150.2913 168.3628 150.2932 164.9314 150.2952 C164.505 150.2954 164.505 150.2954 162.3469 150.2966 C148.525 150.3049 134.7031 150.3303 120.8811 150.3627 C106.6983 150.3958 92.5154 150.4138 78.3325 150.417 C70.3661 150.4192 62.3999 150.428 54.4336 150.4535 C47.6503 150.4752 40.8672 150.4833 34.0839 150.4735 C30.622 150.469 27.1604 150.4709 23.6985 150.4903 C19.9472 150.5079 16.1968 150.501 12.4455 150.4877 C11.3486 150.4987 10.2517 150.5097 9.1216 150.521 C4.6836 150.4831 1.7897 150.4303 -2.1528 148.282 C-5.3743 144.3022 -5.1252 140.3366 -5.1404 135.3832 C-5.1462 134.2644 -5.1519 133.1457 -5.1577 131.9931 C-5.1589 130.7753 -5.16 129.5575 -5.1611 128.3027 C-5.1661 127.0128 -5.1711 125.7229 -5.1762 124.3939 C-5.1893 120.863 -5.1957 117.3321 -5.2002 113.8011 C-5.2031 111.5941 -5.2072 109.3871 -5.2117 107.1801 C-5.2254 100.2715 -5.235 93.3629 -5.2389 86.4543 C-5.2434 78.4847 -5.261 70.5152 -5.2899 62.5457 C-5.3115 56.3799 -5.3216 50.2142 -5.3229 44.0485 C-5.324 40.3679 -5.3299 36.6874 -5.3478 33.0069 C-5.3673 28.9036 -5.3629 24.8006 -5.3564 20.6973 C-5.3657 19.4794 -5.3749 18.2616 -5.3844 17.0069 C-5.3788 15.8882 -5.3732 14.7695 -5.3675 13.6168 C-5.369 12.6471 -5.3704 11.6775 -5.3719 10.6784 C-4.9283 7.4835 -3.8127 5.6436 -2 3 C-1.34 2.01 -0.68 1.02 0 0 Z " fill="#D7D0C2" transform="translate(446,130)"/>
<path d="M0 0 C40.19 -0.0165 80.38 -0.0323 120.5701 -0.0476 C121.3565 -0.0479 122.1429 -0.0482 122.9532 -0.0485 C207.2098 -0.0806 291.4664 -0.1082 375.723 -0.127 C377.5943 -0.1274 379.4656 -0.1279 381.3369 -0.1283 C420.6142 -0.1371 459.8916 -0.1452 499.169 -0.1526 C518.8989 -0.1564 538.6288 -0.1602 558.3588 -0.1642 C561.335 -0.1648 564.3112 -0.1654 567.2874 -0.166 C613.1242 -0.1752 658.9611 -0.1869 704.798 -0.206 C705.2909 -0.2062 705.2909 -0.2062 707.7851 -0.2072 C723.6787 -0.2139 739.5723 -0.2207 755.4658 -0.2276 C801.2366 -0.2474 847.0074 -0.2656 892.7782 -0.2734 C893.7192 -0.2736 894.6601 -0.2737 895.6296 -0.2739 C916.2848 -0.2774 936.9399 -0.2801 957.5951 -0.282 C965.9056 -0.2828 974.2162 -0.2837 982.5268 -0.2846 C983.4363 -0.2847 984.3459 -0.2848 985.283 -0.2849 C1014.6034 -0.2882 1043.9237 -0.301 1073.244 -0.3188 C1102.7726 -0.3367 1132.3011 -0.3453 1161.8296 -0.3409 C1165.9078 -0.3403 1169.986 -0.3398 1174.0641 -0.3393 C1174.4639 -0.3393 1174.4639 -0.3393 1176.4867 -0.3391 C1189.1587 -0.3379 1201.8307 -0.3469 1214.5027 -0.36 C1226.9556 -0.3728 1239.4084 -0.3748 1251.8612 -0.3655 C1258.526 -0.3608 1265.1907 -0.3612 1271.8555 -0.3746 C1277.9135 -0.3867 1283.9714 -0.3851 1290.0294 -0.3724 C1292.2123 -0.3703 1294.3952 -0.3732 1296.5781 -0.3817 C1299.5357 -0.3925 1302.4928 -0.3849 1305.4504 -0.3726 C1306.2947 -0.3801 1307.1391 -0.3876 1308.009 -0.3954 C1314.4965 -0.3378 1320.1861 1.0931 1326 4 C1326 4.66 1326 5.32 1326 6 C1326.2784 6.0206 1326.2784 6.0206 1327.6875 6.125 C1331.8493 7.6997 1334.0324 10.9675 1335.8823 14.8533 C1338.9865 23.7948 1338.3971 33.0666 1338.3406 42.4028 C1338.3397 44.3649 1338.3402 46.3269 1338.3419 48.289 C1338.3428 53.592 1338.3252 58.8948 1338.3042 64.1978 C1338.2854 69.7485 1338.2837 75.2991 1338.2801 80.8498 C1338.2708 91.3504 1338.2462 101.8508 1338.2161 112.3513 C1338.1825 124.3102 1338.166 136.2691 1338.151 148.228 C1338.1196 172.8187 1338.0669 197.4094 1338 222 C1337.34 222 1336.68 222 1336 222 C1335.8144 222.825 1335.6288 223.65 1335.4375 224.5 C1333.3169 229.6632 1329.7964 234.3072 1324.9609 237.2344 C1323 238 1323 238 1320 238 C1320 238.66 1320 239.32 1320 240 C1279.5387 240.011 1239.0775 240.0215 1198.6162 240.0317 C1198.2203 240.0318 1198.2203 240.0318 1196.217 240.0323 C1111.4038 240.0537 1026.5905 240.0722 941.7772 240.0847 C939.8938 240.085 938.0104 240.0852 936.1271 240.0855 C896.5971 240.0914 857.0671 240.0968 817.5371 240.1018 C797.6806 240.1043 777.8242 240.1068 757.9677 240.1095 C754.9724 240.1099 751.9771 240.1103 748.9818 240.1107 C702.8436 240.1168 656.7054 240.1246 610.5672 240.1373 C609.5748 240.1376 608.5823 240.1379 607.5598 240.1382 C591.5581 240.1426 575.5564 240.1472 559.5547 240.1517 C513.4797 240.1649 467.4047 240.1771 421.3298 240.1823 C420.3828 240.1824 419.4358 240.1825 418.4602 240.1826 C397.6748 240.1849 376.8895 240.1867 356.1041 240.188 C347.7415 240.1885 339.3789 240.1891 331.0163 240.1898 C330.5587 240.1898 330.5587 240.1898 328.2428 240.19 C298.725 240.1922 269.2072 240.2007 239.6895 240.2126 C209.9689 240.2245 180.2484 240.2302 150.5278 240.2272 C146.4257 240.2268 142.3236 240.2265 138.2215 240.2262 C137.4174 240.2262 136.6132 240.2261 135.7847 240.226 C123.0238 240.2253 110.2629 240.2313 97.502 240.24 C84.9704 240.2485 72.4387 240.2499 59.9071 240.2437 C53.1966 240.2405 46.4862 240.2408 39.7758 240.2498 C33.6821 240.2578 27.5886 240.2568 21.495 240.2483 C19.2936 240.2468 17.0922 240.2488 14.8909 240.2545 C11.9204 240.2616 8.9503 240.2566 5.9799 240.2484 C5.1178 240.2534 4.2556 240.2584 3.3673 240.2636 C-0.6755 240.2395 -3.483 239.9769 -7 238 C-7 237.34 -7 236.68 -7 236 C-7.5955 235.7383 -8.1911 235.4766 -8.8047 235.207 C-11.1238 233.9319 -12.4231 232.6969 -14.125 230.6875 C-14.6226 230.1139 -15.1202 229.5402 -15.6328 228.9492 C-18.6148 224.6978 -19.2459 220.9582 -19.1953 215.8242 C-19.1889 214.6673 -19.1824 213.5104 -19.1758 212.3184 C-19.159 211.1202 -19.1423 209.922 -19.125 208.6875 C-19.1205 208.0787 -19.1205 208.0787 -19.0977 204.998 C-19.0741 201.9985 -19.0413 198.9993 -19 196 C-16.03 196 -13.06 196 -10 196 C-10.0011 196.6548 -10.0023 197.3097 -10.0034 197.9844 C-9.9912 200.9906 -9.9334 203.9943 -9.875 207 C-9.8776 208.03 -9.8802 209.0599 -9.8828 210.1211 C-9.6986 217.3498 -8.2784 221.9048 -3 227 C-2.34 227.33 -1.68 227.66 -1 228 C-1 228.66 -1 229.32 -1 230 C39.3483 230.0134 79.6966 230.025 120.0449 230.0352 C120.4397 230.0353 120.4397 230.0353 122.4374 230.0358 C207.0234 230.0571 291.6094 230.0668 376.1954 230.0527 C378.074 230.0524 379.9525 230.0521 381.831 230.0518 C421.2606 230.0453 460.6901 230.0371 500.1196 230.0271 C519.9259 230.022 539.7321 230.0173 559.5384 230.0129 C562.5261 230.0122 565.5139 230.0115 568.5016 230.0108 C614.5173 230.0005 660.5331 229.9968 706.5488 230.0129 C707.0437 230.0131 707.0437 230.0131 709.5477 230.0139 C725.5041 230.0195 741.4604 230.0257 757.4168 230.0319 C803.3669 230.0499 849.3169 230.0637 895.267 230.0496 C896.2116 230.0493 897.1562 230.049 898.1295 230.0487 C918.8641 230.0423 939.5987 230.0338 960.3333 230.0232 C968.6758 230.0189 977.0183 230.015 985.3607 230.0112 C986.2738 230.0108 987.1868 230.0104 988.1276 230.0099 C1017.5633 229.9964 1046.999 230.0082 1076.4347 230.0334 C1106.0781 230.0586 1135.7214 230.059 1165.3648 230.0247 C1169.4583 230.02 1173.5517 230.0155 1177.6452 230.0113 C1178.4477 230.0104 1179.2502 230.0096 1180.0769 230.0087 C1192.7996 229.996 1205.5221 230.0103 1218.2447 230.0357 C1230.7456 230.0601 1243.2463 230.0562 1255.7472 230.0218 C1262.4385 230.0042 1269.1292 230.0004 1275.8206 230.031 C1281.9018 230.0586 1287.9817 230.0498 1294.0629 230.0113 C1296.2551 230.0039 1298.4475 230.01 1300.6396 230.031 C1319.0022 230.1949 1319.0022 230.1949 1324.2874 225.1928 C1327.449 221.1459 1328.1315 217.5339 1328.0024 212.499 C1328.0079 212.0901 1328.0079 212.0901 1328.036 210.0205 C1328.063 207.2989 1328.0333 204.5809 1328.0034 201.8594 C1328.011 199.9007 1328.022 197.9421 1328.0362 195.9835 C1328.064 190.6774 1328.0418 185.3725 1328.0087 180.0665 C1327.981 174.5075 1327.994 168.9486 1328.001 163.3896 C1328.0064 154.0551 1327.9795 144.7211 1327.9331 135.3867 C1327.8799 124.6028 1327.8764 113.8198 1327.8999 103.0358 C1327.9215 92.6518 1327.909 82.268 1327.8808 71.8839 C1327.8693 67.4694 1327.8694 63.0551 1327.8789 58.6405 C1327.8885 53.4396 1327.8681 48.2396 1327.825 43.0388 C1327.8139 41.1329 1327.8129 39.2269 1327.8229 37.3211 C1327.9025 19.9766 1327.9025 19.9766 1322.7724 14.2724 C1317.7413 10.6606 1312.9001 10.7148 1306.9472 10.7452 C1306.0276 10.7419 1305.1081 10.7387 1304.1606 10.7353 C1301.0563 10.7268 1297.9522 10.7326 1294.8479 10.7383 C1292.5995 10.7351 1290.351 10.731 1288.1025 10.7262 C1281.8829 10.7153 1275.6633 10.717 1269.4436 10.7205 C1263.3883 10.7221 1257.3329 10.7142 1251.2776 10.7065 C1238.7368 10.6911 1226.1961 10.6851 1213.6553 10.6842 C1200.9424 10.6833 1188.2295 10.678 1175.5166 10.6674 C1175.1155 10.667 1175.1155 10.667 1173.0856 10.6654 C1168.9953 10.6619 1164.905 10.6584 1160.8146 10.6549 C1131.1893 10.6296 1101.564 10.6139 1071.9387 10.6033 C1042.5946 10.5928 1013.2504 10.5782 983.9063 10.5581 C982.9954 10.5574 982.0845 10.5568 981.1461 10.5562 C972.8268 10.5505 964.5076 10.5447 956.1884 10.5389 C935.5065 10.5245 914.8246 10.5106 894.1427 10.4973 C893.2009 10.4967 892.259 10.496 891.2886 10.4954 C845.4571 10.4658 799.6257 10.4435 753.7942 10.4219 C737.887 10.4144 721.9798 10.4068 706.0726 10.3991 C705.5794 10.3989 705.5794 10.3989 703.0831 10.3977 C657.2324 10.3755 611.3816 10.348 565.5309 10.3193 C562.5547 10.3174 559.5785 10.3155 556.6024 10.3137 C536.8793 10.3013 517.1562 10.2888 497.4331 10.2763 C458.1882 10.2514 418.9432 10.227 379.6982 10.203 C377.8292 10.2019 375.9602 10.2008 374.0912 10.1996 C289.9386 10.1481 205.7861 10.1027 121.6335 10.0601 C120.8455 10.0597 120.0574 10.0593 119.2454 10.0588 C79.8303 10.0389 40.4151 10.0192 1 10 C1 10.66 1 11.32 1 12 C0.5359 12.1959 0.5359 12.1959 -1.8125 13.1875 C-5.3753 15.2134 -6.2533 16.3662 -8 20 C-8.4324 22.9543 -8.4324 22.9543 -8.5117 26.1758 C-8.5472 27.3327 -8.5826 28.4896 -8.6191 29.6816 C-8.6304 30.2807 -8.6304 30.2807 -8.6875 33.3125 C-8.7217 34.53 -8.7558 35.7475 -8.791 37.002 C-8.8733 40.0012 -8.9425 43.0002 -9 46 C-12.3 46 -15.6 46 -19 46 C-19.0875 41.4793 -19.1406 36.9588 -19.1875 32.4375 C-19.2126 31.1607 -19.2378 29.8839 -19.2637 28.5684 C-19.3303 20.0195 -19.0892 13.5968 -12.875 7.1875 C-9.0399 3.5249 -5.1754 2.575 0 2 C0 1.34 0 0.68 0 0 Z " fill="#4A453F" transform="translate(141,84)"/>
<path d="M0 0 C102.3 0 204.6 0 310 0 C310 52.8 310 105.6 310 160 C207.7 160 105.4 160 0 160 C0 107.2 0 54.4 0 0 Z M10 10 C10 56.53 10 103.06 10 151 C82.4844 151.0403 82.4844 151.0403 112.6816 151.0488 C119.5942 151.0508 126.5067 151.0528 133.4192 151.0549 C134.2856 151.0552 135.152 151.0555 136.0447 151.0557 C150.0514 151.0601 164.058 151.068 178.0646 151.0772 C192.4282 151.0865 206.7918 151.0921 221.1554 151.0941 C230.0258 151.0955 238.8962 151.0998 247.7667 151.1079 C253.841 151.1132 259.9153 151.1148 265.9896 151.1135 C269.4995 151.1129 273.0094 151.1139 276.5193 151.1192 C280.3156 151.1249 284.1119 151.123 287.9082 151.1203 C289.0298 151.1232 290.1513 151.1261 291.3069 151.1291 C292.3156 151.1271 293.3243 151.1251 294.3635 151.123 C295.2411 151.1234 296.1186 151.1238 297.0227 151.1242 C299 151 299 151 300 150 C300.0986 148.2054 300.1263 146.4068 300.127 144.6095 C300.1284 144.0247 300.1284 144.0247 300.1355 141.0656 C300.1335 139.771 300.1315 138.4764 300.1294 137.1426 C300.1307 135.7746 300.1325 134.4066 300.1347 133.0387 C300.1393 129.3136 300.1375 125.5885 300.1343 121.8634 C300.1318 117.9734 300.1341 114.0835 300.1357 110.1935 C300.1375 103.6597 300.1351 97.126 300.1304 90.5923 C300.1249 83.0277 300.1267 75.4632 300.1322 67.8986 C300.1367 61.4154 300.1374 54.9322 300.1348 48.449 C300.1332 44.5718 300.133 40.6946 300.1363 36.8174 C300.1392 33.1731 300.1372 29.5289 300.1314 25.8846 C300.1294 23.9012 300.1324 21.9178 300.1355 19.9344 C300.1327 18.7649 300.1299 17.5954 300.127 16.3905 C300.1266 15.3677 300.1262 14.3449 300.1258 13.2911 C300 11 300 11 299 10 C297.457 9.9031 295.9096 9.8763 294.3635 9.877 C293.8592 9.876 293.8592 9.876 291.3069 9.8709 C290.1853 9.8738 289.0637 9.8767 287.9082 9.8797 C286.7272 9.8789 285.5462 9.878 284.3294 9.8772 C281.0366 9.8758 277.7438 9.8789 274.451 9.8839 C270.9057 9.8882 267.3603 9.8868 263.815 9.886 C257.6675 9.8855 251.5201 9.8887 245.3726 9.8943 C236.4844 9.9024 227.5961 9.905 218.7078 9.9063 C204.2887 9.9084 189.8696 9.9151 175.4504 9.9246 C161.44 9.9337 147.4296 9.9408 133.4192 9.9451 C132.5474 9.9453 131.6756 9.9456 130.7774 9.9459 C123.9599 9.948 117.1423 9.9499 110.3248 9.9518 C76.8832 9.9613 43.4416 9.9814 10 10 Z " fill="#C7962D" transform="translate(800,124)"/>
<path d="M0 0 C40.2112 -0.011 80.4224 -0.0215 120.6335 -0.0317 C121.027 -0.0318 121.027 -0.0318 123.0179 -0.0323 C207.3094 -0.0537 291.6009 -0.0722 375.8924 -0.0847 C377.7642 -0.085 379.6361 -0.0852 381.5079 -0.0855 C420.7961 -0.0914 460.0843 -0.0968 499.3725 -0.1018 C519.1076 -0.1043 538.8426 -0.1068 558.5777 -0.1095 C561.5547 -0.1099 564.5317 -0.1103 567.5087 -0.1107 C613.3633 -0.1168 659.218 -0.1246 705.0726 -0.1373 C706.0589 -0.1376 707.0452 -0.1379 708.0614 -0.1382 C723.9641 -0.1426 739.8667 -0.1472 755.7693 -0.1517 C801.5605 -0.1649 847.3516 -0.1771 893.1427 -0.1823 C894.0839 -0.1824 895.0251 -0.1825 895.9948 -0.1826 C916.6536 -0.1849 937.3123 -0.1867 957.9711 -0.188 C966.2828 -0.1885 974.5945 -0.1891 982.9063 -0.1898 C983.3611 -0.1898 983.3611 -0.1898 985.6629 -0.19 C1014.9983 -0.1922 1044.3338 -0.2007 1073.6692 -0.2126 C1103.2075 -0.2245 1132.7458 -0.2302 1162.2841 -0.2272 C1166.3616 -0.2268 1170.4391 -0.2265 1174.5166 -0.2262 C1175.3159 -0.2262 1176.1152 -0.2261 1176.9388 -0.226 C1189.6201 -0.2253 1202.3015 -0.2313 1214.9828 -0.24 C1227.438 -0.2485 1239.8933 -0.2499 1252.3485 -0.2437 C1259.0174 -0.2405 1265.6862 -0.2408 1272.355 -0.2498 C1278.412 -0.2578 1284.469 -0.2568 1290.526 -0.2483 C1292.713 -0.2468 1294.9 -0.2488 1297.087 -0.2545 C1300.0405 -0.2616 1302.9937 -0.2566 1305.9472 -0.2484 C1306.8016 -0.2534 1307.6559 -0.2584 1308.5362 -0.2636 C1312.7634 -0.2383 1316.2069 -0.1076 1320 2 C1320.33 2.66 1320.66 3.32 1321 4 C1320.0371 3.8376 1319.0742 3.6751 1318.0821 3.5078 C1313.6103 2.8736 1309.1957 2.8625 1304.686 2.8758 C1303.7625 2.8745 1302.839 2.8732 1301.8875 2.8719 C1298.7818 2.8689 1295.6762 2.8729 1292.5706 2.877 C1290.3164 2.8762 1288.0622 2.875 1285.808 2.8735 C1279.5817 2.8704 1273.3555 2.8736 1267.1292 2.8777 C1261.0646 2.8808 1255 2.8792 1248.9354 2.8777 C1236.3776 2.8747 1223.8199 2.8765 1211.2621 2.8808 C1198.5339 2.8852 1185.8057 2.8874 1173.0775 2.8869 C1172.2741 2.8869 1171.4706 2.8868 1170.6427 2.8868 C1166.5458 2.8866 1162.4489 2.8865 1158.352 2.8863 C1128.6869 2.8848 1099.0219 2.8883 1069.3569 2.8943 C1039.9753 2.9002 1010.5937 2.904 981.2122 2.9051 C980.7561 2.9051 980.7561 2.9051 978.448 2.9052 C970.1167 2.9055 961.7853 2.9058 953.454 2.9061 C932.7425 2.9067 912.031 2.9077 891.3195 2.9089 C890.3764 2.9089 889.4332 2.909 888.4614 2.909 C842.5705 2.9116 796.6797 2.918 750.7888 2.9246 C734.8619 2.9269 718.9351 2.9291 703.0082 2.9313 C702.5143 2.9314 702.5143 2.9314 700.0149 2.9318 C654.1032 2.9381 608.1914 2.9418 562.2797 2.9449 C559.2994 2.9451 556.319 2.9453 553.3387 2.9455 C533.5882 2.9468 513.8377 2.9481 494.0872 2.9493 C454.7879 2.9518 415.4887 2.9545 376.1894 2.9574 C374.3178 2.9576 372.4463 2.9577 370.5747 2.9579 C286.3116 2.9641 202.0485 2.9735 117.7854 2.9841 C117.3909 2.9842 117.3909 2.9842 115.3943 2.9844 C75.9295 2.9894 36.4648 2.9946 -3 3 C-2.01 2.67 -1.02 2.34 0 2 C0 1.34 0 0.68 0 0 Z " fill="#AFADAA" transform="translate(142,94)"/>
<path d="M0 0 C6.3722 2.8546 11.1955 8.5659 14.8125 14.375 C16.1467 19.6228 15.9887 24.6789 15.75 30.0625 C15.09 30.0625 14.43 30.0625 13.75 30.0625 C13.6056 30.8256 13.4612 31.5888 13.3125 32.375 C12.75 35.0625 12.75 35.0625 11.75 38.0625 C11.09 38.0625 10.43 38.0625 9.75 38.0625 C9.5012 38.6568 9.2524 39.251 8.9961 39.8633 C7.5693 42.3813 6.1457 43.5598 3.8125 45.25 C3.1229 45.7592 2.4332 46.2684 1.7227 46.793 C-3.6291 50.2372 -10.1336 49.4762 -16.25 49.0625 C-20.9667 47.9411 -24.7388 45.3672 -28.25 42.0625 C-28.415 41.5675 -28.415 41.5675 -29.25 39.0625 C-30.24 38.4025 -31.23 37.7425 -32.25 37.0625 C-35.22 30.1847 -35.7853 20.9173 -33.5273 13.7773 C-31.4516 9.9536 -28.5181 6.8849 -25.25 4.0625 C-24.7086 3.5946 -24.1672 3.1266 -23.6094 2.6445 C-16.763 -2.4903 -8.0331 -2.3296 0 0 Z " fill="#C99832" transform="translate(964.25,349.9375)"/>
<path d="M0 0 C102.3 0 204.6 0 310 0 C310 52.8 310 105.6 310 160 C207.7 160 105.4 160 0 160 C0 107.2 0 54.4 0 0 Z M1 2 C1 53.81 1 105.62 1 159 C102.31 159 203.62 159 308 159 C308 107.19 308 55.38 308 2 C206.69 2 105.38 2 1 2 Z " fill="#D8B56D" transform="translate(800,124)"/>
<path d="M0 0 C1.9995 -0.0425 4.0004 -0.0408 6 0 C6.33 0.33 6.66 0.66 7 1 C9.8705 1.1016 12.717 1.1367 15.5881 1.1306 C16.047 1.1316 16.047 1.1316 18.3697 1.1366 C21.4924 1.1421 24.6152 1.1403 27.738 1.1387 C29.9903 1.1411 32.2426 1.144 34.495 1.1473 C40.744 1.1551 46.993 1.1566 53.242 1.1572 C59.3203 1.1587 65.3985 1.165 71.4768 1.1711 C84.0694 1.1836 96.6621 1.1914 109.2547 1.1966 C122.0242 1.2019 134.7936 1.2094 147.563 1.2195 C147.9656 1.2198 147.9656 1.2198 150.0029 1.2214 C154.108 1.2247 158.2131 1.228 162.3183 1.2313 C192.067 1.2553 221.8156 1.2744 251.5643 1.2909 C281.0346 1.3073 310.5049 1.3258 339.9751 1.3471 C340.4324 1.3474 340.4324 1.3474 342.7462 1.3491 C351.0983 1.3551 359.4503 1.3611 367.8023 1.3672 C388.5665 1.3823 409.3307 1.397 430.095 1.4116 C431.0407 1.4123 431.9863 1.4129 432.9606 1.4136 C478.9872 1.4459 525.0137 1.4744 571.0403 1.5027 C587.017 1.5125 602.9938 1.5223 618.9705 1.5322 C619.9614 1.5328 620.9522 1.5335 621.9731 1.5341 C668.0157 1.5626 714.0584 1.5938 760.101 1.6256 C763.0893 1.6277 766.0776 1.6297 769.0659 1.6318 C788.8691 1.6455 808.6723 1.6592 828.4755 1.673 C867.8806 1.7004 907.2858 1.7275 946.6909 1.7544 C948.5675 1.7557 950.4442 1.757 952.3209 1.7583 C1036.8286 1.816 1121.3363 1.8707 1205.844 1.9241 C1206.6355 1.9246 1207.4269 1.9251 1208.2424 1.9256 C1247.8283 1.9506 1287.4141 1.9754 1327 2 C1327 2.33 1327 2.66 1327 3 C1286.5387 3.011 1246.0775 3.0215 1205.6162 3.0317 C1205.2203 3.0318 1205.2203 3.0318 1203.217 3.0323 C1118.4038 3.0537 1033.5905 3.0722 948.7772 3.0847 C946.8938 3.085 945.0104 3.0852 943.1271 3.0855 C903.5971 3.0914 864.0671 3.0968 824.5371 3.1018 C804.6806 3.1043 784.8242 3.1068 764.9677 3.1095 C761.9724 3.1099 758.9771 3.1103 755.9818 3.1107 C709.8436 3.1168 663.7054 3.1246 617.5672 3.1373 C616.5748 3.1376 615.5823 3.1379 614.5598 3.1382 C598.5581 3.1426 582.5564 3.1472 566.5547 3.1517 C520.4797 3.1649 474.4047 3.1771 428.3298 3.1823 C427.3828 3.1824 426.4358 3.1825 425.4602 3.1826 C404.6748 3.1849 383.8895 3.1867 363.1041 3.188 C354.7415 3.1885 346.3789 3.1891 338.0163 3.1898 C337.5587 3.1898 337.5587 3.1898 335.2428 3.19 C305.725 3.1922 276.2072 3.2007 246.6895 3.2126 C216.9689 3.2245 187.2484 3.2302 157.5278 3.2272 C153.4257 3.2268 149.3236 3.2265 145.2215 3.2262 C144.4174 3.2262 143.6132 3.2261 142.7847 3.226 C130.0238 3.2253 117.2629 3.2313 104.502 3.24 C91.9704 3.2485 79.4387 3.2499 66.9071 3.2437 C60.1966 3.2405 53.4862 3.2408 46.7758 3.2498 C40.6821 3.2578 34.5886 3.2568 28.495 3.2483 C26.2936 3.2468 24.0922 3.2488 21.8909 3.2545 C18.9204 3.2616 15.9503 3.2566 12.9799 3.2484 C12.1178 3.2534 11.2556 3.2584 10.3673 3.2636 C6.3245 3.2395 3.517 2.9769 0 1 C0 0.67 0 0.34 0 0 Z " fill="#605C57" transform="translate(134,321)"/>
<path d="M0 0 C5.8967 3.4201 8.7715 6.9373 10.6055 13.4258 C11.7481 18.6751 12.3124 22.5574 9.7305 27.4609 C6.7145 31.9421 3.73 35.8874 -0.875 38.8125 C-4.4688 39.3086 -4.4688 39.3086 -8.375 39.25 C-9.6641 39.2487 -10.9531 39.2474 -12.2812 39.2461 C-17.568 38.6082 -19.977 36.7732 -23.5625 32.9375 C-27.432 27.7084 -28.1213 23.9921 -28 17.5 C-27.982 16.2457 -27.9639 14.9915 -27.9453 13.6992 C-27.9337 13.2229 -27.9337 13.2229 -27.875 10.8125 C-27.215 10.8125 -26.555 10.8125 -25.875 10.8125 C-25.875 9.4925 -25.875 8.1725 -25.875 6.8125 C-25.215 6.8125 -24.555 6.8125 -23.875 6.8125 C-23.875 6.1525 -23.875 5.4925 -23.875 4.8125 C-23.215 4.8125 -22.555 4.8125 -21.875 4.8125 C-21.875 4.1525 -21.875 3.4925 -21.875 2.8125 C-15.1723 -1.9539 -7.835 -2.9766 0 0 Z " fill="#A6A093" transform="translate(633.875,355.1875)"/>
<path d="M0 0 C1.6722 0.9758 3.2726 2.072 4.8633 3.1758 C5.54 3.48 6.2168 3.7842 6.9141 4.0977 C10.5211 6.0927 11.6616 9.3654 12.8633 13.1758 C14.0782 20.0537 13.3514 25.1926 9.8008 31.2383 C6.6362 35.6219 4.3015 37.9975 -1.1367 39.1758 C-4.82 39.3751 -8.4534 39.3556 -12.1367 39.1758 C-12.1367 38.5158 -12.1367 37.8558 -12.1367 37.1758 C-12.4873 37.1448 -12.4873 37.1448 -14.2617 36.9883 C-18.7704 35.7141 -21.9734 32.9737 -24.5117 29.0508 C-25.1367 27.1758 -25.1367 27.1758 -25.1367 24.1758 C-25.7967 24.1758 -26.4567 24.1758 -27.1367 24.1758 C-27.7585 14.4691 -27.7585 14.4691 -25.5742 9.9258 C-18.4346 1.8708 -11.5589 -4.4587 0 0 Z " fill="#A6A093" transform="translate(1111.13671875,354.82421875)"/>
<path d="M0 0 C5.1162 5.6954 7.1803 9.7384 7.1875 17.375 C7.1997 18.0479 7.212 18.7208 7.2246 19.4141 C7.241 24.9552 6.3449 27.5097 2.6875 31.5625 C-2.165 35.9636 -5.3806 37.4178 -12 37.375 C-12.5981 37.3789 -12.5981 37.3789 -15.625 37.3984 C-20.7279 36.796 -23.1703 34.889 -26.625 31.1875 C-31.6591 24.4313 -32.9097 19.3489 -32 11 C-30.3374 6.2746 -27.8732 3.169 -24 0 C-17.073 -2.9093 -6.7387 -3.7611 0 0 Z " fill="#A6A093" transform="translate(787,357)"/>
<path d="M0 0 C0.66 0 1.32 0 2 0 C2 44.55 2 89.1 2 135 C95.72 135 189.44 135 286 135 C286 135.66 286 136.32 286 137 C191.62 137 97.24 137 0 137 C0 91.79 0 46.58 0 0 Z " fill="#F9ECCE" transform="translate(811,136)"/>
<path d="M0 0 C2.5958 1.2979 2.6792 2.1314 3.6037 4.8498 C5.9368 13.1749 5.3925 21.8335 5.3406 30.4028 C5.3397 32.3649 5.3402 34.3269 5.3419 36.289 C5.3428 41.592 5.3252 46.8948 5.3042 52.1978 C5.2854 57.7485 5.2837 63.2991 5.2801 68.8498 C5.2708 79.3504 5.2462 89.8508 5.2161 100.3513 C5.1825 112.3102 5.166 124.2691 5.151 136.228 C5.1196 160.8187 5.0669 185.4094 5 210 C4.34 210 3.68 210 3 210 C2.9967 208.9645 2.9934 207.929 2.99 206.8621 C2.909 181.6741 2.8167 156.4862 2.7125 131.2983 C2.6623 119.1177 2.6159 106.937 2.5781 94.7563 C2.5452 84.1406 2.5054 73.5249 2.4572 62.9092 C2.4319 57.2874 2.4102 51.6657 2.3967 46.044 C2.3838 40.7532 2.3618 35.4625 2.3326 30.1717 C2.3235 28.2295 2.3179 26.2873 2.3158 24.3451 C2.3125 21.6933 2.297 19.0419 2.2785 16.3902 C2.2804 15.6217 2.2823 14.8532 2.2843 14.0615 C2.2383 9.6518 1.5549 6.1153 0 2 C0 1.34 0 0.68 0 0 Z " fill="#7F7C77" transform="translate(1474,96)"/>
<path d="M0 0 C0.5981 0.3094 1.1963 0.6187 1.8125 0.9375 C5.2676 2.6157 7.9426 3.1255 11.7353 3.1286 C12.7152 3.1319 13.695 3.1351 14.7046 3.1384 C15.7838 3.1369 16.8629 3.1353 17.9748 3.1337 C18.547 3.1348 18.547 3.1348 21.4426 3.1406 C24.6243 3.1458 27.8059 3.1466 30.9875 3.1454 C34.4171 3.1452 37.8467 3.1507 41.2762 3.1554 C47.9982 3.1638 54.7202 3.1665 61.4422 3.1671 C66.9069 3.1675 72.3716 3.1696 77.8363 3.1728 C93.3279 3.1816 108.8195 3.1862 124.3111 3.1854 C124.7288 3.1854 124.7288 3.1854 126.843 3.1853 C127.6796 3.1853 128.5162 3.1852 129.3781 3.1852 C142.9296 3.1848 156.481 3.1943 170.0325 3.2084 C183.9454 3.2228 197.8582 3.2297 211.771 3.2288 C219.5826 3.2285 227.3942 3.2313 235.2058 3.242 C241.8586 3.2511 248.5114 3.2533 255.1642 3.2465 C258.5576 3.2433 261.9509 3.2443 265.3442 3.2519 C269.0263 3.2596 272.7082 3.255 276.3903 3.2472 C276.9243 3.2498 276.9243 3.2498 279.6267 3.2628 C285.4367 3.2359 290.4293 2.675 296 1 C292.2487 4.9219 292.2487 4.9219 288.9235 5.13 C288.4909 5.1311 288.4909 5.1311 286.3013 5.137 C285.8027 5.1396 285.8027 5.1396 283.2796 5.1524 C282.7278 5.1526 282.7278 5.1526 279.9355 5.1539 C279.3524 5.1561 279.3524 5.1561 276.4019 5.1672 C273.1552 5.1783 269.9086 5.1848 266.6619 5.1894 C263.1642 5.1953 259.6665 5.2069 256.1687 5.2177 C247.7171 5.2422 239.2655 5.2568 230.8139 5.2697 C228.4278 5.2734 226.0416 5.2774 223.6555 5.2815 C208.8455 5.3067 194.0355 5.3288 179.2255 5.3412 C175.7941 5.3441 172.3628 5.3471 168.9314 5.3501 C168.0785 5.3508 167.2256 5.3516 166.3469 5.3524 C152.5249 5.365 138.7031 5.3982 124.8811 5.4399 C110.6983 5.4823 96.5155 5.5059 82.3325 5.5111 C74.3661 5.5145 66.3999 5.5263 58.4336 5.5592 C51.6503 5.5872 44.8672 5.5982 38.0839 5.587 C34.6219 5.5818 31.1604 5.5848 27.6985 5.6095 C23.9471 5.632 20.1969 5.624 16.4455 5.608 C15.3486 5.6219 14.2517 5.6358 13.1216 5.6501 C4.9262 5.5639 4.9262 5.5639 1.7847 2.462 C1.1957 1.6495 0.6068 0.8371 0 0 Z " fill="#E8E4DD" transform="translate(442,275)"/>
<path d="M0 0 C0.165 0.33 0.165 0.33 1 2 C-1.31 1.67 -3.62 1.34 -6 1 C-6 0.34 -6 -0.32 -6 -1 C-21.4495 -0.3786 -21.4495 -0.3786 -27 3 C-28.3858 4.6233 -29.7264 6.2872 -31 8 C-33.25 9.3125 -33.25 9.3125 -35 10 C-32.7919 4.5802 -28.3262 0.4779 -23.2148 -2.2734 C-15.5378 -4.7918 -7.088 -3.544 0 0 Z " fill="#DBBA77" transform="translate(968,352)"/>
</svg>
