<?xml version="1.0" encoding="UTF-8"?>
<!-- Generator: visioncortex VTracer 0.6.12 -->
<svg version="1.1" xmlns="http://www.w3.org/2000/svg" width="1600" height="474">
<path d="M0 0 C528 0 1056 0 1600 0 C1600 156.42 1600 312.84 1600 474 C1072 474 544 474 0 474 C0 317.58 0 161.16 0 0 Z " fill="#FEFEFE" transform="translate(0,0)"/>
<path d="M0 0 C528 0 1056 0 1600 0 C1600 156.42 1600 312.84 1600 474 C1072 474 544 474 0 474 C0 317.58 0 161.16 0 0 Z M300 55 C297.7099 58.4352 297.8216 59.9853 298 64 C297.34 64 296.68 64 296 64 C295.9542 107.543 295.919 151.0859 295.8979 194.6289 C295.8954 199.7696 295.8928 204.9103 295.8901 210.051 C295.8896 211.0744 295.8891 212.0979 295.8885 213.1523 C295.8798 229.7232 295.8641 246.294 295.8457 262.8649 C295.827 279.8682 295.8159 296.8716 295.8118 313.8749 C295.8091 324.3668 295.8004 334.8586 295.7842 345.3505 C295.7736 352.5452 295.7704 359.74 295.773 366.9347 C295.7743 371.0856 295.7723 375.2365 295.7616 379.3874 C295.7518 383.1905 295.7514 386.9935 295.7582 390.7967 C295.7594 392.8181 295.7508 394.8395 295.7418 396.8609 C295.7719 406.0149 295.8506 414.6549 302 422 C307.1579 426 307.1579 426 311 426 C311 426.66 311 427.32 311 428 C314.9969 428.9483 318.7166 429.1259 322.8198 429.1277 C323.4975 429.1293 324.1752 429.131 324.8735 429.1327 C327.1535 429.137 329.4333 429.1342 331.7133 429.1314 C333.3679 429.1331 335.0224 429.1352 336.677 429.1376 C341.2477 429.1432 345.8184 429.1425 350.3891 429.1409 C355.3526 429.1401 360.3161 429.1452 365.2796 429.1494 C375.1348 429.157 384.9899 429.1592 394.8451 429.1598 C406.6449 429.1607 418.4447 429.1674 430.2445 429.1741 C458.0876 429.1898 485.9306 429.1959 513.7737 429.2005 C527.9361 429.2029 542.0985 429.2066 556.2609 429.2106 C601.6783 429.2232 647.0956 429.234 692.513 429.2374 C694.6839 429.2376 696.8547 429.2377 699.0256 429.2379 C703.3794 429.2382 707.7331 429.2386 712.0869 429.2389 C717.1842 429.2393 722.2815 429.2397 727.3788 429.2401 C728.8377 429.2402 730.2966 429.2403 731.7555 429.2404 C778.6237 429.244 825.4918 429.259 872.36 429.2823 C906.0358 429.2991 939.7116 429.3146 973.3875 429.3191 C974.0798 429.3192 974.7721 429.3193 975.4854 429.3194 C990.6821 429.3214 1005.8789 429.3225 1021.0756 429.3229 C1026.5131 429.323 1031.9505 429.3232 1037.388 429.3235 C1038.7407 429.3235 1040.0934 429.3236 1041.4462 429.3237 C1063.014 429.3246 1084.5818 429.3345 1106.1497 429.3491 C1128.4716 429.3641 1150.7935 429.3683 1173.1154 429.36 C1185.9915 429.3555 1198.8674 429.3595 1211.7435 429.3753 C1220.335 429.385 1228.9266 429.3839 1237.5181 429.3738 C1242.4194 429.3684 1247.3206 429.3678 1252.2219 429.3803 C1256.6775 429.3916 1261.1328 429.3892 1265.5883 429.3757 C1267.1933 429.3732 1268.7983 429.3758 1270.4033 429.3841 C1272.579 429.3945 1274.7539 429.3864 1276.9295 429.3737 C1277.5324 429.3739 1277.5324 429.3739 1280.5832 429.3745 C1284.6554 428.9282 1287.3143 427.7633 1291 426 C1292.6642 425.3272 1294.3299 424.6579 1296 424 C1296 423.34 1296 422.68 1296 422 C1296.66 422 1297.32 422 1298 422 C1301.3117 417.9091 1302.5013 415.2637 1302 410 C1302.66 410 1303.32 410 1304 410 C1304 328.82 1304 247.64 1304 164 C1319.18 164 1334.36 164 1350 164 C1364.6189 159.5019 1364.6189 159.5019 1368.9375 156.5 C1369.379 156.1984 1369.379 156.1984 1371.6133 154.6719 C1372.0071 154.396 1372.0071 154.396 1374 153 C1375.2069 152.2477 1376.415 151.4973 1377.625 150.75 C1380 149 1380 149 1381 146 C1381.3919 145.6287 1381.3919 145.6287 1383.375 143.75 C1386.3323 140.6519 1387.4665 137.9731 1389 134 C1389.5156 133.1905 1390.0312 132.3809 1390.5625 131.5469 C1392.6936 126.2885 1392.4342 121.3056 1392.375 115.6875 C1392.3866 114.5976 1392.3982 113.5077 1392.4102 112.3848 C1392.3572 97.7097 1386.7235 88.161 1376.4578 77.8953 C1366.2477 68.2613 1354.2659 65.666 1340.7188 65.8047 C1339.6647 65.8075 1338.6106 65.8103 1337.5245 65.8133 C1334.1829 65.8244 1330.8415 65.8495 1327.5 65.875 C1325.224 65.885 1322.9479 65.8942 1320.6719 65.9023 C1315.1145 65.9243 1309.5573 65.9577 1304 66 C1303.8523 65.0591 1303.7046 64.1181 1303.5525 63.1487 C1302.7208 58.4089 1301.0431 54.7385 1298 51 C1291.4092 46.4888 1285.2057 44.8754 1277.3184 44.8735 C1276.9809 44.8727 1276.9809 44.8727 1275.2731 44.8689 C1272.9967 44.865 1270.7202 44.8682 1268.4438 44.8714 C1266.7941 44.87 1265.1444 44.8682 1263.4947 44.8661 C1258.9329 44.8613 1254.3711 44.8628 1249.8093 44.8653 C1244.8571 44.867 1239.905 44.8628 1234.9528 44.8594 C1226.2639 44.8543 1217.5751 44.8529 1208.8862 44.8539 C1195.9656 44.8554 1183.0451 44.8512 1170.1245 44.846 C1145.7086 44.8363 1121.2928 44.8335 1096.8769 44.8329 C1094.1827 44.8329 1091.4885 44.8328 1088.7944 44.8327 C1088.1258 44.8327 1087.4573 44.8327 1086.7685 44.8327 C1071.9615 44.8323 1057.1544 44.8301 1042.3474 44.8276 C1036.2527 44.8266 1030.1579 44.8256 1024.0632 44.8246 C1023.7265 44.8245 1023.7265 44.8245 1022.0226 44.8242 C983.4263 44.8179 944.83 44.8138 906.2337 44.8142 C904.7889 44.8143 903.344 44.8143 901.8992 44.8143 C895.3758 44.8144 888.8523 44.8145 882.3289 44.8145 C879.4198 44.8146 876.5108 44.8146 873.6018 44.8147 C872.1457 44.8147 870.6897 44.8147 869.2337 44.8147 C823.1903 44.8154 777.1469 44.8081 731.1035 44.7942 C719.503 44.7907 707.9026 44.7872 696.3021 44.7839 C695.5878 44.7837 694.8736 44.7835 694.1377 44.7833 C672.1279 44.7771 650.1182 44.7733 628.1084 44.7721 C627.4175 44.772 626.7266 44.772 626.0148 44.7719 C610.8488 44.7711 595.6829 44.7708 580.5169 44.7711 C575.0904 44.7712 569.6639 44.7713 564.2374 44.7713 C562.8874 44.7713 561.5374 44.7713 560.1874 44.7713 C538.6651 44.7715 517.1429 44.7658 495.6206 44.7572 C473.3437 44.7483 451.0668 44.7467 428.7899 44.7535 C415.9408 44.7572 403.0917 44.7553 390.2425 44.7455 C381.6676 44.7396 373.0926 44.7408 364.5177 44.748 C359.6267 44.7519 354.7357 44.7526 349.8447 44.7446 C345.3974 44.7373 340.9501 44.7392 336.5028 44.7485 C334.9019 44.7502 333.301 44.7486 331.7 44.7432 C318.8142 44.7027 309.2156 45.0372 300 55 Z " fill="#FEFEFE" transform="translate(0,0)"/>
<path d="M0 0 C0.3386 -0.0009 0.3386 -0.0009 2.0523 -0.0054 C4.3245 -0.0101 6.5967 -0.0077 8.869 -0.0054 C10.5204 -0.0074 12.1719 -0.0098 13.8233 -0.0125 C18.3806 -0.019 22.9378 -0.0191 27.4952 -0.0183 C32.4459 -0.0184 37.3967 -0.0243 42.3475 -0.0295 C52.1753 -0.0388 62.0031 -0.0428 71.8309 -0.045 C83.5989 -0.048 95.367 -0.0567 107.135 -0.0654 C135.5783 -0.0863 164.0215 -0.0968 192.4648 -0.1056 C201.8831 -0.1085 211.3015 -0.1119 220.7198 -0.1155 C221.052 -0.1157 221.052 -0.1157 222.7333 -0.1163 C225.4215 -0.1174 228.1096 -0.1184 230.7978 -0.1195 C276.7769 -0.1374 322.756 -0.1528 368.7351 -0.1602 C372.3464 -0.1608 375.9576 -0.1614 379.5689 -0.162 C380.2853 -0.1621 381.0016 -0.1622 381.7397 -0.1624 C388.9974 -0.1636 396.2551 -0.1648 403.5128 -0.166 C404.968 -0.1662 406.4232 -0.1665 407.8784 -0.1667 C454.6221 -0.1745 501.3657 -0.1969 548.1094 -0.2294 C581.6972 -0.2527 615.2851 -0.2743 648.8729 -0.2814 C649.5636 -0.2816 650.2542 -0.2817 650.9658 -0.2819 C666.1269 -0.285 681.288 -0.2871 696.4491 -0.2881 C702.5492 -0.2885 708.6493 -0.2891 714.7493 -0.2896 C715.4169 -0.2897 716.0846 -0.2898 716.7724 -0.2898 C738.9471 -0.2919 761.1218 -0.3074 783.2965 -0.3285 C804.8958 -0.3487 826.4951 -0.3542 848.0944 -0.3447 C860.9343 -0.3395 873.774 -0.3454 886.6139 -0.3673 C895.1852 -0.3807 903.7563 -0.3797 912.3276 -0.3669 C917.2149 -0.3599 922.1019 -0.3594 926.9892 -0.3764 C931.4355 -0.3918 935.8814 -0.3887 940.3277 -0.371 C941.926 -0.3679 943.5243 -0.3714 945.1225 -0.3825 C953.8381 -0.439 961.2242 0.0076 969.0723 4.1288 C969.7844 4.4512 970.4966 4.7737 971.2303 5.1059 C973.9826 6.6343 974.8645 8.7576 976.3223 11.5038 C976.8431 12.4603 977.3639 13.4168 977.9004 14.4022 C979.0723 17.1288 979.0723 17.1288 979.0723 21.1288 C979.6537 21.1221 980.235 21.1155 980.834 21.1086 C986.9179 21.0419 993.0016 20.9969 999.0857 20.964 C1001.3524 20.949 1003.619 20.9285 1005.8855 20.9025 C1009.1549 20.8658 1012.4239 20.849 1015.6934 20.8358 C1016.6969 20.8203 1017.7004 20.8049 1018.7343 20.7889 C1025.0727 20.7874 1030.2071 21.7335 1036.0723 24.1288 C1037.101 24.531 1038.1296 24.9332 1039.1895 25.3476 C1051.6725 31.147 1061.3733 41.1878 1066.1973 54.1522 C1067.6272 59.5001 1067.4806 65.0055 1067.5098 70.5038 C1067.5427 71.5892 1067.5755 72.6746 1067.6094 73.7929 C1067.6527 80.3119 1066.899 84.7225 1063.3094 90.2194 C1062.0748 92.125 1061.2622 93.9528 1060.4473 96.0663 C1059.0723 99.1288 1059.0723 99.1288 1056.0723 101.1288 C1055.7423 102.1188 1055.4123 103.1088 1055.0723 104.1288 C1053.1163 105.5259 1051.1064 106.8481 1049.0723 108.1288 C1048.0617 108.9332 1047.051 109.7376 1046.0098 110.5663 C1027.0631 124.2878 999.8369 119.1288 979.0723 119.1288 C979.0723 200.3088 979.0723 281.4888 979.0723 365.1288 C978.4123 365.1288 977.7523 365.1288 977.0723 365.1288 C977.1135 365.5619 977.1135 365.5619 977.3223 367.7538 C977.0136 371.9217 975.6747 373.9141 973.0723 377.1288 C972.4123 377.1288 971.7523 377.1288 971.0723 377.1288 C971.0723 377.7888 971.0723 378.4488 971.0723 379.1288 C966.0918 381.2772 966.0918 381.2772 964.0723 382.1288 C963.3463 382.4712 962.6204 382.8136 961.8725 383.1664 C958.5189 384.319 955.7969 384.3786 952.2502 384.3783 C951.5722 384.381 950.8943 384.3837 950.1957 384.3865 C947.9149 384.393 945.6343 384.3853 943.3534 384.3777 C941.6982 384.3795 940.0431 384.3821 938.3879 384.3856 C933.8155 384.3926 929.2432 384.387 924.6708 384.3795 C919.7055 384.3736 914.7403 384.3792 909.775 384.3834 C901.0647 384.3891 892.3544 384.3873 883.6442 384.3807 C870.6919 384.3709 857.7398 384.3725 844.7875 384.3764 C823.0006 384.3827 801.2137 384.3795 779.4268 384.3708 C757.8447 384.3622 736.2626 384.3573 714.6804 384.3575 C713.326 384.3575 711.9715 384.3575 710.617 384.3575 C705.1743 384.3576 699.7315 384.3576 694.2887 384.3577 C679.0732 384.358 663.8576 384.3576 648.642 384.3567 C647.9491 384.3567 647.2562 384.3567 646.5423 384.3566 C624.4569 384.3553 602.3715 384.3511 580.2861 384.3449 C579.9279 384.3448 579.9279 384.3448 578.1149 384.3443 C566.4788 384.341 554.8427 384.3375 543.2066 384.334 C497.0541 384.3201 450.9016 384.3134 404.7491 384.3141 C403.2903 384.3141 401.8315 384.3141 400.3728 384.3142 C397.4587 384.3142 394.5447 384.3142 391.6306 384.3143 C385.097 384.3144 378.5633 384.3145 372.0297 384.3145 C370.5826 384.3145 369.1356 384.3146 367.6885 384.3146 C329.0468 384.315 290.405 384.3106 251.7633 384.3042 C251.0888 384.3041 250.4144 384.304 249.7195 384.3039 C237.423 384.3019 237.423 384.3019 231.4102 384.3009 C216.5674 384.2984 201.7247 384.2964 186.882 384.2961 C186.2127 384.296 185.5434 384.296 184.8538 384.296 C182.1563 384.2959 179.4588 384.2959 176.7613 384.2958 C151.7508 384.2952 126.7403 384.2915 101.7299 384.2813 C88.849 384.2762 75.9681 384.2738 63.0872 384.2753 C54.495 384.2761 45.9027 384.2732 37.3105 384.2673 C32.4072 384.264 27.5039 384.2624 22.6006 384.265 C18.1456 384.2674 13.6907 384.2653 9.2357 384.2594 C7.6287 384.2581 6.0216 384.2585 4.4145 384.2607 C2.2411 384.2635 0.0678 384.2602 -2.1056 384.2553 C-2.7086 384.2552 -2.7086 384.2552 -5.7602 384.2544 C-8.6077 384.1415 -11.1612 383.7853 -13.9277 383.1288 C-13.9277 382.4688 -13.9277 381.8088 -13.9277 381.1288 C-14.4846 381.0257 -15.0415 380.9226 -15.6152 380.8163 C-19.7818 379.5776 -22.3248 377.8522 -25.1152 374.5038 C-29.6008 366.1513 -29.2094 357.2667 -29.1682 348.0249 C-29.1691 346.6023 -29.1708 345.1798 -29.1734 343.7572 C-29.1778 339.8667 -29.1699 335.9764 -29.1598 332.086 C-29.1512 327.8836 -29.1541 323.6813 -29.1556 319.479 C-29.1567 312.2043 -29.1504 304.9297 -29.1392 297.655 C-29.1229 287.1372 -29.1177 276.6194 -29.1152 266.1015 C-29.1108 249.0358 -29.0975 231.9701 -29.0786 214.9044 C-29.0602 198.3296 -29.0461 181.7547 -29.0376 165.1798 C-29.0373 164.6687 -29.0373 164.6687 -29.036 162.0823 C-29.0334 156.9542 -29.0308 151.8261 -29.0284 146.698 C-29.0076 104.1749 -28.9724 61.6519 -28.9277 19.1288 C-28.2677 19.1288 -27.6077 19.1288 -26.9277 19.1288 C-27.0102 18.2626 -27.0927 17.3963 -27.1777 16.5038 C-26.7888 11.2536 -24.2775 8.3748 -20.4902 4.8788 C-14.1267 0.533 -7.5599 0.0046 0 0 Z M-17.9277 17.1288 C-19.2529 19.7792 -19.0593 21.7736 -19.0675 24.7433 C-19.0732 25.9448 -19.0789 27.1462 -19.0848 28.3841 C-19.0861 29.7293 -19.0872 31.0745 -19.0883 32.4197 C-19.0931 33.8395 -19.0982 35.2593 -19.1038 36.6791 C-19.1177 40.5946 -19.1252 44.5101 -19.1317 48.4257 C-19.1381 51.7807 -19.1482 55.1356 -19.1583 58.4906 C-19.1916 69.5461 -19.2131 80.6015 -19.2315 91.6569 C-19.2363 94.5348 -19.2413 97.4127 -19.2463 100.2905 C-19.2773 118.1529 -19.304 136.0152 -19.3207 153.8776 C-19.3247 158.0168 -19.3287 162.1559 -19.3327 166.2951 C-19.3337 167.3239 -19.3348 168.3527 -19.3358 169.4126 C-19.3528 186.0818 -19.3939 202.7508 -19.4448 219.4199 C-19.4965 236.525 -19.5256 253.63 -19.5329 270.7352 C-19.5376 280.3426 -19.5524 289.9498 -19.5927 299.5572 C-19.6269 307.7389 -19.6409 315.9202 -19.6282 324.1019 C-19.6224 328.2771 -19.6263 332.4517 -19.6564 336.6268 C-19.6837 340.4497 -19.6833 344.2717 -19.6609 348.0947 C-19.6577 349.477 -19.6646 350.8594 -19.6827 352.2416 C-19.8351 364.621 -19.8351 364.621 -14.8982 369.8918 C-9.9817 372.9782 -4.5279 373.3787 1.1421 373.3772 C1.8226 373.3798 2.503 373.3823 3.2041 373.3849 C5.4814 373.3911 7.7584 373.383 10.0356 373.3749 C11.6929 373.3764 13.3502 373.3787 15.0075 373.3819 C19.5765 373.388 24.1454 373.3817 28.7144 373.3733 C33.6794 373.3665 38.6443 373.3712 43.6093 373.3745 C52.3158 373.3786 61.0223 373.3753 69.7288 373.3672 C82.675 373.3552 95.6213 373.3545 108.5676 373.3563 C130.344 373.3589 152.1204 373.3522 173.8969 373.3403 C195.4634 373.3284 217.0299 373.3207 238.5964 373.3186 C238.9313 373.3185 238.9313 373.3185 240.6258 373.3183 C246.7425 373.3177 252.8592 373.3171 258.9759 373.3166 C274.1815 373.3154 289.3871 373.3134 304.5926 373.3111 C305.2851 373.311 305.9775 373.3109 306.6909 373.3108 C340.3764 373.3055 374.0619 373.2929 407.7473 373.2797 C419.4374 373.2751 431.1274 373.2705 442.8174 373.2661 C443.5424 373.2659 444.2674 373.2656 445.0144 373.2653 C478.7167 373.2526 512.4191 373.2452 546.1214 373.2391 C548.3093 373.2387 550.4972 373.2383 552.6851 373.2379 C567.1844 373.2352 581.6838 373.2327 596.1831 373.2302 C625.0333 373.2252 653.8835 373.2198 682.7337 373.2139 C684.1077 373.2136 685.4816 373.2133 686.8555 373.2131 C775.5196 373.1951 864.1836 373.1647 961.0723 373.1288 C961.0723 372.4688 961.0723 371.8088 961.0723 371.1288 C961.6498 370.9019 962.2273 370.6751 962.8223 370.4413 C965.8748 368.6607 967.1885 367.159 969.0723 364.1288 C969.6548 360.8152 969.5948 357.5454 969.5533 354.1884 C969.5567 353.1796 969.5601 352.1708 969.5637 351.1314 C969.5703 347.747 969.5482 344.3634 969.5264 340.9791 C969.5253 338.5548 969.5259 336.1304 969.5282 333.7061 C969.5291 328.4846 969.5177 323.2634 969.4952 318.042 C969.4627 310.4927 969.4523 302.9436 969.4473 295.3943 C969.4385 283.1458 969.4119 270.8975 969.3741 258.6491 C969.3373 246.7516 969.309 234.8542 969.292 222.9567 C969.291 222.2232 969.2899 221.4897 969.2888 220.734 C969.2836 217.0543 969.2786 213.3745 969.2736 209.6948 C969.2321 179.1727 969.1614 148.6508 969.0723 118.1288 C968.5664 118.1236 968.5664 118.1236 966.0064 118.0976 C956.4577 117.9997 946.9091 117.8969 937.3606 117.7895 C932.4519 117.7344 927.5433 117.681 922.6346 117.6315 C917.8948 117.5836 913.1551 117.5313 908.4154 117.4759 C906.6097 117.4555 904.8041 117.4368 902.9985 117.4197 C900.4637 117.3955 897.929 117.3655 895.3943 117.3341 C894.6527 117.3284 893.9111 117.3226 893.1471 117.3167 C880.2085 117.1356 869.7498 113.6765 860.4551 104.539 C849.5836 92.569 846.4199 80.8596 847.003 65.0775 C847.0608 63.4508 847.0827 61.8229 847.0957 60.1952 C847.5725 48.7334 855.1469 39.7962 863.0723 32.1288 C866.1348 29.7538 866.1348 29.7538 869.0723 28.1288 C869.6872 27.7833 870.3021 27.4379 870.9356 27.0819 C878.2383 23.1682 885.3105 21.8339 893.5078 21.81 C894.3088 21.7999 895.1098 21.7899 895.935 21.7795 C898.5537 21.7489 901.1722 21.7317 903.791 21.7147 C905.6181 21.696 907.4451 21.6764 909.2721 21.6561 C914.0593 21.6049 918.8464 21.5652 923.6337 21.5279 C928.5274 21.4878 933.4209 21.4367 938.3145 21.3866 C947.9003 21.2901 957.4863 21.2056 967.0723 21.1288 C967.1895 18.7421 967.1895 18.7421 967.0723 16.1288 C965.0281 14.1527 963.9546 13.1288 961.0723 13.1288 C961.0723 12.4688 961.0723 11.8088 961.0723 11.1288 C958.2239 9.7046 955.8232 10.0031 952.6368 10.0023 C951.9642 10.0008 951.2915 9.9992 950.5985 9.9977 C948.3178 9.9937 946.0372 9.997 943.7566 10.0002 C942.1086 9.9988 940.4607 9.997 938.8127 9.9949 C934.2464 9.9901 929.68 9.9916 925.1137 9.9941 C920.1601 9.9958 915.2066 9.9916 910.253 9.9882 C901.5587 9.9831 892.8643 9.9817 884.17 9.9827 C871.2413 9.9842 858.3127 9.9801 845.3841 9.9748 C820.9536 9.9651 796.5232 9.9623 772.0927 9.9617 C769.3964 9.9617 766.7 9.9616 764.0036 9.9615 C763.3345 9.9615 762.6654 9.9615 761.9761 9.9615 C747.1615 9.9611 732.3468 9.9589 717.5322 9.9564 C711.4356 9.9554 705.3389 9.9544 699.2423 9.9534 C698.5687 9.9533 697.8951 9.9532 697.2011 9.953 C658.5896 9.9467 619.9781 9.9426 581.3666 9.943 C579.921 9.9431 578.4754 9.9431 577.0298 9.9431 C570.5027 9.9432 563.9756 9.9433 557.4485 9.9433 C554.5378 9.9434 551.627 9.9434 548.7163 9.9435 C547.2595 9.9435 545.8026 9.9435 544.3457 9.9435 C498.2754 9.9442 452.2051 9.9369 406.1348 9.923 C394.5278 9.9195 382.9208 9.916 371.3137 9.9127 C370.9564 9.9126 370.9564 9.9126 369.1481 9.9121 C347.1287 9.9059 325.1092 9.9021 303.0897 9.9009 C302.3986 9.9008 301.7075 9.9008 300.9954 9.9007 C285.8246 9.8999 270.6538 9.8996 255.483 9.8999 C250.0548 9.9 244.6266 9.9001 239.1985 9.9001 C237.848 9.9001 236.4976 9.9001 235.1471 9.9001 C213.6117 9.9003 192.0763 9.8946 170.5409 9.886 C148.252 9.8771 125.9631 9.8755 103.6743 9.8823 C90.8158 9.886 77.9574 9.8841 65.0989 9.8743 C56.5203 9.8684 47.9416 9.8696 39.363 9.8768 C34.4681 9.8807 29.5734 9.8814 24.6786 9.8734 C20.2301 9.8661 15.7818 9.868 11.3333 9.8773 C9.7297 9.879 8.1261 9.8773 6.5226 9.872 C4.3513 9.8652 2.1804 9.8707 0.0092 9.8793 C-1.1948 9.8792 -2.3989 9.8791 -3.6394 9.879 C-10.1252 10.3717 -13.6563 12.2472 -17.9277 17.1288 Z " fill="#48433C" transform="translate(324.9277045726776,44.87119883298874)"/>
<path d="M0 0 C1.1571 -0.0033 2.3142 -0.0065 3.5064 -0.0099 C4.7912 -0.0084 6.076 -0.0069 7.3998 -0.0054 C8.7735 -0.0074 10.1472 -0.0098 11.5208 -0.0125 C15.3257 -0.019 19.1304 -0.0191 22.9353 -0.0183 C27.0633 -0.0184 31.1913 -0.0243 35.3193 -0.0295 C43.5202 -0.0389 51.721 -0.0428 59.9219 -0.045 C69.7392 -0.048 79.5565 -0.0567 89.3738 -0.0654 C113.1048 -0.0863 136.8357 -0.0968 160.5667 -0.1056 C171.7864 -0.1098 183.0061 -0.115 194.2258 -0.1203 C232.6098 -0.1381 270.9938 -0.1531 309.3778 -0.1606 C311.7885 -0.1611 314.1992 -0.1615 316.6099 -0.162 C317.8054 -0.1622 319.0009 -0.1625 320.2327 -0.1627 C326.2901 -0.1639 332.3476 -0.1651 338.405 -0.1664 C339.0061 -0.1665 339.0061 -0.1665 342.0478 -0.1671 C381.0435 -0.175 420.0391 -0.1984 459.0347 -0.2309 C500.2348 -0.2652 541.4349 -0.2849 582.635 -0.2882 C587.1542 -0.2886 591.6734 -0.2891 596.1926 -0.2896 C597.3055 -0.2898 598.4183 -0.2899 599.5648 -0.29 C617.5039 -0.2924 635.443 -0.308 653.3821 -0.3285 C671.3994 -0.3487 689.4166 -0.3542 707.4339 -0.3447 C718.1486 -0.3395 728.8631 -0.3455 739.5778 -0.3673 C746.7262 -0.3807 753.8745 -0.3797 761.0229 -0.3669 C765.1017 -0.3599 769.1802 -0.3594 773.259 -0.3764 C776.9659 -0.3917 780.6723 -0.3888 784.3792 -0.371 C786.3482 -0.3663 788.3172 -0.3814 790.2861 -0.3972 C791.4508 -0.3879 792.6154 -0.3787 793.8153 -0.3691 C794.8186 -0.3695 795.8219 -0.3699 796.8556 -0.3704 C800.3557 0.2672 802.0442 1.7017 804.5957 4.1288 C806.1851 7.3076 806.0114 9.6245 805.5957 13.1288 C802.8763 16.4591 801.1415 17.8691 796.8728 18.5863 C793.3454 18.7746 789.8501 18.7905 786.3178 18.758 C784.9414 18.7632 783.5651 18.7706 782.1888 18.78 C778.395 18.7995 774.6019 18.7878 770.8082 18.7711 C766.6854 18.7585 762.5626 18.7747 758.4398 18.7874 C751.2103 18.8054 743.9809 18.8049 736.7514 18.7921 C726.0009 18.7732 715.2507 18.7829 704.5003 18.7982 C685.3023 18.8245 666.1044 18.8222 646.9064 18.8078 C630.1061 18.7952 613.3059 18.7919 596.5057 18.7979 C595.3924 18.7983 594.279 18.7986 593.132 18.799 C588.6128 18.8006 584.0937 18.8022 579.5746 18.8038 C537.1605 18.8191 494.7464 18.8053 452.3323 18.7784 C414.6297 18.7546 376.9272 18.7567 339.2246 18.7807 C296.8893 18.8074 254.554 18.8181 212.2187 18.8026 C207.7077 18.801 203.1967 18.7994 198.6856 18.7979 C197.5749 18.7975 196.4641 18.7971 195.3197 18.7967 C178.5278 18.791 161.736 18.7977 144.9442 18.8103 C125.8558 18.8246 106.7675 18.821 87.6791 18.7939 C76.989 18.7792 66.2992 18.7783 55.6091 18.7971 C48.4759 18.8083 41.3429 18.8014 34.2098 18.7796 C30.1406 18.7676 26.0718 18.7637 22.0026 18.7816 C18.3032 18.7977 14.6045 18.791 10.9051 18.7657 C8.9427 18.7583 6.9802 18.7754 5.0178 18.7935 C-4.4694 18.6915 -4.4694 18.6915 -8.199 15.8082 C-10.4043 13.1288 -10.4043 13.1288 -10.9668 9.6288 C-10.3885 6.0303 -9.6046 4.0061 -7.4043 1.1288 C-4.8022 -0.1723 -2.9157 0.0021 0 0 Z " fill="#CFC9BC" transform="translate(377.4043272137642,175.87119883298874)"/>
<path d="M0 0 C1.3775 -0.0049 2.755 -0.012 4.1325 -0.0211 C7.934 -0.0398 11.735 -0.0272 15.5365 -0.0097 C19.6661 0.0038 23.7955 -0.0115 27.925 -0.0233 C35.1679 -0.0398 42.4105 -0.0377 49.6534 -0.0234 C60.4234 -0.0023 71.1933 -0.0097 81.9634 -0.0228 C101.1958 -0.0453 120.428 -0.0393 139.6603 -0.0214 C156.4899 -0.0058 173.3195 0 190.1491 -0.0037 C190.7066 -0.0038 190.7066 -0.0038 193.5281 -0.0044 C198.0543 -0.0054 202.5804 -0.0064 207.1066 -0.0075 C249.5895 -0.0176 292.0723 0.0007 334.5552 0.0322 C372.3247 0.0601 410.0942 0.065 447.8637 0.05 C457.535 0.0462 467.2063 0.0424 476.8776 0.0388 C478.0681 0.0384 479.2587 0.038 480.4853 0.0375 C512.0166 0.0263 543.548 0.0336 575.0794 0.0467 C578.4709 0.0481 581.8623 0.0495 585.2538 0.0508 C587.5037 0.0518 589.7537 0.0527 592.0036 0.0536 C608.8261 0.0604 625.6486 0.0577 642.4711 0.0507 C661.5922 0.0427 680.7132 0.0492 699.8342 0.0748 C710.5446 0.0888 721.255 0.0917 731.9654 0.0789 C739.1097 0.0715 746.2538 0.0785 753.398 0.0975 C757.4751 0.1079 761.552 0.1119 765.6292 0.0985 C769.3334 0.0864 773.0372 0.0926 776.7414 0.1136 C778.7113 0.1201 780.6813 0.1067 782.6512 0.0927 C783.232 0.0979 783.232 0.0979 786.1712 0.1239 C787.174 0.1244 788.1768 0.1249 789.2099 0.1254 C792.5444 0.7645 793.7303 2.0098 795.824 4.6264 C796.4255 6.81 796.4255 6.81 796.449 9.0639 C796.4825 9.8051 796.516 10.5463 796.5505 11.31 C795.6594 14.1512 794.262 15.712 791.9453 17.553 C787.233 19.9375 781.717 19.3015 776.5589 19.2528 C775.1839 19.2577 773.809 19.2648 772.4341 19.2739 C768.6442 19.2926 764.855 19.2801 761.0652 19.2625 C756.9466 19.249 752.8281 19.2644 748.7096 19.2761 C741.4875 19.2926 734.2656 19.2905 727.0436 19.2763 C716.3043 19.2551 705.5652 19.2625 694.826 19.2756 C675.6483 19.2981 656.4706 19.2921 637.2928 19.2742 C620.511 19.2587 603.7291 19.2528 586.9472 19.2566 C585.8351 19.2568 584.723 19.257 583.5772 19.2573 C579.0632 19.2582 574.5491 19.2593 570.035 19.2604 C527.669 19.2704 485.303 19.2522 442.937 19.2206 C405.2747 19.1928 367.6125 19.1878 329.9502 19.2028 C320.3062 19.2067 310.6623 19.2104 301.0183 19.214 C299.8311 19.2144 298.644 19.2149 297.4208 19.2153 C265.9751 19.2266 234.5295 19.2192 203.0838 19.2061 C199.7014 19.2047 196.319 19.2033 192.9366 19.202 C190.6927 19.2011 188.4488 19.2001 186.2049 19.1992 C169.4304 19.1924 152.656 19.1951 135.8815 19.2022 C116.8143 19.2101 97.7472 19.2036 78.68 19.178 C68.0009 19.164 57.3219 19.1611 46.6427 19.1739 C39.5181 19.1814 32.3936 19.1743 25.2691 19.1554 C21.204 19.1449 17.1391 19.1409 13.074 19.1543 C9.3795 19.1664 5.6856 19.1602 1.9911 19.1392 C0.0288 19.1328 -1.9335 19.1461 -3.8957 19.1601 C-5.0565 19.1498 -6.2172 19.1395 -7.4131 19.129 C-8.413 19.1285 -9.4129 19.128 -10.4431 19.1275 C-13.9419 18.486 -15.6413 17.0725 -18.176 14.6264 C-18.8401 12.4428 -18.8401 12.4428 -18.801 10.1889 C-18.8075 9.8183 -18.8075 9.8183 -18.8401 7.9428 C-16.1896 -1.3027 -8.0123 -0.0752 0 0 Z " fill="#D1CBBF" transform="translate(386.1760492324829,235.3735876083374)"/>
<path d="M0 0 C1.1368 3.3148 1.0022 6.4211 0.885 9.8904 C0.6524 17.0605 0.8914 22.6756 4.2227 29.2148 C4.4792 29.8039 4.7357 30.393 5 31 C4.67 31.66 4.34 32.32 4 33 C3.34 32.34 2.68 31.68 2 31 C-0.3542 30.7504 -0.3542 30.7504 -3.3787 30.7509 C-3.9544 30.7486 -3.9544 30.7486 -6.8677 30.7369 C-7.5069 30.7394 -7.5069 30.7394 -10.7416 30.7523 C-12.1085 30.7506 -13.4754 30.748 -14.8422 30.7447 C-18.6281 30.738 -22.4139 30.7438 -26.1998 30.7515 C-30.3073 30.7577 -34.4148 30.7523 -38.5223 30.7483 C-45.7312 30.7429 -52.94 30.7448 -60.1488 30.7515 C-70.8685 30.7614 -81.5881 30.7598 -92.3078 30.7555 C-109.2315 30.7491 -126.1553 30.7496 -143.079 30.7551 C-169.9396 30.7638 -196.8001 30.755 -223.6606 30.7408 C-233.9872 30.7353 -244.3138 30.7305 -254.6404 30.7255 C-255.2141 30.7253 -255.2141 30.7253 -258.1173 30.7239 C-285.445 30.7108 -312.7727 30.7027 -340.1003 30.6965 C-341.2965 30.6963 -342.4926 30.696 -343.725 30.6957 C-371.6367 30.6893 -399.5484 30.6864 -427.4601 30.6903 C-428.6607 30.6905 -429.8613 30.6906 -431.0982 30.6908 C-437.152 30.6917 -443.2058 30.6926 -449.2597 30.6935 C-449.8579 30.6936 -449.8579 30.6936 -452.8852 30.694 C-455.3001 30.6944 -457.715 30.6948 -460.1299 30.6951 C-499.996 30.7012 -539.8621 30.6905 -579.7282 30.6607 C-585.3541 30.6565 -590.9799 30.6525 -596.6057 30.6487 C-597.713 30.6479 -598.8203 30.6472 -599.9611 30.6464 C-617.8109 30.6348 -635.6607 30.6415 -653.5106 30.6553 C-671.4383 30.6688 -689.3659 30.6647 -707.2935 30.6423 C-717.9549 30.6295 -728.6161 30.6309 -739.2774 30.6521 C-746.3903 30.6649 -753.5031 30.6597 -760.6159 30.6397 C-764.6745 30.6288 -768.7326 30.626 -772.7911 30.645 C-776.4797 30.6622 -780.1676 30.6565 -783.8561 30.6324 C-785.8153 30.6255 -787.7744 30.6433 -789.7335 30.6619 C-799.1749 30.5629 -799.1749 30.5629 -802.2887 27.6797 C-804.542 24.1513 -804.5884 22.1185 -804 18 C-801.8 13.4 -801.8 13.4 -799 12 C-797.2136 11.9052 -795.4237 11.8755 -793.6348 11.8758 C-793.0606 11.8747 -793.0606 11.8747 -790.1549 11.869 C-789.5174 11.8703 -789.5174 11.8703 -786.2912 11.877 C-784.928 11.8762 -783.5647 11.875 -782.2015 11.8735 C-778.4256 11.8704 -774.6498 11.8736 -770.874 11.8777 C-766.7774 11.8812 -762.6809 11.8788 -758.5844 11.8772 C-751.3949 11.8751 -744.2055 11.8767 -737.016 11.8808 C-726.3254 11.8868 -715.6349 11.8871 -704.9443 11.8863 C-686.9636 11.8849 -668.9829 11.8883 -651.0022 11.8943 C-633.1911 11.9002 -615.3801 11.904 -597.569 11.9051 C-597.0159 11.9052 -597.0159 11.9052 -594.217 11.9053 C-588.5996 11.9057 -582.9823 11.906 -577.365 11.9063 C-537.5456 11.9084 -497.7261 11.9151 -457.9067 11.9246 C-419.2153 11.9337 -380.5239 11.9408 -341.8325 11.9451 C-340.6405 11.9452 -339.4485 11.9453 -338.2204 11.9455 C-326.2503 11.9468 -314.2801 11.9481 -302.31 11.9493 C-277.9239 11.9518 -253.5379 11.9547 -229.1519 11.9577 C-228.0306 11.9578 -226.9093 11.9579 -225.754 11.9581 C-150.836 11.9673 -75.918 11.9831 -1 12 C-1.0116 11.3013 -1.0232 10.6027 -1.0352 9.8828 C-1.0397 9.4278 -1.0397 9.4278 -1.0625 7.125 C-1.0741 6.2201 -1.0857 5.3152 -1.0977 4.3828 C-1 2 -1 2 0 0 Z " fill="#D0CABD" transform="translate(1171,104)"/>
<path d="M0 0 C1.1619 -0.01 2.3237 -0.02 3.5208 -0.0303 C4.8007 -0.021 6.0805 -0.0116 7.3991 -0.002 C8.7755 -0.0061 10.1518 -0.0121 11.5281 -0.0196 C15.331 -0.0352 19.1335 -0.0258 22.9364 -0.0125 C27.0658 -0.0024 31.195 -0.0154 35.3243 -0.0254 C42.5684 -0.0399 49.8123 -0.0394 57.0563 -0.0293 C67.8282 -0.0142 78.6 -0.0218 89.3719 -0.0341 C108.6072 -0.0552 127.8425 -0.0533 147.0779 -0.0418 C163.9107 -0.0317 180.7435 -0.0291 197.5764 -0.0339 C198.134 -0.034 198.134 -0.034 200.9556 -0.0348 C205.4821 -0.036 210.0085 -0.0373 214.5349 -0.0386 C257.0242 -0.0509 299.5134 -0.0398 342.0028 -0.0182 C379.7789 0.0007 417.5549 -0.001 455.331 -0.0201 C497.741 -0.0415 540.1509 -0.05 582.5609 -0.0376 C587.0792 -0.0364 591.5975 -0.0351 596.1159 -0.0339 C597.2284 -0.0336 598.341 -0.0332 599.4873 -0.0329 C616.3125 -0.0284 633.1376 -0.0337 649.9627 -0.0438 C669.0875 -0.0552 688.2121 -0.0524 707.3369 -0.0307 C718.0495 -0.0189 728.7621 -0.0182 739.4747 -0.0332 C746.6205 -0.0422 753.7661 -0.0367 760.9118 -0.0192 C764.9899 -0.0097 769.0676 -0.0066 773.1457 -0.0209 C776.8507 -0.0337 780.5553 -0.0284 784.2603 -0.0081 C786.2307 -0.0022 788.2011 -0.0159 790.1714 -0.0303 C791.3333 -0.0203 792.4952 -0.0103 793.6923 0 C794.1937 0.0001 794.1937 0.0001 796.7316 0.0008 C800.0679 0.6396 801.2586 1.8765 803.3461 4.5014 C803.8422 6.7553 803.8422 6.7553 803.7836 9.0639 C803.7823 9.8283 803.781 10.5927 803.7797 11.3803 C803.2437 14.0025 802.4433 14.8779 800.3461 16.5014 C797.2344 17.5386 795.0925 17.6278 791.8293 17.6302 C790.6725 17.6335 789.5158 17.6367 788.324 17.6401 C787.6843 17.6394 787.6843 17.6394 784.4474 17.6356 C783.0757 17.6376 781.7039 17.64 780.3322 17.6427 C776.5374 17.6492 772.7427 17.6493 768.9479 17.6485 C764.8291 17.6486 760.7103 17.6545 756.5914 17.6597 C748.411 17.6691 740.2306 17.673 732.0501 17.6752 C722.2565 17.6782 712.4629 17.6869 702.6693 17.6956 C678.9974 17.7165 655.3254 17.727 631.6535 17.7358 C620.4618 17.74 609.2701 17.7452 598.0784 17.7505 C559.7897 17.7683 521.501 17.7833 483.2124 17.7908 C480.808 17.7913 478.4035 17.7917 475.9991 17.7922 C474.8067 17.7924 473.6143 17.7927 472.3857 17.7929 C466.3441 17.7941 460.3025 17.7953 454.2609 17.7966 C453.0619 17.7968 451.8629 17.797 450.6276 17.7973 C411.7287 17.8052 372.8297 17.8286 333.9308 17.8611 C292.8318 17.8954 251.7329 17.9151 210.6339 17.9184 C206.1263 17.9188 201.6186 17.9193 197.111 17.9198 C196.001 17.92 194.891 17.9201 193.7475 17.9202 C175.8519 17.9226 157.9564 17.9382 140.0608 17.9587 C122.0896 17.9789 104.1185 17.9844 86.1472 17.9749 C75.459 17.9697 64.7709 17.9757 54.0827 17.9975 C46.9532 18.0109 39.8239 18.0099 32.6944 17.997 C28.6256 17.9901 24.5571 17.9896 20.4883 18.0066 C16.7917 18.0219 13.0955 18.019 9.3989 18.0012 C7.433 17.9965 5.4671 18.0116 3.5012 18.0274 C2.342 18.0181 1.1827 18.0089 -0.0117 17.9993 C-1.0124 17.9997 -2.0131 18.0001 -3.0442 18.0006 C-6.377 17.3631 -7.5655 16.1203 -9.6539 13.5014 C-10.1851 11.2826 -10.1851 11.2826 -10.1539 9.0014 C-10.1642 8.2486 -10.1745 7.4958 -10.1851 6.7201 C-8.8833 1.2831 -5.1363 0.0014 0 0 Z " fill="#D0CABD" transform="translate(378.653874874115,295.4986033439636)"/>
<path d="M0 0 C0.9832 -0.007 1.9665 -0.0139 2.9795 -0.0211 C6.2945 -0.0384 9.6084 -0.0199 12.9234 -0.0018 C15.3158 -0.0068 17.7082 -0.014 20.1007 -0.0233 C25.3127 -0.0383 30.5245 -0.0377 35.7365 -0.0234 C43.4868 -0.0023 51.237 -0.0097 58.9874 -0.0228 C72.8285 -0.0453 86.6695 -0.0393 100.5106 -0.0214 C112.6237 -0.0058 124.7367 0 136.8498 -0.0037 C137.6526 -0.004 138.4555 -0.0042 139.2827 -0.0044 C142.5416 -0.0054 145.8006 -0.0064 149.0595 -0.0075 C179.6445 -0.0176 210.2294 0.0007 240.8144 0.0322 C267.9972 0.06 295.1799 0.065 322.3627 0.05 C329.3225 0.0462 336.2822 0.0424 343.2419 0.0388 C344.0987 0.0384 344.9554 0.038 345.8382 0.0375 C368.5398 0.0263 391.2415 0.0336 413.9432 0.0467 C416.3855 0.0481 418.8278 0.0495 421.2702 0.0508 C422.8904 0.0518 424.5106 0.0527 426.1309 0.0536 C438.2367 0.0604 450.3424 0.0577 462.4483 0.0507 C476.2117 0.0427 489.9751 0.0492 503.7385 0.0748 C511.4447 0.0888 519.1507 0.0917 526.8569 0.0789 C532.6039 0.0706 538.3507 0.0831 544.0977 0.1039 C546.428 0.1091 548.7584 0.1074 551.0887 0.0985 C554.2465 0.0874 557.4033 0.1006 560.5611 0.1203 C561.0177 0.1157 561.0177 0.1157 563.3287 0.0927 C568.9339 0.161 572.0588 0.9212 576.3434 4.6264 C577.07 6.81 577.07 6.81 576.9684 9.0639 C576.9607 9.8051 576.953 10.5463 576.945 11.31 C576.0638 14.7031 574.9222 16.2141 572.3434 18.6264 C569.1693 19.3842 566.0418 19.2934 562.7915 19.25 C561.8075 19.2567 560.8234 19.2634 559.8095 19.2702 C556.4856 19.2866 553.1629 19.267 549.8391 19.2479 C547.4427 19.2522 545.0463 19.2587 542.6499 19.2672 C537.4261 19.2807 532.2026 19.2786 526.9788 19.2628 C519.211 19.2394 511.4434 19.2446 503.6756 19.2555 C489.8038 19.2741 475.9321 19.2644 462.0604 19.243 C449.9205 19.2245 437.7807 19.2161 425.6409 19.2176 C425.2386 19.2177 425.2386 19.2177 423.2031 19.2179 C419.9377 19.2183 416.6723 19.2187 413.4069 19.2193 C382.7579 19.2241 352.1089 19.2015 321.4599 19.1653 C294.2169 19.1333 266.9739 19.1213 239.7309 19.1274 C237.9818 19.1278 236.2328 19.1282 234.4837 19.1285 C234.0514 19.1286 234.0514 19.1286 231.8634 19.1291 C227.5109 19.1301 223.1584 19.131 218.8058 19.1319 C217.9472 19.132 217.0885 19.1322 216.2039 19.1324 C193.4557 19.1367 170.7075 19.1267 147.9594 19.112 C147.1503 19.1115 146.3413 19.111 145.5078 19.1105 C144.7002 19.1099 143.8926 19.1094 143.0606 19.1089 C142.2545 19.1084 141.4484 19.1078 140.6178 19.1073 C138.9944 19.1063 137.3709 19.1052 135.7474 19.1041 C124.4191 19.0967 113.0907 19.0947 101.7623 19.0961 C87.1643 19.098 72.5663 19.0899 57.9683 19.0645 C50.2441 19.0513 42.5201 19.0463 34.7959 19.0531 C29.0373 19.0573 23.2788 19.0458 17.5202 19.028 C15.1838 19.0233 12.8473 19.0236 10.5109 19.0295 C7.3475 19.0366 4.1846 19.0254 1.0212 19.0095 C0.1034 19.016 -0.8145 19.0224 -1.7601 19.0291 C-6.5312 18.9837 -9.805 18.7764 -13.6566 15.6264 C-15.2355 12.4685 -15.4758 9.0197 -14.6566 5.6264 C-10.3807 -0.1282 -6.6567 -0.0872 0 0 Z " fill="#D1CCBF" transform="translate(381.65655422210693,354.3735876083374)"/>
<path d="M0 0 C15.3255 -0.1405 30.651 -0.2461 45.9771 -0.3109 C53.0942 -0.3417 60.211 -0.3838 67.3279 -0.4526 C73.5353 -0.5127 79.7424 -0.5512 85.9501 -0.5645 C89.2334 -0.5723 92.5156 -0.5936 95.7987 -0.6344 C99.4754 -0.6782 103.1504 -0.6839 106.8274 -0.6812 C107.9006 -0.7027 108.9738 -0.7243 110.0795 -0.7465 C118.0618 -0.6817 123.3492 1.7001 130 6 C130.3083 6.1878 130.3083 6.1878 131.8682 7.1385 C134.9606 9.0825 137.6065 11.2382 140 14 C140 14.66 140 15.32 140 16 C140.66 16 141.32 16 142 16 C148.4361 26.7269 151.2284 38.8797 148.1992 51.2773 C144.1931 62.8552 136.9638 72.3043 126 78 C120.4531 80.4882 115.1978 82.1268 109.1152 82.1203 C108.6244 82.1209 108.6244 82.1209 106.1408 82.1244 C105.0705 82.1208 104.0002 82.1172 102.8975 82.1135 C102.3315 82.1136 102.3315 82.1136 99.4672 82.114 C95.7229 82.1133 91.9786 82.1055 88.2344 82.0977 C85.6393 82.0958 83.0443 82.0944 80.4493 82.0934 C74.3154 82.0899 68.1815 82.0821 62.0475 82.072 C55.0633 82.0608 48.0791 82.0553 41.0948 82.0503 C26.7299 82.0399 12.3649 82.0223 -2 82 C-2 81.34 -2 80.68 -2 80 C6.4286 76.7143 6.4286 76.7143 11 76 C11.33 75.01 11.66 74.02 12 73 C13.4883 71.5352 13.4883 71.5352 15.3125 70.0625 C15.9429 69.5353 16.5732 69.008 17.2227 68.4648 C17.8092 67.9814 18.3957 67.498 19 67 C22.5609 64.0326 23.8448 61.3486 25.2734 57.0469 C26 55 26 55 27.6875 51.9375 C30.4619 45.5179 30.1697 36.7727 28.1328 30.2031 C27.4501 28.718 26.7281 27.2499 25.957 25.8086 C24.7884 23.6001 24.3186 21.4688 24 19 C23.34 19 22.68 19 22 19 C21 17.3333 20 15.6667 19 14 C15.6808 10.2322 12.5895 8.0279 8 6 C8 5.34 8 4.68 8 4 C7.2369 3.8556 6.4738 3.7113 5.6875 3.5625 C3 3 3 3 0 2 C0 1.34 0 0.68 0 0 Z " fill="#E7E2D7" transform="translate(1236,74)"/>
<path d="M0 0 C0 0.66 0 1.32 0 2 C0.9281 1.9381 1.8563 1.8762 2.8125 1.8125 C6 2 6 2 7.5625 3.3125 C8.0369 3.8694 8.5113 4.4262 9 5 C9.7657 5.3957 10.5314 5.7915 11.3203 6.1992 C14.636 8.4274 16.3392 11.1226 18.3125 14.5 C18.6715 15.0814 19.0305 15.6627 19.4004 16.2617 C21.0798 19.0576 22 20.6826 22 24 C22.66 24 23.32 24 24 24 C24 29.28 24 34.56 24 40 C23.34 40 22.68 40 22 40 C21.8763 40.7219 21.7525 41.4437 21.625 42.1875 C20.4292 47.5688 18.4414 51.0193 14.75 55.125 C14.0023 55.9732 13.2547 56.8214 12.4844 57.6953 C9.7884 60.1963 7.3438 61.4978 4 63 C3.0358 63.5479 2.0716 64.0957 1.0781 64.6602 C-5.797 67.6528 -15.1988 67.0093 -22.25 64.625 C-28.3262 61.7915 -33.6023 57.0081 -38 52 C-38 51.01 -38 50.02 -38 49 C-38.66 49 -39.32 49 -40 49 C-43.7969 40.4156 -46.2209 32.0043 -42.8008 22.7578 C-41.3137 19.7537 -39.728 16.8716 -38 14 C-37.7989 13.6558 -37.7989 13.6558 -36.7812 11.9141 C-35.75 10.25 -35.75 10.25 -34 8 C-33.34 8 -32.68 8 -32 8 C-32 7.34 -32 6.68 -32 6 C-23.0353 -1.1258 -11.052 -3.3183 0 0 Z " fill="#FBFAFA" transform="translate(1234,82)"/>
<path d="M0 0 C-0.33 0.66 -0.66 1.32 -1 2 C-0.01 2 0.98 2 2 2 C2 2.66 2 3.32 2 4 C3.214 3.8354 4.428 3.6709 5.6788 3.5014 C11.8349 2.8226 17.9531 2.9116 24.1389 2.9783 C25.4277 2.9879 26.7165 2.9975 28.0443 3.0074 C31.552 3.0337 35.0596 3.0665 38.5672 3.1005 C42.2427 3.1351 45.9182 3.1635 49.5937 3.1926 C56.5421 3.2486 63.4904 3.31 70.4387 3.3734 C78.3541 3.4453 86.2695 3.5111 94.1849 3.5764 C110.4567 3.7108 126.7284 3.8529 143 4 C143 4.33 143 4.66 143 5 C105.71 5 68.42 5 30 5 C30 5.66 30 6.32 30 7 C30.5775 7.1444 31.155 7.2887 31.75 7.4375 C32.7917 7.6979 32.7917 7.6979 38 9 C38 9.66 38 10.32 38 11 C38.825 11.165 39.65 11.33 40.5 11.5 C45.3319 13.5708 48.7727 16.8635 52 21 C52 21.99 52 22.98 52 24 C52.66 24 53.32 24 54 24 C54.718 25.6754 55.4329 27.3521 56.1328 29.0352 C57 31 57 31 58.6875 34 C61.8319 41.4093 61.0817 51.2156 58.1875 58.5625 C57.4817 60.053 56.7551 61.5339 56 63 C55.5256 64.0931 55.0512 65.1863 54.5625 66.3125 C52.0596 70.6174 48.5562 73.5659 44.75 76.6875 C42 79 42 79 41 81 C36.9061 82.9991 32.4946 84.2977 28 85 C28 85.66 28 86.32 28 87 C67.6 86.67 107.2 86.34 148 86 C146 88 146 88 143.5206 88.2461 C142.4679 88.2443 141.4152 88.2424 140.3307 88.2405 C139.7277 88.2419 139.7277 88.2419 136.6762 88.2488 C135.3328 88.2418 133.9894 88.2345 132.646 88.2271 C131.2369 88.2265 129.8277 88.2268 128.4186 88.2279 C124.5861 88.2285 120.7538 88.2167 116.9214 88.2028 C112.9188 88.1903 108.9163 88.1891 104.9137 88.1867 C97.3312 88.1805 89.7487 88.1641 82.1663 88.144 C73.5352 88.1217 64.9041 88.1107 56.273 88.1006 C38.5153 88.0797 20.7577 88.0445 3 88 C2.835 87.67 2.835 87.67 2 86 C1.4328 85.8041 1.4328 85.8041 -1.4375 84.8125 C-8.8042 82.1976 -15.5694 77.4754 -20 71 C-20.3506 70.5875 -20.3506 70.5875 -22.125 68.5 C-25.4922 64.0104 -26.2598 60.5849 -26 55 C-26.66 55 -27.32 55 -28 55 C-28.5838 40.2598 -27.6136 29.6611 -18.3555 17.5195 C-13.9519 12.8093 -8.5429 9.6554 -2.7344 6.9414 C-1 6 -1 6 0 4 C-0.99 4 -1.98 4 -3 4 C-3 3.34 -3 2.68 -3 2 C-3.99 2 -4.98 2 -6 2 C-6 2.66 -6 3.32 -6 4 C-12.625 6 -12.625 6 -16 6 C-13.4999 3.9166 -10.858 2.2857 -8 0.75 C-7.67 0.5721 -7.67 0.5721 -6 -0.3281 C-3.6016 -1.1338 -2.3548 -0.82 0 0 Z M-4 19 C-4 19.66 -4 20.32 -4 21 C-4.5723 21.1779 -5.1447 21.3558 -5.7344 21.5391 C-11.0433 24.9624 -13.9269 33.1614 -16 39 C-17.4864 47.1612 -15.6667 54.6665 -12 62 C-11.34 62 -10.68 62 -10 62 C-9.9265 62.5672 -9.853 63.1344 -9.7773 63.7188 C-7.8617 69.3406 -1.5121 73.432 3.3594 76.4727 C10.4639 79.7984 18.3027 79.9493 26 79 C29.2109 77.6055 29.2109 77.6055 32 76 C32.678 75.6468 33.3561 75.2936 34.0547 74.9297 C41.0834 70.8573 47.5206 64.914 50 57 C50 55.68 50 54.36 50 53 C50.66 53 51.32 53 52 53 C52 47.72 52 42.44 52 37 C51.34 37 50.68 37 50 37 C49.9381 36.3194 49.8763 35.6388 49.8125 34.9375 C48.8718 31.5365 47.3682 29.4761 45.2539 26.6992 C44 25 44 25 42.5625 22.3125 C40.5319 19.3071 38.071 17.8693 35 16 C34.835 15.835 34.835 15.835 34 15 C32.0004 14.9592 29.9995 14.9575 28 15 C28 14.34 28 13.68 28 13 C17.3983 9.8578 4.4517 11.5633 -4 19 Z " fill="#5D5952" transform="translate(1206,69)"/>
<path d="M0 0 C0.677 -0.0015 1.3539 -0.0031 2.0514 -0.0046 C4.3287 -0.0085 6.606 -0.0053 8.8833 -0.0021 C10.536 -0.0035 12.1887 -0.0053 13.8413 -0.0074 C18.4067 -0.0122 22.9721 -0.0107 27.5375 -0.0082 C32.4952 -0.0065 37.4529 -0.0107 42.4105 -0.0141 C51.1074 -0.0192 59.8042 -0.0206 68.501 -0.0196 C81.4331 -0.0181 94.3652 -0.0223 107.2973 -0.0275 C131.733 -0.0372 156.1687 -0.04 180.6045 -0.0406 C183.3003 -0.0406 185.9961 -0.0407 188.6919 -0.0408 C189.0264 -0.0408 189.0264 -0.0408 190.719 -0.0408 C205.535 -0.0412 220.3511 -0.0434 235.1672 -0.0459 C241.2655 -0.0469 247.3639 -0.0479 253.4622 -0.0489 C253.7991 -0.049 253.7991 -0.049 255.504 -0.0493 C294.1182 -0.0556 332.7324 -0.0597 371.3466 -0.0593 C372.7919 -0.0592 374.2372 -0.0592 375.6825 -0.0592 C382.2082 -0.0591 388.7339 -0.059 395.2596 -0.059 C398.1697 -0.0589 401.0797 -0.0589 403.9898 -0.0588 C405.4463 -0.0588 406.9029 -0.0588 408.3594 -0.0588 C454.4367 -0.0581 500.514 -0.0654 546.5913 -0.0793 C558.2042 -0.0828 569.817 -0.0863 581.4298 -0.0896 C582.1448 -0.0898 582.8598 -0.09 583.5965 -0.0902 C605.6214 -0.0964 627.6464 -0.1002 649.6714 -0.1014 C650.0169 -0.1015 650.0169 -0.1015 651.7658 -0.1016 C666.9356 -0.1024 682.1054 -0.1027 697.2752 -0.1024 C702.7027 -0.1023 708.1302 -0.1022 713.5577 -0.1022 C714.908 -0.1022 716.2582 -0.1022 717.6085 -0.1022 C739.1505 -0.102 760.6926 -0.1077 782.2346 -0.1163 C804.5224 -0.1252 826.8101 -0.1268 849.0979 -0.12 C861.9594 -0.1163 874.8209 -0.1182 887.6824 -0.128 C896.2579 -0.1339 904.8334 -0.1327 913.4089 -0.1255 C918.3052 -0.1216 923.2013 -0.1209 928.0976 -0.1289 C932.5426 -0.1362 936.9875 -0.1344 941.4326 -0.125 C943.0394 -0.1233 944.6462 -0.125 946.253 -0.1303 C948.419 -0.1371 950.5846 -0.1317 952.7506 -0.123 C953.3526 -0.1231 953.3526 -0.1231 956.3991 -0.1233 C959.1873 0.1265 959.1873 0.1265 961.1873 2.1265 C640.4273 2.1265 319.6673 2.1265 -10.8127 2.1265 C-11.4727 3.4465 -12.1327 4.7665 -12.8127 6.1265 C-13.8027 6.7865 -14.7927 7.4465 -15.8127 8.1265 C-16.8709 11.3012 -16.937 13.5331 -16.9358 16.868 C-16.9378 18.0723 -16.9397 19.2765 -16.9418 20.5173 C-16.9389 21.8605 -16.936 23.2037 -16.933 24.5468 C-16.9334 25.9684 -16.9343 27.3899 -16.9356 28.8114 C-16.9378 32.7268 -16.9338 36.6421 -16.9288 40.5575 C-16.9245 44.7763 -16.9259 48.9951 -16.9267 53.2139 C-16.9272 60.5263 -16.9241 67.8387 -16.9184 75.1511 C-16.9103 85.7237 -16.9077 96.2962 -16.9065 106.8688 C-16.9043 124.021 -16.8976 141.1733 -16.8882 158.3255 C-16.879 174.9899 -16.8719 191.6542 -16.8676 208.3186 C-16.8674 209.3454 -16.8671 210.3721 -16.8668 211.43 C-16.8655 216.5807 -16.8643 221.7314 -16.863 226.8821 C-16.8527 269.6302 -16.835 312.3784 -16.8127 355.1265 C-17.4727 354.7965 -18.1327 354.4665 -18.8127 354.1265 C-18.9042 310.2777 -18.9747 266.4289 -19.017 222.58 C-19.022 217.4054 -19.0272 212.2308 -19.0324 207.0562 C-19.0335 206.026 -19.0345 204.9958 -19.0356 203.9344 C-19.053 187.2451 -19.0846 170.5558 -19.1213 153.8666 C-19.1587 136.7468 -19.1809 119.6272 -19.1891 102.5074 C-19.1946 91.9402 -19.2119 81.3732 -19.2444 70.8061 C-19.2655 63.5637 -19.2719 56.3214 -19.2667 49.0789 C-19.2642 44.8979 -19.2681 40.7172 -19.2895 36.5362 C-19.309 32.7091 -19.31 28.8824 -19.2963 25.0553 C-19.2946 23.6703 -19.2997 22.2852 -19.3122 20.9002 C-19.4226 7.9583 -19.4226 7.9583 -14.8127 3.1265 C-10.0159 -0.0713 -5.6693 0.0014 0 0 Z " fill="#D9D9D8" transform="translate(324.812711417675,54.87350016832352)"/>
<path d="M0 0 C1.0094 0.1623 2.0189 0.3246 3.0589 0.4918 C6.7817 0.9718 10.3068 1.1272 14.057 1.1306 C14.7361 1.1326 15.4151 1.1346 16.1148 1.1366 C18.3872 1.142 20.6596 1.1403 22.9321 1.1387 C24.586 1.1411 26.2399 1.144 27.8938 1.1473 C32.4533 1.1551 37.0127 1.1566 41.5722 1.1572 C46.5269 1.1589 51.4816 1.1664 56.4363 1.1732 C65.1248 1.1842 73.8132 1.1916 82.5017 1.1966 C95.4212 1.204 108.3407 1.2171 121.2601 1.2313 C142.9915 1.2552 164.7228 1.2744 186.4542 1.2909 C207.976 1.3073 229.4979 1.3258 251.0198 1.3471 C251.6881 1.3477 252.3564 1.3484 253.045 1.3491 C259.149 1.3551 265.253 1.3611 271.3571 1.3672 C286.5312 1.3823 301.7053 1.397 316.8794 1.4116 C317.2249 1.4119 317.2249 1.4119 318.9734 1.4136 C352.5891 1.4458 386.2048 1.4744 419.8206 1.5027 C431.4864 1.5125 443.1522 1.5223 454.818 1.5322 C455.1797 1.5325 455.1797 1.5325 457.0105 1.5341 C490.643 1.5626 524.2756 1.5938 557.9081 1.6256 C560.0915 1.6277 562.2749 1.6297 564.4582 1.6318 C578.9276 1.6455 593.3969 1.6592 607.8662 1.673 C636.6567 1.7004 665.4472 1.7275 694.2377 1.7544 C695.6088 1.7557 696.9799 1.757 698.351 1.7583 C786.8315 1.841 875.3119 1.9176 972 2 C969.2015 4.7985 967.4934 4.2507 963.5697 4.2518 C962.8977 4.2548 962.2256 4.2577 961.5332 4.2607 C959.2544 4.2682 956.9759 4.2612 954.6971 4.2545 C953.0506 4.2569 951.404 4.2601 949.7574 4.2642 C945.195 4.2729 940.6326 4.269 936.0701 4.2631 C931.1208 4.259 926.1715 4.2664 921.2222 4.2723 C912.5353 4.2811 903.8485 4.2824 895.1616 4.2788 C882.2441 4.2735 869.3267 4.2796 856.4092 4.2879 C832.672 4.3027 808.9348 4.305 785.1976 4.3025 C781.8318 4.3022 778.4661 4.3019 775.1003 4.3016 C774.4318 4.3015 773.7633 4.3015 773.0746 4.3014 C758.2735 4.3001 743.4724 4.3027 728.6713 4.3061 C725.2938 4.3069 721.9162 4.3076 718.5387 4.3084 C717.1832 4.3087 715.8277 4.309 714.4722 4.3093 C714.1362 4.3094 714.1362 4.3094 712.4361 4.3097 C711.0771 4.31 709.7181 4.3103 708.3591 4.3106 C669.7839 4.3193 631.2088 4.324 592.6337 4.3197 C591.919 4.3196 591.2043 4.3195 590.468 4.3195 C582.4982 4.3186 574.5284 4.3177 566.5586 4.3167 C565.839 4.3166 565.1194 4.3165 564.378 4.3165 C558.3981 4.3157 558.3981 4.3157 555.6478 4.3154 C509.6185 4.3099 463.5892 4.3174 417.5598 4.3362 C405.9626 4.3409 394.3654 4.3456 382.7682 4.35 C382.0541 4.3503 381.3401 4.3506 380.6044 4.3508 C358.6049 4.3592 336.6054 4.3639 314.6058 4.3647 C313.9154 4.3648 313.2249 4.3648 312.5135 4.3648 C297.3575 4.3653 282.2015 4.365 267.0456 4.3638 C261.6227 4.3633 256.1999 4.363 250.7771 4.3626 C249.428 4.3626 248.0789 4.3625 246.7298 4.3624 C225.2129 4.3609 203.6961 4.3681 182.1792 4.3794 C159.911 4.391 137.6428 4.3916 115.3746 4.3795 C102.5271 4.3729 89.6796 4.3746 76.832 4.3881 C68.2619 4.3963 59.6918 4.3937 51.1216 4.3821 C46.2309 4.3758 41.3402 4.3744 36.4495 4.386 C32.0058 4.3965 27.5624 4.3933 23.1187 4.3789 C21.5158 4.3762 19.9128 4.3785 18.3099 4.3864 C16.1417 4.3964 13.9744 4.388 11.8063 4.3749 C10.6034 4.3749 9.4004 4.3749 8.161 4.375 C4.7016 3.9646 2.7798 3.0622 0 1 C0 0.67 0 0.34 0 0 Z " fill="#A3A19E" transform="translate(312,416)"/>
<path d="M0 0 C267.3 0 534.6 0 810 0 C806.5492 3.4508 806.0969 3.3751 801.4756 3.376 C800.8964 3.3798 800.8964 3.3798 797.9652 3.3988 C796.684 3.3918 795.4028 3.3848 794.0829 3.3775 C792.7091 3.3807 791.3354 3.3851 789.9616 3.3907 C786.1612 3.4025 782.3611 3.3954 778.5607 3.3854 C774.4358 3.3778 770.311 3.3876 766.1861 3.3951 C758.9484 3.406 751.7107 3.4056 744.4729 3.398 C733.7104 3.3867 722.948 3.3924 712.1855 3.4016 C692.9673 3.4174 673.7492 3.416 654.5311 3.4074 C637.7133 3.3998 620.8956 3.3979 604.0779 3.4014 C602.9639 3.4017 601.8499 3.4019 600.7021 3.4021 C596.1806 3.4031 591.659 3.404 587.1374 3.405 C544.6897 3.4142 502.2421 3.4059 459.7944 3.3897 C422.052 3.3755 384.3097 3.3768 346.5674 3.3911 C304.1992 3.4072 261.831 3.4136 219.4628 3.4043 C214.9492 3.4033 210.4357 3.4024 205.9221 3.4014 C204.8107 3.4012 203.6993 3.401 202.5542 3.4007 C185.7438 3.3973 168.9334 3.4013 152.123 3.4089 C133.0158 3.4174 113.9086 3.4154 94.8015 3.399 C84.0975 3.3902 73.3936 3.3897 62.6896 3.401 C55.5509 3.4077 48.4123 3.4036 41.2736 3.3905 C37.1988 3.3833 33.1241 3.381 29.0493 3.3917 C25.3484 3.4013 21.6477 3.3973 17.9468 3.3821 C15.9761 3.3777 14.0055 3.388 12.0348 3.3988 C10.8764 3.3913 9.718 3.3838 8.5244 3.376 C7.5223 3.3758 6.5202 3.3756 5.4877 3.3754 C3 3 3 3 0 0 Z " fill="#DFDBD3" transform="translate(370,191)"/>
<path d="M0 0 C1.1469 -0.0022 2.2939 -0.0045 3.4755 -0.0068 C4.7489 -0.0042 6.0224 -0.0016 7.3344 0.0012 C8.6959 0.0004 10.0575 -0.0008 11.419 -0.0023 C15.1901 -0.0054 18.9612 -0.0022 22.7323 0.0019 C26.8237 0.0054 30.9151 0.003 35.0065 0.0014 C42.1869 -0.0007 49.3674 0.0009 56.5478 0.005 C67.225 0.011 77.9022 0.0113 88.5793 0.0105 C106.5375 0.0091 124.4957 0.0125 142.4538 0.0185 C160.2426 0.0244 178.0313 0.0282 195.82 0.0293 C196.3724 0.0294 196.3724 0.0294 199.1679 0.0295 C204.7781 0.0299 210.3884 0.0302 215.9987 0.0305 C255.7682 0.0326 295.5377 0.0393 335.3072 0.0488 C373.9501 0.0579 412.593 0.065 451.2359 0.0693 C452.4264 0.0694 453.6169 0.0695 454.8435 0.0697 C466.7987 0.071 478.7538 0.0723 490.709 0.0735 C515.0644 0.076 539.4199 0.0789 563.7753 0.0819 C564.8952 0.082 566.0151 0.0821 567.169 0.0823 C641.9931 0.0915 716.8171 0.1073 791.6412 0.1242 C791.6412 0.4542 791.6412 0.7842 791.6412 1.1242 C791.2964 1.1245 791.2964 1.1245 789.5517 1.1259 C714.5118 1.1865 639.4719 1.2495 564.432 1.3255 C563.3119 1.3267 562.1917 1.3278 561.0375 1.329 C536.6952 1.3536 512.3529 1.3787 488.0106 1.4043 C476.0738 1.4168 464.1371 1.4292 452.2003 1.4416 C451.6064 1.4422 451.6064 1.4422 448.6007 1.4453 C410.0697 1.4853 371.5387 1.5188 333.0077 1.5489 C293.4257 1.5799 253.8437 1.6174 214.2617 1.6631 C208.6763 1.6696 203.0908 1.6759 197.5054 1.6823 C196.4061 1.6835 195.3068 1.6848 194.1741 1.686 C176.4486 1.706 158.723 1.719 140.9975 1.7295 C123.195 1.7402 105.3926 1.758 87.5902 1.7834 C77.002 1.7982 66.4139 1.8074 55.8257 1.8088 C48.7628 1.8102 41.6999 1.8188 34.637 1.8334 C30.6063 1.8415 26.5756 1.8463 22.5448 1.8425 C18.8827 1.8391 15.2207 1.8447 11.5586 1.8578 C9.6111 1.8623 7.6636 1.857 5.716 1.8514 C4.5675 1.8574 3.4189 1.8633 2.2356 1.8694 C1.2442 1.8703 0.2527 1.8713 -0.7687 1.8722 C-3.3588 2.1242 -3.3588 2.1242 -7.3588 4.1242 C-7.3588 7.7542 -7.3588 11.3842 -7.3588 15.1242 C-8.3488 14.4642 -9.3388 13.8042 -10.3588 13.1242 C-10.9213 8.1556 -10.4072 5.1105 -7.3588 1.1242 C-4.7667 -0.1718 -2.9042 -0.0005 0 0 Z " fill="#D9D4CA" transform="translate(377.3587843179703,115.8758015036583)"/>
<path d="M0 0 C9.2014 2.9285 16.1844 12.436 20.8789 20.5156 C24.1629 27.7931 24.3955 34.4654 24.4375 42.375 C24.4704 43.4604 24.5032 44.5458 24.5371 45.6641 C24.5804 52.1831 23.8267 56.5937 20.2371 62.0906 C19.0025 63.9962 18.1899 65.824 17.375 67.9375 C16 71 16 71 13 73 C12.67 73.99 12.34 74.98 12 76 C10.044 77.3971 8.0341 78.7193 6 80 C4.7867 80.8681 3.5784 81.7432 2.375 82.625 C-2.5086 86.1102 -2.5086 86.1102 -5 87 C-5.99 86.67 -6.98 86.34 -8 86 C-7.34 86 -6.68 86 -6 86 C-6 85.34 -6 84.68 -6 84 C-6.99 84 -7.98 84 -9 84 C-9 83.34 -9 82.68 -9 82 C-10.65 82 -12.3 82 -14 82 C-13.4805 81.7538 -12.961 81.5076 -12.4258 81.2539 C1.0194 74.304 9.9042 66.994 15.1289 52.3477 C16.4826 47.1454 16.4568 42.3242 16 37 C15.9175 35.8038 15.835 34.6075 15.75 33.375 C14.8783 29.4524 13.4983 25.9297 11.9375 22.2344 C11 20 11 20 10 17 C9.34 17 8.68 17 8 17 C6.7383 15.6094 6.7383 15.6094 5.3125 13.75 C2.2617 10.0364 -0.7223 8.1388 -5 6 C-4.34 5.67 -3.68 5.34 -3 5 C-2.01 5.33 -1.02 5.66 0 6 C0 5.34 0 4.68 0 4 C0.66 4 1.32 4 2 4 C2 3.34 2 2.68 2 2 C1.34 2 0.68 2 0 2 C0 1.34 0 0.68 0 0 Z " fill="#504C45" transform="translate(1368,73)"/>
<path d="M0 0 C0.99 0 1.98 0 3 0 C3 0.66 3 1.32 3 2 C3.99 2 4.98 2 6 2 C4.6994 5.9019 3.3537 6.1212 -0.25 7.9375 C-10.6088 13.4176 -16.4163 20.5254 -20.2539 31.6719 C-21.8207 38.6609 -21.8429 45.8619 -22 53 C-21.34 53 -20.68 53 -20 53 C-19.7319 54.2169 -19.4637 55.4338 -19.1875 56.6875 C-18.2763 60.2759 -17.1428 62.9389 -15 66 C-14.6236 66.6059 -14.2472 67.2117 -13.8594 67.8359 C-9.7347 74.0229 -4.3921 77.3604 2 81 C1.505 81.165 1.505 81.165 -1 82 C-1 82.66 -1 83.32 -1 84 C-1.99 84 -2.98 84 -4 84 C-3.67 84.99 -3.34 85.98 -3 87 C-12.5287 84.3201 -19.0963 75.03 -24 67 C-29.3869 56.9826 -29.611 48.0312 -29 37 C-28.9897 36.0371 -28.9794 35.0741 -28.9688 34.082 C-28.5713 23.6663 -22.2317 15.4406 -15.3047 8.1055 C-11.3238 4.4687 -7.4895 2.2075 -2 1.75 C-1.34 1.8325 -0.68 1.915 0 2 C0 1.34 0 0.68 0 0 Z " fill="#4D4841" transform="translate(1200,71)"/>
<path d="M0 0 C0 0.66 0 1.32 0 2 C-1.5039 3.1563 -1.5039 3.1563 -3.5625 4.5 C-10.2733 9.3665 -15.7351 16.9638 -18 25 C-18.4818 28.9762 -18.6006 32.9354 -18.6875 36.9375 C-18.7217 38.0029 -18.7558 39.0683 -18.791 40.166 C-18.873 42.7772 -18.9423 45.3881 -19 48 C-18.34 48 -17.68 48 -17 48 C-16.8298 48.5801 -16.6597 49.1602 -16.4844 49.7578 C-13.4062 59.68 -8.1146 66.4722 0.7969 71.8633 C4.3795 73.7118 8.1315 74.8986 12 76 C12 76.66 12 77.32 12 78 C2.9993 78.5609 -5.2899 73.172 -12.1836 67.7031 C-17.6895 62.5406 -22.8309 56.4811 -23.125 48.6875 C-23.0838 47.8006 -23.0425 46.9137 -23 46 C-23.66 46 -24.32 46 -25 46 C-25.6333 30.0091 -24.2072 18.4087 -13 6 C-8.7248 2.3636 -5.7056 0 0 0 Z " fill="#CEC9BE" transform="translate(1203,78)"/>
<path d="M0 0 C0.7762 6.0805 -0.9078 8.7864 -4.3984 13.6914 C-9.5956 21.183 -11.0185 27.9179 -10 37 C-9.2788 40.1433 -8.2551 43.0335 -7 46 C-6.737 46.6497 -6.4741 47.2994 -6.2031 47.9688 C-4.927 51.0419 -3.5351 54.048 -2 57 C-1.34 57 -0.68 57 0 57 C0 57.66 0 58.32 0 59 C-0.66 59 -1.32 59 -2 59 C-2 59.99 -2 60.98 -2 62 C-7.6869 60.1044 -10.4571 57.2661 -13.25 52.0625 C-14.7548 48.9176 -15.442 46.5363 -15 43 C-15.66 43 -16.32 43 -17 43 C-17.0878 39.3127 -17.1406 35.6256 -17.1875 31.9375 C-17.2001 31.4183 -17.2001 31.4183 -17.2637 28.791 C-17.3482 19.919 -15.7896 14.8752 -10 8 C-9.5256 7.1338 -9.0512 6.2675 -8.5625 5.375 C-6.4851 2.2174 -3.9137 0 0 0 Z " fill="#46413A" transform="translate(1201,83)"/>
<path d="M0 0 C0.281 0.37 0.281 0.37 1.7031 2.2422 C8.1137 9.9392 15.612 15.3087 25.6094 16.3906 C29.0731 16.6549 32.5293 16.8586 36 17 C36 17.33 36 17.66 36 18 C33.855 18.165 33.855 18.165 23 19 C27.6705 21.7376 30.988 22.34 36.375 22.1875 C36.9976 22.174 36.9976 22.174 40.1484 22.1055 C40.6189 22.0881 40.6189 22.0881 43 22 C41.68 22.33 40.36 22.66 39 23 C39 23.66 39 24.32 39 25 C78.6 24.67 118.2 24.34 159 24 C157 26 157 26 154.5206 26.2461 C153.4679 26.2443 152.4152 26.2424 151.3307 26.2405 C150.7277 26.2419 150.7277 26.2419 147.6762 26.2488 C146.3328 26.2418 144.9894 26.2345 143.646 26.2271 C142.2369 26.2265 140.8277 26.2268 139.4186 26.2279 C135.5861 26.2285 131.7538 26.2167 127.9214 26.2028 C123.9188 26.1903 119.9163 26.1891 115.9137 26.1867 C108.3312 26.1805 100.7487 26.1641 93.1663 26.144 C84.5352 26.1217 75.9041 26.1107 67.273 26.1006 C49.5153 26.0797 31.7577 26.0445 14 26 C14 25.67 14 25.34 14 25 C15.98 25 17.96 25 20 25 C20 24.34 20 23.68 20 23 C19.34 22.8969 18.68 22.7937 18 22.6875 C10.9623 21.0747 5.7137 18.4043 0 14 C0.66 13.67 1.32 13.34 2 13 C2.66 13.33 3.32 13.66 4 14 C4 13.01 4 12.02 4 11 C4.66 11 5.32 11 6 11 C6 10.34 6 9.68 6 9 C5.34 9 4.68 9 4 9 C0.88 5.6965 0 4.6759 0 0 Z " fill="#534E47" transform="translate(1195,131)"/>
<path d="M0 0 C-0.33 0.66 -0.66 1.32 -1 2 C-0.01 2 0.98 2 2 2 C2 2.66 2 3.32 2 4 C2.607 3.9177 2.607 3.9177 5.6788 3.5014 C11.8349 2.8226 17.9531 2.9116 24.1389 2.9783 C25.4277 2.9879 26.7165 2.9975 28.0443 3.0074 C31.552 3.0337 35.0596 3.0665 38.5672 3.1005 C42.2427 3.1351 45.9182 3.1635 49.5937 3.1926 C56.5421 3.2486 63.4904 3.31 70.4387 3.3734 C78.3541 3.4453 86.2695 3.5111 94.1849 3.5764 C110.4567 3.7108 126.7284 3.8529 143 4 C143 4.33 143 4.66 143 5 C105.71 5 68.42 5 30 5 C30 5.66 30 6.32 30 7 C30.99 7.33 31.98 7.66 33 8 C29.625 8.125 29.625 8.125 26 8 C25.34 7.34 24.68 6.68 24 6 C21.5039 5.6992 21.5039 5.6992 18.5625 5.6875 C17.5944 5.6707 16.6263 5.654 15.6289 5.6367 C12.5785 6.0582 12.0186 6.8181 10 9 C6.8125 8.6875 6.8125 8.6875 4 8 C4 8.66 4 9.32 4 10 C4.66 10 5.32 10 6 10 C6 10.66 6 11.32 6 12 C7.65 12 9.3 12 11 12 C7.6155 14.9783 4.3091 15.8458 0 17 C-3.8 18.6 -3.8 18.6 -5 21 C-6.0445 17.8665 -5.9342 17.0103 -5 14 C-6.65 14.66 -8.3 15.32 -10 16 C-8.3766 14.2912 -6.7068 12.6255 -5 11 C-4.34 11 -3.68 11 -3 11 C-3 10.34 -3 9.68 -3 9 C-3.66 8.67 -4.32 8.34 -5 8 C-4.3606 7.7113 -3.7213 7.4225 -3.0625 7.125 C-1 6 -1 6 0 4 C-0.99 4 -1.98 4 -3 4 C-3 3.34 -3 2.68 -3 2 C-3.99 2 -4.98 2 -6 2 C-6 2.66 -6 3.32 -6 4 C-12.625 6 -12.625 6 -16 6 C-13.4999 3.9166 -10.858 2.2857 -8 0.75 C-7.67 0.5721 -7.67 0.5721 -6 -0.3281 C-3.6016 -1.1338 -2.3548 -0.82 0 0 Z M8 9 C10 10 10 10 10 10 Z " fill="#504B44" transform="translate(1206,69)"/>
<path d="M0 0 C0.66 0.33 1.32 0.66 2 1 C-1.75 5.875 -1.75 5.875 -4 7 C-5.0582 10.1747 -5.1243 12.4066 -5.123 15.7415 C-5.125 16.9458 -5.127 18.15 -5.1291 19.3908 C-5.1262 20.734 -5.1233 22.0772 -5.1203 23.4203 C-5.1207 24.8419 -5.1216 26.2634 -5.1228 27.6849 C-5.1251 31.6003 -5.1211 35.5156 -5.1161 39.431 C-5.1118 43.6498 -5.1132 47.8686 -5.114 52.0874 C-5.1145 59.3998 -5.1113 66.7122 -5.1057 74.0246 C-5.0976 84.5972 -5.095 95.1697 -5.0937 105.7423 C-5.0916 122.8945 -5.0849 140.0468 -5.0754 157.199 C-5.0663 173.8634 -5.0592 190.5277 -5.0549 207.1921 C-5.0547 208.2189 -5.0544 209.2456 -5.0541 210.3035 C-5.0528 215.4542 -5.0516 220.6049 -5.0503 225.7556 C-5.04 268.5037 -5.0223 311.2519 -5 354 C-5.66 353.67 -6.32 353.34 -7 353 C-7.0915 309.1512 -7.162 265.3024 -7.2043 221.4535 C-7.2093 216.2789 -7.2144 211.1043 -7.2197 205.9297 C-7.2208 204.8995 -7.2218 203.8693 -7.2229 202.8079 C-7.2403 186.1186 -7.2719 169.4293 -7.3086 152.7401 C-7.346 135.6203 -7.3682 118.5007 -7.3764 101.3809 C-7.3818 90.8137 -7.3992 80.2467 -7.4317 69.6796 C-7.4528 62.4372 -7.4592 55.1949 -7.454 47.9524 C-7.4514 43.7714 -7.4554 39.5907 -7.4768 35.4097 C-7.4963 31.5826 -7.4973 27.7559 -7.4836 23.9288 C-7.4819 22.5438 -7.487 21.1587 -7.4995 19.7737 C-7.6099 6.8318 -7.6099 6.8318 -3 2 C-2.01 1.34 -1.02 0.68 0 0 Z " fill="#CFCECD" transform="translate(313,56)"/>
<path d="M0 0 C-17.4184 5.8061 -36.6394 3 -55 3 C-55 84.18 -55 165.36 -55 249 C-55.33 249 -55.66 249 -56 249 C-56.0228 217.5507 -56.0405 186.1014 -56.0511 154.652 C-56.0523 150.9431 -56.0536 147.2341 -56.0549 143.5251 C-56.0552 142.7867 -56.0555 142.0483 -56.0557 141.2875 C-56.0601 129.3154 -56.068 117.3433 -56.0772 105.3712 C-56.0865 93.0959 -56.0921 80.8206 -56.0941 68.5452 C-56.0955 60.9646 -56.0998 53.384 -56.1079 45.8033 C-56.1138 40.0003 -56.1145 34.1973 -56.1131 28.3943 C-56.1134 26.0065 -56.1154 23.6187 -56.1192 21.2309 C-56.1241 17.9864 -56.123 14.7419 -56.1203 11.4973 C-56.1232 10.5392 -56.1261 9.581 -56.1291 8.5938 C-56.1141 2.1141 -56.1141 2.1141 -55 1 C-52.1966 0.8516 -49.415 0.7647 -46.6094 0.7188 C-46.1816 0.7095 -46.1816 0.7095 -44.0167 0.663 C-41.2612 0.604 -38.5056 0.5514 -35.75 0.5 C-32.1614 0.4314 -28.5728 0.359 -24.9844 0.2812 C-24.1178 0.263 -23.2513 0.2447 -22.3585 0.2258 C-16.3108 0.0799 -10.3306 -0.2926 -4.3096 -0.8965 C-2 -1 -2 -1 0 0 Z " fill="#6F6C66" transform="translate(1359,161)"/>
<path d="M0 0 C9.2014 2.9285 16.1844 12.436 20.8789 20.5156 C24.2462 27.9776 24.3058 34.7039 24.25 42.8125 C24.2577 43.9565 24.2655 45.1006 24.2734 46.2793 C24.2709 47.3692 24.2683 48.4591 24.2656 49.582 C24.2634 50.5744 24.2611 51.5667 24.2588 52.5891 C24 55 24 55 22 57 C22.33 49.08 22.66 41.16 23 33 C22.34 33 21.68 33 21 33 C21.0412 34.0725 21.0825 35.145 21.125 36.25 C20.9627 41.1192 19.6469 43.0296 17 47 C16.902 45.8888 16.8041 44.7777 16.7031 43.6328 C15.8757 35.125 14.7331 27.7894 11 20 C10.67 19.01 10.34 18.02 10 17 C9.34 17 8.68 17 8 17 C6.7383 15.6094 6.7383 15.6094 5.3125 13.75 C2.2617 10.0364 -0.7223 8.1388 -5 6 C-4.34 5.67 -3.68 5.34 -3 5 C-2.01 5.33 -1.02 5.66 0 6 C0 5.34 0 4.68 0 4 C0.66 4 1.32 4 2 4 C2 3.34 2 2.68 2 2 C1.34 2 0.68 2 0 2 C0 1.34 0 0.68 0 0 Z " fill="#4F4B44" transform="translate(1368,73)"/>
<path d="M0 0 C0.99 0 1.98 0 3 0 C3 0.66 3 1.32 3 2 C3.99 2 4.98 2 6 2 C4.6994 5.9019 3.3537 6.1212 -0.25 7.9375 C-9.6605 12.9159 -15.4446 18.8036 -18.875 29.0625 C-19.2642 30.3709 -19.6448 31.682 -20 33 C-20.33 33 -20.66 33 -21 33 C-21 31.35 -21 29.7 -21 28 C-21.66 28 -22.32 28 -23 28 C-23 27.01 -23 26.02 -23 25 C-23.66 25 -24.32 25 -25 25 C-25.1237 25.7631 -25.2475 26.5263 -25.375 27.3125 C-26 30 -26 30 -28 33 C-28.5159 23.9521 -23.3045 17.2263 -17.625 10.5625 C-13.0947 5.7653 -8.8034 2.3169 -2 1.75 C-1.34 1.8325 -0.68 1.915 0 2 C0 1.34 0 0.68 0 0 Z " fill="#48433C" transform="translate(1200,71)"/>
<path d="M0 0 C35.97 0 71.94 0 109 0 C109 0.66 109 1.32 109 2 C75.34 2 41.68 2 7 2 C7 2.66 7 3.32 7 4 C6.34 4 5.68 4 5 4 C5 3.34 5 2.68 5 2 C3.35 2 1.7 2 0 2 C0 1.34 0 0.68 0 0 Z " fill="#F3EEE3" transform="translate(1241,75)"/>
<path d="M0 0 C0 0.66 0 1.32 0 2 C-1.5039 3.1563 -1.5039 3.1563 -3.5625 4.5 C-10.3416 9.4161 -15.5881 16.9444 -18 25 C-18.4655 28.3107 -18.5986 31.5978 -18.6875 34.9375 C-18.7217 35.8121 -18.7558 36.6868 -18.791 37.5879 C-18.8728 39.7248 -18.9381 41.8624 -19 44 C-21 42 -21 42 -21.2305 39.6797 C-21.144 34.0379 -20.8424 28.5812 -20 23 C-20.66 23 -21.32 23 -22 23 C-22.8048 28.1469 -23.2723 33.2379 -23.5625 38.4375 C-23.6057 39.169 -23.6489 39.9006 -23.6934 40.6543 C-23.7982 42.436 -23.8995 44.218 -24 46 C-24.33 46 -24.66 46 -25 46 C-25.6333 30.0091 -24.2072 18.4087 -13 6 C-8.7248 2.3636 -5.7056 0 0 0 Z " fill="#B3AEA5" transform="translate(1203,78)"/>
<path d="M0 0 C2.277 2.1926 4.2406 4.3255 6.125 6.875 C9.5347 11.0914 14.3104 13.4321 19 16 C18.01 16.33 17.02 16.66 16 17 C16 17.66 16 18.32 16 19 C15.01 19 14.02 19 13 19 C13.33 19.99 13.66 20.98 14 22 C5.9051 19.7233 0.4124 12.7565 -4 6 C-3.34 5.01 -2.68 4.02 -2 3 C-1.34 3 -0.68 3 0 3 C0 2.01 0 1.02 0 0 Z " fill="#4D4842" transform="translate(1183,136)"/>
<path d="M0 0 C0.7778 6.0927 -0.9128 8.8817 -4.4648 13.7773 C-6.4973 16.72 -7.7245 19.6696 -9 23 C-9.33 23 -9.66 23 -10 23 C-10 21.35 -10 19.7 -10 18 C-10.66 18 -11.32 18 -12 18 C-12 17.34 -12 16.68 -12 16 C-12.66 16 -13.32 16 -14 16 C-14.7664 19.4609 -15.1715 22.7608 -15.3164 26.3008 C-15.3583 27.2772 -15.4002 28.2537 -15.4434 29.2598 C-15.4827 30.2672 -15.522 31.2746 -15.5625 32.3125 C-15.5841 32.8259 -15.5841 32.8259 -15.6934 35.4238 C-15.7991 37.9491 -15.9012 40.4745 -16 43 C-16.33 43 -16.66 43 -17 43 C-17.0878 39.3127 -17.1406 35.6256 -17.1875 31.9375 C-17.2001 31.4183 -17.2001 31.4183 -17.2637 28.791 C-17.3482 19.919 -15.7896 14.8752 -10 8 C-9.5256 7.1338 -9.0512 6.2675 -8.5625 5.375 C-6.4851 2.2174 -3.9137 0 0 0 Z " fill="#46413A" transform="translate(1201,83)"/>
<path d="M0 0 C0.2009 3.716 0.1519 4.7721 -2 8 C-12.2894 13.3505 -25.7948 12.5431 -37 11 C-37 10.67 -37 10.34 -37 10 C-35.02 9.67 -33.04 9.34 -31 9 C-31.99 8.34 -32.98 7.68 -34 7 C-32.9262 6.951 -31.8524 6.902 -30.7461 6.8516 C-29.3099 6.7765 -27.8737 6.7009 -26.4375 6.625 C-25.733 6.5941 -25.0286 6.5631 -24.3027 6.5312 C-12.9007 5.9007 -12.9007 5.9007 -10 3 C-8.3338 2.9594 -6.6661 2.9573 -5 3 C-5 2.34 -5 1.68 -5 1 C-1.125 0 -1.125 0 0 0 Z " fill="#3B362F" transform="translate(1249,142)"/>
<path d="M0 0 C15.4466 -0.0701 30.8931 -0.123 46.3398 -0.1554 C53.5119 -0.1709 60.6839 -0.192 67.856 -0.2263 C74.1069 -0.2562 80.3577 -0.2756 86.6087 -0.2823 C89.9188 -0.2862 93.2287 -0.2969 96.5388 -0.3172 C100.2333 -0.3389 103.9275 -0.342 107.6221 -0.3406 C108.1712 -0.346 108.1712 -0.346 110.9504 -0.3733 C111.4538 -0.3712 111.4538 -0.3712 114.0013 -0.3608 C114.8751 -0.3635 115.749 -0.3663 116.6493 -0.3691 C119.4765 0.0748 120.8709 1.136 123 3 C121.0005 3.0425 118.9996 3.0408 117 3 C116.835 2.835 116.835 2.835 116 2 C114.5583 1.8923 113.1114 1.8532 111.6658 1.8418 C110.7304 1.832 109.7951 1.8222 108.8314 1.8121 C107.797 1.8064 106.7627 1.8006 105.697 1.7947 C105.1556 1.7897 105.1556 1.7897 102.4158 1.7647 C98.8176 1.733 95.2194 1.7083 91.6211 1.6836 C89.1339 1.663 86.6467 1.642 84.1594 1.6206 C78.2698 1.571 72.3802 1.5257 66.4905 1.4826 C59.1297 1.4284 51.769 1.3675 44.4082 1.3066 C31.2722 1.1989 18.1361 1.0973 5 1 C5 1.66 5 2.32 5 3 C6.65 3 8.3 3 10 3 C10 3.66 10 4.32 10 5 C10.66 5 11.32 5 12 5 C12.33 5.99 12.66 6.98 13 8 C12.175 7.67 12.175 7.67 8 6 C8 5.34 8 4.68 8 4 C7.2369 3.8556 6.4738 3.7113 5.6875 3.5625 C3 3 3 3 0 2 C0 1.34 0 0.68 0 0 Z " fill="#C7C2B8" transform="translate(1236,74)"/>
<path d="M0 0 C0.9342 3.0103 1.0445 3.8665 0 7 C0.99 7.33 1.98 7.66 3 8 C3.33 7.34 3.66 6.68 4 6 C4.66 6.33 5.32 6.66 6 7 C3.9699 13.4593 -0.7909 16.9816 -6 21 C-6.33 19.68 -6.66 18.36 -7 17 C-8.32 17 -9.64 17 -11 17 C-11 17.66 -11 18.32 -11 19 C-14.99 20.425 -18.8053 21.4008 -23 22 C-20.7566 19.7566 -18.7206 18.8286 -15.875 17.4375 C-8.4124 13.4365 -2.8518 8.0731 0 0 Z " fill="#605C55" transform="translate(1255,126)"/>
<path d="M0 0 C1.958 -0.0539 3.9165 -0.0927 5.875 -0.125 C6.4203 -0.1366 6.4203 -0.1366 9.1797 -0.1953 C12 0 12 0 14 2 C16.3228 2.4005 18.6574 2.7397 21 3 C21 3.66 21 4.32 21 5 C20.01 5 19.02 5 18 5 C18 5.66 18 6.32 18 7 C10.08 7 2.16 7 -6 7 C-6 6.34 -6 5.68 -6 5 C-6.66 5 -7.32 5 -8 5 C-8 4.34 -8 3.68 -8 3 C-5.69 3 -3.38 3 -1 3 C-0.67 2.01 -0.34 1.02 0 0 Z " fill="#403B35" transform="translate(1218,74)"/>
<path d="M0 0 C0.66 0 1.32 0 2 0 C2 0.99 2 1.98 2 3 C2.66 3 3.32 3 4 3 C4.0427 4.6661 4.0406 6.3338 4 8 C3.67 8.33 3.34 8.66 3 9 C2.7733 10.5575 2.6056 12.1238 2.4648 13.6914 C2.3778 14.6356 2.2908 15.5799 2.2012 16.5527 C2.1142 17.546 2.0271 18.5392 1.9375 19.5625 C1.8921 20.061 1.8921 20.061 1.6621 22.584 C1.4374 25.0557 1.2169 27.5276 1 30 C0.01 30.33 -0.98 30.66 -2 31 C-3.41 26.7699 -3.2244 22.7441 -3.25 18.3125 C-3.2706 17.4392 -3.2912 16.5658 -3.3125 15.666 C-3.3479 9.7423 -2.3986 5.422 0 0 Z " fill="#3C3730" transform="translate(1175,96)"/>
<path d="M0 0 C1.65 0.33 3.3 0.66 5 1 C5 1.66 5 2.32 5 3 C5.4641 3.1341 5.4641 3.1341 7.8125 3.8125 C12.4516 5.5408 12.4516 5.5408 14 8 C13.6875 10.6875 13.6875 10.6875 13 13 C11.2422 13.6797 11.2422 13.6797 9 14 C7.0703 12.8203 7.0703 12.8203 5.125 11.125 C1.7771 8.4166 -0.589 7.2206 -5 7 C-5 6.34 -5 5.68 -5 5 C-6.32 4.67 -7.64 4.34 -9 4 C-7.02 4 -5.04 4 -3 4 C-3 3.34 -3 2.68 -3 2 C-2.01 2 -1.02 2 0 2 C0 1.34 0 0.68 0 0 Z " fill="#4B4740" transform="translate(1239,77)"/>
<path d="M0 0 C1.32 0 2.64 0 4 0 C4 0.66 4 1.32 4 2 C43.6 1.67 83.2 1.34 124 1 C122 3 122 3 119.8854 3.2489 C119.0049 3.2483 118.1244 3.2478 117.2173 3.2472 C116.2077 3.2514 115.1982 3.2556 114.158 3.2599 C113.0463 3.2543 111.9345 3.2487 110.7891 3.2429 C109.6216 3.2448 108.454 3.2467 107.2512 3.2487 C104.0446 3.2517 100.8382 3.2459 97.6316 3.2357 C94.2799 3.2269 90.9283 3.2287 87.5767 3.2291 C81.9476 3.2281 76.3185 3.2195 70.6895 3.2058 C64.1763 3.1901 57.6633 3.1848 51.1501 3.1855 C44.8913 3.1862 38.6325 3.1811 32.3737 3.1728 C29.7071 3.1696 27.0405 3.1674 24.3738 3.1669 C20.6528 3.1647 16.9319 3.156 13.2109 3.1453 C12.6551 3.1455 12.6551 3.1455 9.842 3.1466 C8.8324 3.1424 7.8229 3.1381 6.7827 3.1337 C5.9022 3.132 5.0218 3.1304 4.1146 3.1286 C2 3 2 3 0 2 C0 1.34 0 0.68 0 0 Z " fill="#625D55" transform="translate(1230,154)"/>
<path d="M0 0 C0.66 0 1.32 0 2 0 C4.5637 7.691 3.526 18.5116 0.9375 26.125 C0.6281 26.7438 0.3187 27.3625 0 28 C-0.66 28 -1.32 28 -2 28 C-2.33 28.99 -2.66 29.98 -3 31 C-3.99 30.34 -4.98 29.68 -6 29 C-5.692 27.5199 -5.3785 26.0409 -5.0625 24.5625 C-4.9755 24.1506 -4.9755 24.1506 -4.5352 22.0664 C-4 20 -4 20 -3 19 C-2.7632 16.3076 -2.578 13.635 -2.4375 10.9375 C-2.3943 10.1789 -2.3511 9.4203 -2.3066 8.6387 C-2.2003 6.7593 -2.0996 4.8797 -2 3 C-1.34 4.32 -0.68 5.64 0 7 C0 4.69 0 2.38 0 0 Z " fill="#3C362F" transform="translate(1261,104)"/>
<path d="M0 0 C0.281 0.37 0.281 0.37 1.7031 2.2422 C7.2263 8.8738 13.7367 13.5516 22 16 C21.4019 16.1444 20.8038 16.2887 20.1875 16.4375 C18.4385 16.8872 16.7132 17.4289 15 18 C15 18.66 15 19.32 15 20 C8.3542 19.6502 5.1634 18.1952 0 14 C0.66 13.67 1.32 13.34 2 13 C2.66 13.33 3.32 13.66 4 14 C4 13.01 4 12.02 4 11 C4.66 11 5.32 11 6 11 C6 10.34 6 9.68 6 9 C5.34 9 4.68 9 4 9 C0.88 5.6965 0 4.6759 0 0 Z " fill="#5C5852" transform="translate(1195,131)"/>
<path d="M0 0 C38.61 0 77.22 0 117 0 C117 0.33 117 0.66 117 1 C79.71 1 42.42 1 4 1 C4 1.66 4 2.32 4 3 C2.68 2.67 1.36 2.34 0 2 C0 1.34 0 0.68 0 0 Z " fill="#807B72" transform="translate(1232,73)"/>
<path d="M0 0 C0.66 0 1.32 0 2 0 C2.0292 3.2083 2.0469 6.4166 2.0625 9.625 C2.0709 10.5286 2.0793 11.4323 2.0879 12.3633 C2.1049 17.029 1.9683 21.4101 1 26 C-0.98 25.01 -2.96 24.02 -5 23 C-5.1815 18.3708 -4.84 15.2212 -3 11 C-2.6241 9.0076 -2.2802 7.0081 -2 5 C-1.67 5 -1.34 5 -1 5 C-0.67 3.35 -0.34 1.7 0 0 Z " fill="#3F3A33" transform="translate(1389,106)"/>
<path d="M0 0 C2 1 2 1 3.3125 3.25 C8.7319 12.0816 17.363 16.2561 27 19 C27 19.66 27 20.32 27 21 C17.8596 21.5696 9.6237 16.035 2.625 10.5234 C0.2086 8.2581 -1.3602 5.8697 -3 3 C-2.01 2.67 -1.02 2.34 0 2 C0 1.34 0 0.68 0 0 Z " fill="#BBB6AC" transform="translate(1188,135)"/>
<path d="M0 0 C6.0049 6.8238 5.3089 15.2416 5.25 23.8125 C5.2577 24.9565 5.2655 26.1006 5.2734 27.2793 C5.2709 28.3692 5.2683 29.4591 5.2656 30.582 C5.2634 31.5744 5.2611 32.5667 5.2588 33.5891 C5 36 5 36 3 38 C3.33 30.08 3.66 22.16 4 14 C3.34 14 2.68 14 2 14 C2.0412 15.0725 2.0825 16.145 2.125 17.25 C1.9627 22.1192 0.6469 24.0296 -2 28 C-2.0606 27.427 -2.0606 27.427 -2.3672 24.5273 C-2.5361 22.9974 -2.7054 21.4674 -2.875 19.9375 C-2.9143 19.5614 -2.9143 19.5614 -3.1133 17.6582 C-3.6479 12.9085 -4.5591 8.5589 -6 4 C-5.34 4 -4.68 4 -4 4 C-3.01 7.3 -2.02 10.6 -1 14 C1.2081 8.8045 0.934 5.4174 0 0 Z " fill="#67635C" transform="translate(1387,92)"/>
<path d="M0 0 C0.66 0 1.32 0 2 0 C2 0.66 2 1.32 2 2 C2.66 2 3.32 2 4 2 C4.0427 3.6661 4.0406 5.3338 4 7 C3.67 7.33 3.34 7.66 3 8 C2.6252 10.4799 2.2942 12.948 2 15.4375 C1.1328 22.7345 1.1328 22.7345 0 25 C-0.66 25 -1.32 25 -2 25 C-2.0583 21.7709 -2.0937 18.542 -2.125 15.3125 C-2.1334 14.8565 -2.1334 14.8565 -2.1758 12.5488 C-2.2094 7.9315 -2.2356 4.1807 0 0 Z " fill="#39342D" transform="translate(1187,99)"/>
<path d="M0 0 C-0.33 0.66 -0.66 1.32 -1 2 C-0.01 2 0.98 2 2 2 C2 2.66 2 3.32 2 4 C4.64 4 7.28 4 10 4 C10 4.99 10 5.98 10 7 C8.9275 7.1031 7.855 7.2062 6.75 7.3125 C3.0762 7.986 1.7484 8.6587 -1 11 C-1.66 11 -2.32 11 -3 11 C-3 10.34 -3 9.68 -3 9 C-3.66 8.67 -4.32 8.34 -5 8 C-4.3606 7.7113 -3.7213 7.4225 -3.0625 7.125 C-1 6 -1 6 0 4 C-0.99 4 -1.98 4 -3 4 C-3 3.34 -3 2.68 -3 2 C-3.99 2 -4.98 2 -6 2 C-6 2.66 -6 3.32 -6 4 C-12.625 6 -12.625 6 -16 6 C-13.4999 3.9166 -10.858 2.2857 -8 0.75 C-7.67 0.5721 -7.67 0.5721 -6 -0.3281 C-3.6016 -1.1338 -2.3548 -0.82 0 0 Z " fill="#7C7770" transform="translate(1206,69)"/>
<path d="M0 0 C0 0.66 0 1.32 0 2 C-1.4688 3.1914 -1.4688 3.1914 -3.5 4.5625 C-7.7765 7.6291 -10.9896 11.2026 -14.3359 15.2422 C-14.8851 15.8223 -15.4342 16.4023 -16 17 C-16.66 17 -17.32 17 -18 17 C-16.3014 9.1245 -12.0325 5.6364 -5.7461 0.918 C-4 0 -4 0 0 0 Z " fill="#CDC8BD" transform="translate(1203,78)"/>
<path d="M0 0 C0.2009 3.716 0.1519 4.7721 -2 8 C-4.3828 8.9492 -4.3828 8.9492 -7.125 9.6875 C-7.58 9.8132 -7.58 9.8132 -9.8828 10.4492 C-10.5815 10.631 -11.2802 10.8127 -12 11 C-12 10.34 -12 9.68 -12 9 C-12.66 8.67 -13.32 8.34 -14 8 C-12.68 7.67 -11.36 7.34 -10 7 C-10.33 6.01 -10.66 5.02 -11 4 C-10 3 -10 3 -7.4375 2.9375 C-7.0353 2.9478 -7.0353 2.9478 -5 3 C-5 2.34 -5 1.68 -5 1 C-1.125 0 -1.125 0 0 0 Z " fill="#433E37" transform="translate(1249,142)"/>
<path d="M0 0 C0.33 0.99 0.66 1.98 1 3 C1.99 2.67 2.98 2.34 4 2 C2.6667 5.3333 1.3333 8.6667 0 12 C-0.33 12 -0.66 12 -1 12 C-1 10.35 -1 8.7 -1 7 C-1.66 7 -2.32 7 -3 7 C-3 6.34 -3 5.68 -3 5 C-3.66 5 -4.32 5 -5 5 C-5.7664 8.4609 -6.1715 11.7608 -6.3164 15.3008 C-6.3583 16.2772 -6.4002 17.2537 -6.4434 18.2598 C-6.4827 19.2672 -6.522 20.2746 -6.5625 21.3125 C-6.6057 22.3392 -6.6489 23.366 -6.6934 24.4238 C-6.7991 26.9491 -6.9012 29.4745 -7 32 C-7.33 32 -7.66 32 -8 32 C-8.0878 28.3127 -8.1406 24.6256 -8.1875 20.9375 C-8.2001 20.4183 -8.2001 20.4183 -8.2637 17.791 C-8.3212 11.7482 -8.0503 7.2847 -5 2 C-2.875 1.125 -2.875 1.125 -1 1 C-0.67 0.67 -0.34 0.34 0 0 Z " fill="#57534C" transform="translate(1192,94)"/>
<path d="M0 0 C0.33 0.66 0.66 1.32 1 2 C0.67 2.99 0.34 3.98 0 5 C0.66 5 1.32 5 2 5 C2 5.99 2 6.98 2 8 C2.66 8.33 3.32 8.66 4 9 C3.01 11.97 2.02 14.94 1 18 C0.67 18 0.34 18 0 18 C0 16.35 0 14.7 0 13 C-0.66 13 -1.32 13 -2 13 C-2 12.01 -2 11.02 -2 10 C-2.66 10 -3.32 10 -4 10 C-4.1237 10.7631 -4.2475 11.5263 -4.375 12.3125 C-5 15 -5 15 -7 18 C-7.3383 13.141 -6.4992 10.3786 -4.0625 6.1875 C-3.5172 5.2323 -2.972 4.2771 -2.4102 3.293 C-1 1 -1 1 0 0 Z " fill="#605C56" transform="translate(1179,86)"/>
<path d="M0 0 C1.875 0.5 1.875 0.5 4 2 C5.6325 6.4522 6.261 8.8038 5.25 13.4375 C4 16 4 16 2 17 C0.5774 13.1768 -0.2404 10.0872 0 6 C-0.66 6 -1.32 6 -2 6 C-2 5.01 -2 4.02 -2 3 C-1.34 3 -0.68 3 0 3 C0 2.01 0 1.02 0 0 Z " fill="#3D3831" transform="translate(1383,90)"/>
<path d="M0 0 C0.66 0 1.32 0 2 0 C2 6.93 2 13.86 2 21 C1.34 21 0.68 21 0 21 C0 21.66 0 22.32 0 23 C-0.66 23 -1.32 23 -2 23 C-2.0545 20.4789 -2.0939 17.9589 -2.125 15.4375 C-2.1418 14.733 -2.1585 14.0286 -2.1758 13.3027 C-2.2202 8.4811 -1.5277 4.577 0 0 Z " fill="#E9E4D9" transform="translate(1181,101)"/>
</svg>
