<?xml version="1.0" encoding="UTF-8"?>
<!-- Generator: visioncortex VTracer 0.6.12 -->
<svg version="1.1" xmlns="http://www.w3.org/2000/svg" width="1600" height="474">
<path d="M0 0 C528 0 1056 0 1600 0 C1600 156.42 1600 312.84 1600 474 C1072 474 544 474 0 474 C0 317.58 0 161.16 0 0 Z " fill="#FEFEFE" transform="translate(0,0)"/>
<path d="M0 0 C528 0 1056 0 1600 0 C1600 156.42 1600 312.84 1600 474 C1072 474 544 474 0 474 C0 317.58 0 161.16 0 0 Z M1291.5039 5.0312 C1280.5926 5.498 1271.7325 12.923 1264.6133 20.625 C1260.3633 25.7004 1258.6141 31.6421 1257 38 C1256.7976 38.6291 1256.5952 39.2581 1256.3867 39.9062 C1255.7752 43.2173 1256 46.6329 1256 50 C878.48 50 500.96 50 112 50 C112 50.66 112 51.32 112 52 C111.2652 51.9484 110.5305 51.8969 109.7734 51.8438 C103.404 52.2026 98.2629 57.4425 94.1875 62 C88.5897 68.8186 85.8824 73.6453 85.8658 82.5296 C85.8613 83.6358 85.8569 84.742 85.8523 85.8817 C85.8525 87.0917 85.8526 88.3017 85.8528 89.5483 C85.8492 90.8379 85.8455 92.1275 85.8417 93.4562 C85.8317 97.0341 85.828 100.612 85.8253 104.1899 C85.8214 108.0497 85.8118 111.9094 85.8031 115.7692 C85.7833 125.0902 85.7733 134.4112 85.7644 143.7323 C85.76 148.1248 85.7546 152.5173 85.7494 156.9099 C85.7324 171.5173 85.7179 186.1247 85.7106 200.7321 C85.7087 204.5214 85.7068 208.3108 85.7048 212.1001 C85.7044 213.0419 85.7039 213.9837 85.7034 214.954 C85.6951 230.2027 85.6697 245.4513 85.6373 260.7 C85.6042 276.3656 85.5862 292.0311 85.583 307.6968 C85.5808 316.4883 85.5721 325.2797 85.5465 334.0712 C85.5248 341.5601 85.5168 349.0489 85.5265 356.5379 C85.531 360.3552 85.5292 364.1723 85.5097 367.9896 C85.4887 372.1385 85.4991 376.2868 85.5123 380.4358 C85.5013 381.6279 85.4903 382.8201 85.479 384.0484 C85.5673 395.6442 87.7001 405.8023 96.0703 414.2031 C96.3887 414.4996 96.3887 414.4996 98 416 C98.3816 416.3816 98.3816 416.3816 100.3125 418.3125 C111.2179 425.1601 122.4898 424.5652 134.9042 424.5062 C137.052 424.5106 139.1998 424.5169 141.3476 424.5247 C147.2599 424.5411 153.172 424.5326 159.0843 424.5201 C165.5126 424.5108 171.9408 424.5247 178.3691 424.5357 C189.6389 424.5524 200.9087 424.5529 212.1785 424.5441 C224.2697 424.5347 236.3609 424.534 248.4521 424.5439 C249.216 424.5445 249.98 424.5451 250.7672 424.5458 C253.8788 424.5483 256.9904 424.5509 260.102 424.5536 C291.6842 424.5808 323.2664 424.5822 354.8486 424.5736 C359.2121 424.5725 363.5757 424.5713 367.9392 424.5702 C368.8059 424.57 369.6726 424.5698 370.5656 424.5696 C389.7728 424.5649 408.98 424.5684 428.1871 424.5735 C430.8158 424.5742 433.4445 424.5749 436.0732 424.5756 C443.1197 424.5774 450.1663 424.5792 457.2129 424.5811 C476.9114 424.5863 496.6099 424.5902 516.3084 424.5928 C516.7569 424.5929 516.7569 424.5929 519.0267 424.5932 C547.613 424.597 576.1993 424.5944 604.7856 424.5876 C605.7128 424.5874 606.6401 424.5871 607.5954 424.5869 C617.9353 424.5845 628.2752 424.5819 638.6151 424.5793 C639.5486 424.5791 640.4822 424.5788 641.444 424.5786 C645.2193 424.5776 648.9946 424.5767 652.77 424.5757 C712.4908 424.5604 772.2116 424.5684 831.9324 424.5969 C846.9817 424.6041 862.0311 424.6112 877.0805 424.6179 C877.5438 424.6181 877.5438 424.6181 879.8884 424.6192 C908.4439 424.6318 936.9994 424.6384 965.5549 424.6383 C966.4513 424.6383 967.3477 424.6383 968.2712 424.6383 C987.9484 424.6382 1007.6256 424.6366 1027.3027 424.6335 C1034.3434 424.6324 1041.384 424.6315 1048.4246 424.6305 C1050.1761 424.6303 1051.9276 424.63 1053.6792 424.6298 C1081.5955 424.6258 1109.5119 424.6358 1137.4283 424.6525 C1166.322 424.6696 1195.2158 424.6682 1224.1095 424.6456 C1227.2119 424.6432 1230.3142 424.6409 1233.4165 424.6387 C1234.1779 424.6382 1234.9393 424.6376 1235.7237 424.637 C1247.7822 424.6288 1259.8407 424.6373 1271.8992 424.6527 C1283.7546 424.6675 1295.6099 424.6641 1307.4653 424.6425 C1313.8078 424.6314 1320.15 424.6283 1326.4925 424.6471 C1332.2616 424.6641 1338.0301 424.6581 1343.7992 424.6337 C1345.874 424.6289 1347.9489 424.6326 1350.0237 424.6456 C1371.7852 424.7727 1371.7852 424.7727 1380 419 C1381.121 416.9712 1381.121 416.9712 1382 415 C1382.4744 414.6287 1382.4744 414.6287 1384.875 412.75 C1388.4997 409.8805 1390.5264 406.36 1392 402 C1392 400.68 1392 399.36 1392 398 C1392.66 398 1393.32 398 1394 398 C1394.0916 357.4212 1394.1621 316.8423 1394.2043 276.2634 C1394.2093 271.4708 1394.2144 266.6781 1394.2197 261.8855 C1394.2208 260.9314 1394.2218 259.9773 1394.2229 258.9943 C1394.2403 243.5531 1394.2718 228.112 1394.3086 212.671 C1394.346 196.8225 1394.3682 180.974 1394.3764 165.1255 C1394.3818 155.3491 1394.3991 145.5729 1394.4317 135.7965 C1394.4528 129.0891 1394.4592 122.3817 1394.454 115.6742 C1394.4514 111.8065 1394.4553 107.9391 1394.4768 104.0714 C1394.5 99.8711 1394.4919 95.6715 1394.481 91.4712 C1394.4927 90.2582 1394.5043 89.0451 1394.5163 87.7953 C1394.441 77.0424 1392.1968 68.5543 1384.6836 60.6562 C1384.128 60.1097 1383.5724 59.5631 1383 59 C1382.514 58.4766 1382.028 57.9533 1381.5273 57.4141 C1377.4977 53.6833 1372.3023 51.9641 1367 51 C1366.67 50.34 1366.34 49.68 1366 49 C1358.08 49 1350.16 49 1342 49 C1342 46.03 1342 43.06 1342 40 C1341.1953 37.1094 1341.1953 37.1094 1340.125 34.75 C1339.777 33.9611 1339.4289 33.1722 1339.0703 32.3594 C1338.7171 31.5808 1338.3639 30.8022 1338 30 C1337.3261 28.3362 1336.6575 26.6703 1336 25 C1335.34 25 1334.68 25 1334 25 C1333.902 24.4122 1333.8041 23.8244 1333.7031 23.2188 C1332.8604 20.5595 1331.7556 19.4184 1329.75 17.5 C1329.1673 16.9328 1328.5847 16.3656 1327.9844 15.7812 C1318.8726 7.6022 1309.4943 4.2385 1297.2148 4.7812 C1295.3138 4.9106 1293.4092 5.0074 1291.5039 5.0312 Z " fill="#FEFEFE" transform="translate(0,0)"/>
<path d="M0 0 C377.52 0 755.04 0 1144 0 C1144 2.97 1144 5.94 1144 9 C1143.0098 8.9998 1142.0197 8.9996 1140.9995 8.9993 C1107.098 8.9917 1073.1965 8.9857 1039.2949 8.9807 C1038.612 8.9806 1037.929 8.9805 1037.2254 8.9804 C964.0551 8.9698 890.8848 8.9693 817.7145 8.9896 C816.0894 8.9901 814.4643 8.9905 812.8393 8.991 C778.7297 9.0004 744.6201 9.0113 710.5105 9.0238 C693.3765 9.0301 676.2424 9.0361 659.1084 9.0419 C656.5238 9.0427 653.9391 9.0436 651.3545 9.0445 C611.5487 9.0579 571.7429 9.0655 531.9371 9.0558 C531.0811 9.0556 530.225 9.0554 529.3431 9.0552 C515.5408 9.0518 501.7386 9.0479 487.9364 9.0439 C448.1881 9.0326 408.4398 9.0249 368.6915 9.0416 C367.8744 9.0419 367.0572 9.0422 366.2153 9.0426 C348.2777 9.0502 330.34 9.0596 312.4024 9.0708 C305.1852 9.0753 297.9681 9.0796 290.7509 9.0837 C289.961 9.0841 289.1711 9.0846 288.3572 9.0851 C262.8949 9.0997 237.4327 9.0921 211.9704 9.0729 C186.327 9.0537 160.6837 9.0562 135.0403 9.0889 C131.4987 9.0935 127.957 9.0977 124.4153 9.1018 C123.721 9.1027 123.0267 9.1035 122.3114 9.1043 C111.3069 9.1166 100.3025 9.1054 89.298 9.0843 C78.4835 9.0641 67.6692 9.0694 56.8547 9.1 C51.0668 9.1157 45.2794 9.1201 39.4915 9.0939 C34.23 9.0703 28.9697 9.0786 23.7083 9.1129 C21.8128 9.1196 19.9172 9.1144 18.0218 9.0962 C2.1477 8.9544 2.1477 8.9544 -3.0512 13.5548 C-4.0343 14.703 -5.0173 15.8514 -6 17 C-6.66 17 -7.32 17 -8 17 C-8.1238 17.6394 -8.2475 18.2788 -8.375 18.9375 C-8.4781 19.2778 -8.4781 19.2778 -9 21 C-9.66 21.33 -10.32 21.66 -11 22 C-15.4329 28.9024 -15.5702 34.7966 -15.5147 42.8601 C-15.5216 44.1469 -15.5286 45.4337 -15.5357 46.7595 C-15.5543 50.3157 -15.5481 53.8714 -15.5376 57.4276 C-15.5306 61.2689 -15.5466 65.1101 -15.5596 68.9514 C-15.5812 76.4705 -15.5811 83.9895 -15.5729 91.5086 C-15.5666 97.6211 -15.5678 103.7335 -15.5742 109.8459 C-15.5751 110.7165 -15.576 111.587 -15.5769 112.484 C-15.5788 114.2526 -15.5806 116.0212 -15.5825 117.7898 C-15.5991 134.3684 -15.5904 150.9469 -15.5735 167.5255 C-15.5588 182.6862 -15.5735 197.8467 -15.6023 213.0074 C-15.6317 228.5827 -15.6427 244.1579 -15.6331 259.7332 C-15.6321 261.4956 -15.6311 263.2579 -15.6301 265.0203 C-15.6297 265.8873 -15.6292 266.7544 -15.6287 267.6478 C-15.6265 273.7506 -15.6363 279.8534 -15.6509 285.9562 C-15.6684 293.3969 -15.6683 300.8374 -15.6456 308.2781 C-15.6344 312.0727 -15.6312 315.8669 -15.6499 319.6616 C-15.6698 323.779 -15.6509 327.8955 -15.6282 332.0129 C-15.64 333.2069 -15.6519 334.4009 -15.6641 335.631 C-15.5726 343.8072 -13.997 349.8618 -8.2153 355.8477 C-2.0901 361.5076 3.5419 363.4489 11.7423 363.376 C12.6161 363.3803 13.4898 363.3845 14.3901 363.3888 C17.3324 363.3993 20.2742 363.3883 23.2164 363.3775 C25.3505 363.3807 27.4845 363.3851 29.6186 363.3907 C35.516 363.4025 41.4133 363.3954 47.3107 363.3854 C53.7141 363.3778 60.1175 363.3876 66.5209 363.3951 C77.7548 363.4065 88.9886 363.4057 100.2225 363.398 C112.2787 363.3897 124.3349 363.388 136.3911 363.3942 C137.1521 363.3946 137.9131 363.395 138.6971 363.3954 C141.7964 363.397 144.8957 363.3986 147.995 363.4003 C176.8761 363.4162 205.7573 363.4173 234.6384 363.4089 C235.4946 363.4086 236.3508 363.4084 237.2329 363.4081 C237.6617 363.408 237.6617 363.408 239.8316 363.4074 C265.9394 363.3998 292.0473 363.3979 318.1552 363.4014 C319.9024 363.4017 321.6495 363.4019 323.3967 363.4021 C330.4175 363.4031 337.4383 363.404 344.4592 363.405 C364.0867 363.4078 383.7142 363.4095 403.3417 363.4104 C404.2355 363.4104 405.1294 363.4105 406.0503 363.4105 C434.5412 363.4117 463.032 363.4083 491.5228 363.4018 C492.4471 363.4016 493.3715 363.4014 494.3238 363.4012 C509.3351 363.3978 524.3463 363.3941 539.3576 363.3904 C598.8867 363.3759 658.4157 363.3765 717.9448 363.3911 C732.9437 363.3948 747.9426 363.3984 762.9414 363.4018 C763.4032 363.4019 763.4032 363.4019 765.7399 363.4025 C794.197 363.4089 822.6541 363.4117 851.1112 363.4104 C852.0044 363.4103 852.8977 363.4103 853.818 363.4103 C873.426 363.4093 893.0341 363.4074 912.6421 363.4046 C919.658 363.4037 926.6738 363.4027 933.6897 363.4018 C935.4351 363.4016 937.1806 363.4013 938.926 363.4011 C965.025 363.3975 991.1239 363.4006 1017.2229 363.4081 C1018.0787 363.4084 1018.9346 363.4086 1019.8164 363.4089 C1020.2435 363.409 1020.2435 363.409 1022.4051 363.4096 C1051.2061 363.4179 1080.0071 363.4149 1108.8081 363.399 C1111.8998 363.3974 1114.9916 363.3958 1118.0833 363.3942 C1118.4627 363.394 1118.4627 363.394 1120.3826 363.393 C1132.4056 363.3871 1144.4285 363.3912 1156.4515 363.3995 C1168.2687 363.4074 1180.086 363.4044 1191.9032 363.3905 C1198.2268 363.3833 1204.5502 363.3809 1210.8737 363.3917 C1216.6232 363.4014 1222.3725 363.3973 1228.1219 363.3821 C1230.192 363.3791 1232.262 363.3811 1234.3321 363.3888 C1256.4548 363.4645 1256.4548 363.4645 1262 360 C1263.1417 357.9898 1263.1417 357.9898 1264 356 C1265 355 1266 354 1267 353 C1267.33 352.01 1267.66 351.02 1268 350 C1268.66 350 1269.32 350 1270 350 C1270.9521 346.7855 1271.1294 343.8881 1271.1387 340.5415 C1271.1414 339.9836 1271.1414 339.9836 1271.1553 337.1606 C1271.1562 335.935 1271.1572 334.7093 1271.1582 333.4465 C1271.1632 332.1445 1271.1681 330.8425 1271.1732 329.5011 C1271.1868 325.8844 1271.1942 322.2677 1271.2006 318.6511 C1271.2086 314.752 1271.2223 310.8529 1271.2353 306.9538 C1271.2571 300.1975 1271.2752 293.4411 1271.2909 286.6848 C1271.3136 276.9162 1271.3418 267.1476 1271.3712 257.379 C1271.4189 241.5307 1271.4622 225.6823 1271.5027 209.834 C1271.542 194.4375 1271.5835 179.041 1271.6277 163.6445 C1271.6304 162.6957 1271.6331 161.7469 1271.6359 160.7693 C1271.6496 156.0095 1271.6633 151.2496 1271.6771 146.4898 C1271.791 106.9932 1271.8979 67.4966 1272 28 C1271.34 28 1270.68 28 1270 28 C1269.8041 27.3916 1269.8041 27.3916 1268.8125 24.3125 C1266.9438 19.4523 1264.6853 16.4008 1259.9519 13.9316 C1253.1975 11.0188 1247.1841 10.3523 1239.875 10.25 C1238.8231 10.2204 1237.7713 10.1907 1236.6875 10.1602 C1234.1249 10.0903 1231.5632 10.0372 1229 10 C1228.9731 8.5209 1228.9537 7.0417 1228.9375 5.5625 C1228.9259 4.7388 1228.9143 3.9151 1228.9023 3.0664 C1229 1 1229 1 1230 0 C1233.8039 -0.312 1237.6224 -0.2787 1241.4375 -0.3125 C1242.4939 -0.3415 1243.5503 -0.3705 1244.6387 -0.4004 C1256.2826 -0.4937 1265.2285 3.3566 1273.6875 11.375 C1281.9703 19.9497 1282.2942 29.7007 1282.2405 40.9902 C1282.2422 42.3029 1282.2439 43.6157 1282.2457 44.9682 C1282.2501 48.6009 1282.2422 52.2335 1282.2321 55.8662 C1282.2235 59.7877 1282.2264 63.7093 1282.2279 67.6308 C1282.229 74.4215 1282.2227 81.2121 1282.2115 88.0028 C1282.1952 97.8209 1282.19 107.6391 1282.1875 117.4572 C1282.1831 133.3871 1282.1698 149.317 1282.1509 165.2468 C1282.1325 180.7198 1282.1184 196.1928 1282.1099 211.6658 C1282.1093 212.6198 1282.1088 213.5738 1282.1083 214.5567 C1282.1057 219.3427 1282.1031 224.1287 1282.1006 228.9147 C1282.0799 268.6098 1282.0447 308.3049 1282 348 C1281.34 348 1280.68 348 1280 348 C1279.9588 348.4228 1279.9588 348.4228 1279.75 350.5625 C1278.1425 357.93 1274.6384 361.4893 1269 366 C1268.67 366.99 1268.34 367.98 1268 369 C1258.1786 375.758 1246.3143 374.6976 1234.97 374.6264 C1232.8207 374.6313 1230.6714 374.6384 1228.5222 374.6475 C1222.6104 374.6662 1216.699 374.6537 1210.7873 374.6361 C1204.3579 374.6226 1197.9286 374.638 1191.4992 374.6497 C1180.2291 374.6671 1168.959 374.6643 1157.6888 374.6499 C1145.598 374.6345 1133.5073 374.63 1121.4165 374.6387 C1120.6524 374.6393 1119.8883 374.6398 1119.1011 374.6404 C1115.9889 374.6426 1112.8767 374.645 1109.7646 374.6474 C1080.787 374.6701 1051.8094 374.6683 1022.8318 374.6509 C994.9057 374.6342 966.9796 374.6261 939.0536 374.6301 C937.3 374.6304 935.5464 374.6306 933.7928 374.6309 C926.7459 374.6318 919.699 374.6328 912.6521 374.6339 C892.953 374.637 873.2539 374.6383 853.5549 374.6383 C852.6578 374.6383 851.7607 374.6383 850.8365 374.6383 C822.2512 374.6382 793.6658 374.6307 765.0805 374.6179 C764.1533 374.6175 763.2261 374.6171 762.2708 374.6167 C747.2139 374.6099 732.1569 374.6028 717.0999 374.5956 C657.379 374.5671 597.6582 374.5611 537.9373 374.5764 C534.1632 374.5774 530.3891 374.5783 526.6151 374.5793 C525.682 374.5795 524.7488 374.5798 523.7874 374.58 C513.4535 374.5826 503.1195 374.5852 492.7856 374.5876 C491.8589 374.5878 490.9322 374.588 489.9774 374.5883 C461.421 374.595 432.8647 374.5967 404.3084 374.5928 C403.8602 374.5928 403.8602 374.5928 401.592 374.5925 C381.9155 374.5897 362.2389 374.5857 342.5624 374.5804 C335.5221 374.5785 328.4818 374.5767 321.4415 374.5749 C318.8157 374.5742 316.19 374.5735 313.5642 374.5728 C294.3559 374.5677 275.1476 374.5654 255.9392 374.5702 C255.0735 374.5705 254.2078 374.5707 253.3158 374.5709 C248.9569 374.572 244.5981 374.5732 240.2392 374.5743 C208.7452 374.5829 177.2514 374.5787 145.7574 374.5516 C142.6557 374.549 139.5539 374.5464 136.4521 374.5439 C135.6908 374.5433 134.9296 374.5427 134.1453 374.542 C122.086 374.5325 110.0268 374.5364 97.9676 374.5458 C86.1132 374.5548 74.2589 374.5492 62.4045 374.5289 C56.0619 374.5185 49.7195 374.5145 43.3769 374.5279 C37.609 374.54 31.8414 374.5338 26.0735 374.5128 C23.9979 374.5084 21.9223 374.5108 19.8467 374.5207 C4.6604 374.5877 -6.3739 373.6077 -17.6797 362.6562 C-20.8431 359.0348 -22.6395 355.5789 -24 351 C-24.3389 350.0623 -24.6777 349.1246 -25.0269 348.1584 C-26.5956 342.603 -26.2751 336.8901 -26.254 331.164 C-26.2555 330.5159 -26.2555 330.5159 -26.2634 327.2361 C-26.2718 323.6491 -26.2677 320.0623 -26.2614 316.4754 C-26.2569 312.6028 -26.2639 308.7303 -26.2694 304.8577 C-26.2783 297.276 -26.2764 289.6943 -26.2706 282.1126 C-26.2661 275.951 -26.2655 269.7894 -26.2676 263.6278 C-26.2679 262.7507 -26.2682 261.8736 -26.2686 260.9699 C-26.2692 259.188 -26.2698 257.4062 -26.2705 255.6244 C-26.2762 238.9191 -26.2697 222.2138 -26.2589 205.5085 C-26.25 191.174 -26.2515 176.8396 -26.2607 162.5051 C-26.2714 145.8578 -26.2757 129.2106 -26.2695 112.5633 C-26.2689 110.7883 -26.2683 109.0134 -26.2676 107.2384 C-26.2673 106.3651 -26.267 105.4918 -26.2667 104.592 C-26.265 98.4372 -26.2679 92.2824 -26.2726 86.1275 C-26.2782 78.6279 -26.2767 71.1282 -26.266 63.6286 C-26.2608 59.802 -26.2587 55.9756 -26.2653 52.149 C-26.2724 48.0023 -26.264 43.8557 -26.254 39.709 C-26.2584 38.4978 -26.2629 37.2866 -26.2675 36.0387 C-26.2623 34.9269 -26.2571 33.815 -26.2517 32.6694 C-26.2514 31.7125 -26.251 30.7556 -26.2507 29.7697 C-25.3187 19.4726 -18.624 12.1209 -11.1484 5.6289 C-7.3377 2.7397 -4.8058 1.733 0 2 C0 1.34 0 0.68 0 0 Z " fill="#413C35" transform="translate(112,50)"/>
<path d="M0 0 C12.7082 -0.5483 21.7902 2.8368 31.0938 11.3477 C33.1404 13.2401 34.9429 15.1106 36.7812 17.2227 C36.7812 18.2127 36.7812 19.2027 36.7812 20.2227 C37.4413 20.2227 38.1012 20.2227 38.7812 20.2227 C39.5008 21.8674 40.2165 23.5138 40.9141 25.168 C41.4773 26.5025 42.0547 27.8311 42.6484 29.1523 C45.0354 34.8129 44.7812 37.4817 44.7812 44.2227 C52.7013 44.2227 60.6212 44.2227 68.7812 44.2227 C68.7812 44.5527 68.7812 44.8827 68.7812 45.2227 C64.8212 45.3877 64.8212 45.3877 44.7812 46.2227 C44.7812 53.1527 44.7812 60.0827 44.7812 67.2227 C46.4313 67.8827 48.0812 68.5427 49.7812 69.2227 C52.5973 75.3922 52.0703 82.1304 52.0469 88.7969 C52.0488 89.9983 52.0507 91.1997 52.0527 92.4375 C52.054 94.9682 52.0504 97.4989 52.042 100.0295 C52.0313 103.9072 52.0419 107.7844 52.0547 111.6621 C52.0534 114.1237 52.0508 116.5853 52.0469 119.0469 C52.0509 120.2073 52.055 121.3678 52.0591 122.5634 C52.0528 123.6416 52.0465 124.7199 52.04 125.8308 C52.0392 126.3043 52.0392 126.3043 52.0352 128.7007 C51.5573 133.4463 49.2999 136.1305 45.7812 139.2227 C42.2416 140.4025 39.3987 140.3493 35.6641 140.3633 C34.2383 140.3816 32.8125 140.4012 31.3867 140.4219 C29.1461 140.4508 26.9064 140.4727 24.6655 140.4731 C22.4975 140.4765 20.3317 140.5111 18.1641 140.5508 C16.8687 140.5601 15.5734 140.5695 14.2388 140.5791 C10.7812 141.2227 10.7812 141.2227 8.9108 143.7241 C6.1686 146.5816 3.732 146.6603 -0.142 146.846 C-2.6773 146.8708 -5.2131 146.8677 -7.7484 146.8435 C-9.1645 146.8478 -10.5806 146.8543 -11.9967 146.8628 C-15.9056 146.8798 -19.8137 146.8656 -23.7225 146.8464 C-27.9683 146.831 -32.2141 146.8446 -36.4599 146.8546 C-43.9069 146.8681 -51.3538 146.8629 -58.8009 146.8456 C-69.8747 146.82 -80.9484 146.8229 -92.0223 146.8316 C-110.6503 146.8455 -129.2782 146.8358 -147.9062 146.8124 C-166.3596 146.7893 -184.8129 146.7756 -203.2662 146.7749 C-204.4129 146.7749 -205.5596 146.7748 -206.741 146.7748 C-211.3954 146.7746 -216.0499 146.7744 -220.7043 146.7744 C-264.3929 146.7741 -308.0815 146.747 -351.7702 146.7062 C-390.6071 146.6701 -429.444 146.651 -468.281 146.6482 C-469.5157 146.6481 -470.7505 146.648 -472.0226 146.6479 C-475.7579 146.6476 -479.4933 146.6474 -483.2286 146.6471 C-488.1896 146.6467 -493.1506 146.6464 -498.1116 146.646 C-499.3357 146.6459 -500.5598 146.6458 -501.8209 146.6457 C-540.0488 146.6427 -578.2766 146.6253 -616.5045 146.6053 C-629.1956 146.5987 -641.8867 146.593 -654.5778 146.5901 C-655.1496 146.59 -655.1496 146.59 -658.0435 146.5893 C-659.1849 146.5891 -660.3263 146.5888 -661.5023 146.5885 C-683.4629 146.5835 -705.4234 146.5723 -727.3839 146.5472 C-738.3961 146.5348 -749.4082 146.5278 -760.4204 146.5286 C-767.7682 146.5285 -775.1161 146.5212 -782.464 146.5079 C-786.6557 146.5005 -790.8475 146.4963 -795.0392 146.5008 C-798.8498 146.5048 -802.6602 146.4997 -806.4707 146.4871 C-808.4927 146.4829 -810.5146 146.4884 -812.5366 146.4943 C-813.1361 146.4914 -813.1361 146.4914 -816.1702 146.4768 C-816.6857 146.4764 -816.6857 146.4764 -819.2949 146.4744 C-822.5494 146.1942 -825.1961 145.4494 -828.2188 144.2227 C-830.3291 141.4068 -830.4768 139.1048 -830.1562 135.6602 C-830.1034 134.8957 -830.0505 134.1313 -829.9961 133.3438 C-828.8615 130.2478 -827.1255 129.666 -824.2188 128.2227 C-821.5566 127.8486 -821.5566 127.8486 -818.6284 127.8501 C-817.5063 127.8433 -816.3842 127.8366 -815.228 127.8296 C-813.9978 127.8375 -812.7676 127.8454 -811.5 127.8535 C-810.1858 127.8501 -808.8715 127.8466 -807.5174 127.843 C-803.8547 127.8338 -800.1922 127.8434 -796.5295 127.8559 C-792.5505 127.8661 -788.5714 127.8591 -784.5924 127.8541 C-777.6138 127.8479 -770.6353 127.8528 -763.6568 127.865 C-753.2799 127.8831 -742.9031 127.884 -732.5262 127.8814 C-715.0718 127.8775 -697.6176 127.8875 -680.1633 127.9055 C-662.8766 127.9232 -645.59 127.9348 -628.3033 127.938 C-627.2292 127.9382 -626.1552 127.9384 -625.0485 127.9386 C-619.594 127.9397 -614.1396 127.9406 -608.6851 127.9414 C-570.032 127.9477 -531.3789 127.968 -492.7258 127.9963 C-455.1705 128.0239 -417.6152 128.0451 -380.0598 128.0579 C-379.4812 128.0581 -379.4812 128.0581 -376.553 128.0591 C-364.9318 128.063 -353.3106 128.0668 -341.6893 128.0706 C-318.0147 128.0782 -294.34 128.0866 -270.6654 128.0956 C-269.5768 128.096 -268.4882 128.0965 -267.3667 128.0969 C-194.6507 128.1245 -121.9347 128.172 -49.2188 128.2227 C-49.2343 127.5617 -49.2498 126.9007 -49.2659 126.2197 C-49.421 119.3254 -49.5264 112.4315 -49.6033 105.5359 C-49.6384 102.9644 -49.6862 100.393 -49.7468 97.822 C-49.832 94.1206 -49.8715 90.421 -49.9023 86.7188 C-49.9385 85.5737 -49.9746 84.4286 -50.0118 83.2489 C-50.0146 77.6108 -49.8257 74.1114 -45.801 69.9417 C-42.6598 67.2227 -42.6598 67.2227 -40.2188 67.2227 C-40.2188 63.2627 -40.2188 59.3027 -40.2188 55.2227 C-40.7142 55.2231 -40.7142 55.2231 -43.2216 55.2253 C-77.1488 55.255 -111.076 55.2847 -145.0032 55.3145 C-145.6866 55.3151 -146.3701 55.3157 -147.0742 55.3163 C-220.2882 55.3804 -293.5021 55.4445 -366.716 55.5087 C-368.3418 55.5101 -369.9675 55.5115 -371.5933 55.5129 C-405.7164 55.5428 -439.8395 55.5727 -473.9626 55.6026 C-491.1031 55.6176 -508.2435 55.6326 -525.384 55.6476 C-527.9696 55.6499 -530.5552 55.6522 -533.1409 55.6544 C-572.9689 55.6893 -612.7969 55.7242 -652.6249 55.7591 C-653.4817 55.7598 -654.3384 55.7606 -655.2211 55.7614 C-669.0346 55.7735 -682.8482 55.7856 -696.6617 55.7977 C-736.4354 55.8325 -776.2092 55.8674 -815.9829 55.9022 C-816.8003 55.9029 -817.6178 55.9036 -818.46 55.9044 C-836.4021 55.9201 -854.3442 55.9358 -872.2863 55.9515 C-879.505 55.9578 -886.7236 55.9642 -893.9423 55.9705 C-894.3373 55.9708 -894.3373 55.9708 -896.3364 55.9726 C-921.8175 55.9949 -947.2987 56.0172 -972.7798 56.0395 C-998.4354 56.062 -1024.091 56.0845 -1049.7465 56.107 C-1053.2873 56.1101 -1056.8282 56.1132 -1060.369 56.1163 C-1061.0631 56.1169 -1061.7572 56.1175 -1062.4724 56.1181 C-1073.4885 56.1277 -1084.5047 56.1374 -1095.5208 56.1471 C-1106.3382 56.1565 -1117.1557 56.166 -1127.9732 56.1755 C-1133.766 56.1805 -1139.5589 56.1856 -1145.3517 56.1907 C-1150.6115 56.1953 -1155.8713 56.1999 -1161.1311 56.2045 C-1163.0318 56.2062 -1164.9325 56.2078 -1166.8332 56.2095 C-1169.3966 56.2118 -1171.9601 56.214 -1174.5236 56.2162 C-1174.8963 56.2166 -1174.8963 56.2166 -1176.7822 56.2182 C-1179.5944 56.2207 -1182.4066 56.2227 -1185.2188 56.2227 C-1182.7358 53.7397 -1181.3021 53.9826 -1177.914 53.9591 C-1177.5401 53.9616 -1177.5401 53.9616 -1175.6478 53.9743 C-1175.25 53.973 -1175.25 53.973 -1173.2369 53.9665 C-1170.5371 53.9603 -1167.8375 53.9686 -1165.1376 53.9766 C-1163.1877 53.9751 -1161.2378 53.9727 -1159.2878 53.9696 C-1153.8831 53.9634 -1148.4784 53.9698 -1143.0736 53.9781 C-1137.2113 53.985 -1131.3491 53.9803 -1125.4868 53.977 C-1115.197 53.9728 -1104.9073 53.9761 -1094.6176 53.9842 C-1083.5724 53.993 -1072.5273 53.9974 -1061.4821 53.9964 C-1060.7855 53.9964 -1060.0889 53.9963 -1059.3711 53.9963 C-1055.8194 53.996 -1052.2676 53.9956 -1048.7158 53.9952 C-1022.9817 53.9923 -997.2476 53.9992 -971.5135 54.0112 C-946.0214 54.023 -920.5293 54.0307 -895.0371 54.0329 C-894.246 54.033 -893.4549 54.033 -892.6398 54.0331 C-885.4144 54.0337 -878.189 54.0343 -870.9635 54.0348 C-853.0004 54.0361 -835.0372 54.038 -817.0741 54.0404 C-816.256 54.0405 -815.4379 54.0406 -814.595 54.0407 C-774.7809 54.0459 -734.9669 54.0586 -695.1528 54.0718 C-681.3331 54.0764 -667.5133 54.0809 -653.6936 54.0853 C-652.8365 54.0856 -651.9794 54.0859 -651.0964 54.0862 C-611.2675 54.0988 -571.4386 54.1063 -531.6097 54.1124 C-529.0246 54.1128 -526.4395 54.1132 -523.8544 54.1136 C-506.7231 54.1162 -489.5917 54.1188 -472.4604 54.1213 C-438.3721 54.1262 -404.2838 54.1317 -370.1955 54.1376 C-368.572 54.1378 -366.9486 54.1381 -365.3252 54.1384 C-292.2231 54.1509 -219.1211 54.1696 -146.019 54.1909 C-145.3344 54.1911 -144.6498 54.1913 -143.9444 54.1915 C-109.7025 54.2015 -75.4606 54.2119 -41.2188 54.2227 C-41.2293 53.6508 -41.2293 53.6508 -41.2825 50.7566 C-41.2995 49.2284 -41.316 47.7001 -41.332 46.1719 C-41.3472 45.4213 -41.3624 44.6707 -41.3781 43.8973 C-41.4645 32.8934 -37.944 21.6986 -30.1965 13.6809 C-29.6882 13.1791 -29.1799 12.6772 -28.6562 12.1602 C-28.3908 11.898 -28.3908 11.898 -27.0476 10.571 C-18.7034 2.606 -11.1362 0.7703 0 0 Z " fill="#D1CCBF" transform="translate(1297.21875,4.77734375)"/>
<path d="M0 0 C0.4578 -0.0032 0.4578 -0.0032 2.7744 -0.0195 C3.278 -0.018 3.278 -0.018 5.8267 -0.0102 C6.8956 -0.0147 7.9646 -0.0192 9.0659 -0.0239 C12.6657 -0.0366 16.2653 -0.0349 19.8651 -0.0333 C22.4387 -0.0392 25.0122 -0.046 27.5858 -0.0536 C33.8616 -0.0702 40.1374 -0.0757 46.4133 -0.0768 C51.5137 -0.0778 56.6142 -0.0819 61.7147 -0.0882 C76.1701 -0.1059 90.6254 -0.1151 105.0808 -0.1136 C105.4706 -0.1135 105.4706 -0.1135 107.4432 -0.1133 C107.8335 -0.1133 107.8335 -0.1133 109.8085 -0.1131 C122.4599 -0.1123 135.1113 -0.1314 147.7627 -0.1596 C160.7478 -0.1883 173.7329 -0.2022 186.718 -0.2004 C194.0103 -0.1998 201.3025 -0.2053 208.5948 -0.2268 C215.4517 -0.2469 222.3083 -0.2463 229.1652 -0.2317 C231.6852 -0.2297 234.2051 -0.2344 236.7251 -0.2465 C240.1588 -0.2618 243.5917 -0.2527 247.0255 -0.2372 C248.0283 -0.2475 249.0311 -0.2578 250.0643 -0.2684 C254.4443 -0.2246 256.8946 -0.1401 260.711 2.1632 C262.5531 4.2573 262.5531 4.2573 262.5531 6.2573 C263.2131 6.2573 263.8731 6.2573 264.5531 6.2573 C264.6026 12.0047 264.6388 17.7521 264.6629 23.4997 C264.673 25.4541 264.6866 27.4086 264.704 29.363 C264.7283 32.1754 264.7396 34.9877 264.7484 37.8002 C264.7587 38.6713 264.769 39.5423 264.7797 40.4397 C264.7812 48.7275 264.7812 48.7275 262.5531 52.2573 C257.2686 56.8476 252.7798 56.8182 245.9609 56.7383 C244.8941 56.7417 243.8272 56.7451 242.7281 56.7486 C239.1533 56.7552 235.5794 56.7332 232.0047 56.7114 C229.4423 56.7102 226.8799 56.7109 224.3174 56.7131 C218.8008 56.7141 213.2844 56.7027 207.7678 56.6802 C199.7918 56.6477 191.8158 56.6373 183.8398 56.6322 C170.8986 56.6235 157.9576 56.5969 145.0165 56.559 C132.4468 56.5223 119.8772 56.494 107.3075 56.477 C106.5324 56.4759 105.7574 56.4749 104.9589 56.4738 C101.0706 56.4686 97.1824 56.4635 93.2941 56.4586 C61.047 56.4171 28.8001 56.3467 -3.4469 56.2573 C-3.4469 55.5973 -3.4469 54.9373 -3.4469 54.2573 C-4.0451 53.9891 -4.6432 53.721 -5.2594 53.4448 C-7.5059 52.2252 -8.829 51.225 -10.4469 49.2573 C-10.8144 47.3222 -10.8144 47.3222 -10.8034 45.1088 C-10.8064 44.2779 -10.8094 43.4469 -10.8125 42.5908 C-10.8001 41.697 -10.7878 40.8032 -10.7751 39.8823 C-10.7732 38.9614 -10.7713 38.0405 -10.7694 37.0917 C-10.7627 35.1449 -10.7487 33.1981 -10.7282 31.2514 C-10.697 28.2689 -10.6872 25.2868 -10.6813 22.3041 C-10.6721 20.4135 -10.6618 18.5229 -10.6501 16.6323 C-10.6458 15.7385 -10.6416 14.8447 -10.6372 13.9238 C-10.6276 13.0928 -10.618 12.2618 -10.6081 11.4057 C-10.6012 10.6753 -10.5944 9.9449 -10.5874 9.1923 C-10.4469 7.2573 -10.4469 7.2573 -9.4469 4.2573 C-8.7869 4.2573 -8.1269 4.2573 -7.4469 4.2573 C-7.4469 3.5973 -7.4469 2.9373 -7.4469 2.2573 C-4.301 0.16 -3.5836 0.0064 0 0 Z " fill="#A49E91" transform="translate(171.446928024292,313.74273109436035)"/>
<path d="M0 0 C0.9136 -0.006 1.8273 -0.0119 2.7686 -0.0181 C3.7686 -0.0094 4.7686 -0.0006 5.7989 0.0084 C6.8641 0.0058 7.9292 0.0033 9.0266 0.0006 C12.6074 -0.0043 16.1878 0.0122 19.7686 0.0286 C22.3307 0.0294 24.8928 0.0289 27.455 0.0272 C32.9771 0.0266 38.4991 0.0351 44.0212 0.052 C52.0051 0.0763 59.9891 0.0841 67.9731 0.0879 C80.9264 0.0945 93.8797 0.1145 106.833 0.1428 C119.4164 0.1704 131.9997 0.1916 144.583 0.2043 C145.3586 0.2051 146.1342 0.2059 146.9332 0.2067 C150.824 0.2107 154.7148 0.2144 158.6056 0.2182 C190.8862 0.2493 223.1667 0.3021 255.4473 0.3691 C255.4473 1.0291 255.4473 1.6891 255.4473 2.3691 C255.736 2.4001 255.736 2.4001 257.1973 2.5566 C260.5429 3.7648 261.5599 5.3605 263.4473 8.3691 C264.0166 11.3829 263.9848 14.3368 263.9434 17.3965 C263.9448 18.263 263.9463 19.1296 263.9478 20.0224 C263.9461 21.8505 263.9346 23.6786 263.9138 25.5066 C263.8849 28.2941 263.8932 31.0796 263.9063 33.8672 C263.9 35.6478 263.8916 37.4284 263.8809 39.209 C263.8838 40.0373 263.8868 40.8656 263.8898 41.719 C263.81 46.6495 263.2127 50.118 260.4473 54.3691 C257.2979 56.4687 256.572 56.6204 252.982 56.6292 C252.0623 56.6363 251.1427 56.6433 250.1952 56.6506 C249.6892 56.6494 249.6892 56.6494 247.1289 56.6433 C246.0552 56.6485 244.9815 56.6538 243.8753 56.6592 C240.2593 56.6742 236.6436 56.6749 233.0276 56.6755 C230.4426 56.6832 227.8575 56.6916 225.2725 56.7008 C218.2375 56.7236 211.2025 56.7315 204.1675 56.7366 C199.7765 56.7398 195.3855 56.7464 190.9945 56.7536 C178.8415 56.7732 166.6884 56.7896 154.5353 56.7925 C154.1464 56.7926 154.1464 56.7926 152.1781 56.793 C150.6012 56.7934 149.0242 56.7938 147.4472 56.7941 C146.6644 56.7943 145.8815 56.7945 145.075 56.7947 C144.2912 56.7949 143.5074 56.795 142.6999 56.7952 C129.9927 56.7988 117.2858 56.8258 104.5787 56.8632 C91.5382 56.9012 78.4978 56.9206 65.4573 56.9209 C58.1331 56.9215 50.8092 56.9301 43.485 56.9589 C36.5994 56.9859 29.7141 56.9874 22.8284 56.9713 C20.2968 56.9694 17.7651 56.9762 15.2335 56.9921 C11.786 57.0124 8.34 57.0021 4.8926 56.9839 C3.883 56.9971 2.8734 57.0103 1.8332 57.0239 C-4.9685 56.9414 -4.9685 56.9414 -8.0805 53.8932 C-8.5664 53.0603 -9.0522 52.2273 -9.5527 51.3691 C-10.2127 51.0391 -10.8727 50.7091 -11.5527 50.3691 C-11.627 44.4793 -11.6814 38.5897 -11.7175 32.6995 C-11.7326 30.6965 -11.753 28.6935 -11.779 26.6907 C-11.8155 23.8087 -11.8325 20.9271 -11.8457 18.0449 C-11.8612 17.152 -11.8766 16.2591 -11.8926 15.3392 C-11.8939 10.5282 -11.7576 7.2238 -8.5527 3.3691 C-5.6455 0.8072 -3.8672 -0.0056 0 0 Z " fill="#A49E91" transform="translate(172.55270767211914,113.63085651397705)"/>
<path d="M0 0 C0.9066 -0.0038 1.8132 -0.0077 2.7472 -0.0116 C3.7496 -0.0108 4.752 -0.0099 5.7848 -0.009 C6.8447 -0.012 7.9046 -0.015 8.9967 -0.018 C12.5719 -0.0267 16.147 -0.0282 19.7222 -0.0297 C22.276 -0.0343 24.8297 -0.0394 27.3834 -0.0448 C34.338 -0.0579 41.2925 -0.0644 48.247 -0.0688 C52.5879 -0.0715 56.9288 -0.0758 61.2697 -0.0803 C73.2838 -0.0925 85.2979 -0.1028 97.3119 -0.1061 C98.0812 -0.1064 98.8504 -0.1066 99.643 -0.1068 C100.0285 -0.1069 100.0285 -0.1069 101.9797 -0.1075 C103.5423 -0.1079 105.1049 -0.1084 106.6676 -0.1088 C107.0551 -0.1089 107.0551 -0.1089 109.0164 -0.1095 C121.5774 -0.1134 134.1383 -0.1309 146.6993 -0.1542 C159.5894 -0.1779 172.4795 -0.1903 185.3697 -0.1915 C192.6095 -0.1924 199.8491 -0.1982 207.0889 -0.2163 C213.8973 -0.2333 220.7056 -0.235 227.514 -0.2262 C230.0162 -0.2254 232.5184 -0.2298 235.0206 -0.2396 C238.4302 -0.2523 241.8393 -0.2465 245.2489 -0.2361 C246.2447 -0.2441 247.2404 -0.2522 248.2663 -0.2605 C253.222 -0.2248 256.7126 -0.1519 260.7074 3.1314 C264.3896 7.4908 264.1304 11.796 264.0706 17.2291 C264.0711 18.1004 264.0716 18.9716 264.0721 19.8693 C264.0698 21.7058 264.0601 23.5423 264.0435 25.3787 C264.0199 28.1879 264.023 30.9961 264.0296 33.8053 C264.024 35.5924 264.0169 37.3795 264.0081 39.1666 C264.009 40.0052 264.01 40.8438 264.0109 41.7079 C264.0014 42.4922 263.9918 43.2766 263.982 44.0848 C263.9774 44.7714 263.9728 45.4581 263.9681 46.1655 C263.6619 48.4743 262.8428 50.1131 261.7074 52.1314 C261.0474 52.1314 260.3874 52.1314 259.7074 52.1314 C259.7074 52.7914 259.7074 53.4514 259.7074 54.1314 C256.5662 56.2255 255.8525 56.3826 252.276 56.3915 C251.364 56.3986 250.4519 56.4056 249.5122 56.4129 C248.5088 56.4105 247.5055 56.4081 246.4717 56.4056 C245.4068 56.4108 244.342 56.4161 243.2449 56.4215 C239.6589 56.4365 236.0731 56.4372 232.4871 56.4378 C229.9234 56.4454 227.3597 56.4539 224.796 56.463 C217.8187 56.485 210.8416 56.4938 203.8643 56.4989 C199.5089 56.5021 195.1534 56.5087 190.7979 56.5159 C178.7418 56.5354 166.6857 56.5518 154.6295 56.5548 C154.2437 56.5548 154.2437 56.5548 152.2911 56.5553 C150.7266 56.5557 149.1622 56.556 147.5978 56.5564 C146.8212 56.5566 146.0446 56.5568 145.2445 56.557 C144.4669 56.5571 143.6894 56.5573 142.8883 56.5575 C130.2853 56.5611 117.6824 56.5881 105.0795 56.6255 C92.1441 56.6635 79.2088 56.6829 66.2734 56.6832 C59.009 56.6838 51.7448 56.6923 44.4804 56.7212 C37.6498 56.7482 30.8195 56.7496 23.9888 56.7336 C21.4785 56.7317 18.9682 56.7385 16.458 56.7544 C13.0372 56.7747 9.6178 56.7644 6.197 56.7462 C5.1981 56.7594 4.1992 56.7726 3.17 56.7862 C-1.5585 56.7285 -3.5887 56.6949 -7.3857 53.6555 C-8.015 52.8226 -8.6443 51.9896 -9.2926 51.1314 C-9.6226 50.8014 -9.9526 50.4714 -10.2926 50.1314 C-10.4312 47.0263 -10.5059 43.9452 -10.5309 40.8385 C-10.539 39.8997 -10.5471 38.9609 -10.5554 37.9937 C-10.5692 36.0005 -10.58 34.0072 -10.5878 32.014 C-10.605 28.9739 -10.6488 25.9349 -10.693 22.8951 C-10.7032 20.9596 -10.7117 19.024 -10.7184 17.0885 C-10.7359 16.182 -10.7534 15.2755 -10.7715 14.3416 C-10.752 8.6361 -10.0485 5.4991 -6.2926 1.1314 C-3.9579 -0.036 -2.6011 0.0041 0 0 Z " fill="#A49E91" transform="translate(172.29264545440674,213.86857223510742)"/>
<path d="M0 0 C1.1952 -0.0035 2.3904 -0.0071 3.6218 -0.0107 C4.9575 -0.0096 6.2931 -0.0084 7.6288 -0.0071 C9.0463 -0.0093 10.4637 -0.012 11.8812 -0.0151 C15.803 -0.0224 19.7247 -0.0233 23.6465 -0.0233 C27.9031 -0.0244 32.1596 -0.0312 36.4161 -0.0372 C44.8703 -0.0483 53.3245 -0.054 61.7786 -0.0579 C71.8999 -0.0629 82.0212 -0.0737 92.1425 -0.0844 C116.607 -0.1101 141.0714 -0.1251 165.5359 -0.1379 C173.6358 -0.1422 181.7357 -0.1467 189.8357 -0.1515 C232.8752 -0.1768 275.9147 -0.1988 318.9542 -0.2112 C328.9285 -0.2142 338.9028 -0.2171 348.8771 -0.2201 C349.4967 -0.2203 349.4967 -0.2203 352.6323 -0.2213 C392.8338 -0.2334 433.0353 -0.2644 473.2368 -0.3061 C514.5432 -0.3488 555.8495 -0.3755 597.1558 -0.3807 C602.9847 -0.3815 608.8136 -0.3824 614.6425 -0.3834 C615.7898 -0.3836 616.937 -0.3838 618.119 -0.384 C636.6132 -0.3875 655.1073 -0.4078 673.6015 -0.4342 C692.1754 -0.4603 710.7492 -0.4681 729.3231 -0.4571 C740.3689 -0.4511 751.4144 -0.4591 762.4602 -0.4869 C769.8292 -0.5041 777.1981 -0.5033 784.5672 -0.4875 C788.7721 -0.4791 792.9765 -0.4787 797.1813 -0.5001 C801.0026 -0.5195 804.8232 -0.516 808.6445 -0.494 C810.6746 -0.4883 812.7047 -0.5072 814.7347 -0.527 C824.5102 -0.4334 824.5102 -0.4334 827.6177 2.5397 C829.2364 5.0156 829.9949 6.2151 829.9362 9.13 C829.9491 9.7693 829.962 10.4087 829.9752 11.0675 C828.895 14.4226 827.339 16.4195 824.3112 18.13 C819.8064 18.908 815.3247 18.8062 810.7631 18.7692 C809.345 18.7755 807.9269 18.784 806.5088 18.7945 C802.5944 18.8171 798.6806 18.8084 794.7662 18.7948 C790.5144 18.7855 786.2627 18.8051 782.0109 18.8211 C774.5533 18.8451 767.0958 18.8505 759.6382 18.8437 C748.5487 18.8338 737.4594 18.8523 726.3699 18.8766 C706.567 18.9192 686.7642 18.9333 666.9612 18.9359 C649.6317 18.9384 632.3021 18.9509 614.9726 18.9733 C614.3985 18.9741 614.3985 18.9741 611.4932 18.9778 C606.8325 18.9838 602.1719 18.9899 597.5113 18.9961 C553.7651 19.0538 510.0189 19.0839 466.2727 19.1006 C427.382 19.1156 388.4914 19.1506 349.6007 19.2037 C347.1037 19.2071 344.6066 19.2105 342.1096 19.2139 C341.4923 19.2147 341.4923 19.2147 338.3687 19.219 C332.1549 19.2275 325.9411 19.2359 319.7273 19.2443 C318.5015 19.2459 317.2757 19.2476 316.0127 19.2493 C283.544 19.2928 251.0753 19.322 218.6066 19.3465 C217.452 19.3474 216.2974 19.3483 215.1078 19.3492 C214.5316 19.3496 214.5316 19.3496 211.6154 19.3518 C210.4649 19.3527 209.3145 19.3536 208.1292 19.3545 C205.8122 19.3562 203.4953 19.358 201.1784 19.3597 C185.0059 19.3718 168.8335 19.3893 152.6611 19.4103 C131.8229 19.4373 110.9846 19.4545 90.1464 19.4542 C79.1184 19.4543 68.0905 19.4627 57.0626 19.4828 C49.7055 19.4954 42.3484 19.4972 34.9913 19.4899 C30.7934 19.486 26.5956 19.487 22.3977 19.501 C18.5828 19.5137 14.7682 19.5127 10.9532 19.5004 C8.9265 19.4975 6.8998 19.5094 4.8731 19.5219 C3.6748 19.5153 2.4766 19.5087 1.242 19.5019 C0.2094 19.5025 -0.8231 19.5031 -1.887 19.5037 C-5.1798 19.0645 -7.0281 18.0942 -9.6888 16.13 C-12.1429 12.4488 -11.9217 10.477 -11.6888 6.13 C-11.3588 5.14 -11.0288 4.15 -10.6888 3.13 C-10.0288 3.13 -9.3688 3.13 -8.6888 3.13 C-8.6888 2.47 -8.6888 1.81 -8.6888 1.13 C-5.5304 0.0771 -3.3167 0.0031 0 0 Z " fill="#D1CCBF" transform="translate(478.68882644176483,232.87004816532135)"/>
<path d="M0 0 C12.7082 -0.5483 21.7902 2.8368 31.0938 11.3477 C33.1404 13.2401 34.9429 15.1106 36.7812 17.2227 C36.7812 18.2127 36.7812 19.2027 36.7812 20.2227 C37.4413 20.2227 38.1012 20.2227 38.7812 20.2227 C39.5008 21.8674 40.2165 23.5138 40.9141 25.168 C41.4773 26.5025 42.0547 27.8311 42.6484 29.1523 C45.0354 34.8129 44.7812 37.4817 44.7812 44.2227 C52.7013 44.2227 60.6212 44.2227 68.7812 44.2227 C68.7812 44.5527 68.7812 44.8827 68.7812 45.2227 C64.8212 45.3877 64.8212 45.3877 44.7812 46.2227 C44.7812 53.1527 44.7812 60.0827 44.7812 67.2227 C46.4313 67.8827 48.0812 68.5427 49.7812 69.2227 C52.5973 75.3922 52.0703 82.1304 52.0469 88.7969 C52.0488 89.9983 52.0507 91.1997 52.0527 92.4375 C52.054 94.9682 52.0504 97.4989 52.042 100.0295 C52.0313 103.9072 52.0419 107.7844 52.0547 111.6621 C52.0534 114.1237 52.0508 116.5853 52.0469 119.0469 C52.0509 120.2073 52.055 121.3678 52.0591 122.5634 C52.0528 123.6416 52.0465 124.7199 52.04 125.8308 C52.0392 126.3043 52.0392 126.3043 52.0352 128.7007 C51.7659 131.3749 51.2241 132.969 49.7812 135.2227 C35.4127 145.4319 4.1289 140.3926 -12.9584 140.5088 C-15.1689 140.5263 -17.3793 140.5506 -19.5897 140.5818 C-22.728 140.6238 -25.8654 140.6394 -29.0039 140.6484 C-29.9465 140.6659 -30.8891 140.6834 -31.8602 140.7014 C-37.4818 140.683 -40.8046 140.0587 -45.2188 136.2227 C-47.5182 132.7735 -47.4844 131.4294 -47.5251 127.3618 C-47.5411 126.1569 -47.5571 124.952 -47.5736 123.7106 C-47.579 122.4075 -47.5843 121.1043 -47.5898 119.7617 C-47.5988 118.4103 -47.6079 117.059 -47.6172 115.7076 C-47.6337 112.8747 -47.6414 110.0419 -47.6443 107.209 C-47.6497 103.5849 -47.6873 99.9619 -47.733 96.3381 C-47.7628 93.5465 -47.77 90.7551 -47.771 87.9633 C-47.7772 85.9796 -47.8067 83.9961 -47.8365 82.0126 C-47.7863 71.9984 -47.7863 71.9984 -44.8088 68.8647 C-42.2188 67.2227 -42.2188 67.2227 -40.2188 67.2227 C-40.2188 63.2627 -40.2188 59.3027 -40.2188 55.2227 C-40.7142 55.2231 -40.7142 55.2231 -43.2216 55.2253 C-77.1488 55.255 -111.076 55.2847 -145.0032 55.3145 C-145.6866 55.3151 -146.3701 55.3157 -147.0742 55.3163 C-220.2882 55.3804 -293.5021 55.4445 -366.716 55.5087 C-368.3418 55.5101 -369.9675 55.5115 -371.5933 55.5129 C-405.7164 55.5428 -439.8395 55.5727 -473.9626 55.6026 C-491.1031 55.6176 -508.2435 55.6326 -525.384 55.6476 C-527.9696 55.6499 -530.5552 55.6522 -533.1409 55.6544 C-572.9689 55.6893 -612.7969 55.7242 -652.6249 55.7591 C-653.4817 55.7598 -654.3384 55.7606 -655.2211 55.7614 C-669.0346 55.7735 -682.8482 55.7856 -696.6617 55.7977 C-736.4354 55.8325 -776.2092 55.8674 -815.9829 55.9022 C-816.8003 55.9029 -817.6178 55.9036 -818.46 55.9044 C-836.4021 55.9201 -854.3442 55.9358 -872.2863 55.9515 C-879.505 55.9578 -886.7236 55.9642 -893.9423 55.9705 C-894.3373 55.9708 -894.3373 55.9708 -896.3364 55.9726 C-921.8175 55.9949 -947.2987 56.0172 -972.7798 56.0395 C-998.4354 56.062 -1024.091 56.0845 -1049.7465 56.107 C-1053.2873 56.1101 -1056.8282 56.1132 -1060.369 56.1163 C-1061.0631 56.1169 -1061.7572 56.1175 -1062.4724 56.1181 C-1073.4885 56.1277 -1084.5047 56.1374 -1095.5208 56.1471 C-1106.3382 56.1565 -1117.1557 56.166 -1127.9732 56.1755 C-1133.766 56.1805 -1139.5589 56.1856 -1145.3517 56.1907 C-1150.6115 56.1953 -1155.8713 56.1999 -1161.1311 56.2045 C-1163.0318 56.2062 -1164.9325 56.2078 -1166.8332 56.2095 C-1169.3966 56.2118 -1171.9601 56.214 -1174.5236 56.2162 C-1174.8963 56.2166 -1174.8963 56.2166 -1176.7822 56.2182 C-1179.5944 56.2207 -1182.4066 56.2227 -1185.2188 56.2227 C-1182.7358 53.7397 -1181.3021 53.9826 -1177.914 53.9591 C-1177.5401 53.9616 -1177.5401 53.9616 -1175.6478 53.9743 C-1175.25 53.973 -1175.25 53.973 -1173.2369 53.9665 C-1170.5371 53.9603 -1167.8375 53.9686 -1165.1376 53.9766 C-1163.1877 53.9751 -1161.2378 53.9727 -1159.2878 53.9696 C-1153.8831 53.9634 -1148.4784 53.9698 -1143.0736 53.9781 C-1137.2113 53.985 -1131.3491 53.9803 -1125.4868 53.977 C-1115.197 53.9728 -1104.9073 53.9761 -1094.6176 53.9842 C-1083.5724 53.993 -1072.5273 53.9974 -1061.4821 53.9964 C-1060.7855 53.9964 -1060.0889 53.9963 -1059.3711 53.9963 C-1055.8194 53.996 -1052.2676 53.9956 -1048.7158 53.9952 C-1022.9817 53.9923 -997.2476 53.9992 -971.5135 54.0112 C-946.0214 54.023 -920.5293 54.0307 -895.0371 54.0329 C-894.246 54.033 -893.4549 54.033 -892.6398 54.0331 C-885.4144 54.0337 -878.189 54.0343 -870.9635 54.0348 C-853.0004 54.0361 -835.0372 54.038 -817.0741 54.0404 C-816.256 54.0405 -815.4379 54.0406 -814.595 54.0407 C-774.7809 54.0459 -734.9669 54.0586 -695.1528 54.0718 C-681.3331 54.0764 -667.5133 54.0809 -653.6936 54.0853 C-652.8365 54.0856 -651.9794 54.0859 -651.0964 54.0862 C-611.2675 54.0988 -571.4386 54.1063 -531.6097 54.1124 C-529.0246 54.1128 -526.4395 54.1132 -523.8544 54.1136 C-506.7231 54.1162 -489.5917 54.1188 -472.4604 54.1213 C-438.3721 54.1262 -404.2838 54.1317 -370.1955 54.1376 C-368.572 54.1378 -366.9486 54.1381 -365.3252 54.1384 C-292.2231 54.1509 -219.1211 54.1696 -146.019 54.1909 C-145.3344 54.1911 -144.6498 54.1913 -143.9444 54.1915 C-109.7025 54.2015 -75.4606 54.2119 -41.2188 54.2227 C-41.2293 53.6508 -41.2293 53.6508 -41.2825 50.7566 C-41.2995 49.2284 -41.316 47.7001 -41.332 46.1719 C-41.3472 45.4213 -41.3624 44.6707 -41.3781 43.8973 C-41.4645 32.8934 -37.944 21.6986 -30.1965 13.6809 C-29.6882 13.1791 -29.1799 12.6772 -28.6562 12.1602 C-28.3908 11.898 -28.3908 11.898 -27.0476 10.571 C-18.7034 2.606 -11.1362 0.7703 0 0 Z " fill="#C7962E" transform="translate(1297.21875,4.77734375)"/>
<path d="M0 0 C67.3467 -0.0514 134.6935 -0.0991 202.0402 -0.127 C203.0364 -0.1274 204.0325 -0.1279 205.0588 -0.1283 C226.7054 -0.1373 248.352 -0.1456 269.9986 -0.1532 C280.6135 -0.1569 291.2284 -0.1608 301.8433 -0.1648 C302.8996 -0.1652 303.9559 -0.1656 305.0443 -0.166 C339.3071 -0.1788 373.5699 -0.2013 407.8327 -0.2289 C443.0307 -0.2572 478.2287 -0.2757 513.4268 -0.2817 C518.3938 -0.2826 523.3608 -0.2836 528.3278 -0.2846 C529.3054 -0.2848 530.283 -0.285 531.2903 -0.2852 C547.052 -0.2888 562.8138 -0.3027 578.5755 -0.3205 C594.4064 -0.3381 610.2372 -0.3449 626.068 -0.3405 C635.4832 -0.3382 644.8982 -0.3444 654.3133 -0.3624 C660.5942 -0.3736 666.8751 -0.374 673.1561 -0.3655 C676.7403 -0.3609 680.3243 -0.3612 683.9084 -0.3746 C687.7611 -0.3889 691.6136 -0.3803 695.4663 -0.3691 C696.5901 -0.377 697.7139 -0.3849 698.8717 -0.393 C699.8941 -0.3863 700.9165 -0.3795 701.9699 -0.3726 C702.4107 -0.3728 702.4107 -0.3728 704.6414 -0.374 C707.5341 0.0847 708.891 0.9922 711 3 C712.2126 6.6378 712.3954 9.1774 712 13 C710.2026 15.6879 710.2026 15.6879 707 18 C703.1319 18.7458 699.3117 18.6632 695.3829 18.618 C694.1877 18.6241 692.9925 18.6302 691.7612 18.6364 C688.432 18.6482 685.1042 18.6375 681.7751 18.6175 C678.158 18.6013 674.541 18.614 670.9239 18.6231 C664.5807 18.635 658.2378 18.6283 651.8947 18.6095 C642.4625 18.5816 633.0305 18.5823 623.5983 18.5889 C607.7321 18.5991 591.8661 18.5859 575.9999 18.5592 C560.2846 18.5329 544.5694 18.5164 528.8541 18.5133 C527.8775 18.5131 526.9009 18.5129 525.8947 18.5127 C520.9352 18.5118 515.9756 18.511 511.0161 18.5102 C475.8704 18.5046 440.7248 18.475 405.5791 18.4321 C371.4395 18.3905 337.2998 18.3621 303.1602 18.3501 C302.6343 18.3499 302.6343 18.3499 299.9729 18.349 C291.5117 18.346 283.0506 18.343 274.5894 18.3401 C238.1114 18.3277 201.6334 18.3047 165.1554 18.2794 C158.2701 18.2747 151.3848 18.2703 144.4995 18.2661 C123.8308 18.2531 103.162 18.2369 82.4932 18.2111 C73.9422 18.2004 65.3911 18.1912 56.84 18.1865 C49.7554 18.1826 42.6707 18.1753 35.5861 18.1635 C32.0155 18.1576 28.445 18.1533 24.8744 18.1533 C21.0381 18.1532 17.2018 18.1455 13.3654 18.137 C12.8045 18.1376 12.8045 18.1376 9.9662 18.1406 C8.9502 18.1371 7.9341 18.1336 6.8873 18.13 C6.0092 18.129 5.131 18.128 4.2263 18.127 C2 18 2 18 -1 17 C-1 16.34 -1 15.68 -1 15 C-1.66 15 -2.32 15 -3 15 C-4.9836 12.0829 -4.9876 10.8762 -4.625 7.25 C-4.4187 6.1775 -4.2125 5.105 -4 4 C-3.01 3.67 -2.02 3.34 -1 3 C-0.67 2.01 -0.34 1.02 0 0 Z " fill="#D1CCBF" transform="translate(471,333)"/>
<path d="M0 0 C12.7082 -0.5483 21.7902 2.8368 31.0938 11.3477 C33.1404 13.2401 34.9429 15.1106 36.7812 17.2227 C36.7812 18.2127 36.7812 19.2027 36.7812 20.2227 C37.4413 20.2227 38.1012 20.2227 38.7812 20.2227 C39.5008 21.8674 40.2165 23.5138 40.9141 25.168 C41.4773 26.5025 42.0547 27.8311 42.6484 29.1523 C45.0354 34.8129 44.7812 37.4817 44.7812 44.2227 C52.7013 44.2227 60.6212 44.2227 68.7812 44.2227 C68.7812 44.5527 68.7812 44.8827 68.7812 45.2227 C64.8212 45.3877 64.8212 45.3877 44.7812 46.2227 C44.7812 53.1527 44.7812 60.0827 44.7812 67.2227 C45.4413 67.5527 46.1012 67.8827 46.7812 68.2227 C45.1312 67.8927 43.4813 67.5627 41.7812 67.2227 C41.7812 65.9027 41.7812 64.5827 41.7812 63.2227 C40.1346 63.3362 38.4889 63.4638 36.8438 63.5977 C36.3855 63.6325 36.3855 63.6325 34.0664 63.8086 C33.3123 63.9452 32.5582 64.0819 31.7812 64.2227 C31.4513 64.8827 31.1212 65.5427 30.7812 66.2227 C23.5394 66.246 16.2975 66.2637 9.0556 66.2745 C5.6917 66.2797 2.3279 66.2867 -1.0359 66.2981 C-4.9159 66.3103 -8.7958 66.3159 -12.6758 66.3203 C-13.8658 66.3255 -15.0558 66.3306 -16.2819 66.336 C-23.3182 66.3364 -30.2249 66.0029 -37.2188 65.2227 C-37.5487 66.2127 -37.8788 67.2027 -38.2188 68.2227 C-39.5387 67.8927 -40.8588 67.5627 -42.2188 67.2227 C-41.5587 67.2227 -40.8988 67.2227 -40.2188 67.2227 C-40.2188 63.2627 -40.2188 59.3027 -40.2188 55.2227 C-40.7142 55.2231 -40.7142 55.2231 -43.2216 55.2253 C-77.1488 55.255 -111.076 55.2847 -145.0032 55.3145 C-145.6866 55.3151 -146.3701 55.3157 -147.0742 55.3163 C-220.2882 55.3804 -293.5021 55.4445 -366.716 55.5087 C-368.3418 55.5101 -369.9675 55.5115 -371.5933 55.5129 C-405.7164 55.5428 -439.8395 55.5727 -473.9626 55.6026 C-491.1031 55.6176 -508.2435 55.6326 -525.384 55.6476 C-527.9696 55.6499 -530.5552 55.6522 -533.1409 55.6544 C-572.9689 55.6893 -612.7969 55.7242 -652.6249 55.7591 C-653.4817 55.7598 -654.3384 55.7606 -655.2211 55.7614 C-669.0346 55.7735 -682.8482 55.7856 -696.6617 55.7977 C-736.4354 55.8325 -776.2092 55.8674 -815.9829 55.9022 C-816.8003 55.9029 -817.6178 55.9036 -818.46 55.9044 C-836.4021 55.9201 -854.3442 55.9358 -872.2863 55.9515 C-879.505 55.9578 -886.7236 55.9642 -893.9423 55.9705 C-894.3373 55.9708 -894.3373 55.9708 -896.3364 55.9726 C-921.8175 55.9949 -947.2987 56.0172 -972.7798 56.0395 C-998.4354 56.062 -1024.091 56.0845 -1049.7465 56.107 C-1053.2873 56.1101 -1056.8282 56.1132 -1060.369 56.1163 C-1061.0631 56.1169 -1061.7572 56.1175 -1062.4724 56.1181 C-1073.4885 56.1277 -1084.5047 56.1374 -1095.5208 56.1471 C-1106.3382 56.1565 -1117.1557 56.166 -1127.9732 56.1755 C-1133.766 56.1805 -1139.5589 56.1856 -1145.3517 56.1907 C-1150.6115 56.1953 -1155.8713 56.1999 -1161.1311 56.2045 C-1163.0318 56.2062 -1164.9325 56.2078 -1166.8332 56.2095 C-1169.3966 56.2118 -1171.9601 56.214 -1174.5236 56.2162 C-1174.8963 56.2166 -1174.8963 56.2166 -1176.7822 56.2182 C-1179.5944 56.2207 -1182.4066 56.2227 -1185.2188 56.2227 C-1182.7358 53.7397 -1181.3021 53.9826 -1177.914 53.9591 C-1177.5401 53.9616 -1177.5401 53.9616 -1175.6478 53.9743 C-1175.25 53.973 -1175.25 53.973 -1173.2369 53.9665 C-1170.5371 53.9603 -1167.8375 53.9686 -1165.1376 53.9766 C-1163.1877 53.9751 -1161.2378 53.9727 -1159.2878 53.9696 C-1153.8831 53.9634 -1148.4784 53.9698 -1143.0736 53.9781 C-1137.2113 53.985 -1131.3491 53.9803 -1125.4868 53.977 C-1115.197 53.9728 -1104.9073 53.9761 -1094.6176 53.9842 C-1083.5724 53.993 -1072.5273 53.9974 -1061.4821 53.9964 C-1060.7855 53.9964 -1060.0889 53.9963 -1059.3711 53.9963 C-1055.8194 53.996 -1052.2676 53.9956 -1048.7158 53.9952 C-1022.9817 53.9923 -997.2476 53.9992 -971.5135 54.0112 C-946.0214 54.023 -920.5293 54.0307 -895.0371 54.0329 C-894.246 54.033 -893.4549 54.033 -892.6398 54.0331 C-885.4144 54.0337 -878.189 54.0343 -870.9635 54.0348 C-853.0004 54.0361 -835.0372 54.038 -817.0741 54.0404 C-816.256 54.0405 -815.4379 54.0406 -814.595 54.0407 C-774.7809 54.0459 -734.9669 54.0586 -695.1528 54.0718 C-681.3331 54.0764 -667.5133 54.0809 -653.6936 54.0853 C-652.8365 54.0856 -651.9794 54.0859 -651.0964 54.0862 C-611.2675 54.0988 -571.4386 54.1063 -531.6097 54.1124 C-529.0246 54.1128 -526.4395 54.1132 -523.8544 54.1136 C-506.7231 54.1162 -489.5917 54.1188 -472.4604 54.1213 C-438.3721 54.1262 -404.2838 54.1317 -370.1955 54.1376 C-368.572 54.1378 -366.9486 54.1381 -365.3252 54.1384 C-292.2231 54.1509 -219.1211 54.1696 -146.019 54.1909 C-145.3344 54.1911 -144.6498 54.1913 -143.9444 54.1915 C-109.7025 54.2015 -75.4606 54.2119 -41.2188 54.2227 C-41.2293 53.6508 -41.2293 53.6508 -41.2825 50.7566 C-41.2995 49.2284 -41.316 47.7001 -41.332 46.1719 C-41.3472 45.4213 -41.3624 44.6707 -41.3781 43.8973 C-41.4645 32.8934 -37.944 21.6986 -30.1965 13.6809 C-29.6882 13.1791 -29.1799 12.6772 -28.6562 12.1602 C-28.3908 11.898 -28.3908 11.898 -27.0476 10.571 C-18.7034 2.606 -11.1362 0.7703 0 0 Z " fill="#AD8B47" transform="translate(1297.21875,4.77734375)"/>
<path d="M0 0 C6.3005 4.4221 10.2786 8.4259 12 16 C12 19.3 12 22.6 12 26 C-5.82 26 -23.64 26 -42 26 C-42 12.4593 -42 12.4593 -39.125 8.25 C-38.5913 7.4302 -38.0577 6.6103 -37.5078 5.7656 C-37.0102 5.183 -36.5127 4.6003 -36 4 C-35.34 4 -34.68 4 -34 4 C-34 3.34 -34 2.68 -34 2 C-23.786 -5.7821 -11.1319 -6.4754 0 0 Z " fill="#FBF9F7" transform="translate(1314,24)"/>
<path d="M0 0 C377.52 0 755.04 0 1144 0 C1144 0.33 1144 0.66 1144 1 C1143.5052 1.0004 1143.5052 1.0004 1141.0015 1.0022 C1107.1235 1.0265 1073.2455 1.0512 1039.3674 1.0759 C1039.0262 1.0762 1039.0262 1.0762 1037.2994 1.0774 C964.1963 1.1309 891.0932 1.1858 817.9901 1.2437 C816.3669 1.245 814.7437 1.2462 813.1205 1.2475 C779.0518 1.2745 744.983 1.3017 710.9143 1.3291 C693.8012 1.3428 676.6882 1.3566 659.5752 1.3702 C656.9938 1.3723 654.4123 1.3744 651.8308 1.3764 C612.0636 1.4083 572.2965 1.4392 532.5294 1.4678 C531.6739 1.4684 530.8184 1.469 529.9369 1.4696 C516.1431 1.4795 502.3492 1.4893 488.5554 1.4991 C448.8411 1.5274 409.1269 1.5562 369.4126 1.5884 C368.5965 1.5891 367.7804 1.5897 366.9396 1.5904 C349.0271 1.605 331.1146 1.6198 313.2021 1.6349 C305.9955 1.6409 298.789 1.6469 291.5824 1.6529 C291.188 1.6533 291.188 1.6533 289.1922 1.6549 C263.7482 1.6762 238.3042 1.6942 212.8601 1.7106 C187.2446 1.7271 161.6291 1.7467 136.0136 1.7707 C132.4793 1.774 128.945 1.7772 125.4108 1.7805 C124.7179 1.7811 124.025 1.7818 123.3112 1.7824 C112.3097 1.7925 101.3082 1.7991 90.3068 1.8044 C79.507 1.8096 68.7073 1.8185 57.9075 1.831 C52.1228 1.8376 46.3381 1.8425 40.5534 1.8432 C35.3033 1.8438 30.0532 1.8489 24.8031 1.8577 C22.9037 1.8601 21.0043 1.8608 19.1048 1.8596 C16.5478 1.8583 13.9909 1.863 11.4339 1.8694 C10.6849 1.8675 9.9358 1.8657 9.1641 1.8638 C4.1142 1.8858 4.1142 1.8858 3 3 C1.4853 3.2319 -0.0375 3.4122 -1.5625 3.5625 C-1.9756 3.6044 -1.9756 3.6044 -4.0664 3.8164 C-4.3854 3.8467 -4.3854 3.8467 -6 4 C-5.67 3.34 -5.34 2.68 -5 2 C-3.35 2 -1.7 2 0 2 C0 1.34 0 0.68 0 0 Z " fill="#64605A" transform="translate(112,50)"/>
<path d="M0 0 C0.33 0.66 0.66 1.32 1 2 C-0.2126 5.2336 -1.0128 6.0086 -4 8 C-6.059 8.2484 -6.059 8.2484 -8.4765 8.2461 C-8.9376 8.2481 -8.9376 8.2481 -11.2708 8.2582 C-11.7781 8.2552 -11.7781 8.2552 -14.3453 8.2405 C-15.4218 8.2422 -16.4983 8.2439 -17.6075 8.2457 C-21.2328 8.249 -24.8579 8.238 -28.4832 8.2271 C-31.0747 8.2265 -33.6662 8.2268 -36.2578 8.2279 C-41.8464 8.229 -47.4351 8.2227 -53.0237 8.2115 C-61.104 8.1952 -69.1843 8.19 -77.2646 8.1875 C-90.3737 8.1831 -103.4829 8.1698 -116.592 8.1509 C-129.3277 8.1325 -142.0634 8.1184 -154.7991 8.1099 C-155.5839 8.1093 -156.3687 8.1088 -157.1772 8.1083 C-161.1142 8.1057 -165.0512 8.1031 -168.9882 8.1006 C-201.6588 8.0799 -234.3294 8.0447 -267 8 C-267.33 7.34 -267.66 6.68 -268 6 C-267.4471 5.9983 -266.8943 5.9965 -266.3247 5.9947 C-233.5739 5.8918 -200.8232 5.7837 -168.0725 5.6689 C-164.1421 5.6551 -160.2117 5.6414 -156.2812 5.6277 C-155.89 5.6263 -155.89 5.6263 -153.9101 5.6194 C-141.2319 5.5753 -128.5538 5.5347 -115.8756 5.4953 C-102.8714 5.4549 -89.8672 5.4108 -76.863 5.3631 C-68.8356 5.3338 -60.8081 5.3075 -52.7807 5.2848 C-46.6303 5.2672 -40.48 5.2443 -34.3296 5.2195 C-31.8028 5.2101 -29.276 5.2025 -26.7492 5.1966 C-23.3086 5.1883 -19.8681 5.174 -16.4276 5.1582 C-15.4198 5.1572 -14.412 5.1563 -13.3737 5.1553 C-12.4531 5.1498 -11.5325 5.1443 -10.5839 5.1387 C-9.7896 5.136 -8.9952 5.1333 -8.1767 5.1306 C-5.9666 4.998 -4.0932 4.7247 -2 4 C-0.75 1.9375 -0.75 1.9375 0 0 Z " fill="#B8B4AA" transform="translate(434,162)"/>
<path d="M0 0 C17.82 0 35.64 0 54 0 C54 3.3 54 6.6 54 10 C36.18 10 18.36 10 0 10 C0 6.7 0 3.4 0 0 Z " fill="#F8F6F3" transform="translate(1272,60)"/>
<path d="M0 0 C17.82 0 35.64 0 54 0 C54 3.3 54 6.6 54 10 C36.18 10 18.36 10 0 10 C0 6.7 0 3.4 0 0 Z " fill="#443F38" transform="translate(1272,50)"/>
<path d="M0 0 C33.2921 -0.0915 66.5842 -0.162 99.8764 -0.2043 C103.8056 -0.2093 107.7347 -0.2144 111.6638 -0.2197 C112.446 -0.2208 113.2283 -0.2218 114.0342 -0.2229 C126.7053 -0.2403 139.3762 -0.2719 152.0473 -0.3086 C165.0458 -0.346 178.0443 -0.3682 191.0429 -0.3764 C199.0658 -0.3818 207.0886 -0.3992 215.1114 -0.4317 C221.2601 -0.4553 227.4086 -0.4578 233.5573 -0.4524 C236.0821 -0.4535 238.6069 -0.4615 241.1316 -0.4768 C244.5721 -0.4966 248.0117 -0.492 251.4522 -0.481 C251.9546 -0.4868 251.9546 -0.4868 254.4972 -0.5163 C258.9688 -0.4777 261.3198 -0.4371 265.1592 2.0301 C265.463 2.3551 265.463 2.3551 267 4 C266.67 4.66 266.34 5.32 266 6 C265.6963 5.7566 265.6963 5.7566 264.1592 4.5249 C259.5944 2.3215 255.4602 2.5771 250.4522 2.6013 C249.9151 2.5979 249.9151 2.5979 247.1972 2.5811 C243.5919 2.5625 239.9869 2.5651 236.3816 2.5676 C233.7996 2.5586 231.2176 2.5483 228.6356 2.5367 C223.0738 2.514 217.5119 2.5021 211.95 2.4976 C203.9084 2.4912 195.867 2.4682 187.8255 2.4413 C174.7784 2.398 161.7314 2.368 148.6843 2.3464 C136.0108 2.3254 123.3373 2.2982 110.6638 2.2625 C109.8825 2.2603 109.1013 2.2581 108.2963 2.2558 C104.3768 2.2447 100.4574 2.2335 96.5379 2.2223 C64.0253 2.1291 31.5127 2.0575 -1 2 C-0.67 1.34 -0.34 0.68 0 0 Z " fill="#B8B4A9" transform="translate(167,314)"/>
<path d="M0 0 C0.4543 -0.0039 0.4543 -0.0039 2.7533 -0.0237 C3.7527 -0.017 4.7522 -0.0103 5.782 -0.0034 C6.8428 -0.0081 7.9035 -0.0128 8.9965 -0.0176 C12.5687 -0.0296 16.1405 -0.0201 19.7127 -0.0107 C22.2666 -0.0147 24.8205 -0.0201 27.3743 -0.0266 C33.6021 -0.0389 39.8297 -0.037 46.0574 -0.0284 C51.1188 -0.0216 56.1802 -0.0207 61.2416 -0.0239 C61.9613 -0.0244 62.6811 -0.0248 63.4226 -0.0253 C64.8847 -0.0263 66.3467 -0.0272 67.8088 -0.0282 C81.5283 -0.0368 95.2476 -0.0269 108.9671 -0.0108 C120.7407 0.0026 132.5143 0.0002 144.2879 -0.0136 C157.9544 -0.0296 171.6208 -0.036 185.2873 -0.0268 C186.7447 -0.0258 188.202 -0.0249 189.6594 -0.0239 C190.3765 -0.0235 191.0936 -0.023 191.8324 -0.0225 C196.8871 -0.0199 201.9417 -0.0243 206.9964 -0.0314 C213.8008 -0.0407 220.6049 -0.034 227.4093 -0.0167 C229.9099 -0.0127 232.4105 -0.0139 234.911 -0.0205 C238.3184 -0.0286 241.7253 -0.0184 245.1326 -0.0034 C246.1277 -0.0101 247.1227 -0.0168 248.1479 -0.0237 C253.1196 0.0189 256.532 0.1384 260.5843 3.3775 C258.0354 4.652 257.2812 4.089 254.5843 3.3775 C253.0583 3.2905 251.5289 3.2537 250.0004 3.2545 C249.0798 3.2525 248.1591 3.2505 247.2106 3.2484 C246.7067 3.2499 246.7067 3.2499 244.1568 3.2573 C243.0834 3.2564 242.0101 3.2556 240.9043 3.2547 C237.296 3.253 233.6877 3.2585 230.0794 3.264 C227.4976 3.2643 224.9157 3.2641 222.3339 3.2636 C216.7693 3.263 211.2047 3.2662 205.6401 3.2718 C197.5945 3.2799 189.549 3.2825 181.5035 3.2838 C168.4504 3.286 155.3972 3.2926 142.3441 3.3021 C129.6637 3.3113 116.9834 3.3183 104.3031 3.3226 C103.9123 3.3227 103.9123 3.3227 101.9347 3.3234 C98.014 3.3247 94.0933 3.326 90.1725 3.3272 C57.6431 3.3376 25.1137 3.3552 -7.4157 3.3775 C-5.0568 0.5322 -3.6662 0.0023 0 0 Z " fill="#BEB9B0" transform="translate(172.41569328308105,213.6224765777588)"/>
<path d="M0 0 C1 2 1 2 0.4554 3.9215 C0.169 4.708 -0.1175 5.4945 -0.4126 6.3048 C-2.391 12.6077 -2.4254 18.5595 -2.3987 25.1232 C-2.4054 26.414 -2.412 27.7048 -2.4189 29.0347 C-2.4368 32.5922 -2.4363 36.1496 -2.4327 39.7072 C-2.4321 43.553 -2.4488 47.3988 -2.4633 51.2446 C-2.486 57.8993 -2.4979 64.554 -2.5024 71.2088 C-2.5089 80.8304 -2.5318 90.4519 -2.5587 100.0734 C-2.602 115.6855 -2.6319 131.2976 -2.6536 146.9097 C-2.6746 162.0711 -2.7019 177.2326 -2.7375 192.394 C-2.7397 193.3293 -2.7419 194.2646 -2.7442 195.2283 C-2.7553 199.9205 -2.7665 204.6128 -2.7777 209.3051 C-2.8709 248.2034 -2.9425 287.1017 -3 326 C-3.33 326 -3.66 326 -4 326 C-4.0458 285.7182 -4.081 245.4364 -4.1021 205.1546 C-4.1046 200.4006 -4.1072 195.6466 -4.1099 190.8926 C-4.1104 189.9461 -4.1109 188.9997 -4.1115 188.0245 C-4.1202 172.6932 -4.1359 157.3619 -4.1543 142.0306 C-4.173 126.3031 -4.1841 110.5755 -4.1882 94.848 C-4.1909 85.1407 -4.1996 75.4335 -4.2158 65.7262 C-4.2264 59.0726 -4.2296 52.4189 -4.227 45.7652 C-4.2257 41.9245 -4.2277 38.0839 -4.2384 34.2432 C-4.2499 30.0808 -4.246 25.9185 -4.2405 21.7561 C-4.2463 20.5401 -4.2522 19.3242 -4.2582 18.0714 C-4.2542 16.9552 -4.2502 15.839 -4.2461 14.689 C-4.2469 13.7283 -4.2476 12.7676 -4.2484 11.7778 C-3.8412 7.2239 -2.5269 3.7904 0 0 Z " fill="#93908D" transform="translate(90,68)"/>
<path d="M0 0 C2 2 2 2 2.2484 4.3002 C2.2476 5.2716 2.2469 6.2429 2.2461 7.2437 C2.2501 8.3623 2.2541 9.481 2.2582 10.6336 C2.2523 11.8728 2.2465 13.1121 2.2405 14.3889 C2.2422 15.6974 2.2439 17.0058 2.2457 18.3539 C2.2502 21.998 2.2421 25.6419 2.2321 29.2859 C2.2235 33.2109 2.2264 37.1359 2.2279 41.0609 C2.229 47.8654 2.2227 54.6697 2.2115 61.4742 C2.1952 71.3123 2.19 81.1504 2.1875 90.9885 C2.1831 106.9489 2.1698 122.9093 2.1509 138.8696 C2.1325 154.3768 2.1184 169.8839 2.1099 185.3911 C2.1093 186.3464 2.1088 187.3017 2.1083 188.286 C2.1057 193.0784 2.1031 197.8707 2.1006 202.6631 C2.0799 242.4421 2.0447 282.221 2 322 C1.34 322 0.68 322 0 322 C-0.165 322.66 -0.165 322.66 -1 326 C-1.125 320.25 -1.125 320.25 0 318 C0.0942 316.2646 0.1237 314.5255 0.123 312.7876 C0.125 311.6759 0.127 310.5642 0.1291 309.4188 C0.1262 308.1873 0.1233 306.9558 0.1203 305.687 C0.1211 304.3867 0.122 303.0864 0.1228 301.7467 C0.1251 298.1256 0.1211 294.5044 0.1161 290.8832 C0.1118 286.9827 0.1132 283.0822 0.114 279.1818 C0.1145 272.4199 0.1113 265.6581 0.1057 258.8962 C0.0976 249.1197 0.095 239.3431 0.0937 229.5665 C0.0916 213.706 0.0849 197.8454 0.0754 181.9849 C0.0663 166.5747 0.0592 151.1646 0.0549 135.7544 C0.0547 134.8051 0.0544 133.8557 0.0541 132.8776 C0.0528 128.1152 0.0516 123.3528 0.0503 118.5904 C0.04 79.0603 0.0223 39.5301 0 0 Z " fill="#7D7B76" transform="translate(1392,76)"/>
<path d="M0 0 C0.99 0.33 1.98 0.66 3 1 C5.6572 7.3012 5.2893 13.8332 5.2656 20.5742 C5.2675 21.7756 5.2695 22.977 5.2714 24.2148 C5.2728 26.7455 5.2691 29.2762 5.2607 31.8069 C5.25 35.6846 5.2607 39.5618 5.2734 43.4395 C5.2721 45.901 5.2696 48.3626 5.2656 50.8242 C5.2697 51.9847 5.2737 53.1451 5.2779 54.3407 C5.2716 55.419 5.2653 56.4972 5.2588 57.6082 C5.2572 58.5552 5.2556 59.5023 5.254 60.4781 C4.9896 63.1028 4.3336 64.7458 3 67 C1.6522 64.3044 1.9215 62.282 1.9783 59.2651 C1.9883 58.6646 1.9883 58.6646 2.0392 55.6255 C2.0662 54.3234 2.0932 53.0212 2.1211 51.6797 C2.1454 50.3373 2.1692 48.995 2.1926 47.6526 C2.2555 44.118 2.3246 40.5835 2.3949 37.049 C2.4656 33.4429 2.5304 29.8367 2.5957 26.2305 C2.7247 19.1535 2.8603 12.0767 3 5 C2.01 4.67 1.02 4.34 0 4 C0 2.68 0 1.36 0 0 Z " fill="#D6B164" transform="translate(1344,73)"/>
<path d="M0 0 C5.1937 6.138 5 10.8348 5 19 C12.92 19 20.84 19 29 19 C29 19.33 29 19.66 29 20 C20.42 20 11.84 20 3 20 C1.6929 17.3857 1.703 15.1649 1.5 12.25 C1.1869 8.1154 0.7925 4.0759 0 0 Z " fill="#D5BE8F" transform="translate(1337,30)"/>
</svg>
