<?xml version="1.0" encoding="UTF-8"?>
<!-- Generator: visioncortex VTracer 0.6.12 -->
<svg version="1.1" xmlns="http://www.w3.org/2000/svg" width="1600" height="474">
<path d="M0 0 C528 0 1056 0 1600 0 C1600 156.42 1600 312.84 1600 474 C1072 474 544 474 0 474 C0 317.58 0 161.16 0 0 Z " fill="#FEFEFE" transform="translate(0,0)"/>
<path d="M0 0 C1.2787 -0.0619 2.5575 -0.1238 3.875 -0.1875 C4.5943 -0.2223 5.3136 -0.2571 6.0547 -0.293 C6.3757 -0.2446 6.3757 -0.2446 8 0 C10.4295 3.6442 10.1618 5.7124 10 10 C10.354 9.9998 10.354 9.9998 12.1452 9.9991 C89.1827 9.9652 166.2202 9.9338 243.2577 9.9153 C243.8327 9.9152 243.8327 9.9152 246.7424 9.9145 C271.7308 9.9085 296.7192 9.903 321.7075 9.8979 C333.961 9.8954 346.2145 9.8928 358.468 9.8901 C359.0777 9.89 359.0777 9.89 362.1632 9.8893 C401.7197 9.8808 441.2762 9.8658 480.8327 9.8474 C521.4668 9.8286 562.1008 9.8162 602.7349 9.8122 C608.4682 9.8116 614.2015 9.8109 619.9349 9.8102 C620.4991 9.8102 620.4991 9.8102 623.3544 9.8098 C641.5525 9.8075 659.7506 9.7982 677.9487 9.7863 C696.2238 9.7746 714.4989 9.7701 732.774 9.773 C743.6446 9.7745 754.5152 9.7704 765.3857 9.7584 C772.6356 9.7509 779.8854 9.7506 787.1353 9.7563 C791.2736 9.7594 795.4119 9.7592 799.5502 9.7502 C803.3088 9.7422 807.0673 9.7432 810.8258 9.7517 C812.8273 9.7538 814.8288 9.7461 816.8303 9.738 C818.0067 9.7425 819.1831 9.747 820.3952 9.7516 C821.413 9.7513 822.4307 9.751 823.4794 9.7507 C826 10 826 10 829 12 C829.25 15.0625 829.25 15.0625 829 18 C827.3238 19.6762 825.2676 19.129 823.0289 19.1418 C822.3096 19.1407 821.5903 19.1397 820.8491 19.1387 C820.4687 19.1401 820.4687 19.1401 818.5433 19.1473 C815.9609 19.1557 813.3785 19.1569 810.796 19.1582 C808.939 19.1628 807.082 19.1678 805.2249 19.1732 C800.0965 19.1868 794.968 19.1942 789.8396 19.2006 C784.3188 19.2086 778.7979 19.2223 773.2771 19.2353 C763.7034 19.2571 754.1298 19.2753 744.5561 19.2909 C730.714 19.3136 716.8719 19.3417 703.0298 19.3712 C680.5745 19.419 658.1192 19.4622 635.6638 19.5027 C613.8445 19.542 592.0251 19.5834 570.2058 19.6277 C569.5336 19.629 568.8614 19.6304 568.1689 19.6318 C561.4186 19.6455 554.6684 19.6592 547.9181 19.673 C491.2788 19.7884 434.6394 19.8967 378 20 C378.4618 21.4401 378.9284 22.8787 379.397 24.3167 C379.6563 25.1179 379.9156 25.9192 380.1828 26.7448 C381.2185 29.603 382.6522 31.9391 384.375 34.4375 C387.1732 38.6553 389.5366 42.8836 391.7422 47.4336 C393.1676 50.342 394.6614 53.2056 396.1875 56.0625 C396.4318 56.5221 396.4318 56.5221 397.668 58.8477 C399 61 399 61 401 62 C401 63.32 401 64.64 401 66 C395.06 66 389.12 66 383 66 C383 67.32 383 68.64 383 70 C383.4683 69.9994 383.4683 69.9994 385.8382 69.9965 C441.2937 69.9294 496.7491 69.878 552.2046 69.8468 C558.8565 69.8431 565.5083 69.8392 572.1602 69.8352 C572.8221 69.8348 573.4841 69.8344 574.1661 69.834 C595.6384 69.8212 617.1107 69.7987 638.583 69.7711 C661.2654 69.742 683.9478 69.724 706.6302 69.7177 C720.2253 69.7136 733.8204 69.7006 747.4154 69.6763 C756.7257 69.6604 766.0359 69.6556 775.3462 69.6595 C780.7256 69.6614 786.1049 69.6584 791.4843 69.6424 C796.4016 69.6279 801.3188 69.627 806.2362 69.6373 C808.0222 69.6386 809.8082 69.6347 811.5942 69.6254 C814.0082 69.6134 816.4215 69.6197 818.8354 69.6309 C819.1881 69.6269 819.1881 69.6269 820.9732 69.607 C822.9111 69.6274 822.9111 69.6274 826 70 C826.66 70.99 827.32 71.98 828 73 C827.67 74.65 827.34 76.3 827 78 C680.15 78 533.3 78 382 78 C382 95.49 382 112.98 382 131 C387.558 130.9956 393.116 130.9911 398.8425 130.9865 C449.7573 130.9468 500.672 130.9169 551.5868 130.8979 C558.2537 130.8954 564.9205 130.8928 571.5874 130.8901 C572.2509 130.8899 572.9143 130.8896 573.5979 130.8893 C595.1187 130.8808 616.6395 130.8658 638.1603 130.8474 C660.8939 130.828 683.6276 130.816 706.3612 130.8118 C719.987 130.8091 733.6128 130.8004 747.2385 130.7842 C756.5698 130.7736 765.9011 130.7704 775.2324 130.773 C780.6239 130.7743 786.0154 130.7722 791.4069 130.7616 C796.3353 130.7519 801.2637 130.7513 806.1921 130.7582 C807.9822 130.7591 809.7722 130.7565 811.5623 130.7502 C813.9816 130.7423 816.4005 130.7465 818.8198 130.7539 C819.5269 130.7487 820.2339 130.7434 820.9624 130.738 C825.7717 130.7717 825.7717 130.7717 828 133 C828 134.65 828 136.3 828 138 C680.82 138 533.64 138 382 138 C382 155.49 382 172.98 382 191 C387.558 190.9956 393.116 190.9911 398.8425 190.9865 C449.7573 190.9468 500.672 190.9169 551.5868 190.8979 C558.2537 190.8954 564.9205 190.8928 571.5874 190.8901 C572.2509 190.8899 572.9143 190.8896 573.5979 190.8893 C595.1187 190.8808 616.6395 190.8658 638.1603 190.8474 C660.8939 190.828 683.6276 190.816 706.3612 190.8118 C719.987 190.8091 733.6128 190.8004 747.2385 190.7842 C756.5698 190.7736 765.9011 190.7704 775.2324 190.773 C780.6239 190.7743 786.0154 190.7722 791.4069 190.7616 C796.3353 190.7519 801.2637 190.7513 806.1921 190.7582 C807.9822 190.7591 809.7722 190.7565 811.5623 190.7502 C813.9816 190.7423 816.4005 190.7465 818.8198 190.7539 C819.5269 190.7487 820.2339 190.7434 820.9624 190.738 C825.7717 190.7717 825.7717 190.7717 828 193 C827.4643 196.5357 827.4643 196.5357 826 198 C823.638 198.0987 821.3053 198.1318 818.9428 198.123 C818.192 198.1242 817.4413 198.1254 816.6677 198.1265 C814.1197 198.1292 811.5718 198.1247 809.0238 198.1203 C807.1915 198.1207 805.3592 198.1216 803.527 198.1228 C798.4669 198.1251 793.4069 198.1211 788.3468 198.1161 C782.8996 198.1118 777.4524 198.1132 772.0052 198.114 C762.5592 198.1145 753.1133 198.1113 743.6673 198.1057 C730.0098 198.0976 716.3523 198.095 702.6948 198.0937 C680.539 198.0916 658.3831 198.0849 636.2273 198.0754 C614.699 198.0663 593.1707 198.0592 571.6423 198.0549 C570.9791 198.0548 570.3159 198.0547 569.6325 198.0545 C562.3115 198.0531 554.9904 198.0517 547.6693 198.0503 C492.4462 198.0399 437.2231 198.0223 382 198 C382 199.98 382 201.96 382 204 C387.94 204 393.88 204 400 204 C400 204.99 400 205.98 400 207 C399.34 207 398.68 207 398 207 C397.893 207.7129 397.786 208.4257 397.6758 209.1602 C396.9304 212.2927 395.7594 214.632 394.1875 217.4375 C393.9181 217.919 393.9181 217.919 392.5547 220.3555 C391.3752 222.3618 390.112 224.3193 388.8125 226.25 C387.1632 228.7524 386.104 231.1636 384.9805 233.9258 C382.8058 238.5265 380.0805 242.9534 377 247 C376.01 247.33 375.02 247.66 374 248 C373.7577 247.4805 373.5153 246.961 373.2656 246.4258 C372.9305 245.7284 372.5953 245.031 372.25 244.3125 C372.0876 243.9703 372.0876 243.9703 371.2656 242.2383 C370 240 370 240 368.0742 237.6562 C365.728 234.6516 364.2038 231.6255 362.5625 228.1875 C360.2821 223.4788 357.8488 218.9921 354.9961 214.6055 C352.897 211.2222 351.9607 207.8429 351 204 C356.94 204 362.88 204 369 204 C369 202.02 369 200.04 369 198 C368.5908 198.0002 368.5908 198.0002 366.5202 198.0009 C277.4723 198.0348 188.4244 198.0662 99.3766 198.0847 C98.034 198.085 96.6915 198.0852 95.349 198.0855 C67.1707 198.0914 38.9924 198.0968 10.8142 198.1018 C-3.3401 198.1043 -17.4943 198.1068 -31.6486 198.1095 C-33.7837 198.1099 -35.9189 198.1103 -38.054 198.1107 C-70.9439 198.1168 -103.8338 198.1246 -136.7237 198.1373 C-137.4312 198.1376 -138.1387 198.1379 -138.8676 198.1382 C-150.2752 198.1426 -161.6827 198.1472 -173.0902 198.1517 C-205.9356 198.1649 -238.781 198.1771 -271.6263 198.1823 C-271.9638 198.1823 -271.9638 198.1823 -273.6718 198.1826 C-287.8227 198.1848 -301.9735 198.1866 -316.1243 198.1878 C-322.7504 198.1884 -329.3765 198.1891 -336.0026 198.1898 C-337.3068 198.1899 -338.611 198.19 -339.9547 198.1902 C-360.9908 198.1925 -382.027 198.2018 -403.0631 198.2137 C-424.1858 198.2254 -445.3084 198.2299 -466.4311 198.227 C-478.9971 198.2255 -491.5631 198.2296 -504.1291 198.2416 C-512.5078 198.2491 -520.8865 198.2494 -529.2652 198.2437 C-534.0491 198.2406 -538.8329 198.2409 -543.6168 198.2498 C-547.96 198.2578 -552.3031 198.2568 -556.6463 198.2483 C-558.2162 198.2468 -559.7862 198.2488 -561.3562 198.2545 C-563.4726 198.2616 -565.5886 198.2566 -567.7051 198.2484 C-568.8815 198.2487 -570.0579 198.249 -571.2699 198.2493 C-574 198 -574 198 -576 196 C-576 194.68 -576 193.36 -576 192 C-572.641 190.8803 -570.1285 190.8753 -566.5873 190.8758 C-565.9293 190.8745 -565.2713 190.8732 -564.5934 190.8719 C-562.3687 190.8688 -560.144 190.8729 -557.9193 190.877 C-556.3093 190.8762 -554.6993 190.875 -553.0893 190.8735 C-548.633 190.8704 -544.1767 190.8736 -539.7205 190.8777 C-534.8846 190.8812 -530.0487 190.8788 -525.2128 190.8772 C-516.7268 190.8751 -508.2408 190.8767 -499.7547 190.8808 C-487.1362 190.8868 -474.5177 190.8871 -461.8992 190.8863 C-440.6755 190.8849 -419.4519 190.8883 -398.2283 190.8943 C-377.2055 190.9002 -356.1827 190.904 -335.1599 190.9051 C-334.5071 190.9052 -334.5071 190.9052 -331.2032 190.9053 C-324.5724 190.9057 -317.9416 190.906 -311.3108 190.9063 C-297.8257 190.9069 -284.3407 190.9078 -270.8557 190.9089 C-270.5183 190.9089 -270.5183 190.9089 -268.811 190.909 C-235.9766 190.9116 -203.1422 190.918 -170.3079 190.9246 C-158.9114 190.9269 -147.515 190.9291 -136.1186 190.9313 C-135.4118 190.9315 -134.705 190.9316 -133.9768 190.9318 C-101.1291 190.9381 -68.2814 190.9418 -35.4337 190.9449 C-33.3016 190.9451 -31.1695 190.9453 -29.0374 190.9455 C-14.908 190.9468 -0.7786 190.9481 13.3507 190.9493 C41.4654 190.9518 69.5801 190.9545 97.6949 190.9574 C99.0338 190.9576 100.3727 190.9577 101.7117 190.9579 C190.8078 190.9671 279.9039 190.9831 369 191 C369 173.51 369 156.02 369 138 C322.4418 138.0145 275.8837 138.0524 229.3256 138.1269 C223.8329 138.1356 218.3403 138.1442 212.8477 138.1526 C212.3009 138.1534 212.3009 138.1534 209.534 138.1577 C191.8119 138.1844 174.0899 138.1934 156.3678 138.196 C138.1926 138.1991 120.0176 138.221 101.8424 138.2605 C90.6211 138.2843 79.4 138.2933 68.1787 138.2835 C60.491 138.2782 52.8035 138.2912 45.1159 138.3187 C40.6759 138.334 36.2362 138.3411 31.7962 138.3266 C27.7347 138.3135 23.6739 138.3232 19.6124 138.3514 C18.14 138.3576 16.6674 138.3552 15.195 138.3436 C13.1994 138.3292 11.2037 138.3482 9.2081 138.3691 C8.0978 138.3703 6.9875 138.3714 5.8436 138.3726 C3 139 3 139 0.6713 141.379 C-1 144 -1 144 -1.9492 146.5664 C-3.3092 149.7162 -5.0623 150.9213 -7.8125 152.9375 C-10.8193 155.2206 -13.4366 157.276 -15.6875 160.3125 C-18.6401 163.7439 -20.7233 164.6003 -25 166 C-26.32 166 -27.64 166 -29 166 C-29 166.66 -29 167.32 -29 168 C-30.32 168 -31.64 168 -33 168 C-33.33 168.99 -33.66 169.98 -34 171 C-42.2787 174.3924 -51.5752 174.2836 -60.375 174.3125 C-61.3967 174.3179 -62.4183 174.3233 -63.4709 174.3289 C-69.3155 174.274 -74.3978 173.678 -80 172 C-80 171.34 -80 170.68 -80 170 C-81.0519 169.9175 -82.1037 169.835 -83.1875 169.75 C-87.3027 168.9404 -89.0297 167.8829 -92 165 C-92.33 164.34 -92.66 163.68 -93 163 C-93.99 162.67 -94.98 162.34 -96 162 C-99.7026 157.5351 -100.7787 153.6618 -101 148 C-101.0258 147.4908 -101.0258 147.4908 -101.1562 144.9141 C-101.4248 135.315 -100.0542 127.6165 -94 120 C-93.34 120 -92.68 120 -92 120 C-91.8763 119.7113 -91.8763 119.7113 -91.25 118.25 C-89.817 115.6706 -88.2158 113.9388 -86 112 C-85.34 112 -84.68 112 -84 112 C-84 111.34 -84 110.68 -84 110 C-78.062 105.1891 -70.6166 100.2014 -62.875 99.4375 C-59 99 -59 99 -56.0625 97.5 C-49.8067 94.4359 -42.7165 94.8966 -35.875 94.8125 C-35.2061 94.7994 -34.5373 94.7862 -33.8481 94.7727 C-26.8294 94.7615 -20.8553 96.9552 -14.375 99.4375 C-13.2896 99.8487 -12.2042 100.2599 -11.0859 100.6836 C-8 102 -8 102 -3 105 C-2.67 96.09 -2.34 87.18 -2 78 C-3.4761 78.0005 -3.4761 78.0005 -10.946 78.0028 C-62.5779 78.0188 -114.2099 78.0335 -165.8418 78.0423 C-166.6495 78.0425 -167.4571 78.0426 -168.2892 78.0428 C-185.8393 78.0458 -203.3893 78.0485 -220.9394 78.0511 C-229.5453 78.0523 -238.1512 78.0536 -246.7571 78.0549 C-247.6135 78.0551 -248.4699 78.0552 -249.3523 78.0553 C-277.1368 78.0596 -304.9214 78.0671 -332.7059 78.0763 C-361.2459 78.0857 -389.7859 78.0919 -418.3259 78.0939 C-422.3522 78.0942 -426.3785 78.0945 -430.4048 78.0949 C-431.1973 78.0949 -431.9898 78.095 -432.8063 78.0951 C-445.5894 78.0963 -458.3726 78.1009 -471.1557 78.1068 C-483.9911 78.1127 -496.8264 78.115 -509.6618 78.1135 C-517.2979 78.1127 -524.9339 78.1148 -532.57 78.1208 C-538.2561 78.125 -543.9422 78.124 -549.6283 78.1209 C-551.9405 78.1205 -554.2528 78.1218 -556.565 78.1249 C-559.6861 78.1288 -562.8071 78.1268 -565.9282 78.123 C-566.3865 78.1244 -566.3865 78.1244 -568.706 78.131 C-574.8859 78.1141 -574.8859 78.1141 -576 77 C-576.0406 75.3338 -576.0427 73.6661 -576 72 C-573.2896 71.0965 -571.7464 70.8752 -568.9661 70.8758 C-568.1409 70.8736 -567.3157 70.8713 -566.4655 70.869 C-565.5573 70.8716 -564.6491 70.8742 -563.7133 70.877 C-562.7458 70.8758 -561.7783 70.8746 -560.7815 70.8735 C-557.5082 70.8708 -554.2351 70.8753 -550.9619 70.8797 C-548.604 70.8793 -546.2462 70.8784 -543.8883 70.8772 C-538.7459 70.8754 -533.6035 70.8767 -528.461 70.8808 C-520.8144 70.8868 -513.1677 70.8871 -505.521 70.8863 C-492.6593 70.8849 -479.7976 70.8883 -466.9359 70.8943 C-454.1971 70.9002 -441.4583 70.904 -428.7194 70.9051 C-427.928 70.9052 -427.1366 70.9053 -426.3213 70.9053 C-422.3023 70.9057 -418.2834 70.906 -414.2645 70.9063 C-385.7817 70.9084 -357.2989 70.9151 -328.8162 70.9246 C-301.1417 70.9337 -273.4672 70.9408 -245.7927 70.9451 C-244.94 70.9452 -244.0873 70.9453 -243.2088 70.9455 C-234.6456 70.9468 -226.0825 70.9481 -217.5194 70.9493 C-200.0747 70.9518 -182.6299 70.9547 -165.1851 70.9577 C-164.383 70.9578 -163.5809 70.9579 -162.7544 70.9581 C-109.1696 70.9673 -55.5848 70.9834 -2 71 C-2 53.51 -2 36.02 -2 18 C-9.1764 18.0022 -16.3527 18.0044 -23.7466 18.0067 C-71.1116 18.0211 -118.4767 18.0343 -165.8418 18.0423 C-166.6495 18.0425 -167.4571 18.0426 -168.2892 18.0428 C-185.8393 18.0458 -203.3893 18.0485 -220.9394 18.0511 C-229.5453 18.0523 -238.1512 18.0536 -246.7571 18.0549 C-247.6135 18.0551 -248.4699 18.0552 -249.3523 18.0553 C-277.1368 18.0596 -304.9214 18.0671 -332.7059 18.0763 C-361.2459 18.0857 -389.7859 18.0919 -418.3259 18.0939 C-422.3522 18.0942 -426.3785 18.0945 -430.4048 18.0949 C-431.1973 18.0949 -431.9898 18.095 -432.8063 18.0951 C-445.5894 18.0963 -458.3726 18.1009 -471.1557 18.1068 C-483.9911 18.1127 -496.8264 18.115 -509.6618 18.1135 C-517.2979 18.1127 -524.9339 18.1148 -532.57 18.1208 C-538.2561 18.125 -543.9422 18.124 -549.6283 18.1209 C-551.9405 18.1205 -554.2528 18.1218 -556.565 18.1249 C-559.6861 18.1288 -562.8071 18.1268 -565.9282 18.123 C-566.8449 18.1257 -567.7615 18.1283 -568.706 18.131 C-574.8859 18.1141 -574.8859 18.1141 -576 17 C-576.0406 15.3338 -576.0427 13.6661 -576 12 C-573.2896 11.0965 -571.7464 10.8752 -568.9661 10.8758 C-568.1409 10.8736 -567.3157 10.8713 -566.4655 10.869 C-566.0114 10.8703 -566.0114 10.8703 -563.7133 10.877 C-562.7458 10.8758 -561.7783 10.8746 -560.7815 10.8735 C-557.5082 10.8708 -554.2351 10.8753 -550.9619 10.8797 C-548.604 10.8793 -546.2462 10.8784 -543.8883 10.8772 C-538.7459 10.8754 -533.6035 10.8767 -528.461 10.8808 C-520.8144 10.8868 -513.1677 10.8871 -505.521 10.8863 C-492.6593 10.8849 -479.7976 10.8883 -466.9359 10.8943 C-454.1971 10.9002 -441.4583 10.904 -428.7194 10.9051 C-427.928 10.9052 -427.1366 10.9053 -426.3213 10.9053 C-422.3023 10.9057 -418.2834 10.906 -414.2645 10.9063 C-385.7817 10.9084 -357.2989 10.9151 -328.8162 10.9246 C-301.1417 10.9337 -273.4672 10.9408 -245.7927 10.9451 C-244.94 10.9452 -244.0873 10.9453 -243.2088 10.9455 C-234.6456 10.9468 -226.0825 10.9481 -217.5194 10.9493 C-200.0747 10.9518 -182.6299 10.9547 -165.1851 10.9577 C-164.383 10.9578 -163.5809 10.9579 -162.7544 10.9581 C-109.1696 10.9673 -55.5848 10.9831 -2 11 C-2 8.03 -2 5.06 -2 2 C-1.34 2 -0.68 2 0 2 C0 1.34 0 0.68 0 0 Z " fill="#C99833" transform="translate(674,110)"/>
<path d="M0 0 C118.8 0 237.6 0 360 0 C360 17.49 360 34.98 360 53 C314.2825 53.0226 268.5651 53.0405 222.8476 53.0511 C217.4563 53.0523 212.0649 53.0536 206.6736 53.0549 C206.1369 53.0551 206.1369 53.0551 203.421 53.0557 C186.017 53.0601 168.613 53.068 151.209 53.0772 C133.365 53.0865 115.521 53.0921 97.6769 53.0941 C86.6568 53.0955 75.6367 53.0998 64.6167 53.1079 C57.0706 53.1132 49.5246 53.1148 41.9785 53.1135 C37.618 53.1129 33.2575 53.1139 28.897 53.1192 C24.9117 53.124 20.9265 53.1243 16.9412 53.1209 C15.493 53.1205 14.0449 53.1218 12.5967 53.1249 C10.641 53.1288 8.6853 53.1262 6.7297 53.123 C6.1846 53.1232 6.1846 53.1232 3.4261 53.1242 C1 53 1 53 0 52 C0 34.84 0 17.68 0 0 Z " fill="#FDFCFC" transform="translate(683,188)"/>
<path d="M0 0 C120.12 0 240.24 0 364 0 C363.1467 4.2664 362.226 6.496 360.043 10.0977 C358.6201 12.693 357.7139 15.3917 356.8086 18.2031 C355.8644 20.3013 354.6554 21.4204 353 23 C350.7038 26.6595 348.9311 30.0346 347.5625 34.125 C346.1967 38.0337 344.0071 40.1512 341 43 C340.67 44.32 340.34 45.64 340 47 C345.94 47 351.88 47 358 47 C358 48.32 358 49.64 358 51 C239.86 51 121.72 51 0 51 C0 34.17 0 17.34 0 0 Z " fill="#FEFEFE" transform="translate(684,129)"/>
<path d="M0 0 C42.828 -0.0165 85.6559 -0.0323 128.4839 -0.0476 C128.9029 -0.0478 128.9029 -0.0478 131.0234 -0.0485 C220.7924 -0.0806 310.5614 -0.1082 400.3304 -0.127 C402.3236 -0.1274 404.3169 -0.1279 406.3102 -0.1283 C448.147 -0.1371 489.9837 -0.1452 531.8204 -0.1526 C552.8354 -0.1564 573.8504 -0.1602 594.8654 -0.1642 C598.0354 -0.1648 601.2055 -0.1654 604.3756 -0.166 C653.209 -0.1752 702.0424 -0.1869 750.8759 -0.206 C751.9264 -0.2064 752.9769 -0.2068 754.0592 -0.2072 C770.9973 -0.2139 787.9354 -0.2207 804.8734 -0.2276 C853.6414 -0.2474 902.4093 -0.2656 951.1773 -0.2734 C951.6784 -0.2735 951.6784 -0.2735 954.2142 -0.2739 C976.2113 -0.2774 998.2084 -0.2801 1020.2055 -0.282 C1029.0555 -0.2828 1037.9055 -0.2837 1046.7554 -0.2846 C1047.724 -0.2847 1048.6927 -0.2848 1049.6906 -0.2849 C1080.9348 -0.2882 1112.1789 -0.3011 1143.423 -0.3188 C1174.8788 -0.3367 1206.3346 -0.3453 1237.7904 -0.3409 C1242.1308 -0.3403 1246.4713 -0.3398 1250.8118 -0.3393 C1251.2372 -0.3393 1251.2372 -0.3393 1253.3903 -0.3391 C1266.8991 -0.3379 1280.4078 -0.3469 1293.9166 -0.36 C1307.179 -0.3727 1320.4413 -0.3748 1333.7037 -0.3655 C1341.4927 -0.3603 1349.2816 -0.3635 1357.0706 -0.3787 C1362.8326 -0.389 1368.5946 -0.3838 1374.3566 -0.3724 C1376.6884 -0.3703 1379.0202 -0.3732 1381.352 -0.3817 C1384.4931 -0.3924 1387.6337 -0.385 1390.7748 -0.3726 C1391.6927 -0.3801 1392.6106 -0.3876 1393.5564 -0.3954 C1396.0677 -0.374 1396.0677 -0.374 1400 0 C1402 3 1402 3 1401.6875 5.125 C1401 7 1401 7 1400 8 C1396.9597 8.1003 1393.9421 8.134 1390.9013 8.1265 C1390.4146 8.1273 1390.4146 8.1273 1387.9521 8.1311 C1384.6408 8.1351 1381.3295 8.1318 1378.0182 8.1286 C1375.6301 8.13 1373.2419 8.1318 1370.8537 8.1339 C1365.6191 8.1377 1360.3844 8.1383 1355.1497 8.1362 C1347.3132 8.1331 1339.4767 8.1358 1331.6401 8.1395 C1318.2875 8.1458 1304.9348 8.1472 1291.5821 8.1461 C1278.0419 8.145 1264.5017 8.146 1250.9615 8.1497 C1250.5346 8.1498 1250.5346 8.1498 1248.3744 8.1504 C1244.8974 8.1513 1241.4205 8.1523 1237.9436 8.1533 C1201.6288 8.1634 1165.3139 8.1665 1128.999 8.1671 C1125.0873 8.1671 1121.1755 8.1672 1117.2637 8.1673 C1116.7784 8.1673 1116.7784 8.1673 1114.3224 8.1673 C1092.8359 8.1677 1071.3495 8.1699 1049.863 8.1724 C1041.0224 8.1734 1032.1818 8.1744 1023.3411 8.1754 C1022.8527 8.1755 1022.8527 8.1755 1020.3813 8.1758 C964.3907 8.1821 908.4001 8.1862 852.4095 8.1858 C850.313 8.1857 848.2166 8.1857 846.1201 8.1857 C836.6543 8.1856 827.1885 8.1855 817.7226 8.1855 C813.5013 8.1854 809.2801 8.1854 805.0588 8.1853 C802.946 8.1853 800.8331 8.1853 798.7203 8.1853 C731.8937 8.1846 665.0671 8.1919 598.2405 8.2058 C581.4018 8.2093 564.5631 8.2128 547.7245 8.2161 C546.6877 8.2163 545.651 8.2165 544.5829 8.2167 C512.6476 8.2229 480.7123 8.2267 448.7771 8.2279 C447.7749 8.228 446.7728 8.228 445.7403 8.2281 C423.7447 8.2289 401.7492 8.2292 379.7536 8.2289 C371.8839 8.2288 364.0141 8.2287 356.1444 8.2287 C354.1865 8.2287 352.2286 8.2287 350.2707 8.2287 C319.0293 8.2285 287.788 8.2342 256.5467 8.2428 C225.0944 8.2515 193.6421 8.2537 162.1898 8.2471 C157.8499 8.2462 153.5099 8.2453 149.1699 8.2445 C148.7445 8.2444 148.7445 8.2444 146.5918 8.244 C133.0846 8.2417 119.5774 8.246 106.0702 8.2532 C92.8095 8.26 79.5487 8.2599 66.288 8.252 C58.4999 8.2476 50.712 8.2487 42.924 8.2579 C37.1627 8.264 31.4015 8.2599 25.6402 8.2515 C23.3087 8.2498 20.9772 8.2515 18.6457 8.2568 C15.5051 8.2635 12.3647 8.2582 9.2241 8.2495 C8.3063 8.2544 7.3884 8.2593 6.4428 8.2644 C0.2283 8.2283 0.2283 8.2283 -2 6 C-1.6464 3.7373 -1.0246 2.0491 0 0 Z " fill="#AAA599" transform="translate(100,360)"/>
<path d="M0 0 C0.33 0.165 0.33 0.165 2 1 C2 3.31 2 5.62 2 8 C2.354 7.9998 2.354 7.9998 4.1452 7.9991 C81.1827 7.9652 158.2202 7.9338 235.2577 7.9153 C235.8327 7.9152 235.8327 7.9152 238.7424 7.9145 C263.7308 7.9085 288.7192 7.903 313.7075 7.8979 C325.961 7.8954 338.2145 7.8928 350.468 7.8901 C351.0777 7.89 351.0777 7.89 354.1632 7.8893 C393.7197 7.8808 433.2762 7.8658 472.8327 7.8474 C513.4668 7.8286 554.1008 7.8162 594.7349 7.8122 C600.4682 7.8116 606.2015 7.8109 611.9349 7.8102 C612.4991 7.8102 612.4991 7.8102 615.3544 7.8098 C633.5525 7.8075 651.7506 7.7982 669.9487 7.7863 C688.2238 7.7746 706.4989 7.7701 724.774 7.773 C735.6446 7.7745 746.5152 7.7704 757.3857 7.7584 C764.6356 7.7509 771.8854 7.7506 779.1353 7.7563 C783.2736 7.7594 787.4119 7.7592 791.5502 7.7502 C795.3088 7.7422 799.0673 7.7432 802.8258 7.7517 C804.8273 7.7538 806.8288 7.7461 808.8303 7.738 C810.0067 7.7425 811.1831 7.747 812.3952 7.7516 C813.413 7.7513 814.4307 7.751 815.4794 7.7507 C818 8 818 8 821 10 C821.25 13.0625 821.25 13.0625 821 16 C819.3238 17.6762 817.2676 17.129 815.0289 17.1418 C814.3096 17.1407 813.5903 17.1397 812.8491 17.1387 C812.4687 17.1401 812.4687 17.1401 810.5433 17.1473 C807.9609 17.1557 805.3785 17.1569 802.796 17.1582 C800.939 17.1628 799.082 17.1678 797.2249 17.1732 C792.0965 17.1868 786.968 17.1942 781.8396 17.2006 C776.3188 17.2086 770.7979 17.2223 765.2771 17.2353 C755.7034 17.2571 746.1298 17.2753 736.5561 17.2909 C722.714 17.3136 708.8719 17.3417 695.0298 17.3712 C672.5745 17.419 650.1192 17.4622 627.6638 17.5027 C605.8445 17.542 584.0251 17.5834 562.2058 17.6277 C561.5336 17.629 560.8614 17.6304 560.1689 17.6318 C553.4186 17.6455 546.6684 17.6592 539.9181 17.673 C483.2788 17.7884 426.6394 17.8967 370 18 C370.66 20.64 371.32 23.28 372 26 C371.34 25.67 370.68 25.34 370 25 C370 24.01 370 23.02 370 22 C367.8313 22.506 366.0003 22.9998 364 24 C364.66 21.69 365.32 19.38 366 17 C245.88 17 125.76 17 2 17 C2 33.83 2 50.66 2 68 C120.14 68 238.28 68 360 68 C360 66.68 360 65.36 360 64 C354.06 64 348.12 64 342 64 C343 59 343 59 346 57 C345.34 58.65 344.68 60.3 344 62 C344.6078 61.9942 344.6078 61.9942 347.6836 61.9648 C349.2682 61.9555 350.8529 61.9464 352.4375 61.9375 C353.2399 61.9291 354.0424 61.9207 354.8691 61.9121 C356.913 61.9035 358.9568 61.9477 361 62 C362 63 362 63 362 70 C242.87 70 123.74 70 1 70 C0.67 46.9 0.34 23.8 0 0 Z " fill="#A0998C" transform="translate(682,112)"/>
<path d="M0 0 C0.33 0 0.66 0 1 0 C1 34.65 1 69.3 1 105 C-0.32 104.67 -1.64 104.34 -3 104 C-2.34 103.67 -1.68 103.34 -1 103 C-0.67 94.09 -0.34 85.18 0 76 C-1.4761 76.0005 -1.4761 76.0005 -8.946 76.0028 C-60.5779 76.0188 -112.2099 76.0335 -163.8418 76.0423 C-164.6495 76.0425 -165.4571 76.0426 -166.2892 76.0428 C-183.8393 76.0458 -201.3893 76.0485 -218.9394 76.0511 C-227.5453 76.0523 -236.1512 76.0536 -244.7571 76.0549 C-245.6135 76.0551 -246.4699 76.0552 -247.3523 76.0553 C-275.1368 76.0596 -302.9214 76.0671 -330.7059 76.0763 C-359.2459 76.0857 -387.7859 76.0919 -416.3259 76.0939 C-420.3522 76.0942 -424.3785 76.0945 -428.4048 76.0949 C-429.1973 76.0949 -429.9898 76.095 -430.8063 76.0951 C-443.5894 76.0963 -456.3726 76.1009 -469.1557 76.1068 C-481.9911 76.1127 -494.8264 76.115 -507.6618 76.1135 C-515.2979 76.1127 -522.9339 76.1148 -530.57 76.1208 C-536.2561 76.125 -541.9422 76.124 -547.6283 76.1209 C-549.9405 76.1205 -552.2528 76.1218 -554.565 76.1249 C-557.6861 76.1288 -560.8071 76.1268 -563.9282 76.123 C-564.3865 76.1244 -564.3865 76.1244 -566.706 76.131 C-572.8859 76.1141 -572.8859 76.1141 -574 75 C-574.0406 73.3338 -574.0427 71.6661 -574 70 C-571.2896 69.0965 -569.7464 68.8752 -566.9661 68.8758 C-566.1409 68.8736 -565.3157 68.8713 -564.4655 68.869 C-563.5573 68.8716 -562.6491 68.8742 -561.7133 68.877 C-560.7458 68.8758 -559.7783 68.8746 -558.7815 68.8735 C-555.5082 68.8708 -552.2351 68.8753 -548.9619 68.8797 C-546.604 68.8793 -544.2462 68.8784 -541.8883 68.8772 C-536.7459 68.8754 -531.6035 68.8767 -526.461 68.8808 C-518.8144 68.8868 -511.1677 68.8871 -503.521 68.8863 C-490.6593 68.8849 -477.7976 68.8883 -464.9359 68.8943 C-452.1971 68.9002 -439.4583 68.904 -426.7194 68.9051 C-425.928 68.9052 -425.1366 68.9053 -424.3213 68.9053 C-420.3023 68.9057 -416.2834 68.906 -412.2645 68.9063 C-383.7817 68.9084 -355.2989 68.9151 -326.8162 68.9246 C-299.1417 68.9337 -271.4672 68.9408 -243.7927 68.9451 C-242.94 68.9452 -242.0873 68.9453 -241.2088 68.9455 C-232.6456 68.9468 -224.0825 68.9481 -215.5194 68.9493 C-198.0747 68.9518 -180.6299 68.9547 -163.1851 68.9577 C-162.383 68.9578 -161.5809 68.9579 -160.7544 68.9581 C-107.1696 68.9673 -53.5848 68.9834 0 69 C0 51.51 0 34.02 0 16 C-7.1764 16.0022 -14.3527 16.0044 -21.7466 16.0067 C-69.1116 16.0211 -116.4767 16.0343 -163.8418 16.0423 C-164.6495 16.0425 -165.4571 16.0426 -166.2892 16.0428 C-183.8393 16.0458 -201.3893 16.0485 -218.9394 16.0511 C-227.5453 16.0523 -236.1512 16.0536 -244.7571 16.0549 C-245.6135 16.0551 -246.4699 16.0552 -247.3523 16.0553 C-275.1368 16.0596 -302.9214 16.0671 -330.7059 16.0763 C-359.2459 16.0857 -387.7859 16.0919 -416.3259 16.0939 C-420.3522 16.0942 -424.3785 16.0945 -428.4048 16.0949 C-429.1973 16.0949 -429.9898 16.095 -430.8063 16.0951 C-443.5894 16.0963 -456.3726 16.1009 -469.1557 16.1068 C-481.9911 16.1127 -494.8264 16.115 -507.6618 16.1135 C-515.2979 16.1127 -522.9339 16.1148 -530.57 16.1208 C-536.2561 16.125 -541.9422 16.124 -547.6283 16.1209 C-549.9405 16.1205 -552.2528 16.1218 -554.565 16.1249 C-557.6861 16.1288 -560.8071 16.1268 -563.9282 16.123 C-564.8449 16.1257 -565.7615 16.1283 -566.706 16.131 C-572.8859 16.1141 -572.8859 16.1141 -574 15 C-574.0406 13.3338 -574.0427 11.6661 -574 10 C-571.2896 9.0965 -569.7464 8.8752 -566.9661 8.8758 C-566.1409 8.8736 -565.3157 8.8713 -564.4655 8.869 C-564.0114 8.8703 -564.0114 8.8703 -561.7133 8.877 C-560.7458 8.8758 -559.7783 8.8746 -558.7815 8.8735 C-555.5082 8.8708 -552.2351 8.8753 -548.9619 8.8797 C-546.604 8.8793 -544.2462 8.8784 -541.8883 8.8772 C-536.7459 8.8754 -531.6035 8.8767 -526.461 8.8808 C-518.8144 8.8868 -511.1677 8.8871 -503.521 8.8863 C-490.6593 8.8849 -477.7976 8.8883 -464.9359 8.8943 C-452.1971 8.9002 -439.4583 8.904 -426.7194 8.9051 C-425.928 8.9052 -425.1366 8.9053 -424.3213 8.9053 C-420.3023 8.9057 -416.2834 8.906 -412.2645 8.9063 C-383.7817 8.9084 -355.2989 8.9151 -326.8162 8.9246 C-299.1417 8.9337 -271.4672 8.9408 -243.7927 8.9451 C-242.94 8.9452 -242.0873 8.9453 -241.2088 8.9455 C-232.6456 8.9468 -224.0825 8.9481 -215.5194 8.9493 C-198.0747 8.9518 -180.6299 8.9547 -163.1851 8.9577 C-162.383 8.9578 -161.5809 8.9579 -160.7544 8.9581 C-107.1696 8.9673 -53.5848 8.9831 0 9 C0 6.03 0 3.06 0 0 Z " fill="#A8A296" transform="translate(672,112)"/>
<path d="M0 0 C2.64 0 5.28 0 8 0 C9.0066 7.9845 9.1455 15.8774 9.1328 23.918 C9.1338 25.2795 9.1352 26.641 9.1368 28.0025 C9.1395 31.6442 9.1351 35.286 9.1286 38.9278 C9.125 41.1925 9.1234 43.4573 9.1223 45.722 C9.1054 74.8227 8.6728 103.9069 8 133 C7.3639 133.2942 6.7279 133.5885 6.0725 133.8916 C3.5823 135.2234 3.076 136.2068 1.9375 138.75 C1.5985 139.4667 1.2595 140.1834 0.9102 140.9219 C0.1786 142.5923 -0.4847 144.2925 -1.125 146 C-3.6105 149.9768 -6.8616 152.233 -10.5742 155.043 C-12.6465 156.7148 -14.1165 158.1951 -15.6875 160.3125 C-18.6401 163.7439 -20.7233 164.6003 -25 166 C-26.32 166 -27.64 166 -29 166 C-29 166.66 -29 167.32 -29 168 C-30.32 168 -31.64 168 -33 168 C-33.33 168.99 -33.66 169.98 -34 171 C-42.2787 174.3924 -51.5752 174.2836 -60.375 174.3125 C-61.3967 174.3179 -62.4183 174.3233 -63.4709 174.3289 C-69.3155 174.274 -74.3978 173.678 -80 172 C-80 171.34 -80 170.68 -80 170 C-81.0519 169.9175 -82.1037 169.835 -83.1875 169.75 C-87.3027 168.9404 -89.0297 167.8829 -92 165 C-92.33 164.34 -92.66 163.68 -93 163 C-93.99 162.67 -94.98 162.34 -96 162 C-99.7026 157.5351 -100.7787 153.6618 -101 148 C-101.0516 146.9816 -101.1031 145.9633 -101.1562 144.9141 C-101.4248 135.315 -100.0542 127.6165 -94 120 C-93.34 120 -92.68 120 -92 120 C-91.7525 119.4225 -91.505 118.845 -91.25 118.25 C-89.817 115.6706 -88.2158 113.9388 -86 112 C-85.34 112 -84.68 112 -84 112 C-84 111.34 -84 110.68 -84 110 C-78.062 105.1891 -70.6166 100.2014 -62.875 99.4375 C-59 99 -59 99 -56.0625 97.5 C-49.8067 94.4359 -42.7165 94.8966 -35.875 94.8125 C-35.2061 94.7994 -34.5373 94.7862 -33.8481 94.7727 C-26.8426 94.7615 -20.8084 96.9611 -14.3125 99.375 C-13.2155 99.7746 -12.1185 100.1742 -10.9883 100.5859 C-7.9306 102.0328 -6.2961 103.5688 -4 106 C-3.505 106.165 -3.505 106.165 -1 107 C-1.0022 105.689 -1.0044 104.378 -1.0067 103.0273 C-1.027 90.6957 -1.042 78.3642 -1.0518 66.0327 C-1.057 59.6924 -1.0641 53.3521 -1.0754 47.0117 C-1.0863 40.8974 -1.0923 34.7832 -1.0949 28.6689 C-1.0967 26.3316 -1.1003 23.9943 -1.1057 21.657 C-1.1129 18.3932 -1.114 15.1295 -1.1135 11.8657 C-1.1171 10.8911 -1.1207 9.9164 -1.1244 8.9123 C-1.123 8.026 -1.1217 7.1398 -1.1203 6.2267 C-1.1212 5.4543 -1.1221 4.6818 -1.123 3.8859 C-1 2 -1 2 0 0 Z " fill="#413C36" transform="translate(674,110)"/>
<path d="M0 0 C0.33 0 0.66 0 1 0 C1 21.78 1 43.56 1 66 C0.67 66 0.34 66 0 66 C0 64.02 0 62.04 0 60 C-0.4092 60.0002 -0.4092 60.0002 -2.4798 60.0009 C-91.5277 60.0348 -180.5756 60.0662 -269.6234 60.0847 C-270.966 60.085 -272.3085 60.0852 -273.651 60.0855 C-301.8293 60.0914 -330.0076 60.0968 -358.1858 60.1018 C-372.3401 60.1043 -386.4943 60.1068 -400.6486 60.1095 C-402.7837 60.1099 -404.9189 60.1103 -407.054 60.1107 C-439.9439 60.1168 -472.8338 60.1246 -505.7237 60.1373 C-506.4312 60.1376 -507.1387 60.1379 -507.8676 60.1382 C-519.2752 60.1426 -530.6827 60.1472 -542.0902 60.1517 C-574.9356 60.1649 -607.781 60.1771 -640.6263 60.1823 C-640.9638 60.1823 -640.9638 60.1823 -642.6718 60.1826 C-656.8227 60.1848 -670.9735 60.1866 -685.1243 60.1878 C-691.7504 60.1884 -698.3765 60.1891 -705.0026 60.1898 C-706.3068 60.1899 -707.611 60.19 -708.9547 60.1902 C-729.9908 60.1925 -751.027 60.2018 -772.0631 60.2137 C-793.1858 60.2254 -814.3084 60.2299 -835.4311 60.227 C-847.9971 60.2255 -860.5631 60.2296 -873.1291 60.2416 C-881.5078 60.2491 -889.8865 60.2494 -898.2652 60.2437 C-903.0491 60.2406 -907.8329 60.2409 -912.6168 60.2498 C-916.96 60.2578 -921.3031 60.2568 -925.6463 60.2483 C-927.2162 60.2468 -928.7862 60.2488 -930.3562 60.2545 C-932.4726 60.2616 -934.5886 60.2566 -936.7051 60.2484 C-937.8815 60.2487 -939.0579 60.249 -940.2699 60.2493 C-943 60 -943 60 -945 58 C-945 56.68 -945 55.36 -945 54 C-941.641 52.8803 -939.1285 52.8753 -935.5873 52.8758 C-934.9293 52.8745 -934.2713 52.8732 -933.5934 52.8719 C-931.3687 52.8688 -929.144 52.8729 -926.9193 52.877 C-925.3093 52.8762 -923.6993 52.875 -922.0893 52.8735 C-917.633 52.8704 -913.1767 52.8736 -908.7205 52.8777 C-903.8846 52.8812 -899.0487 52.8788 -894.2128 52.8772 C-885.7268 52.8751 -877.2408 52.8767 -868.7547 52.8808 C-856.1362 52.8868 -843.5177 52.8871 -830.8992 52.8863 C-809.6755 52.8849 -788.4519 52.8883 -767.2283 52.8943 C-746.2055 52.9002 -725.1827 52.904 -704.1599 52.9051 C-703.5071 52.9052 -703.5071 52.9052 -700.2032 52.9053 C-693.5724 52.9057 -686.9416 52.906 -680.3108 52.9063 C-666.8257 52.9069 -653.3407 52.9078 -639.8557 52.9089 C-639.5183 52.9089 -639.5183 52.9089 -637.811 52.909 C-604.9766 52.9116 -572.1422 52.918 -539.3079 52.9246 C-527.9114 52.9269 -516.515 52.9291 -505.1186 52.9313 C-504.4118 52.9315 -503.705 52.9316 -502.9768 52.9318 C-470.1291 52.9381 -437.2814 52.9418 -404.4337 52.9449 C-402.3016 52.9451 -400.1695 52.9453 -398.0374 52.9455 C-383.908 52.9468 -369.7786 52.9481 -355.6493 52.9493 C-327.5346 52.9518 -299.4199 52.9545 -271.3051 52.9574 C-269.9662 52.9576 -268.6273 52.9577 -267.2883 52.9579 C-178.1922 52.9671 -89.0961 52.9831 0 53 C0 35.51 0 18.02 0 0 Z " fill="#ABA598" transform="translate(1043,248)"/>
<path d="M0 0 C0.7578 0.0026 1.5157 0.0053 2.2965 0.008 C3.0979 0.0068 3.8993 0.0057 4.7251 0.0045 C7.4454 0.0018 10.1656 0.0063 12.8859 0.0108 C14.8419 0.0103 16.7979 0.0094 18.754 0.0082 C24.1561 0.0059 29.5581 0.0099 34.9602 0.0149 C40.7755 0.0192 46.5908 0.0178 52.4061 0.017 C62.4906 0.0165 72.575 0.0197 82.6594 0.0253 C97.2399 0.0334 111.8205 0.036 126.401 0.0373 C150.0543 0.0394 173.7076 0.0461 197.3609 0.0556 C220.3443 0.0647 243.3277 0.0718 266.3111 0.0761 C267.0191 0.0762 267.7272 0.0763 268.4567 0.0765 C275.567 0.0778 282.6773 0.0791 289.7877 0.0803 C304.2731 0.0829 318.7586 0.0857 333.244 0.0887 C333.9101 0.0888 334.5762 0.0889 335.2624 0.0891 C379.7652 0.0983 424.268 0.1142 468.7708 0.131 C468.7708 7.391 468.7708 14.651 468.7708 22.131 C468.1108 21.801 467.4508 21.471 466.7708 21.131 C466.7708 16.841 466.7708 12.551 466.7708 8.131 C466.2718 8.1314 466.2718 8.1314 463.7466 8.1333 C419.7839 8.1666 375.8211 8.1975 331.8584 8.2157 C331.5258 8.2158 331.5258 8.2158 329.8429 8.2165 C315.3895 8.2225 300.9362 8.2281 286.4829 8.2331 C279.3954 8.2356 272.308 8.2382 265.2205 8.2409 C264.5152 8.2411 263.8099 8.2414 263.0832 8.2417 C240.2043 8.2502 217.3255 8.2652 194.4466 8.2836 C170.2786 8.303 146.1105 8.315 121.9425 8.3192 C107.4569 8.3219 92.9712 8.3306 78.4856 8.3468 C68.5656 8.3574 58.6456 8.3606 48.7256 8.358 C42.9939 8.3567 37.2621 8.3588 31.5304 8.3694 C26.2911 8.3791 21.0519 8.3797 15.8126 8.3728 C13.9095 8.372 12.0063 8.3745 10.1032 8.3808 C7.5315 8.3887 4.96 8.3845 2.3883 8.3771 C2.0123 8.3797 2.0123 8.3797 0.1095 8.393 C-5.0009 8.3593 -5.0009 8.3593 -7.2292 6.131 C-6.5245 0.3522 -5.7051 0.0188 0 0 Z " fill="#A39D90" transform="translate(105.22921869158745,239.8689915239811)"/>
<path d="M0 0 C0.66 0 1.32 0 2 0 C2 1.32 2 2.64 2 4 C-3.94 4 -9.88 4 -16 4 C-16 5.32 -16 6.64 -16 8 C-15.5317 7.9994 -15.5317 7.9994 -13.1618 7.9965 C42.2937 7.9294 97.7491 7.878 153.2046 7.8468 C159.8565 7.8431 166.5083 7.8392 173.1602 7.8352 C173.8221 7.8348 174.4841 7.8344 175.1661 7.834 C196.6384 7.8212 218.1107 7.7987 239.583 7.7711 C262.2654 7.742 284.9478 7.724 307.6302 7.7177 C321.2253 7.7136 334.8204 7.7006 348.4154 7.6763 C357.7257 7.6604 367.0359 7.6556 376.3462 7.6595 C381.7256 7.6614 387.1049 7.6584 392.4843 7.6424 C397.4016 7.6279 402.3188 7.627 407.2362 7.6373 C409.0222 7.6386 410.8082 7.6347 412.5942 7.6254 C415.0082 7.6134 417.4215 7.6197 419.8354 7.6309 C420.5409 7.623 421.2464 7.6151 421.9732 7.607 C423.9111 7.6274 423.9111 7.6274 427 8 C427.66 8.99 428.32 9.98 429 11 C428.67 12.65 428.34 14.3 428 16 C281.15 16 134.3 16 -17 16 C-18 10 -18 10 -18 2 C-12.06 2 -6.12 2 0 2 C0 1.34 0 0.68 0 0 Z " fill="#A0998C" transform="translate(1073,172)"/>
<path d="M0 0 C0.33 0.165 0.33 0.165 2 1 C2 3.31 2 5.62 2 8 C2.354 7.9998 2.354 7.9998 4.1452 7.9991 C81.1827 7.9652 158.2202 7.9338 235.2577 7.9153 C235.8327 7.9152 235.8327 7.9152 238.7424 7.9145 C263.7308 7.9085 288.7192 7.903 313.7075 7.8979 C325.961 7.8954 338.2145 7.8928 350.468 7.8901 C351.0777 7.89 351.0777 7.89 354.1632 7.8893 C393.7197 7.8808 433.2762 7.8658 472.8327 7.8474 C513.4668 7.8286 554.1008 7.8162 594.7349 7.8122 C600.4682 7.8116 606.2015 7.8109 611.9349 7.8102 C612.4991 7.8102 612.4991 7.8102 615.3544 7.8098 C633.5525 7.8075 651.7506 7.7982 669.9487 7.7863 C688.2238 7.7746 706.4989 7.7701 724.774 7.773 C735.6446 7.7745 746.5152 7.7704 757.3857 7.7584 C764.6356 7.7509 771.8854 7.7506 779.1353 7.7563 C783.2736 7.7594 787.4119 7.7592 791.5502 7.7502 C795.3088 7.7422 799.0673 7.7432 802.8258 7.7517 C804.8273 7.7538 806.8288 7.7461 808.8303 7.738 C810.0067 7.7425 811.1831 7.747 812.3952 7.7516 C813.413 7.7513 814.4307 7.751 815.4794 7.7507 C818 8 818 8 821 10 C821.25 13.0625 821.25 13.0625 821 16 C819.3238 17.6762 817.2676 17.129 815.0289 17.1418 C814.3096 17.1407 813.5903 17.1397 812.8491 17.1387 C812.4687 17.1401 812.4687 17.1401 810.5433 17.1473 C807.9609 17.1557 805.3785 17.1569 802.796 17.1582 C800.939 17.1628 799.082 17.1678 797.2249 17.1732 C792.0965 17.1868 786.968 17.1942 781.8396 17.2006 C776.3188 17.2086 770.7979 17.2223 765.2771 17.2353 C755.7034 17.2571 746.1298 17.2753 736.5561 17.2909 C722.714 17.3136 708.8719 17.3417 695.0298 17.3712 C672.5745 17.419 650.1192 17.4622 627.6638 17.5027 C605.8445 17.542 584.0251 17.5834 562.2058 17.6277 C561.5336 17.629 560.8614 17.6304 560.1689 17.6318 C553.4186 17.6455 546.6684 17.6592 539.9181 17.673 C483.2788 17.7884 426.6394 17.8967 370 18 C370.66 20.64 371.32 23.28 372 26 C371.34 25.67 370.68 25.34 370 25 C370 24.01 370 23.02 370 22 C367.8313 22.506 366.0003 22.9998 364 24 C364.66 21.69 365.32 19.38 366 17 C245.88 17 125.76 17 2 17 C2 33.83 2 50.66 2 68 C120.14 68 238.28 68 360 68 C360 66.68 360 65.36 360 64 C354.06 64 348.12 64 342 64 C343 59 343 59 346 57 C345.34 58.65 344.68 60.3 344 62 C344.6078 61.9942 344.6078 61.9942 347.6836 61.9648 C349.2682 61.9555 350.8529 61.9464 352.4375 61.9375 C353.2399 61.9291 354.0424 61.9207 354.8691 61.9121 C356.913 61.9035 358.9568 61.9477 361 62 C362 63 362 63 362 70 C242.87 70 123.74 70 1 70 C1 52.18 1 34.36 1 16 C270.94 15.67 540.88 15.34 819 15 C819 13.68 819 12.36 819 11 C684.03 10.835 684.03 10.835 1 10 C-0.6073 6.7855 -0.0575 3.5639 0 0 Z " fill="#CECBC4" transform="translate(682,112)"/>
<path d="M0 0 C56.5289 -0.0457 113.0579 -0.081 169.5868 -0.1021 C176.2537 -0.1046 182.9205 -0.1072 189.5874 -0.1099 C190.2509 -0.1101 190.9143 -0.1104 191.5979 -0.1107 C213.1187 -0.1192 234.6395 -0.1342 256.1603 -0.1526 C278.8939 -0.172 301.6276 -0.184 324.3612 -0.1882 C337.987 -0.1909 351.6128 -0.1996 365.2385 -0.2158 C374.5698 -0.2264 383.9011 -0.2296 393.2324 -0.227 C398.6239 -0.2257 404.0154 -0.2278 409.4069 -0.2384 C414.3353 -0.2481 419.2637 -0.2487 424.1921 -0.2418 C425.9822 -0.2409 427.7722 -0.2435 429.5623 -0.2498 C431.9816 -0.2577 434.4005 -0.2535 436.8198 -0.2461 C437.5269 -0.2513 438.2339 -0.2566 438.9624 -0.262 C443.7717 -0.2283 443.7717 -0.2283 446 2 C445.4643 5.5357 445.4643 5.5357 444 7 C441.638 7.0987 439.3053 7.1318 436.9428 7.123 C436.192 7.1242 435.4413 7.1254 434.6677 7.1265 C432.1197 7.1292 429.5718 7.1247 427.0238 7.1203 C425.1915 7.1207 423.3592 7.1216 421.527 7.1228 C416.4669 7.1251 411.4069 7.1211 406.3468 7.1161 C400.8996 7.1118 395.4524 7.1132 390.0052 7.114 C380.5592 7.1145 371.1133 7.1113 361.6673 7.1057 C348.0098 7.0976 334.3523 7.095 320.6948 7.0937 C298.539 7.0916 276.3831 7.0849 254.2273 7.0754 C232.699 7.0663 211.1707 7.0592 189.6423 7.0549 C188.9791 7.0548 188.3159 7.0547 187.6325 7.0545 C180.3115 7.0531 172.9904 7.0517 165.6693 7.0503 C110.4462 7.0399 55.2231 7.0223 0 7 C0 4.69 0 2.38 0 0 Z " fill="#A6A194" transform="translate(1056,301)"/>
<path d="M0 0 C0.33 0 0.66 0 1 0 C1.33 17.16 1.66 34.32 2 52 C120.47 52.33 238.94 52.66 361 53 C361 35.51 361 18.02 361 0 C361.33 0 361.66 0 362 0 C362 17.82 362 35.64 362 54 C359.36 54.165 359.36 54.165 346 55 C346 55.99 346 56.98 346 58 C350.95 58.33 355.9 58.66 361 59 C361 59.33 361 59.66 361 60 C360.2263 60.0017 359.4526 60.0035 358.6555 60.0053 C312.8448 60.1082 267.0341 60.2163 221.2234 60.3311 C215.7282 60.3449 210.233 60.3586 204.7378 60.3723 C204.1908 60.3737 204.1908 60.3737 201.4225 60.3806 C183.6862 60.4247 165.9499 60.4653 148.2135 60.5047 C130.0271 60.5451 111.8407 60.5892 93.6542 60.6369 C82.4238 60.6662 71.1934 60.6926 59.9629 60.7152 C52.2715 60.731 44.5802 60.7504 36.8889 60.7727 C32.4452 60.7854 28.0015 60.7966 23.5578 60.8034 C19.4954 60.8097 15.433 60.8205 11.3706 60.835 C9.8955 60.8395 8.4204 60.8422 6.9452 60.8432 C4.9508 60.8447 2.9564 60.8528 0.9621 60.8613 C0.4065 60.8627 0.4065 60.8627 -2.4048 60.8694 C-5 61 -5 61 -7 62 C-5.926 59.0848 -5.2219 57.2219 -3 55 C-2.01 55 -1.02 55 0 55 C0 36.85 0 18.7 0 0 Z " fill="#ACA597" transform="translate(682,188)"/>
<path d="M0 0 C56.5289 -0.0457 113.0579 -0.081 169.5868 -0.1021 C176.2537 -0.1046 182.9205 -0.1072 189.5874 -0.1099 C190.2509 -0.1101 190.9143 -0.1104 191.5979 -0.1107 C213.1187 -0.1192 234.6395 -0.1342 256.1603 -0.1526 C278.8939 -0.172 301.6276 -0.184 324.3612 -0.1882 C337.987 -0.1909 351.6128 -0.1996 365.2385 -0.2158 C374.5698 -0.2264 383.9011 -0.2296 393.2324 -0.227 C398.6239 -0.2257 404.0154 -0.2278 409.4069 -0.2384 C414.3353 -0.2481 419.2637 -0.2487 424.1921 -0.2418 C425.9822 -0.2409 427.7722 -0.2435 429.5623 -0.2498 C431.9816 -0.2577 434.4005 -0.2535 436.8198 -0.2461 C437.5269 -0.2513 438.2339 -0.2566 438.9624 -0.262 C443.7717 -0.2283 443.7717 -0.2283 446 2 C446 3.65 446 5.3 446 7 C338.09 7 230.18 7 119 7 C119.33 5.02 119.66 3.04 120 1 C80.4 1 40.8 1 0 1 C0 0.67 0 0.34 0 0 Z " fill="#ACA79A" transform="translate(1056,241)"/>
<path d="M0 0 C118.8 0 237.6 0 360 0 C360 1.98 360 3.96 360 6 C241.2 6 122.4 6 0 6 C0 4.02 0 2.04 0 0 Z " fill="#A49E91" transform="translate(683,182)"/>
<path d="M0 0 C0.66 0 1.32 0 2 0 C2 0.66 2 1.32 2 2 C312.53 2 623.06 2 943 2 C943 2.66 943 3.32 943 4 C631.81 4 320.62 4 0 4 C0 2.68 0 1.36 0 0 Z " fill="#9D9688" transform="translate(99,303)"/>
<path d="M0 0 C269.61 0 539.22 0 817 0 C817.33 1.65 817.66 3.3 818 5 C817 6 817 6 814.7261 6.1247 C813.7067 6.1245 812.6874 6.1244 811.6372 6.1242 C810.4638 6.1264 809.2905 6.1287 808.0816 6.131 C807.4275 6.1297 807.4275 6.1297 804.1176 6.123 C802.7231 6.1238 801.3286 6.125 799.9341 6.1265 C796.0668 6.1296 792.1996 6.1264 788.3324 6.1223 C784.1385 6.1188 779.9447 6.1212 775.7508 6.1228 C768.3889 6.1249 761.027 6.1233 753.6651 6.1192 C742.7181 6.1132 731.7711 6.1129 720.8241 6.1137 C702.4124 6.1151 684.0008 6.1117 665.5892 6.1057 C647.3503 6.0998 629.1114 6.096 610.8724 6.0949 C609.7398 6.0948 608.6073 6.0947 607.4404 6.0947 C601.689 6.0943 595.9376 6.094 590.1861 6.0937 C549.4123 6.0916 508.6384 6.0849 467.8645 6.0754 C428.2447 6.0663 388.6249 6.0592 349.0051 6.0549 C347.7846 6.0548 346.5641 6.0547 345.3066 6.0545 C333.0501 6.0532 320.7936 6.0519 308.5371 6.0507 C283.5676 6.0482 258.598 6.0453 233.6284 6.0423 C233.0544 6.0423 233.0544 6.0423 230.1492 6.0419 C153.4328 6.0327 76.7164 6.0169 0 6 C0 5.67 0 5.34 0 5 C268.95 4.67 537.9 4.34 815 4 C815 3.01 815 2.02 815 1 C546.05 1 277.1 1 0 1 C0 0.67 0 0.34 0 0 Z " fill="#ACA79A" transform="translate(684,122)"/>
<path d="M0 0 C0.7578 0.0026 1.5157 0.0053 2.2965 0.008 C3.0979 0.0068 3.8993 0.0057 4.7251 0.0045 C7.4454 0.0018 10.1656 0.0063 12.8859 0.0108 C14.8419 0.0103 16.7979 0.0094 18.754 0.0082 C24.1561 0.0059 29.5581 0.0099 34.9602 0.0149 C40.7755 0.0192 46.5908 0.0178 52.4061 0.017 C62.4906 0.0165 72.575 0.0197 82.6594 0.0253 C97.2399 0.0334 111.8205 0.036 126.401 0.0373 C150.0543 0.0394 173.7076 0.0461 197.3609 0.0556 C220.3443 0.0647 243.3277 0.0718 266.3111 0.0761 C267.0191 0.0762 267.7272 0.0763 268.4567 0.0765 C275.567 0.0778 282.6773 0.0791 289.7877 0.0803 C304.2731 0.0829 318.7586 0.0857 333.244 0.0887 C333.9101 0.0888 334.5762 0.0889 335.2624 0.0891 C379.7652 0.0983 424.268 0.1142 468.7708 0.131 C468.7708 1.121 468.7708 2.111 468.7708 3.131 C313.0108 3.131 157.2508 3.131 -3.2292 3.131 C-3.5592 3.791 -3.8892 4.451 -4.2292 5.131 C-4.2292 4.471 -4.2292 3.811 -4.2292 3.131 C-4.8892 3.131 -5.5492 3.131 -6.2292 3.131 C-6.5592 4.121 -6.8892 5.111 -7.2292 6.131 C-6.2001 0.3971 -5.9196 0.0195 0 0 Z " fill="#BDB9AF" transform="translate(105.22921869158745,239.8689915239811)"/>
<path d="M0 0 C0.9559 0.0028 1.9118 0.0055 2.8967 0.0084 C3.4456 0.0063 3.4456 0.0063 6.2238 -0.0041 C7.4286 0.0067 8.6334 0.0175 9.8748 0.0286 C10.509 0.0283 10.509 0.0283 13.7184 0.0272 C17.1976 0.0264 20.6765 0.044 24.1556 0.065 C27.7911 0.0837 31.4266 0.0855 35.0621 0.089 C41.9469 0.0984 48.8316 0.123 55.7164 0.1531 C63.5543 0.1866 71.3921 0.2031 79.2301 0.2182 C95.3537 0.2495 111.4771 0.3023 127.6006 0.3691 C127.6006 1.6891 127.6006 3.0091 127.6006 4.3691 C132.5506 4.6991 137.5006 5.0291 142.6006 5.3691 C142.6006 5.6991 142.6006 6.0291 142.6006 6.3691 C122.9339 6.4022 103.2673 6.4209 83.6006 6.4316 C82.8319 6.4321 82.0631 6.4325 81.2711 6.433 C14.3592 6.4697 -52.5508 6.1949 -119.4619 5.8691 C-120.6907 5.8632 -121.9195 5.8572 -123.1856 5.851 C-154.9235 5.6966 -186.6615 5.5361 -218.3994 5.3691 C-218.0694 4.7091 -217.7394 4.0491 -217.3994 3.3691 C-216.3096 3.3719 -215.2197 3.3747 -214.0969 3.3775 C-187.6082 3.4441 -161.1195 3.4934 -134.6307 3.5246 C-121.8211 3.5401 -109.0115 3.5612 -96.2019 3.5955 C-85.0401 3.6253 -73.8784 3.6447 -62.7167 3.6514 C-56.8038 3.6553 -50.891 3.6646 -44.9781 3.6863 C-39.4173 3.7066 -33.8567 3.713 -28.2958 3.7085 C-26.2507 3.7093 -24.2057 3.7153 -22.1606 3.7268 C-19.3764 3.7416 -16.5928 3.7381 -13.8085 3.7299 C-12.9924 3.7386 -12.1762 3.7474 -11.3353 3.7564 C-5.7866 3.7119 -5.7866 3.7119 -3.7048 1.8691 C-2.3994 0.3691 -2.3994 0.3691 0 0 Z " fill="#AEA48F" transform="translate(900.3994016647339,241.63085651397705)"/>
<path d="M0 0 C0.66 0 1.32 0 2 0 C2 1.32 2 2.64 2 4 C-3.94 4 -9.88 4 -16 4 C-16 5.32 -16 6.64 -16 8 C130.19 8 276.38 8 427 8 C427 8.66 427 9.32 427 10 C280.15 10 133.3 10 -18 10 C-18 7.36 -18 4.72 -18 2 C-12.06 2 -6.12 2 0 2 C0 1.34 0 0.68 0 0 Z " fill="#D0CCC3" transform="translate(1073,172)"/>
<path d="M0 0 C146.52 0 293.04 0 444 0 C444.33 1.65 444.66 3.3 445 5 C443.333 6.667 441.3091 6.1232 439.0827 6.131 C438.3714 6.1284 437.6601 6.1258 436.9272 6.123 C436.1747 6.1242 435.4223 6.1254 434.647 6.1265 C432.0932 6.1292 429.5396 6.1247 426.9858 6.1203 C425.1494 6.1207 423.313 6.1216 421.4766 6.1228 C416.4052 6.1251 411.3338 6.1211 406.2623 6.1161 C400.8028 6.1118 395.3434 6.1132 389.8839 6.114 C380.4166 6.1145 370.9494 6.1113 361.4821 6.1057 C347.7938 6.0976 334.1056 6.095 320.4173 6.0937 C298.2116 6.0916 276.0058 6.0849 253.8 6.0754 C232.2232 6.0663 210.6464 6.0592 189.0696 6.0549 C188.7372 6.0549 188.7372 6.0549 187.0553 6.0545 C179.7177 6.0531 172.3801 6.0517 165.0425 6.0503 C109.695 6.0399 54.3475 6.0223 -1 6 C-1 5.67 -1 5.34 -1 5 C-0.5338 4.9993 -0.5338 4.9993 1.8254 4.9959 C57.0304 4.9154 112.2353 4.8244 167.4403 4.7199 C174.0621 4.7074 180.6839 4.695 187.3057 4.6826 C187.9648 4.6814 187.9648 4.6814 191.3006 4.6751 C212.6744 4.6353 234.0481 4.6026 255.4219 4.5725 C277.3374 4.5414 299.2528 4.5028 321.1683 4.4572 C334.7019 4.4293 348.2356 4.4073 361.7693 4.3927 C371.0375 4.3822 380.3057 4.3644 389.5739 4.3408 C394.9289 4.3274 400.284 4.3173 405.639 4.3158 C410.5342 4.3143 415.4292 4.3038 420.3243 4.2859 C422.1022 4.281 423.8802 4.2795 425.6582 4.2817 C428.0611 4.2842 430.4637 4.2746 432.8666 4.2617 C433.5689 4.2654 434.2712 4.269 434.9947 4.2728 C439.7717 4.2283 439.7717 4.2283 442 2 C296.14 1.67 150.28 1.34 0 1 C0 0.67 0 0.34 0 0 Z " fill="#ACA79B" transform="translate(1057,182)"/>
<path d="M0 0 C0.33 0 0.66 0 1 0 C1 17.82 1 35.64 1 54 C40.6 54 80.2 54 121 54 C121 55.65 121 57.3 121 59 C120 60 120 60 118.0185 60.123 C117.5802 60.1226 117.5802 60.1226 115.362 60.1203 C114.3594 60.1216 113.3567 60.123 112.3237 60.1244 C111.2145 60.1208 110.1054 60.1172 108.9626 60.1135 C107.8018 60.1137 106.641 60.1138 105.445 60.114 C101.587 60.1133 97.7291 60.1055 93.8711 60.0977 C91.2045 60.0958 88.5379 60.0943 85.8714 60.0934 C79.5567 60.0903 73.2421 60.082 66.9275 60.072 C59.0356 60.0598 51.1438 60.0543 43.252 60.0488 C29.168 60.0391 15.084 60.019 1 60 C1 81.78 1 103.56 1 126 C0.67 126 0.34 126 0 126 C-1.0983 55.9458 -1.0983 55.9458 -1.125 22.5 C-1.1275 21.3899 -1.13 20.2798 -1.1326 19.1361 C-1.1383 16.0595 -1.1371 12.9829 -1.1328 9.9062 C-1.1348 9.0057 -1.1368 8.1051 -1.1388 7.1772 C-1.1155 1.1155 -1.1155 1.1155 0 0 Z " fill="#C0A877" transform="translate(1055,188)"/>
<path d="M0 0 C0.66 0 1.32 0 2 0 C2 0.66 2 1.32 2 2 C106.61 2 211.22 2 319 2 C319.33 2.66 319.66 3.32 320 4 C214.4 4 108.8 4 0 4 C0 2.68 0 1.36 0 0 Z " fill="#9D9789" transform="translate(1176,243)"/>
<path d="M0 0 C0 3 0 3 -1 5 C4.61 5 10.22 5 16 5 C16 7.31 16 9.62 16 12 C-102.47 12 -220.94 12 -343 12 C-343 11.67 -343 11.34 -343 11 C-224.86 11 -106.72 11 15 11 C15 9.68 15 8.36 15 7 C9.06 7 3.12 7 -3 7 C-2 2 -2 2 0 0 Z " fill="#DEDAD1" transform="translate(1027,169)"/>
<path d="M0 0 C2.64 0 5.28 0 8 0 C9.137 8.6085 9.1294 17.1869 9.0977 25.8516 C9.0958 27.3618 9.0944 28.8721 9.0934 30.3824 C9.0896 34.3246 9.0798 38.2667 9.0687 42.2089 C9.0584 46.2447 9.0539 50.2806 9.0488 54.3164 C9.0382 62.211 9.0211 70.1055 9 78 C8.34 78 7.68 78 7 78 C6.67 52.59 6.34 27.18 6 1 C4.35 1 2.7 1 1 1 C1 36.97 1 72.94 1 110 C-0.32 109.67 -1.64 109.34 -3 109 C-3.33 108.34 -3.66 107.68 -4 107 C-3.01 107 -2.02 107 -1 107 C-1.0022 105.689 -1.0044 104.378 -1.0067 103.0273 C-1.027 90.6957 -1.042 78.3642 -1.0518 66.0327 C-1.057 59.6924 -1.0641 53.3521 -1.0754 47.0117 C-1.0863 40.8974 -1.0923 34.7832 -1.0949 28.6689 C-1.0967 26.3316 -1.1003 23.9943 -1.1057 21.657 C-1.1129 18.3932 -1.114 15.1295 -1.1135 11.8657 C-1.1153 11.3784 -1.1153 11.3784 -1.1244 8.9123 C-1.123 8.026 -1.1217 7.1398 -1.1203 6.2267 C-1.1212 5.4543 -1.1221 4.6818 -1.123 3.8859 C-1 2 -1 2 0 0 Z " fill="#625E58" transform="translate(674,110)"/>
<path d="M0 0 C0.3692 0.0079 0.3692 0.0079 2.2375 0.0476 C3.04 0.0573 3.8424 0.0669 4.6692 0.0769 C5.5026 0.102 6.3359 0.1272 7.1946 0.1531 C7.6171 0.1598 7.6171 0.1598 9.7551 0.1941 C11.8394 0.2294 13.9233 0.2832 16.0071 0.3406 C16.5696 2.2781 16.5696 2.2781 17.0071 4.3406 C15.102 6.2457 12.2886 5.4635 9.7535 5.4697 C8.8459 5.4667 7.9384 5.4638 7.0033 5.4608 C6.5251 5.4613 6.5251 5.4613 4.1051 5.4634 C0.8744 5.4651 -2.3562 5.4595 -5.5869 5.4541 C-7.8925 5.4538 -10.198 5.454 -12.5035 5.4545 C-18.7843 5.4548 -25.065 5.4489 -31.3457 5.442 C-37.9014 5.4357 -44.4571 5.4351 -51.0128 5.4339 C-62.0232 5.4314 -73.0336 5.4249 -84.0439 5.416 C-95.3867 5.4068 -106.7295 5.3998 -118.0723 5.3955 C-118.771 5.3952 -119.4697 5.395 -120.1895 5.3947 C-123.6945 5.3934 -127.1995 5.3921 -130.7045 5.3909 C-159.8007 5.3805 -188.8968 5.3628 -217.9929 5.3406 C-217.6629 4.6806 -217.3329 4.0206 -216.9929 3.3406 C-215.9031 3.3433 -214.8133 3.3461 -213.6904 3.349 C-187.2017 3.4155 -160.713 3.4648 -134.2243 3.496 C-121.4146 3.5115 -108.605 3.5326 -95.7954 3.5669 C-84.6337 3.5967 -73.472 3.6161 -62.3102 3.6228 C-56.3973 3.6268 -50.4845 3.636 -44.5716 3.6578 C-39.0108 3.6781 -33.4502 3.6844 -27.8893 3.6799 C-25.8443 3.6807 -23.7992 3.6867 -21.7541 3.6982 C-18.9699 3.713 -16.1863 3.7096 -13.402 3.7013 C-12.5859 3.7101 -11.7697 3.7188 -10.9289 3.7278 C-5.4274 3.6837 -5.4274 3.6837 -3.0919 1.8393 C-1.9929 0.3406 -1.9929 0.3406 0 0 Z " fill="#9B9586" transform="translate(899.992919921875,241.659423828125)"/>
<path d="M0 0 C6.6 0 13.2 0 20 0 C20 1.65 20 3.3 20 5 C13.4 5 6.8 5 0 5 C0 3.35 0 1.7 0 0 Z " fill="#C0953A" transform="translate(930,242)"/>
<path d="M0 0 C6.6 0 13.2 0 20 0 C19.67 1.65 19.34 3.3 19 5 C12.73 5 6.46 5 0 5 C0 3.35 0 1.7 0 0 Z " fill="#C1953A" transform="translate(1092,242)"/>
<path d="M0 0 C6.27 0 12.54 0 19 0 C19.33 1.32 19.66 2.64 20 4 C19 5 19 5 17.1423 5.1135 C16.3516 5.1083 15.5608 5.1031 14.7461 5.0977 C13.8921 5.0944 13.0381 5.0912 12.1582 5.0879 C11.2604 5.0795 10.3625 5.0711 9.4375 5.0625 C8.5358 5.058 7.6341 5.0535 6.7051 5.0488 C4.47 5.037 2.235 5.0205 0 5 C0 3.35 0 1.7 0 0 Z " fill="#C19539" transform="translate(962,242)"/>
<path d="M0 0 C0.3954 0.0026 0.3954 0.0026 2.3962 0.0159 C2.8232 0.0175 2.8232 0.0175 4.9841 0.0256 C5.882 0.034 6.7798 0.0424 7.7048 0.051 C8.6065 0.0555 9.5082 0.06 10.4373 0.0647 C12.6723 0.0765 14.9073 0.093 17.1423 0.1135 C17.1423 1.7635 17.1423 3.4135 17.1423 5.1135 C10.8723 5.1135 4.6023 5.1135 -1.8577 5.1135 C-2.1877 3.7935 -2.5177 2.4735 -2.8577 1.1135 C-1.8577 0.1135 -1.8577 0.1135 0 0 Z " fill="#C0953A" transform="translate(996.857666015625,241.886474609375)"/>
<path d="M0 0 C6.27 0 12.54 0 19 0 C19.33 1.32 19.66 2.64 20 4 C19 5 19 5 17.1423 5.1135 C16.3516 5.1083 15.5608 5.1031 14.7461 5.0977 C13.8921 5.0944 13.0381 5.0912 12.1582 5.0879 C11.2604 5.0795 10.3625 5.0711 9.4375 5.0625 C8.5358 5.058 7.6341 5.0535 6.7051 5.0488 C4.47 5.037 2.235 5.0205 0 5 C0 3.35 0 1.7 0 0 Z " fill="#C19539" transform="translate(1124,242)"/>
<path d="M0 0 C0.7489 0.0052 1.4977 0.0105 2.2693 0.0159 C3.0782 0.0191 3.8871 0.0223 4.7205 0.0256 C5.5706 0.034 6.4207 0.0424 7.2966 0.051 C8.1506 0.0555 9.0046 0.06 9.8845 0.0647 C12.0011 0.0765 14.1176 0.0945 16.2341 0.1135 C16.2341 1.7635 16.2341 3.4135 16.2341 5.1135 C10.2941 5.1135 4.3541 5.1135 -1.7659 5.1135 C-2.0959 3.7935 -2.4259 2.4735 -2.7659 1.1135 C-1.7659 0.1135 -1.7659 0.1135 0 0 Z " fill="#C19537" transform="translate(1159.765869140625,241.886474609375)"/>
<path d="M0 0 C5.94 0 11.88 0 18 0 C18.33 1.32 18.66 2.64 19 4 C18 5 18 5 16.2341 5.1135 C15.4853 5.1083 14.7364 5.1031 13.9648 5.0977 C13.156 5.0944 12.3471 5.0912 11.5137 5.0879 C10.6635 5.0795 9.8134 5.0711 8.9375 5.0625 C8.0835 5.058 7.2295 5.0535 6.3496 5.0488 C4.233 5.037 2.1165 5.0191 0 5 C0 3.35 0 1.7 0 0 Z " fill="#C19537" transform="translate(898,242)"/>
<path d="M0 0 C5.94 0 11.88 0 18 0 C18.33 1.32 18.66 2.64 19 4 C18 5 18 5 14.1836 5.0977 C12.6015 5.091 11.0195 5.079 9.4375 5.0625 C8.6312 5.058 7.8249 5.0535 6.9941 5.0488 C4.9961 5.037 2.998 5.0191 1 5 C0.835 4.175 0.835 4.175 0 0 Z " fill="#C29537" transform="translate(1060,242)"/>
<path d="M0 0 C4.95 0 9.9 0 15 0 C15 1.65 15 3.3 15 5 C10.05 5 5.1 5 0 5 C0 3.35 0 1.7 0 0 Z " fill="#A39B89" transform="translate(1143,242)"/>
<path d="M0 0 C4.62 0 9.24 0 14 0 C14 1.65 14 3.3 14 5 C9.38 5 4.76 5 0 5 C0 3.35 0 1.7 0 0 Z " fill="#A29B8A" transform="translate(1078,242)"/>
<path d="M0 0 C4.62 0 9.24 0 14 0 C14 1.65 14 3.3 14 5 C9.38 5 4.76 5 0 5 C0 3.35 0 1.7 0 0 Z " fill="#A29B8A" transform="translate(1014,242)"/>
<path d="M0 0 C4.62 0 9.24 0 14 0 C14 1.65 14 3.3 14 5 C9.38 5 4.76 5 0 5 C0 3.35 0 1.7 0 0 Z " fill="#A29B8A" transform="translate(916,242)"/>
</svg>
