<?xml version="1.0" encoding="UTF-8"?>
<!-- Generator: visioncortex VTracer 0.6.12 -->
<svg version="1.1" xmlns="http://www.w3.org/2000/svg" width="1600" height="474">
<path d="M0 0 C528 0 1056 0 1600 0 C1600 156.42 1600 312.84 1600 474 C1072 474 544 474 0 474 C0 317.58 0 161.16 0 0 Z " fill="#CDC7BB" transform="translate(0,0)"/>
<path d="M0 0 C528 0 1056 0 1600 0 C1600 156.42 1600 312.84 1600 474 C1072 474 544 474 0 474 C0 317.58 0 161.16 0 0 Z M134 78 C130.7799 84.7978 130.5792 90.7225 130.6325 98.1724 C130.6292 99.3852 130.626 100.5979 130.6226 101.8474 C130.6166 105.1967 130.624 108.5454 130.6371 111.8946 C130.6481 115.5129 130.6416 119.1311 130.6374 122.7493 C130.6317 129.8296 130.642 136.9098 130.6576 143.9901 C130.6752 152.235 130.6766 160.4799 130.6773 168.7248 C130.679 183.4328 130.6948 198.1407 130.7188 212.8486 C130.742 227.1234 130.7562 241.3981 130.7598 255.6729 C130.76 256.5526 130.7602 257.4324 130.7604 258.3389 C130.7609 260.1112 130.7613 261.8835 130.7618 263.6559 C130.762 264.5301 130.7622 265.4044 130.7624 266.3051 C130.7626 267.1772 130.7629 268.0492 130.7631 268.9477 C130.7668 282.5507 130.7781 296.1536 130.7906 309.7566 C130.795 314.6881 130.7984 319.6196 130.8012 324.5511 C130.8056 332.3702 130.8134 340.1893 130.828 348.0084 C130.8346 351.5815 130.8396 355.1546 130.8404 358.7277 C130.8414 362.597 130.85 366.4662 130.8596 370.3355 C130.8587 371.4701 130.8578 372.6047 130.8569 373.7737 C130.8608 374.8078 130.8646 375.842 130.8686 376.9074 C130.8698 377.8007 130.8711 378.6941 130.8723 379.6145 C130.9935 381.8784 131.3653 383.8296 132 386 C132.66 386 133.32 386 134 386 C133.9794 386.8662 133.9588 387.7325 133.9375 388.625 C135.3778 393.2001 137.8361 394.3975 141.7734 396.8984 C144 398 144 398 147 398 C147 398.66 147 399.32 147 400 C577.98 400 1008.96 400 1453 400 C1453 399.34 1453 398.68 1453 398 C1453.5659 397.8866 1454.1318 397.7731 1454.7148 397.6562 C1457.293 396.9159 1459.2715 395.8955 1461.5625 394.5 C1462.3269 394.0566 1463.0913 393.6131 1463.8789 393.1562 C1469.9204 387.0146 1469.4291 377.7876 1469.381 369.7275 C1469.3856 368.516 1469.3903 367.3045 1469.3951 366.0563 C1469.405 362.7152 1469.4015 359.3745 1469.3922 356.0333 C1469.3854 352.4218 1469.3959 348.8104 1469.4041 345.1989 C1469.4174 338.1331 1469.4146 331.0675 1469.4059 324.0017 C1469.3991 318.2587 1469.3982 312.5158 1469.4014 306.7728 C1469.4019 305.9545 1469.4024 305.1363 1469.4028 304.2932 C1469.4038 302.6308 1469.4048 300.9684 1469.4058 299.306 C1469.4143 283.7304 1469.4045 268.1548 1469.3884 252.5792 C1469.3749 239.219 1469.3773 225.8588 1469.3911 212.4985 C1469.4072 196.9745 1469.4135 181.4504 1469.4043 165.9263 C1469.4033 164.2708 1469.4024 162.6152 1469.4014 160.9596 C1469.4012 160.5523 1469.4012 160.5523 1469.4 158.4913 C1469.3975 152.7552 1469.4018 147.0191 1469.4089 141.283 C1469.4173 134.2929 1469.415 127.3028 1469.399 120.3126 C1469.3912 116.7472 1469.3881 113.1819 1469.398 109.6164 C1469.4086 105.7504 1469.3959 101.8846 1469.381 98.0185 C1469.3876 96.8933 1469.3943 95.7681 1469.4012 94.6089 C1469.3378 86.1831 1467.9633 80.336 1462 74 C1461.01 73.67 1460.02 73.34 1459 73 C1458.5218 72.4921 1458.0437 71.9842 1457.5511 71.461 C1454.7831 68.8538 1450.8484 69.5937 1447.2357 69.624 C1446.323 69.6197 1445.4104 69.6155 1444.4701 69.6112 C1441.3771 69.6007 1438.2846 69.6117 1435.1917 69.6225 C1432.9562 69.6194 1430.7207 69.6149 1428.4852 69.6093 C1422.2922 69.5975 1416.0993 69.6046 1409.9062 69.6146 C1403.8796 69.6214 1397.8529 69.6141 1391.8262 69.6072 C1379.3424 69.5933 1366.8586 69.5938 1354.3748 69.602 C1341.7175 69.6103 1329.0602 69.612 1316.4028 69.6058 C1315.6044 69.6054 1314.806 69.605 1313.9834 69.6046 C1310.7318 69.603 1307.4802 69.6014 1304.2286 69.5997 C1273.9158 69.5838 1243.603 69.5827 1213.2901 69.5911 C1212.8406 69.5912 1212.8406 69.5912 1210.566 69.5919 C1209.6657 69.5921 1208.7653 69.5924 1207.8376 69.5926 C1180.4349 69.6002 1153.0322 69.6021 1125.6295 69.5986 C1123.7963 69.5983 1121.9631 69.5981 1120.1298 69.5979 C1112.7633 69.5969 1105.3967 69.596 1098.0302 69.595 C1077.4358 69.5922 1056.8413 69.5905 1036.2469 69.5896 C1035.7779 69.5896 1035.7779 69.5896 1033.4047 69.5895 C1003.5058 69.5883 973.6068 69.5917 943.7079 69.5982 C942.7378 69.5984 941.7677 69.5986 940.7681 69.5988 C925.0127 69.6022 909.2573 69.6059 893.5019 69.6096 C831.0198 69.6241 768.5377 69.6235 706.0557 69.6089 C690.3131 69.6052 674.5705 69.6016 658.8279 69.5982 C657.8586 69.598 656.8893 69.5977 655.8907 69.5975 C626.0272 69.5911 596.1637 69.5883 566.3003 69.5896 C565.363 69.5897 564.4257 69.5897 563.46 69.5897 C542.8862 69.5907 522.3124 69.5926 501.7386 69.5954 C494.3772 69.5963 487.0159 69.5973 479.6546 69.5982 C477.8232 69.5984 475.9918 69.5987 474.1604 69.5989 C446.7663 69.6025 419.3722 69.5994 391.9781 69.5919 C391.0795 69.5916 390.1809 69.5914 389.2551 69.5911 C388.3581 69.5909 387.4612 69.5906 386.537 69.5904 C356.3092 69.5821 326.0814 69.5851 295.8535 69.601 C292.61 69.6026 289.3664 69.6042 286.1228 69.6058 C285.3267 69.6062 284.5307 69.6066 283.7105 69.607 C271.0869 69.6129 258.4633 69.6088 245.8397 69.6005 C233.4379 69.5926 221.0361 69.5953 208.6342 69.6095 C201.9955 69.6169 195.3567 69.619 188.718 69.6083 C182.6859 69.5987 176.654 69.6027 170.6219 69.6179 C168.4461 69.6209 166.2704 69.6188 164.0947 69.6112 C161.1515 69.6017 158.2089 69.6105 155.2657 69.624 C154.42 69.6168 153.5743 69.6096 152.703 69.6022 C144.8998 69.6753 139.0541 71.6824 134 78 Z " fill="#FEFEFE" transform="translate(0,0)"/>
<path d="M0 0 C0.917 -0.0029 1.834 -0.0059 2.7788 -0.0089 C5.8683 -0.0163 8.9576 -0.0094 12.0472 -0.0026 C14.2874 -0.005 16.5276 -0.0083 18.7678 -0.0123 C24.9598 -0.021 31.1518 -0.0171 37.3439 -0.0113 C43.3738 -0.0076 49.4038 -0.0132 55.4337 -0.0186 C67.9209 -0.0295 80.408 -0.0308 92.8952 -0.0269 C105.5528 -0.0231 118.2105 -0.0235 130.8682 -0.0292 C131.6671 -0.0296 132.4659 -0.03 133.289 -0.0303 C136.5427 -0.0318 139.7964 -0.0333 143.05 -0.0349 C176.0971 -0.0505 209.1441 -0.0532 242.1912 -0.0507 C246.7592 -0.0504 251.3272 -0.05 255.8952 -0.0497 C256.3488 -0.0497 256.3488 -0.0497 258.6445 -0.0495 C278.7376 -0.0483 298.8308 -0.0509 318.924 -0.0543 C323.5099 -0.055 328.0957 -0.0558 332.6816 -0.0565 C334.5221 -0.0568 336.3625 -0.0571 338.203 -0.0574 C339.1152 -0.0576 340.0275 -0.0577 340.9674 -0.0579 C342.8126 -0.0582 344.6578 -0.0585 346.5031 -0.0588 C398.8701 -0.0675 451.2372 -0.0721 503.6042 -0.0679 C504.0892 -0.0678 504.0892 -0.0678 506.5436 -0.0676 C517.3604 -0.0667 528.1771 -0.0658 538.9939 -0.0649 C539.9706 -0.0648 540.9472 -0.0647 541.9534 -0.0646 C550.0694 -0.0639 550.0694 -0.0639 553.8022 -0.0636 C616.2913 -0.058 678.7803 -0.0656 741.2694 -0.0843 C757.0178 -0.0891 772.7662 -0.0937 788.5146 -0.0982 C789.4842 -0.0984 790.4538 -0.0987 791.4528 -0.099 C821.3218 -0.1074 851.1908 -0.112 881.0597 -0.1129 C881.997 -0.1129 882.9344 -0.1129 883.9001 -0.113 C904.4729 -0.1135 925.0457 -0.1131 945.6186 -0.1119 C952.9792 -0.1115 960.3398 -0.1111 967.7005 -0.1108 C969.5317 -0.1107 971.3629 -0.1106 973.1941 -0.1105 C1002.4086 -0.1091 1031.623 -0.1162 1060.8374 -0.1275 C1091.0641 -0.1392 1121.2908 -0.1398 1151.5175 -0.1277 C1154.7594 -0.1264 1158.0012 -0.1252 1161.243 -0.1241 C1162.0387 -0.1238 1162.8343 -0.1235 1163.6541 -0.1232 C1176.2821 -0.1188 1188.9102 -0.1246 1201.5383 -0.1345 C1213.9377 -0.144 1226.3371 -0.1429 1238.7366 -0.1303 C1245.3768 -0.1238 1252.0169 -0.1226 1258.6571 -0.1342 C1264.6858 -0.1446 1270.7143 -0.1415 1276.7429 -0.1271 C1278.9219 -0.1243 1281.1008 -0.1267 1283.2798 -0.1346 C1286.2178 -0.1445 1289.1551 -0.1362 1292.0931 -0.123 C1292.9484 -0.1303 1293.8038 -0.1376 1294.6851 -0.1451 C1300.4832 -0.0909 1300.4832 -0.0909 1302.4408 1.6972 C1302.9087 2.2102 1303.3765 2.7233 1303.8585 3.2518 C1304.6835 3.6643 1305.5085 4.0768 1306.3585 4.5018 C1310.2483 7.2247 1311.2537 10.9487 1312.4295 15.4266 C1313.0212 19.3233 1312.9892 23.1454 1312.972 27.0812 C1312.9722 27.9597 1312.9723 28.8383 1312.9725 29.7435 C1312.9718 32.6382 1312.964 35.5329 1312.9562 38.4276 C1312.9543 40.4383 1312.9529 42.449 1312.9519 44.4597 C1312.9481 49.745 1312.9382 55.0304 1312.9272 60.3158 C1312.9169 65.7118 1312.9124 71.1078 1312.9073 76.5038 C1312.8966 87.0865 1312.8796 97.6692 1312.8585 108.2518 C1312.1985 108.2518 1311.5385 108.2518 1310.8585 108.2518 C1310.8585 107.5918 1310.8585 106.9318 1310.8585 106.2518 C1308.5485 106.2518 1306.2385 106.2518 1303.8585 106.2518 C1303.8526 105.173 1303.8468 104.0942 1303.8407 102.9826 C1303.7835 92.8152 1303.7108 82.648 1303.6228 72.4807 C1303.5781 67.2537 1303.5388 62.0267 1303.5121 56.7995 C1303.4861 51.7548 1303.4457 46.7105 1303.3953 41.6661 C1303.3786 39.7416 1303.3671 37.8171 1303.3609 35.8925 C1303.3513 33.1966 1303.3232 30.5015 1303.2909 27.8058 C1303.2923 27.0103 1303.2937 26.2147 1303.2952 25.3951 C1303.2171 20.7906 1302.5068 18.0101 1299.8585 14.2518 C1299.8585 13.5918 1299.8585 12.9318 1299.8585 12.2518 C1296.7831 11.2267 1294.6825 11.1219 1291.4606 11.1132 C1290.8968 11.1104 1290.8968 11.1104 1288.0435 11.0966 C1286.7994 11.0956 1285.5552 11.0946 1284.2734 11.0936 C1283.6146 11.0912 1283.6146 11.0912 1280.281 11.0787 C1276.6165 11.0651 1272.952 11.0577 1269.2875 11.0512 C1265.3386 11.0432 1261.3897 11.0295 1257.4409 11.0165 C1250.5967 10.9948 1243.7525 10.9766 1236.9082 10.9609 C1227.0126 10.9382 1217.1169 10.9101 1207.2212 10.8806 C1191.1672 10.8329 1175.1131 10.7897 1159.0589 10.7492 C1143.4616 10.7098 1127.8643 10.6684 1112.2669 10.6242 C1111.3059 10.6214 1110.3449 10.6187 1109.3548 10.6159 C1104.5337 10.6022 1099.7126 10.5885 1094.8916 10.5748 C1054.8806 10.4608 1014.8695 10.354 974.8585 10.2518 C974.8585 7.6118 974.8585 4.9718 974.8585 2.2518 C972.8785 2.2518 970.8985 2.2518 968.8585 2.2518 C968.8585 4.8918 968.8585 7.5318 968.8585 10.2518 C861.6085 10.2518 754.3585 10.2518 643.8585 10.2518 C643.5285 7.9418 643.1985 5.6318 642.8585 3.2518 C640.8785 2.9218 638.8985 2.5918 636.8585 2.2518 C636.8585 4.8918 636.8585 7.5318 636.8585 10.2518 C595.4724 10.2747 554.0864 10.2923 512.7003 10.3029 C507.8197 10.3042 502.9391 10.3055 498.0585 10.3068 C497.0868 10.307 496.1151 10.3073 495.1139 10.3076 C479.3589 10.3119 463.6039 10.3198 447.8489 10.329 C431.6954 10.3383 415.5418 10.3439 399.3883 10.3459 C389.4123 10.3473 379.4364 10.3517 369.4604 10.3598 C362.6292 10.365 355.798 10.3667 348.9668 10.3654 C345.0194 10.3647 341.0721 10.3657 337.1247 10.3711 C333.5169 10.3759 329.9092 10.3762 326.3014 10.3727 C324.3656 10.3721 322.4297 10.3765 320.4938 10.3809 C319.3598 10.3789 318.2257 10.3769 317.0572 10.3749 C316.0703 10.3753 315.0834 10.3757 314.0666 10.376 C311.8585 10.2518 311.8585 10.2518 310.8585 9.2518 C310.8176 6.9189 310.8161 4.5848 310.8585 2.2518 C308.8785 2.2518 306.8985 2.2518 304.8585 2.2518 C304.8585 4.8918 304.8585 7.5318 304.8585 10.2518 C201.5685 10.2518 98.2785 10.2518 -8.1415 10.2518 C-8.4715 11.2418 -8.8015 12.2318 -9.1415 13.2518 C-9.8015 13.5818 -9.8015 13.5818 -13.1415 15.2518 C-13.4715 45.6118 -13.8015 75.9718 -14.1415 107.2518 C-16.1215 107.2518 -18.1015 107.2518 -20.1415 107.2518 C-20.1415 109.2318 -20.1415 111.2118 -20.1415 113.2518 C-17.8315 113.2518 -15.5215 113.2518 -13.1415 113.2518 C-13.1415 145.9218 -13.1415 178.5918 -13.1415 212.2518 C91.7985 211.9218 196.7385 211.5918 304.8585 211.2518 C305.1885 180.8918 305.5185 150.5318 305.8585 119.2518 C308.1685 119.2518 310.4785 119.2518 312.8585 119.2518 C312.8585 116.2818 312.8585 113.3118 312.8585 110.2518 C319.4585 110.2518 326.0585 110.2518 332.8585 110.2518 C332.8585 113.5518 332.8585 116.8518 332.8585 120.2518 C328.2385 120.2518 323.6185 120.2518 318.8585 120.2518 C318.8585 126.8518 318.8585 133.4518 318.8585 140.2518 C316.2185 140.2518 313.5785 140.2518 310.8585 140.2518 C310.8585 144.8718 310.8585 149.4918 310.8585 154.2518 C313.4985 154.2518 316.1385 154.2518 318.8585 154.2518 C318.8874 157.5643 318.9053 160.8768 318.921 164.1893 C318.9294 165.1349 318.9378 166.0804 318.9464 167.0546 C318.948 167.5041 318.948 167.5041 318.9562 169.7792 C318.9588 170.1955 318.9588 170.1955 318.972 172.3024 C318.8585 174.2518 318.8585 174.2518 317.8585 175.2518 C315.5485 175.2518 313.2385 175.2518 310.8585 175.2518 C310.8585 179.8718 310.8585 184.4918 310.8585 189.2518 C313.4985 189.2518 316.1385 189.2518 318.8585 189.2518 C318.8875 192.3768 318.9053 195.5018 318.921 198.6268 C318.9294 199.5163 318.9378 200.4058 318.9464 201.3222 C318.948 201.7476 318.948 201.7476 318.9562 203.9003 C318.9588 204.293 318.9588 204.293 318.972 206.2807 C318.8585 208.2518 318.8585 208.2518 317.8585 210.2518 C316.5385 210.2518 315.2185 210.2518 313.8585 210.2518 C313.8585 211.2418 313.8585 212.2318 313.8585 213.2518 C317.8185 212.9218 321.7785 212.5918 325.8585 212.2518 C326.8485 209.6118 327.8385 206.9718 328.8585 204.2518 C335.4585 204.2518 342.0585 204.2518 348.8585 204.2518 C349.1885 206.5618 349.5185 208.8718 349.8585 211.2518 C353.8185 211.2518 357.7785 211.2518 361.8585 211.2518 C362.1885 208.9418 362.5185 206.6318 362.8585 204.2518 C369.7885 204.2518 376.7185 204.2518 383.8585 204.2518 C383.9562 213.5292 383.9562 213.5292 383.8585 216.2518 C381.9764 218.1339 378.7346 217.4262 376.2274 217.4572 C375.8755 217.4622 375.8755 217.4622 374.0944 217.4876 C371.8062 217.5191 369.5179 217.5438 367.2296 217.5683 C365.8208 217.5866 364.412 217.6055 363.0032 217.6248 C357.7675 217.6933 352.5317 217.7533 347.296 217.8143 C335.6016 217.9587 323.9073 218.1031 311.8585 218.2518 C311.5285 251.2518 311.1985 284.2518 310.8585 318.2518 C418.4385 318.2518 526.0185 318.2518 636.8585 318.2518 C636.8585 318.5818 636.8585 318.9118 636.8585 319.2518 C529.2785 319.2518 421.6985 319.2518 310.8585 319.2518 C311.8585 320.2518 311.8585 320.2518 314.0666 320.376 C315.0535 320.3757 316.0404 320.3753 317.0572 320.3749 C318.1913 320.3769 319.3254 320.3789 320.4938 320.3809 C321.7555 320.378 323.0171 320.3751 324.317 320.3721 C325.6584 320.3725 326.9999 320.3734 328.3413 320.3747 C332.0445 320.3769 335.7478 320.3729 339.451 320.3679 C343.4381 320.3636 347.4252 320.3651 351.4122 320.3658 C358.3258 320.3663 365.2394 320.3632 372.1529 320.3576 C382.1489 320.3495 392.1448 320.3468 402.1408 320.3456 C418.3568 320.3434 434.5729 320.3367 450.7889 320.3273 C466.5454 320.3181 482.3019 320.311 498.0585 320.3068 C498.5437 320.3066 498.5437 320.3066 500.9994 320.306 C505.8679 320.3047 510.7365 320.3034 515.6051 320.3022 C556.0229 320.2918 596.4407 320.2742 636.8585 320.2518 C637.1885 322.2318 637.5185 324.2118 637.8585 326.2518 C639.1785 326.2518 640.4985 326.2518 641.8585 326.2518 C642.1885 323.9418 642.5185 321.6318 642.8585 319.2518 C750.7685 319.2518 858.6785 319.2518 969.8585 319.2518 C969.8585 321.8918 969.8585 324.5318 969.8585 327.2518 C972.296 326.5643 972.296 326.5643 974.8585 325.2518 C975.1885 323.6018 975.5185 321.9518 975.8585 320.2518 C1081.4585 320.2518 1187.0585 320.2518 1295.8585 320.2518 C1295.8585 319.5918 1295.8585 318.9318 1295.8585 318.2518 C1296.8279 317.7981 1297.7973 317.3443 1298.796 316.8768 C1301.8585 315.2518 1301.8585 315.2518 1302.8585 313.2518 C1302.9815 310.2624 1303.0443 307.2947 1303.0638 304.3041 C1303.0688 303.8407 1303.0688 303.8407 1303.0938 301.4954 C1303.1255 298.422 1303.1502 295.3487 1303.1749 292.2753 C1303.1955 290.1482 1303.2165 288.0212 1303.2379 285.8941 C1303.2931 280.2881 1303.3425 274.6821 1303.3907 269.0761 C1303.4409 263.3586 1303.4966 257.6412 1303.5519 251.9237 C1303.6595 240.6998 1303.7609 229.4759 1303.8585 218.2518 C1306.1685 218.2518 1308.4785 218.2518 1310.8585 218.2518 C1310.8585 217.5918 1310.8585 216.9318 1310.8585 216.2518 C1311.5185 216.2518 1312.1785 216.2518 1312.8585 216.2518 C1312.928 229.1866 1312.9813 242.1212 1313.0139 255.0561 C1313.0296 261.0623 1313.0508 267.0684 1313.0848 273.0746 C1313.1174 278.8712 1313.1354 284.6677 1313.1431 290.4644 C1313.1487 292.6756 1313.1595 294.8867 1313.1757 297.0979 C1313.1975 300.1957 1313.2005 303.2931 1313.1991 306.391 C1313.2045 306.8478 1313.2045 306.8478 1313.2318 309.1592 C1313.2069 314.2813 1312.7172 317.8183 1309.8585 322.2518 C1307.7023 324.1503 1307.7023 324.1503 1305.3585 325.6268 C1304.9718 325.8782 1304.9718 325.8782 1303.0148 327.1503 C1300.8585 328.2518 1300.8585 328.2518 1297.8585 328.2518 C1297.8585 328.9118 1297.8585 329.5718 1297.8585 330.2518 C866.8785 330.2518 435.8985 330.2518 -8.1415 330.2518 C-8.1415 329.5918 -8.1415 328.9318 -8.1415 328.2518 C-8.8221 328.19 -9.5027 328.1281 -10.204 328.0643 C-14.1746 326.9661 -17.2445 325.2035 -20.1415 322.2518 C-21.079 318.9393 -21.079 318.9393 -21.1415 316.2518 C-21.8015 316.2518 -22.4615 316.2518 -23.1415 316.2518 C-24.0477 313.1529 -24.2684 310.3831 -24.2729 307.1593 C-24.2768 306.1251 -24.2806 305.091 -24.2846 304.0256 C-24.2837 302.891 -24.2828 301.7564 -24.2819 300.5874 C-24.2849 299.3809 -24.2879 298.1743 -24.2909 296.9313 C-24.2981 293.5809 -24.3008 290.2305 -24.3015 286.8801 C-24.3034 283.2672 -24.3109 279.6543 -24.3177 276.0413 C-24.3313 268.1405 -24.3373 260.2396 -24.3417 252.3387 C-24.3444 247.4051 -24.3487 242.4716 -24.3532 237.538 C-24.3654 223.8777 -24.3757 210.2173 -24.3791 196.557 C-24.3793 195.6827 -24.3795 194.8085 -24.3797 193.9077 C-24.3798 193.4696 -24.3798 193.4696 -24.3804 191.2521 C-24.3808 189.4763 -24.3813 187.7005 -24.3817 185.9247 C-24.382 185.0438 -24.3822 184.163 -24.3824 183.2554 C-24.3864 168.983 -24.4038 154.7106 -24.4271 140.4381 C-24.4508 125.784 -24.4633 111.1298 -24.4644 96.4756 C-24.4653 88.2482 -24.4711 80.0208 -24.4893 71.7934 C-24.5047 64.7874 -24.5098 57.7815 -24.5015 50.7755 C-24.4976 47.2019 -24.4985 43.6284 -24.5126 40.0548 C-24.5277 36.1779 -24.5194 32.3012 -24.509 28.4243 C-24.517 27.2986 -24.5251 26.1729 -24.5334 25.0131 C-24.489 17.9824 -23.8452 12.1749 -19.747 6.2284 C-19.279 5.7824 -18.8111 5.3364 -18.329 4.8768 C-17.8688 4.4154 -17.4086 3.9539 -16.9345 3.4784 C-11.6979 -0.1039 -6.0821 -0.0334 0 0 Z M636.8585 219.2518 C637.1885 219.2518 637.5185 219.2518 637.8585 219.2518 C637.8585 251.9218 637.8585 284.5918 637.8585 318.2518 C637.5285 318.2518 637.1985 318.2518 636.8585 318.2518 C636.8585 285.5818 636.8585 252.9118 636.8585 219.2518 Z " fill="#B4B0A7" transform="translate(155.1414973139763,69.74815100431442)"/>
<path d="M0 0 C108.24 0 216.48 0 328 0 C328 92 328 92 325 99 C322.6633 99.9298 322.6633 99.9298 320 100 C319.118 100.041 318.2359 100.082 317.3272 100.1242 C316.357 100.1238 315.3868 100.1234 314.3872 100.123 C313.2626 100.125 312.1379 100.127 310.9792 100.1291 C309.7487 100.1262 308.5181 100.1233 307.2503 100.1203 C305.9393 100.1211 304.6283 100.122 303.2775 100.1228 C299.6403 100.1251 296.0031 100.1211 292.3659 100.1161 C288.443 100.1117 284.5201 100.1132 280.5972 100.114 C273.801 100.1145 267.0048 100.1114 260.2087 100.1057 C250.3825 100.0976 240.5564 100.095 230.7303 100.0937 C214.7882 100.0916 198.8461 100.0849 182.9041 100.0754 C167.4174 100.0663 151.9307 100.0592 136.4441 100.0549 C135.4896 100.0547 134.535 100.0544 133.5516 100.0541 C128.763 100.0528 123.9745 100.0516 119.1859 100.0503 C79.4573 100.04 39.7286 100.0215 0 100 C0 67 0 34 0 0 Z " fill="#FEFEFE" transform="translate(1130,288)"/>
<path d="M0 0 C107.25 0 214.5 0 325 0 C325 33 325 66 325 100 C217.75 100 110.5 100 0 100 C0 67 0 34 0 0 Z " fill="#FEFEFE" transform="translate(798,288)"/>
<path d="M0 0 C0.9839 0.0004 1.9677 0.0008 2.9814 0.0012 C4.112 -0.0008 5.2426 -0.0028 6.4075 -0.0049 C7.6652 -0.002 8.923 0.0009 10.2189 0.0039 C11.5562 0.0035 12.8934 0.0026 14.2307 0.0014 C17.9226 -0.0009 21.6144 0.0031 25.3063 0.0081 C29.2811 0.0124 33.2559 0.011 37.2307 0.0102 C44.123 0.0097 51.0152 0.0129 57.9075 0.0185 C67.8727 0.0266 77.8379 0.0292 87.8031 0.0305 C103.9692 0.0326 120.1353 0.0393 136.3015 0.0488 C152.0095 0.0579 167.7175 0.065 183.4255 0.0693 C184.393 0.0695 185.3605 0.0698 186.3574 0.0701 C191.211 0.0714 196.0645 0.0726 200.9181 0.0739 C241.2115 0.0842 281.5049 0.1027 321.7983 0.1242 C321.7983 33.1242 321.7983 66.1242 321.7983 100.1242 C214.5483 100.1242 107.2983 100.1242 -3.2017 100.1242 C-3.2017 0.1806 -3.2017 0.1806 0 0 Z " fill="#FEFEFE" transform="translate(470.2016959786415,287.8758015036583)"/>
<path d="M0 0 C41.6408 -0.022 83.2817 -0.0405 124.9225 -0.0511 C129.8332 -0.0523 134.7439 -0.0536 139.6545 -0.0549 C140.6322 -0.0552 141.6099 -0.0555 142.6172 -0.0557 C158.4692 -0.0601 174.3212 -0.068 190.1732 -0.0772 C206.4262 -0.0865 222.6792 -0.0921 238.9321 -0.0941 C248.9695 -0.0955 259.0069 -0.0998 269.0443 -0.1079 C275.9175 -0.1132 282.7908 -0.1148 289.664 -0.1135 C293.6357 -0.1129 297.6074 -0.1139 301.579 -0.1192 C305.209 -0.124 308.839 -0.1243 312.4689 -0.1209 C314.4167 -0.1203 316.3645 -0.1246 318.3123 -0.1291 C319.4534 -0.1271 320.5944 -0.1251 321.7701 -0.123 C322.763 -0.1234 323.756 -0.1238 324.7791 -0.1242 C327 0 327 0 328 1 C328 33.34 328 65.68 328 99 C219.76 99 111.52 99 0 99 C0 66.33 0 33.66 0 0 Z " fill="#FDFDFD" transform="translate(1130,182)"/>
<path d="M0 0 C104.94 0 209.88 0 318 0 C318 33 318 66 318 100 C278.0663 100.0881 238.1328 100.162 198.199 100.2043 C193.4875 100.2093 188.776 100.2144 184.0645 100.2197 C183.1264 100.2208 182.1884 100.2218 181.222 100.2229 C166.0219 100.2403 150.8218 100.2719 135.6217 100.3086 C120.032 100.346 104.4424 100.3682 88.8527 100.3764 C79.2283 100.3819 69.6041 100.3992 59.9797 100.4317 C53.3853 100.4528 46.7911 100.4592 40.1967 100.454 C36.3886 100.4514 32.5808 100.4555 28.7727 100.4768 C24.6488 100.4998 20.5256 100.492 16.4017 100.481 C15.1916 100.4927 13.9815 100.5043 12.7347 100.5163 C11.6329 100.5084 10.5312 100.5004 9.396 100.4922 C8.4437 100.4937 7.4914 100.4952 6.5102 100.4968 C4 100 4 100 0 96 C0 64.32 0 32.64 0 0 Z " fill="#FEFEFE" transform="translate(142,288)"/>
<path d="M0 0 C40.9358 -0.1102 81.8715 -0.2025 122.8074 -0.2553 C127.6378 -0.2616 132.4682 -0.2681 137.2986 -0.2747 C138.2603 -0.276 139.2219 -0.2773 140.2127 -0.2786 C155.7937 -0.3004 171.3746 -0.3398 186.9556 -0.3858 C202.9374 -0.4325 218.9191 -0.4603 234.9009 -0.4704 C244.7665 -0.4773 254.6317 -0.499 264.4971 -0.5396 C271.2579 -0.566 278.0184 -0.574 284.7792 -0.5675 C288.6827 -0.5643 292.5857 -0.5693 296.4891 -0.596 C300.7178 -0.6248 304.9456 -0.615 309.1744 -0.6013 C310.4127 -0.6158 311.651 -0.6304 312.9269 -0.6454 C322.1551 -0.5642 322.1551 -0.5642 325.2391 2.4751 C325.8202 3.3083 326.4013 4.1415 327 5 C327.33 5.33 327.66 5.66 328 6 C328 35.7 328 65.4 328 96 C219.76 96 111.52 96 0 96 C0 64.32 0 32.64 0 0 Z " fill="#FEFEFE" transform="translate(1130,80)"/>
<path d="M0 0 C104.94 0 209.88 0 318 0 C318 32.34 318 64.68 318 98 C277.6331 98.022 237.2662 98.0405 196.8993 98.0511 C192.1388 98.0523 187.3784 98.0536 182.6179 98.0549 C181.6702 98.0552 180.7224 98.0555 179.7459 98.0557 C164.3789 98.0601 149.0119 98.068 133.6448 98.0772 C117.8891 98.0865 102.1333 98.0921 86.3775 98.0941 C76.6472 98.0955 66.917 98.0998 57.1867 98.1079 C50.5237 98.1132 43.8607 98.1148 37.1977 98.1135 C33.3475 98.1129 29.4974 98.1139 25.6472 98.1192 C21.4831 98.1249 17.319 98.123 13.1548 98.1203 C11.9243 98.1232 10.6938 98.1261 9.426 98.1291 C8.3197 98.1271 7.2135 98.1251 6.0738 98.123 C5.5925 98.1232 5.5925 98.1232 3.1568 98.1242 C1 98 1 98 0 97 C0 64.99 0 32.98 0 0 Z " fill="#FEFEFD" transform="translate(142,183)"/>
<path d="M0 0 C107.58 0 215.16 0 326 0 C326 31.35 326 62.7 326 95 C218.42 95 110.84 95 0 95 C0 63.65 0 32.3 0 0 Z " fill="#FEFEFE" transform="translate(466,81)"/>
<path d="M0 0 C106.92 0 213.84 0 324 0 C324 31.35 324 62.7 324 95 C282.8687 95.022 241.7375 95.0405 200.6062 95.0511 C195.7556 95.0523 190.905 95.0536 186.0544 95.0549 C185.5716 95.0551 185.5716 95.0551 183.1281 95.0557 C167.47 95.0601 151.812 95.068 136.154 95.0772 C120.0999 95.0865 104.0458 95.0921 87.9917 95.0941 C78.0772 95.0955 68.1626 95.0998 58.2481 95.1079 C51.4589 95.1132 44.6698 95.1148 37.8807 95.1135 C33.9576 95.1129 30.0345 95.1139 26.1115 95.1192 C21.8685 95.1249 17.6256 95.123 13.3826 95.1203 C12.1287 95.1232 10.8749 95.1261 9.583 95.1291 C9.0194 95.1281 9.0194 95.1281 6.1675 95.123 C5.1866 95.1234 4.2058 95.1238 3.1953 95.1242 C1 95 1 95 0 94 C0 62.98 0 31.96 0 0 Z " fill="#FEFEFE" transform="translate(799,81)"/>
<path d="M0 0 C0.4745 0.0011 0.4745 0.0011 2.8755 0.0069 C3.4256 0.0009 3.4256 0.0009 6.2096 -0.0293 C7.4129 -0.0118 8.6162 0.0057 9.856 0.0237 C11.1384 0.0185 12.4209 0.0134 13.7421 0.0081 C17.2999 -0.0053 20.8567 0.0187 24.4143 0.0488 C28.2514 0.0747 32.0883 0.0659 35.9254 0.0614 C42.5728 0.0582 49.2198 0.0771 55.867 0.1108 C65.4778 0.1596 75.0884 0.1752 84.6993 0.1827 C100.292 0.1959 115.8846 0.2358 131.4773 0.2926 C146.6244 0.3476 161.7715 0.3901 176.9187 0.4156 C177.8523 0.4172 178.7859 0.4188 179.7478 0.4204 C184.4315 0.4282 189.1151 0.4358 193.7988 0.4432 C232.6567 0.5055 271.5143 0.6161 310.372 0.7452 C310.372 32.4252 310.372 64.1052 310.372 96.7452 C205.432 96.7452 100.492 96.7452 -7.628 96.7452 C-7.628 2.163 -7.628 2.163 0 0 Z " fill="#FEFEFE" transform="translate(149.6279576420784,79.25480902194977)"/>
<path d="M0 0 C1.0931 0.0026 2.1862 0.0052 3.3125 0.0078 C4.4056 0.0052 5.4987 0.0027 6.625 0 C9.3125 0.1328 9.3125 0.1328 10.3125 1.1328 C10.3125 3.4428 10.3125 5.7528 10.3125 8.1328 C16.9125 8.1328 23.5125 8.1328 30.3125 8.1328 C30.3125 5.8228 30.3125 3.5128 30.3125 1.1328 C32.4583 1.106 34.6041 1.0865 36.75 1.0703 C37.945 1.0587 39.1399 1.0471 40.3711 1.0352 C43.3125 1.1328 43.3125 1.1328 44.3125 2.1328 C44.3125 4.1128 44.3125 6.0928 44.3125 8.1328 C51.5725 8.1328 58.8325 8.1328 66.3125 8.1328 C66.3125 6.1528 66.3125 4.1728 66.3125 2.1328 C67.3125 1.1328 67.3125 1.1328 70.2539 1.0352 C70.8514 1.041 70.8514 1.041 73.875 1.0703 C74.4738 1.0748 74.4738 1.0748 77.5039 1.0977 C78.4307 1.1093 79.3576 1.1209 80.3125 1.1328 C80.3125 3.4428 80.3125 5.7528 80.3125 8.1328 C86.9125 8.1328 93.5125 8.1328 100.3125 8.1328 C100.3125 5.8228 100.3125 3.5128 100.3125 1.1328 C101.3125 0.1328 101.3125 0.1328 104 0 C105.0931 0.0026 106.1862 0.0052 107.3125 0.0078 C108.4056 0.0052 109.4987 0.0027 110.625 0 C113.3125 0.1328 113.3125 0.1328 114.3125 1.1328 C114.3125 3.4428 114.3125 5.7528 114.3125 8.1328 C117.6125 7.9678 117.6125 7.9678 134.3125 7.1328 C134.9725 4.8228 135.6325 2.5128 136.3125 0.1328 C140.6025 0.1328 144.8925 0.1328 149.3125 0.1328 C149.3125 2.7728 149.3125 5.4128 149.3125 8.1328 C156.2425 8.1328 163.1725 8.1328 170.3125 8.1328 C170.3125 5.8228 170.3125 3.5128 170.3125 1.1328 C171.3125 0.1328 171.3125 0.1328 174 0 C175.0931 0.0026 176.1862 0.0052 177.3125 0.0078 C178.4056 0.0052 179.4987 0.0027 180.625 0 C183.3125 0.1328 183.3125 0.1328 184.3125 1.1328 C184.3125 3.4428 184.3125 5.7528 184.3125 8.1328 C191.2425 8.1328 198.1725 8.1328 205.3125 8.1328 C205.3125 5.8228 205.3125 3.5128 205.3125 1.1328 C206.3125 0.1328 206.3125 0.1328 209.2539 0.0352 C209.8514 0.041 209.8514 0.041 212.875 0.0703 C213.4738 0.0748 213.4738 0.0748 216.5039 0.0977 C217.4307 0.1093 218.3576 0.1209 219.3125 0.1328 C219.3125 2.7728 219.3125 5.4128 219.3125 8.1328 C226.2425 8.1328 233.1725 8.1328 240.3125 8.1328 C240.3125 5.8228 240.3125 3.5128 240.3125 1.1328 C241.3125 0.1328 241.3125 0.1328 244 0 C245.0931 0.0026 246.1862 0.0052 247.3125 0.0078 C248.4056 0.0052 249.4987 0.0027 250.625 0 C253.3125 0.1328 253.3125 0.1328 254.3125 1.1328 C254.3534 3.4658 254.3549 5.7999 254.3125 8.1328 C257.6125 8.1328 260.9125 8.1328 264.3125 8.1328 C264.3125 38.1628 264.3125 68.1928 264.3125 99.1328 C261.3425 99.1328 258.3725 99.1328 255.3125 99.1328 C255.3125 96.8228 255.3125 94.5128 255.3125 92.1328 C248.3825 92.1328 241.4525 92.1328 234.3125 92.1328 C234.3125 94.4428 234.3125 96.7528 234.3125 99.1328 C229.6925 99.1328 225.0725 99.1328 220.3125 99.1328 C220.3125 96.8228 220.3125 94.5128 220.3125 92.1328 C213.3825 92.1328 206.4525 92.1328 199.3125 92.1328 C199.3125 94.4428 199.3125 96.7528 199.3125 99.1328 C195.0225 99.1328 190.7325 99.1328 186.3125 99.1328 C185.9825 97.1528 185.6525 95.1728 185.3125 93.1328 C178.3825 92.8028 171.4525 92.4728 164.3125 92.1328 C164.3125 94.4428 164.3125 96.7528 164.3125 99.1328 C159.6925 99.1328 155.0725 99.1328 150.3125 99.1328 C150.3125 96.8228 150.3125 94.5128 150.3125 92.1328 C143.3825 92.1328 136.4525 92.1328 129.3125 92.1328 C129.3125 94.4428 129.3125 96.7528 129.3125 99.1328 C125.0225 99.1328 120.7325 99.1328 116.3125 99.1328 C116.3125 96.8228 116.3125 94.5128 116.3125 92.1328 C109.0525 92.1328 101.7925 92.1328 94.3125 92.1328 C94.3125 94.4428 94.3125 96.7528 94.3125 99.1328 C93.3125 100.1328 93.3125 100.1328 90.625 100.2656 C89.5319 100.263 88.4388 100.2605 87.3125 100.2578 C86.2194 100.2604 85.1263 100.263 84 100.2656 C81.3125 100.1328 81.3125 100.1328 80.3125 99.1328 C80.3125 96.8228 80.3125 94.5128 80.3125 92.1328 C73.7125 92.1328 67.1125 92.1328 60.3125 92.1328 C60.3125 94.4428 60.3125 96.7528 60.3125 99.1328 C58.5054 100.9399 55.7587 100.5559 53.3125 100.7578 C52.2194 100.8532 51.1263 100.9486 50 101.0469 C49.1131 101.0752 48.2262 101.1036 47.3125 101.1328 C46.9825 100.8028 46.6525 100.4728 46.3125 100.1328 C46.3125 97.4928 46.3125 94.8528 46.3125 92.1328 C39.0525 92.1328 31.7925 92.1328 24.3125 92.1328 C24.3125 94.4428 24.3125 96.7528 24.3125 99.1328 C20.0225 99.1328 15.7325 99.1328 11.3125 99.1328 C11.3125 96.8228 11.3125 94.5128 11.3125 92.1328 C4.3825 92.1328 -2.5475 92.1328 -9.6875 92.1328 C-9.6875 94.4428 -9.6875 96.7528 -9.6875 99.1328 C-10.6875 100.1328 -10.6875 100.1328 -13.375 100.2656 C-14.4681 100.263 -15.5612 100.2605 -16.6875 100.2578 C-17.7806 100.2604 -18.8737 100.263 -20 100.2656 C-22.6875 100.1328 -22.6875 100.1328 -23.6875 99.1328 C-23.6875 96.8228 -23.6875 94.5128 -23.6875 92.1328 C-26.9875 92.2978 -26.9875 92.2978 -43.6875 93.1328 C-44.3475 95.4428 -45.0075 97.7528 -45.6875 100.1328 C-48.7024 101.1378 -50.7293 101.2362 -53.875 101.1953 C-54.3255 101.1908 -54.3255 101.1908 -56.6055 101.168 C-57.2925 101.1564 -57.9796 101.1448 -58.6875 101.1328 C-58.6875 100.1428 -58.6875 99.1528 -58.6875 98.1328 C-57.3675 98.1328 -56.0475 98.1328 -54.6875 98.1328 C-54.3575 91.2028 -54.0275 84.2728 -53.6875 77.1328 C-56.3275 77.1328 -58.9675 77.1328 -61.6875 77.1328 C-61.6875 72.5128 -61.6875 67.8928 -61.6875 63.1328 C-60.5325 62.9678 -60.5325 62.9678 -54.6875 62.1328 C-54.3575 55.5328 -54.0275 48.9328 -53.6875 42.1328 C-56.3275 42.1328 -58.9675 42.1328 -61.6875 42.1328 C-61.6875 37.5128 -61.6875 32.8928 -61.6875 28.1328 C-59.0475 28.1328 -56.4075 28.1328 -53.6875 28.1328 C-53.6875 21.5328 -53.6875 14.9328 -53.6875 8.1328 C-48.7375 8.1328 -43.7875 8.1328 -38.6875 8.1328 C-38.6875 5.8228 -38.6875 3.5128 -38.6875 1.1328 C-34.0675 1.1328 -29.4475 1.1328 -24.6875 1.1328 C-24.5225 2.1228 -24.5225 2.1228 -23.6875 7.1328 C-17.0875 7.4628 -10.4875 7.7928 -3.6875 8.1328 C-3.6875 5.8228 -3.6875 3.5128 -3.6875 1.1328 C-2.6875 0.1328 -2.6875 0.1328 0 0 Z " fill="#F5E6C4" transform="translate(527.6875,181.8671875)"/>
<path d="M0 0 C4.62 0 9.24 0 14 0 C14.33 1.98 14.66 3.96 15 6 C21.6 6.33 28.2 6.66 35 7 C35 4.69 35 2.38 35 0 C39.62 0 44.24 0 49 0 C49 2.31 49 4.62 49 7 C55.93 7 62.86 7 70 7 C70 4.69 70 2.38 70 0 C74.62 0 79.24 0 84 0 C84.165 0.99 84.165 0.99 85 6 C91.6 6.33 98.2 6.66 105 7 C105 4.69 105 2.38 105 0 C109.62 0 114.24 0 119 0 C119 2.31 119 4.62 119 7 C125.93 7 132.86 7 140 7 C140 5.02 140 3.04 140 1 C144.29 1 148.58 1 153 1 C153 2.98 153 4.96 153 7 C160.26 7 167.52 7 175 7 C175 4.69 175 2.38 175 0 C179.62 0 184.24 0 189 0 C189 2.31 189 4.62 189 7 C195.93 7 202.86 7 210 7 C210 5.02 210 3.04 210 1 C214.29 1 218.58 1 223 1 C223 2.98 223 4.96 223 7 C230.26 7 237.52 7 245 7 C245 5.02 245 3.04 245 1 C249.29 1 253.58 1 258 1 C258 2.98 258 4.96 258 7 C265.26 7 272.52 7 280 7 C280 5.02 280 3.04 280 1 C284.29 1 288.58 1 293 1 C293 2.98 293 4.96 293 7 C300.26 7 307.52 7 315 7 C315 5.02 315 3.04 315 1 C316.32 1 317.64 1 319 1 C319 5.29 319 9.58 319 14 C316.69 14.33 314.38 14.66 312 15 C311.67 21.6 311.34 28.2 311 35 C314.3 35 317.6 35 321 35 C321 39.29 321 43.58 321 48 C319 49 319 49 311 49 C311 55.6 311 62.2 311 69 C313.64 69 316.28 69 319 69 C320 70 320 70 320.0977 72.9414 C320.0919 73.5389 320.0919 73.5389 320.0625 76.5625 C320.0535 77.76 320.0445 78.9576 320.0352 80.1914 C320.0294 80.6548 320.0294 80.6548 320 83 C317.03 83 314.06 83 311 83 C311 85.64 311 88.28 311 91 C310.01 91 309.02 91 308 91 C308 92.98 308 94.96 308 97 C303.71 97 299.42 97 295 97 C295 95.02 295 93.04 295 91 C291.7 91.165 291.7 91.165 275 92 C274.34 93.98 273.68 95.96 273 98 C270.8542 98.0269 268.7084 98.0463 266.5625 98.0625 C265.3675 98.0741 264.1726 98.0857 262.9414 98.0977 C260 98 260 98 259 97 C259 95.02 259 93.04 259 91 C252.07 91 245.14 91 238 91 C238 92.98 238 94.96 238 97 C233.71 97 229.42 97 225 97 C225 95.02 225 93.04 225 91 C221.7 91.165 221.7 91.165 205 92 C204.67 93.65 204.34 95.3 204 97 C199.38 97 194.76 97 190 97 C190 95.02 190 93.04 190 91 C183.07 91 176.14 91 169 91 C169 92.98 169 94.96 169 97 C164.38 97 159.76 97 155 97 C155 95.02 155 93.04 155 91 C151.7 91.165 151.7 91.165 135 92 C134.67 93.65 134.34 95.3 134 97 C129.38 97 124.76 97 120 97 C120 95.02 120 93.04 120 91 C113.07 91 106.14 91 99 91 C99 92.98 99 94.96 99 97 C94.38 97 89.76 97 85 97 C85 95.02 85 93.04 85 91 C78.07 91 71.14 91 64 91 C64 92.98 64 94.96 64 97 C63 98 63 98 60.0586 98.0977 C58.8636 98.0861 57.6687 98.0745 56.4375 98.0625 C55.8387 98.058 55.8387 98.058 52.8086 98.0352 C52.3452 98.0294 52.3452 98.0294 50 98 C50 95.69 50 93.38 50 91 C43.07 91 36.14 91 29 91 C29 92.98 29 94.96 29 97 C24.38 97 19.76 97 15 97 C15 95.02 15 93.04 15 91 C8.4 91 1.8 91 -5 91 C-5 63.28 -5 35.56 -5 7 C-3.35 7 -1.7 7 0 7 C0 4.69 0 2.38 0 0 Z " fill="#FEFEFD" transform="translate(803,183)"/>
<path d="M0 0 C0.917 -0.0029 1.834 -0.0059 2.7788 -0.0089 C5.8683 -0.0163 8.9576 -0.0094 12.0472 -0.0026 C14.2874 -0.005 16.5276 -0.0083 18.7678 -0.0123 C24.9598 -0.021 31.1518 -0.0171 37.3439 -0.0113 C43.3738 -0.0076 49.4038 -0.0132 55.4337 -0.0186 C67.9209 -0.0295 80.408 -0.0308 92.8952 -0.0269 C105.5528 -0.0231 118.2105 -0.0235 130.8682 -0.0292 C131.6671 -0.0296 132.4659 -0.03 133.289 -0.0303 C136.5427 -0.0318 139.7964 -0.0333 143.05 -0.0349 C176.0971 -0.0505 209.1441 -0.0532 242.1912 -0.0507 C246.7592 -0.0504 251.3272 -0.05 255.8952 -0.0497 C256.3488 -0.0497 256.3488 -0.0497 258.6445 -0.0495 C278.7376 -0.0483 298.8308 -0.0509 318.924 -0.0543 C323.5099 -0.055 328.0957 -0.0558 332.6816 -0.0565 C334.5221 -0.0568 336.3625 -0.0571 338.203 -0.0574 C339.1152 -0.0576 340.0275 -0.0577 340.9674 -0.0579 C342.8126 -0.0582 344.6578 -0.0585 346.5031 -0.0588 C398.8701 -0.0675 451.2372 -0.0721 503.6042 -0.0679 C504.0892 -0.0678 504.0892 -0.0678 506.5436 -0.0676 C517.3604 -0.0667 528.1771 -0.0658 538.9939 -0.0649 C539.9706 -0.0648 540.9472 -0.0647 541.9534 -0.0646 C550.0694 -0.0639 550.0694 -0.0639 553.8022 -0.0636 C616.2913 -0.058 678.7803 -0.0656 741.2694 -0.0843 C757.0178 -0.0891 772.7662 -0.0937 788.5146 -0.0982 C789.4842 -0.0984 790.4538 -0.0987 791.4528 -0.099 C821.3218 -0.1074 851.1908 -0.112 881.0597 -0.1129 C881.997 -0.1129 882.9344 -0.1129 883.9001 -0.113 C904.4729 -0.1135 925.0457 -0.1131 945.6186 -0.1119 C952.9792 -0.1115 960.3398 -0.1111 967.7005 -0.1108 C969.5317 -0.1107 971.3629 -0.1106 973.1941 -0.1105 C1002.4086 -0.1091 1031.623 -0.1162 1060.8374 -0.1275 C1091.0641 -0.1392 1121.2908 -0.1398 1151.5175 -0.1277 C1154.7594 -0.1264 1158.0012 -0.1252 1161.243 -0.1241 C1162.0387 -0.1238 1162.8343 -0.1235 1163.6541 -0.1232 C1176.2821 -0.1188 1188.9102 -0.1246 1201.5383 -0.1345 C1213.9377 -0.144 1226.3371 -0.1429 1238.7366 -0.1303 C1245.3768 -0.1238 1252.0169 -0.1226 1258.6571 -0.1342 C1264.6858 -0.1446 1270.7143 -0.1415 1276.7429 -0.1271 C1278.9219 -0.1243 1281.1008 -0.1267 1283.2798 -0.1346 C1286.2178 -0.1445 1289.1551 -0.1362 1292.0931 -0.123 C1292.9484 -0.1303 1293.8038 -0.1376 1294.6851 -0.1451 C1300.4832 -0.0909 1300.4832 -0.0909 1302.4408 1.6972 C1302.9087 2.2102 1303.3765 2.7233 1303.8585 3.2518 C1304.6835 3.6643 1305.5085 4.0768 1306.3585 4.5018 C1310.2483 7.2247 1311.2537 10.9487 1312.4295 15.4266 C1313.0212 19.3233 1312.9892 23.1454 1312.972 27.0812 C1312.9722 27.9597 1312.9723 28.8383 1312.9725 29.7435 C1312.9718 32.6382 1312.964 35.5329 1312.9562 38.4276 C1312.9543 40.4383 1312.9529 42.449 1312.9519 44.4597 C1312.9481 49.745 1312.9382 55.0304 1312.9272 60.3158 C1312.9169 65.7118 1312.9124 71.1078 1312.9073 76.5038 C1312.8966 87.0865 1312.8796 97.6692 1312.8585 108.2518 C1312.1985 108.2518 1311.5385 108.2518 1310.8585 108.2518 C1310.8585 107.5918 1310.8585 106.9318 1310.8585 106.2518 C1308.5485 106.2518 1306.2385 106.2518 1303.8585 106.2518 C1303.8526 105.173 1303.8468 104.0942 1303.8407 102.9826 C1303.7835 92.8152 1303.7108 82.648 1303.6228 72.4807 C1303.5781 67.2537 1303.5388 62.0267 1303.5121 56.7995 C1303.4861 51.7548 1303.4457 46.7105 1303.3953 41.6661 C1303.3786 39.7416 1303.3671 37.8171 1303.3609 35.8925 C1303.3513 33.1966 1303.3232 30.5015 1303.2909 27.8058 C1303.2923 27.0103 1303.2937 26.2147 1303.2952 25.3951 C1303.2171 20.7906 1302.5068 18.0101 1299.8585 14.2518 C1299.8585 13.5918 1299.8585 12.9318 1299.8585 12.2518 C1296.7831 11.2267 1294.6825 11.1219 1291.4606 11.1132 C1290.8968 11.1104 1290.8968 11.1104 1288.0435 11.0966 C1286.7994 11.0956 1285.5552 11.0946 1284.2734 11.0936 C1283.6146 11.0912 1283.6146 11.0912 1280.281 11.0787 C1276.6165 11.0651 1272.952 11.0577 1269.2875 11.0512 C1265.3386 11.0432 1261.3897 11.0295 1257.4409 11.0165 C1250.5967 10.9948 1243.7525 10.9766 1236.9082 10.9609 C1227.0126 10.9382 1217.1169 10.9101 1207.2212 10.8806 C1191.1672 10.8329 1175.1131 10.7897 1159.0589 10.7492 C1143.4616 10.7098 1127.8643 10.6684 1112.2669 10.6242 C1111.3059 10.6214 1110.3449 10.6187 1109.3548 10.6159 C1104.5337 10.6022 1099.7126 10.5885 1094.8916 10.5748 C1054.8806 10.4608 1014.8695 10.354 974.8585 10.2518 C974.8585 7.6118 974.8585 4.9718 974.8585 2.2518 C972.8785 2.2518 970.8985 2.2518 968.8585 2.2518 C968.8585 4.8918 968.8585 7.5318 968.8585 10.2518 C861.6085 10.2518 754.3585 10.2518 643.8585 10.2518 C643.5285 7.9418 643.1985 5.6318 642.8585 3.2518 C640.8785 2.9218 638.8985 2.5918 636.8585 2.2518 C636.8585 4.8918 636.8585 7.5318 636.8585 10.2518 C595.4724 10.2747 554.0864 10.2923 512.7003 10.3029 C507.8197 10.3042 502.9391 10.3055 498.0585 10.3068 C497.0868 10.307 496.1151 10.3073 495.1139 10.3076 C479.3589 10.3119 463.6039 10.3198 447.8489 10.329 C431.6954 10.3383 415.5418 10.3439 399.3883 10.3459 C389.4123 10.3473 379.4364 10.3517 369.4604 10.3598 C362.6292 10.365 355.798 10.3667 348.9668 10.3654 C345.0194 10.3647 341.0721 10.3657 337.1247 10.3711 C333.5169 10.3759 329.9092 10.3762 326.3014 10.3727 C324.3656 10.3721 322.4297 10.3765 320.4938 10.3809 C319.3598 10.3789 318.2257 10.3769 317.0572 10.3749 C316.0703 10.3753 315.0834 10.3757 314.0666 10.376 C311.8585 10.2518 311.8585 10.2518 310.8585 9.2518 C310.8176 6.9189 310.8161 4.5848 310.8585 2.2518 C308.8785 2.2518 306.8985 2.2518 304.8585 2.2518 C304.8585 4.8918 304.8585 7.5318 304.8585 10.2518 C201.5685 10.2518 98.2785 10.2518 -8.1415 10.2518 C-8.4715 11.2418 -8.8015 12.2318 -9.1415 13.2518 C-9.8015 13.5818 -9.8015 13.5818 -13.1415 15.2518 C-13.4715 45.2818 -13.8015 75.3118 -14.1415 106.2518 C-16.4515 106.2518 -18.7615 106.2518 -21.1415 106.2518 C-21.1415 106.9118 -21.1415 107.5718 -21.1415 108.2518 C-21.8015 108.2518 -22.4615 108.2518 -23.1415 108.2518 C-23.188 96.69 -23.2234 85.1282 -23.2451 73.5663 C-23.2555 68.197 -23.2696 62.8277 -23.2924 57.4584 C-23.3142 52.2713 -23.3261 47.0842 -23.3313 41.897 C-23.3349 39.9236 -23.3421 37.9502 -23.353 35.9768 C-23.3676 33.2007 -23.3695 30.4249 -23.3685 27.6488 C-23.3757 26.8432 -23.3829 26.0376 -23.3903 25.2076 C-23.3652 18.1504 -23.3145 10.2161 -18.3915 4.7518 C-13.2422 -0.1145 -6.6496 -0.0366 0 0 Z " fill="#47423B" transform="translate(155.1414973139763,69.74815100431442)"/>
<path d="M0 0 C1.98 0 3.96 0 6 0 C6.33 2.31 6.66 4.62 7 7 C60.625 7.165 60.625 7.165 332 8 C332 5.36 332 2.72 332 0 C333.9995 -0.0425 336.0004 -0.0408 338 0 C339 1 339 1 339.0625 4.5625 C339.0419 5.6969 339.0213 6.8312 339 8 C339.6848 7.9996 340.3696 7.9992 341.0752 7.9988 C381.6251 7.9765 422.175 7.9593 462.7249 7.9489 C467.5892 7.9477 472.4536 7.9464 477.3179 7.9451 C478.2863 7.9448 479.2547 7.9445 480.2525 7.9443 C495.9519 7.9399 511.6513 7.932 527.3506 7.9228 C543.4488 7.9135 559.547 7.9079 575.6451 7.9059 C585.5858 7.9045 595.5264 7.9002 605.4671 7.8921 C612.2754 7.8868 619.0837 7.8852 625.892 7.8865 C629.8253 7.8871 633.7586 7.8861 637.692 7.8808 C641.2881 7.876 644.8841 7.8757 648.4802 7.8791 C650.4074 7.8797 652.3346 7.8754 654.2617 7.8709 C655.3944 7.8729 656.527 7.8749 657.6939 7.877 C658.6774 7.8766 659.6608 7.8762 660.6741 7.8758 C663 8 663 8 665 9 C665.0231 21.3692 665.0409 33.7384 665.0518 46.1076 C665.057 51.8505 665.0641 57.5933 665.0754 63.3362 C665.0863 68.8734 665.0923 74.4106 665.0949 79.9478 C665.0967 82.0654 665.1004 84.1831 665.1057 86.3007 C665.1129 89.2557 665.114 92.2107 665.1135 95.1658 C665.1171 96.0505 665.1207 96.9352 665.1244 97.8468 C665.1141 103.8859 665.1141 103.8859 664 105 C662.0764 105.0966 660.1492 105.1219 658.2231 105.1203 C656.968 105.1216 655.713 105.123 654.4198 105.1244 C653.0161 105.1209 651.6124 105.1172 650.2087 105.1135 C648.7406 105.1132 647.2725 105.1134 645.8044 105.114 C641.8067 105.1143 637.8089 105.1084 633.8112 105.1014 C629.6378 105.0952 625.4644 105.0946 621.291 105.0934 C613.3827 105.0903 605.4743 105.082 597.566 105.072 C588.5649 105.0609 579.5639 105.0553 570.5628 105.0503 C552.0419 105.0399 533.5209 105.0223 515 105 C515 105.66 515 106.32 515 107 C509.06 107 503.12 107 497 107 C497.33 110.63 497.66 114.26 498 118 C497.34 118 496.68 118 496 118 C496 116.02 496 114.04 496 112 C491.71 112 487.42 112 483 112 C483 113.98 483 115.96 483 118 C482.67 118 482.34 118 482 118 C482 114.37 482 110.74 482 107 C475.73 107 469.46 107 463 107 C463 106.34 463 105.68 463 105 C422.74 105.33 382.48 105.66 341 106 C341 106.33 341 106.66 341 107 C334.73 107 328.46 107 322 107 C321.67 108.32 321.34 109.64 321 111 C317.04 111 313.08 111 309 111 C308.67 113.31 308.34 115.62 308 118 C301.07 118 294.14 118 287 118 C287 115.36 287 112.72 287 110 C284.855 110.165 284.855 110.165 274 111 C273.67 113.31 273.34 115.62 273 118 C266.07 118 259.14 118 252 118 C251.67 115.69 251.34 113.38 251 111 C247.04 111 243.08 111 239 111 C238.67 113.31 238.34 115.62 238 118 C231.07 118 224.14 118 217 118 C217 115.36 217 112.72 217 110 C214.855 110.165 214.855 110.165 204 111 C203.34 113.31 202.68 115.62 202 118 C195.4 118 188.8 118 182 118 C181.67 115.69 181.34 113.38 181 111 C177.04 111 173.08 111 169 111 C168.67 113.31 168.34 115.62 168 118 C161.4 118 154.8 118 148 118 C148 115.69 148 113.38 148 111 C143.71 111.33 139.42 111.66 135 112 C134.67 113.98 134.34 115.96 134 118 C126.74 118 119.48 118 112 118 C111.67 116.02 111.34 114.04 111 112 C106.71 111.67 102.42 111.34 98 111 C98 113.31 98 115.62 98 118 C91.4 118 84.8 118 78 118 C77.67 115.69 77.34 113.38 77 111 C73.04 111 69.08 111 65 111 C64.67 113.31 64.34 115.62 64 118 C57.4 118 50.8 118 44 118 C43.34 116.02 42.68 114.04 42 112 C37.71 111.67 33.42 111.34 29 111 C29 113.31 29 115.62 29 118 C28.67 118 28.34 118 28 118 C28 114.7 28 111.4 28 108 C21.4 108 14.8 108 8 108 C8 110.97 8 113.94 8 117 C5.69 117 3.38 117 1 117 C1 147.36 1 177.72 1 209 C0.67 209 0.34 209 0 209 C0 176.66 0 144.32 0 111 C-107.25 111 -214.5 111 -325 111 C-325 109.02 -325 107.04 -325 105 C-323.02 105 -321.04 105 -319 105 C-319.0067 103.8519 -319.0133 102.7037 -319.0202 101.5208 C-319.0809 90.7198 -319.1259 79.9188 -319.1554 69.1177 C-319.1711 63.5642 -319.1924 58.0109 -319.2263 52.4575 C-319.2588 47.1018 -319.2768 41.7463 -319.2846 36.3905 C-319.2902 34.3435 -319.301 32.2965 -319.3172 30.2495 C-319.3389 27.3903 -319.342 24.5316 -319.3406 21.6724 C-319.346 21.2458 -319.346 21.2458 -319.3733 19.0873 C-319.3608 16.7332 -319.3608 16.7332 -319 13 C-318.01 12.34 -317.02 11.68 -316 11 C-316.33 11.99 -316.66 12.98 -317 14 C-317.33 43.7 -317.66 73.4 -318 104 C-213.06 104 -108.12 104 0 104 C0 69.68 0 35.36 0 0 Z M6 9 C6 40.35 6 71.7 6 104 C113.58 104 221.16 104 332 104 C332 72.65 332 41.3 332 9 C224.42 9 116.84 9 6 9 Z M339 9 C339 40.02 339 71.04 339 103 C340 104 340 104 342.1953 104.1242 C343.1761 104.1238 344.1569 104.1234 345.1675 104.123 C345.731 104.124 345.731 104.124 348.583 104.1291 C349.8369 104.1262 351.0907 104.1233 352.3826 104.1203 C353.0425 104.1207 353.0425 104.1207 356.3821 104.1228 C360.0626 104.1251 363.743 104.1211 367.4235 104.1161 C371.386 104.1118 375.3485 104.1132 379.311 104.114 C386.182 104.1145 393.053 104.1113 399.924 104.1057 C409.8584 104.0976 419.7928 104.095 429.7273 104.0937 C445.8435 104.0916 461.9597 104.0849 478.0759 104.0754 C493.7354 104.0663 509.3949 104.0592 525.0544 104.0549 C525.5367 104.0548 525.5367 104.0548 527.9773 104.0541 C532.8159 104.0528 537.6545 104.0516 542.493 104.0503 C582.662 104.0399 622.831 104.0215 663 104 C663 72.65 663 41.3 663 9 C556.08 9 449.16 9 339 9 Z M-318 208 C-265.53 208.165 -265.53 208.165 0 209 C0 209.33 0 209.66 0 210 C-104.94 210 -209.88 210 -318 210 C-318 209.34 -318 208.68 -318 208 Z " fill="#CFCABD" transform="translate(460,72)"/>
<path d="M0 0 C40.92 0 81.84 0 124 0 C124 0.66 124 1.32 124 2 C130.27 2 136.54 2 143 2 C143 5.63 143 9.26 143 13 C136.4 13 129.8 13 123 13 C123 10.69 123 8.38 123 6 C118.38 6 113.76 6 109 6 C109 8.31 109 10.62 109 13 C105.6875 13.0289 102.3751 13.0468 99.0625 13.0625 C98.117 13.0709 97.1714 13.0793 96.1973 13.0879 C95.7477 13.0895 95.7477 13.0895 93.4727 13.0977 C93.0563 13.1003 93.0563 13.1003 90.9495 13.1135 C89 13 89 13 88 12 C88 10.02 88 8.04 88 6 C83.38 6 78.76 6 74 6 C74 8.31 74 10.62 74 13 C67.07 13 60.14 13 53 13 C53 10.69 53 8.38 53 6 C48.38 6 43.76 6 39 6 C39 8.31 39 10.62 39 13 C35.6875 13.0289 32.3751 13.0468 29.0625 13.0625 C28.117 13.0709 27.1714 13.0793 26.1973 13.0879 C25.7477 13.0895 25.7477 13.0895 23.4727 13.0977 C23.0563 13.1003 23.0563 13.1003 20.9495 13.1135 C19 13 19 13 18 12 C18 10.02 18 8.04 18 6 C13.38 6 8.76 6 4 6 C4 8.31 4 10.62 4 13 C2.35 13 0.7 13 -1 13 C-1 40.72 -1 68.44 -1 97 C5.6 97 12.2 97 19 97 C19 98.98 19 100.96 19 103 C23.62 103 28.24 103 33 103 C33 101.02 33 99.04 33 97 C39.93 97 46.86 97 54 97 C54 99.31 54 101.62 54 104 C58.29 103.67 62.58 103.34 67 103 C67.33 101.02 67.66 99.04 68 97 C74.93 97 81.86 97 89 97 C89 98.98 89 100.96 89 103 C93.62 103 98.24 103 103 103 C103 101.02 103 99.04 103 97 C109.93 97 116.86 97 124 97 C124.0977 106.2773 124.0977 106.2773 124 109 C122.3586 110.6414 120.4741 110.1421 118.2102 110.1582 C117.692 110.1631 117.692 110.1631 115.0698 110.1879 C113.9233 110.1936 112.7767 110.1994 111.5955 110.2053 C110.3956 110.2152 109.1958 110.2251 107.9596 110.2353 C104.6602 110.2616 101.3608 110.2834 98.0613 110.3033 C94.6166 110.3251 91.172 110.3526 87.7273 110.3794 C81.2002 110.4294 74.6731 110.4743 68.1459 110.5174 C59.9885 110.5716 51.8312 110.6324 43.6738 110.6934 C29.1159 110.802 14.558 110.9005 0 111 C-0.33 146.64 -0.66 182.28 -1 219 C-2.65 219.33 -4.3 219.66 -6 220 C-6.33 219.67 -6.66 219.34 -7 219 C-7 217.02 -7 215.04 -7 213 C-114.25 213 -221.5 213 -332 213 C-332 214.98 -332 216.96 -332 219 C-332.33 219 -332.66 219 -333 219 C-333 216.69 -333 214.38 -333 212 C-225.42 211.67 -117.84 211.34 -7 211 C-7 178.33 -7 145.66 -7 112 C-113.92 112 -220.84 112 -331 112 C-331.33 144.67 -331.66 177.34 -332 211 C-332.33 211 -332.66 211 -333 211 C-333.0231 197.9789 -333.0409 184.9578 -333.0518 171.9367 C-333.057 165.8911 -333.0641 159.8456 -333.0754 153.8 C-333.0863 147.9711 -333.0923 142.1421 -333.0949 136.3131 C-333.0967 134.0838 -333.1004 131.8546 -333.1057 129.6253 C-333.1129 126.5146 -333.114 123.4039 -333.1135 120.2932 C-333.1171 119.3617 -333.1207 118.4303 -333.1244 117.4706 C-333.1141 111.1141 -333.1141 111.1141 -332 110 C-329.7921 109.8759 -327.5802 109.822 -325.3689 109.7947 C-324.6762 109.7848 -323.9836 109.7749 -323.27 109.7647 C-320.9704 109.733 -318.6708 109.7083 -316.3711 109.6836 C-314.7807 109.663 -313.1903 109.642 -311.5999 109.6206 C-307.4061 109.5653 -303.2123 109.5159 -299.0184 109.4678 C-294.7421 109.4176 -290.4658 109.3619 -286.1895 109.3066 C-277.793 109.199 -269.3965 109.0975 -261 109 C-260.67 107.35 -260.34 105.7 -260 104 C-255.71 104 -251.42 104 -247 104 C-247 101.69 -247 99.38 -247 97 C-239.74 97 -232.48 97 -225 97 C-224.835 98.32 -224.835 98.32 -224 105 C-222.02 104.835 -222.02 104.835 -212 104 C-211.67 101.69 -211.34 99.38 -211 97 C-204.4 97 -197.8 97 -191 97 C-190.67 99.31 -190.34 101.62 -190 104 C-186.04 104 -182.08 104 -178 104 C-177.67 101.69 -177.34 99.38 -177 97 C-169.74 97 -162.48 97 -155 97 C-155 99.31 -155 101.62 -155 104 C-150.71 104 -146.42 104 -142 104 C-142 101.69 -142 99.38 -142 97 C-135.07 97 -128.14 97 -121 97 C-121 99.31 -121 101.62 -121 104 C-116.38 104 -111.76 104 -107 104 C-107 101.69 -107 99.38 -107 97 C-103.5209 96.9711 -100.0417 96.9532 -96.5625 96.9375 C-96.0659 96.9333 -96.0659 96.9333 -93.5527 96.9121 C-93.0806 96.9105 -93.0806 96.9105 -90.6914 96.9023 C-89.8169 96.8971 -88.9423 96.8919 -88.0413 96.8865 C-86 97 -86 97 -85 98 C-85 99.98 -85 101.96 -85 104 C-80.71 104 -76.42 104 -72 104 C-72 101.69 -72 99.38 -72 97 C-65.07 97 -58.14 97 -51 97 C-51 99.31 -51 101.62 -51 104 C-46.38 104 -41.76 104 -37 104 C-37 101.69 -37 99.38 -37 97 C-30.07 97 -23.14 97 -16 97 C-16 99.31 -16 101.62 -16 104 C-13.03 104 -10.06 104 -7 104 C-7 73.97 -7 43.94 -7 13 C-10.3 13 -13.6 13 -17 13 C-17 9.37 -17 5.74 -17 2 C-14.195 1.835 -14.195 1.835 0 1 C0 0.67 0 0.34 0 0 Z " fill="#C9C2B4" transform="translate(799,177)"/>
<path d="M0 0 C0.66 0 1.32 0 2 0 C2 0.66 2 1.32 2 2 C4.31 2 6.62 2 9 2 C9.0103 3.1835 9.0206 4.367 9.0312 5.5864 C9.1289 16.7256 9.2316 27.8648 9.3393 39.0039 C9.3946 44.731 9.448 50.4582 9.4973 56.1853 C9.545 61.7096 9.5973 67.2338 9.6529 72.7581 C9.6734 74.8684 9.6921 76.9788 9.7091 79.0892 C9.7331 82.0391 9.7632 84.9889 9.7947 87.9387 C9.8004 88.8163 9.8062 89.6938 9.8121 90.5979 C9.8532 93.9711 9.9262 96.7785 11 100 C13.5625 101.1875 13.5625 101.1875 16 102 C16 102.66 16 103.32 16 104 C118.96 104 221.92 104 328 104 C328.33 106.97 328.66 109.94 329 113 C289.1345 113.0916 249.2689 113.162 209.4033 113.2043 C204.6969 113.2093 199.9905 113.2144 195.2842 113.2197 C194.8157 113.2203 194.8157 113.2203 192.4449 113.2229 C177.2734 113.2403 162.1019 113.2719 146.9303 113.3086 C131.3632 113.346 115.7962 113.3682 100.2291 113.3764 C90.6231 113.3818 81.0173 113.3992 71.4114 113.4317 C64.8245 113.4528 58.2376 113.4592 51.6507 113.454 C47.8502 113.4514 44.05 113.4554 40.2495 113.4768 C36.127 113.4999 32.0052 113.4919 27.8827 113.481 C26.6842 113.4927 25.4858 113.5043 24.251 113.5163 C15.7679 113.4554 10.6333 112.0278 4 106.5 C2 104 2 104 2 100 C1.34 100 0.68 100 0 100 C0 67 0 34 0 0 Z " fill="#3F3A33" transform="translate(132,286)"/>
<path d="M0 0 C0.66 0 1.32 0 2 0 C2.0695 12.9347 2.1228 25.8694 2.1554 38.8043 C2.1711 44.8105 2.1923 50.8166 2.2263 56.8228 C2.2589 62.6194 2.2769 68.4158 2.2846 74.2125 C2.2902 76.4237 2.301 78.6349 2.3172 80.846 C2.339 83.9439 2.342 87.0412 2.3406 90.1392 C2.346 90.5959 2.346 90.5959 2.3733 92.9073 C2.3484 98.0314 1.8496 101.5588 -1 106 C-2.8672 107.6445 -2.8672 107.6445 -4.875 108.8125 C-5.2037 109.0117 -5.2037 109.0117 -6.8672 110.0195 C-11.0156 111.9266 -15.1294 112.1248 -19.644 112.123 C-20.7756 112.125 -21.9072 112.127 -23.0731 112.1291 C-24.3115 112.1262 -25.5498 112.1233 -26.8256 112.1203 C-28.1448 112.1211 -29.464 112.122 -30.8231 112.1228 C-34.4832 112.1251 -38.1432 112.1211 -41.8032 112.1161 C-45.7506 112.1117 -49.6981 112.1132 -53.6456 112.114 C-60.4843 112.1145 -67.323 112.1114 -74.1617 112.1057 C-84.0494 112.0976 -93.9371 112.095 -103.8247 112.0937 C-119.8666 112.0916 -135.9085 112.0849 -151.9504 112.0754 C-167.5341 112.0663 -183.1178 112.0592 -198.7014 112.0549 C-199.6619 112.0547 -200.6224 112.0544 -201.612 112.0541 C-206.4305 112.0528 -211.2491 112.0516 -216.0676 112.0503 C-256.0451 112.04 -296.0225 112.0223 -336 112 C-335.67 109.36 -335.34 106.72 -335 104 C-229.4 104 -123.8 104 -15 104 C-15 103.34 -15 102.68 -15 102 C-14.5153 101.7731 -14.5153 101.7731 -12.0625 100.625 C-9 99 -9 99 -8 97 C-7.8771 94.0105 -7.8142 91.0429 -7.7947 88.0522 C-7.7848 87.1254 -7.7749 86.1985 -7.7647 85.2435 C-7.733 82.1702 -7.7083 79.0968 -7.6836 76.0234 C-7.663 73.8964 -7.642 71.7693 -7.6206 69.6422 C-7.5654 64.0363 -7.516 58.4303 -7.4678 52.8243 C-7.4176 47.1068 -7.3619 41.3893 -7.3066 35.6719 C-7.199 24.448 -7.0976 13.224 -7 2 C-4.69 2 -2.38 2 0 2 C0 1.34 0 0.68 0 0 Z " fill="#423D36" transform="translate(1466,286)"/>
<path d="M0 0 C107.58 0 215.16 0 326 0 C326 2.97 326 5.94 326 9 C284.6139 9.0229 243.2279 9.0405 201.8418 9.0511 C196.9612 9.0523 192.0806 9.0536 187.2 9.0549 C186.2283 9.0552 185.2566 9.0555 184.2554 9.0557 C168.5004 9.0601 152.7454 9.068 136.9904 9.0772 C120.8369 9.0865 104.6833 9.0921 88.5298 9.0941 C78.5538 9.0955 68.5779 9.0998 58.6019 9.1079 C51.7707 9.1132 44.9395 9.1148 38.1083 9.1135 C34.1609 9.1129 30.2136 9.1139 26.2662 9.1192 C22.6584 9.124 19.0507 9.1243 15.4429 9.1209 C13.5071 9.1203 11.5712 9.1246 9.6353 9.1291 C8.5012 9.1271 7.3672 9.1251 6.1987 9.123 C5.2118 9.1234 4.2249 9.1238 3.2081 9.1242 C1 9 1 9 0 8 C0 5.36 0 2.72 0 0 Z " fill="#413C35" transform="translate(466,71)"/>
<path d="M0 0 C107.58 0 215.16 0 326 0 C326 2.97 326 5.94 326 9 C218.75 9 111.5 9 1 9 C0.67 6.03 0.34 3.06 0 0 Z " fill="#413C35" transform="translate(798,71)"/>
<path d="M0 0 C30.7948 -0.0229 61.5896 -0.0405 92.3844 -0.0511 C96.0276 -0.0523 99.6709 -0.0536 103.3142 -0.0549 C104.0395 -0.0552 104.7647 -0.0555 105.5119 -0.0557 C117.2243 -0.0601 128.9366 -0.0679 140.6489 -0.0772 C152.6848 -0.0865 164.7206 -0.0921 176.7565 -0.0941 C183.5092 -0.0953 190.262 -0.0983 197.0148 -0.1057 C203.3816 -0.1126 209.7484 -0.1146 216.1152 -0.1131 C218.4414 -0.1134 220.7677 -0.1153 223.0939 -0.1192 C233.3712 -0.1354 243.6316 -0.1331 253.8955 0.4446 C254.2461 0.464 254.2461 0.464 256.02 0.5622 C260.7407 0.8703 260.7407 0.8703 263 2 C263 5.63 263 9.26 263 13 C256.07 13 249.14 13 242 13 C242 10.36 242 7.72 242 5 C239.855 5.165 239.855 5.165 229 6 C228.67 8.31 228.34 10.62 228 13 C221.07 13 214.14 13 207 13 C206.67 10.69 206.34 8.38 206 6 C202.04 6 198.08 6 194 6 C193.67 8.31 193.34 10.62 193 13 C186.07 13 179.14 13 172 13 C172 10.36 172 7.72 172 5 C169.855 5.165 169.855 5.165 159 6 C158.34 8.31 157.68 10.62 157 13 C150.4 13 143.8 13 137 13 C136.67 10.69 136.34 8.38 136 6 C132.04 6 128.08 6 124 6 C123.67 8.31 123.34 10.62 123 13 C116.4 13 109.8 13 103 13 C103 10.69 103 8.38 103 6 C98.71 6.33 94.42 6.66 90 7 C89.67 8.98 89.34 10.96 89 13 C81.74 13 74.48 13 67 13 C66.835 12.01 66.835 12.01 66 7 C61.71 6.67 57.42 6.34 53 6 C53 8.31 53 10.62 53 13 C46.4 13 39.8 13 33 13 C32.835 11.845 32.835 11.845 32 6 C28.04 6 24.08 6 20 6 C19.67 8.31 19.34 10.62 19 13 C15.6875 13.0289 12.3751 13.0468 9.0625 13.0625 C8.117 13.0709 7.1714 13.0793 6.1973 13.0879 C5.7477 13.0895 5.7477 13.0895 3.4727 13.0977 C2.64 13.1029 1.8073 13.1081 0.9495 13.1135 C-1 13 -1 13 -2 12 C-2.0721 10.3139 -2.0839 8.625 -2.0625 6.9375 C-2.0535 6.0184 -2.0445 5.0993 -2.0352 4.1523 C-2.0236 3.4421 -2.012 2.7318 -2 2 C-1.34 2 -0.68 2 0 2 C0 1.34 0 0.68 0 0 Z " fill="#CFC4AC" transform="translate(505,177)"/>
<path d="M0 0 C107.25 0 214.5 0 325 0 C325 2.64 325 5.28 325 8 C217.42 8 109.84 8 -1 8 C-0.67 5.36 -0.34 2.72 0 0 Z " fill="#48433D" transform="translate(467,390)"/>
<path d="M0 0 C106.92 0 213.84 0 324 0 C324.33 2.64 324.66 5.28 325 8 C217.42 8 109.84 8 -1 8 C-0.67 5.36 -0.34 2.72 0 0 Z " fill="#403B34" transform="translate(799,390)"/>
<path d="M0 0 C1.9995 -0.0425 4.0004 -0.0408 6 0 C7 1 7 1 7.0625 4.5625 C7.0419 5.6969 7.0213 6.8312 7 8 C7.6848 7.9996 8.3696 7.9992 9.0752 7.9988 C49.6251 7.9765 90.175 7.9593 130.7249 7.9489 C135.5892 7.9477 140.4536 7.9464 145.3179 7.9451 C146.2863 7.9448 147.2547 7.9445 148.2525 7.9443 C163.9519 7.9399 179.6513 7.932 195.3506 7.9228 C211.4488 7.9135 227.547 7.9079 243.6451 7.9059 C253.5858 7.9045 263.5264 7.9002 273.4671 7.8921 C280.2754 7.8868 287.0837 7.8852 293.892 7.8865 C297.8253 7.8871 301.7586 7.8861 305.692 7.8808 C309.2881 7.876 312.8841 7.8757 316.4802 7.8791 C318.4074 7.8797 320.3346 7.8754 322.2617 7.8709 C323.3944 7.8729 324.527 7.8749 325.6939 7.877 C326.6774 7.8766 327.6608 7.8762 328.6741 7.8758 C331 8 331 8 333 9 C333.0231 21.3692 333.0409 33.7384 333.0518 46.1076 C333.057 51.8505 333.0641 57.5933 333.0754 63.3362 C333.0863 68.8734 333.0923 74.4106 333.0949 79.9478 C333.0967 82.0654 333.1004 84.1831 333.1057 86.3007 C333.1129 89.2557 333.114 92.2107 333.1135 95.1658 C333.1171 96.0505 333.1207 96.9352 333.1244 97.8468 C333.1141 103.8859 333.1141 103.8859 332 105 C330.0764 105.0966 328.1492 105.1219 326.2231 105.1203 C324.968 105.1216 323.713 105.123 322.4198 105.1244 C321.0161 105.1209 319.6124 105.1172 318.2087 105.1135 C316.7406 105.1132 315.2725 105.1134 313.8044 105.114 C309.8067 105.1143 305.8089 105.1084 301.8112 105.1014 C297.6378 105.0952 293.4644 105.0946 289.291 105.0934 C281.3827 105.0903 273.4743 105.082 265.566 105.072 C256.5649 105.0609 247.5639 105.0553 238.5628 105.0503 C220.0419 105.0399 201.5209 105.0223 183 105 C183 105.66 183 106.32 183 107 C177.06 107 171.12 107 165 107 C165.33 110.63 165.66 114.26 166 118 C165.34 118 164.68 118 164 118 C164 116.02 164 114.04 164 112 C159.71 112 155.42 112 151 112 C151 113.98 151 115.96 151 118 C150.67 118 150.34 118 150 118 C150 114.37 150 110.74 150 107 C143.73 107 137.46 107 131 107 C131 106.34 131 105.68 131 105 C90.74 105.33 50.48 105.66 9 106 C9 106.33 9 106.66 9 107 C2.73 107 -3.54 107 -10 107 C-10.33 108.32 -10.66 109.64 -11 111 C-15.29 111 -19.58 111 -24 111 C-24 109.68 -24 108.36 -24 107 C-39.6828 105.9536 -55.3303 105.8294 -71.0437 105.7947 C-73.8248 105.7856 -76.6059 105.7751 -79.387 105.7647 C-85.336 105.7431 -91.2851 105.7249 -97.2341 105.7091 C-105.8351 105.6862 -114.436 105.6581 -123.037 105.6288 C-136.9969 105.5813 -150.9568 105.538 -164.9167 105.4973 C-178.4646 105.4579 -192.0125 105.4164 -205.5603 105.3723 C-206.3976 105.3696 -207.235 105.3669 -208.0977 105.3641 C-212.2991 105.3504 -216.5004 105.3367 -220.7018 105.3229 C-255.4678 105.2093 -290.2339 105.1024 -325 105 C-325 104.67 -325 104.34 -325 104 C-217.75 104 -110.5 104 0 104 C0 72.65 0 41.3 0 9 C-107.58 9 -215.16 9 -326 9 C-326 8.67 -326 8.34 -326 8 C-218.42 8 -110.84 8 0 8 C0 5.36 0 2.72 0 0 Z M7 9 C7 40.02 7 71.04 7 103 C8 104 8 104 10.1953 104.1242 C11.1761 104.1238 12.1569 104.1234 13.1675 104.123 C13.731 104.124 13.731 104.124 16.583 104.1291 C17.8369 104.1262 19.0907 104.1233 20.3826 104.1203 C21.0425 104.1207 21.0425 104.1207 24.3821 104.1228 C28.0626 104.1251 31.743 104.1211 35.4235 104.1161 C39.386 104.1118 43.3485 104.1132 47.311 104.114 C54.182 104.1145 61.053 104.1113 67.924 104.1057 C77.8584 104.0976 87.7928 104.095 97.7273 104.0937 C113.8435 104.0916 129.9597 104.0849 146.0759 104.0754 C161.7354 104.0663 177.3949 104.0592 193.0544 104.0549 C193.5367 104.0548 193.5367 104.0548 195.9773 104.0541 C200.8159 104.0528 205.6545 104.0516 210.493 104.0503 C250.662 104.0399 290.831 104.0215 331 104 C331 72.65 331 41.3 331 9 C224.08 9 117.16 9 7 9 Z " fill="#D9D6CF" transform="translate(792,72)"/>
<path d="M0 0 C0.8327 0.0052 1.6653 0.0105 2.5232 0.0159 C3.4223 0.0191 4.3214 0.0223 5.2478 0.0256 C5.7206 0.0298 5.7206 0.0298 8.113 0.051 C9.0624 0.0555 10.0118 0.06 10.99 0.0647 C13.3436 0.0765 15.697 0.093 18.0505 0.1135 C18.0505 2.0935 18.0505 4.0735 18.0505 6.1135 C22.6705 6.1135 27.2905 6.1135 32.0505 6.1135 C32.0505 4.1335 32.0505 2.1535 32.0505 0.1135 C38.9805 0.1135 45.9105 0.1135 53.0505 0.1135 C53.0505 2.0935 53.0505 4.0735 53.0505 6.1135 C57.6705 6.1135 62.2905 6.1135 67.0505 6.1135 C67.0505 4.4635 67.0505 2.8135 67.0505 1.1135 C68.0505 0.1135 68.0505 0.1135 70 0 C70.8327 0.0052 71.6653 0.0105 72.5232 0.0159 C73.4223 0.0191 74.3214 0.0223 75.2478 0.0256 C75.7206 0.0298 75.7206 0.0298 78.113 0.051 C78.5877 0.0533 78.5877 0.0533 80.99 0.0647 C83.3436 0.0765 85.697 0.093 88.0505 0.1135 C88.0505 2.0935 88.0505 4.0735 88.0505 6.1135 C92.3405 6.1135 96.6305 6.1135 101.0505 6.1135 C101.0505 4.1335 101.0505 2.1535 101.0505 0.1135 C107.9805 0.1135 114.9105 0.1135 122.0505 0.1135 C122.2155 1.1035 122.2155 1.1035 123.0505 6.1135 C127.3405 6.1135 131.6305 6.1135 136.0505 6.1135 C136.7105 4.1335 137.3705 2.1535 138.0505 0.1135 C144.6505 0.1135 151.2505 0.1135 158.0505 0.1135 C158.2458 8.512 158.2458 8.512 158.0505 11.1135 C155.2938 13.8703 153.7254 13.365 149.8632 13.3675 C149.2217 13.3706 148.5803 13.3737 147.9195 13.3769 C145.7606 13.385 143.602 13.3786 141.4431 13.3723 C139.8993 13.375 138.3555 13.3786 136.8116 13.3829 C132.6113 13.3921 128.4111 13.3885 124.2107 13.3822 C119.8221 13.3771 115.4335 13.3818 111.0448 13.3849 C103.6738 13.3886 96.3029 13.3838 88.9319 13.3743 C80.4011 13.3634 71.8703 13.3669 63.3395 13.3779 C56.0249 13.387 48.7102 13.3883 41.3955 13.383 C37.0226 13.3799 32.6496 13.3795 28.2766 13.3861 C24.1661 13.3919 20.0557 13.3879 15.9452 13.3763 C14.4335 13.3737 12.9217 13.3745 11.41 13.3789 C9.3525 13.3843 7.2954 13.3775 5.2379 13.3675 C4.0846 13.3667 2.9313 13.366 1.743 13.3652 C-0.9495 13.1135 -0.9495 13.1135 -2.9495 11.1135 C-3.1799 8.7659 -3.1799 8.7659 -3.137 6.051 C-3.1305 5.1525 -3.1241 4.2541 -3.1174 3.3284 C-2.9045 0.5203 -2.8138 0.1639 0 0 Z " fill="#D6C9AE" transform="translate(939.949462890625,273.886474609375)"/>
<path d="M0 0 C46.2 0 92.4 0 140 0 C140 0.66 140 1.32 140 2 C140.99 2 141.98 2 143 2 C142.8596 3.6463 142.7125 5.292 142.5625 6.9375 C142.5219 7.3958 142.5219 7.3958 142.3164 9.7148 C142 12 142 12 141 13 C139.5113 13.0867 138.0186 13.107 136.5273 13.0977 C135.6282 13.0944 134.7291 13.0912 133.8027 13.0879 C132.8572 13.0795 131.9117 13.0711 130.9375 13.0625 C130.4628 13.0602 130.4628 13.0602 128.0605 13.0488 C125.707 13.037 123.3535 13.0205 121 13 C121 11.02 121 9.04 121 7 C116.71 7 112.42 7 108 7 C108 8.98 108 10.96 108 13 C100.74 13 93.48 13 86 13 C86 11.02 86 9.04 86 7 C81.71 7 77.42 7 73 7 C73 8.98 73 10.96 73 13 C65.74 13 58.48 13 51 13 C51 11.02 51 9.04 51 7 C46.71 7 42.42 7 38 7 C38 8.98 38 10.96 38 13 C31.07 13 24.14 13 17 13 C17 10.69 17 8.38 17 6 C12.38 6 7.76 6 3 6 C3 8.31 3 10.62 3 13 C-0.3125 13.0289 -3.6249 13.0468 -6.9375 13.0625 C-7.883 13.0709 -8.8286 13.0793 -9.8027 13.0879 C-10.2523 13.0895 -10.2523 13.0895 -12.5273 13.0977 C-13.36 13.1029 -14.1927 13.1081 -15.0505 13.1135 C-17 13 -17 13 -18 12 C-18.1426 8.6638 -18.0423 5.3402 -18 2 C-12.06 2 -6.12 2 0 2 C0 1.34 0 0.68 0 0 Z " fill="#D4C9B2" transform="translate(975,177)"/>
<path d="M0 0 C40.92 0 81.84 0 124 0 C124 0.66 124 1.32 124 2 C130.27 2 136.54 2 143 2 C143 5.63 143 9.26 143 13 C136.4 13 129.8 13 123 13 C123 10.69 123 8.38 123 6 C118.38 6 113.76 6 109 6 C109 8.31 109 10.62 109 13 C105.6875 13.0289 102.3751 13.0468 99.0625 13.0625 C98.117 13.0709 97.1714 13.0793 96.1973 13.0879 C95.7477 13.0895 95.7477 13.0895 93.4727 13.0977 C93.0563 13.1003 93.0563 13.1003 90.9495 13.1135 C89 13 89 13 88 12 C88 10.02 88 8.04 88 6 C83.38 6 78.76 6 74 6 C74 8.31 74 10.62 74 13 C67.07 13 60.14 13 53 13 C53 10.69 53 8.38 53 6 C48.38 6 43.76 6 39 6 C39 8.31 39 10.62 39 13 C35.6875 13.0289 32.3751 13.0468 29.0625 13.0625 C28.117 13.0709 27.1714 13.0793 26.1973 13.0879 C25.7477 13.0895 25.7477 13.0895 23.4727 13.0977 C22.64 13.1029 21.8073 13.1081 20.9495 13.1135 C19 13 19 13 18 12 C18 10.02 18 8.04 18 6 C13.38 6 8.76 6 4 6 C4 8.31 4 10.62 4 13 C-2.93 13 -9.86 13 -17 13 C-17 9.37 -17 5.74 -17 2 C-14.195 1.835 -14.195 1.835 0 1 C0 0.67 0 0.34 0 0 Z " fill="#D0C2A3" transform="translate(799,177)"/>
<path d="M0 0 C1.32 0 2.64 0 4 0 C4 0.66 4 1.32 4 2 C330.04 2 656.08 2 992 2 C992 2.33 992 2.66 992 3 C561.02 3 130.04 3 -314 3 C-314 2.67 -314 2.34 -314 2 C-210.38 2 -106.76 2 0 2 C0 1.34 0 0.68 0 0 Z " fill="#ABA9A6" transform="translate(461,397)"/>
<path d="M0 0 C106.26 0 212.52 0 322 0 C322 0.66 322 1.32 322 2 C216.73 2 111.46 2 3 2 C3 2.66 3 3.32 3 4 C107.94 4 212.88 4 321 4 C321 4.66 321 5.32 321 6 C215.07 6 109.14 6 0 6 C0 4.02 0 2.04 0 0 Z " fill="#39332C" transform="translate(468,391)"/>
<path d="M0 0 C6.6 0 13.2 0 20 0 C20 3.3 20 6.6 20 10 C15.38 10 10.76 10 6 10 C6 16.6 6 23.2 6 30 C3.36 30 0.72 30 -2 30 C-2 34.62 -2 39.24 -2 44 C0.64 44 3.28 44 6 44 C6.0289 47.3125 6.0468 50.6249 6.0625 53.9375 C6.0709 54.883 6.0793 55.8286 6.0879 56.8027 C6.0911 57.7019 6.0943 58.601 6.0977 59.5273 C6.1029 60.36 6.1081 61.1927 6.1135 62.0505 C6 64 6 64 5 65 C2.69 65 0.38 65 -2 65 C-2 69.62 -2 74.24 -2 79 C0.64 79 3.28 79 6 79 C6 85.27 6 91.54 6 98 C5.01 98.165 5.01 98.165 0 99 C0 100.98 0 102.96 0 105 C-2.375 105.125 -2.375 105.125 -5 105 C-7.6545 102.3455 -7.2363 100.396 -7.2488 96.7858 C-7.2452 96.3499 -7.2452 96.3499 -7.2271 94.144 C-7.2273 93.2269 -7.2276 92.3098 -7.2279 91.3649 C-7.2265 88.3239 -7.211 85.2831 -7.1953 82.2422 C-7.1916 80.1375 -7.1887 78.0329 -7.1867 75.9283 C-7.1791 70.3814 -7.1594 64.8347 -7.1373 59.2878 C-7.1169 53.6307 -7.1077 47.9736 -7.0977 42.3164 C-7.0762 31.2109 -7.042 20.1055 -7 9 C-4.69 9 -2.38 9 0 9 C0 6.03 0 3.06 0 0 Z " fill="#CFC2A5" transform="translate(468,180)"/>
<path d="M0 0 C7.26 0 14.52 0 22 0 C22.33 2.64 22.66 5.28 23 8 C24.98 7.835 24.98 7.835 35 7 C35.33 4.69 35.66 2.38 36 0 C42.6 0 49.2 0 56 0 C56.165 1.155 56.165 1.155 57 7 C60.96 7 64.92 7 69 7 C69.33 4.69 69.66 2.38 70 0 C77.26 0 84.52 0 92 0 C92 3.63 92 7.26 92 11 C89.44 13.56 87.7543 13.2483 84.2634 13.2822 C83.8625 13.2809 83.8625 13.2809 81.8342 13.2747 C80.9902 13.2798 80.1462 13.2849 79.2766 13.2901 C76.4773 13.3041 73.6782 13.3031 70.8789 13.3008 C68.9384 13.3047 66.9979 13.309 65.0574 13.3138 C60.986 13.3212 56.9148 13.3209 52.8435 13.3157 C47.6198 13.3099 42.3965 13.3268 37.1729 13.35 C33.1641 13.3647 29.1554 13.3656 25.1466 13.3625 C23.2204 13.363 21.2942 13.3683 19.3681 13.3783 C16.6769 13.3906 13.9864 13.3839 11.2952 13.3723 C10.4956 13.38 9.696 13.3876 8.8722 13.3955 C4.3633 13.3523 3.3358 13.3358 0 10 C0 6.7 0 3.4 0 0 Z " fill="#CFC2A5" transform="translate(552,274)"/>
<path d="M0 0 C6.93 0 13.86 0 21 0 C21 2.31 21 4.62 21 7 C23.145 6.835 23.145 6.835 34 6 C34.33 4.02 34.66 2.04 35 0 C41.93 0 48.86 0 56 0 C56 1.98 56 3.96 56 6 C60.62 6 65.24 6 70 6 C70 4.02 70 2.04 70 0 C76.93 0 83.86 0 91 0 C91.0977 9.2773 91.0977 9.2773 91 12 C90 13 90 13 87.1843 13.1203 C86.5548 13.1191 86.5548 13.1191 83.3689 13.1135 C82.6762 13.1137 81.9836 13.1138 81.27 13.114 C78.9703 13.1133 76.6707 13.1055 74.3711 13.0977 C72.7807 13.0958 71.1903 13.0944 69.5999 13.0934 C65.406 13.0895 61.2122 13.0797 57.0184 13.0687 C52.7421 13.0585 48.4658 13.0539 44.1895 13.0488 C35.793 13.0381 27.3965 13.021 19 13 C19 12.67 19 12.34 19 12 C12.73 11.67 6.46 11.34 0 11 C0 7.37 0 3.74 0 0 Z " fill="#D4C39F" transform="translate(832,274)"/>
<path d="M0 0 C0.66 0 1.32 0 2 0 C2 0.66 2 1.32 2 2 C104.96 2 207.92 2 314 2 C314.33 4.97 314.66 7.94 315 11 C275.0493 11.0457 235.0987 11.081 195.148 11.1021 C190.4351 11.1046 185.7223 11.1072 181.0095 11.1099 C180.0713 11.1104 179.133 11.1109 178.1663 11.1115 C162.959 11.1202 147.7518 11.1359 132.5446 11.1543 C116.9492 11.173 101.3539 11.1841 85.7586 11.1882 C76.1297 11.1909 66.5007 11.1996 56.8718 11.2158 C50.2756 11.2264 43.6794 11.2296 37.0832 11.227 C33.2733 11.2257 29.4634 11.2277 25.6535 11.2384 C21.5294 11.2499 17.4055 11.246 13.2814 11.2405 C12.0684 11.2463 10.8554 11.2522 9.6056 11.2582 C8.5058 11.2542 7.4061 11.2502 6.273 11.2461 C5.3203 11.2469 4.3676 11.2476 3.386 11.2484 C1 11 1 11 -2 9 C101.95 9 205.9 9 313 9 C312.67 7.02 312.34 5.04 312 3 C209.37 3 106.74 3 1 3 C0.67 2.01 0.34 1.02 0 0 Z " fill="#59544F" transform="translate(146,388)"/>
<path d="M0 0 C2.4375 0.5 2.4375 0.5 4.0656 2.11 C5.8916 5.291 5.8184 7.5794 5.8257 11.2405 C5.8309 11.9092 5.8362 12.578 5.8416 13.267 C5.8548 15.4712 5.8461 17.6747 5.8359 19.8789 C5.838 21.413 5.8409 22.9471 5.8446 24.4812 C5.8491 27.6932 5.8426 30.905 5.8286 34.1169 C5.8115 38.2353 5.8214 42.3531 5.8393 46.4714 C5.8502 49.6378 5.8467 52.8041 5.8389 55.9706 C5.8369 57.4892 5.8394 59.0079 5.8464 60.5266 C5.854 62.6477 5.8424 64.7679 5.8257 66.8889 C5.8233 68.096 5.8209 69.303 5.8185 70.5466 C5.4375 73.5 5.4375 73.5 4.1007 75.3937 C1.5238 77.1078 -0.5514 76.8137 -3.5625 76.5 C-4.5525 75.84 -5.5425 75.18 -6.5625 74.5 C-6.9502 71.6289 -6.9502 71.6289 -6.9666 67.9106 C-6.9734 67.234 -6.9803 66.5574 -6.9874 65.8603 C-7.0057 63.6176 -7.0018 61.3756 -6.9961 59.1328 C-7.0007 57.5758 -7.006 56.0189 -7.012 54.4619 C-7.0209 51.195 -7.0185 47.9285 -7.0085 44.6616 C-6.9971 40.4759 -7.0172 36.2911 -7.0465 32.1055 C-7.0648 28.8884 -7.0645 25.6715 -7.0588 22.4544 C-7.0587 20.9114 -7.0647 19.3684 -7.0771 17.8255 C-7.092 15.6658 -7.0814 13.5078 -7.0642 11.3481 C-7.064 10.1195 -7.0639 8.8909 -7.0637 7.625 C-6.3476 3.1602 -4.4892 0.8759 0 0 Z " fill="#C99934" transform="translate(513.5625,193.5)"/>
<path d="M0 0 C0.66 0 1.32 0 2 0 C2 0.66 2 1.32 2 2 C4.31 2 6.62 2 9 2 C9 34.01 9 66.02 9 99 C7.515 99.165 7.515 99.165 0 100 C0 67 0 34 0 0 Z " fill="#49443D" transform="translate(132,182)"/>
<path d="M0 0 C0.66 0 1.32 0 2 0 C2 33 2 66 2 100 C-0.97 99.34 -3.94 98.68 -7 98 C-7 66.32 -7 34.64 -7 2 C-4.69 2 -2.38 2 0 2 C0 1.34 0 0.68 0 0 Z " fill="#443F38" transform="translate(1466,182)"/>
<path d="M0 0 C1.98 0 3.96 0 6 0 C7 1 7 1 7.123 2.7629 C7.1221 3.5363 7.1212 4.3096 7.1203 5.1065 C7.1216 5.9913 7.123 6.8762 7.1244 7.7879 C7.1226 8.277 7.1226 8.277 7.1135 10.7522 C7.1137 11.7765 7.1138 12.8007 7.114 13.856 C7.1133 17.2595 7.1055 20.6629 7.0977 24.0664 C7.0958 26.4191 7.0944 28.7718 7.0934 31.1245 C7.0895 37.3306 7.0797 43.5366 7.0687 49.7427 C7.0585 56.07 7.0539 62.3973 7.0488 68.7246 C7.0381 81.1497 7.021 93.5749 7 106 C7.33 106.165 7.33 106.165 9 107 C2.73 107 -3.54 107 -10 107 C-10.165 107.66 -10.165 107.66 -11 111 C-15.29 111 -19.58 111 -24 111 C-24 109.68 -24 108.36 -24 107 C-30.27 106.67 -36.54 106.34 -43 106 C-43 105.67 -43 105.34 -43 105 C-28.81 104.67 -14.62 104.34 0 104 C0 69.68 0 35.36 0 0 Z " fill="#CDC7BA" transform="translate(792,72)"/>
<path d="M0 0 C6.6 0 13.2 0 20 0 C20.33 1.98 20.66 3.96 21 6 C25.29 6 29.58 6 34 6 C34.66 4.02 35.32 2.04 36 0 C42.6 0 49.2 0 56 0 C56.1953 8.3984 56.1953 8.3984 56 11 C54 13 54 13 51.7541 13.2472 C50.8201 13.2458 49.886 13.2444 48.9236 13.2429 C47.8659 13.246 46.8081 13.2491 45.7184 13.2522 C44.5725 13.2451 43.4267 13.2379 42.2461 13.2305 C41.0749 13.23 39.9037 13.2296 38.697 13.2291 C36.218 13.2261 33.739 13.2182 31.26 13.2058 C27.45 13.1876 23.6402 13.1853 19.8301 13.1855 C17.4271 13.1806 15.0241 13.1748 12.6211 13.168 C11.4732 13.1669 10.3253 13.1657 9.1427 13.1646 C8.0881 13.1582 7.0335 13.1518 5.947 13.1453 C5.0137 13.1415 4.0804 13.1376 3.1189 13.1337 C1 13 1 13 0 12 C-0.1436 7.9978 -0.0422 4.0056 0 0 Z " fill="#D0C3A8" transform="translate(1042,274)"/>
<path d="M0 0 C6.6 0 13.2 0 20 0 C20 2.31 20 4.62 20 7 C24.62 7 29.24 7 34 7 C34 4.69 34 2.38 34 0 C40.93 0 47.86 0 55 0 C55 10 55 10 53 13 C50.7921 13.3675 50.7921 13.3675 48.0154 13.3564 C46.9777 13.3594 45.94 13.3624 44.8708 13.3655 C43.7469 13.3532 42.6229 13.3408 41.4648 13.3281 C40.8903 13.3272 40.8903 13.3272 37.983 13.3224 C35.5511 13.3157 33.1191 13.3018 30.6873 13.2812 C26.9496 13.2501 23.2124 13.2403 19.4746 13.2344 C17.1172 13.2252 14.7598 13.2148 12.4023 13.2031 C11.2763 13.1989 10.1503 13.1946 8.9902 13.1902 C7.9557 13.1806 6.9211 13.171 5.8552 13.1611 C4.9397 13.1543 4.0242 13.1475 3.0809 13.1404 C1 13 1 13 0 12 C-0.1436 7.9978 -0.0422 4.0056 0 0 Z " fill="#D0C09E" transform="translate(658,274)"/>
<path d="M0 0 C0.8327 0.0052 1.6653 0.0105 2.5232 0.0159 C3.4223 0.0191 4.3214 0.0223 5.2478 0.0256 C5.7206 0.0298 5.7206 0.0298 8.113 0.051 C9.0624 0.0555 10.0118 0.06 10.99 0.0647 C13.3436 0.0765 15.697 0.093 18.0505 0.1135 C18.3805 2.4235 18.7105 4.7335 19.0505 7.1135 C23.0105 7.1135 26.9705 7.1135 31.0505 7.1135 C31.3805 4.8035 31.7105 2.4935 32.0505 0.1135 C38.9805 0.1135 45.9105 0.1135 53.0505 0.1135 C53.1482 9.3909 53.1482 9.3909 53.0505 12.1135 C51.3862 13.7779 49.3908 13.2494 47.1035 13.2588 C46.5762 13.262 46.5762 13.262 43.9079 13.2781 C42.76 13.2792 41.6121 13.2803 40.4294 13.2815 C39.2592 13.2848 38.089 13.2882 36.8833 13.2916 C34.4025 13.2967 31.9217 13.299 29.4409 13.2988 C25.6329 13.301 21.8253 13.3192 18.0173 13.3381 C15.613 13.3411 13.2087 13.3431 10.8044 13.344 C10.2315 13.3476 10.2315 13.3476 7.3322 13.3658 C6.8033 13.3642 6.8033 13.3642 4.127 13.3564 C3.1929 13.3579 2.2588 13.3593 1.2964 13.3608 C-0.9495 13.1135 -0.9495 13.1135 -2.9495 11.1135 C-3.1799 8.7659 -3.1799 8.7659 -3.137 6.051 C-3.1305 5.1525 -3.1241 4.2541 -3.1174 3.3284 C-2.9045 0.5203 -2.8138 0.1639 0 0 Z " fill="#D0C09F" transform="translate(485.949462890625,273.886474609375)"/>
<path d="M0 0 C0.7245 0.0392 1.4489 0.0783 2.1953 0.1187 C7.2489 0.4369 7.2489 0.4369 9.5 1.5625 C9.5 5.1925 9.5 8.8225 9.5 12.5625 C2.57 12.5625 -4.36 12.5625 -11.5 12.5625 C-11.5 9.9225 -11.5 7.2825 -11.5 4.5625 C-13.645 4.7275 -13.645 4.7275 -24.5 5.5625 C-24.83 7.8725 -25.16 10.1825 -25.5 12.5625 C-32.43 12.5625 -39.36 12.5625 -46.5 12.5625 C-46.5 8.9325 -46.5 5.3025 -46.5 1.5625 C-43.487 0.056 -40.3133 0.1791 -37 0 C-36.6223 -0.0209 -36.6223 -0.0209 -34.7109 -0.1265 C-23.1296 -0.7117 -11.5773 -0.6396 0 0 Z " fill="#D1BF98" transform="translate(758.5,177.4375)"/>
<path d="M0 0 C11.22 0 22.44 0 34 0 C34 0.66 34 1.32 34 2 C40.27 2 46.54 2 53 2 C53 5.63 53 9.26 53 13 C46.4 13 39.8 13 33 13 C33 10.69 33 8.38 33 6 C28.38 6 23.76 6 19 6 C19 8.31 19 10.62 19 13 C15.6875 13.0289 12.3751 13.0468 9.0625 13.0625 C8.117 13.0709 7.1714 13.0793 6.1973 13.0879 C5.7477 13.0895 5.7477 13.0895 3.4727 13.0977 C2.64 13.1029 1.8073 13.1081 0.9495 13.1135 C-1 13 -1 13 -2 12 C-2.0721 10.3139 -2.0839 8.625 -2.0625 6.9375 C-2.0535 6.0184 -2.0445 5.0993 -2.0352 4.1523 C-2.0236 3.4421 -2.012 2.7318 -2 2 C-1.34 2 -0.68 2 0 2 C0 1.34 0 0.68 0 0 Z " fill="#D0C3A6" transform="translate(889,177)"/>
<path d="M0 0 C2 1 2 1 2.6173 2.7428 C3.0412 5.2429 3.1241 7.5783 3.123 10.1149 C3.125 11.154 3.127 12.193 3.1291 13.2636 C3.1276 13.8336 3.1276 13.8336 3.1203 16.7183 C3.1211 17.9305 3.122 19.1426 3.1228 20.3915 C3.1242 23.7574 3.1211 27.1231 3.1161 30.489 C3.1118 34.1181 3.1132 37.7473 3.114 41.3764 C3.1145 47.6646 3.1114 53.9527 3.1057 60.2409 C3.0976 69.3326 3.095 78.4242 3.0937 87.5159 C3.0916 102.2661 3.0849 117.0164 3.0754 131.7666 C3.0663 146.096 3.0592 160.4255 3.0549 174.7549 C3.0547 175.638 3.0544 176.5211 3.0541 177.4309 C3.0528 181.8611 3.0516 186.2913 3.0503 190.7216 C3.04 227.481 3.0223 264.2405 3 301 C2.67 301 2.34 301 2 301 C2 269.32 2 237.64 2 205 C1.34 205 0.68 205 0 205 C0 205.66 0 206.32 0 207 C-2.31 207 -4.62 207 -7 207 C-6.9933 208.1835 -6.9867 209.367 -6.9798 210.5864 C-6.9191 221.7255 -6.8741 232.8647 -6.8446 244.0039 C-6.8289 249.7311 -6.8076 255.4582 -6.7737 261.1853 C-6.7411 266.7096 -6.7232 272.2337 -6.7154 277.7581 C-6.7098 279.8685 -6.699 281.9789 -6.6828 284.0892 C-6.6611 287.0392 -6.658 289.9887 -6.6594 292.9387 C-6.654 293.3775 -6.654 293.3775 -6.6267 295.5979 C-6.6576 301.6069 -6.6576 301.6069 -8.5225 303.748 C-8.7663 303.9545 -8.7663 303.9545 -10 305 C-9.8392 304.2001 -9.6785 303.4003 -9.5128 302.5761 C-8.8974 298.2849 -8.8241 294.1108 -8.7947 289.7817 C-8.7897 289.3278 -8.7897 289.3278 -8.7647 287.0303 C-8.7332 284.0437 -8.7084 281.057 -8.6836 278.0703 C-8.663 275.9938 -8.642 273.9173 -8.6206 271.8408 C-8.5655 266.3861 -8.5161 260.9315 -8.4678 255.4767 C-8.4175 249.9063 -8.3618 244.336 -8.3066 238.7656 C-8.1992 227.8438 -8.0977 216.9219 -8 206 C-5.69 206 -3.38 206 -1 206 C-1 204.35 -1 202.7 -1 201 C-1.7838 201.0412 -2.5675 201.0825 -3.375 201.125 C-6 201 -6 201 -8 199 C-8.1885 195.9261 -8.2516 192.943 -8.2271 189.8687 C-8.2273 188.9223 -8.2276 187.9759 -8.2279 187.0008 C-8.2265 183.8624 -8.211 180.7243 -8.1953 177.5859 C-8.1916 175.414 -8.1887 173.2421 -8.1867 171.0702 C-8.1791 165.3458 -8.1594 159.6215 -8.1373 153.8972 C-8.1169 148.0591 -8.1077 142.2209 -8.0977 136.3828 C-8.0762 124.9218 -8.042 113.4609 -8 102 C-5.69 102 -3.38 102 -1 102 C-1 100.02 -1 98.04 -1 96 C-2.98 96 -4.96 96 -7 96 C-7 95.67 -7 95.34 -7 95 C-4.69 95 -2.38 95 0 95 C0 95.66 0 96.32 0 97 C0.66 97 1.32 97 2 97 C1.8923 85.3863 1.7797 73.7727 1.6607 62.1591 C1.6055 56.7661 1.5521 51.3732 1.5027 45.9802 C1.4549 40.7736 1.4025 35.5671 1.3471 30.3605 C1.3267 28.3763 1.308 26.392 1.2909 24.4077 C1.2667 21.6239 1.2367 18.8402 1.2053 16.0564 C1.1996 15.24 1.1938 14.4236 1.1879 13.5825 C1.1289 8.9617 0.7572 4.5601 0 0 Z M0 101 C0 101.66 0 102.32 0 103 C-2.31 103 -4.62 103 -7 103 C-7 134.68 -7 166.36 -7 199 C-4.03 199.66 -1.06 200.32 2 201 C2 168 2 135 2 101 C1.34 101 0.68 101 0 101 Z " fill="#A19E9A" transform="translate(1466,81)"/>
<path d="M0 0 C0.33 0 0.66 0 1 0 C1.0606 0.7825 1.1212 1.5649 1.1836 2.3711 C1.2255 2.8771 1.2255 2.8771 1.4375 5.4375 C1.5187 6.4468 1.5999 7.4562 1.6836 8.4961 C2 11 2 11 3 12 C4.5147 12.2319 6.0375 12.4122 7.5625 12.5625 C8.3888 12.6463 9.2151 12.7301 10.0664 12.8164 C10.7045 12.877 11.3426 12.9376 12 13 C12 13.33 12 13.66 12 14 C-94.92 14 -201.84 14 -312 14 C-312 13.67 -312 13.34 -312 13 C-291.705 12.835 -291.705 12.835 -189 12 C-188.67 10.02 -188.34 8.04 -188 6 C-183.38 6 -178.76 6 -174 6 C-173.67 6.99 -173.67 6.99 -172 12 C-120.19 12 -68.38 12 -15 12 C-14.34 10.02 -13.68 8.04 -13 6 C-8.71 6 -4.42 6 0 6 C0 4.02 0 2.04 0 0 Z " fill="#D7D1C6" transform="translate(1111,274)"/>
<path d="M0 0 C6.27 0 12.54 0 19 0 C19.33 1.98 19.66 3.96 20 6 C23.96 6.33 27.92 6.66 32 7 C32 7.99 32 8.98 32 10 C32.66 10 33.32 10 34 10 C34.66 6.7 35.32 3.4 36 0 C42.27 0 48.54 0 55 0 C55.0977 8.4961 55.0977 8.4961 55 11 C53.3488 12.6512 51.4177 12.1358 49.1448 12.1453 C48.1102 12.1516 47.0757 12.158 46.0098 12.1646 C45.4468 12.1652 45.4468 12.1652 42.5977 12.168 C41.4496 12.1713 40.3016 12.1746 39.1188 12.1781 C36.6851 12.1831 34.2513 12.1855 31.8176 12.1853 C28.0821 12.1875 24.3468 12.2056 20.6113 12.2246 C18.2526 12.2275 15.8939 12.2295 13.5352 12.2305 C12.4112 12.2377 11.2872 12.2448 10.1292 12.2522 C9.0915 12.2492 8.0538 12.2461 6.9846 12.2429 C6.0683 12.2443 5.152 12.2458 4.2079 12.2472 C2 12 2 12 0 10 C-0.2745 6.651 -0.0863 3.3652 0 0 Z " fill="#CDC3AE" transform="translate(937,275)"/>
<path d="M0 0 C22.77 0 45.54 0 69 0 C69 0.66 69 1.32 69 2 C69.99 2 70.98 2 72 2 C71.8596 3.6463 71.7125 5.292 71.5625 6.9375 C71.5219 7.3958 71.5219 7.3958 71.3164 9.7148 C71 12 71 12 70 13 C68.5113 13.0867 67.0186 13.107 65.5273 13.0977 C64.6282 13.0944 63.7291 13.0912 62.8027 13.0879 C61.8572 13.0795 60.9117 13.0711 59.9375 13.0625 C58.9881 13.058 58.0387 13.0535 57.0605 13.0488 C54.707 13.037 52.3535 13.0205 50 13 C50 11.02 50 9.04 50 7 C45.71 7 41.42 7 37 7 C37 8.98 37 10.96 37 13 C36.67 13 36.34 13 36 13 C36 9.7 36 6.4 36 3 C29.4 3 22.8 3 16 3 C15.67 3.99 15.34 4.98 15 6 C10.71 5.67 6.42 5.34 2 5 C2 4.01 2 3.02 2 2 C1.34 2 0.68 2 0 2 C0 1.34 0 0.68 0 0 Z " fill="#D0C8B7" transform="translate(1046,177)"/>
<path d="M0 0 C1.5451 0.0019 3.0902 0.0033 4.6354 0.0043 C8.6383 0.008 12.6411 0.0178 16.644 0.029 C20.7542 0.0394 24.8644 0.0438 28.9746 0.0488 C36.9922 0.0594 45.0098 0.0764 53.0273 0.0977 C53.0273 0.4277 53.0273 0.7577 53.0273 1.0977 C46.7573 1.4277 40.4873 1.7577 34.0273 2.0977 C33.6973 3.4177 33.3673 4.7377 33.0273 6.0977 C29.0673 6.0977 25.1073 6.0977 21.0273 6.0977 C20.6973 8.4077 20.3673 10.7177 20.0273 13.0977 C13.0973 13.0977 6.1673 13.0977 -0.9727 13.0977 C-0.9727 10.4577 -0.9727 7.8177 -0.9727 5.0977 C-5.5927 5.4277 -10.2127 5.7577 -14.9727 6.0977 C-14.9727 5.1077 -14.9727 4.1177 -14.9727 3.0977 C-21.5727 3.0977 -28.1727 3.0977 -34.9727 3.0977 C-34.6427 2.4377 -34.3127 1.7777 -33.9727 1.0977 C-22.632 0.3155 -11.3659 -0.0415 0 0 Z " fill="#CFC09F" transform="translate(677.97265625,176.90234375)"/>
<path d="M0 0 C1 2 1 2 0.5753 4.0732 C-0.1978 8.006 -0.1774 11.8301 -0.2053 15.8293 C-0.2152 16.7079 -0.2251 17.5864 -0.2353 18.4916 C-0.2668 21.3863 -0.2917 24.281 -0.3164 27.1758 C-0.337 29.1865 -0.358 31.1971 -0.3794 33.2078 C-0.4345 38.4931 -0.484 43.7785 -0.5322 49.0639 C-0.5825 54.46 -0.6382 59.856 -0.6934 65.252 C-0.8008 75.8346 -0.9023 86.4173 -1 97 C-0.34 97 0.32 97 1 97 C1 96.34 1 95.68 1 95 C3.31 95 5.62 95 8 95 C8 95.33 8 95.66 8 96 C6.02 96 4.04 96 2 96 C2 97.98 2 99.96 2 102 C4.31 102 6.62 102 9 102 C9 134.67 9 167.34 9 201 C6.69 201 4.38 201 2 201 C2 202.65 2 204.3 2 206 C3.98 206 5.96 206 8 206 C8 206.33 8 206.66 8 207 C5.69 207 3.38 207 1 207 C1 206.34 1 205.68 1 205 C0.34 205 -0.32 205 -1 205 C-1 236.68 -1 268.36 -1 301 C-1.33 301 -1.66 301 -2 301 C-2.0458 263.3765 -2.081 225.7529 -2.1021 188.1294 C-2.1046 183.6895 -2.1072 179.2497 -2.1099 174.8098 C-2.1104 173.9259 -2.1109 173.042 -2.1115 172.1313 C-2.1202 157.8113 -2.1359 143.4913 -2.1543 129.1714 C-2.173 114.4823 -2.1841 99.7933 -2.1882 85.1042 C-2.1909 76.0372 -2.1996 66.9703 -2.2158 57.9033 C-2.2264 51.6893 -2.2296 45.4753 -2.227 39.2612 C-2.2257 35.6739 -2.2277 32.0865 -2.2384 28.4991 C-2.2499 24.6123 -2.246 20.7255 -2.2405 16.8386 C-2.2463 15.7014 -2.2522 14.5643 -2.2582 13.3926 C-2.2542 12.3516 -2.2502 11.3106 -2.2461 10.238 C-2.2469 9.3407 -2.2476 8.4434 -2.2484 7.519 C-1.9719 4.7152 -1.1582 2.5557 0 0 Z M-1 101 C-1 134 -1 167 -1 201 C0.485 200.835 0.485 200.835 8 200 C8 167.99 8 135.98 8 103 C5.69 103 3.38 103 1 103 C1 102.34 1 101.68 1 101 C0.34 101 -0.32 101 -1 101 Z " fill="#A29E9A" transform="translate(133,81)"/>
<path d="M0 0 C17.49 0 34.98 0 53 0 C53 0.66 53 1.32 53 2 C52.34 2 51.68 2 51 2 C51 3.32 51 4.64 51 6 C46.38 6 41.76 6 37 6 C37 8.31 37 10.62 37 13 C30.07 13 23.14 13 16 13 C16 10.69 16 8.38 16 6 C11.38 6 6.76 6 2 6 C1.34 4.02 0.68 2.04 0 0 Z " fill="#D0C4A9" transform="translate(836,177)"/>
<path d="M0 0 C6.6 0 13.2 0 20 0 C20 3.3 20 6.6 20 10 C15.38 10 10.76 10 6 10 C6 16.6 6 23.2 6 30 C2.37 30 -1.26 30 -5 30 C-5 23.4 -5 16.8 -5 10 C-3.35 10 -1.7 10 0 10 C0 6.7 0 3.4 0 0 Z " fill="#CB9D3D" transform="translate(468,180)"/>
<path d="M0 0 C6.93 0 13.86 0 21 0 C21.0977 9.2773 21.0977 9.2773 21 12 C20 13 20 13 17.8677 13.1203 C16.9283 13.118 15.989 13.1158 15.0212 13.1135 C13.9602 13.1134 12.8992 13.1134 11.806 13.1133 C11.2289 13.1107 11.2289 13.1107 8.3086 13.0977 C7.1336 13.0962 5.9586 13.0948 4.7481 13.0934 C0.9778 13.0877 -2.7923 13.0752 -6.5625 13.0625 C-9.1113 13.0575 -11.6602 13.0529 -14.209 13.0488 C-20.4727 13.0378 -26.7363 13.021 -33 13 C-33.33 12.34 -33.66 11.68 -34 11 C-27.73 10.67 -21.46 10.34 -15 10 C-14.67 8.68 -14.34 7.36 -14 6 C-9.38 6 -4.76 6 0 6 C0 4.02 0 2.04 0 0 Z " fill="#D1C6AE" transform="translate(902,274)"/>
<path d="M0 0 C17.16 0 34.32 0 52 0 C52.165 0.495 52.165 0.495 53 3 C46.4 3 39.8 3 33 3 C32.67 3.99 32.34 4.98 32 6 C28.04 6 24.08 6 20 6 C19.67 8.31 19.34 10.62 19 13 C15.6875 13.0289 12.3751 13.0468 9.0625 13.0625 C8.117 13.0709 7.1714 13.0793 6.1973 13.0879 C5.7477 13.0895 5.7477 13.0895 3.4727 13.0977 C2.64 13.1029 1.8073 13.1081 0.9495 13.1135 C-1 13 -1 13 -2 12 C-2.0721 10.3139 -2.0839 8.625 -2.0625 6.9375 C-2.0535 6.0184 -2.0445 5.0993 -2.0352 4.1523 C-2.0236 3.4421 -2.012 2.7318 -2 2 C-1.34 2 -0.68 2 0 2 C0 1.34 0 0.68 0 0 Z " fill="#CEC0A0" transform="translate(505,177)"/>
<path d="M0 0 C3.63 0 7.26 0 11 0 C11 6.6 11 13.2 11 20 C7.37 20 3.74 20 0 20 C0 13.4 0 6.8 0 0 Z " fill="#CA9D40" transform="translate(1114,232)"/>
<path d="M0 0 C3.63 0 7.26 0 11 0 C11 6.6 11 13.2 11 20 C7.37 20 3.74 20 0 20 C0 13.4 0 6.8 0 0 Z " fill="#C7952C" transform="translate(463,224)"/>
<path d="M0 0 C1.32 0 2.64 0 4 0 C4 29.7 4 59.4 4 90 C1.03 90 -1.94 90 -5 90 C-5 87 -5 87 -2.625 84.3125 C0 82 0 82 2 82 C1.8926 71.6038 1.78 61.2076 1.6607 50.8115 C1.6054 45.9846 1.552 41.1576 1.5027 36.3306 C1.4551 31.6751 1.4027 27.0197 1.3471 22.3643 C1.3266 20.5853 1.3079 18.8062 1.2909 17.0271 C1.2669 14.5416 1.2368 12.0562 1.2053 9.5708 C1.1996 8.8299 1.1938 8.0891 1.1879 7.3257 C1.1141 2.2281 1.1141 2.2281 0 0 Z " fill="#EEEBE3" transform="translate(788,191)"/>
<path d="M0 0 C3.3 0 6.6 0 10 0 C10 5.94 10 11.88 10 18 C8.35 18.33 6.7 18.66 5 19 C5 20.98 5 22.96 5 25 C3.35 25 1.7 25 0 25 C0 16.75 0 8.5 0 0 Z " fill="#C8952C" transform="translate(463,260)"/>
<path d="M0 0 C1.98 0.66 3.96 1.32 6 2 C6 2.66 6 3.32 6 4 C4.68 4 3.36 4 2 4 C2.33 33.7 2.66 63.4 3 94 C3.99 94 4.98 94 6 94 C6 94.66 6 95.32 6 96 C5.01 96.33 5.01 96.33 0 98 C0 65.66 0 33.32 0 0 Z " fill="#353028" transform="translate(133,183)"/>
<path d="M0 0 C6.93 0 13.86 0 21 0 C21 2.97 21 5.94 21 9 C20 10 20 10 18.0505 10.1135 C17.2179 10.1083 16.3852 10.1031 15.5273 10.0977 C14.6282 10.0944 13.7291 10.0912 12.8027 10.0879 C11.8572 10.0795 10.9117 10.0711 9.9375 10.0625 C8.9881 10.058 8.0387 10.0535 7.0605 10.0488 C4.707 10.037 2.3535 10.0191 0 10 C0 6.7 0 3.4 0 0 Z " fill="#CC9E3E" transform="translate(642,180)"/>
<path d="M0 0 C0 31.68 0 63.36 0 96 C-0.66 96 -1.32 96 -2 96 C-2 65.31 -2 34.62 -2 3 C-3.32 3 -4.64 3 -6 3 C-6 2.34 -6 1.68 -6 1 C-3.9245 0.4465 -2.1563 0 0 0 Z " fill="#353028" transform="translate(1467,288)"/>
<path d="M0 0 C0.99 0.165 0.99 0.165 6 1 C6 1.66 6 2.32 6 3 C4.68 3 3.36 3 2 3 C2 33.69 2 64.38 2 96 C1.34 96 0.68 96 0 96 C0 64.32 0 32.64 0 0 Z " fill="#353028" transform="translate(133,288)"/>
<path d="M0 0 C6.6 0 13.2 0 20 0 C20 3.3 20 6.6 20 10 C13.4 10 6.8 10 0 10 C0 6.7 0 3.4 0 0 Z " fill="#CA9C3A" transform="translate(1042,274)"/>
<path d="M0 0 C6.6 0 13.2 0 20 0 C20 3.3 20 6.6 20 10 C13.4 10 6.8 10 0 10 C0 6.7 0 3.4 0 0 Z " fill="#CA9B37" transform="translate(588,274)"/>
<path d="M0 0 C6.6 0 13.2 0 20 0 C20 3.3 20 6.6 20 10 C13.4 10 6.8 10 0 10 C0 6.7 0 3.4 0 0 Z " fill="#CA9B37" transform="translate(518,274)"/>
<path d="M0 0 C6.6 0 13.2 0 20 0 C20 3.3 20 6.6 20 10 C13.4 10 6.8 10 0 10 C0 6.7 0 3.4 0 0 Z " fill="#CA9C3A" transform="translate(1062,180)"/>
<path d="M0 0 C6.6 0 13.2 0 20 0 C20 3.3 20 6.6 20 10 C13.4 10 6.8 10 0 10 C0 6.7 0 3.4 0 0 Z " fill="#CB9C3A" transform="translate(992,180)"/>
<path d="M0 0 C6.6 0 13.2 0 20 0 C20 3.3 20 6.6 20 10 C13.4 10 6.8 10 0 10 C0 6.7 0 3.4 0 0 Z " fill="#CB9C3B" transform="translate(922,180)"/>
<path d="M0 0 C6.6 0 13.2 0 20 0 C20 3.3 20 6.6 20 10 C13.4 10 6.8 10 0 10 C0 6.7 0 3.4 0 0 Z " fill="#C7942B" transform="translate(818,180)"/>
<path d="M0 0 C6.6 0 13.2 0 20 0 C20 3.3 20 6.6 20 10 C13.4 10 6.8 10 0 10 C0 6.7 0 3.4 0 0 Z " fill="#CA9A37" transform="translate(608,180)"/>
<path d="M0 0 C6.6 0 13.2 0 20 0 C20 3.3 20 6.6 20 10 C13.4 10 6.8 10 0 10 C0 6.7 0 3.4 0 0 Z " fill="#CA9A37" transform="translate(538,180)"/>
<path d="M0 0 C17.16 0 34.32 0 52 0 C52 0.66 52 1.32 52 2 C46.06 2 40.12 2 34 2 C34.165 3.815 34.165 3.815 35 13 C34.34 13 33.68 13 33 13 C33 11.02 33 9.04 33 7 C28.71 7 24.42 7 20 7 C20 8.98 20 10.96 20 13 C19.67 13 19.34 13 19 13 C19 9.37 19 5.74 19 2 C12.73 2 6.46 2 0 2 C0 1.34 0 0.68 0 0 Z " fill="#D1CABA" transform="translate(923,177)"/>
<path d="M0 0 C6.6 0 13.2 0 20 0 C20 2.97 20 5.94 20 9 C13.4 9 6.8 9 0 9 C0 6.03 0 3.06 0 0 Z " fill="#C99936" transform="translate(623,275)"/>
<path d="M0 0 C6.6 0 13.2 0 20 0 C20 2.97 20 5.94 20 9 C13.4 9 6.8 9 0 9 C0 6.03 0 3.06 0 0 Z " fill="#C99A37" transform="translate(1027,180)"/>
<path d="M0 0 C6.6 0 13.2 0 20 0 C20 2.97 20 5.94 20 9 C13.4 9 6.8 9 0 9 C0 6.03 0 3.06 0 0 Z " fill="#C99936" transform="translate(573,180)"/>
<path d="M0 0 C0.7992 0.0361 1.5984 0.0722 2.4219 0.1094 C3.0252 0.1558 3.6284 0.2022 4.25 0.25 C5.4463 4.0048 5.3702 7.5769 5.3635 11.4971 C5.3637 12.2194 5.3638 12.9418 5.364 13.686 C5.3633 16.0667 5.3555 18.4474 5.3477 20.8281 C5.3458 22.4815 5.3444 24.1349 5.3434 25.7883 C5.3396 30.1349 5.3297 34.4816 5.3187 38.8282 C5.3084 43.2657 5.3039 47.7032 5.2988 52.1406 C5.2881 60.8438 5.271 69.5469 5.25 78.25 C1.95 78.25 -1.35 78.25 -4.75 78.25 C-4.75 77.92 -4.75 77.59 -4.75 77.25 C-3.6156 76.9406 -2.4813 76.6313 -1.3125 76.3125 C2.25 75.25 2.25 75.25 3.25 74.25 C3.3548 72.1187 3.3886 69.9839 3.3953 67.8501 C3.3986 67.1818 3.402 66.5135 3.4054 65.8249 C3.415 63.6046 3.4169 61.3844 3.418 59.1641 C3.4212 57.6257 3.4245 56.0873 3.4281 54.5489 C3.4341 51.3191 3.4359 48.0892 3.4353 44.8594 C3.4352 40.7175 3.4488 36.5758 3.4661 32.434 C3.4772 29.2548 3.4792 26.0755 3.4787 22.8963 C3.4799 21.3692 3.4843 19.8422 3.492 18.3151 C3.5018 16.1795 3.499 14.0443 3.4929 11.9087 C3.4943 10.6926 3.4958 9.4765 3.4972 8.2235 C3.25 5.25 3.25 5.25 1.25 2.25 C-1.5026 1.8265 -3.0506 1.7738 -5.3831 3.362 C-7.406 6.1561 -7.1507 8.4087 -7.1824 11.8328 C-7.1926 12.4964 -7.2028 13.1601 -7.2133 13.8439 C-7.2434 16.0354 -7.2527 18.2264 -7.2617 20.418 C-7.2786 21.9383 -7.2967 23.4586 -7.3161 24.9788 C-7.3637 28.9786 -7.3934 32.9783 -7.4196 36.9782 C-7.4493 41.0605 -7.4959 45.1425 -7.541 49.2246 C-7.6271 57.233 -7.6944 65.2414 -7.75 73.25 C-8.08 73.25 -8.41 73.25 -8.75 73.25 C-8.8427 64.3227 -8.9138 55.3955 -8.9572 46.4678 C-8.9781 42.3223 -9.0064 38.1771 -9.0518 34.0317 C-9.0952 30.0311 -9.1191 26.0309 -9.1295 22.0301 C-9.1369 20.5038 -9.1513 18.9776 -9.1729 17.4514 C-9.202 15.3133 -9.206 13.1764 -9.2041 11.0381 C-9.213 9.8212 -9.2219 8.6043 -9.231 7.3505 C-8.3792 1.8602 -5.4147 -0.3185 0 0 Z " fill="#E2C484" transform="translate(514.75,192.75)"/>
<path d="M0 0 C6.27 0 12.54 0 19 0 C19.33 2.97 19.66 5.94 20 9 C13.4 9 6.8 9 0 9 C0 6.03 0 3.06 0 0 Z " fill="#C99935" transform="translate(868,275)"/>
<path d="M0 0 C6.27 0 12.54 0 19 0 C19 2.97 19 5.94 19 9 C12.4 9 5.8 9 -1 9 C-0.67 6.03 -0.34 3.06 0 0 Z " fill="#C99935" transform="translate(1078,275)"/>
<path d="M0 0 C6.27 0 12.54 0 19 0 C19 2.97 19 5.94 19 9 C12.4 9 5.8 9 -1 9 C-0.67 6.03 -0.34 3.06 0 0 Z " fill="#C89731" transform="translate(973,275)"/>
<path d="M0 0 C6.27 0 12.54 0 19 0 C19 2.97 19 5.94 19 9 C12.4 9 5.8 9 -1 9 C-0.67 6.03 -0.34 3.06 0 0 Z " fill="#C89832" transform="translate(903,275)"/>
<path d="M0 0 C6.27 0 12.54 0 19 0 C19.33 2.97 19.66 5.94 20 9 C13.4 9 6.8 9 0 9 C0 6.03 0 3.06 0 0 Z " fill="#C89833" transform="translate(798,275)"/>
<path d="M0 0 C2.97 0 5.94 0 9 0 C9 5.28 9 10.56 9 16 C5.04 16 1.08 16 -3 16 C-3 12.7 -3 9.4 -3 6 C-2.01 6 -1.02 6 0 6 C0 4.02 0 2.04 0 0 Z " fill="#C89732" transform="translate(1115,268)"/>
<path d="M0 0 C6.27 0 12.54 0 19 0 C19 2.97 19 5.94 19 9 C12.73 9 6.46 9 0 9 C0 6.03 0 3.06 0 0 Z " fill="#C89832" transform="translate(833,275)"/>
<path d="M0 0 C6.27 0 12.54 0 19 0 C19 2.97 19 5.94 19 9 C12.73 9 6.46 9 0 9 C0 6.03 0 3.06 0 0 Z " fill="#C89732" transform="translate(763,275)"/>
<path d="M0 0 C6.27 0 12.54 0 19 0 C19 2.97 19 5.94 19 9 C12.73 9 6.46 9 0 9 C0 6.03 0 3.06 0 0 Z " fill="#C89731" transform="translate(728,275)"/>
<path d="M0 0 C6.27 0 12.54 0 19 0 C19 2.97 19 5.94 19 9 C12.73 9 6.46 9 0 9 C0 6.03 0 3.06 0 0 Z " fill="#C89832" transform="translate(693,275)"/>
<path d="M0 0 C6.27 0 12.54 0 19 0 C19 2.97 19 5.94 19 9 C12.73 9 6.46 9 0 9 C0 6.03 0 3.06 0 0 Z " fill="#C89730" transform="translate(658,275)"/>
<path d="M0 0 C6.27 0 12.54 0 19 0 C19 2.97 19 5.94 19 9 C12.73 9 6.46 9 0 9 C0 6.03 0 3.06 0 0 Z " fill="#C99833" transform="translate(888,180)"/>
<path d="M0 0 C6.27 0 12.54 0 19 0 C19 2.97 19 5.94 19 9 C12.73 9 6.46 9 0 9 C0 6.03 0 3.06 0 0 Z " fill="#C89731" transform="translate(853,180)"/>
<path d="M0 0 C6.27 0 12.54 0 19 0 C19 2.97 19 5.94 19 9 C12.73 9 6.46 9 0 9 C0 6.03 0 3.06 0 0 Z " fill="#C89732" transform="translate(783,180)"/>
<path d="M0 0 C6.27 0 12.54 0 19 0 C19 2.97 19 5.94 19 9 C12.73 9 6.46 9 0 9 C0 6.03 0 3.06 0 0 Z " fill="#C89731" transform="translate(748,180)"/>
<path d="M0 0 C6.27 0 12.54 0 19 0 C19 2.97 19 5.94 19 9 C12.73 9 6.46 9 0 9 C0 6.03 0 3.06 0 0 Z " fill="#C89832" transform="translate(713,180)"/>
<path d="M0 0 C6.27 0 12.54 0 19 0 C19 2.97 19 5.94 19 9 C12.73 9 6.46 9 0 9 C0 6.03 0 3.06 0 0 Z " fill="#C89730" transform="translate(678,180)"/>
<path d="M0 0 C6.93 0 13.86 0 21 0 C21.0977 9.2773 21.0977 9.2773 21 12 C20 13 20 13 16.6736 13.1135 C15.1977 13.1134 13.7219 13.1077 12.2461 13.0977 C11.4706 13.0962 10.6952 13.0948 9.8963 13.0934 C7.41 13.0878 4.9238 13.0752 2.4375 13.0625 C0.7559 13.0575 -0.9258 13.0529 -2.6074 13.0488 C-6.7383 13.0378 -10.8691 13.0205 -15 13 C-14.34 11.35 -13.68 9.7 -13 8 C-8.71 8 -4.42 8 0 8 C0 5.36 0 2.72 0 0 Z M1 1 C1 3.97 1 6.94 1 10 C7.27 10 13.54 10 20 10 C20 7.03 20 4.06 20 1 C13.73 1 7.46 1 1 1 Z " fill="#D0C1A2" transform="translate(727,274)"/>
<path d="M0 0 C5.94 0 11.88 0 18 0 C18.33 2.97 18.66 5.94 19 9 C12.4 9 5.8 9 -1 9 C-0.67 6.03 -0.34 3.06 0 0 Z " fill="#C89833" transform="translate(1008,275)"/>
<path d="M0 0 C5.94 0 11.88 0 18 0 C18.33 2.97 18.66 5.94 19 9 C12.73 9 6.46 9 0 9 C0 6.03 0 3.06 0 0 Z " fill="#C89732" transform="translate(938,275)"/>
<path d="M0 0 C6.27 0 12.54 0 19 0 C18.67 2.97 18.34 5.94 18 9 C12.06 9 6.12 9 0 9 C0 6.03 0 3.06 0 0 Z " fill="#C89732" transform="translate(958,180)"/>
<path d="M0 0 C5.94 0 11.88 0 18 0 C18 2.97 18 5.94 18 9 C12.06 9 6.12 9 0 9 C0 6.03 0 3.06 0 0 Z " fill="#C89730" transform="translate(554,275)"/>
<path d="M0 0 C5.94 0 11.88 0 18 0 C18 2.97 18 5.94 18 9 C12.06 9 6.12 9 0 9 C0 6.03 0 3.06 0 0 Z " fill="#C89730" transform="translate(484,275)"/>
<path d="M0 0 C2.97 0 5.94 0 9 0 C9 5.94 9 11.88 9 18 C6.03 18 3.06 18 0 18 C0 12.06 0 6.12 0 0 Z " fill="#C89730" transform="translate(1115,198)"/>
<path d="M0 0 C5.94 0 11.88 0 18 0 C18 2.97 18 5.94 18 9 C12.06 9 6.12 9 0 9 C0 6.03 0 3.06 0 0 Z " fill="#C89730" transform="translate(504,180)"/>
<path d="M0 0 C5.94 0 11.88 0 18 0 C17.67 1.98 17.34 3.96 17 6 C12.38 6 7.76 6 3 6 C3 8.31 3 10.62 3 13 C-0.3125 13.0289 -3.6249 13.0468 -6.9375 13.0625 C-7.883 13.0709 -8.8286 13.0793 -9.8027 13.0879 C-10.2523 13.0895 -10.2523 13.0895 -12.5273 13.0977 C-13.36 13.1029 -14.1927 13.1081 -15.0505 13.1135 C-17 13 -17 13 -18 12 C-18.1426 8.6638 -18.0423 5.3402 -18 2 C-12.06 2 -6.12 2 0 2 C0 1.34 0 0.68 0 0 Z M-17 3 C-17 5.97 -17 8.94 -17 12 C-11.06 12 -5.12 12 1 12 C1.33 9.03 1.66 6.06 2 3 C-4.27 3 -10.54 3 -17 3 Z " fill="#D2C4A5" transform="translate(975,177)"/>
<path d="M0 0 C5.61 0 11.22 0 17 0 C17 2.64 17 5.28 17 8 C11.39 8 5.78 8 0 8 C0 5.36 0 2.72 0 0 Z " fill="#C8962D" transform="translate(1098,181)"/>
<path d="M0 0 C5.625 -0.25 5.625 -0.25 9 2 C9 3.32 9 4.64 9 6 C8.34 6 7.68 6 7 6 C7 6.66 7 7.32 7 8 C4.69 8 2.38 8 0 8 C0.0067 9.1835 0.0133 10.367 0.0202 11.5864 C0.0809 22.7255 0.1259 33.8647 0.1554 45.0039 C0.1711 50.7311 0.1924 56.4582 0.2263 62.1853 C0.2589 67.7096 0.2768 73.2337 0.2846 78.7581 C0.2902 80.8685 0.301 82.9789 0.3172 85.0892 C0.3389 88.0392 0.342 90.9887 0.3406 93.9387 C0.346 94.3775 0.346 94.3775 0.3733 96.5979 C0.3424 102.6069 0.3424 102.6069 -1.5225 104.748 C-2.0101 105.1611 -2.4977 105.5743 -3 106 C-2.8392 105.2001 -2.6785 104.4003 -2.5128 103.5761 C-1.8974 99.2849 -1.8241 95.1108 -1.7947 90.7817 C-1.7848 89.8738 -1.7749 88.9658 -1.7647 88.0303 C-1.7332 85.0437 -1.7084 82.057 -1.6836 79.0703 C-1.663 76.9938 -1.642 74.9173 -1.6206 72.8408 C-1.5655 67.3861 -1.5161 61.9315 -1.4678 56.4767 C-1.4175 50.9063 -1.3618 45.336 -1.3066 39.7656 C-1.1992 28.8438 -1.0977 17.9219 -1 7 C1.31 7 3.62 7 6 7 C6 5.35 6 3.7 6 2 C4.35 2 2.7 2 1 2 C0.67 1.34 0.34 0.68 0 0 Z " fill="#9E9A95" transform="translate(1459,280)"/>
<path d="M0 0 C17.16 0 34.32 0 52 0 C52 0.33 52 0.66 52 1 C45.73 1.33 39.46 1.66 33 2 C32.67 3.32 32.34 4.64 32 6 C27.71 6 23.42 6 19 6 C18.67 4.68 18.34 3.36 18 2 C12.06 1.67 6.12 1.34 0 1 C0 0.67 0 0.34 0 0 Z " fill="#CCC6B8" transform="translate(679,177)"/>
<path d="M0 0 C4.62 0 9.24 0 14 0 C14.66 2.31 15.32 4.62 16 7 C10.39 7 4.78 7 -1 7 C-0.67 4.69 -0.34 2.38 0 0 Z " fill="#D2CCBF" transform="translate(923,280)"/>
<path d="M0 0 C3.63 0 7.26 0 11 0 C11 6.6 11 13.2 11 20 C7.37 20 3.74 20 0 20 C0 13.4 0 6.8 0 0 Z M2 2 C2 7.61 2 13.22 2 19 C4.31 19 6.62 19 9 19 C9 13.39 9 7.78 9 2 C6.69 2 4.38 2 2 2 Z " fill="#D2AD60" transform="translate(463,224)"/>
<path d="M0 0 C7.26 0 14.52 0 22 0 C22 3.63 22 7.26 22 11 C19.3896 13.6104 17.4888 13.2885 13.9277 13.3223 C13.1472 13.319 12.3667 13.3158 11.5625 13.3125 C11.1742 13.3206 11.1742 13.3206 9.209 13.3613 C6.9414 13.3633 6.9414 13.3633 3 13 C2.01 12.01 1.02 11.02 0 10 C0 6.7 0 3.4 0 0 Z M1 1 C1 3.97 1 6.94 1 10 C7.6 10 14.2 10 21 10 C21 7.03 21 4.06 21 1 C14.4 1 7.8 1 1 1 Z " fill="#D3BF95" transform="translate(622,274)"/>
<path d="M0 0 C0.33 0 0.66 0 1 0 C1.33 4.29 1.66 8.58 2 13 C-3.61 13 -9.22 13 -15 13 C-14.34 11.02 -13.68 9.04 -13 7 C-8.71 7 -4.42 7 0 7 C0 4.69 0 2.38 0 0 Z " fill="#D1C9B9" transform="translate(657,274)"/>
<path d="M0 0 C5.61 0 11.22 0 17 0 C16.67 1.98 16.34 3.96 16 6 C11.38 6.33 6.76 6.66 2 7 C2 5.35 2 3.7 2 2 C1.34 2 0.68 2 0 2 C0 1.34 0 0.68 0 0 Z " fill="#CFC9BC" transform="translate(592,177)"/>
<path d="M0 0 C6.93 0 13.86 0 21 0 C20 10 20 10 19 11 C17.6573 11.0863 16.3103 11.1071 14.9648 11.0977 C14.156 11.0944 13.3471 11.0912 12.5137 11.0879 C11.6635 11.0795 10.8134 11.0711 9.9375 11.0625 C9.0835 11.058 8.2295 11.0535 7.3496 11.0488 C5.233 11.037 3.1165 11.0191 1 11 C-1.125 4.5 -1.125 4.5 0 0 Z M1 2 C1 4.64 1 7.28 1 10 C6.61 10 12.22 10 18 10 C18 7.36 18 4.72 18 2 C12.39 2 6.78 2 1 2 Z " fill="#D1B16E" transform="translate(1097,179)"/>
<path d="M0 0 C5.28 0 10.56 0 16 0 C16 1.98 16 3.96 16 6 C11.38 6 6.76 6 2 6 C1.34 4.02 0.68 2.04 0 0 Z " fill="#CFC9BB" transform="translate(836,177)"/>
<path d="M0 0 C4.29 0 8.58 0 13 0 C13.99 1.98 14.98 3.96 16 6 C10.39 6 4.78 6 -1 6 C-0.67 4.02 -0.34 2.04 0 0 Z " fill="#CFC9BD" transform="translate(539,281)"/>
<path d="M0 0 C3.3 0 6.6 0 10 0 C10 5.94 10 11.88 10 18 C9.67 18 9.34 18 9 18 C9 12.39 9 6.78 9 1 C6.69 1 4.38 1 2 1 C2 8.26 2 15.52 2 23 C2.66 23 3.32 23 4 23 C4.33 21.68 4.66 20.36 5 19 C5 20.98 5 22.96 5 25 C3.35 25 1.7 25 0 25 C0 16.75 0 8.5 0 0 Z " fill="#CCA656" transform="translate(463,260)"/>
<path d="M0 0 C6.6 0 13.2 0 20 0 C20 3.3 20 6.6 20 10 C13.4 10 6.8 10 0 10 C0 6.7 0 3.4 0 0 Z M1 1 C1 3.31 1 5.62 1 8 C6.61 8 12.22 8 18 8 C18 5.69 18 3.38 18 1 C12.39 1 6.78 1 1 1 Z " fill="#D1AB5A" transform="translate(818,180)"/>
<path d="M0 0 C1.65 0 3.3 0 5 0 C5 4.62 5 9.24 5 14 C3.35 14 1.7 14 0 14 C0 9.38 0 4.76 0 0 Z " fill="#CEC8BA" transform="translate(461,245)"/>
<path d="M0 0 C0.33 0 0.66 0 1 0 C1 2.97 1 5.94 1 9 C7.27 9 13.54 9 20 9 C19.67 9.99 19.34 10.98 19 12 C16.2081 12.0538 13.4172 12.0936 10.625 12.125 C9.8309 12.1418 9.0369 12.1585 8.2188 12.1758 C6.1451 12.1934 4.0712 12.1034 2 12 C0 10 0 10 -0.1953 7.6172 C-0.1721 6.7123 -0.1489 5.8073 -0.125 4.875 C-0.107 3.9649 -0.0889 3.0548 -0.0703 2.1172 C-0.0471 1.4185 -0.0239 0.7198 0 0 Z " fill="#CEBE9D" transform="translate(937,275)"/>
</svg>
