<?xml version="1.0" encoding="UTF-8"?>
<!-- Generator: visioncortex VTracer 0.6.12 -->
<svg version="1.1" xmlns="http://www.w3.org/2000/svg" width="1600" height="474">
<path d="M0 0 C528 0 1056 0 1600 0 C1600 156.42 1600 312.84 1600 474 C1072 474 544 474 0 474 C0 317.58 0 161.16 0 0 Z " fill="#FEFEFE" transform="translate(0,0)"/>
<path d="M0 0 C528 0 1056 0 1600 0 C1600 156.42 1600 312.84 1600 474 C1072 474 544 474 0 474 C0 317.58 0 161.16 0 0 Z M120.125 57 C116.8928 61.5631 115.7499 64.2268 115.7511 69.8718 C115.7465 71.0797 115.7419 72.2876 115.7372 73.5321 C115.7422 74.8742 115.7474 76.2163 115.7528 77.5584 C115.7512 78.9827 115.7487 80.4071 115.7454 81.8315 C115.739 85.7502 115.7451 89.6689 115.7532 93.5876 C115.7598 97.8119 115.7548 102.0362 115.7513 106.2605 C115.7463 114.5375 115.7519 122.8144 115.7612 131.0914 C115.7716 140.7239 115.7715 150.3565 115.771 159.989 C115.7705 177.1717 115.7797 194.3543 115.7942 211.5369 C115.8083 228.2224 115.8154 244.9079 115.8147 261.5935 C115.8147 262.6213 115.8146 263.649 115.8146 264.7079 C115.8145 265.7339 115.8145 266.7599 115.8145 267.8169 C115.8138 286.7957 115.8197 305.7745 115.8286 324.7532 C115.8316 331.473 115.8327 338.1927 115.8331 344.9125 C115.8338 353.097 115.8383 361.2816 115.8475 369.4661 C115.8521 373.6447 115.8551 377.8232 115.8539 382.0017 C115.8528 385.8228 115.8563 389.6439 115.8635 393.4651 C115.8653 394.8513 115.8655 396.2375 115.8638 397.6237 C115.8617 399.5004 115.8663 401.3772 115.8714 403.254 C115.8721 404.2988 115.8728 405.3435 115.8735 406.4199 C116 409 116 409 117 412 C117.66 412.33 118.32 412.66 119 413 C119.2269 413.4022 119.2269 413.4022 120.375 415.4375 C122.0787 418.1241 123.0865 418.8949 126 420 C126 420.66 126 421.32 126 422 C130.7188 424.4138 135.0378 424.2782 140.2067 424.2484 C141.1429 424.251 142.0792 424.2535 143.0438 424.2561 C146.2049 424.2623 149.3658 424.2541 152.5269 424.2461 C154.8163 424.2476 157.1057 424.2499 159.3951 424.2531 C165.7284 424.2593 172.0616 424.2529 178.3949 424.2445 C184.5608 424.2374 190.7267 424.2417 196.8925 424.2447 C209.6623 424.2506 222.432 424.2471 235.2017 424.2384 C248.1468 424.2297 261.0919 424.2253 274.0371 424.2262 C274.8539 424.2263 275.6708 424.2263 276.5124 424.2264 C280.6773 424.2267 284.8423 424.2271 289.0073 424.2275 C319.1735 424.2303 349.3397 424.2234 379.506 424.2115 C409.386 424.1996 439.2661 424.1919 469.1461 424.1898 C470.0736 424.1897 471.0011 424.1896 471.9567 424.1895 C480.4278 424.1889 488.8989 424.1883 497.3699 424.1878 C518.4294 424.1866 539.4888 424.1846 560.5482 424.1823 C561.5073 424.1822 562.4664 424.1821 563.4545 424.182 C610.1229 424.1767 656.7913 424.1641 703.4597 424.1509 C719.6574 424.1463 735.8551 424.1417 752.0529 424.1373 C752.5551 424.1372 752.5551 424.1372 755.097 424.1365 C801.7849 424.1238 848.4729 424.1164 895.1608 424.1103 C898.1914 424.1099 901.2219 424.1095 904.2524 424.1091 C924.3355 424.1064 944.4187 424.1039 964.5019 424.1014 C1004.4633 424.0964 1044.4248 424.091 1084.3863 424.0851 C1086.2894 424.0848 1088.1926 424.0845 1090.0957 424.0843 C1175.7849 424.0718 1261.4741 424.0531 1347.1633 424.0317 C1347.9658 424.0315 1348.7683 424.0313 1349.595 424.0311 C1389.73 424.0211 1429.865 424.0108 1470 424 C1470 423.34 1470 422.68 1470 422 C1470.5363 421.9381 1471.0725 421.8763 1471.625 421.8125 C1475.0459 420.6422 1477.6072 418.6603 1480 416 C1481.375 412.6875 1481.375 412.6875 1482 410 C1482.66 410 1483.32 410 1484 410 C1484.0457 365.9897 1484.081 321.9795 1484.1021 277.9692 C1484.1046 272.777 1484.1072 267.5848 1484.1099 262.3926 C1484.1104 261.3589 1484.1109 260.3252 1484.1115 259.2601 C1484.1202 242.5081 1484.1359 225.756 1484.1543 209.0039 C1484.173 191.8232 1484.1841 174.6425 1484.1882 157.4618 C1484.1909 146.8547 1484.1996 136.2477 1484.2158 125.6406 C1484.2264 118.3735 1484.2296 111.1064 1484.227 103.8393 C1484.2257 99.6424 1484.2277 95.4456 1484.2384 91.2487 C1484.2481 87.4095 1484.2487 83.5703 1484.2418 79.7311 C1484.2409 78.3393 1484.2435 76.9476 1484.2498 75.5559 C1484.2578 73.6692 1484.2523 71.7825 1484.2461 69.8958 C1484.2469 68.8463 1484.2476 67.7967 1484.2484 66.7154 C1483.9981 63.9787 1483.4081 62.3332 1482 60 C1481.34 60 1480.68 60 1480 60 C1479.7427 59.4061 1479.4855 58.8121 1479.2204 58.2002 C1477.0774 54.3367 1473.8421 52.0814 1470 50 C1466.7841 49.2042 1463.7312 49.1943 1460.4299 49.2502 C1459.4908 49.242 1458.5518 49.2339 1457.5842 49.2255 C1454.431 49.2054 1451.2795 49.2281 1448.1263 49.2505 C1445.8358 49.2449 1443.5454 49.2366 1441.2549 49.2259 C1434.9324 49.2041 1428.6104 49.2199 1422.2879 49.2416 C1416.1283 49.2598 1409.9688 49.2438 1403.8092 49.2315 C1391.0555 49.2072 1378.302 49.2113 1365.5483 49.2309 C1352.6222 49.2507 1339.6961 49.2574 1326.77 49.2482 C1325.9538 49.2476 1325.1377 49.247 1324.2968 49.2464 C1320.9729 49.2441 1317.6489 49.2416 1314.325 49.239 C1283.3571 49.2148 1252.3892 49.2199 1221.4213 49.2434 C1191.5745 49.266 1161.7277 49.2779 1131.8808 49.275 C1130.0074 49.2748 1128.1341 49.2746 1126.2608 49.2745 C1118.7329 49.2738 1111.205 49.273 1103.6771 49.2721 C1082.6326 49.2698 1061.5881 49.2694 1040.5436 49.2705 C1040.0644 49.2706 1040.0644 49.2706 1037.6394 49.2707 C1007.0948 49.2725 976.5503 49.2831 946.0057 49.3 C945.0148 49.3005 944.0239 49.3011 943.003 49.3016 C926.9107 49.3105 910.8184 49.32 894.7261 49.3294 C830.8996 49.3669 767.0731 49.3797 703.2466 49.3687 C699.2133 49.368 695.18 49.3673 691.1467 49.3666 C690.1495 49.3664 689.1523 49.3662 688.1248 49.3661 C677.0813 49.3642 666.0378 49.3623 654.9943 49.3606 C654.004 49.3604 653.0137 49.3603 651.9934 49.3601 C598.5497 49.3517 545.1061 49.3623 491.6625 49.3796 C489.7787 49.3802 487.895 49.3808 486.0112 49.3814 C485.0801 49.3817 484.1489 49.382 483.1894 49.3823 C481.3108 49.383 479.4321 49.3836 477.5534 49.3842 C472.873 49.3857 468.1926 49.3872 463.5122 49.3887 C442.985 49.3954 422.4579 49.3995 401.9308 49.3968 C401.468 49.3968 401.468 49.3968 399.1262 49.3965 C394.4661 49.3958 389.806 49.3952 385.1459 49.3945 C351.4874 49.3896 317.829 49.3977 284.1706 49.4289 C280.8571 49.4319 277.5435 49.4349 274.23 49.4378 C273.8234 49.4382 273.8234 49.4382 271.7658 49.44 C258.8726 49.4511 245.9796 49.4488 233.0864 49.441 C220.4185 49.4336 207.7506 49.4405 195.0827 49.4627 C188.3021 49.4742 181.5217 49.4789 174.7411 49.4664 C168.5793 49.4552 162.4177 49.4621 156.2558 49.484 C154.0343 49.4886 151.8127 49.4865 149.5912 49.4769 C146.5838 49.465 143.5774 49.4775 140.5701 49.4963 C139.7084 49.487 138.8466 49.4776 137.9588 49.468 C130.8269 49.5569 124.8963 51.4977 120.125 57 Z " fill="#FEFEFE" transform="translate(0,0)"/>
<path d="M0 0 C78.21 0 156.42 0 237 0 C237 51.81 237 103.62 237 157 C177.8575 157.0403 177.8575 157.0403 153.1582 157.0488 C147.5138 157.0508 141.8693 157.0528 136.2249 157.0549 C135.5174 157.0552 134.8099 157.0555 134.081 157.0557 C122.6443 157.0601 111.2077 157.068 99.7711 157.0772 C88.0427 157.0865 76.3143 157.0921 64.5859 157.0941 C57.9946 157.0954 51.4033 157.0985 44.812 157.1057 C38.6159 157.1125 32.4199 157.1146 26.2238 157.1131 C23.9425 157.1134 21.6611 157.1154 19.3798 157.1192 C16.2798 157.1241 13.1798 157.123 10.0797 157.1203 C9.1644 157.1232 8.249 157.1261 7.3059 157.1291 C1.1141 157.1141 1.1141 157.1141 0 156 C-0.0967 153.9877 -0.1219 151.972 -0.1203 149.9574 C-0.1216 148.6461 -0.123 147.3349 -0.1244 145.9839 C-0.1209 144.5113 -0.1172 143.0388 -0.1135 141.5662 C-0.1132 140.0041 -0.1134 138.4421 -0.1139 136.88 C-0.1141 132.6825 -0.1083 128.4849 -0.1013 124.2874 C-0.0956 120.3541 -0.0953 116.4208 -0.0946 112.4874 C-0.0893 100.9708 -0.0754 89.4541 -0.0625 77.9375 C-0.0419 52.2181 -0.0213 26.4988 0 0 Z " fill="#D6CFC1" transform="translate(517,126)"/>
<path d="M0 0 C0.4676 -0.0017 0.4676 -0.0017 2.8337 -0.0104 C5.991 -0.0195 9.1481 -0.0143 12.3054 -0.0092 C14.5921 -0.0128 16.8788 -0.0173 19.1654 -0.0225 C25.4912 -0.0346 31.817 -0.034 38.1428 -0.0315 C44.3015 -0.03 50.4601 -0.0398 56.6188 -0.0484 C69.374 -0.0658 82.1291 -0.0736 94.8842 -0.0762 C107.8149 -0.0788 120.7455 -0.0857 133.6761 -0.0978 C134.492 -0.0986 135.308 -0.0993 136.1487 -0.1001 C139.4718 -0.1032 142.7949 -0.1064 146.118 -0.1095 C185.4808 -0.1469 224.8435 -0.1643 264.2063 -0.1778 C283.8016 -0.1846 303.3968 -0.1937 322.9921 -0.2032 C385.8273 -0.2335 448.6626 -0.2593 511.4978 -0.27 C516.5072 -0.2708 521.5167 -0.2717 526.5261 -0.2726 C528.5342 -0.2729 530.5424 -0.2733 532.5505 -0.2736 C541.6141 -0.2752 550.6777 -0.2768 559.7413 -0.2784 C561.76 -0.2788 563.7787 -0.2791 565.7973 -0.2795 C630.6461 -0.2908 695.4948 -0.3283 760.3436 -0.3841 C806.9354 -0.4242 853.5273 -0.4612 900.1191 -0.4728 C900.598 -0.473 900.598 -0.473 903.0216 -0.4736 C924.0463 -0.4788 945.0709 -0.482 966.0956 -0.4833 C973.6183 -0.4838 981.141 -0.4845 988.6637 -0.4853 C990.5352 -0.4855 992.4067 -0.4857 994.2782 -0.4858 C1024.1202 -0.4888 1053.9622 -0.513 1083.8042 -0.5481 C1113.8547 -0.5832 1143.9051 -0.5962 1173.9556 -0.5786 C1178.1056 -0.5761 1182.2556 -0.5739 1186.4056 -0.5719 C1187.2192 -0.5715 1188.0327 -0.5711 1188.8709 -0.5706 C1201.7666 -0.5648 1214.6621 -0.5825 1227.5577 -0.6099 C1240.23 -0.6364 1252.902 -0.6381 1265.5742 -0.613 C1272.3565 -0.6003 1279.1383 -0.5996 1285.9206 -0.6291 C1292.0854 -0.6557 1298.2492 -0.6503 1304.4139 -0.619 C1306.6354 -0.6134 1308.8568 -0.6196 1311.0782 -0.6389 C1331.0607 -0.8008 1331.0607 -0.8008 1337.5109 5.4627 C1338.8037 7.2565 1338.8037 7.2565 1339.8037 10.2565 C1340.4637 10.2565 1341.1237 10.2565 1341.8037 10.2565 C1343.8457 13.6402 1344.0526 16.2306 1344.0498 20.1523 C1344.0537 21.3655 1344.0577 22.5787 1344.0618 23.8287 C1344.0561 25.1768 1344.0502 26.5249 1344.0442 27.873 C1344.045 29.3036 1344.0468 30.7342 1344.0493 32.1649 C1344.0538 36.1008 1344.0458 40.0367 1344.0358 43.9726 C1344.0272 48.2152 1344.0301 52.4579 1344.0316 56.7005 C1344.0326 64.0527 1344.0264 71.4049 1344.0151 78.7572 C1343.9989 89.3873 1343.9937 100.0174 1343.9911 110.6475 C1343.9868 127.8935 1343.9734 145.1394 1343.9545 162.3854 C1343.9362 179.1399 1343.922 195.8945 1343.9135 212.649 C1343.913 213.6815 1343.9125 214.7139 1343.9119 215.7777 C1343.9093 220.9571 1343.9068 226.1365 1343.9043 231.3159 C1343.8836 274.2961 1343.8483 317.2763 1343.8037 360.2565 C1343.1437 360.2565 1342.4837 360.2565 1341.8037 360.2565 C1341.618 361.1227 1341.4324 361.989 1341.2412 362.8815 C1339.408 367.1854 1336.7565 369.7738 1332.8037 372.2565 C1331.8137 372.2565 1330.8237 372.2565 1329.8037 372.2565 C1329.8037 372.9165 1329.8037 373.5765 1329.8037 374.2565 C1288.8581 374.2674 1247.9125 374.278 1206.967 374.2882 C1206.1658 374.2884 1205.3646 374.2886 1204.5391 374.2888 C1118.7084 374.3102 1032.8777 374.3286 947.047 374.3411 C945.141 374.3414 943.235 374.3417 941.329 374.342 C901.3235 374.3478 861.318 374.3533 821.3125 374.3582 C801.2171 374.3607 781.1218 374.3633 761.0264 374.3659 C757.995 374.3663 754.9637 374.3667 751.9323 374.3671 C705.2404 374.3732 658.5485 374.3811 611.8565 374.3938 C611.3544 374.3939 611.3544 374.3939 608.8131 374.3946 C592.6201 374.399 576.427 374.4036 560.2339 374.4082 C513.6066 374.4214 466.9792 374.4335 420.3519 374.4387 C419.3935 374.4388 418.4352 374.4389 417.4477 374.4391 C396.4119 374.4414 375.376 374.4432 354.3401 374.4445 C345.8767 374.445 337.4132 374.4456 328.9497 374.4462 C328.4866 374.4462 328.4866 374.4462 326.1428 374.4464 C296.2716 374.4486 266.4005 374.4572 236.5293 374.469 C206.4516 374.4809 176.374 374.4867 146.2964 374.4837 C142.1445 374.4833 137.9926 374.483 133.8407 374.4827 C133.0268 374.4826 132.2129 374.4825 131.3743 374.4825 C118.4613 374.4817 105.5483 374.4877 92.6353 374.4965 C79.9527 374.5049 67.2701 374.5063 54.5874 374.5001 C47.7968 374.497 41.0062 374.4973 34.2156 374.5062 C28.048 374.5143 21.8806 374.5132 15.713 374.5047 C13.486 374.5033 11.259 374.5053 9.032 374.5109 C6.0247 374.5181 3.0176 374.5131 0.0104 374.5048 C-0.8598 374.5099 -1.73 374.5149 -2.6266 374.5201 C-6.9374 374.4947 -10.2684 374.2657 -14.1963 372.2565 C-14.1963 371.5965 -14.1963 370.9365 -14.1963 370.2565 C-14.4954 370.143 -14.4954 370.143 -16.0088 369.569 C-18.7619 367.9171 -19.6386 366.0179 -21.1963 363.2565 C-21.8563 362.9265 -22.5163 362.5965 -23.1963 362.2565 C-24.2525 359.088 -24.3259 356.8499 -24.3334 353.5217 C-24.3384 352.3189 -24.3435 351.116 -24.3487 349.8768 C-24.3493 348.5352 -24.3498 347.1936 -24.3502 345.852 C-24.3543 344.432 -24.3587 343.0121 -24.3635 341.5922 C-24.3755 337.6808 -24.3811 333.7695 -24.3857 329.8582 C-24.3917 325.6433 -24.4033 321.4285 -24.414 317.2136 C-24.4385 307.0301 -24.4531 296.8466 -24.4661 286.663 C-24.4698 283.7873 -24.4737 280.9117 -24.4778 278.036 C-24.503 260.1831 -24.5251 242.3302 -24.5375 224.4773 C-24.5405 220.3414 -24.5434 216.2056 -24.5464 212.0697 C-24.5472 211.0417 -24.5479 210.0137 -24.5487 208.9546 C-24.5614 192.2992 -24.5946 175.6438 -24.6362 158.9884 C-24.6787 141.8934 -24.7022 124.7985 -24.7075 107.7035 C-24.7109 98.1033 -24.7226 88.5033 -24.7556 78.9032 C-24.7835 70.7279 -24.7946 62.5527 -24.7834 54.3773 C-24.7782 50.2061 -24.7811 46.0354 -24.8058 41.8642 C-24.8283 38.0438 -24.8276 34.2241 -24.8086 30.4037 C-24.8045 28.3707 -24.825 26.3377 -24.8464 24.3048 C-24.7829 16.9964 -24.1407 11.8462 -19.1963 6.2565 C-13.231 0.5894 -7.8787 -0.038 0 0 Z M-12.1963 13.2565 C-13.318 16.6214 -13.3194 19.1441 -13.3166 22.6914 C-13.3175 23.3474 -13.3183 24.0033 -13.3192 24.6791 C-13.3208 26.8809 -13.3153 29.0827 -13.3099 31.2845 C-13.3096 32.8613 -13.3097 34.4381 -13.3103 36.0149 C-13.3106 40.2997 -13.3047 44.5845 -13.2977 48.8693 C-13.2915 53.3456 -13.2909 57.8219 -13.2897 62.2983 C-13.2866 70.7768 -13.2784 79.2552 -13.2684 87.7337 C-13.2572 97.3854 -13.2517 107.037 -13.2467 116.6886 C-13.2362 136.5446 -13.2184 156.4005 -13.1963 176.2565 C-6.9263 176.5865 -0.6563 176.9165 5.8037 177.2565 C6.1337 178.0815 6.1337 178.0815 7.8037 182.2565 C7.1437 182.2565 6.4837 182.2565 5.8037 182.2565 C5.8037 182.9165 5.8037 183.5765 5.8037 184.2565 C-0.4663 184.2565 -6.7363 184.2565 -13.1963 184.2565 C-13.2658 206.7265 -13.3193 229.1965 -13.3518 251.6666 C-13.3673 262.0997 -13.3884 272.5327 -13.4227 282.9657 C-13.4525 292.0582 -13.4719 301.1507 -13.4786 310.2433 C-13.4825 315.0586 -13.4917 319.8737 -13.5135 324.6889 C-13.5339 329.2205 -13.5402 333.7519 -13.5357 338.2835 C-13.5365 339.9471 -13.5425 341.6108 -13.554 343.2745 C-13.5689 345.5457 -13.5653 347.8162 -13.5571 350.0874 C-13.5599 351.3586 -13.5626 352.6297 -13.5655 353.9394 C-13.1683 357.5084 -12.3961 359.4397 -10.1963 362.2565 C-9.5363 362.2565 -8.8763 362.2565 -8.1963 362.2565 C-8.1963 362.9165 -8.1963 363.5765 -8.1963 364.2565 C50.4076 364.2907 109.0116 364.3225 167.6156 364.3411 C168.4823 364.3414 169.349 364.3417 170.242 364.342 C189.0759 364.348 207.9097 364.3535 226.7436 364.3586 C235.9791 364.3611 245.2146 364.3637 254.4501 364.3663 C255.3692 364.3666 256.2883 364.3668 257.2352 364.3671 C287.0498 364.3756 316.8645 364.3907 346.6791 364.409 C377.3056 364.4279 407.932 364.4402 438.5585 364.4443 C442.8797 364.4449 447.2008 364.4455 451.522 364.4462 C452.3725 364.4463 453.223 364.4465 454.0992 364.4466 C467.8158 364.449 481.5323 364.4583 495.2488 364.4701 C509.0229 364.4819 522.797 364.4864 536.5711 364.4835 C544.7646 364.4819 552.9581 364.486 561.1516 364.498 C567.2545 364.5064 573.3573 364.5044 579.4602 364.4982 C581.9407 364.4974 584.4212 364.5 586.9017 364.5062 C590.2522 364.5141 593.6024 364.51 596.9529 364.5025 C597.9343 364.5078 598.9157 364.5131 599.9269 364.5185 C600.8129 364.514 601.699 364.5095 602.6119 364.5048 C603.379 364.5052 604.1461 364.5055 604.9364 364.5058 C606.8037 364.2565 606.8037 364.2565 608.8037 362.2565 C612.3394 362.7922 612.3394 362.7922 613.8037 364.2565 C615.3645 364.3553 616.9299 364.384 618.4939 364.3853 C619.5169 364.3885 620.5399 364.3918 621.5939 364.3952 C622.7337 364.3937 623.8735 364.3922 625.0479 364.3907 C626.2514 364.393 627.4549 364.3954 628.6948 364.3978 C632.0654 364.4033 635.436 364.4044 638.8066 364.4035 C642.4622 364.4037 646.1178 364.4096 649.7733 364.4148 C657.0373 364.4241 664.3013 364.428 671.5653 364.4303 C680.2604 364.4332 688.9556 364.4419 697.6507 364.4507 C718.6705 364.4716 739.6902 364.482 760.71 364.4908 C770.6479 364.495 780.5857 364.5003 790.5236 364.5055 C824.5216 364.5234 858.5197 364.5384 892.5177 364.5458 C894.6532 364.5463 896.7886 364.5468 898.9241 364.5473 C899.9831 364.5475 901.0422 364.5477 902.1333 364.548 C907.4992 364.5492 912.865 364.5504 918.2309 364.5516 C919.2958 364.5519 920.3607 364.5521 921.4578 364.5523 C955.998 364.5602 990.5381 364.5837 1025.0783 364.6162 C1061.57 364.6504 1098.0617 364.6702 1134.5534 364.6735 C1138.5564 364.6739 1142.5594 364.6744 1146.5624 364.6749 C1147.5481 364.675 1148.5338 364.6751 1149.5494 364.6753 C1165.4383 364.6776 1181.3272 364.6933 1197.216 364.7137 C1213.1756 364.734 1229.1351 364.7395 1245.0947 364.73 C1254.5852 364.7247 1264.0755 364.7307 1273.566 364.7525 C1279.8984 364.766 1286.2307 364.765 1292.5632 364.7521 C1296.1759 364.7452 1299.7884 364.7447 1303.4011 364.7617 C1307.2862 364.7798 1311.1709 364.7672 1315.056 364.7514 C1315.6213 364.7565 1315.6213 364.7565 1318.4817 364.7824 C1325.9989 364.7151 1325.9989 364.7151 1330.0379 362.413 C1331.8037 360.2565 1331.8037 360.2565 1331.8037 357.2565 C1332.4637 357.2565 1333.1237 357.2565 1333.8037 357.2565 C1333.8037 244.7265 1333.8037 132.1965 1333.8037 16.2565 C1333.1437 16.2565 1332.4837 16.2565 1331.8037 16.2565 C1331.5355 15.6377 1331.2674 15.019 1330.9912 14.3815 C1329.8037 12.2565 1329.8037 12.2565 1326.8037 10.2565 C1324.554 10.0071 1324.554 10.0071 1321.8593 10.0081 C1321.3449 10.0058 1321.3449 10.0058 1318.7418 9.9944 C1317.6058 9.9997 1316.4698 10.0049 1315.2993 10.0104 C1314.6957 10.0092 1314.6957 10.0092 1311.6409 10.0034 C1308.2689 9.999 1304.8972 10.0036 1301.5252 10.0119 C1297.8648 10.0188 1294.2044 10.014 1290.5439 10.0108 C1284.1217 10.0066 1277.6996 10.0099 1271.2774 10.018 C1261.7277 10.0301 1252.1781 10.0307 1242.6285 10.029 C1226.5662 10.0263 1210.504 10.033 1194.4418 10.045 C1178.5323 10.0568 1162.6228 10.0645 1146.7133 10.0667 C1145.725 10.0668 1144.7367 10.067 1143.7185 10.0671 C1138.6999 10.0678 1133.6813 10.0684 1128.6627 10.069 C1093.0921 10.0732 1057.5215 10.0867 1021.9509 10.1056 C987.389 10.1239 952.8272 10.1381 918.2653 10.1466 C917.2005 10.1469 916.1356 10.1471 915.0385 10.1474 C904.3449 10.15 893.6513 10.1526 882.9577 10.1551 C861.1726 10.1601 839.3874 10.1658 817.6023 10.1718 C817.1014 10.1719 817.1014 10.1719 814.5668 10.1726 C747.6458 10.191 680.7247 10.2227 613.8037 10.2565 C613.4737 16.5265 613.1437 22.7965 612.8037 29.2565 C611.9787 29.4215 611.9787 29.4215 607.8037 30.2565 C606.2542 28.7069 606.5871 27.1565 606.4873 25.0025 C606.4454 24.1485 606.4035 23.2945 606.3603 22.4147 C606.321 21.5168 606.2817 20.619 606.2412 19.694 C606.2196 19.2431 606.2196 19.2431 606.1103 16.9615 C606.0039 14.7267 605.9019 12.4917 605.8037 10.2565 C547.3233 10.2051 488.8429 10.1574 430.3624 10.1294 C429.4974 10.129 428.6324 10.1286 427.7411 10.1282 C408.9434 10.1192 390.1457 10.1109 371.348 10.1033 C362.1301 10.0995 352.9122 10.0956 343.6943 10.0917 C342.777 10.0913 341.8597 10.0909 340.9146 10.0905 C311.1624 10.0777 281.4102 10.0551 251.6581 10.0276 C221.0932 9.9993 190.5283 9.9808 159.9634 9.9747 C155.6499 9.9738 151.3364 9.9729 147.0229 9.9718 C146.1739 9.9716 145.3249 9.9714 144.4502 9.9712 C130.7639 9.9677 117.0775 9.9537 103.3912 9.936 C89.6439 9.9183 75.8967 9.9115 62.1494 9.9159 C53.974 9.9182 45.7988 9.9121 37.6234 9.8941 C31.5305 9.8815 25.4378 9.8845 19.3449 9.8938 C16.8711 9.895 14.3972 9.8912 11.9235 9.8818 C8.5771 9.8699 5.2313 9.8762 1.8849 9.8873 C1.3976 9.8834 1.3976 9.8834 -1.0683 9.8634 C-1.9574 9.8702 -2.8465 9.8769 -3.7626 9.8839 C-4.5281 9.8834 -5.2937 9.8829 -6.0824 9.8824 C-8.8123 10.3654 -10.1814 11.3782 -12.1963 13.2565 Z " fill="#3B362F" transform="translate(140.19634366035461,49.74354833364487)"/>
<path d="M0 0 C1.1124 3.5697 1.1084 6.8681 1.0823 10.5932 C1.0807 10.9236 1.0807 10.9236 1.0725 12.5958 C1.0604 14.8084 1.0411 17.0209 1.0217 19.2334 C1.0116 20.8202 1.0019 22.4069 0.9926 23.9937 C0.9662 28.3012 0.9334 32.6087 0.8995 36.9162 C0.8651 41.4178 0.8365 45.9195 0.8074 50.4212 C0.7512 58.9457 0.6899 67.4702 0.6266 75.9947 C0.5549 85.6995 0.489 95.4044 0.4236 105.1093 C0.2889 125.0729 0.1468 145.0365 0 165 C2.31 165 4.62 165 7 165 C7 112.53 7 60.06 7 6 C7.66 6 8.32 6 9 6 C9 58.8 9 111.6 9 166 C15.27 166 21.54 166 28 166 C30 168 30 168 30 172 C29.34 172 28.68 172 28 172 C28 172.66 28 173.32 28 174 C21.73 174 15.46 174 9 174 C9.0843 196.4874 9.1789 218.9747 9.2875 241.4619 C9.3377 251.9028 9.3841 262.3437 9.4219 272.7847 C9.4548 281.8835 9.4946 290.9822 9.5428 300.0809 C9.5681 304.9 9.5898 309.7191 9.6033 314.5382 C9.6162 319.0722 9.6382 323.6061 9.6674 328.1401 C9.6765 329.8058 9.6822 331.4715 9.6842 333.1372 C9.6875 335.4087 9.703 337.6798 9.7215 339.9512 C9.7271 341.2233 9.7326 342.4954 9.7383 343.806 C9.9854 346.8217 10.3095 348.5244 12 351 C12.66 351.33 13.32 351.66 14 352 C14 352.66 14 353.32 14 354 C72.604 353.9389 131.208 353.8754 189.8119 353.7987 C190.6786 353.7975 191.5453 353.7964 192.4383 353.7952 C211.2722 353.7706 230.1061 353.7455 248.94 353.7199 C258.1755 353.7074 267.411 353.695 276.6465 353.6826 C277.5656 353.6814 278.4846 353.6802 279.4315 353.6789 C309.2462 353.6389 339.0608 353.6054 368.8754 353.5753 C399.5019 353.5443 430.1284 353.5068 460.7549 353.4611 C465.076 353.4546 469.3972 353.4483 473.7183 353.4419 C474.1436 353.4413 474.1436 353.4413 476.2956 353.4382 C490.0121 353.4182 503.7286 353.4052 517.4451 353.3947 C531.2192 353.384 544.9933 353.3662 558.7674 353.3408 C566.9609 353.326 575.1544 353.3168 583.348 353.3154 C589.4509 353.3138 595.5537 353.3019 601.6565 353.2859 C604.137 353.281 606.6175 353.2795 609.098 353.2817 C612.4485 353.2842 615.7988 353.2746 619.1492 353.2617 C620.1306 353.2654 621.1121 353.269 622.1232 353.2728 C622.5662 353.2698 622.5662 353.2698 624.8082 353.2548 C625.5753 353.2539 626.3424 353.2529 627.1328 353.252 C629 353 629 353 631 351 C634.5357 351.5357 634.5357 351.5357 636 353 C637.5613 353.0974 639.127 353.1245 640.6914 353.1242 C641.7146 353.1264 642.7379 353.1287 643.7921 353.131 C644.9323 353.1284 646.0724 353.1258 647.2471 353.123 C647.8489 353.1236 647.8489 353.1236 650.8948 353.1265 C654.2663 353.1288 657.6377 353.1264 661.0091 353.1223 C664.6656 353.1188 668.3221 353.1212 671.9786 353.1228 C678.3971 353.1249 684.8155 353.1233 691.234 353.1192 C700.7784 353.1132 710.3228 353.1129 719.8672 353.1137 C735.9209 353.1151 751.9745 353.1117 768.0282 353.1057 C783.9337 353.0998 799.8393 353.096 815.7449 353.0949 C816.7327 353.0948 817.7205 353.0947 818.7383 353.0947 C823.7547 353.0943 828.7711 353.094 833.7875 353.0937 C869.3524 353.0916 904.9173 353.0849 940.4822 353.0754 C975.0304 353.0663 1009.5785 353.0592 1044.1267 353.0549 C1044.6587 353.0549 1044.6587 353.0549 1047.3509 353.0545 C1058.0362 353.0532 1068.7214 353.0519 1079.4066 353.0507 C1101.1855 353.0482 1122.9644 353.0453 1144.7432 353.0423 C1145.2441 353.0423 1145.2441 353.0423 1147.7787 353.0419 C1208.4615 353.0336 1269.1442 353.0197 1329.8269 353.0047 C1331.1098 353.0043 1332.3927 353.004 1333.7144 353.0037 C1336.0793 353.0031 1338.4442 353.0025 1340.8091 353.0019 C1341.8398 353.0017 1342.8706 353.0014 1343.9326 353.0012 C1344.8214 353.0009 1345.7103 353.0007 1346.6261 353.0005 C1348.7507 353 1350.8754 353 1353 353 C1351.3165 355.0887 1350.4373 355.9279 1347.7477 356.3714 C1346.8572 356.3697 1345.9667 356.368 1345.0492 356.3662 C1344.019 356.3715 1342.9888 356.3768 1341.9274 356.3823 C1340.7898 356.3728 1339.6521 356.3633 1338.4801 356.3535 C1337.2711 356.3553 1336.0621 356.3571 1334.8165 356.3589 C1331.4397 356.3608 1328.0634 356.3491 1324.6866 356.3319 C1321.0211 356.3164 1317.3555 356.3184 1313.6899 356.3182 C1307.2587 356.3154 1300.8276 356.3015 1294.3963 356.2802 C1284.8333 356.2488 1275.2703 356.2344 1265.7072 356.2237 C1249.6224 356.2051 1233.5377 356.1725 1217.4529 356.132 C1201.5211 356.0919 1185.5893 356.058 1169.6574 356.0324 C1169.1626 356.0317 1169.1626 356.0317 1166.6585 356.0276 C1161.6328 356.0196 1156.6072 356.0116 1151.5815 356.0037 C1115.961 355.9475 1080.3405 355.8774 1044.72 355.7991 C1010.1096 355.723 975.4993 355.6533 940.8889 355.592 C939.8226 355.5902 938.7562 355.5883 937.6575 355.5863 C926.9489 355.5674 916.2403 355.5485 905.5318 355.5298 C883.716 355.4916 861.9003 355.4526 840.0846 355.413 C839.0815 355.4112 838.0784 355.4094 837.0449 355.4075 C770.0299 355.286 703.015 355.1446 636 355 C636 357.31 636 359.62 636 362 C872.28 362.33 1108.56 362.66 1352 363 C1352 363.33 1352 363.66 1352 364 C1311.0544 364.011 1270.1089 364.0215 1229.1633 364.0317 C1228.3621 364.0319 1227.5609 364.0321 1226.7354 364.0323 C1140.9047 364.0537 1055.074 364.0722 969.2433 364.0847 C967.3373 364.085 965.4313 364.0852 963.5253 364.0855 C923.5198 364.0914 883.5143 364.0968 843.5088 364.1018 C823.4135 364.1043 803.3181 364.1068 783.2227 364.1095 C780.1914 364.1099 777.16 364.1103 774.1287 364.1107 C727.4367 364.1168 680.7448 364.1246 634.0529 364.1373 C633.5507 364.1375 633.5507 364.1375 631.0095 364.1382 C614.8164 364.1426 598.6233 364.1472 582.4303 364.1517 C535.8029 364.1649 489.1756 364.1771 442.5482 364.1823 C441.5899 364.1824 440.6315 364.1825 439.6441 364.1826 C418.6082 364.1849 397.5724 364.1867 376.5365 364.188 C368.073 364.1885 359.6096 364.1891 351.1461 364.1898 C350.6829 364.1898 350.6829 364.1898 348.3391 364.19 C318.468 364.1922 288.5968 364.2007 258.7256 364.2126 C228.648 364.2245 198.5703 364.2302 168.4927 364.2272 C164.3408 364.2268 160.1889 364.2265 156.0371 364.2262 C155.2232 364.2262 154.4092 364.2261 153.5706 364.226 C140.6576 364.2253 127.7447 364.2313 114.8317 364.24 C102.149 364.2485 89.4664 364.2499 76.7838 364.2437 C69.9931 364.2405 63.2026 364.2408 56.4119 364.2498 C50.2444 364.2578 44.0769 364.2568 37.9094 364.2483 C35.6823 364.2468 33.4553 364.2488 31.2283 364.2545 C28.221 364.2616 25.214 364.2566 22.2067 364.2484 C21.3365 364.2534 20.4663 364.2584 19.5697 364.2636 C15.2589 364.2382 11.928 364.0093 8 362 C8 361.34 8 360.68 8 360 C7.7009 359.8866 7.7009 359.8866 6.1875 359.3125 C3.4344 357.6606 2.5578 355.7615 1 353 C0.34 352.67 -0.32 352.34 -1 352 C-2.0581 348.8258 -2.1264 346.5885 -2.1286 343.254 C-2.1319 342.0488 -2.1351 340.8435 -2.1384 339.6017 C-2.1369 338.2573 -2.1354 336.913 -2.1337 335.5686 C-2.1356 334.1458 -2.1379 332.723 -2.1406 331.3002 C-2.1467 327.3812 -2.1466 323.4622 -2.1454 319.5431 C-2.1452 315.3201 -2.1507 311.0972 -2.1554 306.8742 C-2.1638 298.5974 -2.1665 290.3207 -2.1671 282.0439 C-2.1675 275.3187 -2.1696 268.5935 -2.1728 261.8683 C-2.1816 242.8149 -2.1862 223.7614 -2.1854 204.7079 C-2.1854 203.6802 -2.1853 202.6524 -2.1853 201.5935 C-2.1853 200.5645 -2.1852 199.5355 -2.1852 198.4753 C-2.1848 181.7913 -2.1943 165.1073 -2.2084 148.4233 C-2.2228 131.3058 -2.2297 114.1883 -2.2288 97.0707 C-2.2285 87.4551 -2.2313 77.8395 -2.242 68.2238 C-2.2511 60.0382 -2.2533 51.8525 -2.2465 43.6669 C-2.2432 39.4882 -2.2432 35.3096 -2.2519 31.131 C-2.2597 27.3085 -2.2583 23.4861 -2.2496 19.6636 C-2.248 18.2781 -2.2499 16.8925 -2.2554 15.5069 C-2.2625 13.6286 -2.256 11.7502 -2.2489 9.8718 C-2.2491 8.8269 -2.2493 7.782 -2.2495 6.7055 C-1.9977 3.9751 -1.404 2.3289 0 0 Z " fill="#3C3730" transform="translate(118,60)"/>
<path d="M0 0 C0.66 0.66 1.32 1.32 2 2 C4.625 2.125 4.625 2.125 7 2 C7.0934 25.1047 7.164 48.2093 7.2072 71.3141 C7.2279 82.042 7.256 92.7697 7.3018 103.4976 C7.3416 112.8476 7.3674 122.1975 7.3764 131.5476 C7.3816 136.4988 7.3938 141.4497 7.4229 146.4007 C7.4501 151.0612 7.4584 155.7214 7.4524 160.3819 C7.4535 162.0919 7.4615 163.802 7.4768 165.5119 C7.4968 167.8487 7.4919 170.1841 7.481 172.5209 C7.4829 173.1745 7.4829 173.1745 7.4922 176.4818 C6.7534 181.7626 4.3289 184.8008 0.4375 188.3125 C-3.1137 190.771 -5.7672 191.1249 -9.9764 191.1242 C-11.0124 191.1264 -12.0483 191.1287 -13.1156 191.131 C-13.6877 191.1297 -13.6877 191.1297 -16.5824 191.123 C-17.7981 191.1242 -19.0138 191.1254 -20.2664 191.1265 C-23.662 191.1287 -27.0576 191.1264 -30.4531 191.1223 C-34.1392 191.1188 -37.8253 191.1212 -41.5114 191.1228 C-47.9787 191.1249 -54.4459 191.1233 -60.9132 191.1192 C-70.5298 191.1132 -80.1464 191.1129 -89.7631 191.1137 C-105.938 191.1151 -122.1129 191.1117 -138.2879 191.1057 C-154.309 191.0998 -170.3302 191.096 -186.3513 191.0949 C-187.3465 191.0948 -188.3417 191.0947 -189.367 191.0947 C-194.4209 191.0943 -199.4747 191.094 -204.5285 191.0937 C-240.3487 191.0916 -276.1688 191.0849 -311.989 191.0754 C-346.7934 191.0663 -381.5977 191.0592 -416.4021 191.0549 C-417.4744 191.0548 -418.5468 191.0547 -419.6516 191.0545 C-430.4202 191.0532 -441.1888 191.0519 -451.9574 191.0507 C-473.8954 191.0482 -495.8333 191.0453 -517.7713 191.0423 C-518.78 191.0422 -519.7888 191.0421 -520.8281 191.0419 C-588.2187 191.0327 -655.6094 191.0169 -723 191 C-722.34 190.67 -721.68 190.34 -721 190 C-721 187.69 -721 185.38 -721 183 C-485.05 183 -249.1 183 -6 183 C-5.01 180.36 -4.02 177.72 -3 175 C-2.01 175 -1.02 175 0 175 C0 117.25 0 59.5 0 0 Z " fill="#3C3730" transform="translate(1475,232)"/>
<path d="M0 0 C1.047 -0.0012 2.0939 -0.0023 3.1726 -0.0035 C6.698 -0.0062 10.2233 -0.0016 13.7487 0.0028 C16.2947 0.0024 18.8408 0.0015 21.3868 0.0002 C26.9312 -0.0016 32.4755 -0.0002 38.0199 0.0038 C46.2642 0.0099 54.5084 0.0102 62.7527 0.0093 C76.6206 0.008 90.4885 0.0113 104.3565 0.0173 C118.0893 0.0232 131.822 0.0271 145.5548 0.0282 C145.9816 0.0282 145.9816 0.0282 148.1414 0.0284 C152.4762 0.0287 156.811 0.029 161.1458 0.0293 C191.8564 0.0314 222.567 0.0381 253.2776 0.0476 C283.1142 0.0568 312.9508 0.0639 342.7874 0.0681 C343.707 0.0682 344.6265 0.0684 345.5739 0.0685 C354.8083 0.0698 364.0428 0.0711 373.2772 0.0724 C392.0891 0.0749 410.901 0.0777 429.7129 0.0807 C430.5778 0.0808 431.4428 0.081 432.3339 0.0811 C490.1031 0.0903 547.8723 0.1062 605.6414 0.123 C604.9814 2.763 604.3214 5.403 603.6414 8.123 C401.0214 8.123 198.4014 8.123 -10.3586 8.123 C-10.3586 8.783 -10.3586 9.443 -10.3586 10.123 C-11.3486 10.783 -12.3386 11.443 -13.3586 12.123 C-13.6886 13.113 -14.0186 14.103 -14.3586 15.123 C-15.3486 15.123 -16.3386 15.123 -17.3586 15.123 C-17.3586 67.593 -17.3586 120.063 -17.3586 174.123 C-19.6686 174.123 -21.9786 174.123 -24.3586 174.123 C-24.4053 153.2522 -24.4406 132.3813 -24.4622 111.5104 C-24.4725 101.8195 -24.4866 92.1286 -24.5095 82.4377 C-24.5294 73.9905 -24.5423 65.5433 -24.5468 57.096 C-24.5494 52.6239 -24.5555 48.1518 -24.57 43.6797 C-24.5836 39.4683 -24.5878 35.2569 -24.5848 31.0454 C-24.5854 29.5019 -24.5893 27.9584 -24.597 26.4149 C-24.607 24.3022 -24.6045 22.1898 -24.5991 20.077 C-24.6009 18.8962 -24.6028 17.7154 -24.6047 16.4988 C-24.2071 11.0457 -23.4279 7.241 -19.6086 3.248 C-13.608 -0.6754 -6.9429 -0.0188 0 0 Z " fill="#3B362F" transform="translate(142.35858726501465,50.876952171325684)"/>
<path d="M0 0 C78.21 0 156.42 0 237 0 C237 51.81 237 103.62 237 157 C177.8575 157.0403 177.8575 157.0403 153.1582 157.0488 C147.5138 157.0508 141.8693 157.0528 136.2249 157.0549 C135.5174 157.0552 134.8099 157.0555 134.081 157.0557 C122.6443 157.0601 111.2077 157.068 99.7711 157.0772 C88.0427 157.0865 76.3143 157.0921 64.5859 157.0941 C57.9946 157.0954 51.4033 157.0985 44.812 157.1057 C38.6159 157.1125 32.4199 157.1146 26.2238 157.1131 C23.9425 157.1134 21.6611 157.1154 19.3798 157.1192 C16.2798 157.1241 13.1798 157.123 10.0797 157.1203 C9.1644 157.1232 8.249 157.1261 7.3059 157.1291 C1.1141 157.1141 1.1141 157.1141 0 156 C-0.0967 153.9877 -0.1219 151.972 -0.1203 149.9574 C-0.1216 148.6461 -0.123 147.3349 -0.1244 145.9839 C-0.1209 144.5113 -0.1172 143.0388 -0.1135 141.5662 C-0.1132 140.0041 -0.1134 138.4421 -0.1139 136.88 C-0.1141 132.6825 -0.1083 128.4849 -0.1013 124.2874 C-0.0956 120.3541 -0.0953 116.4208 -0.0946 112.4874 C-0.0893 100.9708 -0.0754 89.4541 -0.0625 77.9375 C-0.0419 52.2181 -0.0213 26.4988 0 0 Z M7 7 C7 54.19 7 101.38 7 150 C80.59 150 154.18 150 230 150 C230 102.81 230 55.62 230 7 C156.41 7 82.82 7 7 7 Z " fill="#4A453E" transform="translate(517,126)"/>
<path d="M0 0 C40.9614 -0.011 81.9229 -0.0215 122.8843 -0.0317 C123.6858 -0.0319 124.4873 -0.0321 125.3131 -0.0323 C211.1699 -0.0537 297.0268 -0.0722 382.8837 -0.0847 C384.7901 -0.085 386.6966 -0.0852 388.603 -0.0855 C428.6166 -0.0914 468.6302 -0.0968 508.6438 -0.1018 C528.743 -0.1043 548.8422 -0.1068 568.9414 -0.1095 C571.9734 -0.1099 575.0054 -0.1103 578.0373 -0.1107 C624.7426 -0.1168 671.4479 -0.1246 718.1531 -0.1373 C719.1579 -0.1376 720.1626 -0.1379 721.1978 -0.1382 C737.3976 -0.1426 753.5975 -0.1472 769.7973 -0.1517 C816.44 -0.1649 863.0826 -0.1771 909.7252 -0.1823 C910.6837 -0.1824 911.6422 -0.1825 912.6298 -0.1826 C933.6684 -0.1849 954.707 -0.1867 975.7455 -0.188 C984.2099 -0.1885 992.6742 -0.1891 1001.1385 -0.1898 C1002.0649 -0.1898 1002.9913 -0.1899 1003.9458 -0.19 C1033.8283 -0.1922 1063.7107 -0.2007 1093.5932 -0.2126 C1123.6782 -0.2245 1153.7632 -0.2302 1183.8482 -0.2272 C1187.9995 -0.2268 1192.1509 -0.2265 1196.3023 -0.2262 C1197.1161 -0.2262 1197.9299 -0.2261 1198.7684 -0.226 C1211.6884 -0.2253 1224.6084 -0.2313 1237.5284 -0.24 C1250.2128 -0.2485 1262.8973 -0.2499 1275.5817 -0.2437 C1282.3754 -0.2405 1289.169 -0.2409 1295.9627 -0.2498 C1302.1295 -0.2578 1308.2963 -0.2568 1314.4631 -0.2483 C1316.6932 -0.2468 1318.9233 -0.2488 1321.1534 -0.2545 C1324.1577 -0.2616 1327.1616 -0.2566 1330.1659 -0.2484 C1331.0436 -0.2534 1331.9213 -0.2584 1332.8257 -0.2636 C1338.7717 -0.2283 1338.7717 -0.2283 1341 2 C1104.06 2 867.12 2 623 2 C623 4.31 623 6.62 623 9 C858.29 9 1093.58 9 1336 9 C1336 9.33 1336 9.66 1336 10 C1100.71 10 865.42 10 623 10 C623 16.27 623 22.54 623 29 C622.34 29.66 621.68 30.32 621 31 C616.4444 30.4444 616.4444 30.4444 615 29 C615 22.73 615 16.46 615 10 C412.38 10 209.76 10 1 10 C1 9.67 1 9.34 1 9 C203.62 9 406.24 9 615 9 C615 7.02 615 5.04 615 3 C615.33 2.67 615.66 2.34 616 2 C412.39 2 208.78 2 -1 2 C-0.67 1.34 -0.34 0.68 0 0 Z " fill="#6B6762" transform="translate(131,50)"/>
<path d="M0 0 C3.5357 0.5357 3.5357 0.5357 5 2 C6.5613 2.0974 8.127 2.1245 9.6914 2.1242 C10.7146 2.1264 11.7379 2.1287 12.7921 2.131 C13.9323 2.1284 15.0724 2.1258 16.2471 2.123 C16.8489 2.1236 16.8489 2.1236 19.8948 2.1265 C23.2663 2.1288 26.6377 2.1264 30.0091 2.1223 C33.6656 2.1188 37.3221 2.1212 40.9786 2.1228 C47.3971 2.1249 53.8155 2.1233 60.234 2.1192 C69.7784 2.1132 79.3228 2.1129 88.8672 2.1137 C104.9209 2.1151 120.9745 2.1117 137.0282 2.1057 C152.9337 2.0998 168.8393 2.096 184.7449 2.0949 C185.7327 2.0948 186.7205 2.0947 187.7383 2.0947 C192.7547 2.0943 197.7711 2.094 202.7875 2.0937 C238.3524 2.0916 273.9173 2.0849 309.4822 2.0754 C344.0304 2.0663 378.5785 2.0592 413.1267 2.0549 C413.6587 2.0549 413.6587 2.0549 416.3509 2.0545 C427.0362 2.0532 437.7214 2.0519 448.4066 2.0507 C470.1855 2.0482 491.9644 2.0453 513.7432 2.0423 C514.2441 2.0423 514.2441 2.0423 516.7787 2.0419 C577.4615 2.0336 638.1442 2.0197 698.8269 2.0047 C700.1098 2.0043 701.3927 2.004 702.7144 2.0037 C705.0793 2.0031 707.4442 2.0025 709.8091 2.0019 C710.8398 2.0017 711.8706 2.0014 712.9326 2.0012 C713.8214 2.0009 714.7103 2.0007 715.6261 2.0005 C717.7507 2 719.8754 2 722 2 C720.3165 4.0887 719.4373 4.9279 716.7477 5.3714 C715.8572 5.3697 714.9667 5.368 714.0492 5.3662 C713.5341 5.3688 713.5341 5.3688 710.9274 5.3823 C709.7898 5.3728 708.6521 5.3633 707.4801 5.3535 C706.2711 5.3553 705.0621 5.3571 703.8165 5.3589 C700.4397 5.3608 697.0634 5.3491 693.6866 5.3319 C690.0211 5.3164 686.3555 5.3184 682.6899 5.3182 C676.2587 5.3154 669.8276 5.3015 663.3963 5.2802 C653.8333 5.2488 644.2703 5.2344 634.7072 5.2237 C618.6224 5.2051 602.5377 5.1725 586.4529 5.132 C570.5211 5.0919 554.5893 5.058 538.6574 5.0324 C537.6678 5.0309 536.6781 5.0293 535.6585 5.0276 C530.6328 5.0196 525.6072 5.0116 520.5815 5.0037 C484.961 4.9475 449.3405 4.8774 413.72 4.7991 C379.1096 4.723 344.4993 4.6533 309.8889 4.592 C309.3557 4.5911 309.3557 4.5911 306.6575 4.5863 C295.9489 4.5674 285.2403 4.5485 274.5318 4.5298 C252.716 4.4916 230.9003 4.4526 209.0846 4.413 C208.0815 4.4112 207.0784 4.4094 206.0449 4.4075 C139.0299 4.286 72.015 4.1446 5 4 C5 6.31 5 8.62 5 11 C241.28 11.33 477.56 11.66 721 12 C721 12.33 721 12.66 721 13 C279.13 13 -162.74 13 -618 13 C-618.33 12.34 -618.66 11.68 -619 11 C-415.39 11 -211.78 11 -2 11 C-2.33 10.67 -2.66 10.34 -3 10 C-3 8.02 -3 6.04 -3 4 C-205.95 4 -408.9 4 -618 4 C-618.33 3.01 -618.66 2.02 -619 1 C-618.34 1 -617.68 1 -617 1 C-617 1.66 -617 2.32 -617 3 C-558.396 2.9389 -499.792 2.8754 -441.1881 2.7987 C-440.3214 2.7975 -439.4547 2.7964 -438.5617 2.7952 C-419.7278 2.7706 -400.8939 2.7455 -382.06 2.7199 C-372.8245 2.7074 -363.589 2.695 -354.3535 2.6826 C-353.4344 2.6814 -352.5154 2.6802 -351.5685 2.6789 C-321.7538 2.6389 -291.9392 2.6054 -262.1246 2.5753 C-231.4981 2.5443 -200.8716 2.5068 -170.2451 2.4611 C-165.924 2.4546 -161.6028 2.4483 -157.2817 2.4419 C-156.8564 2.4413 -156.8564 2.4413 -154.7044 2.4382 C-140.9879 2.4182 -127.2714 2.4052 -113.5549 2.3947 C-99.7808 2.384 -86.0067 2.3662 -72.2326 2.3408 C-64.0391 2.326 -55.8456 2.3168 -47.652 2.3154 C-41.5491 2.3138 -35.4463 2.3019 -29.3435 2.2859 C-26.863 2.281 -24.3825 2.2795 -21.902 2.2817 C-18.5515 2.2842 -15.2012 2.2746 -11.8508 2.2617 C-10.8694 2.2654 -9.8879 2.269 -8.8768 2.2728 C-7.9907 2.2668 -7.1047 2.2609 -6.1918 2.2548 C-5.8082 2.2543 -5.8082 2.2543 -3.8672 2.252 C-2 2 -2 2 0 0 Z " fill="#69655F" transform="translate(749,411)"/>
<path d="M0 0 C73.59 0 147.18 0 223 0 C223 47.19 223 94.38 223 143 C149.41 143 75.82 143 0 143 C0 95.81 0 48.62 0 0 Z M209.6416 3.038 C208.7546 3.042 207.8676 3.0461 206.9538 3.0503 C203.958 3.0641 200.9623 3.078 197.9666 3.0918 C195.8285 3.1017 193.6905 3.1115 191.5524 3.1214 C185.7283 3.1482 179.9041 3.1751 174.08 3.2019 C168.0008 3.23 161.9215 3.258 155.8423 3.286 C144.3215 3.3391 132.8007 3.3922 121.28 3.4454 C105.7182 3.5172 90.1564 3.5889 74.5947 3.6606 C50.0631 3.7737 25.5316 3.8869 1 4 C1 49.54 1 95.08 1 142 C72.94 142 144.88 142 219 142 C219 96.13 219 50.26 219 3 C215.8806 3 212.761 3.0235 209.6416 3.038 Z " fill="#B8B2A5" transform="translate(524,133)"/>
<path d="M0 0 C235.29 0 470.58 0 713 0 C712.67 0.66 712.34 1.32 712 2 C477.7 2 243.4 2 2 2 C2 2.99 2 3.98 2 5 C1.34 5 0.68 5 0 5 C0 3.35 0 1.7 0 0 Z " fill="#36312A" transform="translate(755,415)"/>
<path d="M0 0 C1.1124 3.5697 1.1084 6.8681 1.0823 10.5932 C1.0807 10.9236 1.0807 10.9236 1.0725 12.5958 C1.0604 14.8084 1.0411 17.0209 1.0217 19.2334 C1.0116 20.8202 1.0019 22.4069 0.9926 23.9937 C0.9662 28.3012 0.9334 32.6087 0.8995 36.9162 C0.8651 41.4178 0.8365 45.9195 0.8074 50.4212 C0.7512 58.9457 0.6899 67.4702 0.6266 75.9947 C0.5549 85.6995 0.489 95.4044 0.4236 105.1093 C0.2889 125.0729 0.1468 145.0365 0 165 C2.31 165 4.62 165 7 165 C7 112.53 7 60.06 7 6 C7.66 6 8.32 6 9 6 C9 58.8 9 111.6 9 166 C15.27 166 21.54 166 28 166 C30 168 30 168 30 172 C29.34 172 28.68 172 28 172 C28 172.66 28 173.32 28 174 C21.73 174 15.46 174 9 174 C9 231.09 9 288.18 9 347 C8.67 347 8.34 347 8 347 C8 289.91 8 232.82 8 174 C6.02 174 4.04 174 2 174 C1.34 173.67 0.68 173.34 0 173 C0 232.07 0 291.14 0 352 C-2.2954 348.557 -2.2504 347.3065 -2.2517 343.254 C-2.2569 342.0488 -2.2621 340.8435 -2.2675 339.6017 C-2.2632 338.2573 -2.2586 336.913 -2.254 335.5686 C-2.2563 334.1458 -2.2594 332.723 -2.2634 331.3002 C-2.2718 327.3812 -2.2676 323.4622 -2.2614 319.5431 C-2.2569 315.3201 -2.2639 311.0972 -2.2694 306.8742 C-2.2783 298.5974 -2.2764 290.3207 -2.2706 282.0439 C-2.2661 275.3187 -2.2655 268.5935 -2.2676 261.8683 C-2.2679 260.9124 -2.2682 259.9565 -2.2686 258.9715 C-2.2692 257.0298 -2.2698 255.088 -2.2705 253.1462 C-2.2762 234.9226 -2.2696 216.6989 -2.2589 198.4753 C-2.25 182.8291 -2.2515 167.183 -2.2607 151.5369 C-2.2714 133.3815 -2.2757 115.2261 -2.2695 97.0707 C-2.2689 95.1356 -2.2683 93.2006 -2.2676 91.2655 C-2.2673 90.3133 -2.267 89.3611 -2.2667 88.3801 C-2.265 81.6613 -2.2679 74.9426 -2.2726 68.2238 C-2.2782 60.0382 -2.2767 51.8525 -2.266 43.6669 C-2.2608 39.4882 -2.2587 35.3096 -2.2653 31.131 C-2.2713 27.3085 -2.268 23.4861 -2.2574 19.6636 C-2.2551 18.2781 -2.2563 16.8925 -2.2611 15.5069 C-2.2672 13.6285 -2.2598 11.7502 -2.2517 9.8718 C-2.2514 8.8269 -2.251 7.782 -2.2507 6.7055 C-1.9977 3.9757 -1.4035 2.3286 0 0 Z " fill="#6B6762" transform="translate(118,60)"/>
<path d="M0 0 C3.178 4.2373 3.3745 4.9279 3.3691 9.8958 C3.3751 11.109 3.3811 12.3222 3.3872 13.5722 C3.3787 14.9203 3.3698 16.2684 3.3608 17.6165 C3.3621 19.0472 3.3647 20.4778 3.3685 21.9084 C3.3753 25.8444 3.3632 29.7802 3.3482 33.7161 C3.3353 37.9588 3.3396 42.2014 3.3419 46.4441 C3.3435 53.7963 3.3341 61.1485 3.3172 68.5007 C3.2928 79.1308 3.285 89.7609 3.2812 100.3911 C3.2747 117.637 3.2547 134.883 3.2263 152.1289 C3.1988 168.8835 3.1775 185.638 3.1648 202.3926 C3.1644 202.9088 3.1644 202.9088 3.1624 205.5212 C3.1585 210.7006 3.1547 215.88 3.151 221.0594 C3.1199 264.0397 3.067 307.0198 3 350 C2.34 350 1.68 350 1 350 C0.67 292.25 0.34 234.5 0 175 C-1.65 174.67 -3.3 174.34 -5 174 C-5.33 231.09 -5.66 288.18 -6 347 C-6.33 347 -6.66 347 -7 347 C-7 234.47 -7 121.94 -7 6 C-6.67 6 -6.34 6 -6 6 C-5.67 58.8 -5.34 111.6 -5 166 C-4.67 165.67 -4.34 165.34 -4 165 C-2.35 165 -0.7 165 1 165 C0.835 137.775 0.835 137.775 0 0 Z " fill="#6F6A66" transform="translate(1481,60)"/>
<path d="M0 0 C77.55 0 155.1 0 235 0 C235 50.82 235 101.64 235 154 C234.34 154 233.68 154 233 154 C233 103.84 233 53.68 233 2 C156.11 2 79.22 2 0 2 C0 1.34 0 0.68 0 0 Z " fill="#322C24" transform="translate(518,127)"/>
<path d="M0 0 C3.5357 0.5357 3.5357 0.5357 5 2 C5.0718 3.5193 5.0839 5.0417 5.0625 6.5625 C5.0535 7.3888 5.0445 8.2151 5.0352 9.0664 C5.0294 9.3854 5.0294 9.3854 5 11 C2.125 11.625 2.125 11.625 -1 12 C-1.66 11.34 -2.32 10.68 -3 10 C-3 8.02 -3 6.04 -3 4 C-205.95 4 -408.9 4 -618 4 C-618.33 3.01 -618.66 2.02 -619 1 C-618.34 1 -617.68 1 -617 1 C-617 1.66 -617 2.32 -617 3 C-558.396 2.9389 -499.792 2.8754 -441.1881 2.7987 C-440.3214 2.7975 -439.4547 2.7964 -438.5617 2.7952 C-419.7278 2.7706 -400.8939 2.7455 -382.06 2.7199 C-372.8245 2.7074 -363.589 2.695 -354.3535 2.6826 C-353.4344 2.6814 -352.5154 2.6802 -351.5685 2.6789 C-321.7538 2.6389 -291.9392 2.6054 -262.1246 2.5753 C-231.4981 2.5443 -200.8716 2.5068 -170.2451 2.4611 C-165.924 2.4546 -161.6028 2.4483 -157.2817 2.4419 C-156.8564 2.4413 -156.8564 2.4413 -154.7044 2.4382 C-140.9879 2.4182 -127.2714 2.4052 -113.5549 2.3947 C-99.7808 2.384 -86.0067 2.3662 -72.2326 2.3408 C-64.0391 2.326 -55.8456 2.3168 -47.652 2.3154 C-41.5491 2.3138 -35.4463 2.3019 -29.3435 2.2859 C-26.863 2.281 -24.3825 2.2795 -21.902 2.2817 C-18.5515 2.2842 -15.2012 2.2746 -11.8508 2.2617 C-10.8694 2.2654 -9.8879 2.269 -8.8768 2.2728 C-7.9907 2.2668 -7.1047 2.2609 -6.1918 2.2548 C-5.8082 2.2543 -5.8082 2.2543 -3.8672 2.252 C-2 2 -2 2 0 0 Z " fill="#726E69" transform="translate(749,411)"/>
<path d="M0 0 C0.33 0.165 0.33 0.165 2 1 C2 1.66 2 2.32 2 3 C2.66 3 3.32 3 4 3 C4 115.53 4 228.06 4 344 C3.34 344 2.68 344 2 344 C1.67 344.99 1.34 345.98 1 347 C1.0004 346.2782 1.0008 345.5565 1.0012 344.8128 C1.0235 302.0582 1.0407 259.3036 1.0511 216.549 C1.0523 211.4182 1.0536 206.2873 1.0549 201.1565 C1.0551 200.6458 1.0551 200.6458 1.0557 198.0611 C1.0601 181.5102 1.068 164.9592 1.0772 148.4083 C1.0865 131.4321 1.0921 114.4559 1.0941 97.4797 C1.0955 87.0001 1.0998 76.5205 1.1079 66.0409 C1.1132 58.8598 1.1148 51.6786 1.1135 44.4974 C1.1129 40.3511 1.1139 36.2048 1.1192 32.0584 C1.1241 28.2642 1.1243 24.4699 1.1209 20.6757 C1.1203 18.6493 1.1246 16.623 1.1291 14.5966 C1.1271 13.3953 1.1251 12.1941 1.123 10.9564 C1.1234 9.9194 1.1238 8.8823 1.1242 7.8139 C1.0047 5.1054 0.6102 2.6373 0 0 Z " fill="#CFCECD" transform="translate(1470,63)"/>
<path d="M0 0 C0.33 0 0.66 0 1 0 C1 52.8 1 105.6 1 160 C7.27 160 13.54 160 20 160 C22 162 22 162 22 166 C21.34 166 20.68 166 20 166 C20 166.66 20 167.32 20 168 C13.73 168 7.46 168 1 168 C1 225.09 1 282.18 1 341 C0.67 341 0.34 341 0 341 C0 283.91 0 226.82 0 168 C-1.98 168 -3.96 168 -6 168 C-8 166 -8 166 -8.1875 163.4375 C-8 161 -8 161 -7 160 C-4.69 160 -2.38 160 0 160 C0 107.2 0 54.4 0 0 Z " fill="#BAA781" transform="translate(126,66)"/>
<path d="M0 0 C0.33 0 0.66 0 1 0 C1.33 52.8 1.66 105.6 2 160 C3.65 160 5.3 160 7 160 C8 161 8 161 8.0625 163.5625 C8.0419 164.3669 8.0213 165.1712 8 166 C3.25 167.125 3.25 167.125 1 166 C1 223.75 1 281.5 1 341 C0.67 341 0.34 341 0 341 C0 228.47 0 115.94 0 0 Z " fill="#665D4D" transform="translate(1474,66)"/>
<path d="M0 0 C1.1678 0.0052 2.3356 0.0105 3.5388 0.0159 C4.7989 0.0191 6.0589 0.0223 7.3572 0.0256 C8.6977 0.034 10.0382 0.0425 11.3787 0.051 C12.7231 0.056 14.0675 0.0606 15.4119 0.0647 C18.7133 0.0765 22.0147 0.093 25.3162 0.1135 C25.6462 2.4235 25.9762 4.7335 26.3162 7.1135 C25.6562 7.1135 24.9962 7.1135 24.3162 7.1135 C24.3162 7.7735 24.3162 8.4335 24.3162 9.1135 C20.0455 9.2004 15.775 9.2539 11.5037 9.301 C10.8962 9.3136 10.8962 9.3136 7.822 9.3772 C7.2403 9.382 7.2403 9.382 4.2966 9.4065 C3.2231 9.4222 2.1495 9.4379 1.0435 9.4541 C-1.6838 9.1135 -1.6838 9.1135 -3.5732 7.7593 C-4.6838 6.1135 -4.6838 6.1135 -4.4338 3.4885 C-3.3773 0.1429 -3.3773 0.1429 0 0 Z " fill="#C8962F" transform="translate(161.683837890625,224.886474609375)"/>
<path d="M0 0 C1.3142 -0.0122 2.6284 -0.0245 3.9824 -0.0371 C5.2347 -0.039 6.4871 -0.041 7.7773 -0.043 C8.9336 -0.0471 10.0898 -0.0512 11.281 -0.0554 C14.0625 0.1875 14.0625 0.1875 16.0625 2.1875 C15.5069 6.7431 15.5069 6.7431 14.0625 8.1875 C12.0867 8.2874 10.1073 8.3183 8.1289 8.3203 C7.5259 8.321 7.5259 8.321 4.4746 8.3242 C3.2042 8.3204 1.9339 8.3165 0.625 8.3125 C-0.6415 8.3164 -1.908 8.3202 -3.2129 8.3242 C-4.4201 8.3229 -5.6273 8.3216 -6.8711 8.3203 C-7.9854 8.3192 -9.0997 8.3181 -10.2478 8.3169 C-12.9375 8.1875 -12.9375 8.1875 -14.9375 7.1875 C-14.98 5.188 -14.9783 3.1871 -14.9375 1.1875 C-12.182 -1.568 -3.7178 0.0018 0 0 Z " fill="#D0A64E" transform="translate(1329.9375,225.8125)"/>
<path d="M0 0 C1.3142 -0.0122 2.6284 -0.0245 3.9824 -0.0371 C5.2347 -0.039 6.4871 -0.041 7.7773 -0.043 C8.9336 -0.0471 10.0898 -0.0512 11.281 -0.0554 C14.0625 0.1875 14.0625 0.1875 16.0625 2.1875 C15.5069 6.7431 15.5069 6.7431 14.0625 8.1875 C12.0867 8.2874 10.1073 8.3183 8.1289 8.3203 C7.5259 8.321 7.5259 8.321 4.4746 8.3242 C3.2042 8.3204 1.9339 8.3165 0.625 8.3125 C-0.6415 8.3164 -1.908 8.3202 -3.2129 8.3242 C-4.4201 8.3229 -5.6273 8.3216 -6.8711 8.3203 C-7.9854 8.3192 -9.0997 8.3181 -10.2478 8.3169 C-12.9375 8.1875 -12.9375 8.1875 -14.9375 7.1875 C-14.98 5.188 -14.9783 3.1871 -14.9375 1.1875 C-12.182 -1.568 -3.7178 0.0018 0 0 Z " fill="#D0A64E" transform="translate(371.9375,225.8125)"/>
<path d="M0 0 C1.2555 -0.0013 2.5111 -0.0026 3.8047 -0.0039 C4.4618 -0.0018 5.1189 0.0003 5.7959 0.0024 C7.8041 0.0078 9.8121 0.0025 11.8203 -0.0039 C13.0759 -0.0026 14.3314 -0.0013 15.625 0 C16.7864 0.0011 17.9479 0.0023 19.1445 0.0034 C21.8125 0.1328 21.8125 0.1328 22.8125 1.1328 C22.9375 4.1328 22.9375 4.1328 22.8125 7.1328 C20.1064 9.8389 12.0818 8.368 8.4375 8.3828 C7.1794 8.4034 5.9213 8.4241 4.625 8.4453 C3.421 8.4505 2.217 8.4556 0.9766 8.4609 C-0.1325 8.4703 -1.2416 8.4796 -2.3843 8.4893 C-5.1875 8.1328 -5.1875 8.1328 -7.0884 6.7451 C-8.1875 5.1328 -8.1875 5.1328 -7.9375 3.0078 C-6.3591 -0.9381 -3.9754 0.0039 0 0 Z " fill="#CA9936" transform="translate(1442.1875,225.8671875)"/>
<path d="M0 0 C1.32 0 2.64 0 4 0 C6.3601 3.5401 6.2346 5.0112 6.1953 9.1992 C6.1889 10.4077 6.1824 11.6162 6.1758 12.8613 C6.159 14.124 6.1423 15.3866 6.125 16.6875 C6.116 17.9617 6.107 19.236 6.0977 20.5488 C6.0741 23.6994 6.0411 26.8496 6 30 C0.25 31.125 0.25 31.125 -2 30 C-2.0494 26.049 -2.0857 22.0982 -2.1099 18.147 C-2.1249 16.1409 -2.1503 14.1349 -2.1758 12.1289 C-2.179 11.5005 -2.179 11.5005 -2.1953 8.3203 C-2.2058 7.1577 -2.2163 5.9952 -2.2271 4.7974 C-2 2 -2 2 0 0 Z " fill="#CEA348" transform="translate(748,290)"/>
<path d="M0 0 C1.2555 -0.0013 2.5111 -0.0026 3.8047 -0.0039 C4.4618 -0.0018 5.1189 0.0003 5.7959 0.0024 C7.8041 0.0078 9.8121 0.0025 11.8203 -0.0039 C13.0759 -0.0026 14.3314 -0.0013 15.625 0 C16.7864 0.0011 17.9479 0.0023 19.1445 0.0034 C21.8125 0.1328 21.8125 0.1328 22.8125 1.1328 C22.9375 4.1328 22.9375 4.1328 22.8125 7.1328 C21.0142 8.9311 18.3027 8.2632 15.8789 8.2656 C15.2759 8.2663 15.2759 8.2663 12.2246 8.2695 C10.9542 8.2657 9.6839 8.2618 8.375 8.2578 C7.1085 8.2617 5.842 8.2655 4.5371 8.2695 C3.3299 8.2682 2.1227 8.267 0.8789 8.2656 C-0.2354 8.2645 -1.3497 8.2634 -2.4978 8.2622 C-5.1875 8.1328 -5.1875 8.1328 -7.1875 7.1328 C-7.23 5.1333 -7.2283 3.1324 -7.1875 1.1328 C-5.3572 -0.6975 -2.4554 0.0024 0 0 Z " fill="#C69329" transform="translate(1402.1875,225.8671875)"/>
<path d="M0 0 C1.2555 -0.0013 2.5111 -0.0026 3.8047 -0.0039 C4.4618 -0.0018 5.1189 0.0003 5.7959 0.0024 C7.8041 0.0078 9.8121 0.0025 11.8203 -0.0039 C13.0759 -0.0026 14.3314 -0.0013 15.625 0 C16.7864 0.0011 17.9479 0.0023 19.1445 0.0034 C21.8125 0.1328 21.8125 0.1328 22.8125 1.1328 C22.9375 4.1328 22.9375 4.1328 22.8125 7.1328 C21.0142 8.9311 18.3027 8.2632 15.8789 8.2656 C15.2759 8.2663 15.2759 8.2663 12.2246 8.2695 C10.9542 8.2657 9.6839 8.2618 8.375 8.2578 C7.1085 8.2617 5.842 8.2655 4.5371 8.2695 C3.3299 8.2682 2.1227 8.267 0.8789 8.2656 C-0.2354 8.2645 -1.3497 8.2634 -2.4978 8.2622 C-5.1875 8.1328 -5.1875 8.1328 -7.1875 7.1328 C-7.23 5.1333 -7.2283 3.1324 -7.1875 1.1328 C-5.3572 -0.6975 -2.4554 0.0024 0 0 Z " fill="#D0A54D" transform="translate(444.1875,225.8671875)"/>
<path d="M0 0 C1.2555 -0.0013 2.5111 -0.0026 3.8047 -0.0039 C4.4618 -0.0018 5.1189 0.0003 5.7959 0.0024 C7.8041 0.0078 9.8121 0.0025 11.8203 -0.0039 C13.0759 -0.0026 14.3314 -0.0013 15.625 0 C16.7864 0.0011 17.9479 0.0023 19.1445 0.0034 C21.8125 0.1328 21.8125 0.1328 22.8125 1.1328 C22.8533 3.1324 22.855 5.1333 22.8125 7.1328 C20.1198 8.4791 18.0114 8.2624 15 8.2656 C13.8424 8.2669 12.6848 8.2682 11.4922 8.2695 C10.2779 8.2657 9.0636 8.2618 7.8125 8.2578 C6.5982 8.2617 5.3839 8.2655 4.1328 8.2695 C3.554 8.2689 3.554 8.2689 0.625 8.2656 C0.092 8.2651 0.092 8.2651 -2.6055 8.2622 C-5.1875 8.1328 -5.1875 8.1328 -7.1875 7.1328 C-7.23 5.1333 -7.2283 3.1324 -7.1875 1.1328 C-5.3572 -0.6975 -2.4554 0.0024 0 0 Z " fill="#D0A54C" transform="translate(1362.1875,225.8671875)"/>
<path d="M0 0 C1.2555 -0.0013 2.5111 -0.0026 3.8047 -0.0039 C4.4618 -0.0018 5.1189 0.0003 5.7959 0.0024 C7.8041 0.0078 9.8121 0.0025 11.8203 -0.0039 C13.0759 -0.0026 14.3314 -0.0013 15.625 0 C16.7864 0.0011 17.9479 0.0023 19.1445 0.0034 C21.8125 0.1328 21.8125 0.1328 22.8125 1.1328 C22.8533 3.1324 22.855 5.1333 22.8125 7.1328 C20.1198 8.4791 18.0114 8.2624 15 8.2656 C13.8424 8.2669 12.6848 8.2682 11.4922 8.2695 C10.2779 8.2657 9.0636 8.2618 7.8125 8.2578 C6.5982 8.2617 5.3839 8.2655 4.1328 8.2695 C3.554 8.2689 3.554 8.2689 0.625 8.2656 C0.092 8.2651 0.092 8.2651 -2.6055 8.2622 C-5.1875 8.1328 -5.1875 8.1328 -7.1875 7.1328 C-7.23 5.1333 -7.2283 3.1324 -7.1875 1.1328 C-5.3572 -0.6975 -2.4554 0.0024 0 0 Z " fill="#D0A54C" transform="translate(404.1875,225.8671875)"/>
<path d="M0 0 C3.951 -0.0494 7.9018 -0.0857 11.853 -0.1099 C13.8591 -0.1249 15.8651 -0.1503 17.8711 -0.1758 C19.1279 -0.1822 20.3848 -0.1887 21.6797 -0.1953 C22.8423 -0.2058 24.0048 -0.2163 25.2026 -0.2271 C28 0 28 0 30 2 C29.6332 4.9345 29.1356 5.8644 27 8 C22.6844 8.4591 18.3372 8.324 14 8.3125 C13.3929 8.3206 13.3929 8.3206 10.3203 8.3613 C9.1627 8.362 8.0052 8.3626 6.8125 8.3633 C5.7464 8.3663 4.6804 8.3692 3.582 8.3723 C2.73 8.2495 1.8779 8.1266 1 8 C-1 5 -1 5 -0.625 2.3125 C-0.4187 1.5494 -0.2125 0.7862 0 0 Z " fill="#CFA54B" transform="translate(278,226)"/>
<path d="M0 0 C1.32 0 2.64 0 4 0 C6.3601 3.5401 6.2346 5.0112 6.1953 9.1992 C6.1889 10.4077 6.1824 11.6162 6.1758 12.8613 C6.159 14.124 6.1423 15.3866 6.125 16.6875 C6.116 17.9617 6.107 19.236 6.0977 20.5488 C6.0741 23.6994 6.0411 26.8496 6 30 C3.125 30.125 3.125 30.125 0 30 C-2.6849 27.3151 -2.2577 25.9352 -2.2656 22.1875 C-2.2682 21.0299 -2.2708 19.8723 -2.2734 18.6797 C-2.2657 17.4654 -2.258 16.2511 -2.25 15 C-2.2577 13.7857 -2.2655 12.5714 -2.2734 11.3203 C-2.2709 10.1627 -2.2683 9.0052 -2.2656 7.8125 C-2.2634 6.7464 -2.2611 5.6804 -2.2588 4.582 C-2 2 -2 2 0 0 Z " fill="#D0A64F" transform="translate(748,330)"/>
<path d="M0 0 C3.951 -0.0494 7.9018 -0.0857 11.853 -0.1099 C13.8591 -0.1249 15.8651 -0.1503 17.8711 -0.1758 C19.1279 -0.1822 20.3848 -0.1887 21.6797 -0.1953 C22.8423 -0.2058 24.0048 -0.2163 25.2026 -0.2271 C28 0 28 0 30 2 C29.6332 4.9345 29.1356 5.8644 27 8 C24.3862 8.2271 24.3862 8.2271 21.1172 8.1953 C19.9506 8.1889 18.784 8.1824 17.582 8.1758 C16.3587 8.159 15.1354 8.1423 13.875 8.125 C12.6439 8.116 11.4129 8.107 10.1445 8.0977 C7.0962 8.074 4.0482 8.0411 1 8 C-0.3544 5.2912 -0.065 2.9907 0 0 Z " fill="#CFA44A" transform="translate(1236,226)"/>
<path d="M0 0 C1.2665 -0.0122 2.533 -0.0245 3.8379 -0.0371 C5.0451 -0.039 6.2523 -0.041 7.4961 -0.043 C8.0533 -0.045 8.0533 -0.045 10.8728 -0.0554 C13.5625 0.1875 13.5625 0.1875 15.5625 2.1875 C15.5625 3.5075 15.5625 4.8275 15.5625 6.1875 C14.9025 6.1875 14.2425 6.1875 13.5625 6.1875 C13.5625 6.8475 13.5625 7.5075 13.5625 8.1875 C9.2709 8.2453 4.9794 8.281 0.6875 8.3125 C-0.5358 8.3293 -1.7591 8.346 -3.0195 8.3633 C-3.6028 8.3665 -3.6028 8.3665 -6.5547 8.3828 C-7.6335 8.3933 -8.7123 8.4038 -9.8237 8.4146 C-12.4375 8.1875 -12.4375 8.1875 -14.4375 6.1875 C-14.625 3.625 -14.625 3.625 -14.4375 1.1875 C-11.7368 -1.5132 -3.6408 0.0018 0 0 Z " fill="#C89730" transform="translate(1010.4375,225.8125)"/>
<path d="M0 0 C1.2665 -0.0122 2.533 -0.0245 3.8379 -0.0371 C5.0451 -0.039 6.2523 -0.041 7.4961 -0.043 C8.0533 -0.045 8.0533 -0.045 10.8728 -0.0554 C13.5625 0.1875 13.5625 0.1875 15.5625 2.1875 C15.5625 3.5075 15.5625 4.8275 15.5625 6.1875 C14.9025 6.1875 14.2425 6.1875 13.5625 6.1875 C13.5625 6.8475 13.5625 7.5075 13.5625 8.1875 C9.2709 8.2453 4.9794 8.281 0.6875 8.3125 C-0.5358 8.3293 -1.7591 8.346 -3.0195 8.3633 C-3.6028 8.3665 -3.6028 8.3665 -6.5547 8.3828 C-7.6335 8.3933 -8.7123 8.4038 -9.8237 8.4146 C-12.4375 8.1875 -12.4375 8.1875 -14.4375 6.1875 C-14.625 3.625 -14.625 3.625 -14.4375 1.1875 C-11.7368 -1.5132 -3.6408 0.0018 0 0 Z " fill="#C7942A" transform="translate(930.4375,225.8125)"/>
<path d="M0 0 C1.2665 -0.0122 2.533 -0.0245 3.8379 -0.0371 C5.0451 -0.039 6.2523 -0.041 7.4961 -0.043 C8.0533 -0.045 8.0533 -0.045 10.8728 -0.0554 C13.5625 0.1875 13.5625 0.1875 15.5625 2.1875 C15.5625 3.5075 15.5625 4.8275 15.5625 6.1875 C14.9025 6.1875 14.2425 6.1875 13.5625 6.1875 C13.5625 6.8475 13.5625 7.5075 13.5625 8.1875 C9.2709 8.2453 4.9794 8.281 0.6875 8.3125 C-0.5358 8.3293 -1.7591 8.346 -3.0195 8.3633 C-3.6028 8.3665 -3.6028 8.3665 -6.5547 8.3828 C-7.6335 8.3933 -8.7123 8.4038 -9.8237 8.4146 C-12.4375 8.1875 -12.4375 8.1875 -14.4375 6.1875 C-14.625 3.625 -14.625 3.625 -14.4375 1.1875 C-11.7368 -1.5132 -3.6408 0.0018 0 0 Z " fill="#D7B368" transform="translate(970.4375,225.8125)"/>
<path d="M0 0 C3.125 0.375 3.125 0.375 6 1 C6.0578 5.4583 6.0935 9.9165 6.125 14.375 C6.1418 15.646 6.1585 16.917 6.1758 18.2266 C6.1822 19.4383 6.1887 20.65 6.1953 21.8984 C6.2058 23.0191 6.2163 24.1398 6.2271 25.2944 C6 28 6 28 4 30 C-0.5556 29.4444 -0.5556 29.4444 -2 28 C-2.2534 23.6935 -2.1852 19.3755 -2.1875 15.0625 C-2.1936 14.4531 -2.1936 14.4531 -2.2246 11.3691 C-2.2265 10.2071 -2.2285 9.045 -2.2305 7.8477 C-2.2346 6.7752 -2.2387 5.7028 -2.2429 4.5979 C-2 2 -2 2 0 0 Z " fill="#CDA144" transform="translate(748,91)"/>
<path d="M0 0 C3.125 0.375 3.125 0.375 6 1 C6.0578 5.4583 6.0935 9.9165 6.125 14.375 C6.1418 15.646 6.1585 16.917 6.1758 18.2266 C6.1822 19.4383 6.1887 20.65 6.1953 21.8984 C6.2058 23.0191 6.2163 24.1398 6.2271 25.2944 C6 28 6 28 4 30 C-0.5556 29.4444 -0.5556 29.4444 -2 28 C-2.2534 23.6935 -2.1852 19.3755 -2.1875 15.0625 C-2.1936 14.4531 -2.1936 14.4531 -2.2246 11.3691 C-2.2265 10.2071 -2.2285 9.045 -2.2305 7.8477 C-2.2346 6.7752 -2.2387 5.7028 -2.2429 4.5979 C-2 2 -2 2 0 0 Z " fill="#BC8E2E" transform="translate(748,51)"/>
<path d="M0 0 C1.32 0 2.64 0 4 0 C6.2753 3.413 6.2567 4.6813 6.2656 8.6914 C6.2682 9.8006 6.2708 10.9099 6.2734 12.0527 C6.2657 13.211 6.258 14.3692 6.25 15.5625 C6.2577 16.7246 6.2655 17.8867 6.2734 19.084 C6.2709 20.1919 6.2683 21.2999 6.2656 22.4414 C6.2634 23.4592 6.2611 24.477 6.2588 25.5256 C6 28 6 28 4 30 C1.375 30.125 1.375 30.125 -1 30 C-3.1743 25.6515 -2.185 19.7764 -2.1875 15 C-2.1997 13.7857 -2.212 12.5714 -2.2246 11.3203 C-2.2265 10.1627 -2.2285 9.0052 -2.2305 7.8125 C-2.2346 6.7464 -2.2387 5.6804 -2.2429 4.582 C-2 2 -2 2 0 0 Z " fill="#C99936" transform="translate(748,370)"/>
<path d="M0 0 C4.4583 -0.0578 8.9165 -0.0935 13.375 -0.125 C14.0105 -0.1334 14.0105 -0.1334 17.2266 -0.1758 C18.4383 -0.1822 19.65 -0.1887 20.8984 -0.1953 C22.0191 -0.2058 23.1398 -0.2163 24.2944 -0.2271 C27 0 27 0 29 2 C29 3.32 29 4.64 29 6 C28.34 6 27.68 6 27 6 C27 6.66 27 7.32 27 8 C22.7085 8.0868 18.4171 8.1403 14.125 8.1875 C13.5133 8.2001 13.5133 8.2001 10.418 8.2637 C9.8347 8.2685 9.8347 8.2685 6.8828 8.293 C6.3434 8.3008 6.3434 8.3008 3.6138 8.3406 C2.7512 8.2282 1.8887 8.1158 1 8 C-1 5 -1 5 -0.625 2.3125 C-0.4188 1.5494 -0.2125 0.7862 0 0 Z " fill="#CEA348" transform="translate(877,226)"/>
<path d="M0 0 C4.4583 -0.0578 8.9165 -0.0935 13.375 -0.125 C14.0105 -0.1334 14.0105 -0.1334 17.2266 -0.1758 C18.4383 -0.1822 19.65 -0.1887 20.8984 -0.1953 C22.0191 -0.2058 23.1398 -0.2163 24.2944 -0.2271 C27 0 27 0 29 2 C29 3.32 29 4.64 29 6 C28.34 6 27.68 6 27 6 C27 6.66 27 7.32 27 8 C22.7085 8.0868 18.4171 8.1403 14.125 8.1875 C13.5133 8.2001 13.5133 8.2001 10.418 8.2637 C9.8347 8.2685 9.8347 8.2685 6.8828 8.293 C6.3434 8.3008 6.3434 8.3008 3.6138 8.3406 C2.7512 8.2282 1.8887 8.1158 1 8 C-1 5 -1 5 -0.625 2.3125 C-0.4188 1.5494 -0.2125 0.7862 0 0 Z " fill="#CEA348" transform="translate(837,226)"/>
<path d="M0 0 C1.1576 -0.0026 2.3152 -0.0052 3.5078 -0.0078 C4.7221 -0.0001 5.9364 0.0077 7.1875 0.0156 C8.4018 0.0079 9.6161 0.0002 10.8672 -0.0078 C11.446 -0.0065 11.446 -0.0065 14.375 0 C15.4411 0.0023 16.5071 0.0045 17.6055 0.0068 C20.1875 0.2656 20.1875 0.2656 22.1875 2.2656 C21.8207 5.2002 21.3231 6.13 19.1875 8.2656 C16.5737 8.4927 16.5737 8.4927 13.3047 8.4609 C12.1381 8.4545 10.9715 8.448 9.7695 8.4414 C8.5462 8.4246 7.3229 8.4079 6.0625 8.3906 C4.8314 8.3816 3.6004 8.3726 2.332 8.3633 C-0.7163 8.3397 -3.7643 8.3067 -6.8125 8.2656 C-7.4375 5.3906 -7.4375 5.3906 -7.8125 2.2656 C-5.1276 -0.4192 -3.7477 0.0079 0 0 Z " fill="#D7B266" transform="translate(245.8125,225.734375)"/>
<path d="M0 0 C1.2188 -0.0122 2.4376 -0.0245 3.6934 -0.0371 C4.2744 -0.0381 4.2744 -0.0381 7.2148 -0.043 C8.2873 -0.0471 9.3597 -0.0512 10.4646 -0.0554 C13.0625 0.1875 13.0625 0.1875 15.0625 2.1875 C15.0625 3.5075 15.0625 4.8275 15.0625 6.1875 C11.6495 8.4628 10.3812 8.4442 6.3711 8.4531 C5.8165 8.4544 5.8165 8.4544 3.0098 8.4609 C1.8515 8.4532 0.6933 8.4455 -0.5 8.4375 C-1.6621 8.4452 -2.8242 8.453 -4.0215 8.4609 C-5.1294 8.4584 -6.2374 8.4558 -7.3789 8.4531 C-8.3967 8.4509 -9.4145 8.4486 -10.4631 8.4463 C-12.9375 8.1875 -12.9375 8.1875 -14.9375 6.1875 C-13.8775 -2.5044 -7.4031 0.0039 0 0 Z " fill="#D6B266" transform="translate(212.9375,225.8125)"/>
<path d="M0 0 C3.9693 -0.0247 7.9386 -0.0428 11.908 -0.0549 C13.2592 -0.06 14.6104 -0.0668 15.9617 -0.0754 C17.9002 -0.0875 19.8388 -0.0927 21.7773 -0.0977 C22.3612 -0.1003 22.3612 -0.1003 25.3162 -0.1135 C28 0 28 0 29 1 C29.1875 3.4375 29.1875 3.4375 29 6 C27 8 27 8 24.3862 8.2271 C23.3074 8.2166 22.2287 8.2061 21.1172 8.1953 C19.9506 8.1889 18.784 8.1824 17.582 8.1758 C16.3587 8.159 15.1354 8.1423 13.875 8.125 C12.6439 8.116 11.4129 8.107 10.1445 8.0977 C7.0962 8.074 4.0482 8.0411 1 8 C-0.3544 5.2912 -0.065 2.9907 0 0 Z " fill="#CFA349" transform="translate(1276,226)"/>
<path d="M0 0 C1.1576 -0.0026 2.3152 -0.0052 3.5078 -0.0078 C4.7221 -0.0001 5.9364 0.0077 7.1875 0.0156 C8.4018 0.0079 9.6161 0.0002 10.8672 -0.0078 C11.446 -0.0065 11.446 -0.0065 14.375 0 C15.4411 0.0023 16.5071 0.0045 17.6055 0.0068 C20.1875 0.2656 20.1875 0.2656 22.1875 2.2656 C21.8207 5.2002 21.3231 6.13 19.1875 8.2656 C16.5737 8.4927 16.5737 8.4927 13.3047 8.4609 C12.1381 8.4545 10.9715 8.448 9.7695 8.4414 C8.5462 8.4246 7.3229 8.4079 6.0625 8.3906 C4.8314 8.3816 3.6004 8.3726 2.332 8.3633 C-0.7163 8.3397 -3.7643 8.3067 -6.8125 8.2656 C-7.4375 5.3906 -7.4375 5.3906 -7.8125 2.2656 C-5.1276 -0.4192 -3.7477 0.0079 0 0 Z " fill="#CFA349" transform="translate(1203.8125,225.734375)"/>
<path d="M0 0 C1.2188 -0.0122 2.4376 -0.0245 3.6934 -0.0371 C4.2744 -0.0381 4.2744 -0.0381 7.2148 -0.043 C8.2873 -0.0471 9.3597 -0.0512 10.4646 -0.0554 C13.0625 0.1875 13.0625 0.1875 15.0625 2.1875 C15.0625 3.5075 15.0625 4.8275 15.0625 6.1875 C11.6495 8.4628 10.3812 8.4442 6.3711 8.4531 C5.8165 8.4544 5.8165 8.4544 3.0098 8.4609 C1.8515 8.4532 0.6933 8.4455 -0.5 8.4375 C-1.6621 8.4452 -2.8242 8.453 -4.0215 8.4609 C-5.1294 8.4584 -6.2374 8.4558 -7.3789 8.4531 C-8.3967 8.4509 -9.4145 8.4486 -10.4631 8.4463 C-12.9375 8.1875 -12.9375 8.1875 -14.9375 6.1875 C-13.8775 -2.5044 -7.4031 0.0039 0 0 Z " fill="#C7942B" transform="translate(1170.9375,225.8125)"/>
<path d="M0 0 C3.9693 -0.0247 7.9386 -0.0428 11.908 -0.0549 C13.2592 -0.06 14.6104 -0.0668 15.9617 -0.0754 C17.9002 -0.0875 19.8388 -0.0927 21.7773 -0.0977 C22.3612 -0.1003 22.3612 -0.1003 25.3162 -0.1135 C28 0 28 0 29 1 C29.1875 3.4375 29.1875 3.4375 29 6 C27 8 27 8 24.3862 8.2271 C23.3074 8.2166 22.2287 8.2061 21.1172 8.1953 C19.9506 8.1889 18.784 8.1824 17.582 8.1758 C16.3587 8.159 15.1354 8.1423 13.875 8.125 C12.6439 8.116 11.4129 8.107 10.1445 8.0977 C7.0962 8.074 4.0482 8.0411 1 8 C-0.3544 5.2912 -0.065 2.9907 0 0 Z " fill="#CFA348" transform="translate(318,226)"/>
<path d="M0 0 C1.2188 -0.0122 2.4376 -0.0245 3.6934 -0.0371 C4.2744 -0.0381 4.2744 -0.0381 7.2148 -0.043 C8.2873 -0.0471 9.3597 -0.0512 10.4646 -0.0554 C13.0625 0.1875 13.0625 0.1875 15.0625 2.1875 C15.0625 3.5075 15.0625 4.8275 15.0625 6.1875 C14.4025 6.1875 13.7425 6.1875 13.0625 6.1875 C13.0625 6.8475 13.0625 7.5075 13.0625 8.1875 C8.9584 8.2455 4.8544 8.2811 0.75 8.3125 C-0.4172 8.3293 -1.5845 8.346 -2.7871 8.3633 C-3.3462 8.3665 -3.3462 8.3665 -6.1758 8.3828 C-6.6916 8.388 -6.6916 8.388 -9.302 8.4146 C-11.9375 8.1875 -11.9375 8.1875 -14.9375 6.1875 C-13.3922 -2.4219 -7.7971 0.0041 0 0 Z " fill="#C89730" transform="translate(770.9375,225.8125)"/>
<path d="M0 0 C1.1608 -0.0013 2.3216 -0.0026 3.5176 -0.0039 C4.7403 -0 5.9629 0.0038 7.2227 0.0078 C8.4415 0.0039 9.6603 0.0001 10.916 -0.0039 C11.4971 -0.0033 11.4971 -0.0033 14.4375 0 C15.5099 0.0011 16.5823 0.0023 17.6873 0.0034 C20.2852 0.1328 20.2852 0.1328 22.2852 1.1328 C22.2852 2.7828 22.2852 4.4328 22.2852 6.1328 C19.6535 7.4486 17.6704 7.2624 14.7266 7.2656 C14.1726 7.2663 14.1726 7.2663 11.3691 7.2695 C10.2071 7.2657 9.045 7.2618 7.8477 7.2578 C6.6894 7.2617 5.5312 7.2655 4.3379 7.2695 C3.2287 7.2682 2.1194 7.267 0.9766 7.2656 C-0.0424 7.2645 -1.0613 7.2634 -2.1111 7.2622 C-4.7148 7.1328 -4.7148 7.1328 -7.7148 6.1328 C-6.6314 0.0962 -6.13 0.0065 0 0 Z " fill="#CB9D3C" transform="translate(1043.71484375,225.8671875)"/>
<path d="M0 0 C8.91 0 17.82 0 27 0 C27.33 1.98 27.66 3.96 28 6 C26.2255 7.7745 23.6498 7.1303 21.25 7.1328 C20.0847 7.1341 18.9194 7.1354 17.7188 7.1367 C16.4916 7.1329 15.2644 7.129 14 7.125 C13.3864 7.1269 13.3864 7.1269 10.2812 7.1367 C9.1159 7.1354 7.9506 7.1341 6.75 7.1328 C5.6723 7.1317 4.5947 7.1306 3.4844 7.1294 C1 7 1 7 0 6 C0 4.02 0 2.04 0 0 Z " fill="#C59125" transform="translate(478,226)"/>
<path d="M0 0 C1.084 0.0052 2.168 0.0105 3.2849 0.0159 C3.8698 0.0175 3.8698 0.0175 6.8298 0.0256 C7.4457 0.0298 7.4457 0.0298 10.5623 0.051 C11.18 0.0533 11.18 0.0533 14.3064 0.0647 C17.3709 0.0765 20.4353 0.093 23.4998 0.1135 C23.8819 1.7697 24.2137 3.4381 24.4998 5.1135 C23.4998 6.1135 23.4998 6.1135 20.8159 6.2271 C19.6481 6.2218 18.4803 6.2166 17.2771 6.2112 C16.017 6.208 14.757 6.2047 13.4587 6.2014 C12.1182 6.1931 10.7777 6.1846 9.4373 6.176 C8.0929 6.171 6.7485 6.1664 5.4041 6.1624 C2.1026 6.1505 -1.1988 6.134 -4.5002 6.1135 C-3.4309 0.1558 -3.4309 0.1558 0 0 Z " fill="#C99832" transform="translate(1120.500244140625,225.886474609375)"/>
<path d="M0 0 C1.084 0.0052 2.168 0.0105 3.2849 0.0159 C3.8698 0.0175 3.8698 0.0175 6.8298 0.0256 C7.4457 0.0298 7.4457 0.0298 10.5623 0.051 C11.18 0.0533 11.18 0.0533 14.3064 0.0647 C17.3709 0.0765 20.4353 0.093 23.4998 0.1135 C23.8819 1.7697 24.2137 3.4381 24.4998 5.1135 C23.4998 6.1135 23.4998 6.1135 20.8159 6.2271 C19.6481 6.2218 18.4803 6.2166 17.2771 6.2112 C16.017 6.208 14.757 6.2047 13.4587 6.2014 C12.1182 6.1931 10.7777 6.1846 9.4373 6.176 C8.0929 6.171 6.7485 6.1664 5.4041 6.1624 C2.1026 6.1505 -1.1988 6.134 -4.5002 6.1135 C-3.4309 0.1558 -3.4309 0.1558 0 0 Z " fill="#C99832" transform="translate(1080.500244140625,225.886474609375)"/>
<path d="M0 0 C1.1711 -0.0122 2.3422 -0.0245 3.5488 -0.0371 C4.6658 -0.039 5.7828 -0.041 6.9336 -0.043 C7.9641 -0.0471 8.9946 -0.0512 10.0564 -0.0554 C12.5625 0.1875 12.5625 0.1875 14.5625 2.1875 C14.5625 3.5075 14.5625 4.8275 14.5625 6.1875 C10.1042 6.2164 5.6459 6.2343 1.1875 6.25 C-0.0835 6.2584 -1.3545 6.2668 -2.6641 6.2754 C-3.2699 6.277 -3.2699 6.277 -6.3359 6.2852 C-6.8963 6.2878 -6.8963 6.2878 -9.7319 6.301 C-12.4375 6.1875 -12.4375 6.1875 -14.4375 5.1875 C-12.7502 -2.2847 -6.7208 0.0037 0 0 Z " fill="#C99832" transform="translate(811.4375,225.8125)"/>
<path d="M0 0 C1.1678 0.0052 2.3356 0.0105 3.5388 0.0159 C4.7989 0.0191 6.0589 0.0223 7.3572 0.0256 C8.6977 0.034 10.0382 0.0425 11.3787 0.051 C12.7231 0.056 14.0675 0.0606 15.4119 0.0647 C18.7133 0.0765 22.0147 0.093 25.3162 0.1135 C25.6462 2.4235 25.9762 4.7335 26.3162 7.1135 C25.6562 7.1135 24.9962 7.1135 24.3162 7.1135 C24.3162 7.7735 24.3162 8.4335 24.3162 9.1135 C20.0455 9.2004 15.775 9.2539 11.5037 9.301 C10.8962 9.3136 10.8962 9.3136 7.822 9.3772 C7.2403 9.382 7.2403 9.382 4.2966 9.4065 C3.2231 9.4222 2.1495 9.4379 1.0435 9.4541 C-1.6838 9.1135 -1.6838 9.1135 -3.5732 7.7593 C-4.6838 6.1135 -4.6838 6.1135 -4.4338 3.4885 C-3.3773 0.1429 -3.3773 0.1429 0 0 Z M-1.6838 1.1135 C-2.0138 2.7635 -2.3438 4.4135 -2.6838 6.1135 C6.2262 6.1135 15.1362 6.1135 24.3162 6.1135 C24.3162 4.4635 24.3162 2.8135 24.3162 1.1135 C15.7362 1.1135 7.1562 1.1135 -1.6838 1.1135 Z " fill="#DEC183" transform="translate(161.683837890625,224.886474609375)"/>
<path d="M0 0 C0.66 0 1.32 0 2 0 C2 5.61 2 11.22 2 17 C2.99 17 3.98 17 5 17 C5 11.72 5 6.44 5 1 C5.99 0.67 6.98 0.34 8 0 C8.0579 3.1249 8.0936 6.2497 8.125 9.375 C8.1418 10.2645 8.1585 11.1539 8.1758 12.0703 C8.1822 12.9211 8.1887 13.7719 8.1953 14.6484 C8.2058 15.434 8.2163 16.2195 8.2271 17.0288 C8 19 8 19 6 21 C1.4444 20.4444 1.4444 20.4444 0 19 C-0.0865 17.5843 -0.107 16.1644 -0.0977 14.7461 C-0.0944 13.8921 -0.0912 13.0381 -0.0879 12.1582 C-0.0795 11.2604 -0.0711 10.3625 -0.0625 9.4375 C-0.058 8.5358 -0.0535 7.6341 -0.0488 6.7051 C-0.037 4.47 -0.0205 2.235 0 0 Z " fill="#CFA44B" transform="translate(746,60)"/>
<path d="M0 0 C8.58 0 17.16 0 26 0 C26.33 1.32 26.66 2.64 27 4 C17.76 4 8.52 4 -1 4 C-0.67 2.68 -0.34 1.36 0 0 Z " fill="#C69226" transform="translate(958,227)"/>
<path d="M0 0 C1.2555 -0.0013 2.5111 -0.0026 3.8047 -0.0039 C4.4618 -0.0018 5.1189 0.0003 5.7959 0.0024 C7.8041 0.0078 9.8121 0.0025 11.8203 -0.0039 C13.0759 -0.0026 14.3314 -0.0013 15.625 0 C16.7864 0.0011 17.9479 0.0023 19.1445 0.0034 C21.8125 0.1328 21.8125 0.1328 22.8125 1.1328 C22.9375 4.1328 22.9375 4.1328 22.8125 7.1328 C21.0142 8.9311 18.3027 8.2632 15.8789 8.2656 C15.2759 8.2663 15.2759 8.2663 12.2246 8.2695 C10.9542 8.2657 9.6839 8.2618 8.375 8.2578 C7.1085 8.2617 5.842 8.2655 4.5371 8.2695 C3.3299 8.2682 2.1227 8.267 0.8789 8.2656 C-0.2354 8.2645 -1.3497 8.2634 -2.4978 8.2622 C-5.1875 8.1328 -5.1875 8.1328 -7.1875 7.1328 C-7.23 5.1333 -7.2283 3.1324 -7.1875 1.1328 C-5.3572 -0.6975 -2.4554 0.0024 0 0 Z M-5.1875 1.1328 C-5.1875 2.7828 -5.1875 4.4328 -5.1875 6.1328 C3.3925 6.1328 11.9725 6.1328 20.8125 6.1328 C20.8125 4.4828 20.8125 2.8328 20.8125 1.1328 C12.2325 1.1328 3.6525 1.1328 -5.1875 1.1328 Z " fill="#DBBC79" transform="translate(1402.1875,225.8671875)"/>
<path d="M0 0 C0.66 0.33 1.32 0.66 2 1 C2.0425 2.9995 2.0408 5.0004 2 7 C-0.7061 9.7061 -8.7307 8.2352 -12.375 8.25 C-13.6331 8.2706 -14.8912 8.2912 -16.1875 8.3125 C-17.3915 8.3177 -18.5955 8.3228 -19.8359 8.3281 C-20.945 8.3375 -22.0541 8.3468 -23.1968 8.3564 C-26 8 -26 8 -27.9048 6.6162 C-29 5 -29 5 -28.6875 2.8125 C-28.5741 2.5134 -28.5741 2.5134 -28 1 C-27.67 2.32 -27.34 3.64 -27 5 C-19.08 5 -11.16 5 -3 5 C-2.67 4.34 -2.34 3.68 -2 3 C-2 3.66 -2 4.32 -2 5 C-1.34 5 -0.68 5 0 5 C0 3.35 0 1.7 0 0 Z " fill="#DAB974" transform="translate(1463,226)"/>
<path d="M0 0 C8.58 0 17.16 0 26 0 C26 1.32 26 2.64 26 4 C17.42 4 8.84 4 0 4 C0 2.68 0 1.36 0 0 Z " fill="#C59226" transform="translate(239,227)"/>
<path d="M0 0 C8.58 0 17.16 0 26 0 C26 1.32 26 2.64 26 4 C17.42 4 8.84 4 0 4 C0 2.68 0 1.36 0 0 Z " fill="#C59226" transform="translate(199,227)"/>
<path d="M0 0 C1.1259 0.0052 2.2518 0.0105 3.4119 0.0159 C4.6268 0.0191 5.8417 0.0223 7.0935 0.0256 C8.3729 0.034 9.6523 0.0424 10.9705 0.051 C12.2537 0.0555 13.537 0.06 14.8591 0.0647 C18.0421 0.0765 21.225 0.093 24.408 0.1135 C24.408 0.4435 24.408 0.7735 24.408 1.1135 C15.828 1.4435 7.248 1.7735 -1.592 2.1135 C-1.592 3.1035 -1.592 4.0935 -1.592 5.1135 C7.318 5.1135 16.228 5.1135 25.408 5.1135 C25.738 4.1235 26.068 3.1335 26.408 2.1135 C26.408 3.4335 26.408 4.7535 26.408 6.1135 C25.748 6.1135 25.088 6.1135 24.408 6.1135 C24.408 6.7735 24.408 7.4335 24.408 8.1135 C20.1163 8.1714 15.8248 8.2071 11.533 8.2385 C10.3096 8.2553 9.0863 8.272 7.8259 8.2893 C7.2426 8.2925 7.2426 8.2925 4.2908 8.3088 C3.212 8.3193 2.1332 8.3298 1.0217 8.3406 C-1.592 8.1135 -1.592 8.1135 -3.592 6.1135 C-3.7795 3.551 -3.7795 3.551 -3.592 1.1135 C-2.592 0.1135 -2.592 0.1135 0 0 Z " fill="#DAB974" transform="translate(919.592041015625,225.886474609375)"/>
<path d="M0 0 C4.2916 -0.0578 8.5831 -0.0935 12.875 -0.125 C14.0983 -0.1418 15.3216 -0.1585 16.582 -0.1758 C17.7486 -0.1822 18.9152 -0.1887 20.1172 -0.1953 C21.196 -0.2058 22.2748 -0.2163 23.3862 -0.2271 C26 0 26 0 28 2 C28 3.32 28 4.64 28 6 C24.5537 8.2976 23.2893 8.2364 19.2383 8.1953 C18.12 8.1889 17.0018 8.1824 15.8496 8.1758 C15.266 8.1674 15.266 8.1674 12.3125 8.125 C11.1337 8.116 9.9548 8.107 8.7402 8.0977 C5.8266 8.0741 2.9134 8.0411 0 8 C-0.33 7.34 -0.66 6.68 -1 6 C7.58 5.67 16.16 5.34 25 5 C25 3.68 25 2.36 25 1 C16.75 1 8.5 1 0 1 C0 0.67 0 0.34 0 0 Z " fill="#DAB872" transform="translate(1158,226)"/>
<path d="M0 0 C1.0788 0.0105 2.1576 0.0209 3.269 0.0317 C3.8523 0.035 3.8523 0.035 6.8042 0.0513 C8.0275 0.068 9.2508 0.0848 10.5112 0.1021 C11.7423 0.1111 12.9733 0.1201 14.2417 0.1294 C17.2901 0.153 20.3381 0.186 23.3862 0.2271 C23.3862 0.5571 23.3862 0.8871 23.3862 1.2271 C19.2612 1.3921 19.2612 1.3921 -1.6138 2.2271 C-2.2738 3.5471 -2.9338 4.8671 -3.6138 6.2271 C0.8412 6.3921 0.8412 6.3921 23.3862 7.2271 C23.3862 7.8871 23.3862 8.5471 23.3862 9.2271 C19.1155 9.285 14.8448 9.3206 10.5737 9.3521 C9.3588 9.3688 8.1438 9.3856 6.8921 9.4028 C5.7287 9.4093 4.5653 9.4157 3.3667 9.4224 C2.8299 9.4276 2.8299 9.4276 0.1135 9.4541 C-2.6138 9.2271 -2.6138 9.2271 -5.6138 7.2271 C-4.5349 0.3939 -4.5349 0.3939 0 0 Z " fill="#E4CC9B" transform="translate(800.61376953125,224.77294921875)"/>
<path d="M0 0 C0.33 1.32 0.66 2.64 1 4 C10.24 4 19.48 4 29 4 C28.67 2.68 28.34 1.36 28 0 C28.66 0.33 29.32 0.66 30 1 C30 2.32 30 3.64 30 5 C29.34 5 28.68 5 28 5 C28 5.66 28 6.32 28 7 C23.7084 7.0578 19.4169 7.0935 15.125 7.125 C13.9017 7.1418 12.6784 7.1585 11.418 7.1758 C10.8347 7.179 10.8347 7.179 7.8828 7.1953 C6.804 7.2058 5.7252 7.2163 4.6138 7.2271 C2 7 2 7 0 5 C-0.125 2.375 -0.125 2.375 0 0 Z " fill="#D8B66E" transform="translate(996,227)"/>
<path d="M0 0 C8.91 0 17.82 0 27 0 C27 0.33 27 0.66 27 1 C18.42 1 9.84 1 1 1 C1 2.32 1 3.64 1 5 C8.59 5 16.18 5 24 5 C24.33 4.34 24.66 3.68 25 3 C25 3.66 25 4.32 25 5 C25.66 5 26.32 5 27 5 C27.33 4.01 27.66 3.02 28 2 C27.67 3.65 27.34 5.3 27 7 C22.6875 7.0289 18.3751 7.0468 14.0625 7.0625 C12.8308 7.0709 11.5991 7.0793 10.3301 7.0879 C9.1603 7.0911 7.9904 7.0943 6.7852 7.0977 C6.2431 7.1003 6.2431 7.1003 3.5002 7.1135 C1 7 1 7 0 6 C0 4.02 0 2.04 0 0 Z " fill="#D0A64F" transform="translate(478,226)"/>
<path d="M0 0 C0.33 0.99 0.66 1.98 1 3 C10.24 3 19.48 3 29 3 C29.33 2.01 29.66 1.02 30 0 C30 1.32 30 2.64 30 4 C29.34 4 28.68 4 28 4 C28 4.66 28 5.32 28 6 C23.8959 6.058 19.7919 6.0936 15.6875 6.125 C14.5203 6.1418 13.353 6.1585 12.1504 6.1758 C11.5913 6.179 11.5913 6.179 8.7617 6.1953 C8.2459 6.2005 8.2459 6.2005 5.6355 6.2271 C3 6 3 6 0 4 C0 2.68 0 1.36 0 0 Z " fill="#D8B56C" transform="translate(756,228)"/>
<path d="M0 0 C1.875 0.75 1.875 0.75 2.875 1.75 C2.9468 3.2693 2.9589 4.7917 2.9375 6.3125 C2.9285 7.1388 2.9195 7.9651 2.9102 8.8164 C2.8986 9.4545 2.887 10.0926 2.875 10.75 C0 11.375 0 11.375 -3.125 11.75 C-5.125 9.75 -5.125 9.75 -5.4375 6.3125 C-5.125 2.75 -5.125 2.75 -3.875 0.75 C-2.125 -0.25 -2.125 -0.25 0 0 Z " fill="#B88B30" transform="translate(751.125,411.25)"/>
<path d="M0 0 C1.32 0 2.64 0 4 0 C4 0.66 4 1.32 4 2 C3.01 2.66 2.02 3.32 1 4 C0.5676 6.522 0.5676 6.522 0.4883 9.6641 C0.4528 10.7855 0.4174 11.907 0.3809 13.0625 C0.3583 14.2381 0.3357 15.4137 0.3125 16.625 C0.2783 17.8084 0.2442 18.9917 0.209 20.2109 C0.1263 23.1405 0.0572 26.0698 0 29 C1.32 29.33 2.64 29.66 4 30 C2.35 30 0.7 30 -1 30 C-3.1743 25.6515 -2.185 19.7764 -2.1875 15 C-2.1997 13.7857 -2.212 12.5714 -2.2246 11.3203 C-2.2265 10.1627 -2.2285 9.0052 -2.2305 7.8125 C-2.2346 6.7464 -2.2387 5.6804 -2.2429 4.582 C-2 2 -2 2 0 0 Z " fill="#D5B062" transform="translate(748,370)"/>
<path d="M0 0 C0.66 0.165 0.66 0.165 4 1 C4 9.91 4 18.82 4 28 C2.68 28 1.36 28 0 28 C0 27.34 0 26.68 0 26 C0.66 26 1.32 26 2 26 C1.67 18.74 1.34 11.48 1 4 C0.34 4 -0.32 4 -1 4 C-0.67 2.68 -0.34 1.36 0 0 Z " fill="#C7942B" transform="translate(749,331)"/>
<path d="M0 0 C7.26 0 14.52 0 22 0 C21.67 0.99 21.34 1.98 21 3 C14.07 3 7.14 3 0 3 C0 2.01 0 1.02 0 0 Z " fill="#C7942A" transform="translate(1439,228)"/>
</svg>
