<?xml version="1.0" encoding="UTF-8"?>
<!-- Generator: visioncortex VTracer 0.6.12 -->
<svg version="1.1" xmlns="http://www.w3.org/2000/svg" width="1600" height="474">
<path d="M0 0 C528 0 1056 0 1600 0 C1600 156.42 1600 312.84 1600 474 C1072 474 544 474 0 474 C0 317.58 0 161.16 0 0 Z " fill="#FEFEFE" transform="translate(0,0)"/>
<path d="M0 0 C0.4824 -0.0047 0.4824 -0.0047 2.9235 -0.0284 C6.1474 -0.0522 9.3696 -0.0334 12.5935 -0.0145 C14.9083 -0.0226 17.2231 -0.0333 19.5378 -0.0463 C25.8189 -0.0737 32.0993 -0.0631 38.3804 -0.0441 C44.9541 -0.0289 51.5278 -0.0429 58.1016 -0.0524 C69.848 -0.0652 81.5942 -0.0453 93.3407 -0.0148 C103.9846 0.012 114.6282 0.0073 125.2722 -0.0203 C137.6416 -0.0525 150.0107 -0.0644 162.3801 -0.0467 C168.9247 -0.0373 175.4689 -0.036 182.0135 -0.0559 C188.1664 -0.0732 194.3186 -0.0612 200.4714 -0.0265 C202.7293 -0.0186 204.9872 -0.0208 207.245 -0.0341 C210.3281 -0.0505 213.4088 -0.0299 216.4917 0 C217.3848 -0.0134 218.2779 -0.0268 219.1981 -0.0406 C224.7203 0.0633 227.9937 1.1721 231.9724 5.0967 C233.8765 7.5866 234.1185 9.4339 234.1145 12.5437 C234.13 13.6736 234.1454 14.8036 234.1612 15.9678 C234.1423 17.1929 234.1235 18.4181 234.104 19.6804 C234.1115 20.9818 234.1189 22.2832 234.1266 23.6241 C234.1456 27.1823 234.121 30.739 234.0873 34.297 C234.0584 38.0241 234.0661 41.7511 234.0688 45.4782 C234.0678 51.7343 234.0394 57.9898 233.9937 64.2458 C233.941 71.4771 233.927 78.7077 233.9347 85.9393 C233.9416 92.9008 233.9257 99.8621 233.8979 106.8236 C233.8862 109.7845 233.8817 112.7452 233.8827 115.7061 C233.8826 119.8385 233.8487 123.97 233.811 128.1022 C233.8127 128.7168 233.8127 128.7168 233.8213 131.8271 C233.8135 132.3892 233.8135 132.3892 233.774 135.2341 C233.7713 135.7224 233.7713 135.7224 233.7576 138.1937 C233.0927 141.5304 231.9099 142.6987 229.2458 144.7619 C226.4959 145.6378 224.0074 145.8877 221.1316 145.8905 C220.3157 145.8938 219.4998 145.897 218.6592 145.9003 C217.7683 145.8988 216.8775 145.8972 215.9596 145.8956 C215.4843 145.8967 215.4843 145.8967 213.0789 145.9025 C209.8853 145.9088 206.6918 145.908 203.4983 145.9072 C201.2119 145.9102 198.9255 145.9136 196.6391 145.9173 C190.4222 145.9262 184.2053 145.9285 177.9884 145.9292 C172.8019 145.9301 167.6154 145.9338 162.4288 145.9373 C150.8935 145.945 139.3581 145.948 127.8227 145.9473 C127.4766 145.9473 127.4766 145.9473 125.7253 145.9472 C125.0324 145.9472 124.3394 145.9471 123.6254 145.9471 C112.3941 145.9467 101.1629 145.9562 89.9316 145.9703 C78.3985 145.9847 66.8655 145.9914 55.3324 145.9907 C48.8578 145.9905 42.3832 145.9934 35.9086 146.0039 C29.82 146.0136 23.7315 146.0137 17.6429 146.0064 C15.4071 146.0054 13.1714 146.0077 10.9357 146.0138 C7.8857 146.0215 4.836 146.0169 1.786 146.0091 C0.8997 146.0143 0.0133 146.0194 -0.9 146.0247 C-6.3218 145.9944 -11.0041 145.6756 -15.6037 142.4749 C-17.2312 140.0516 -17.1432 138.2622 -17.162 135.3544 C-17.1763 134.2314 -17.1905 133.1085 -17.2052 131.9515 C-17.2054 130.7187 -17.2056 129.4859 -17.2058 128.2158 C-17.2175 126.918 -17.2292 125.6202 -17.2412 124.2831 C-17.272 120.721 -17.2831 117.1591 -17.2889 113.5968 C-17.2932 111.3707 -17.3016 109.1446 -17.3114 106.9185 C-17.3451 99.1504 -17.3622 91.3824 -17.365 83.6142 C-17.368 76.3765 -17.4085 69.1397 -17.4661 61.9023 C-17.5139 55.6864 -17.5347 49.4709 -17.5348 43.2548 C-17.5353 39.5432 -17.5469 35.8323 -17.586 32.1208 C-17.6285 27.9787 -17.615 23.8385 -17.5964 19.6962 C-17.6169 18.4695 -17.6373 17.2428 -17.6584 15.9789 C-17.6514 15.4132 -17.6514 15.4132 -17.6161 12.5504 C-17.6187 11.5717 -17.6212 10.5929 -17.6239 9.5845 C-15.03 1.1661 -7.8308 -0.1174 0 0 Z " fill="#D7D0C2" transform="translate(616.754150390625,163.23809814453125)"/>
<path d="M0 0 C0.966 -0.0074 1.932 -0.0148 2.9273 -0.0224 C6.1617 -0.0386 9.3935 -0.0048 12.6277 0.0288 C14.9471 0.0275 17.2666 0.0232 19.5861 0.016 C25.8837 0.0054 32.1804 0.0384 38.4778 0.0796 C45.0636 0.1159 51.6494 0.1142 58.2353 0.117 C69.2933 0.1259 80.351 0.1631 91.4089 0.2173 C102.7872 0.273 114.1653 0.3084 125.5437 0.3198 C126.2448 0.3205 126.9459 0.3213 127.6682 0.322 C129.0806 0.3234 130.4929 0.3248 131.9053 0.3262 C132.602 0.3269 133.2987 0.3276 134.0165 0.3283 C134.364 0.3286 134.364 0.3286 136.1224 0.3303 C147.6214 0.3423 159.1204 0.3722 170.6193 0.4037 C174.5462 0.4138 178.4732 0.4219 182.4002 0.4298 C188.5643 0.4435 194.7284 0.468 200.8925 0.501 C203.1581 0.5116 205.4237 0.5189 207.6892 0.5226 C210.7749 0.5283 213.8602 0.5463 216.9458 0.5676 C217.8483 0.5666 218.7508 0.5655 219.6807 0.5644 C220.5071 0.5727 221.3334 0.581 222.1848 0.5896 C222.8969 0.5926 223.6091 0.5957 224.3428 0.5988 C226.6745 0.8973 228.3112 1.7052 230.3459 2.8552 C230.3459 3.5152 230.3459 4.1752 230.3459 4.8552 C231.0059 4.8552 231.6659 4.8552 232.3459 4.8552 C232.4394 22.501 232.5099 40.1468 232.5532 57.7928 C232.5738 65.9861 232.6019 74.1793 232.6477 82.3726 C232.6875 89.5138 232.7133 96.655 232.7223 103.7963 C232.7275 107.5777 232.7397 111.3587 232.7688 115.1399 C232.796 118.6998 232.8044 122.2592 232.7983 125.8191 C232.8 127.7469 232.8215 129.6747 232.8436 131.6024 C232.8381 132.7536 232.8326 133.9048 232.8269 135.0909 C232.8306 136.0892 232.8343 137.0875 232.8381 138.116 C232.2086 141.6195 230.774 143.3028 228.3459 145.8552 C224.903 147.5767 220.9346 146.9876 217.1459 146.9755 C216.1805 146.9763 215.2151 146.9772 214.2204 146.9781 C210.9652 146.9797 207.71 146.9742 204.4548 146.9688 C202.1294 146.9685 199.804 146.9686 197.4786 146.9692 C191.1484 146.9695 184.8181 146.9636 178.4879 146.9566 C172.5478 146.951 166.6077 146.95 160.6677 146.949 C148.9001 146.9468 137.1325 146.9401 125.365 146.9307 C113.932 146.9215 102.4991 146.9144 91.0661 146.9102 C90.3617 146.9099 89.6573 146.9096 88.9316 146.9094 C85.3979 146.9081 81.8642 146.9068 78.3305 146.9056 C49.0023 146.8952 19.6741 146.8775 -9.6541 146.8552 C-9.6541 146.1952 -9.6541 145.5352 -9.6541 144.8552 C-10.9741 144.1952 -12.2941 143.5352 -13.6541 142.8552 C-13.6541 142.1952 -13.6541 141.5352 -13.6541 140.8552 C-14.3141 140.8552 -14.9741 140.8552 -15.6541 140.8552 C-15.7943 123.6352 -15.9001 106.4153 -15.965 89.1948 C-15.9959 81.1987 -16.038 73.2029 -16.1067 65.207 C-16.1666 58.2364 -16.2052 51.2661 -16.2186 44.2952 C-16.2264 40.6053 -16.2447 36.9161 -16.2885 33.2264 C-16.3369 29.1036 -16.338 24.982 -16.3352 20.8589 C-16.3568 19.6404 -16.3784 18.4219 -16.4006 17.1665 C-16.3965 16.6022 -16.3965 16.6022 -16.3756 13.7462 C-16.3811 12.7719 -16.3867 11.7975 -16.3924 10.7937 C-14.1479 1.8604 -8.4978 -0.18 0 0 Z " fill="#D7D0C2" transform="translate(1015.6540832519531,163.14476013183594)"/>
<path d="M0 0 C0.9646 -0.0085 1.9292 -0.017 2.9231 -0.0258 C6.1522 -0.048 9.3802 -0.0346 12.6094 -0.0212 C14.9256 -0.0296 17.2419 -0.0401 19.5581 -0.0526 C25.8473 -0.0797 32.1362 -0.075 38.4254 -0.0629 C43.6742 -0.0558 48.9229 -0.0643 54.1717 -0.0728 C67.2599 -0.0939 80.3479 -0.0848 93.4362 -0.0613 C104.093 -0.0431 114.7495 -0.054 125.4062 -0.0856 C137.7866 -0.1224 150.1667 -0.1388 162.5471 -0.1262 C169.0989 -0.1197 175.6504 -0.1218 182.2021 -0.1456 C188.3616 -0.1668 194.5203 -0.1589 200.6797 -0.1285 C202.9413 -0.1221 205.2028 -0.126 207.4643 -0.1409 C210.5499 -0.1595 213.6332 -0.1412 216.7188 -0.1135 C217.6154 -0.1276 218.5121 -0.1417 219.436 -0.1562 C223.8317 -0.0766 226.593 0.3109 229.9147 3.3279 C232.4209 6.2845 233.1107 8.4872 233.1145 12.4167 C233.1223 12.9809 233.1223 12.9809 233.1614 15.8364 C233.1477 17.06 233.134 18.2836 233.1199 19.5442 C233.1243 20.1941 233.1243 20.1941 233.1469 23.4831 C233.1699 27.0371 233.1553 30.5899 233.1324 34.1439 C233.1134 37.8678 233.1246 41.5916 233.1313 45.3156 C233.1376 51.5674 233.1194 57.8188 233.0867 64.0706 C233.0492 71.294 233.051 78.5167 233.0737 85.7402 C233.0947 92.6964 233.0874 99.6523 233.0674 106.6085 C233.0594 109.5658 233.0614 112.5228 233.0714 115.4801 C233.0839 119.61 233.0552 123.7387 233.0222 127.8685 C233.0265 128.4813 233.0265 128.4813 233.0481 131.5824 C233.0326 132.7081 233.017 133.8338 233.001 134.9936 C232.9978 135.9694 232.9947 136.9451 232.9914 137.9504 C232.0645 141.8972 230.6475 143.2879 227.3594 145.6416 C224.1903 146.3504 221.1068 146.304 217.8702 146.2564 C217.39 146.2592 217.39 146.2592 214.96 146.2736 C211.7392 146.2865 208.5196 146.2637 205.2988 146.241 C202.991 146.2429 200.6831 146.2469 198.3752 146.253 C192.1046 146.263 185.8343 146.2417 179.5637 146.2145 C173.0064 146.1907 166.4491 146.1936 159.8917 146.1932 C148.8791 146.1894 137.8666 146.165 126.854 146.1287 C115.5242 146.0914 104.1946 146.0701 92.8647 146.0672 C92.1669 146.067 91.4691 146.0668 90.7502 146.0666 C90.4019 146.0665 90.4019 146.0665 88.6393 146.0661 C87.2367 146.0657 85.8341 146.0654 84.4316 146.065 C83.7398 146.0648 83.0481 146.0646 82.3355 146.0644 C70.8848 146.0606 59.4342 146.0398 47.9835 146.019 C44.0744 146.0127 40.1653 146.0091 36.2562 146.0059 C30.1167 146 23.9773 145.9837 17.8378 145.9593 C15.5823 145.9519 13.3268 145.9478 11.0713 145.9473 C7.9969 145.9461 4.9228 145.9326 1.8485 145.9158 C0.9521 145.9182 0.0557 145.9206 -0.8678 145.9231 C-6.1231 145.8781 -10.0413 145.5092 -14.4281 142.3574 C-16.1459 139.9267 -16.0267 138.1516 -16.0418 135.1894 C-16.0546 134.0566 -16.0674 132.9238 -16.0805 131.7567 C-16.0792 130.5129 -16.0778 129.2692 -16.0764 127.9878 C-16.0865 126.6787 -16.0966 125.3696 -16.1069 124.0208 C-16.1335 120.4277 -16.1405 116.8348 -16.1424 113.2417 C-16.1452 110.2422 -16.1563 107.2428 -16.1669 104.2433 C-16.1913 97.1661 -16.1987 90.089 -16.1965 83.0118 C-16.1947 75.7117 -16.2264 68.4123 -16.2738 61.1123 C-16.313 54.8447 -16.3291 48.5773 -16.3272 42.3095 C-16.3264 38.5661 -16.3349 34.8233 -16.3667 31.0801 C-16.4012 26.9043 -16.3875 22.7301 -16.3694 18.5542 C-16.3778 17.9344 -16.3778 17.9344 -16.4205 14.7977 C-16.4079 13.6593 -16.3953 12.5208 -16.3823 11.3479 C-16.384 10.3608 -16.3856 9.3738 -16.3873 8.3569 C-15.5165 5.1904 -14.1777 3.5529 -11.5414 1.5968 C-7.8461 -0.2601 -4.0592 -0.0474 0 0 Z " fill="#D7D0C2" transform="translate(217.640625,163.3583526611328)"/>
<path d="M0 0 C0.607 -0.0035 0.607 -0.0035 3.679 -0.0215 C5.0265 -0.0192 6.3741 -0.0167 7.7216 -0.014 C9.1393 -0.0183 10.5569 -0.0235 11.9745 -0.0294 C15.828 -0.0429 19.6814 -0.0434 23.535 -0.0409 C26.753 -0.0398 29.9709 -0.0447 33.1889 -0.0495 C40.784 -0.0606 48.379 -0.061 55.9741 -0.055 C63.8033 -0.0489 71.6324 -0.0612 79.4616 -0.0825 C86.1861 -0.1002 92.9106 -0.1062 99.6352 -0.1029 C103.6501 -0.1011 107.6649 -0.1037 111.6798 -0.1176 C115.4588 -0.1302 119.2375 -0.1282 123.0165 -0.1152 C124.4004 -0.1129 125.7842 -0.1156 127.1681 -0.1238 C134.2569 -0.1631 139.8891 -0.1485 146.1816 3.2607 C149.1191 3.9482 149.1191 3.9482 151.1816 4.2607 C151.1816 4.9207 151.1816 5.5807 151.1816 6.2607 C151.7436 6.3651 152.3056 6.4695 152.8847 6.5771 C162.227 9.3575 169.6836 17.9656 174.2673 26.2146 C177.1721 32.0939 177.8575 37.3197 177.9941 43.8232 C178.0321 44.7172 178.0701 45.6111 178.1093 46.5322 C178.609 61.065 174.4126 71.8246 164.9316 82.8857 C154.0763 92.2607 154.0763 92.2607 149.1816 92.2607 C149.1816 92.9207 149.1816 93.5807 149.1816 94.2607 C140.0839 96.7471 131.6993 97.6883 122.2883 97.6171 C120.9528 97.6179 119.6174 97.62 118.282 97.6233 C114.6974 97.6284 111.1131 97.6151 107.5285 97.5978 C103.7549 97.5826 99.9813 97.5839 96.2077 97.5831 C89.8776 97.5795 83.5476 97.5646 77.2175 97.5419 C69.1173 97.513 61.0173 97.5027 52.9171 97.4983 C45.9161 97.4943 38.9151 97.4818 31.9141 97.4679 C29.6805 97.4638 27.4469 97.4609 25.2134 97.4581 C21.0378 97.4523 16.8623 97.4376 12.6867 97.4218 C11.462 97.4207 10.2374 97.4196 8.9756 97.4184 C-9.9984 97.324 -9.9984 97.324 -18.8184 92.2607 C-18.8184 91.6007 -18.8184 90.9407 -18.8184 90.2607 C-19.499 90.2401 -20.1797 90.2194 -20.8809 90.1982 C-27.8939 87.96 -32.0725 80.7906 -36.2559 75.0732 C-36.7054 74.4671 -37.1549 73.861 -37.618 73.2365 C-40.0107 69.875 -40.8184 68.5087 -40.8184 64.2607 C-41.4784 64.2607 -42.1384 64.2607 -42.8184 64.2607 C-43.8172 59.259 -44.0017 54.4625 -44.0059 49.3857 C-44.012 49.0035 -44.012 49.0035 -44.043 47.0693 C-44.0632 39.132 -42.1143 32.4518 -38.8184 25.2607 C-38.1584 25.2607 -37.4984 25.2607 -36.8184 25.2607 C-36.7153 24.5182 -36.6122 23.7757 -36.5059 23.0107 C-35.7691 20.0633 -34.8704 18.4769 -32.8184 16.2607 C-32.1584 16.2607 -31.4984 16.2607 -30.8184 16.2607 C-30.8184 15.6007 -30.8184 14.9407 -30.8184 14.2607 C-30.1584 14.2607 -29.4984 14.2607 -28.8184 14.2607 C-28.8184 13.6007 -28.8184 12.9407 -28.8184 12.2607 C-23.6691 6.9842 -18.3452 4.3825 -11.2012 2.8662 C-6.8102 1.7504 -4.7897 0.0093 0 0 Z " fill="#E7E2D7" transform="translate(1388.8184204101563,185.7393035888672)"/>
<path d="M0 0 C0.9745 0.0135 1.9491 0.0271 2.9531 0.041 C5.3443 0.0762 7.7344 0.1254 10.125 0.1875 C10.125 0.8475 10.125 1.5075 10.125 2.1875 C12.105 2.1875 14.085 2.1875 16.125 2.1875 C16.125 2.8475 16.125 3.5075 16.125 4.1875 C16.6613 4.27 17.1975 4.3525 17.75 4.4375 C24.6377 6.6126 29.6818 12.083 33.2969 18.1562 C34.125 20.1875 34.125 20.1875 34.125 24.1875 C34.785 24.1875 35.445 24.1875 36.125 24.1875 C38.2934 35.8515 37.5203 45.655 32.125 56.1875 C31.465 56.1875 30.805 56.1875 30.125 56.1875 C30.0322 56.5381 30.0322 56.5381 29.5625 58.3125 C27.5626 62.3123 24.6043 64.4717 21.125 67.1875 C20.465 67.7444 19.805 68.3012 19.125 68.875 C16.2934 70.7332 13.2544 71.9125 10.125 73.1875 C9.795 73.3525 9.795 73.3525 8.125 74.1875 C-0.3649 74.7332 -7.9869 74.6164 -15.875 71.1875 C-16.37 71.0225 -16.37 71.0225 -18.875 70.1875 C-18.875 69.5275 -18.875 68.8675 -18.875 68.1875 C-19.468 68.0779 -20.0609 67.9684 -20.6719 67.8555 C-27.5573 65.7679 -31.9541 57.7851 -35.3594 51.8687 C-39.9608 42.9756 -38.8035 33.7388 -36.3125 24.3125 C-34.248 18.3256 -31.1734 13.7951 -26.875 9.1875 C-26.3774 8.6435 -25.8798 8.0995 -25.3672 7.5391 C-22.9223 5.3246 -19.9068 4.4208 -16.875 3.1875 C-16.0332 2.6654 -15.1915 2.1434 -14.3242 1.6055 C-9.4979 -0.3786 -5.1588 -0.1363 0 0 Z " fill="#C89730" transform="translate(1513.875,197.8125)"/>
<path d="M0 0 C0.607 -0.0035 0.607 -0.0035 3.679 -0.0215 C5.0265 -0.0192 6.3741 -0.0167 7.7216 -0.014 C9.1393 -0.0183 10.5569 -0.0235 11.9745 -0.0294 C15.828 -0.0429 19.6814 -0.0434 23.535 -0.0409 C26.753 -0.0398 29.9709 -0.0447 33.1889 -0.0495 C40.784 -0.0606 48.379 -0.061 55.9741 -0.055 C63.8033 -0.0489 71.6324 -0.0612 79.4616 -0.0825 C86.1861 -0.1002 92.9106 -0.1062 99.6352 -0.1029 C103.6501 -0.1011 107.6649 -0.1037 111.6798 -0.1176 C115.4588 -0.1302 119.2375 -0.1282 123.0165 -0.1152 C124.4004 -0.1129 125.7842 -0.1156 127.1681 -0.1238 C134.2569 -0.1631 139.8891 -0.1485 146.1816 3.2607 C149.1191 3.9482 149.1191 3.9482 151.1816 4.2607 C151.1816 4.9207 151.1816 5.5807 151.1816 6.2607 C151.7436 6.3651 152.3056 6.4695 152.8847 6.5771 C162.227 9.3575 169.6836 17.9656 174.2673 26.2146 C177.1721 32.0939 177.8575 37.3197 177.9941 43.8232 C178.0321 44.7172 178.0701 45.6111 178.1093 46.5322 C178.609 61.065 174.4126 71.8246 164.9316 82.8857 C154.0763 92.2607 154.0763 92.2607 149.1816 92.2607 C149.1816 92.9207 149.1816 93.5807 149.1816 94.2607 C140.0839 96.7471 131.6993 97.6883 122.2883 97.6171 C120.9528 97.6179 119.6174 97.62 118.282 97.6233 C114.6974 97.6284 111.1131 97.6151 107.5285 97.5978 C103.7549 97.5826 99.9813 97.5839 96.2077 97.5831 C89.8776 97.5795 83.5476 97.5646 77.2175 97.5419 C69.1173 97.513 61.0173 97.5027 52.9171 97.4983 C45.9161 97.4943 38.9151 97.4818 31.9141 97.4679 C29.6805 97.4638 27.4469 97.4609 25.2134 97.4581 C21.0378 97.4523 16.8623 97.4376 12.6867 97.4218 C11.462 97.4207 10.2374 97.4196 8.9756 97.4184 C-9.9984 97.324 -9.9984 97.324 -18.8184 92.2607 C-18.8184 91.6007 -18.8184 90.9407 -18.8184 90.2607 C-19.499 90.2401 -20.1797 90.2194 -20.8809 90.1982 C-27.8939 87.96 -32.0725 80.7906 -36.2559 75.0732 C-36.7054 74.4671 -37.1549 73.861 -37.618 73.2365 C-40.0107 69.875 -40.8184 68.5087 -40.8184 64.2607 C-41.4784 64.2607 -42.1384 64.2607 -42.8184 64.2607 C-43.8172 59.259 -44.0017 54.4625 -44.0059 49.3857 C-44.012 49.0035 -44.012 49.0035 -44.043 47.0693 C-44.0632 39.132 -42.1143 32.4518 -38.8184 25.2607 C-38.1584 25.2607 -37.4984 25.2607 -36.8184 25.2607 C-36.7153 24.5182 -36.6122 23.7757 -36.5059 23.0107 C-35.7691 20.0633 -34.8704 18.4769 -32.8184 16.2607 C-32.1584 16.2607 -31.4984 16.2607 -30.8184 16.2607 C-30.8184 15.6007 -30.8184 14.9407 -30.8184 14.2607 C-30.1584 14.2607 -29.4984 14.2607 -28.8184 14.2607 C-28.8184 13.6007 -28.8184 12.9407 -28.8184 12.2607 C-23.6691 6.9842 -18.3452 4.3825 -11.2012 2.8662 C-6.8102 1.7504 -4.7897 0.0093 0 0 Z M-28.8184 23.2607 C-34.2617 31.3694 -37.1724 38.897 -36.9434 48.6357 C-36.9344 49.3718 -36.9254 50.1078 -36.9161 50.8662 C-36.8927 52.6645 -36.8569 54.4626 -36.8184 56.2607 C-36.1584 56.2607 -35.4984 56.2607 -34.8184 56.2607 C-34.9009 57.0857 -34.9834 57.9107 -35.0684 58.7607 C-34.7461 63.2737 -33.0255 66.3786 -30.8184 70.2607 C-30.1584 70.2607 -29.4984 70.2607 -28.8184 70.2607 C-28.7462 70.6732 -28.7462 70.6732 -28.3809 72.7607 C-25.5932 79.0051 -20.269 83.0139 -14.2559 86.0732 C-13.6887 86.2691 -13.6887 86.2691 -10.8184 87.2607 C-10.2615 87.5164 -10.2615 87.5164 -7.4432 88.8107 C-1.5672 91.0025 4.4196 90.679 10.6149 90.6489 C11.9611 90.653 13.3073 90.6583 14.6534 90.6648 C18.2899 90.6784 21.9261 90.6732 25.5626 90.6637 C29.3807 90.656 33.1988 90.6631 37.0169 90.6678 C43.4282 90.6733 49.8394 90.6661 56.2507 90.6518 C63.6455 90.6355 71.04 90.6408 78.4348 90.6573 C84.8011 90.6709 91.1673 90.6728 97.5336 90.665 C101.3283 90.6603 105.1228 90.6596 108.9175 90.6696 C112.4873 90.6783 116.0568 90.6721 119.6266 90.6549 C121.5487 90.6491 123.4709 90.6579 125.393 90.6673 C139.1898 90.5668 151.3633 85.6034 161.537 76.0927 C164.2349 73.0873 165.7437 70.0094 167.1816 66.2607 C167.3672 65.8121 167.3672 65.8121 168.3066 63.5419 C172.3273 52.9318 172.6124 42.8177 168.6503 32.1201 C166.0387 27.0357 162.2391 23.2235 158.1816 19.2607 C157.6801 18.7244 157.1787 18.1882 156.662 17.6357 C151.6658 12.3064 145.9748 10.3724 139.1816 8.2607 C138.1916 7.9307 137.2016 7.6007 136.1816 7.2607 C134.3326 7.1657 132.4803 7.1301 130.6289 7.127 C129.4737 7.1227 128.3186 7.1185 127.1284 7.1141 C126.4941 7.1143 126.4941 7.1143 123.2841 7.1154 C121.9354 7.1124 120.5868 7.109 119.2381 7.1053 C115.5726 7.0964 111.9072 7.0941 108.2417 7.0934 C105.9506 7.0927 103.6595 7.0906 101.3684 7.0879 C93.3722 7.0787 85.376 7.0746 77.3798 7.0754 C69.9323 7.076 62.4849 7.0655 55.0374 7.0497 C48.6399 7.0366 42.2423 7.0312 35.8447 7.0318 C32.0255 7.0321 28.2063 7.0293 24.387 7.0187 C20.7919 7.009 17.197 7.0089 13.6019 7.0162 C11.6602 7.0177 9.7185 7.0094 7.7769 7.0007 C-7.0287 7.054 -18.7951 12.0449 -28.8184 23.2607 Z " fill="#48433C" transform="translate(1388.8184204101563,185.7393035888672)"/>
<path d="M0 0 C0.99 0 1.98 0 3 0 C3 3.96 3 7.92 3 12 C32.37 12 61.74 12 92 12 C92 8.04 92 4.08 92 0 C92.99 0 93.98 0 95 0 C95 0.66 95 1.32 95 2 C95.5798 2.2792 96.1595 2.5585 96.7568 2.8462 C100.4394 4.7404 103.8154 7.0691 107.25 9.375 C107.9951 9.8571 108.7402 10.3392 109.5078 10.8359 C110.2116 11.3103 110.9155 11.7847 111.6406 12.2734 C112.2855 12.7006 112.9303 13.1278 113.5947 13.5679 C115 15 115 15 115 19 C113.6548 20.3245 113.6548 20.3245 111.7891 21.4727 C111.1213 21.8974 110.4536 22.3221 109.7656 22.7598 C109.0592 23.1897 108.3528 23.6196 107.625 24.0625 C106.2389 24.9231 104.8559 25.7888 103.4766 26.6602 C102.8586 27.0379 102.2407 27.4157 101.604 27.8049 C100 29 100 29 98 32 C97.01 32 96.02 32 95 32 C95 32.66 95 33.32 95 34 C94.01 34 93.02 34 92 34 C92 30.04 92 26.08 92 22 C62.3 22 32.6 22 2 22 C2 25.63 2 29.26 2 33 C0.68 32.67 -0.64 32.34 -2 32 C-2 31.34 -2 30.68 -2 30 C-2.7103 29.9149 -3.4205 29.8298 -4.1523 29.7422 C-7.628 28.8363 -9.7087 27.2922 -12.5625 25.125 C-13.4919 24.4263 -14.4213 23.7277 -15.3789 23.0078 C-16.2439 22.3452 -17.1088 21.6827 -18 21 C-19.3325 19.9989 -20.6655 18.9985 -22 18 C-20.7871 14.3614 -19.6786 13.8083 -16.5625 11.6797 C-15.6679 11.0622 -14.7733 10.4448 -13.8516 9.8086 C-12.9105 9.1705 -11.9695 8.5324 -11 7.875 C-9.1454 6.6022 -7.2912 5.3288 -5.4375 4.0547 C-4.6112 3.4925 -3.7849 2.9303 -2.9336 2.3511 C-1 1 -1 1 0 0 Z " fill="#C99833" transform="translate(478,220)"/>
<path d="M0 0 C0 3.96 0 7.92 0 12 C29.7 12 59.4 12 90 12 C90 8.37 90 4.74 90 1 C95.5766 2.1153 95.5766 2.1153 98.6875 5.125 C103.1408 9.2377 107.981 12.6163 113 16 C111.8747 19.3758 111.3296 19.7279 108.4727 21.5938 C107.763 22.0668 107.0534 22.5399 106.3223 23.0273 C105.5765 23.5133 104.8308 23.9993 104.0625 24.5 C102.5916 25.4635 101.124 26.4321 99.6602 27.4062 C99.0067 27.8323 98.3532 28.2583 97.6799 28.6973 C96 30 96 30 94 33 C92.68 33 91.36 33 90 33 C90 29.37 90 25.74 90 22 C60.3 22 30.6 22 0 22 C0 25.96 0 29.92 0 34 C-5.2074 32.7983 -8.4883 30.2411 -12.543 26.9531 C-16.5514 23.7667 -20.7807 20.898 -25 18 C-23.8913 14.6738 -23.3973 14.3052 -20.6133 12.4414 C-20.2675 12.2071 -20.2675 12.2071 -18.5176 11.0215 C-18.1537 10.7808 -18.1537 10.7808 -16.3125 9.5625 C-15.6042 9.0849 -14.8958 8.6073 -14.166 8.1152 C-12.771 7.1762 -11.3728 6.242 -9.9712 5.313 C-8.7108 4.4735 -7.4571 3.6238 -6.2124 2.7612 C-2.211 0 -2.211 0 0 0 Z " fill="#CA9935" transform="translate(880,220)"/>
<path d="M0 0 C0.5811 -0.0021 0.5811 -0.0021 3.5217 -0.0129 C4.7827 -0.0125 6.0437 -0.012 7.3429 -0.0116 C8.6952 -0.0145 10.0476 -0.0179 11.4 -0.0217 C15.061 -0.0305 18.722 -0.0329 22.383 -0.0335 C24.6716 -0.0343 26.9602 -0.0364 29.2488 -0.039 C37.2362 -0.0483 45.2236 -0.0524 53.211 -0.0516 C60.6524 -0.051 68.0937 -0.0616 75.535 -0.0773 C81.93 -0.0904 88.3251 -0.0958 94.7201 -0.0951 C98.5371 -0.0949 102.3539 -0.0977 106.1708 -0.1083 C109.7586 -0.118 113.3462 -0.1181 116.9339 -0.1108 C118.876 -0.1093 120.818 -0.1176 122.76 -0.1262 C123.9194 -0.122 125.0787 -0.1178 126.2732 -0.1135 C127.2785 -0.1141 128.2837 -0.1146 129.3194 -0.1152 C132.2615 0.1507 134.3827 0.9501 137.0731 2.1337 C138.1662 2.3812 139.2594 2.6287 140.3856 2.8837 C149.0239 5.8119 157.8702 13.6663 162.4598 21.5009 C163.4527 23.6934 164.305 25.8534 165.0731 28.1337 C165.4276 29.0863 165.7821 30.0389 166.1473 31.0204 C169.0426 40.7568 166.8258 49.9955 163.0731 59.1337 C162.8192 59.8633 162.5652 60.5929 162.3036 61.3447 C158.7832 70.1195 149.3161 76.0186 141.2215 80.2704 C137.8302 81.6331 134.7115 81.9353 131.0731 82.1337 C131.7331 81.4737 132.3931 80.8137 133.0731 80.1337 C134.3931 80.1337 135.7131 80.1337 137.0731 80.1337 C137.0731 79.4737 137.0731 78.8137 137.0731 78.1337 C135.0931 78.1337 133.1131 78.1337 131.0731 78.1337 C132.7154 76.2321 133.8824 75.2045 136.2606 74.3212 C142.955 71.4947 147.3108 67.2114 151.0731 61.1337 C151.7331 61.1337 152.3931 61.1337 153.0731 61.1337 C153.2061 60.5587 153.3391 59.9837 153.4762 59.3913 C154.0584 57.1894 154.8158 55.1403 155.6239 53.0126 C157.3266 47.9624 157.4205 43.3568 157.2606 38.0712 C157.2471 37.2056 157.2335 36.34 157.2196 35.4482 C157.1847 33.3431 157.1309 31.2383 157.0731 29.1337 C156.4131 29.1337 155.7531 29.1337 155.0731 29.1337 C154.7225 27.9787 154.3719 26.8237 154.0106 25.6337 C151.4562 18.9015 147.0759 13.8767 140.6356 10.6337 C139.46 10.1387 138.2844 9.6437 137.0731 9.1337 C137.0731 8.4737 137.0731 7.8137 137.0731 7.1337 C135.0931 7.1337 133.1131 7.1337 131.0731 7.1337 C131.0731 6.4737 131.0731 5.8137 131.0731 5.1337 C127.7385 5.1862 124.4065 5.2814 121.0731 5.3837 C120.1385 5.3979 119.204 5.4121 118.2411 5.4267 C112.6251 5.623 108.5789 6.38 103.7294 9.2851 C102.0731 10.1337 102.0731 10.1337 99.0731 10.1337 C104.2755 5.6745 108.1503 3.8678 115.0301 3.9384 C116.142 3.9448 117.2538 3.9513 118.3993 3.9579 C118.9745 3.9663 118.9745 3.9663 121.8856 4.0087 C123.0554 4.0177 124.2253 4.0268 125.4305 4.0361 C128.3116 4.0596 131.1922 4.0924 134.0731 4.1337 C134.0731 3.4737 134.0731 2.8137 134.0731 2.1337 C86.8831 2.1337 39.6931 2.1337 -8.9269 2.1337 C-8.9269 2.7937 -8.9269 3.4537 -8.9269 4.1337 C-10.9069 4.1337 -12.8869 4.1337 -14.9269 4.1337 C-11.2686 -0.5408 -5.5032 0.0092 0 0 Z " fill="#DED8C9" transform="translate(1392.9268951416016,192.8662872314453)"/>
<path d="M0 0 C18.4627 -0.0467 36.9253 -0.082 55.3881 -0.1036 C63.9603 -0.1139 72.5325 -0.128 81.1047 -0.1509 C88.5748 -0.1708 96.0449 -0.1837 103.5151 -0.1882 C107.4717 -0.1908 111.4283 -0.1969 115.385 -0.2115 C119.1072 -0.225 122.8294 -0.2292 126.5517 -0.2262 C128.5729 -0.227 130.5941 -0.2378 132.6152 -0.2488 C133.8142 -0.2461 135.0131 -0.2433 136.2484 -0.2405 C137.2928 -0.2424 138.3372 -0.2442 139.4132 -0.2461 C142 0 142 0 145 2 C145 2.99 145 3.98 145 5 C126.8844 5.0234 108.7689 5.041 90.6533 5.0518 C82.2415 5.057 73.8297 5.064 65.418 5.0754 C58.0844 5.0854 50.7509 5.0919 43.4173 5.0941 C39.536 5.0954 35.6546 5.0984 31.7733 5.1057 C28.1159 5.1125 24.4585 5.1146 20.8011 5.1131 C18.8274 5.1135 16.8536 5.1189 14.8799 5.1244 C8.8226 5.1174 2.9874 4.9399 -3 4 C-3 3.34 -3 2.68 -3 2 C-2.01 2 -1.02 2 0 2 C0 1.34 0 0.68 0 0 Z " fill="#423C35" transform="translate(1385,277)"/>
<path d="M0 0 C3.8383 2.0693 6.3456 4.2221 9.0625 7.625 C9.7135 8.4216 10.3645 9.2183 11.0352 10.0391 C15.911 17.3868 17.6282 23.7882 17.8125 32.5625 C17.8505 33.4565 17.8886 34.3504 17.9277 35.2715 C18.4287 49.8432 14.2314 60.8647 4.5 71.8125 C-2.4138 77.8621 -2.4138 77.8621 -6.875 78.25 C-7.5763 78.1675 -8.2775 78.085 -9 78 C-9 78.66 -9 79.32 -9 80 C-9.99 79.67 -10.98 79.34 -12 79 C-11.34 77.35 -10.68 75.7 -10 74 C-9.01 74 -8.02 74 -7 74 C-6.8144 73.2987 -6.6288 72.5975 -6.4375 71.875 C-4.9923 68.9845 -4.09 68.1141 -1.625 66.1875 C2.3453 62.9406 4.1418 59.7292 6 55 C6.3725 54.1015 6.7451 53.203 7.1289 52.2773 C11.1436 41.6601 11.4189 31.57 7.4766 20.8633 C5.3156 16.6729 2.4196 13.4937 -0.8789 10.1562 C-2.7993 8.204 -4.4153 6.2277 -6 4 C-5.4019 4.33 -4.8038 4.66 -4.1875 5 C-2 6 -2 6 1 6 C1.99 6 2.98 6 4 6 C4 5.34 4 4.68 4 4 C2.68 4 1.36 4 0 4 C0 2.68 0 1.36 0 0 Z " fill="#49453E" transform="translate(1549,197)"/>
<path d="M0 0 C29.9969 -0.0456 59.9938 -0.081 89.9908 -0.1021 C93.5306 -0.1046 97.0705 -0.1072 100.6104 -0.1099 C101.3151 -0.1104 102.0198 -0.1109 102.7459 -0.1115 C114.1631 -0.1202 125.5803 -0.1359 136.9975 -0.1543 C148.7089 -0.173 160.4204 -0.1841 172.1319 -0.1882 C178.7115 -0.1908 185.2912 -0.1969 191.8708 -0.2115 C198.0595 -0.225 204.2481 -0.2292 210.4368 -0.2262 C212.7121 -0.2268 214.9873 -0.2308 217.2626 -0.2384 C220.3616 -0.2483 223.4604 -0.246 226.5595 -0.2405 C227.4661 -0.2463 228.3727 -0.2522 229.3068 -0.2582 C229.7218 -0.2562 229.7218 -0.2562 231.8221 -0.2461 C232.1798 -0.2465 232.1798 -0.2465 233.99 -0.2484 C236.3299 0.0408 237.9605 0.8452 240 2 C239.67 2.66 239.34 3.32 239 4 C238.4258 3.8379 237.8517 3.6757 237.2601 3.5087 C235.0344 3.0077 233.1142 2.8698 230.8377 2.8613 C230.0112 2.8559 229.1846 2.8504 228.333 2.8447 C227.4303 2.8438 226.5275 2.8428 225.5975 2.8418 C224.6344 2.8368 223.6714 2.8319 222.6791 2.8268 C219.444 2.8114 216.2088 2.8031 212.9736 2.7947 C210.6578 2.7851 208.342 2.7751 206.0261 2.7647 C199.7311 2.7376 193.4361 2.7166 187.1411 2.6967 C180.5654 2.6748 173.9897 2.6474 167.414 2.6206 C156.3745 2.5762 145.335 2.5355 134.2954 2.4973 C122.9246 2.458 111.5539 2.4165 100.1831 2.3723 C99.8327 2.371 99.8327 2.371 98.0592 2.3641 C94.543 2.3504 91.0268 2.3367 87.5107 2.3229 C58.3405 2.209 29.1702 2.1022 0 2 C0 1.34 0 0.68 0 0 Z " fill="#E4E0D7" transform="translate(1006,164)"/>
<path d="M0 0 C0.33 0.165 0.33 0.165 2 1 C1.67 1.66 1.34 2.32 1 3 C0.01 3 -0.98 3 -2 3 C-2 4.65 -2 6.3 -2 8 C-1.67 7.67 -1.34 7.34 -1 7 C-0.01 7.33 0.98 7.66 2 8 C1.34 8.66 0.68 9.32 0 10 C-0.99 10 -1.98 10 -3 10 C-3 10.66 -3 11.32 -3 12 C-5.64 12.33 -8.28 12.66 -11 13 C-11 12.34 -11 11.68 -11 11 C-14.3285 10.0025 -17.3665 9.8634 -20.8339 9.8418 C-22.0258 9.832 -23.2177 9.8222 -24.4457 9.8121 C-25.7498 9.8064 -27.0539 9.8006 -28.3975 9.7947 C-29.7872 9.7851 -31.1769 9.7751 -32.5667 9.7647 C-36.337 9.7377 -40.1072 9.7166 -43.8776 9.6967 C-47.8187 9.6748 -51.7599 9.6474 -55.701 9.6206 C-63.163 9.5707 -70.625 9.5258 -78.087 9.4826 C-86.5827 9.4332 -95.0784 9.3783 -103.5741 9.3229 C-121.0494 9.2091 -138.5247 9.1023 -156 9 C-156 9.66 -156 10.32 -156 11 C-156.99 11 -157.98 11 -159 11 C-159 11.66 -159 12.32 -159 13 C-135.405 13.165 -135.405 13.165 -16 14 C-16 14.33 -16 14.66 -16 15 C-33.6899 15.0234 -51.3797 15.041 -69.0696 15.0518 C-77.2841 15.057 -85.4985 15.064 -93.7129 15.0754 C-100.8758 15.0854 -108.0387 15.0919 -115.2016 15.0941 C-118.9914 15.0954 -122.7811 15.0984 -126.5709 15.1057 C-130.1446 15.1126 -133.7182 15.1146 -137.2919 15.1131 C-139.2152 15.1135 -141.1384 15.1189 -143.0616 15.1244 C-161.4313 15.1028 -161.4313 15.1028 -167 12 C-167 11.01 -167 10.02 -167 9 C-167.66 9 -168.32 9 -169 9 C-169 8.34 -169 7.68 -169 7 C-168.34 7 -167.68 7 -167 7 C-167 6.34 -167 5.68 -167 5 C-165.3746 5.141 -163.7497 5.2879 -162.125 5.4375 C-161.2201 5.5187 -160.3152 5.5999 -159.3828 5.6836 C-157 6 -157 6 -155 7 C-153.1958 7.0998 -151.388 7.1351 -149.581 7.1404 C-148.4301 7.1462 -147.2792 7.1519 -146.0935 7.1577 C-144.8244 7.1589 -143.5553 7.16 -142.2478 7.1611 C-140.9025 7.1658 -139.5572 7.1708 -138.212 7.1762 C-134.5504 7.1893 -130.8889 7.1958 -127.2274 7.2002 C-124.9381 7.2031 -122.6488 7.2072 -120.3596 7.2117 C-113.1925 7.2254 -106.0255 7.235 -98.8585 7.2389 C-90.5945 7.2434 -82.3308 7.2609 -74.0669 7.2899 C-67.6753 7.3116 -61.2837 7.3216 -54.892 7.3229 C-51.0771 7.324 -47.2623 7.3298 -43.4475 7.3478 C-39.8532 7.3643 -36.2591 7.3664 -32.6648 7.3576 C-30.7282 7.3565 -28.7917 7.3701 -26.8552 7.3844 C-18.1738 7.3431 -11.1737 5.9908 -3.5625 1.75 C-2.3869 1.1725 -1.2113 0.595 0 0 Z " fill="#5D5952" transform="translate(1541,268)"/>
<path d="M0 0 C0.5811 -0.0021 0.5811 -0.0021 3.5217 -0.0129 C4.7827 -0.0125 6.0437 -0.012 7.3429 -0.0116 C8.6952 -0.0145 10.0476 -0.0179 11.4 -0.0217 C15.061 -0.0305 18.722 -0.0329 22.383 -0.0335 C24.6716 -0.0343 26.9602 -0.0364 29.2488 -0.039 C37.2362 -0.0483 45.2236 -0.0524 53.211 -0.0516 C60.6524 -0.051 68.0937 -0.0616 75.535 -0.0773 C81.93 -0.0904 88.3251 -0.0958 94.7201 -0.0951 C98.5371 -0.0949 102.3539 -0.0977 106.1708 -0.1083 C109.7586 -0.118 113.3462 -0.1181 116.9339 -0.1108 C118.876 -0.1093 120.818 -0.1176 122.76 -0.1262 C123.9194 -0.122 125.0787 -0.1178 126.2732 -0.1135 C127.2785 -0.1141 128.2837 -0.1146 129.3194 -0.1152 C132.2667 0.1512 134.3788 0.9443 137.0731 2.1337 C138.3106 2.4637 139.5481 2.7937 140.8231 3.1337 C141.8956 3.4637 142.9681 3.7937 144.0731 4.1337 C144.4031 4.7937 144.7331 5.4537 145.0731 6.1337 C143.7531 6.1337 142.4331 6.1337 141.0731 6.1337 C141.0731 5.4737 141.0731 4.8137 141.0731 4.1337 C139.0931 4.1337 137.1131 4.1337 135.0731 4.1337 C135.0731 4.7937 135.0731 5.4537 135.0731 6.1337 C136.3931 6.1337 137.7131 6.1337 139.0731 6.1337 C139.0731 6.7937 139.0731 7.4537 139.0731 8.1337 C139.7331 8.1337 140.3931 8.1337 141.0731 8.1337 C140.7431 8.7937 140.4131 9.4537 140.0731 10.1337 C139.0831 9.8037 138.0931 9.4737 137.0731 9.1337 C137.0731 8.4737 137.0731 7.8137 137.0731 7.1337 C135.0931 7.1337 133.1131 7.1337 131.0731 7.1337 C131.0731 6.4737 131.0731 5.8137 131.0731 5.1337 C127.7385 5.1862 124.4065 5.2814 121.0731 5.3837 C120.1385 5.3979 119.204 5.4121 118.2411 5.4267 C112.6251 5.623 108.5789 6.38 103.7294 9.2851 C102.0731 10.1337 102.0731 10.1337 99.0731 10.1337 C104.2755 5.6745 108.1503 3.8678 115.0301 3.9384 C116.142 3.9448 117.2538 3.9513 118.3993 3.9579 C118.9745 3.9663 118.9745 3.9663 121.8856 4.0087 C123.0554 4.0177 124.2253 4.0268 125.4305 4.0361 C128.3116 4.0596 131.1922 4.0924 134.0731 4.1337 C134.0731 3.4737 134.0731 2.8137 134.0731 2.1337 C86.8831 2.1337 39.6931 2.1337 -8.9269 2.1337 C-8.9269 2.7937 -8.9269 3.4537 -8.9269 4.1337 C-10.9069 4.1337 -12.8869 4.1337 -14.9269 4.1337 C-11.2686 -0.5408 -5.5032 0.0092 0 0 Z " fill="#BBB4A4" transform="translate(1392.9268951416016,192.8662872314453)"/>
<path d="M0 0 C18.4627 -0.0467 36.9253 -0.082 55.3881 -0.1036 C63.9603 -0.1139 72.5325 -0.128 81.1047 -0.1509 C88.5748 -0.1708 96.0449 -0.1837 103.5151 -0.1882 C107.4717 -0.1908 111.4283 -0.1969 115.385 -0.2115 C119.1072 -0.225 122.8294 -0.2292 126.5517 -0.2262 C128.5729 -0.227 130.5941 -0.2378 132.6152 -0.2488 C133.8142 -0.2461 135.0131 -0.2433 136.2484 -0.2405 C137.2928 -0.2424 138.3372 -0.2442 139.4132 -0.2461 C142 0 142 0 145 2 C145 2.66 145 3.32 145 4 C140.71 4 136.42 4 132 4 C132 3.67 132 3.34 132 3 C111.87 2.835 111.87 2.835 10 2 C10 2.66 10 3.32 10 4 C5.71 4 1.42 4 -3 4 C-3 3.34 -3 2.68 -3 2 C-2.01 2 -1.02 2 0 2 C0 1.34 0 0.68 0 0 Z " fill="#353029" transform="translate(1385,277)"/>
<path d="M0 0 C0.66 0.33 1.32 0.66 2 1 C0.68 1.33 -0.64 1.66 -2 2 C-2 2.99 -2 3.98 -2 5 C0.64 5.33 3.28 5.66 6 6 C5 8 5 8 2 9.125 C-6.3967 12.5977 -11.5912 18.9749 -15.2227 27.0938 C-15.3509 27.4083 -15.3509 27.4083 -16 29 C-16.33 27.68 -16.66 26.36 -17 25 C-17.66 25 -18.32 25 -19 25 C-19.33 26.65 -19.66 28.3 -20 30 C-20.33 29.01 -20.66 28.02 -21 27 C-21.66 27 -22.32 27 -23 27 C-23.8093 30.6087 -24.1781 34.0446 -24.3164 37.7383 C-24.3583 38.805 -24.4002 39.8717 -24.4434 40.9707 C-24.4827 42.0735 -24.522 43.1763 -24.5625 44.3125 C-24.6057 45.4346 -24.6489 46.5568 -24.6934 47.7129 C-24.7991 50.4751 -24.9012 53.2375 -25 56 C-24.34 56 -23.68 56 -23 56 C-22.67 58.97 -22.34 61.94 -22 65 C-22.66 64.67 -23.32 64.34 -24 64 C-24 62.68 -24 61.36 -24 60 C-24.66 60 -25.32 60 -26 60 C-26.9987 54.9983 -27.1833 50.2018 -27.1875 45.125 C-27.1936 44.7428 -27.1936 44.7428 -27.2246 42.8086 C-27.2448 34.8713 -25.2959 28.1911 -22 21 C-21.34 21 -20.68 21 -20 21 C-19.8969 20.2575 -19.7938 19.515 -19.6875 18.75 C-18.9507 15.8026 -18.052 14.2162 -16 12 C-15.34 12 -14.68 12 -14 12 C-14 11.34 -14 10.68 -14 10 C-13.34 10 -12.68 10 -12 10 C-12 9.34 -12 8.68 -12 8 C-10.1367 6.3086 -10.1367 6.3086 -7.6875 4.4375 C-6.887 3.8175 -6.0865 3.1974 -5.2617 2.5586 C-3 1 -3 1 0 0 Z " fill="#4A453E" transform="translate(1372,190)"/>
<path d="M0 0 C0.9531 0.0105 1.9062 0.0209 2.8882 0.0317 C3.4038 0.035 3.4038 0.035 6.0132 0.0513 C6.5533 0.0596 6.5533 0.0596 9.2866 0.1021 C10.3746 0.1111 11.4626 0.1201 12.5835 0.1294 C15.2763 0.153 17.969 0.1889 20.6616 0.2271 C20.6616 3.8571 20.6616 7.4871 20.6616 11.2271 C12.7416 11.2271 4.8216 11.2271 -3.3384 11.2271 C-4.845 8.2138 -4.5161 5.5442 -4.3384 2.2271 C-2.3384 0.2271 -2.3384 0.2271 0 0 Z " fill="#C2C1BF" transform="translate(323.33837890625,108.77294921875)"/>
<path d="M0 0 C0.9112 0.0105 1.8224 0.0209 2.7612 0.0317 C3.7474 0.0382 4.7335 0.0446 5.7495 0.0513 C6.2658 0.0596 6.2658 0.0596 8.8784 0.1021 C9.9187 0.1111 10.959 0.1201 12.0308 0.1294 C14.6052 0.153 17.1792 0.1859 19.7534 0.2271 C20.7534 2.2271 20.7534 2.2271 20.7534 11.2271 C12.8334 11.2271 4.9134 11.2271 -3.2466 11.2271 C-4.7532 8.2138 -4.4243 5.5442 -4.2466 2.2271 C-2.2466 0.2271 -2.2466 0.2271 0 0 Z " fill="#C1C0BE" transform="translate(363.24658203125,108.77294921875)"/>
<path d="M0 0 C2.97 0 5.94 0 9 0 C9.0289 3.6458 9.0468 7.2916 9.0625 10.9375 C9.0709 11.9784 9.0793 13.0193 9.0879 14.0918 C9.0911 15.0812 9.0943 16.0705 9.0977 17.0898 C9.1029 18.0063 9.1081 18.9227 9.1135 19.8669 C9 22 9 22 8 23 C4.5 23.125 4.5 23.125 1 23 C0 22 0 22 -0.1135 19.8669 C-0.1083 18.9505 -0.1031 18.0341 -0.0977 17.0898 C-0.0944 16.1005 -0.0912 15.1111 -0.0879 14.0918 C-0.0795 13.0509 -0.0711 12.01 -0.0625 10.9375 C-0.058 9.8927 -0.0535 8.8479 -0.0488 7.7715 C-0.037 5.1809 -0.0205 2.5905 0 0 Z " fill="#65615C" transform="translate(137,246)"/>
<path d="M0 0 C2.97 0 5.94 0 9 0 C9.0289 3.6458 9.0468 7.2916 9.0625 10.9375 C9.0709 11.9784 9.0793 13.0193 9.0879 14.0918 C9.0911 15.0812 9.0943 16.0705 9.0977 17.0898 C9.1029 18.0063 9.1081 18.9227 9.1135 19.8669 C9 22 9 22 8 23 C4.5 23.125 4.5 23.125 1 23 C0 22 0 22 -0.1135 19.8669 C-0.1083 18.9505 -0.1031 18.0341 -0.0977 17.0898 C-0.0944 16.1005 -0.0912 15.1111 -0.0879 14.0918 C-0.0795 13.0509 -0.0711 12.01 -0.0625 10.9375 C-0.058 9.8927 -0.0535 8.8479 -0.0488 7.7715 C-0.037 5.1809 -0.0205 2.5905 0 0 Z " fill="#65615B" transform="translate(137,206)"/>
<path d="M0 0 C2.97 0 5.94 0 9 0 C9.0289 3.6458 9.0468 7.2916 9.0625 10.9375 C9.0709 11.9784 9.0793 13.0193 9.0879 14.0918 C9.0911 15.0812 9.0943 16.0705 9.0977 17.0898 C9.1029 18.0063 9.1081 18.9227 9.1135 19.8669 C9 22 9 22 8 23 C4.5 23.125 4.5 23.125 1 23 C0 22 0 22 -0.1135 19.8669 C-0.1083 18.9505 -0.1031 18.0341 -0.0977 17.0898 C-0.0944 16.1005 -0.0912 15.1111 -0.0879 14.0918 C-0.0795 13.0509 -0.0711 12.01 -0.0625 10.9375 C-0.058 9.8927 -0.0535 8.8479 -0.0488 7.7715 C-0.037 5.1809 -0.0205 2.5905 0 0 Z " fill="#66615C" transform="translate(137,166)"/>
<path d="M0 0 C0.66 0 1.32 0 2 0 C1.8589 1.4588 1.712 2.917 1.5625 4.375 C1.4813 5.1871 1.4001 5.9992 1.3164 6.8359 C1 9 1 9 0 11 C-0.0847 12.8134 -0.1072 14.6299 -0.0977 16.4453 C-0.0944 17.5217 -0.0912 18.598 -0.0879 19.707 C-0.0795 20.835 -0.0711 21.9629 -0.0625 23.125 C-0.058 24.2607 -0.0535 25.3963 -0.0488 26.5664 C-0.037 29.3777 -0.0205 32.1888 0 35 C0.66 35 1.32 35 2 35 C2 35.99 2 36.98 2 38 C1.34 38 0.68 38 0 38 C0 38.99 0 39.98 0 41 C-0.66 41 -1.32 41 -2 41 C-4.4295 37.3558 -4.1618 35.2876 -4 31 C-4.66 31 -5.32 31 -6 31 C-6.0582 27.1042 -6.0937 23.2086 -6.125 19.3125 C-6.1418 18.2097 -6.1585 17.1069 -6.1758 15.9707 C-6.1822 14.904 -6.1887 13.8373 -6.1953 12.7383 C-6.2058 11.759 -6.2163 10.7797 -6.2271 9.7708 C-5.986 6.8289 -5.2306 4.6676 -4 2 C-3.34 2 -2.68 2 -2 2 C-1.67 2.66 -1.34 3.32 -1 4 C-0.67 2.68 -0.34 1.36 0 0 Z " fill="#3D3831" transform="translate(1353,215)"/>
<path d="M0 0 C2.97 0 5.94 0 9 0 C9 7.26 9 14.52 9 22 C6.03 22 3.06 22 0 22 C0 14.74 0 7.48 0 0 Z " fill="#625E58" transform="translate(137,286)"/>
<path d="M0 0 C1.1653 -0.0013 2.3306 -0.0026 3.5312 -0.0039 C4.7584 -0 5.9856 0.0038 7.25 0.0078 C7.8636 0.0059 7.8636 0.0059 10.9688 -0.0039 C11.5514 -0.0033 11.5514 -0.0033 14.5 0 C15.5777 0.0011 16.6553 0.0023 17.7656 0.0034 C20.25 0.1328 20.25 0.1328 21.25 1.1328 C21.25 3.1128 21.25 5.0928 21.25 7.1328 C12.01 7.1328 2.77 7.1328 -6.75 7.1328 C-6.75 0.0071 -6.75 0.0071 0 0 Z " fill="#4E4943" transform="translate(162.75,110.8671875)"/>
<path d="M0 0 C3.8125 -0.0289 7.6249 -0.0468 11.4375 -0.0625 C12.5261 -0.0709 13.6147 -0.0793 14.7363 -0.0879 C15.7708 -0.0911 16.8053 -0.0943 17.8711 -0.0977 C18.8294 -0.1029 19.7878 -0.1081 20.7751 -0.1135 C23 0 23 0 24 1 C24 3.31 24 5.62 24 8 C16.08 8 8.16 8 0 8 C0 5.36 0 2.72 0 0 Z " fill="#615D58" transform="translate(1274,355)"/>
<path d="M0 0 C0.9583 0.0052 1.9167 0.0105 2.9041 0.0159 C3.4213 0.0175 3.4213 0.0175 6.0388 0.0256 C7.1274 0.034 8.216 0.0424 9.3376 0.051 C9.8839 0.0533 9.8839 0.0533 12.6482 0.0647 C15.3572 0.0765 18.0662 0.093 20.7751 0.1135 C20.7751 2.7535 20.7751 5.3935 20.7751 8.1135 C12.8551 8.1135 4.9351 8.1135 -3.2249 8.1135 C-3.2249 0.1646 -3.2249 0.1646 0 0 Z " fill="#7D7A75" transform="translate(159.224853515625,354.886474609375)"/>
<path d="M0 0 C2.64 0 5.28 0 8 0 C8.0816 2.6881 8.1408 5.3737 8.1875 8.0625 C8.2126 8.8147 8.2378 9.5668 8.2637 10.3418 C8.3328 15.6663 7.4067 19.2435 5 24 C4.01 24 3.02 24 2 24 C2 23.34 2 22.68 2 22 C0.68 21.67 -0.64 21.34 -2 21 C-1.67 17.535 -1.67 17.535 0 0 Z " fill="#3F3A32" transform="translate(1310,328)"/>
<path d="M0 0 C2.64 0 5.28 0 8 0 C8 7.59 8 15.18 8 23 C5.36 23 2.72 23 0 23 C0 15.41 0 7.82 0 0 Z " fill="#544F49" transform="translate(1310,288)"/>
<path d="M0 0 C2.64 0 5.28 0 8 0 C8 7.59 8 15.18 8 23 C5.36 23 2.72 23 0 23 C0 15.41 0 7.82 0 0 Z " fill="#55504A" transform="translate(1310,248)"/>
<path d="M0 0 C2.64 0 5.28 0 8 0 C8 7.59 8 15.18 8 23 C5.36 23 2.72 23 0 23 C0 15.41 0 7.82 0 0 Z " fill="#545049" transform="translate(1310,208)"/>
<path d="M0 0 C2.64 0 5.28 0 8 0 C8 7.59 8 15.18 8 23 C5.36 23 2.72 23 0 23 C0 15.41 0 7.82 0 0 Z " fill="#55514A" transform="translate(1310,168)"/>
<path d="M0 0 C0.9488 0.0413 1.8975 0.0825 2.875 0.125 C2.9039 3.7708 2.9218 7.4166 2.9375 11.0625 C2.9459 12.1034 2.9543 13.1443 2.9629 14.2168 C2.9661 15.2062 2.9693 16.1955 2.9727 17.2148 C2.9779 18.1313 2.9831 19.0477 2.9885 19.9919 C2.875 22.125 2.875 22.125 1.875 23.125 C-0.458 23.1659 -2.7921 23.1674 -5.125 23.125 C-5.1829 19.6667 -5.2186 16.2086 -5.25 12.75 C-5.2668 11.7652 -5.2835 10.7803 -5.3008 9.7656 C-5.3072 8.8246 -5.3137 7.8836 -5.3203 6.9141 C-5.3308 6.0448 -5.3413 5.1754 -5.3521 4.2798 C-4.958 0.5402 -3.5884 0.1435 0 0 Z " fill="#55504A" transform="translate(1315.125,127.875)"/>
<path d="M0 0 C5 0 5 0 8 2 C8.3564 4.0471 8.3564 4.0471 8.3281 6.5352 C8.323 7.4265 8.3178 8.3179 8.3125 9.2363 C8.2919 10.169 8.2713 11.1016 8.25 12.0625 C8.2448 12.999 8.2397 13.9355 8.2344 14.9004 C8.1539 21.8461 8.1539 21.8461 7 23 C4.69 23 2.38 23 0 23 C0 15.41 0 7.82 0 0 Z " fill="#58544E" transform="translate(138,126)"/>
<path d="M0 0 C7.26 0 14.52 0 22 0 C22 2.64 22 5.28 22 8 C14.74 8 7.48 8 0 8 C0 5.36 0 2.72 0 0 Z " fill="#75716C" transform="translate(676,355)"/>
<path d="M0 0 C7.26 0 14.52 0 22 0 C22 2.64 22 5.28 22 8 C14.74 8 7.48 8 0 8 C0 5.36 0 2.72 0 0 Z " fill="#75716C" transform="translate(396,355)"/>
<path d="M0 0 C1.98 0 3.96 0 6 0 C6 0.66 6 1.32 6 2 C7.1756 2.0206 8.3512 2.0412 9.5625 2.0625 C14.2884 2.6269 16.5503 4.8541 19.75 8.2109 C21 10 21 10 21 13 C20.67 13.33 20.34 13.66 20 14 C21.32 14.33 22.64 14.66 24 15 C24.625 17.3125 24.625 17.3125 25 20 C24.34 20.99 23.68 21.98 23 23 C22.34 23 21.68 23 21 23 C21 22.01 21 21.02 21 20 C20.01 20 19.02 20 18 20 C16.9441 18.3682 15.9564 16.6921 15 15 C12.4819 11.5323 10.1308 8.5299 6 7 C6 6.01 6 5.02 6 4 C5.34 4 4.68 4 4 4 C4 3.34 4 2.68 4 2 C2.68 2 1.36 2 0 2 C0 1.34 0 0.68 0 0 Z " fill="#E7E1D4" transform="translate(1528,197)"/>
<path d="M0 0 C2.31 0 4.62 0 7 0 C7.2837 3.4356 7.5211 6.8729 7.75 10.3125 C7.8312 11.289 7.9124 12.2654 7.9961 13.2715 C8.0251 13.7404 8.0251 13.7404 8.1719 16.1133 C8.2347 16.9774 8.2976 17.8414 8.3623 18.7317 C8 21 8 21 6.1768 22.8054 C4 24 4 24 1 24 C-0.2525 21.495 -0.1137 19.7915 -0.0977 16.9922 C-0.0944 16.0061 -0.0912 15.0199 -0.0879 14.0039 C-0.0837 13.4876 -0.0837 13.4876 -0.0625 10.875 C-0.058 9.8347 -0.0535 8.7945 -0.0488 7.7227 C-0.037 5.1484 -0.0206 2.5742 0 0 Z " fill="#504B45" transform="translate(138,326)"/>
<path d="M0 0 C0.9164 0.0052 1.8329 0.0105 2.7771 0.0159 C3.7665 0.0191 4.7558 0.0223 5.7751 0.0256 C6.8161 0.034 7.857 0.0424 8.9294 0.051 C9.4518 0.0533 9.4518 0.0533 12.0955 0.0647 C14.686 0.0765 17.2764 0.093 19.8669 0.1135 C19.8669 2.4235 19.8669 4.7335 19.8669 7.1135 C12.2769 7.1135 4.6869 7.1135 -3.1331 7.1135 C-3.1331 0.1667 -3.1331 0.1667 0 0 Z " fill="#6B6762" transform="translate(683.133056640625,110.886474609375)"/>
<path d="M0 0 C7.59 0 15.18 0 23 0 C23 1.98 23 3.96 23 6 C21.378 7.622 19.5798 7.1299 17.3438 7.1328 C16.8739 7.1335 16.8739 7.1335 14.4961 7.1367 C13.5074 7.1329 12.5187 7.129 11.5 7.125 C10.5113 7.1289 9.5226 7.1327 8.5039 7.1367 C7.5642 7.1354 6.6245 7.1341 5.6562 7.1328 C4.7881 7.1317 3.9199 7.1306 3.0254 7.1294 C1 7 1 7 0 6 C0 4.02 0 2.04 0 0 Z " fill="#68645F" transform="translate(835,356)"/>
<path d="M0 0 C0.6875 1.6875 0.6875 1.6875 1 4 C-1.8755 10.2301 -7.1019 14.6823 -13 18 C-15.875 18.25 -15.875 18.25 -18 18 C-18 18.66 -18 19.32 -18 20 C-18.99 19.67 -19.98 19.34 -21 19 C-20.34 17.35 -19.68 15.7 -19 14 C-18.01 14 -17.02 14 -16 14 C-15.8144 13.2987 -15.6288 12.5975 -15.4375 11.875 C-13.7026 8.4052 -11.5673 6.7027 -8.5586 4.332 C-7 3 -7 3 -6 1 C-5.5978 1.0103 -5.5978 1.0103 -3.5625 1.0625 C-1 1 -1 1 0 0 Z " fill="#454039" transform="translate(1558,257)"/>
<path d="M0 0 C0.66 0.33 1.32 0.66 2 1 C2.2882 3.6297 2.4679 6.1748 2.5625 8.8125 C2.931 17.6341 2.931 17.6341 4 21 C4.66 21 5.32 21 6 21 C5.9884 20.4083 5.9768 19.8166 5.9648 19.207 C5.9168 14.9977 5.9399 11.1078 7 7 C7.33 7 7.66 7 8 7 C7.5036 27.227 7.5036 27.227 1.3672 33.7305 C0.916 34.1494 0.4648 34.5684 0 35 C-1.98 34.34 -3.96 33.68 -6 33 C-5.5663 31.4989 -5.1278 29.9992 -4.6875 28.5 C-4.4168 27.5757 -4.1461 26.6515 -3.8672 25.6992 C-3.1455 23.4529 -2.301 21.4448 -1.3125 19.3125 C1.071 13.3165 0.2231 6.3463 0 0 Z " fill="#544F48" transform="translate(1559,225)"/>
<path d="M0 0 C7.26 0 14.52 0 22 0 C22 2.31 22 4.62 22 7 C14.74 7 7.48 7 0 7 C0 4.69 0 2.38 0 0 Z " fill="#4C4841" transform="translate(636,356)"/>
<path d="M0 0 C7.26 0 14.52 0 22 0 C22 2.31 22 4.62 22 7 C14.74 7 7.48 7 0 7 C0 4.69 0 2.38 0 0 Z " fill="#4C4841" transform="translate(596,356)"/>
<path d="M0 0 C7.26 0 14.52 0 22 0 C22 2.31 22 4.62 22 7 C14.74 7 7.48 7 0 7 C0 4.69 0 2.38 0 0 Z " fill="#4C4841" transform="translate(556,356)"/>
<path d="M0 0 C7.26 0 14.52 0 22 0 C22 2.31 22 4.62 22 7 C14.74 7 7.48 7 0 7 C0 4.69 0 2.38 0 0 Z " fill="#4C4841" transform="translate(516,356)"/>
<path d="M0 0 C7.26 0 14.52 0 22 0 C22 2.31 22 4.62 22 7 C14.74 7 7.48 7 0 7 C0 4.69 0 2.38 0 0 Z " fill="#4C4841" transform="translate(476,356)"/>
<path d="M0 0 C7.26 0 14.52 0 22 0 C22 2.31 22 4.62 22 7 C14.74 7 7.48 7 0 7 C0 4.69 0 2.38 0 0 Z " fill="#4C4841" transform="translate(436,356)"/>
<path d="M0 0 C7.26 0 14.52 0 22 0 C22 2.31 22 4.62 22 7 C14.74 7 7.48 7 0 7 C0 4.69 0 2.38 0 0 Z " fill="#4C4841" transform="translate(1000,111)"/>
<path d="M0 0 C7.26 0 14.52 0 22 0 C22 2.31 22 4.62 22 7 C14.74 7 7.48 7 0 7 C0 4.69 0 2.38 0 0 Z " fill="#4C4841" transform="translate(960,111)"/>
<path d="M0 0 C7.26 0 14.52 0 22 0 C22 2.31 22 4.62 22 7 C14.74 7 7.48 7 0 7 C0 4.69 0 2.38 0 0 Z " fill="#4C4841" transform="translate(920,111)"/>
<path d="M0 0 C7.26 0 14.52 0 22 0 C22 2.31 22 4.62 22 7 C14.74 7 7.48 7 0 7 C0 4.69 0 2.38 0 0 Z " fill="#4C4841" transform="translate(880,111)"/>
<path d="M0 0 C7.26 0 14.52 0 22 0 C22 2.31 22 4.62 22 7 C14.74 7 7.48 7 0 7 C0 4.69 0 2.38 0 0 Z " fill="#4C4841" transform="translate(840,111)"/>
<path d="M0 0 C7.26 0 14.52 0 22 0 C22 1.98 22 3.96 22 6 C21 7 21 7 18.9587 7.1135 C18.0842 7.1083 17.2096 7.1031 16.3086 7.0977 C15.3644 7.0944 14.4201 7.0912 13.4473 7.0879 C12.454 7.0795 11.4608 7.0711 10.4375 7.0625 C9.4404 7.058 8.4433 7.0535 7.416 7.0488 C4.944 7.037 2.472 7.0205 0 7 C0 4.69 0 2.38 0 0 Z " fill="#65625C" transform="translate(1155,356)"/>
<path d="M0 0 C7.26 0 14.52 0 22 0 C22 1.98 22 3.96 22 6 C21 7 21 7 18.9587 7.1135 C18.0842 7.1083 17.2096 7.1031 16.3086 7.0977 C15.3644 7.0944 14.4201 7.0912 13.4473 7.0879 C12.454 7.0795 11.4608 7.0711 10.4375 7.0625 C9.4404 7.058 8.4433 7.0535 7.416 7.0488 C4.944 7.037 2.472 7.0205 0 7 C0 4.69 0 2.38 0 0 Z " fill="#65615C" transform="translate(237,356)"/>
<path d="M0 0 C7.26 0 14.52 0 22 0 C22 1.98 22 3.96 22 6 C21 7 21 7 18.9587 7.1135 C18.0842 7.1083 17.2096 7.1031 16.3086 7.0977 C15.3644 7.0944 14.4201 7.0912 13.4473 7.0879 C12.454 7.0795 11.4608 7.0711 10.4375 7.0625 C9.4404 7.058 8.4433 7.0535 7.416 7.0488 C4.944 7.037 2.472 7.0205 0 7 C0 4.69 0 2.38 0 0 Z " fill="#4F4A44" transform="translate(1115,356)"/>
<path d="M0 0 C3.4791 -0.0289 6.9583 -0.0468 10.4375 -0.0625 C10.9341 -0.0667 10.9341 -0.0667 13.4473 -0.0879 C14.3915 -0.0911 15.3357 -0.0943 16.3086 -0.0977 C16.7459 -0.1003 16.7459 -0.1003 18.9587 -0.1135 C21 0 21 0 22 1 C22 2.98 22 4.96 22 7 C14.74 7 7.48 7 0 7 C0 4.69 0 2.38 0 0 Z " fill="#4F4A44" transform="translate(481,111)"/>
<path d="M0 0 C3.4791 -0.0289 6.9583 -0.0468 10.4375 -0.0625 C10.9341 -0.0667 10.9341 -0.0667 13.4473 -0.0879 C14.3915 -0.0911 15.3357 -0.0943 16.3086 -0.0977 C16.7459 -0.1003 16.7459 -0.1003 18.9587 -0.1135 C21 0 21 0 22 1 C22 2.98 22 4.96 22 7 C14.74 7 7.48 7 0 7 C0 4.69 0 2.38 0 0 Z " fill="#4D4942" transform="translate(1120,111)"/>
<path d="M0 0 C3.4791 -0.0289 6.9583 -0.0468 10.4375 -0.0625 C10.9341 -0.0667 10.9341 -0.0667 13.4473 -0.0879 C14.3915 -0.0911 15.3357 -0.0943 16.3086 -0.0977 C16.7459 -0.1003 16.7459 -0.1003 18.9587 -0.1135 C21 0 21 0 22 1 C22 2.98 22 4.96 22 7 C14.74 7 7.48 7 0 7 C0 4.69 0 2.38 0 0 Z " fill="#4D4842" transform="translate(1080,111)"/>
<path d="M0 0 C6.93 0 13.86 0 21 0 C21 2.31 21 4.62 21 7 C14.07 7 7.14 7 0 7 C0 4.69 0 2.38 0 0 Z " fill="#4C4841" transform="translate(1195,356)"/>
<path d="M0 0 C6.93 0 13.86 0 21 0 C21 2.31 21 4.62 21 7 C14.07 7 7.14 7 0 7 C0 4.69 0 2.38 0 0 Z " fill="#4C4841" transform="translate(1200,111)"/>
<path d="M0 0 C6.93 0 13.86 0 21 0 C21 2.31 21 4.62 21 7 C14.07 7 7.14 7 0 7 C0 4.69 0 2.38 0 0 Z " fill="#4C4741" transform="translate(1160,111)"/>
<path d="M0 0 C6.93 0 13.86 0 21 0 C21 2.31 21 4.62 21 7 C14.07 7 7.14 7 0 7 C0 4.69 0 2.38 0 0 Z " fill="#4C4741" transform="translate(242,111)"/>
<path d="M0 0 C6.93 0 13.86 0 21 0 C21 2.31 21 4.62 21 7 C14.07 7 7.14 7 0 7 C0 4.69 0 2.38 0 0 Z " fill="#4C4741" transform="translate(202,111)"/>
<path d="M0 0 C0.99 0 1.98 0 3 0 C3 3.96 3 7.92 3 12 C32.37 12 61.74 12 92 12 C92 8.04 92 4.08 92 0 C92.99 0 93.98 0 95 0 C95 0.66 95 1.32 95 2 C95.99 2.33 96.98 2.66 98 3 C97.01 3.33 96.02 3.66 95 4 C94.67 6.97 94.34 9.94 94 13 C63.64 13 33.28 13 2 13 C1.67 9.37 1.34 5.74 1 2 C0.01 2 -0.98 2 -2 2 C-1.34 1.34 -0.68 0.68 0 0 Z " fill="#D6B063" transform="translate(478,220)"/>
<path d="M0 0 C7.26 0 14.52 0 22 0 C22 1.98 22 3.96 22 6 C14.74 6 7.48 6 0 6 C0 4.02 0 2.04 0 0 Z " fill="#45403A" transform="translate(796,356)"/>
<path d="M0 0 C7.26 0 14.52 0 22 0 C22 1.98 22 3.96 22 6 C14.74 6 7.48 6 0 6 C0 4.02 0 2.04 0 0 Z " fill="#46413A" transform="translate(197,356)"/>
<path d="M0 0 C7.26 0 14.52 0 22 0 C22 1.98 22 3.96 22 6 C14.74 6 7.48 6 0 6 C0 4.02 0 2.04 0 0 Z " fill="#433E37" transform="translate(800,112)"/>
<path d="M0 0 C7.26 0 14.52 0 22 0 C22 1.98 22 3.96 22 6 C14.74 6 7.48 6 0 6 C0 4.02 0 2.04 0 0 Z " fill="#443F38" transform="translate(720,112)"/>
<path d="M0 0 C7.26 0 14.52 0 22 0 C22 1.98 22 3.96 22 6 C14.74 6 7.48 6 0 6 C0 4.02 0 2.04 0 0 Z " fill="#433E37" transform="translate(1040,112)"/>
<path d="M0 0 C7.26 0 14.52 0 22 0 C22 1.98 22 3.96 22 6 C14.74 6 7.48 6 0 6 C0 4.02 0 2.04 0 0 Z " fill="#433F38" transform="translate(760,112)"/>
<path d="M0 0 C7.26 0 14.52 0 22 0 C22 1.98 22 3.96 22 6 C14.74 6 7.48 6 0 6 C0 4.02 0 2.04 0 0 Z " fill="#46413B" transform="translate(441,112)"/>
<path d="M0 0 C6.93 0 13.86 0 21 0 C20.67 2.31 20.34 4.62 20 7 C13.4 6.67 6.8 6.34 0 6 C0 4.02 0 2.04 0 0 Z " fill="#433E37" transform="translate(1280,112)"/>
<path d="M0 0 C6.93 0 13.86 0 21 0 C21 1.98 21 3.96 21 6 C14.07 6 7.14 6 0 6 C0 4.02 0 2.04 0 0 Z " fill="#423D36" transform="translate(1235,356)"/>
<path d="M0 0 C6.93 0 13.86 0 21 0 C21 1.98 21 3.96 21 6 C14.07 6 7.14 6 0 6 C0 4.02 0 2.04 0 0 Z " fill="#433F38" transform="translate(1075,356)"/>
<path d="M0 0 C6.93 0 13.86 0 21 0 C21 1.98 21 3.96 21 6 C14.07 6 7.14 6 0 6 C0 4.02 0 2.04 0 0 Z " fill="#443F38" transform="translate(1035,356)"/>
<path d="M0 0 C6.93 0 13.86 0 21 0 C21 1.98 21 3.96 21 6 C14.07 6 7.14 6 0 6 C0 4.02 0 2.04 0 0 Z " fill="#443F38" transform="translate(996,356)"/>
<path d="M0 0 C6.93 0 13.86 0 21 0 C21 1.98 21 3.96 21 6 C14.07 6 7.14 6 0 6 C0 4.02 0 2.04 0 0 Z " fill="#433F38" transform="translate(956,356)"/>
<path d="M0 0 C6.93 0 13.86 0 21 0 C21 1.98 21 3.96 21 6 C14.07 6 7.14 6 0 6 C0 4.02 0 2.04 0 0 Z " fill="#433E37" transform="translate(916,356)"/>
<path d="M0 0 C6.93 0 13.86 0 21 0 C21 1.98 21 3.96 21 6 C14.07 6 7.14 6 0 6 C0 4.02 0 2.04 0 0 Z " fill="#433E37" transform="translate(876,356)"/>
<path d="M0 0 C6.93 0 13.86 0 21 0 C21 1.98 21 3.96 21 6 C14.07 6 7.14 6 0 6 C0 4.02 0 2.04 0 0 Z " fill="#423D36" transform="translate(756,356)"/>
<path d="M0 0 C6.93 0 13.86 0 21 0 C21 1.98 21 3.96 21 6 C14.07 6 7.14 6 0 6 C0 4.02 0 2.04 0 0 Z " fill="#413D36" transform="translate(716,356)"/>
<path d="M0 0 C6.93 0 13.86 0 21 0 C21 1.98 21 3.96 21 6 C14.07 6 7.14 6 0 6 C0 4.02 0 2.04 0 0 Z " fill="#413D36" transform="translate(357,356)"/>
<path d="M0 0 C6.93 0 13.86 0 21 0 C21 1.98 21 3.96 21 6 C14.07 6 7.14 6 0 6 C0 4.02 0 2.04 0 0 Z " fill="#423D36" transform="translate(317,356)"/>
<path d="M0 0 C6.93 0 13.86 0 21 0 C21 1.98 21 3.96 21 6 C14.07 6 7.14 6 0 6 C0 4.02 0 2.04 0 0 Z " fill="#423D36" transform="translate(277,356)"/>
<path d="M0 0 C6.93 0 13.86 0 21 0 C21 1.98 21 3.96 21 6 C14.07 6 7.14 6 0 6 C0 4.02 0 2.04 0 0 Z " fill="#423D36" transform="translate(641,112)"/>
<path d="M0 0 C6.93 0 13.86 0 21 0 C21 1.98 21 3.96 21 6 C14.07 6 7.14 6 0 6 C0 4.02 0 2.04 0 0 Z " fill="#423E37" transform="translate(601,112)"/>
<path d="M0 0 C6.93 0 13.86 0 21 0 C21 1.98 21 3.96 21 6 C14.07 6 7.14 6 0 6 C0 4.02 0 2.04 0 0 Z " fill="#433E37" transform="translate(561,112)"/>
<path d="M0 0 C6.93 0 13.86 0 21 0 C21 1.98 21 3.96 21 6 C14.07 6 7.14 6 0 6 C0 4.02 0 2.04 0 0 Z " fill="#433E38" transform="translate(521,112)"/>
<path d="M0 0 C6.93 0 13.86 0 21 0 C21 1.98 21 3.96 21 6 C14.07 6 7.14 6 0 6 C0 4.02 0 2.04 0 0 Z " fill="#433E37" transform="translate(1240,112)"/>
<path d="M0 0 C6.93 0 13.86 0 21 0 C21 1.98 21 3.96 21 6 C14.07 6 7.14 6 0 6 C0 4.02 0 2.04 0 0 Z " fill="#443F38" transform="translate(402,112)"/>
<path d="M0 0 C6.93 0 13.86 0 21 0 C21 1.98 21 3.96 21 6 C14.07 6 7.14 6 0 6 C0 4.02 0 2.04 0 0 Z " fill="#433F38" transform="translate(362,112)"/>
<path d="M0 0 C6.93 0 13.86 0 21 0 C21 1.98 21 3.96 21 6 C14.07 6 7.14 6 0 6 C0 4.02 0 2.04 0 0 Z " fill="#433E37" transform="translate(322,112)"/>
<path d="M0 0 C6.93 0 13.86 0 21 0 C21 1.98 21 3.96 21 6 C14.07 6 7.14 6 0 6 C0 4.02 0 2.04 0 0 Z " fill="#433E37" transform="translate(282,112)"/>
<path d="M0 0 C3.8125 -0.0289 7.6249 -0.0468 11.4375 -0.0625 C12.5261 -0.0709 13.6147 -0.0793 14.7363 -0.0879 C15.7708 -0.0911 16.8053 -0.0943 17.8711 -0.0977 C18.8294 -0.1029 19.7878 -0.1081 20.7751 -0.1135 C23 0 23 0 24 1 C24.1328 2.8125 24.1328 2.8125 24.125 5 C24.1263 5.3609 24.1263 5.3609 24.1328 7.1875 C24 9 24 9 23 10 C21.3044 10.0993 19.6047 10.1308 17.9062 10.1328 C16.8763 10.1341 15.8463 10.1354 14.7852 10.1367 C14.2431 10.1348 14.2431 10.1348 11.5 10.125 C10.4159 10.1289 9.3318 10.1327 8.2148 10.1367 C7.1849 10.1354 6.1549 10.1341 5.0938 10.1328 C4.1418 10.1317 3.1898 10.1306 2.209 10.1294 C0 10 0 10 -1 9 C-1.2373 2.4746 -1.2373 2.4746 0 0 Z M1 3 C1 4.98 1 6.96 1 9 C7.93 9 14.86 9 22 9 C22 7.02 22 5.04 22 3 C15.07 3 8.14 3 1 3 Z " fill="#BAB8B6" transform="translate(1239,109)"/>
<path d="M0 0 C3.8125 -0.0289 7.6249 -0.0468 11.4375 -0.0625 C12.5261 -0.0709 13.6147 -0.0793 14.7363 -0.0879 C15.7708 -0.0911 16.8053 -0.0943 17.8711 -0.0977 C18.8294 -0.1029 19.7878 -0.1081 20.7751 -0.1135 C23 0 23 0 24 1 C24.1328 2.8125 24.1328 2.8125 24.125 5 C24.1263 5.3609 24.1263 5.3609 24.1328 7.1875 C24 9 24 9 23 10 C21.3044 10.0993 19.6047 10.1308 17.9062 10.1328 C16.8763 10.1341 15.8463 10.1354 14.7852 10.1367 C14.2431 10.1348 14.2431 10.1348 11.5 10.125 C10.4159 10.1289 9.3318 10.1327 8.2148 10.1367 C7.1849 10.1354 6.1549 10.1341 5.0938 10.1328 C4.1418 10.1317 3.1898 10.1306 2.209 10.1294 C0 10 0 10 -1 9 C-1.2373 2.4746 -1.2373 2.4746 0 0 Z M1 3 C1 4.98 1 6.96 1 9 C7.93 9 14.86 9 22 9 C22 7.02 22 5.04 22 3 C15.07 3 8.14 3 1 3 Z " fill="#BAB8B6" transform="translate(281,109)"/>
<path d="M0 0 C3.9792 -0.0289 7.9583 -0.0468 11.9375 -0.0625 C13.0738 -0.0709 14.2101 -0.0793 15.3809 -0.0879 C16.4604 -0.0911 17.54 -0.0943 18.6523 -0.0977 C19.1525 -0.1003 19.1525 -0.1003 21.6833 -0.1135 C24 0 24 0 25 1 C25.2373 7.5254 25.2373 7.5254 24 10 C20.3751 10.0579 16.7503 10.0936 13.125 10.125 C12.0925 10.1418 11.0599 10.1585 9.9961 10.1758 C9.01 10.1822 8.0238 10.1887 7.0078 10.1953 C6.5522 10.2005 6.5522 10.2005 4.2466 10.2271 C2 10 2 10 0 8 C-0.2699 5.3116 -0.0874 2.7086 0 0 Z M2 2 C2 3.98 2 5.96 2 8 C8.93 8 15.86 8 23 8 C23 6.02 23 4.04 23 2 C16.07 2 9.14 2 2 2 Z " fill="#B7B6B3" transform="translate(914,354)"/>
<path d="M0 0 C29.7 0 59.4 0 90 0 C90 0.33 90 0.66 90 1 C60.96 1 31.92 1 2 1 C2 4.96 2 8.92 2 13 C0.68 13 -0.64 13 -2 13 C-2 12.34 -2 11.68 -2 11 C-1.34 11 -0.68 11 0 11 C0 7.37 0 3.74 0 0 Z " fill="#F1E5CC" transform="translate(480,242)"/>
<path d="M0 0 C1.03 -0.0013 2.0599 -0.0026 3.1211 -0.0039 C3.6631 -0.002 3.6631 -0.002 6.4062 0.0078 C7.4904 0.0039 8.5745 0.0001 9.6914 -0.0039 C10.7214 -0.0026 11.7513 -0.0013 12.8125 0 C13.2885 0.0006 13.2885 0.0006 15.6973 0.0034 C17.9062 0.1328 17.9062 0.1328 18.9062 1.1328 C19.1435 7.6582 19.1435 7.6582 17.9062 10.1328 C10.3162 10.1328 2.7263 10.1328 -5.0938 10.1328 C-6.5848 7.1507 -6.2132 4.4167 -6.0938 1.1328 C-4.4086 -0.5524 -2.3061 0.0027 0 0 Z M-4.0938 2.1328 C-4.0938 4.1128 -4.0938 6.0928 -4.0938 8.1328 C3.1662 8.1328 10.4262 8.1328 17.9062 8.1328 C17.9062 6.1528 17.9062 4.1728 17.9062 2.1328 C10.6463 2.1328 3.3863 2.1328 -4.0938 2.1328 Z " fill="#BAB9B7" transform="translate(800.09375,353.8671875)"/>
<path d="M0 0 C3.8125 -0.0268 7.6249 -0.0468 11.4375 -0.0625 C12.5261 -0.0709 13.6147 -0.0793 14.7363 -0.0879 C15.7708 -0.0911 16.8053 -0.0943 17.8711 -0.0977 C18.8294 -0.1029 19.7878 -0.1081 20.7751 -0.1135 C23 0 23 0 24 1 C24.2373 7.5254 24.2373 7.5254 23 10 C15.41 10 7.82 10 0 10 C0 6.7 0 3.4 0 0 Z M1 2 C1 3.98 1 5.96 1 8 C7.93 8 14.86 8 22 8 C22 6.02 22 4.04 22 2 C15.07 2 8.14 2 1 2 Z " fill="#B5B3B1" transform="translate(316,354)"/>
<path d="M0 0 C0.9583 0.0052 1.9167 0.0105 2.9041 0.0159 C3.4213 0.0175 3.4213 0.0175 6.0388 0.0256 C7.1274 0.034 8.216 0.0424 9.3376 0.051 C9.8839 0.0533 9.8839 0.0533 12.6482 0.0647 C15.3572 0.0765 18.0662 0.0945 20.7751 0.1135 C20.7751 3.4135 20.7751 6.7135 20.7751 10.1135 C17.15 10.1673 13.5255 10.2071 9.9001 10.2385 C8.8676 10.2553 7.8351 10.272 6.7712 10.2893 C5.7851 10.2958 4.799 10.3022 3.783 10.3088 C3.3274 10.3141 3.3274 10.3141 1.0217 10.3406 C-1.2249 10.1135 -1.2249 10.1135 -3.2249 8.1135 C-3.4124 4.551 -3.4124 4.551 -3.2249 1.1135 C-2.2249 0.1135 -2.2249 0.1135 0 0 Z M-1.2249 2.1135 C-1.2249 4.0935 -1.2249 6.0735 -1.2249 8.1135 C5.7051 8.1135 12.6351 8.1135 19.7751 8.1135 C19.7751 6.1335 19.7751 4.1535 19.7751 2.1135 C12.8451 2.1135 5.9151 2.1135 -1.2249 2.1135 Z " fill="#B4B2B0" transform="translate(877.224853515625,353.886474609375)"/>
<path d="M0 0 C1.0002 0.0052 2.0005 0.0105 3.031 0.0159 C4.1106 0.0191 5.1902 0.0223 6.3025 0.0256 C6.8706 0.0298 6.8706 0.0298 9.7458 0.051 C10.3159 0.0533 10.3159 0.0533 13.2009 0.0647 C16.0285 0.0765 18.8559 0.093 21.6833 0.1135 C21.6833 3.0835 21.6833 6.0535 21.6833 9.1135 C17.7042 9.1424 13.7251 9.1603 9.7458 9.176 C9.1777 9.1802 9.1777 9.1802 6.3025 9.2014 C5.2229 9.2046 4.1433 9.2079 3.031 9.2112 C2.5309 9.2138 2.5309 9.2138 0 9.2271 C-2.3167 9.1135 -2.3167 9.1135 -3.3167 8.1135 C-3.4417 4.6135 -3.4417 4.6135 -3.3167 1.1135 C-2.3167 0.1135 -2.3167 0.1135 0 0 Z M-2.3167 2.1135 C-2.3167 4.0935 -2.3167 6.0735 -2.3167 8.1135 C4.9433 8.1135 12.2033 8.1135 19.6833 8.1135 C19.6833 6.1335 19.6833 4.1535 19.6833 2.1135 C12.4233 2.1135 5.1633 2.1135 -2.3167 2.1135 Z " fill="#B2B0AD" transform="translate(722.316650390625,109.886474609375)"/>
<path d="M0 0 C0.9848 -0.0013 1.9697 -0.0026 2.9844 -0.0039 C4.0208 -0 5.0572 0.0038 6.125 0.0078 C6.6432 0.0059 6.6432 0.0059 9.2656 -0.0039 C10.2505 -0.0026 11.2353 -0.0013 12.25 0 C13.1601 0.0011 14.0702 0.0023 15.0078 0.0034 C17.125 0.1328 17.125 0.1328 18.125 1.1328 C18.125 3.7728 18.125 6.4128 18.125 9.1328 C10.205 9.1328 2.285 9.1328 -5.875 9.1328 C-5.875 0.0073 -5.875 0.0073 0 0 Z M-4.875 1.1328 C-4.875 3.1128 -4.875 5.0928 -4.875 7.1328 C2.055 7.1328 8.985 7.1328 16.125 7.1328 C16.125 5.1528 16.125 3.1728 16.125 1.1328 C9.195 1.1328 2.265 1.1328 -4.875 1.1328 Z " fill="#A6A4A1" transform="translate(1039.875,354.8671875)"/>
<path d="M0 0 C0.9848 -0.0013 1.9697 -0.0026 2.9844 -0.0039 C4.0208 -0 5.0572 0.0038 6.125 0.0078 C6.6432 0.0059 6.6432 0.0059 9.2656 -0.0039 C10.2505 -0.0026 11.2353 -0.0013 12.25 0 C13.1601 0.0011 14.0702 0.0023 15.0078 0.0034 C17.125 0.1328 17.125 0.1328 18.125 1.1328 C18.125 3.7728 18.125 6.4128 18.125 9.1328 C10.205 9.1328 2.285 9.1328 -5.875 9.1328 C-5.875 0.0073 -5.875 0.0073 0 0 Z M-3.875 1.1328 C-3.875 3.1128 -3.875 5.0928 -3.875 7.1328 C3.055 7.1328 9.985 7.1328 17.125 7.1328 C17.125 5.1528 17.125 3.1728 17.125 1.1328 C10.195 1.1328 3.265 1.1328 -3.875 1.1328 Z " fill="#A6A4A1" transform="translate(999.875,354.8671875)"/>
<path d="M0 0 C3.8125 -0.0289 7.6249 -0.0468 11.4375 -0.0625 C12.5261 -0.0709 13.6147 -0.0793 14.7363 -0.0879 C15.7708 -0.0911 16.8053 -0.0943 17.8711 -0.0977 C18.8294 -0.1029 19.7878 -0.1081 20.7751 -0.1135 C23 0 23 0 24 1 C24.125 4.5 24.125 4.5 24 8 C22.3461 9.6539 20.3968 9.13 18.125 9.1328 C17.1402 9.1341 16.1553 9.1354 15.1406 9.1367 C14.1042 9.1329 13.0678 9.129 12 9.125 C11.4818 9.1269 11.4818 9.1269 8.8594 9.1367 C7.8745 9.1354 6.8897 9.1341 5.875 9.1328 C4.9649 9.1317 4.0548 9.1306 3.1172 9.1294 C1 9 1 9 0 8 C-0.1412 5.3294 -0.0425 2.6757 0 0 Z M2 2 C2 3.98 2 5.96 2 8 C8.93 8 15.86 8 23 8 C23 6.02 23 4.04 23 2 C16.07 2 9.14 2 2 2 Z " fill="#A6A4A1" transform="translate(400,110)"/>
<path d="M0 0 C6.6 0 13.2 0 20 0 C20 1.32 20 2.64 20 4 C13.4 4 6.8 4 0 4 C0 2.68 0 1.36 0 0 Z " fill="#36312A" transform="translate(677,357)"/>
<path d="M0 0 C6.6 0 13.2 0 20 0 C20 1.32 20 2.64 20 4 C13.4 4 6.8 4 0 4 C0 2.68 0 1.36 0 0 Z " fill="#37312A" transform="translate(397,357)"/>
<path d="M0 0 C6.6 0 13.2 0 20 0 C20 1.32 20 2.64 20 4 C13.4 4 6.8 4 0 4 C0 2.68 0 1.36 0 0 Z " fill="#38332B" transform="translate(681,113)"/>
<path d="M0 0 C6.27 0 12.54 0 19 0 C19 1.32 19 2.64 19 4 C12.73 4 6.46 4 0 4 C0 2.68 0 1.36 0 0 Z " fill="#38332B" transform="translate(1156,357)"/>
<path d="M0 0 C6.27 0 12.54 0 19 0 C19 1.32 19 2.64 19 4 C12.73 4 6.46 4 0 4 C0 2.68 0 1.36 0 0 Z " fill="#38332B" transform="translate(837,357)"/>
<path d="M0 0 C6.27 0 12.54 0 19 0 C19 1.32 19 2.64 19 4 C12.73 4 6.46 4 0 4 C0 2.68 0 1.36 0 0 Z " fill="#38332B" transform="translate(238,357)"/>
<path d="M0 0 C5.94 0 11.88 0 18 0 C18 1.32 18 2.64 18 4 C11.4 4 4.8 4 -2 4 C-2 3.34 -2 2.68 -2 2 C-1.34 2 -0.68 2 0 2 C0 1.34 0 0.68 0 0 Z " fill="#37322B" transform="translate(159,357)"/>
<path d="M0 0 C0.33 0.66 0.66 1.32 1 2 C0.7035 2.776 0.407 3.552 0.1016 4.3516 C-1.4983 9.6503 -1.4693 14.8675 -1.625 20.375 C-1.6637 21.4926 -1.7023 22.6102 -1.7422 23.7617 C-1.8361 26.5077 -1.9217 29.2536 -2 32 C-1.34 32 -0.68 32 0 32 C0.33 34.97 0.66 37.94 1 41 C0.34 40.67 -0.32 40.34 -1 40 C-1 38.68 -1 37.36 -1 36 C-1.66 36 -2.32 36 -3 36 C-3.9987 30.9983 -4.1833 26.2018 -4.1875 21.125 C-4.1936 20.7428 -4.1936 20.7428 -4.2246 18.8086 C-4.2415 12.1885 -3.4004 5.8293 0 0 Z " fill="#85827D" transform="translate(1349,214)"/>
<path d="M0 0 C3.9818 2.1015 6.3504 4.3691 9 8 C8.67 8.66 8.34 9.32 8 10 C7.34 9.67 6.68 9.34 6 9 C6 9.99 6 10.98 6 12 C5.34 12 4.68 12 4 12 C3.67 12.66 3.34 13.32 3 14 C0.03 11.03 -2.94 8.06 -6 5 C-3 5 -3 5 0 7 C2.1875 6.625 2.1875 6.625 4 6 C4 5.34 4 4.68 4 4 C2.68 4 1.36 4 0 4 C0 2.68 0 1.36 0 0 Z " fill="#5D5952" transform="translate(1549,197)"/>
<path d="M0 0 C2.64 0 5.28 0 8 0 C8.0539 2.7711 8.0936 5.5411 8.125 8.3125 C8.1418 9.0982 8.1585 9.8839 8.1758 10.6934 C8.1822 11.4507 8.1887 12.208 8.1953 12.9883 C8.2058 13.6848 8.2163 14.3813 8.2271 15.0989 C8 17 8 17 6 20 C6.33 13.73 6.66 7.46 7 1 C5.02 1 3.04 1 1 1 C1.0116 2.1202 1.0232 3.2404 1.0352 4.3945 C1.0445 5.8672 1.0536 7.3398 1.0625 8.8125 C1.0709 9.5505 1.0793 10.2885 1.0879 11.0488 C1.1026 14.2992 1.0353 16.894 0 20 C1.98 20.33 3.96 20.66 6 21 C5.67 21.99 5.34 22.98 5 24 C4.01 24 3.02 24 2 24 C2 23.34 2 22.68 2 22 C0.68 21.67 -0.64 21.34 -2 21 C-1.67 17.535 -1.67 17.535 0 0 Z " fill="#87847F" transform="translate(1310,328)"/>
<path d="M0 0 C0.66 0.33 1.32 0.66 2 1 C0.68 1.33 -0.64 1.66 -2 2 C-2 2.99 -2 3.98 -2 5 C0.64 5.33 3.28 5.66 6 6 C4.6948 8.6105 3.6417 8.6807 0.9375 9.625 C0.204 9.8854 -0.5295 10.1458 -1.2852 10.4141 C-1.8511 10.6074 -2.417 10.8008 -3 11 C-3 10.34 -3 9.68 -3 9 C-3.66 9 -4.32 9 -5 9 C-4.67 8.01 -4.34 7.02 -4 6 C-7 7 -7 7 -8.4375 9 C-10.228 11.2919 -11.1813 11.6112 -14 12 C-14 11.34 -14 10.68 -14 10 C-13.34 10 -12.68 10 -12 10 C-12 9.34 -12 8.68 -12 8 C-10.1367 6.3086 -10.1367 6.3086 -7.6875 4.4375 C-7.2872 4.1275 -7.2872 4.1275 -5.2617 2.5586 C-3 1 -3 1 0 0 Z " fill="#67625C" transform="translate(1372,190)"/>
</svg>
