<?xml version="1.0" encoding="UTF-8"?>
<!-- Generator: visioncortex VTracer 0.6.12 -->
<svg version="1.1" xmlns="http://www.w3.org/2000/svg" width="1600" height="474">
<path d="M0 0 C528 0 1056 0 1600 0 C1600 156.42 1600 312.84 1600 474 C1072 474 544 474 0 474 C0 317.58 0 161.16 0 0 Z " fill="#FEFEFE" transform="translate(0,0)"/>
<path d="M0 0 C1.0907 -0.0017 2.1814 -0.0034 3.3051 -0.0052 C6.9363 -0.0085 10.5673 0.0025 14.1985 0.0135 C16.8107 0.014 19.423 0.0137 22.0353 0.0126 C27.6473 0.0115 33.2593 0.0178 38.8713 0.029 C46.9851 0.0453 55.0989 0.0505 63.2128 0.053 C76.3791 0.0574 89.5454 0.0707 102.7116 0.0896 C115.4965 0.108 128.2813 0.1222 141.0661 0.1306 C141.4606 0.1309 141.4606 0.1309 143.4568 0.1322 C147.4149 0.1348 151.373 0.1374 155.331 0.1399 C188.1331 0.1606 220.935 0.1958 253.737 0.2405 C253.737 0.9005 253.737 1.5605 253.737 2.2405 C254.6239 2.1993 255.5108 2.158 256.4245 2.1155 C259.7399 2.2406 261.8066 2.7334 264.737 4.2405 C265.067 4.9005 265.397 5.5605 265.737 6.2405 C267.7187 7.2764 269.7218 8.2716 271.737 9.2405 C274.612 10.803 274.612 10.803 276.737 12.2405 C276.737 12.9005 276.737 13.5605 276.737 14.2405 C277.397 14.2405 278.057 14.2405 278.737 14.2405 C289.6957 29.6075 287.8842 47.9366 287.7458 65.9203 C287.7178 70.4648 287.731 75.0092 287.738 79.5538 C287.7434 87.1742 287.7167 94.794 287.6701 102.4143 C287.6168 111.1995 287.6135 119.9836 287.6369 128.7688 C287.6585 137.2623 287.6461 145.7554 287.6178 154.2488 C287.6063 157.8459 287.6064 161.4427 287.6159 165.0398 C287.6255 169.2773 287.605 173.5137 287.562 177.7511 C287.551 179.2977 287.5499 180.8445 287.5599 182.3911 C287.63 194.7207 284.7601 203.4723 276.2995 212.678 C275.5996 213.4605 274.8996 214.2429 274.1784 215.0491 C260.324 227.4848 240.1105 225.8101 222.8132 225.7263 C220.2229 225.7285 217.6325 225.7324 215.0422 225.7379 C208.7744 225.7479 202.5069 225.7368 196.2391 225.7182 C188.9289 225.6973 181.6187 225.6975 174.3084 225.6985 C161.2644 225.6995 148.2205 225.6813 135.1765 225.6521 C122.5358 225.6239 109.8953 225.6098 97.2546 225.6111 C96.8647 225.6112 96.8647 225.6112 94.8915 225.6114 C94.1129 225.6114 93.3344 225.6115 92.5323 225.6116 C78.1067 225.613 63.6811 225.6012 49.2555 225.5833 C44.1655 225.5773 39.0755 225.5751 33.9855 225.5742 C27.1367 225.5727 20.288 225.56 13.4392 225.5399 C10.9269 225.5341 8.4147 225.5316 5.9025 225.5328 C2.4728 225.5337 -0.9565 225.5224 -4.3861 225.5079 C-5.3791 225.511 -6.3721 225.5141 -7.3952 225.5173 C-18.5061 225.4399 -27.7474 222.5429 -35.9348 214.6233 C-37.1142 213.2183 -38.1937 211.731 -39.263 210.2405 C-39.9197 209.4759 -40.5764 208.7113 -41.253 207.9235 C-48.0991 198.785 -47.8281 186.9918 -47.7171 176.0772 C-47.7159 174.4989 -47.7166 172.9207 -47.7188 171.3424 C-47.72 167.0993 -47.6966 162.8567 -47.6685 158.6137 C-47.6434 154.1642 -47.6412 149.7146 -47.6364 145.265 C-47.6241 136.8576 -47.5913 128.4504 -47.551 120.043 C-47.5062 110.4638 -47.4843 100.8845 -47.4643 91.3051 C-47.4226 71.6168 -47.3523 51.9287 -47.263 32.2405 C-46.603 31.9105 -45.943 31.5805 -45.263 31.2405 C-44.8314 29.4197 -44.4682 27.5824 -44.138 25.7405 C-42.5224 18.8438 -39.3738 14.9905 -34.263 10.2405 C-33.7319 9.7262 -33.2008 9.2118 -32.6536 8.6819 C-23.6696 0.5432 -11.5117 -0.0669 0 0 Z " fill="#E8E3D8" transform="translate(343.2629699707031,123.75949096679688)"/>
<path d="M0 0 C1.0971 -0.0017 2.1943 -0.0034 3.3247 -0.0052 C6.9897 -0.0085 10.6546 0.0025 14.3196 0.0135 C16.9513 0.014 19.583 0.0137 22.2146 0.0126 C27.8747 0.0115 33.5347 0.0178 39.1948 0.029 C47.3781 0.0453 55.5615 0.0505 63.7449 0.053 C77.0232 0.0574 90.3015 0.0707 103.5798 0.0896 C116.4753 0.108 129.3708 0.1222 142.2664 0.1306 C143.0618 0.1312 143.8572 0.1317 144.6767 0.1322 C148.6673 0.1348 152.6579 0.1374 156.6485 0.1399 C189.7329 0.1606 222.8172 0.1958 255.9016 0.2405 C255.9016 0.9005 255.9016 1.5605 255.9016 2.2405 C257.8816 2.2405 259.8616 2.2405 261.9016 2.2405 C261.9016 2.9005 261.9016 3.5605 261.9016 4.2405 C262.5822 4.323 263.2629 4.4055 263.9641 4.4905 C271.5228 6.4204 277.3969 11.2907 281.5266 17.803 C281.9804 18.6074 282.4341 19.4118 282.9016 20.2405 C283.5822 21.0036 284.2629 21.7668 284.9641 22.553 C290.3577 30.0345 289.1863 39.7976 289.1604 48.6016 C289.1631 50.1547 289.1667 51.7077 289.171 53.2608 C289.1801 57.4612 289.1766 61.6616 289.1703 65.862 C289.1652 70.2687 289.1699 74.6754 289.173 79.0821 C289.1767 86.482 289.1719 93.8819 289.1624 101.2818 C289.1515 109.8217 289.155 118.3615 289.166 126.9013 C289.1751 134.2485 289.1764 141.5957 289.1711 148.9428 C289.168 153.3243 289.1676 157.7058 289.1742 162.0873 C289.18 166.2086 289.1759 170.3298 289.1644 174.4511 C289.1618 175.9582 289.1625 177.4654 289.1669 178.9726 C289.1874 186.6457 288.9735 193.8025 286.9016 201.2405 C286.2416 201.2405 285.5816 201.2405 284.9016 201.2405 C284.7895 201.8219 284.6773 202.4032 284.5618 203.0022 C282.2742 210.7584 274.4729 217.5126 267.7415 221.5296 C258.9684 225.831 249.2705 225.3889 239.7035 225.3675 C238.6197 225.3691 237.536 225.3706 236.4193 225.3722 C232.8114 225.3762 229.2034 225.3731 225.5955 225.3699 C222.9995 225.3713 220.4036 225.373 217.8076 225.3752 C211.5044 225.3796 205.2011 225.3787 198.8979 225.3758 C193.7761 225.3735 188.6543 225.3732 183.5325 225.3743 C183.1675 225.3744 183.1675 225.3744 181.3199 225.3748 C179.8364 225.3751 178.3529 225.3754 176.8694 225.3758 C162.9802 225.3786 149.091 225.3753 135.2018 225.37 C123.2835 225.3655 111.3653 225.3663 99.447 225.3709 C85.5967 225.3762 71.7463 225.3783 57.896 225.3753 C56.4199 225.3749 54.9438 225.3746 53.4678 225.3743 C52.7416 225.3742 52.0154 225.374 51.2671 225.3739 C46.1483 225.373 41.0294 225.3745 35.9106 225.3768 C29.0274 225.3799 22.1443 225.3777 15.2611 225.3719 C12.731 225.3706 10.201 225.371 7.671 225.3732 C4.2266 225.3759 0.7822 225.3725 -2.6622 225.3675 C-3.1666 225.3686 -3.1666 225.3686 -5.719 225.3743 C-6.6404 225.3716 -7.5618 225.369 -8.5111 225.3664 C-8.9087 225.3663 -8.9087 225.3663 -10.9203 225.3659 C-13.0981 225.2405 -15.0061 224.8415 -17.0984 224.2405 C-17.0984 223.5805 -17.0984 222.9205 -17.0984 222.2405 C-17.9646 222.323 -18.8309 222.4055 -19.7234 222.4905 C-27.0948 221.9445 -32.489 215.5845 -37.0984 210.2405 C-44.7848 199.5744 -45.3989 189.797 -45.3889 177.0506 C-45.3949 175.5155 -45.4017 173.9804 -45.4093 172.4453 C-45.4269 168.292 -45.4316 164.1389 -45.4329 159.9856 C-45.4343 157.3844 -45.4386 154.7831 -45.4439 152.1819 C-45.4624 143.0883 -45.4706 133.9948 -45.469 124.9012 C-45.4678 116.4556 -45.4889 108.0103 -45.5205 99.5648 C-45.5467 92.2897 -45.5574 85.0147 -45.5561 77.7396 C-45.5556 73.4054 -45.5611 69.0714 -45.5824 64.7372 C-45.602 60.6543 -45.6018 56.5719 -45.5874 52.4891 C-45.5853 51.0017 -45.5899 49.5143 -45.6021 48.027 C-45.6821 37.6043 -45.3825 25.2324 -38.696 16.6077 C-37.8594 15.7853 -37.0228 14.9629 -36.1609 14.1155 C-35.3269 13.2673 -34.4928 12.4191 -33.6335 11.5452 C-23.5117 2.3435 -13.3309 -0.0765 0 0 Z " fill="#E8E3D8" transform="translate(865.098388671875,123.75949096679688)"/>
<path d="M0 0 C1.0907 -0.0017 2.1814 -0.0034 3.3051 -0.0052 C6.9363 -0.0085 10.5673 0.0025 14.1985 0.0135 C16.8107 0.014 19.423 0.0137 22.0353 0.0126 C27.6473 0.0115 33.2593 0.0178 38.8713 0.029 C46.9851 0.0453 55.0989 0.0505 63.2128 0.053 C76.3791 0.0574 89.5454 0.0707 102.7116 0.0896 C115.4965 0.108 128.2813 0.1222 141.0661 0.1306 C141.4606 0.1309 141.4606 0.1309 143.4568 0.1322 C147.4149 0.1348 151.373 0.1374 155.331 0.1399 C188.1331 0.1606 220.935 0.1958 253.737 0.2405 C253.737 0.9005 253.737 1.5605 253.737 2.2405 C254.6239 2.1993 255.5108 2.158 256.4245 2.1155 C259.7399 2.2406 261.8066 2.7334 264.737 4.2405 C265.067 4.9005 265.397 5.5605 265.737 6.2405 C267.7187 7.2764 269.7218 8.2716 271.737 9.2405 C274.612 10.803 274.612 10.803 276.737 12.2405 C276.737 12.9005 276.737 13.5605 276.737 14.2405 C277.397 14.2405 278.057 14.2405 278.737 14.2405 C289.6957 29.6075 287.8842 47.9366 287.7458 65.9203 C287.7178 70.4648 287.731 75.0092 287.738 79.5538 C287.7434 87.1742 287.7167 94.794 287.6701 102.4143 C287.6168 111.1995 287.6135 119.9836 287.6369 128.7688 C287.6585 137.2623 287.6461 145.7554 287.6178 154.2488 C287.6063 157.8459 287.6064 161.4427 287.6159 165.0398 C287.6255 169.2773 287.605 173.5137 287.562 177.7511 C287.551 179.2977 287.5499 180.8445 287.5599 182.3911 C287.63 194.7207 284.7601 203.4723 276.2995 212.678 C275.5996 213.4605 274.8996 214.2429 274.1784 215.0491 C260.324 227.4848 240.1105 225.8101 222.8132 225.7263 C220.2229 225.7285 217.6325 225.7324 215.0422 225.7379 C208.7744 225.7479 202.5069 225.7368 196.2391 225.7182 C188.9289 225.6973 181.6187 225.6975 174.3084 225.6985 C161.2644 225.6995 148.2205 225.6813 135.1765 225.6521 C122.5358 225.6239 109.8953 225.6098 97.2546 225.6111 C96.8647 225.6112 96.8647 225.6112 94.8915 225.6114 C94.1129 225.6114 93.3344 225.6115 92.5323 225.6116 C78.1067 225.613 63.6811 225.6012 49.2555 225.5833 C44.1655 225.5773 39.0755 225.5751 33.9855 225.5742 C27.1367 225.5727 20.288 225.56 13.4392 225.5399 C10.9269 225.5341 8.4147 225.5316 5.9025 225.5328 C2.4728 225.5337 -0.9565 225.5224 -4.3861 225.5079 C-5.3791 225.511 -6.3721 225.5141 -7.3952 225.5173 C-18.5061 225.4399 -27.7474 222.5429 -35.9348 214.6233 C-37.1142 213.2183 -38.1937 211.731 -39.263 210.2405 C-39.9197 209.4759 -40.5764 208.7113 -41.253 207.9235 C-48.0991 198.785 -47.8281 186.9918 -47.7171 176.0772 C-47.7159 174.4989 -47.7166 172.9207 -47.7188 171.3424 C-47.72 167.0993 -47.6966 162.8567 -47.6685 158.6137 C-47.6434 154.1642 -47.6412 149.7146 -47.6364 145.265 C-47.6241 136.8576 -47.5913 128.4504 -47.551 120.043 C-47.5062 110.4638 -47.4843 100.8845 -47.4643 91.3051 C-47.4226 71.6168 -47.3523 51.9287 -47.263 32.2405 C-46.603 31.9105 -45.943 31.5805 -45.263 31.2405 C-44.8314 29.4197 -44.4682 27.5824 -44.138 25.7405 C-42.5224 18.8438 -39.3738 14.9905 -34.263 10.2405 C-33.7319 9.7262 -33.2008 9.2118 -32.6536 8.6819 C-23.6696 0.5432 -11.5117 -0.0669 0 0 Z M-29.513 19.053 C-31.7768 21.8828 -32.8906 24.899 -34.263 28.2405 C-34.7799 28.8383 -35.2968 29.4361 -35.8294 30.0521 C-37.7923 33.0486 -37.6377 35.1882 -37.6372 38.7554 C-37.6412 39.4079 -37.6451 40.0605 -37.6492 40.7328 C-37.6589 42.9177 -37.647 45.102 -37.6353 47.2869 C-37.6377 48.8541 -37.6414 50.4213 -37.6463 51.9885 C-37.6558 56.2448 -37.6463 60.5009 -37.633 64.7572 C-37.6217 69.212 -37.6258 73.6668 -37.6278 78.1216 C-37.6286 85.6052 -37.6176 93.0886 -37.5992 100.5721 C-37.578 109.2199 -37.5745 117.8675 -37.5807 126.5153 C-37.5864 134.8362 -37.5808 143.157 -37.5695 151.4779 C-37.5649 155.0176 -37.564 158.5573 -37.5661 162.097 C-37.568 166.2684 -37.5599 170.4395 -37.5441 174.6108 C-37.5398 176.1402 -37.539 177.6696 -37.5418 179.199 C-37.545 181.2901 -37.5359 183.3807 -37.5237 185.4717 C-37.5216 186.6408 -37.5196 187.81 -37.5174 189.0146 C-37.2522 192.3767 -36.4619 195.0998 -35.263 198.2405 C-34.603 198.2405 -33.943 198.2405 -33.263 198.2405 C-33.1637 198.818 -33.0645 199.3955 -32.9622 199.9905 C-31.3347 205.2275 -26.5061 209.2136 -22.388 212.6155 C-15.1084 216.4009 -7.3885 216.5322 0.6673 216.5012 C1.2009 216.5031 1.2009 216.5031 3.9011 216.5128 C7.4591 216.5231 11.0169 216.5191 14.5749 216.5152 C17.133 216.5195 19.6912 216.5247 22.2493 216.5307 C28.4655 216.5426 34.6816 216.5452 40.8978 216.5429 C45.9519 216.5411 51.0059 216.5428 56.06 216.5471 C56.7805 216.5477 57.5011 216.5483 58.2435 216.5489 C59.7075 216.5501 61.1715 216.5513 62.6354 216.5525 C76.3488 216.5634 90.0622 216.5612 103.7756 216.5551 C116.3108 216.55 128.8459 216.5612 141.3811 216.5802 C154.267 216.5996 167.1528 216.6079 180.0387 216.6041 C187.2673 216.6022 194.4958 216.6047 201.7244 216.6188 C208.5206 216.632 215.3167 216.6295 222.1129 216.6164 C224.6054 216.6141 227.0979 216.6168 229.5903 216.625 C232.996 216.6355 236.4011 216.6274 239.8067 216.6147 C240.7899 216.6221 241.7731 216.6295 242.7861 216.6371 C252.6158 216.5602 260.517 214.035 267.737 207.2405 C273.5102 200.7969 276.9851 195.6253 276.991 186.7774 C276.9966 185.471 277.0023 184.1645 277.0081 182.8184 C277.0042 181.3774 277.0001 179.9364 276.9958 178.4954 C276.9985 176.9723 277.0021 175.4493 277.0064 173.9262 C277.0156 169.7938 277.012 165.6614 277.0057 161.529 C277.0006 157.1983 277.0053 152.8677 277.0085 148.5371 C277.0121 141.2605 277.0073 133.9839 276.9978 126.7073 C276.9869 118.3089 276.9904 109.9106 277.0014 101.5122 C277.0105 94.2925 277.0118 87.0728 277.0065 79.8531 C277.0034 75.5453 277.003 71.2376 277.0096 66.9298 C277.0154 62.875 277.0113 58.8204 276.9998 54.7656 C276.9972 53.2826 276.9979 51.7996 277.0024 50.3166 C277.0579 29.8579 277.0579 29.8579 270.737 22.2405 C260.6805 12.2405 260.6805 12.2405 252.737 12.2405 C252.737 11.5805 252.737 10.9205 252.737 10.2405 C219.1138 10.1718 185.4906 10.119 151.8673 10.0873 C147.8969 10.0836 143.9266 10.0797 139.9563 10.0757 C139.1659 10.0749 138.3754 10.0741 137.5611 10.0733 C124.766 10.0603 111.9709 10.0366 99.1758 10.0091 C86.045 9.981 72.9143 9.9643 59.7835 9.9582 C51.6823 9.9541 43.5812 9.9411 35.4801 9.9168 C29.2661 9.899 23.0522 9.8971 16.8383 9.9012 C14.2906 9.9004 11.7428 9.8944 9.1952 9.8829 C5.7164 9.868 2.2382 9.8716 -1.2405 9.8797 C-2.2483 9.871 -3.2561 9.8623 -4.2944 9.8533 C-13.9233 9.9145 -21.9681 12.9752 -29.513 19.053 Z " fill="#49443D" transform="translate(343.2629699707031,123.75949096679688)"/>
<path d="M0 0 C1.0971 -0.0017 2.1943 -0.0034 3.3247 -0.0052 C6.9897 -0.0085 10.6546 0.0025 14.3196 0.0135 C16.9513 0.014 19.583 0.0137 22.2146 0.0126 C27.8747 0.0115 33.5347 0.0178 39.1948 0.029 C47.3781 0.0453 55.5615 0.0505 63.7449 0.053 C77.0232 0.0574 90.3015 0.0707 103.5798 0.0896 C116.4753 0.108 129.3708 0.1222 142.2664 0.1306 C143.0618 0.1312 143.8572 0.1317 144.6767 0.1322 C148.6673 0.1348 152.6579 0.1374 156.6485 0.1399 C189.7329 0.1606 222.8172 0.1958 255.9016 0.2405 C255.9016 0.9005 255.9016 1.5605 255.9016 2.2405 C257.8816 2.2405 259.8616 2.2405 261.9016 2.2405 C261.9016 2.9005 261.9016 3.5605 261.9016 4.2405 C262.5822 4.323 263.2629 4.4055 263.9641 4.4905 C271.5228 6.4204 277.3969 11.2907 281.5266 17.803 C281.9804 18.6074 282.4341 19.4118 282.9016 20.2405 C283.5822 21.0036 284.2629 21.7668 284.9641 22.553 C290.3577 30.0345 289.1863 39.7976 289.1604 48.6016 C289.1631 50.1547 289.1667 51.7077 289.171 53.2608 C289.1801 57.4612 289.1766 61.6616 289.1703 65.862 C289.1652 70.2687 289.1699 74.6754 289.173 79.0821 C289.1767 86.482 289.1719 93.8819 289.1624 101.2818 C289.1515 109.8217 289.155 118.3615 289.166 126.9013 C289.1751 134.2485 289.1764 141.5957 289.1711 148.9428 C289.168 153.3243 289.1676 157.7058 289.1742 162.0873 C289.18 166.2086 289.1759 170.3298 289.1644 174.4511 C289.1618 175.9582 289.1625 177.4654 289.1669 178.9726 C289.1874 186.6457 288.9735 193.8025 286.9016 201.2405 C286.2416 201.2405 285.5816 201.2405 284.9016 201.2405 C284.7895 201.8219 284.6773 202.4032 284.5618 203.0022 C282.2742 210.7584 274.4729 217.5126 267.7415 221.5296 C258.9684 225.831 249.2705 225.3889 239.7035 225.3675 C238.6197 225.3691 237.536 225.3706 236.4193 225.3722 C232.8114 225.3762 229.2034 225.3731 225.5955 225.3699 C222.9995 225.3713 220.4036 225.373 217.8076 225.3752 C211.5044 225.3796 205.2011 225.3787 198.8979 225.3758 C193.7761 225.3735 188.6543 225.3732 183.5325 225.3743 C183.1675 225.3744 183.1675 225.3744 181.3199 225.3748 C179.8364 225.3751 178.3529 225.3754 176.8694 225.3758 C162.9802 225.3786 149.091 225.3753 135.2018 225.37 C123.2835 225.3655 111.3653 225.3663 99.447 225.3709 C85.5967 225.3762 71.7463 225.3783 57.896 225.3753 C56.4199 225.3749 54.9438 225.3746 53.4678 225.3743 C52.7416 225.3742 52.0154 225.374 51.2671 225.3739 C46.1483 225.373 41.0294 225.3745 35.9106 225.3768 C29.0274 225.3799 22.1443 225.3777 15.2611 225.3719 C12.731 225.3706 10.201 225.371 7.671 225.3732 C4.2266 225.3759 0.7822 225.3725 -2.6622 225.3675 C-3.1666 225.3686 -3.1666 225.3686 -5.719 225.3743 C-6.6404 225.3716 -7.5618 225.369 -8.5111 225.3664 C-8.9087 225.3663 -8.9087 225.3663 -10.9203 225.3659 C-13.0981 225.2405 -15.0061 224.8415 -17.0984 224.2405 C-17.0984 223.5805 -17.0984 222.9205 -17.0984 222.2405 C-17.9646 222.323 -18.8309 222.4055 -19.7234 222.4905 C-27.0948 221.9445 -32.489 215.5845 -37.0984 210.2405 C-44.7848 199.5744 -45.3989 189.797 -45.3889 177.0506 C-45.3949 175.5155 -45.4017 173.9804 -45.4093 172.4453 C-45.4269 168.292 -45.4316 164.1389 -45.4329 159.9856 C-45.4343 157.3844 -45.4386 154.7831 -45.4439 152.1819 C-45.4624 143.0883 -45.4706 133.9948 -45.469 124.9012 C-45.4678 116.4556 -45.4889 108.0103 -45.5205 99.5648 C-45.5467 92.2897 -45.5574 85.0147 -45.5561 77.7396 C-45.5556 73.4054 -45.5611 69.0714 -45.5824 64.7372 C-45.602 60.6543 -45.6018 56.5719 -45.5874 52.4891 C-45.5853 51.0017 -45.5899 49.5143 -45.6021 48.027 C-45.6821 37.6043 -45.3825 25.2324 -38.696 16.6077 C-37.8594 15.7853 -37.0228 14.9629 -36.1609 14.1155 C-35.3269 13.2673 -34.4928 12.4191 -33.6335 11.5452 C-23.5117 2.3435 -13.3309 -0.0765 0 0 Z M-30.5203 22.6546 C-35.771 31.2585 -35.5307 40.7754 -35.4866 50.5533 C-35.4906 52.0771 -35.496 53.6009 -35.5025 55.1246 C-35.5161 59.2362 -35.5109 63.3475 -35.5014 67.459 C-35.4937 71.7763 -35.5008 76.0935 -35.5055 80.4108 C-35.511 87.6575 -35.5038 94.9042 -35.4895 102.1509 C-35.4732 110.5125 -35.4785 118.8739 -35.495 127.2355 C-35.5086 134.4341 -35.5105 141.6327 -35.5027 148.8313 C-35.498 153.1222 -35.4973 157.4131 -35.5073 161.704 C-35.516 165.7384 -35.5099 169.7725 -35.4926 173.8068 C-35.4886 175.2818 -35.4897 176.7567 -35.4964 178.2317 C-35.5325 187.0587 -35.0955 194.2462 -31.0984 202.2405 C-30.4384 202.2405 -29.7784 202.2405 -29.0984 202.2405 C-28.8921 202.7768 -28.6859 203.313 -28.4734 203.8655 C-25.3843 209.2012 -21.0268 212.9957 -15.1281 214.8649 C-9.0489 216.2787 -3.2572 216.5174 2.9684 216.481 C4.0501 216.4827 5.1317 216.4844 6.2462 216.4862 C9.8528 216.4895 13.4593 216.4785 17.0659 216.4676 C19.6583 216.467 22.2508 216.4673 24.8432 216.4684 C30.4154 216.4695 35.9875 216.4632 41.5597 216.452 C49.616 216.4357 57.6723 216.4305 65.7286 216.428 C78.8012 216.4236 91.8737 216.4103 104.9463 216.3914 C117.6409 216.373 130.3356 216.3589 143.0303 216.3504 C143.4219 216.3501 143.4219 216.3501 145.4037 216.3488 C149.333 216.3462 153.2624 216.3436 157.1918 216.3412 C189.7617 216.3204 222.3317 216.2852 254.9016 216.2405 C254.9016 215.5805 254.9016 214.9205 254.9016 214.2405 C255.7769 214.3256 256.6522 214.4107 257.554 214.4983 C264.5394 213.9604 270.3817 207.1344 274.9641 202.1155 C278.4581 196.9309 279.1515 191.6438 279.1556 185.4922 C279.1612 184.1731 279.1669 182.8541 279.1727 181.495 C279.1688 180.0502 279.1647 178.6055 279.1604 177.1607 C279.1631 175.6258 279.1667 174.091 279.171 172.5562 C279.1801 168.4012 279.1766 164.2463 279.1703 160.0913 C279.1652 155.7349 279.1699 151.3784 279.173 147.022 C279.1767 139.7061 279.1719 132.3902 279.1624 125.0742 C279.1515 116.6281 279.155 108.182 279.166 99.7359 C279.1751 92.4728 279.1764 85.2098 279.1711 77.9467 C279.168 73.6138 279.1676 69.281 279.1742 64.9482 C279.18 60.8728 279.1759 56.7976 279.1644 52.7223 C279.1618 51.2309 279.1625 49.7394 279.1669 48.2479 C279.1865 40.993 279.1492 34.2071 276.9016 27.2405 C276.2416 27.2405 275.5816 27.2405 274.9016 27.2405 C274.8024 26.6527 274.7031 26.0649 274.6008 25.4593 C272.7779 19.6749 265.973 15.0349 260.9016 12.2405 C254.5096 10.2574 248.6731 9.9545 242.0089 9.9798 C240.9337 9.976 239.8586 9.9722 238.7508 9.9682 C235.1598 9.9579 231.5689 9.9619 227.9778 9.9659 C225.3985 9.9615 222.8192 9.9563 220.2399 9.9504 C213.9684 9.9376 207.697 9.9358 201.4255 9.9382 C196.3271 9.9399 191.2287 9.9382 186.1302 9.9339 C185.767 9.9336 185.767 9.9336 183.9286 9.9321 C182.4526 9.9309 180.9765 9.9297 179.5004 9.9285 C165.6698 9.9176 151.8391 9.9198 138.0085 9.9259 C125.3626 9.931 112.7168 9.9198 100.0709 9.9008 C87.0755 9.8814 74.0801 9.8731 61.0846 9.8769 C53.7929 9.8788 46.5012 9.8763 39.2095 9.8622 C32.3542 9.849 25.499 9.8515 18.6437 9.8646 C16.1282 9.867 13.6128 9.8642 11.0973 9.856 C7.6628 9.8455 4.2288 9.8536 0.7943 9.8663 C-0.2002 9.8589 -1.1948 9.8515 -2.2195 9.8439 C-13.6916 9.9331 -22.733 14.3215 -30.5203 22.6546 Z " fill="#443F38" transform="translate(865.098388671875,123.75949096679688)"/>
<path d="M0 0 C6.6 0 13.2 0 20 0 C20 12.87 20 25.74 20 39 C22.8798 36.1202 25.6518 33.3379 28.3396 30.3113 C31.7358 26.5193 35.2016 22.7989 38.6951 19.0964 C40.1805 17.5007 41.6455 15.8858 43.0886 14.2517 C55.7765 -0.0633 55.7765 -0.0633 65.0356 -1.0405 C70.412 -1.2066 75.686 -0.8121 81 0 C79.7812 3.6563 78.0598 4.3846 74.9727 6.4766 C71.4778 9.1756 68.8264 12.6322 66 16 C63.6875 18.5 63.6875 18.5 62 20 C61.34 20 60.68 20 60 20 C60 20.66 60 21.32 60 22 C59.34 22 58.68 22 58 22 C58 22.66 58 23.32 58 24 C57.34 24 56.68 24 56 24 C56 24.66 56 25.32 56 26 C55.34 26 54.68 26 54 26 C54 26.66 54 27.32 54 28 C53.34 28 52.68 28 52 28 C52 28.66 52 29.32 52 30 C51.34 30 50.68 30 50 30 C50 30.66 50 31.32 50 32 C49.34 32 48.68 32 48 32 C48 32.66 48 33.32 48 34 C47.34 34 46.68 34 46 34 C46 34.66 46 35.32 46 36 C45.34 36 44.68 36 44 36 C45.3138 39.8019 46.8749 42.2675 49.625 45.1875 C53.9916 49.9482 58.0004 54.9301 62 60 C63.3321 61.6677 64.6654 63.3344 66 65 C68.0273 67.5321 70.0524 70.0659 72.0703 72.6055 C72.7484 73.4575 73.4264 74.3096 74.125 75.1875 C74.7773 76.0073 75.4295 76.8272 76.1016 77.6719 C77.8486 79.8144 79.6568 81.8779 81.5 83.9375 C84 87 84 87 84 90 C80.3963 90.145 76.7933 90.234 73.1875 90.3125 C72.1633 90.3544 71.1392 90.3963 70.084 90.4395 C67.3102 90.4849 64.7354 90.4662 62 90 C60.0938 87.832 60.0938 87.832 59 85 C56.6714 82.1285 54.272 79.3278 51.8633 76.5234 C50 74 50 74 50 71 C49.4277 70.7834 48.8553 70.5669 48.2656 70.3438 C45.2511 68.5559 43.7733 66.3477 41.75 63.5 C41.0436 62.5203 40.3372 61.5406 39.6094 60.5312 C38 58 38 58 38 56 C37.34 56 36.68 56 36 56 C32 51.5294 32 51.5294 32 49 C31.4431 49.4538 30.8863 49.9075 30.3125 50.375 C27.9437 52.0396 25.6805 52.9419 23 54 C20.1323 56.8677 20.6465 59.7865 20.5859 63.6328 C20.5666 64.3846 20.5472 65.1365 20.5273 65.9111 C20.4674 68.3156 20.4211 70.7202 20.375 73.125 C20.3368 74.7539 20.2978 76.3828 20.2578 78.0117 C20.1617 82.0076 20.0777 86.0037 20 90 C16.8542 90.0289 13.7084 90.0468 10.5625 90.0625 C9.6647 90.0709 8.7668 90.0793 7.8418 90.0879 C7.4148 90.0895 7.4148 90.0895 5.2539 90.0977 C4.4631 90.1029 3.6724 90.1081 2.8577 90.1135 C1 90 1 90 0 89 C-0.0952 86.2306 -0.1255 83.4862 -0.1135 80.7166 C-0.1137 79.8483 -0.1138 78.9801 -0.114 78.0856 C-0.1133 75.2016 -0.1055 72.3176 -0.0977 69.4336 C-0.0958 67.4396 -0.0944 65.4456 -0.0934 63.4517 C-0.0895 58.1925 -0.0797 52.9334 -0.0687 47.6743 C-0.0585 42.3122 -0.0539 36.95 -0.0488 31.5879 C-0.0381 21.0586 -0.0205 10.5293 0 0 Z " fill="#48433C" transform="translate(948,190)"/>
<path d="M0 0 C3.6465 3.1467 5.6416 5.7098 6.9375 10.375 C6.9581 11.2413 6.9787 12.1075 7 13 C6 14 6 14 2.9375 14.0625 C1.9681 14.0419 0.9987 14.0213 0 14 C0 14.66 0 15.32 0 16 C-2.8125 16.3125 -2.8125 16.3125 -6 16 C-7.0344 14.3544 -8.0276 12.6829 -9 11 C-13.2664 6.9833 -17.3041 5.6518 -23.125 5.5 C-29.212 5.7837 -33.0355 6.8718 -37.25 11.4375 C-41.173 17.1818 -41.3655 21.4055 -41.375 28.25 C-41.3995 29.1665 -41.424 30.083 -41.4492 31.0273 C-41.479 37.9879 -40.1798 43.3528 -35.5369 48.6782 C-31.1833 52.4225 -22.7892 51.3896 -17.3633 51.3438 C-12.3642 50.8328 -10.4615 49.6189 -7 46 C-5.5625 42.6875 -5.5625 42.6875 -5 40 C-3.68 40 -2.36 40 -1 40 C-1 40.66 -1 41.32 -1 42 C1.97 42.66 4.94 43.32 8 44 C7.67 45.65 7.34 47.3 7 49 C6.34 49 5.68 49 5 49 C4.7937 49.7219 4.5875 50.4438 4.375 51.1875 C2.6152 54.7871 0.1198 56.6503 -3 59 C-3.4808 59.4338 -3.4808 59.4338 -5.9141 61.6289 C-11.022 65.2607 -16.6594 64.6151 -22.6875 64.4375 C-23.8148 64.4317 -24.9421 64.4259 -26.1035 64.4199 C-31.0666 64.3461 -34.5697 64.2831 -39 62 C-39.33 62.165 -39.33 62.165 -41 63 C-48.5632 55.8817 -55.2068 47.6143 -56.3186 36.9417 C-56.3913 33.7433 -56.351 30.5724 -56.25 27.375 C-56.232 26.2754 -56.2139 25.1759 -56.1953 24.043 C-56.1487 21.361 -56.0832 18.681 -56 16 C-55.34 16 -54.68 16 -54 16 C-54.0825 15.1337 -54.165 14.2675 -54.25 13.375 C-53.9305 9.0612 -52.6877 7.3768 -50 4 C-49.7686 3.6984 -49.7686 3.6984 -48.5977 2.1719 C-37.7933 -10.4024 -12.4797 -9.248 0 0 Z " fill="#47423B" transform="translate(438,206)"/>
<path d="M0 0 C3.96 0 7.92 0 12 0 C12 7.92 12 15.84 12 24 C19.26 24 26.52 24 34 24 C34 27.63 34 31.26 34 35 C26.74 35 19.48 35 12 35 C12 42.59 12 50.18 12 58 C8.04 58 4.08 58 0 58 C0 50.74 0 43.48 0 36 C-7.26 36 -14.52 36 -22 36 C-22 31.71 -22 27.42 -22 23 C-14.74 23 -7.48 23 0 23 C0 15.41 0 7.82 0 0 Z " fill="#454039" transform="translate(724,192)"/>
<path d="M0 0 C3.0387 -0.4114 5.9216 -0.1319 9 0 C9 3.96 9 7.92 9 12 C12.63 12 16.26 12 20 12 C20 15.3 20 18.6 20 22 C16.04 22 12.08 22 8 22 C8.0936 26.3603 8.1997 30.7201 8.3174 35.0798 C8.3557 36.5628 8.3905 38.0459 8.4219 39.5291 C8.4676 41.6616 8.5256 43.7936 8.5859 45.9258 C8.6016 46.5673 8.6016 46.5673 8.6812 49.8137 C9 53 9 53 11 56 C12.9453 56.5117 12.9453 56.5117 15.125 56.6875 C16.4038 56.7906 17.6825 56.8938 19 57 C19.0424 59.3329 19.0409 61.667 19 64 C18 65 18 65 14.8398 65.0977 C13.5521 65.0861 12.2643 65.0745 10.9375 65.0625 C10.2923 65.058 10.2923 65.058 7.0273 65.0352 C6.0283 65.0236 5.0293 65.012 4 65 C4 64.34 4 63.68 4 63 C2.35 63 0.7 63 -1 63 C-1 62.01 -1 61.02 -1 60 C-1.99 60 -2.98 60 -4 60 C-4 47.46 -4 34.92 -4 22 C-6.31 22 -8.62 22 -11 22 C-11 19.03 -11 16.06 -11 13 C-8.69 13 -6.38 13 -4 13 C-3.8788 12.3129 -3.7577 11.6259 -3.6328 10.918 C-3.4652 10.0169 -3.2977 9.1159 -3.125 8.1875 C-2.9626 7.2942 -2.8002 6.4009 -2.6328 5.4805 C-2 3 -2 3 0 0 Z " fill="#413C35" transform="translate(462,204)"/>
<path d="M0 0 C4.29 0 8.58 0 13 0 C13 24.09 13 48.18 13 73 C8.38 73 3.76 73 -1 73 C-1.0226 63.6296 -1.0409 54.2593 -1.0518 44.8889 C-1.057 40.5383 -1.0641 36.1877 -1.0754 31.8372 C-1.0863 27.6421 -1.0923 23.4471 -1.0949 19.252 C-1.0967 17.6479 -1.1004 16.0439 -1.1057 14.4398 C-1.1129 12.2008 -1.114 9.9619 -1.1135 7.7229 C-1.1157 6.446 -1.118 5.1692 -1.1203 3.8537 C-1 1 -1 1 0 0 Z " fill="#3C3731" transform="translate(529,197)"/>
<path d="M0 0 C3.3 0 6.6 0 10 0 C10 3.96 10 7.92 10 12 C8.763 12.0977 8.763 12.0977 2.5781 12.5859 C-0.0239 13.0038 -1.7743 13.6065 -4 15 C-5.5784 18.1568 -5.2204 21.5652 -5.2812 25.0352 C-5.2997 25.829 -5.3181 26.6229 -5.337 27.4408 C-5.4159 30.8449 -5.4836 34.2492 -5.5522 37.6536 C-5.6038 40.135 -5.6611 42.6163 -5.7188 45.0977 C-5.7323 45.8737 -5.7459 46.6497 -5.7599 47.4492 C-5.8872 52.8872 -5.8872 52.8872 -7 54 C-11.29 54 -15.58 54 -20 54 C-20 36.51 -20 19.02 -20 1 C-16.04 1 -12.08 1 -8 1 C-8 3.97 -8 6.94 -8 10 C-5 8 -5 8 -4 5.4375 C-3.67 4.6331 -3.34 3.8288 -3 3 C-2.01 2.67 -1.02 2.34 0 2 C0 1.34 0 0.68 0 0 Z " fill="#3D3831" transform="translate(510,216)"/>
<path d="M0 0 C1.0971 -0.0017 2.1943 -0.0034 3.3247 -0.0052 C6.9897 -0.0085 10.6546 0.0025 14.3196 0.0135 C16.9513 0.014 19.583 0.0137 22.2146 0.0126 C27.8747 0.0115 33.5347 0.0178 39.1948 0.029 C47.3781 0.0453 55.5615 0.0505 63.7449 0.053 C77.0232 0.0574 90.3015 0.0707 103.5798 0.0896 C116.4753 0.108 129.3708 0.1222 142.2664 0.1306 C143.0618 0.1312 143.8572 0.1317 144.6767 0.1322 C148.6673 0.1348 152.6579 0.1374 156.6485 0.1399 C189.7329 0.1606 222.8172 0.1958 255.9016 0.2405 C255.9016 0.9005 255.9016 1.5605 255.9016 2.2405 C257.8816 2.2405 259.8616 2.2405 261.9016 2.2405 C261.9016 2.9005 261.9016 3.5605 261.9016 4.2405 C262.8916 4.5705 263.8816 4.9005 264.9016 5.2405 C263.5816 5.2405 262.2616 5.2405 260.9016 5.2405 C260.9016 4.5805 260.9016 3.9205 260.9016 3.2405 C169.4916 3.2405 78.0816 3.2405 -16.0984 3.2405 C-16.4284 4.2305 -16.7584 5.2205 -17.0984 6.2405 C-24.7234 7.2405 -24.7234 7.2405 -28.0984 7.2405 C-18.7281 1.5142 -10.9077 -0.0626 0 0 Z " fill="#77736E" transform="translate(865.098388671875,123.75949096679688)"/>
<path d="M0 0 C90.75 0 181.5 0 275 0 C275 0.66 275 1.32 275 2 C272.1624 2.9459 270.4322 3.1252 267.4934 3.1258 C267.029 3.1271 267.029 3.1271 264.6787 3.1337 C264.1676 3.1326 264.1676 3.1326 261.5812 3.127 C261.0389 3.1278 261.0389 3.1278 258.2947 3.1317 C254.642 3.1357 250.9894 3.1325 247.3367 3.1294 C244.7253 3.1307 242.1139 3.1325 239.5026 3.1347 C233.1342 3.1392 226.7658 3.1382 220.3974 3.1353 C215.2211 3.133 210.0449 3.1327 204.8686 3.1338 C204.1325 3.134 203.3964 3.1341 202.638 3.1343 C201.1426 3.1346 199.6473 3.1349 198.152 3.1353 C184.1197 3.1381 170.0874 3.1348 156.0551 3.1295 C144.0152 3.125 131.9752 3.1258 119.9353 3.1304 C105.9586 3.1357 91.982 3.1378 78.0053 3.1348 C76.5145 3.1344 75.0237 3.1341 73.5329 3.1338 C72.7993 3.1337 72.0658 3.1335 71.3101 3.1333 C66.1416 3.1325 60.9732 3.1339 55.8048 3.1363 C48.8454 3.1394 41.886 3.1372 34.9265 3.1314 C32.3699 3.1301 29.8133 3.1305 27.2567 3.1327 C23.771 3.1354 20.2854 3.132 16.7997 3.127 C15.7843 3.1292 14.7688 3.1314 13.7226 3.1337 C9.0333 3.1207 4.6116 2.976 0 2 C0 1.34 0 0.68 0 0 Z " fill="#3F3933" transform="translate(326,345)"/>
<path d="M0 0 C0.7908 0.0707 1.5817 0.1414 2.3964 0.2142 C14.9825 1.2042 27.5494 1.1408 40.1677 1.1294 C42.6889 1.1308 45.2102 1.1325 47.7314 1.1347 C53.8341 1.1388 59.9368 1.1382 66.0396 1.1353 C71.0005 1.133 75.9615 1.1327 80.9224 1.1338 C81.6314 1.134 82.3403 1.1341 83.0707 1.1343 C84.5112 1.1346 85.9518 1.1349 87.3924 1.1353 C100.8587 1.1381 114.325 1.1348 127.7914 1.1295 C139.3337 1.125 150.8759 1.1258 162.4182 1.1304 C175.8508 1.1357 189.2833 1.1378 202.7159 1.1348 C204.1487 1.1344 205.5815 1.1341 207.0143 1.1338 C207.3667 1.1337 207.3667 1.1337 209.1501 1.1333 C214.1058 1.1325 219.0616 1.1339 224.0173 1.1363 C230.6863 1.1394 237.3553 1.1372 244.0244 1.1314 C246.4705 1.1301 248.9166 1.1305 251.3627 1.1327 C254.7026 1.1354 258.0424 1.132 261.3822 1.127 C261.8654 1.1281 261.8654 1.1281 264.3108 1.1337 C269.6327 1.1184 274.7335 0.7767 280 0 C279.67 0.66 279.34 1.32 279 2 C272.6819 4.069 266.7971 4.2839 260.19 4.254 C259.1237 4.2571 258.0574 4.2602 256.9588 4.2634 C253.3977 4.2714 249.8367 4.2651 246.2756 4.2588 C243.7177 4.2615 241.1597 4.2651 238.6017 4.2694 C232.382 4.2776 226.1624 4.2764 219.9427 4.2706 C214.8858 4.2661 209.8289 4.2655 204.7719 4.2676 C204.0512 4.2679 203.3306 4.2682 202.588 4.2686 C201.1238 4.2692 199.6596 4.2698 198.1953 4.2705 C184.4753 4.2762 170.7552 4.2697 157.0352 4.2589 C145.2737 4.25 133.5122 4.2515 121.7507 4.2607 C108.0802 4.2715 94.4096 4.2757 80.739 4.2695 C79.28 4.2689 77.8209 4.2683 76.3619 4.2676 C75.6441 4.2673 74.9263 4.267 74.1867 4.2667 C69.1389 4.265 64.091 4.2679 59.0432 4.2726 C52.2429 4.2788 45.4427 4.2744 38.6424 4.2628 C36.1483 4.2602 33.6542 4.2609 31.1602 4.2653 C27.7524 4.2708 24.3448 4.2639 20.937 4.254 C19.9532 4.2584 18.9693 4.2629 17.9556 4.2675 C12.2205 4.2351 6.4354 4.0162 1 2 C0.67 1.34 0.34 0.68 0 0 Z " fill="#ADA89F" transform="translate(323,336)"/>
<path d="M0 0 C1.0736 -0.0038 2.1472 -0.0077 3.2533 -0.0116 C6.8452 -0.0219 10.4369 -0.0179 14.0287 -0.014 C16.6062 -0.0183 19.1838 -0.0235 21.7613 -0.0294 C28.0326 -0.0422 34.3038 -0.044 40.5751 -0.0416 C45.674 -0.0399 50.7729 -0.0416 55.8718 -0.0459 C56.5982 -0.0465 57.3246 -0.0471 58.073 -0.0477 C59.5487 -0.0489 61.0245 -0.0501 62.5002 -0.0513 C76.3328 -0.0622 90.1654 -0.06 103.998 -0.0539 C116.6432 -0.0488 129.2884 -0.06 141.9337 -0.079 C154.928 -0.0984 167.9222 -0.1067 180.9165 -0.1029 C188.2077 -0.101 195.4989 -0.1035 202.7901 -0.1176 C209.6471 -0.1308 216.5039 -0.1283 223.3608 -0.1152 C225.8758 -0.1128 228.3909 -0.1156 230.9059 -0.1238 C234.3423 -0.1343 237.7782 -0.1262 241.2146 -0.1135 C242.2069 -0.1209 243.1993 -0.1283 244.2217 -0.1359 C250.4083 -0.0879 255.4986 0.9281 261.2343 3.2607 C259.2343 4.2607 259.2343 4.2607 256.769 3.8311 C252.0526 3.07 247.4479 3.123 242.6782 3.1337 C241.615 3.1322 240.5519 3.1306 239.4565 3.129 C235.8939 3.125 232.3313 3.1282 228.7687 3.1313 C226.2143 3.1299 223.6598 3.1282 221.1054 3.126 C214.8861 3.1219 208.6669 3.1225 202.4476 3.1254 C197.3897 3.1277 192.3318 3.128 187.2738 3.1269 C186.5535 3.1267 185.8331 3.1266 185.0909 3.1264 C183.6273 3.1261 182.1637 3.1258 180.7001 3.1254 C166.9762 3.1226 153.2523 3.1259 139.5284 3.1312 C127.7675 3.1357 116.0066 3.1349 104.2458 3.1303 C90.5781 3.125 76.9105 3.1229 63.2428 3.1259 C61.7832 3.1263 60.3235 3.1266 58.8638 3.1269 C58.5047 3.127 58.5047 3.127 56.6877 3.1273 C51.6418 3.1282 46.5959 3.1268 41.5501 3.1244 C34.7465 3.1213 27.943 3.1235 21.1395 3.1293 C18.6462 3.1306 16.153 3.1302 13.6598 3.128 C10.2483 3.1253 6.8368 3.1287 3.4253 3.1337 C2.4459 3.1315 1.4665 3.1293 0.4574 3.127 C-5.998 3.1451 -12.3472 3.5774 -18.7657 4.2607 C-17.7657 2.2607 -17.7657 2.2607 -14.8761 1.152 C-9.9557 -0.1224 -5.0533 -0.0192 0 0 Z " fill="#ACA79E" transform="translate(865.7657165527344,133.7393035888672)"/>
<path d="M0 0 C-1 1 -1 1 -4.0625 1.0625 C-5.0319 1.0419 -6.0013 1.0213 -7 1 C-7 1.66 -7 2.32 -7 3 C-40.4536 3.0457 -73.9071 3.081 -107.3607 3.1021 C-111.3075 3.1046 -115.2542 3.1072 -119.2009 3.1099 C-119.9867 3.1104 -120.7724 3.1109 -121.582 3.1115 C-134.3158 3.1202 -147.0496 3.1359 -159.7834 3.1543 C-172.8429 3.173 -185.9025 3.1841 -198.9621 3.1882 C-207.0249 3.1909 -215.0876 3.1996 -223.1504 3.2158 C-229.3259 3.2276 -235.5015 3.2289 -241.6771 3.2262 C-244.2156 3.2268 -246.7541 3.2308 -249.2927 3.2384 C-252.7468 3.2483 -256.2006 3.246 -259.6547 3.2405 C-260.6693 3.2463 -261.6839 3.2522 -262.7292 3.2582 C-263.6513 3.2542 -264.5734 3.2502 -265.5235 3.2461 C-265.9224 3.2465 -265.9224 3.2465 -267.941 3.2484 C-270 3 -270 3 -273 1 C-272.727 0.9991 -272.727 0.9991 -271.3455 0.9947 C-238.9618 0.8916 -206.578 0.7835 -174.1943 0.6689 C-170.303 0.6551 -166.4116 0.6414 -162.5203 0.6277 C-162.1329 0.6263 -162.1329 0.6263 -160.1728 0.6194 C-147.6416 0.5754 -135.1104 0.5347 -122.5793 0.4953 C-109.714 0.4548 -96.8488 0.4107 -83.9835 0.3631 C-76.0498 0.3339 -68.116 0.3075 -60.1823 0.2848 C-54.091 0.2671 -47.9998 0.2442 -41.9086 0.2195 C-39.4153 0.2102 -36.9221 0.2025 -34.4289 0.1966 C-31.017 0.1882 -27.6052 0.1739 -24.1934 0.1582 C-23.2138 0.1572 -22.2342 0.1563 -21.2249 0.1553 C-15.499 0.1215 -9.8982 -0.231 -4.208 -0.8845 C-2 -1 -2 -1 0 0 Z " fill="#ADA89F" transform="translate(1127,337)"/>
<path d="M0 0 C1.0881 -0.0017 2.1762 -0.0034 3.2973 -0.0052 C6.9378 -0.0085 10.5782 0.0025 14.2186 0.0135 C16.8305 0.014 19.4423 0.0137 22.0542 0.0126 C27.6744 0.0115 33.2946 0.0178 38.9148 0.029 C47.0407 0.0453 55.1665 0.0505 63.2923 0.053 C76.4769 0.0574 89.6615 0.0707 102.8461 0.0896 C115.6514 0.108 128.4568 0.1221 141.2621 0.1306 C142.0518 0.1312 142.8415 0.1317 143.6552 0.1322 C147.6171 0.1348 151.5789 0.1374 155.5408 0.1399 C188.3932 0.1606 221.2455 0.1958 254.0978 0.2405 C254.0978 0.9005 254.0978 1.5605 254.0978 2.2405 C253.8227 2.2414 253.8227 2.2414 252.4305 2.2458 C219.7962 2.3489 187.162 2.457 154.5278 2.5716 C150.6064 2.5854 146.685 2.5991 142.7636 2.6128 C141.9829 2.6156 141.2023 2.6183 140.3979 2.6211 C127.7698 2.6651 115.1416 2.7058 102.5135 2.7452 C89.5488 2.7857 76.5841 2.8298 63.6194 2.8774 C55.6242 2.9066 47.6291 2.933 39.6339 2.9557 C33.4956 2.9734 27.3574 2.9963 21.2192 3.021 C18.7066 3.0303 16.194 3.038 13.6814 3.0439 C10.2433 3.0523 6.8052 3.0666 3.3671 3.0823 C2.3797 3.0833 1.3924 3.0842 0.375 3.0853 C-6.0965 3.1232 -12.4671 3.558 -18.9022 4.2405 C-17.9022 2.2405 -17.9022 2.2405 -15.0211 1.1305 C-10.055 -0.1555 -5.0993 -0.0294 0 0 Z " fill="#ACA79E" transform="translate(341.90220642089844,133.75949096679688)"/>
<path d="M0 0 C2.31 0.33 4.62 0.66 7 1 C7 1.66 7 2.32 7 3 C95.44 3.33 183.88 3.66 275 4 C275 4.33 275 4.66 275 5 C241.5041 5.0458 208.0083 5.081 174.5124 5.1021 C170.5571 5.1046 166.6018 5.1072 162.6465 5.1099 C161.8591 5.1104 161.0716 5.1109 160.2604 5.1115 C147.5138 5.1202 134.7672 5.1359 122.0206 5.1543 C108.9395 5.173 95.8585 5.1841 82.7774 5.1882 C74.707 5.1909 66.6366 5.1996 58.5661 5.2158 C52.3757 5.2277 46.1853 5.2289 39.9948 5.2262 C37.4568 5.2268 34.9188 5.2307 32.3808 5.2384 C28.9153 5.2484 25.45 5.246 21.9845 5.2405 C20.9806 5.2463 19.9767 5.2522 18.9424 5.2582 C5.71 5.2018 5.71 5.2018 1 1.375 C0.67 0.9212 0.34 0.4675 0 0 Z " fill="#716D68" transform="translate(317,344)"/>
<path d="M0 0 C2.31 0.33 4.62 0.66 7 1 C7 1.66 7 2.32 7 3 C94.12 3 181.24 3 271 3 C271 3.33 271 3.66 271 4 C237.1983 4.0686 203.3966 4.1215 169.5948 4.1532 C165.6056 4.1569 161.6164 4.1608 157.6272 4.1648 C157.2301 4.1652 157.2301 4.1652 155.2206 4.1672 C142.3555 4.1802 129.4905 4.2039 116.6255 4.2315 C103.4281 4.2595 90.2307 4.2762 77.0332 4.2823 C68.8875 4.2864 60.7419 4.2994 52.5962 4.3237 C46.3535 4.3415 40.111 4.3434 33.8683 4.3393 C31.3048 4.3402 28.7413 4.3461 26.1779 4.3576 C22.685 4.3725 19.1926 4.369 15.6997 4.3608 C14.6792 4.3695 13.6588 4.3782 12.6075 4.3872 C3.9625 4.3321 3.9625 4.3321 0 1 C0 0.67 0 0.34 0 0 Z " fill="#E0DBD0" transform="translate(843,334)"/>
<path d="M0 0 C2.64 0 5.28 0 8 0 C8 0.33 8 0.66 8 1 C5.69 1 3.38 1 1 1 C1 3.97 1 6.94 1 10 C3.31 10 5.62 10 8 10 C8 22.54 8 35.08 8 48 C8.99 48 9.98 48 11 48 C11 48.99 11 49.98 11 51 C12.65 51 14.3 51 16 51 C16 51.66 16 52.32 16 53 C20.62 52.67 25.24 52.34 30 52 C30.33 49.69 30.66 47.38 31 45 C29.7419 45.0825 28.4837 45.165 27.1875 45.25 C25.043 45.3906 25.043 45.3906 23 45 C20.5248 42.5758 20.0189 41.1827 19.6594 37.7002 C19.6751 36.4224 19.6908 35.1446 19.707 33.8281 C19.7113 33.1457 19.7155 32.4633 19.7199 31.7602 C19.7366 29.5897 19.7743 27.4202 19.8125 25.25 C19.8276 23.7748 19.8412 22.2995 19.8535 20.8242 C19.8865 17.2158 19.9383 13.608 20 10 C23.3 10 26.6 10 30 10 C30 10.33 30 10.66 30 11 C27.36 11 24.72 11 22 11 C22.33 11.66 22.66 12.32 23 13 C23.0857 15.2512 23.1071 17.505 23.0977 19.7578 C23.0962 20.4209 23.0948 21.0839 23.0934 21.7671 C23.0878 23.8864 23.0752 26.0057 23.0625 28.125 C23.0575 29.5612 23.0529 30.9974 23.0488 32.4336 C23.0378 35.9558 23.0205 39.4779 23 43 C25.97 43 28.94 43 32 43 C32 46.63 32 50.26 32 54 C28.9568 54.1356 25.9197 54.2344 22.875 54.3125 C22.0191 54.3544 21.1631 54.3963 20.2812 54.4395 C15.9713 54.5223 12.9258 54.4464 9.4453 51.7305 C5.4136 47.2287 5.8607 43.0123 5.9023 37.1719 C5.9038 36.4229 5.9052 35.6739 5.9066 34.9022 C5.9122 32.5181 5.9248 30.1341 5.9375 27.75 C5.9425 26.1302 5.9471 24.5104 5.9512 22.8906 C5.9622 18.927 5.9794 14.9635 6 11 C4.02 11 2.04 11 0 11 C0 7.37 0 3.74 0 0 Z " fill="#99958C" transform="translate(450,216)"/>
<path d="M0 0 C4.29 0 8.58 0 13 0 C13 24.09 13 48.18 13 73 C8.38 73 3.76 73 -1 73 C-1.0226 63.6296 -1.0409 54.2593 -1.0518 44.8889 C-1.057 40.5383 -1.0641 36.1877 -1.0754 31.8372 C-1.0863 27.6421 -1.0923 23.4471 -1.0949 19.252 C-1.0967 17.6479 -1.1004 16.0439 -1.1057 14.4398 C-1.1129 12.2008 -1.114 9.9619 -1.1135 7.7229 C-1.1157 6.446 -1.118 5.1692 -1.1203 3.8537 C-1 1 -1 1 0 0 Z M1 2 C1 24.77 1 47.54 1 71 C4.63 71 8.26 71 12 71 C12 48.23 12 25.46 12 2 C8.37 2 4.74 2 1 2 Z " fill="#666158" transform="translate(529,197)"/>
<path d="M0 0 C-0.33 0.99 -0.66 1.98 -1 3 C-2.1439 2.8568 -3.2878 2.7137 -4.4663 2.5662 C-12.3476 2.0242 -18.6785 2.4787 -25.0205 7.5513 C-30.2079 12.2522 -34.9165 17.3897 -39.625 22.5625 C-41.3081 24.3446 -42.9956 26.1227 -44.6875 27.8965 C-48.3677 31.761 -52.0034 35.6623 -55.6029 39.6021 C-56.064 40.0634 -56.525 40.5247 -57 41 C-57.33 41 -57.66 41 -58 41 C-58.2327 38.155 -58.3065 36.495 -56.7813 34.032 C-56.2082 33.4036 -55.635 32.7752 -55.0444 32.1277 C-54.3947 31.4073 -53.745 30.6869 -53.0755 29.9447 C-52.7163 29.5639 -52.7163 29.5639 -50.8984 27.6367 C-50.1516 26.8447 -49.4047 26.0528 -48.6352 25.2368 C-47.0406 23.5642 -45.4378 21.8995 -43.8276 20.2419 C-42.2068 18.5538 -40.6103 16.8419 -39.0405 15.1062 C-26.9448 1.736 -18.1445 -2.9747 0 0 Z " fill="#565149" transform="translate(1029,190)"/>
<path d="M0 0 C1.1859 0.0026 2.3719 0.0052 3.5938 0.0078 C4.7797 0.0052 5.9656 0.0027 7.1875 0 C10.0938 0.1328 10.0938 0.1328 11.0938 1.1328 C11.1346 3.1324 11.1363 5.1333 11.0938 7.1328 C12.0838 6.8028 13.0738 6.4728 14.0938 6.1328 C13.7812 8.0703 13.7812 8.0703 13.0938 10.1328 C12.1037 10.4628 11.1137 10.7928 10.0938 11.1328 C10.0938 8.1628 10.0938 5.1928 10.0938 2.1328 C6.1338 2.1328 2.1737 2.1328 -1.9062 2.1328 C-1.9062 19.6228 -1.9062 37.1128 -1.9062 55.1328 C0.2387 54.9678 0.2387 54.9678 11.0938 54.1328 C11.1083 53.058 11.1229 51.9831 11.1379 50.8757 C11.1959 46.8891 11.2731 42.903 11.3562 38.9167 C11.3895 37.1913 11.4175 35.4657 11.4402 33.74 C11.4737 31.2598 11.526 28.7806 11.582 26.3008 C11.5884 25.5288 11.5948 24.7568 11.6014 23.9615 C11.7491 18.5851 11.7491 18.5851 13.6257 16.1223 C14.1102 15.7958 14.5946 15.4692 15.0938 15.1328 C15.4237 16.4528 15.7538 17.7728 16.0938 19.1328 C15.1037 19.4628 14.1137 19.7928 13.0938 20.1328 C13.0964 20.6603 13.0964 20.6603 13.1096 23.3298 C13.1277 27.2304 13.1392 31.1309 13.1487 35.0315 C13.1537 36.7223 13.1606 38.413 13.1692 40.1038 C13.1813 42.5288 13.187 44.9538 13.1914 47.3789 C13.1966 48.1393 13.2017 48.8997 13.207 49.6832 C13.2072 51.5001 13.1557 53.3169 13.0938 55.1328 C11.3382 56.8884 9.0579 56.265 6.7227 56.2695 C6.0201 56.2657 5.3176 56.2618 4.5938 56.2578 C3.8912 56.2617 3.1887 56.2655 2.4648 56.2695 C-2.7796 56.2594 -2.7796 56.2594 -3.9062 55.1328 C-4.005 53.4503 -4.0342 51.7636 -4.0356 50.0781 C-4.0388 49.0003 -4.0419 47.9225 -4.0452 46.812 C-4.0432 45.6391 -4.0411 44.4662 -4.0391 43.2578 C-4.04 42.063 -4.041 40.8682 -4.042 39.6372 C-4.0426 37.1051 -4.0408 34.5731 -4.0366 32.041 C-4.0313 28.1497 -4.0366 24.2585 -4.043 20.3672 C-4.0423 17.9141 -4.041 15.4609 -4.0391 13.0078 C-4.0411 11.8349 -4.0431 10.662 -4.0452 9.4536 C-4.042 8.3758 -4.0389 7.298 -4.0356 6.1875 C-4.0348 5.2334 -4.0341 4.2794 -4.0332 3.2964 C-3.8366 -0.0544 -3.4118 0.1559 0 0 Z " fill="#BEB9AF" transform="translate(491.90625,214.8671875)"/>
<path d="M0 0 C4.95 0 9.9 0 15 0 C15 0.66 15 1.32 15 2 C10.71 2 6.42 2 2 2 C2 29.72 2 57.44 2 86 C1.67 86.165 1.67 86.165 0 87 C0 58.29 0 29.58 0 0 Z " fill="#39342D" transform="translate(951,191)"/>
<path d="M0 0 C1 2 1 2 0.0625 5.125 C-0.2881 6.0737 -0.6388 7.0225 -1 8 C-1.66 8 -2.32 8 -3 8 C-2.916 28.6888 -2.8208 49.3775 -2.7125 70.0661 C-2.6624 79.6728 -2.616 89.2795 -2.5781 98.8862 C-2.5451 107.2621 -2.5052 115.638 -2.4572 124.0138 C-2.432 128.4463 -2.4102 132.8788 -2.3967 137.3114 C-2.3838 141.4892 -2.3616 145.6669 -2.3326 149.8447 C-2.3236 151.3724 -2.3179 152.9001 -2.3158 154.4279 C-2.3029 162.4764 -2.0466 170.1686 0 178 C-2 177 -2 177 -3.1083 173.8739 C-3.976 170.1041 -4.2565 166.8762 -4.2674 163.0172 C-4.272 162.3506 -4.2765 161.6839 -4.2812 160.997 C-4.2937 158.7825 -4.2922 156.5681 -4.2905 154.3535 C-4.2965 152.7579 -4.3033 151.1624 -4.3109 149.5668 C-4.3285 145.2466 -4.3332 140.9265 -4.3345 136.6063 C-4.3359 133.9051 -4.3402 131.204 -4.3455 128.5028 C-4.364 119.0736 -4.3722 109.6445 -4.3706 100.2153 C-4.3694 91.4339 -4.3905 82.6528 -4.4221 73.8714 C-4.4483 66.3231 -4.459 58.7747 -4.4577 51.2263 C-4.4572 46.7218 -4.4629 42.2175 -4.4841 37.7131 C-4.5034 33.4776 -4.5036 29.2426 -4.489 25.0071 C-4.4869 23.4556 -4.4916 21.904 -4.5037 20.3524 C-4.6092 5.902 -4.6092 5.902 0 0 Z " fill="#D4D2D0" transform="translate(299,148)"/>
<path d="M0 0 C3.96 0 7.92 0 12 0 C12 2.97 12 5.94 12 9 C15.329 6.7807 15.7502 5.6532 17 2 C18 4 18 4 17.3125 6.5 C15.8443 9.2965 14.907 9.9341 12 11 C11 10 11 10 10.9023 7.9336 C10.9186 6.778 10.9186 6.778 11 1 C7.7 1 4.4 1 1 1 C1 17.5 1 34 1 51 C4.63 51 8.26 51 12 51 C11.9895 50.1069 11.9791 49.2138 11.9683 48.2937 C11.9342 44.9782 11.9091 41.663 11.8901 38.3474 C11.8801 36.9128 11.8664 35.4782 11.8491 34.0437 C11.8248 31.9809 11.8135 29.9184 11.8047 27.8555 C11.7942 26.6143 11.7837 25.3732 11.7729 24.0945 C12 21 12 21 14 18 C14.0247 22.8238 14.0428 27.6476 14.0549 32.4714 C14.06 34.1137 14.0668 35.7559 14.0754 37.3982 C14.0875 39.7538 14.0932 42.1093 14.0977 44.4648 C14.1028 45.2034 14.108 45.9419 14.1133 46.7029 C14.1135 48.469 14.0619 50.235 14 52 C13.835 52.165 13.835 52.165 13 53 C8.71 53 4.42 53 0 53 C0 35.51 0 18.02 0 0 Z " fill="#6B665E" transform="translate(490,217)"/>
<path d="M0 0 C0.33 0 0.66 0 1 0 C1 7.26 1 14.52 1 22 C2.6487 21.9884 4.2974 21.9768 5.9961 21.9648 C8.1432 21.9555 10.2904 21.9464 12.4375 21.9375 C13.5261 21.9291 14.6147 21.9207 15.7363 21.9121 C16.7708 21.9089 17.8053 21.9057 18.8711 21.9023 C19.8294 21.8971 20.7878 21.8919 21.7751 21.8865 C24 22 24 22 25 23 C25.1439 27.3353 25.0421 31.6616 25 36 C17.08 36 9.16 36 1 36 C1 43.26 1 50.52 1 58 C0.67 58 0.34 58 0 58 C0 50.41 0 42.82 0 35 C7.26 35 14.52 35 22 35 C22 31.37 22 27.74 22 24 C14.74 24 7.48 24 0 24 C0 16.08 0 8.16 0 0 Z " fill="#A8A6A2" transform="translate(736,192)"/>
<path d="M0 0 C3.3 0 6.6 0 10 0 C10 3.96 10 7.92 10 12 C0.375 13 0.375 13 -3 13 C-1.68 12.34 -0.36 11.68 1 11 C1 10.34 1 9.68 1 9 C0.01 8.67 -0.98 8.34 -2 8 C-1.34 6.68 -0.68 5.36 0 4 C-0.66 3.34 -1.32 2.68 -2 2 C-1.34 2 -0.68 2 0 2 C0 1.34 0 0.68 0 0 Z " fill="#504B43" transform="translate(510,216)"/>
<path d="M0 0 C0.165 0.66 0.165 0.66 1 4 C0.5769 4.3494 0.1539 4.6988 -0.282 5.0588 C-4.8681 8.9527 -9.1458 13.0877 -13.3633 17.3711 C-13.926 17.9417 -14.4888 18.5123 -15.0686 19.1003 C-17.419 21.4873 -19.7664 23.8772 -22.1047 26.2761 C-23.8301 28.0436 -25.5646 29.8017 -27.3008 31.5586 C-27.8289 32.1054 -28.3571 32.6521 -28.9012 33.2154 C-30.2116 34.5349 -31.6006 35.7753 -33 37 C-33.99 37 -34.98 37 -36 37 C-35.67 38.32 -35.34 39.64 -35 41 C-35.66 40.67 -36.32 40.34 -37 40 C-37 38.68 -37 37.36 -37 36 C-36.34 36 -35.68 36 -35 36 C-35 35.34 -35 34.68 -35 34 C-34.34 34 -33.68 34 -33 34 C-33 33.34 -33 32.68 -33 32 C-32.34 32 -31.68 32 -31 32 C-31 31.34 -31 30.68 -31 30 C-30.34 30 -29.68 30 -29 30 C-29 29.34 -29 28.68 -29 28 C-28.34 28 -27.68 28 -27 28 C-27 27.34 -27 26.68 -27 26 C-26.34 26 -25.68 26 -25 26 C-25 25.34 -25 24.68 -25 24 C-24.34 24 -23.68 24 -23 24 C-23 23.34 -23 22.68 -23 22 C-22.34 22 -21.68 22 -21 22 C-21 21.34 -21 20.68 -21 20 C-19.4609 18.5195 -19.4609 18.5195 -17.375 16.8125 C-14.5978 14.4656 -12.1637 12.1369 -9.875 9.3125 C-7.2445 6.0982 -4.5032 4.1997 -1 2 C-0.67 1.34 -0.34 0.68 0 0 Z " fill="#C6C1B7" transform="translate(1029,190)"/>
<path d="M0 0 C3.3 0 6.6 0 10 0 C10 0.33 10 0.66 10 1 C7.36 1 4.72 1 2 1 C2.33 1.66 2.66 2.32 3 3 C3.0857 5.2512 3.1071 7.505 3.0977 9.7578 C3.0962 10.4209 3.0948 11.0839 3.0934 11.7671 C3.0878 13.8864 3.0752 16.0057 3.0625 18.125 C3.0575 19.5612 3.0529 20.9974 3.0488 22.4336 C3.0378 25.9558 3.0205 29.4779 3 33 C5.97 33 8.94 33 12 33 C12 33.33 12 33.66 12 34 C10.3758 34.0809 8.7505 34.1391 7.125 34.1875 C6.2201 34.2223 5.3152 34.2571 4.3828 34.293 C3.9896 34.2446 3.9896 34.2446 2 34 C-0.4836 30.2746 -0.2316 28.3694 -0.1953 23.9258 C-0.1925 23.2419 -0.1897 22.5581 -0.1867 21.8536 C-0.1756 19.673 -0.1505 17.4929 -0.125 15.3125 C-0.115 13.8327 -0.1058 12.3529 -0.0977 10.873 C-0.0756 7.2486 -0.0411 3.6243 0 0 Z " fill="#B8B3A8" transform="translate(470,226)"/>
<path d="M0 0 C3.3 0 6.6 0 10 0 C9.67 0.66 9.34 1.32 9 2 C7.02 2 5.04 2 3 2 C3 11.24 3 20.48 3 30 C5.31 30 7.62 30 10 30 C10 30.66 10 31.32 10 32 C7.03 32 4.06 32 1 32 C0.67 21.44 0.34 10.88 0 0 Z " fill="#EFEADF" transform="translate(472,227)"/>
<path d="M0 0 C2 2 2 2 2.1953 5.9141 C2.182 7.4845 2.1581 9.0549 2.125 10.625 C2.116 11.4268 2.107 12.2286 2.0977 13.0547 C2.0741 15.0366 2.0382 17.0183 2 19 C4.31 19 6.62 19 9 19 C8.67 18.34 8.34 17.68 8 17 C7.9281 14.1163 7.9071 11.2576 7.9375 8.375 C7.9398 7.9741 7.9398 7.9741 7.9512 5.9453 C7.963 3.9635 7.9809 1.9817 8 0 C8.66 0 9.32 0 10 0 C10 6.93 10 13.86 10 21 C6.7 21 3.4 21 0 21 C0 14.07 0 7.14 0 0 Z " fill="#322C25" transform="translate(725,228)"/>
<path d="M0 0 C2.97 0 5.94 0 9 0 C9 3.96 9 7.92 9 12 C12.63 12 16.26 12 20 12 C20 15.3 20 18.6 20 22 C19.34 22 18.68 22 18 22 C18 19.36 18 16.72 18 14 C17.2897 14.0116 16.5795 14.0232 15.8477 14.0352 C14.9286 14.0442 14.0095 14.0532 13.0625 14.0625 C12.146 14.0741 11.2295 14.0857 10.2852 14.0977 C8 14 8 14 7 13 C6.9277 11.1471 6.9162 9.2917 6.9375 7.4375 C6.9465 6.4256 6.9555 5.4137 6.9648 4.3711 C6.9764 3.5886 6.988 2.8062 7 2 C4.69 1.67 2.38 1.34 0 1 C0 0.67 0 0.34 0 0 Z " fill="#817C73" transform="translate(462,204)"/>
</svg>
