<?xml version="1.0" encoding="UTF-8"?>
<!-- Generator: visioncortex VTracer 0.6.12 -->
<svg version="1.1" xmlns="http://www.w3.org/2000/svg" width="1600" height="474">
<path d="M0 0 C528 0 1056 0 1600 0 C1600 156.42 1600 312.84 1600 474 C1072 474 544 474 0 474 C0 317.58 0 161.16 0 0 Z " fill="#FEFEFE" transform="translate(0,0)"/>
<path d="M0 0 C1.6889 -0.0054 3.3778 -0.0133 5.0667 -0.0237 C9.7096 -0.0446 14.3518 -0.0281 18.9946 -0.0055 C24.0448 0.0124 29.0949 -0.0045 34.1451 -0.017 C42.9966 -0.0341 51.848 -0.0288 60.6995 -0.0089 C73.8615 0.0205 87.0234 0.0156 100.1854 0.0038 C122.3266 -0.015 144.4677 -0.0056 166.6088 0.0206 C188.5357 0.0464 210.4625 0.0612 232.3895 0.0606 C233.7663 0.0606 235.1431 0.0605 236.5199 0.0605 C242.0526 0.0604 247.5853 0.0602 253.118 0.0599 C268.5836 0.0591 284.0493 0.0602 299.515 0.0629 C300.2192 0.063 300.9235 0.0631 301.6491 0.0632 C324.0892 0.0672 346.5292 0.0797 368.9693 0.0984 C369.3332 0.0987 369.3332 0.0987 371.1748 0.1003 C382.9944 0.1102 394.814 0.1207 406.6336 0.1312 C453.5302 0.1729 500.4267 0.1928 547.3233 0.1908 C548.8061 0.1907 550.2889 0.1906 551.7717 0.1906 C554.7338 0.1905 557.6959 0.1903 560.658 0.1902 C567.2994 0.1899 573.9407 0.1897 580.5821 0.1895 C582.053 0.1894 583.5239 0.1894 584.9948 0.1893 C624.2654 0.188 663.5359 0.2014 702.8064 0.2204 C703.1491 0.2205 703.1491 0.2205 704.8832 0.2214 C717.3774 0.2274 717.3774 0.2274 723.4873 0.2305 C738.5707 0.2379 753.654 0.2438 768.7373 0.2449 C769.4176 0.2449 770.0978 0.245 770.7987 0.2451 C773.5403 0.2453 776.282 0.2455 779.0237 0.2456 C804.4345 0.2474 829.8453 0.2587 855.2561 0.2891 C868.3441 0.3045 881.432 0.3116 894.52 0.3071 C903.2475 0.3049 911.975 0.3135 920.7026 0.3312 C925.6848 0.341 930.6668 0.346 935.649 0.3379 C940.1732 0.3308 944.6971 0.3371 949.2212 0.3548 C950.8555 0.3587 952.4899 0.3575 954.1242 0.3508 C956.3297 0.3425 958.5344 0.3524 960.7399 0.3672 C961.3525 0.3676 961.3525 0.3676 964.4525 0.3698 C967.7419 0.7889 968.3854 1.2606 970.4104 3.7467 C970.9776 4.056 970.9776 4.056 973.8479 5.6217 C979.1788 8.607 981.7021 12.5496 983.7795 18.2795 C985.0576 23.2775 984.8127 28.3854 984.7779 33.5131 C984.7812 34.7897 984.7844 36.0664 984.7878 37.3818 C984.7964 40.9095 984.7864 44.4369 984.7733 47.9647 C984.7623 51.7752 984.7688 55.5857 984.773 59.3962 C984.7787 66.8541 984.7684 74.312 984.7528 81.7699 C984.7352 90.4561 984.7338 99.1423 984.7331 107.8285 C984.7315 123.3262 984.7157 138.8238 984.6917 154.3214 C984.6684 169.3585 984.6542 184.3956 984.6506 199.4327 C984.6504 200.3592 984.6502 201.2856 984.65 202.2401 C984.6495 204.1065 984.6491 205.9729 984.6486 207.8392 C984.6485 208.2996 984.6485 208.2996 984.648 210.6291 C984.6478 211.5475 984.6475 212.4658 984.6473 213.412 C984.6436 227.7453 984.6323 242.0785 984.6198 256.4118 C984.6154 261.6058 984.612 266.7999 984.6092 271.994 C984.6048 280.2316 984.597 288.4692 984.5824 296.7067 C984.5758 300.4705 984.5708 304.2342 984.57 307.998 C984.5691 312.0768 984.5604 316.1555 984.5509 320.2342 C984.5513 320.8298 984.5513 320.8298 984.5535 323.8435 C984.5496 324.9373 984.5458 326.0311 984.5418 327.1581 C984.5412 327.6287 984.5412 327.6287 984.5381 330.0101 C984.3993 332.9847 983.9532 335.8211 983.4104 338.7467 C982.4204 338.7467 981.4304 338.7467 980.4104 338.7467 C980.3898 339.1798 980.3898 339.1798 980.2854 341.3717 C979.1623 345.7039 976.9666 348.0866 973.4104 350.7467 C972.7504 350.7467 972.0904 350.7467 971.4104 350.7467 C971.4104 351.4067 971.4104 352.0667 971.4104 352.7467 C967.3153 354.6949 964.0242 354.9975 959.5096 354.9997 C959.1663 355.0012 959.1663 355.0012 957.4293 355.0089 C955.1193 355.0167 952.8096 355.0103 950.4997 355.0039 C948.8235 355.0066 947.1474 355.0102 945.4713 355.0146 C940.8407 355.0241 936.2101 355.021 931.5795 355.016 C926.5511 355.0127 921.5226 355.021 916.4942 355.0278 C907.6728 355.0381 898.8515 355.041 890.0302 355.0389 C876.9127 355.0359 863.7952 355.0442 850.6776 355.0547 C825.8892 355.074 801.1008 355.0796 776.3124 355.0808 C773.5774 355.0809 770.8424 355.081 768.1074 355.0812 C767.768 355.0812 767.768 355.0812 766.0508 355.0813 C751.0173 355.0821 735.9838 355.0865 720.9503 355.0915 C714.7617 355.0935 708.5732 355.0955 702.3847 355.0975 C702.0428 355.0976 702.0428 355.0976 700.3127 355.0982 C661.1239 355.1108 621.9352 355.1191 582.7465 355.1182 C581.2796 355.1181 579.8127 355.1181 578.3458 355.1181 C571.7228 355.1179 565.0997 355.1178 558.4766 355.1176 C555.5232 355.1175 552.5698 355.1174 549.6163 355.1173 C548.1381 355.1173 546.6598 355.1173 545.1815 355.1172 C498.4354 355.1158 451.6893 355.1305 404.9431 355.1583 C393.1654 355.1653 381.3878 355.1722 369.6101 355.1788 C368.8849 355.1792 368.1597 355.1796 367.4126 355.18 C345.0654 355.1925 322.7183 355.2 300.3712 355.2025 C299.6697 355.2026 298.9681 355.2027 298.2454 355.2028 C282.8461 355.2045 267.4469 355.205 252.0477 355.2044 C246.5377 355.2042 241.0277 355.2041 235.5176 355.2041 C234.1469 355.2041 232.7761 355.204 231.4053 355.204 C209.5548 355.2037 187.7043 355.2151 165.8538 355.2323 C143.2365 355.2501 120.6191 355.2533 98.0018 355.2397 C84.9573 355.2323 71.9129 355.236 58.8684 355.2556 C50.162 355.2675 41.4557 355.265 32.7493 355.2506 C27.784 355.2428 22.8189 355.2414 17.8536 355.2576 C13.3377 355.2721 8.8221 355.2683 4.3062 355.2497 C2.6816 355.2463 1.057 355.2495 -0.5676 355.2603 C-10.6995 355.323 -18.0709 354.4258 -26.5896 348.7467 C-28.7771 345.0198 -29.5896 343.1317 -29.5896 338.7467 C-30.5796 338.7467 -31.5696 338.7467 -32.5896 338.7467 C-32.6354 298.6774 -32.6706 258.6081 -32.6917 218.5388 C-32.6942 213.8062 -32.6968 209.0737 -32.6995 204.3411 C-32.7 203.399 -32.7005 202.4569 -32.701 201.4862 C-32.7097 186.239 -32.7255 170.9919 -32.7439 155.7448 C-32.7626 140.0952 -32.7737 124.4457 -32.7778 108.7961 C-32.7805 99.1425 -32.7892 89.4891 -32.8054 79.8356 C-32.816 73.2122 -32.8192 66.5889 -32.8166 59.9655 C-32.8153 56.1465 -32.8172 52.3276 -32.828 48.5086 C-32.8396 44.361 -32.8356 40.2136 -32.8301 36.066 C-32.8359 34.8686 -32.8418 33.6711 -32.8478 32.4373 C-32.786 15.0414 -32.786 15.0414 -28.5896 8.7467 C-27.9296 8.7467 -27.2696 8.7467 -26.5896 8.7467 C-26.5896 8.0867 -26.5896 7.4267 -26.5896 6.7467 C-18.8682 -0.3841 -9.8545 -0.0979 0 0 Z " fill="#F8F6F3" transform="translate(324.58959102630615,59.25333309173584)"/>
<path d="M0 0 C1.2054 -0.005 2.4109 -0.01 3.6528 -0.0152 C4.9896 -0.0106 6.3265 -0.0059 7.6633 -0.001 C9.0899 -0.0031 10.5166 -0.006 11.9432 -0.0098 C15.8811 -0.0176 19.8189 -0.0129 23.7568 -0.0062 C28.0342 -0.0012 32.3117 -0.0077 36.5891 -0.0127 C44.0917 -0.02 51.5943 -0.0197 59.097 -0.0146 C70.2534 -0.0071 81.4098 -0.0109 92.5663 -0.017 C112.4888 -0.0276 132.4113 -0.0267 152.3339 -0.0209 C169.7681 -0.0159 187.2024 -0.0145 204.6366 -0.0169 C205.7918 -0.0171 206.9469 -0.0172 208.1371 -0.0174 C212.8258 -0.018 217.5146 -0.0187 222.2033 -0.0193 C266.2137 -0.0254 310.2241 -0.0199 354.2345 -0.0091 C393.3601 0.0004 432.4857 -0.0005 471.6113 -0.01 C515.5398 -0.0207 559.4681 -0.025 603.3966 -0.0188 C608.0769 -0.0182 612.7573 -0.0176 617.4376 -0.0169 C618.0139 -0.0169 618.0139 -0.0169 620.93 -0.0165 C638.356 -0.0142 655.7819 -0.0168 673.2079 -0.0219 C693.0162 -0.0276 712.8245 -0.0262 732.6328 -0.0153 C743.7274 -0.0094 754.8219 -0.0091 765.9165 -0.0166 C773.318 -0.0211 780.7196 -0.0183 788.1211 -0.0096 C792.3443 -0.0048 796.5675 -0.0033 800.7908 -0.0104 C804.6287 -0.0169 808.4665 -0.0142 812.3044 -0.0041 C813.6881 -0.002 815.0717 -0.0034 816.4554 -0.0085 C818.3283 -0.0149 820.2013 -0.0078 822.0743 0 C823.1131 0.0001 824.1519 0.0003 825.2221 0.0004 C828.2362 0.2684 830.356 0.8558 833.0371 2.2507 C835.3951 5.7876 835.2995 7.3014 835.3277 11.4946 C835.334 12.1387 835.334 12.1387 835.3663 15.3983 C835.3694 16.8061 835.3716 18.2139 835.3731 19.6218 C835.3795 21.0652 835.3862 22.5087 835.3932 23.9521 C835.4052 26.9775 835.4089 30.0028 835.4077 33.0283 C835.4075 36.9034 835.4348 40.7778 835.4693 44.6528 C835.4915 47.6339 835.4956 50.6149 835.4945 53.5962 C835.4969 55.0247 835.5057 56.4533 835.5212 57.8817 C835.5408 59.8802 835.5325 61.8789 835.523 63.8774 C835.5258 65.0142 835.5287 66.151 835.5316 67.3222 C834.9259 70.9096 833.884 72.0544 831.0371 74.2507 C827.8713 75.306 825.6489 75.3767 822.3238 75.3783 C821.7235 75.3799 821.7235 75.3799 818.6854 75.3875 C817.3436 75.3858 816.0017 75.384 814.6599 75.3821 C813.2358 75.3838 811.8118 75.3859 810.3878 75.3883 C806.448 75.3939 802.5081 75.3932 798.5682 75.3916 C794.2921 75.3908 790.0159 75.3959 785.7397 75.4001 C777.2464 75.4077 768.7532 75.4099 760.2599 75.4105 C750.0918 75.4114 739.9237 75.418 729.7556 75.4248 C705.1775 75.4409 680.5994 75.4468 656.0214 75.4516 C644.4005 75.4539 632.7796 75.4575 621.1587 75.4613 C581.3995 75.4741 541.6404 75.4848 501.8813 75.4883 C499.3845 75.4885 496.8876 75.4887 494.3908 75.4889 C491.8878 75.4892 489.3849 75.4894 486.8819 75.4896 C481.8603 75.49 476.8387 75.4905 471.8172 75.4909 C471.1946 75.491 471.1946 75.491 468.0442 75.4913 C427.6557 75.4949 387.2672 75.5108 346.8787 75.5341 C304.2035 75.5587 261.5283 75.5724 218.8531 75.5736 C214.1719 75.5738 209.4906 75.574 204.8094 75.5743 C203.6567 75.5743 202.504 75.5744 201.3163 75.5744 C182.7368 75.5756 164.1573 75.5866 145.5778 75.6012 C126.9165 75.6155 108.2553 75.6188 89.594 75.6107 C78.4974 75.6062 67.4009 75.6102 56.3043 75.626 C48.9001 75.6357 41.4959 75.6346 34.0916 75.6245 C29.8676 75.6191 25.6437 75.6185 21.4197 75.631 C17.5799 75.6423 13.7403 75.6399 9.9005 75.6264 C8.5173 75.6239 7.134 75.6265 5.7508 75.6348 C3.8761 75.6452 2.0012 75.6353 0.1265 75.6244 C-0.9126 75.6247 -1.9517 75.6249 -3.0223 75.6252 C-6.5275 75.1788 -8.9409 74.0554 -11.9629 72.2507 C-13.3503 69.4758 -13.0978 67.2095 -13.1081 64.1045 C-13.1145 62.8129 -13.1209 61.5214 -13.1275 60.1908 C-13.129 58.7746 -13.1301 57.3583 -13.1308 55.9421 C-13.1341 54.4948 -13.1374 53.0476 -13.1409 51.6003 C-13.1469 48.5647 -13.1488 45.5292 -13.1482 42.4936 C-13.1481 38.6018 -13.1617 34.7101 -13.1789 30.8183 C-13.1901 27.8286 -13.1921 24.839 -13.1916 21.8493 C-13.1927 20.4143 -13.1972 18.9794 -13.2049 17.5445 C-13.2147 15.5385 -13.2106 13.5324 -13.2058 11.5263 C-13.2072 10.3843 -13.2086 9.2423 -13.2101 8.0657 C-12.9629 5.2507 -12.9629 5.2507 -10.9629 2.2507 C-7.2503 0.3191 -4.1483 0.0005 0 0 Z " fill="#D7D0C2" transform="translate(388.9628715515137,109.74930167198181)"/>
<path d="M0 0 C6.6 0 13.2 0 20 0 C20.33 1.65 20.66 3.3 21 5 C25.62 5 30.24 5 35 5 C35.33 3.35 35.66 1.7 36 0 C42.6 0 49.2 0 56 0 C56 1.65 56 3.3 56 5 C60.62 5 65.24 5 70 5 C70 3.35 70 1.7 70 0 C76.6 0 83.2 0 90 0 C90.33 1.65 90.66 3.3 91 5 C95.62 5 100.24 5 105 5 C105.33 3.35 105.66 1.7 106 0 C112.6 0 119.2 0 126 0 C126 1.65 126 3.3 126 5 C130.29 5 134.58 5 139 5 C139.33 3.35 139.66 1.7 140 0 C146.6 0 153.2 0 160 0 C160.33 1.65 160.66 3.3 161 5 C165.29 5 169.58 5 174 5 C174.33 3.35 174.66 1.7 175 0 C181.6 0 188.2 0 195 0 C195.33 1.65 195.66 3.3 196 5 C200.29 5 204.58 5 209 5 C209 3.68 209 2.36 209 1 C216.26 1 223.52 1 231 1 C231 2.32 231 3.64 231 5 C235.29 5 239.58 5 244 5 C244.33 3.35 244.66 1.7 245 0 C248.2916 -0.029 251.5833 -0.0468 254.875 -0.0625 C255.8121 -0.0709 256.7493 -0.0793 257.7148 -0.0879 C258.1628 -0.0895 258.1628 -0.0895 260.4297 -0.0977 C260.8434 -0.1003 260.8434 -0.1003 262.937 -0.1135 C265 0 265 0 267 1 C267 1.99 267 2.98 267 4 C267.6381 4.049 268.2762 4.098 268.9336 4.1484 C269.7599 4.2232 270.5862 4.298 271.4375 4.375 C272.2612 4.4446 273.0849 4.5142 273.9336 4.5859 C274.6155 4.7226 275.2974 4.8592 276 5 C276.33 5.66 276.66 6.32 277 7 C277.7631 6.9381 278.5262 6.8762 279.3125 6.8125 C282 7 282 7 283.6497 8.2336 C285.359 10.4696 285.3491 11.6592 285.293 14.4492 C285.2833 15.2968 285.2736 16.1443 285.2637 17.0176 C285.2385 17.8987 285.2134 18.7797 285.1875 19.6875 C285.174 20.5802 285.1604 21.4729 285.1465 22.3926 C285.1111 24.5957 285.0618 26.7975 285 29 C283.35 29.33 281.7 29.66 280 30 C280 34.29 280 38.58 280 43 C281.32 43 282.64 43 284 43 C284 49.93 284 56.86 284 64 C282.68 64 281.36 64 280 64 C280 68.62 280 73.24 280 78 C281.32 78 282.64 78 284 78 C284 85.26 284 92.52 284 100 C282.68 100 281.36 100 280 100 C280 104.29 280 108.58 280 113 C281.32 113 282.64 113 284 113 C284 119.93 284 126.86 284 134 C282.68 134 281.36 134 280 134 C280.0116 134.3203 280.0116 134.3203 280.0703 135.9414 C280.1838 141.3812 280.0131 145.9142 278 151 C274.7959 153.136 274.004 153.2421 270.332 153.1953 C269.4394 153.1889 268.5467 153.1824 267.627 153.1758 C267.1626 153.1674 267.1626 153.1674 264.8125 153.125 C263.8721 153.116 262.9318 153.107 261.9629 153.0977 C259.6417 153.0741 257.321 153.0412 255 153 C255 151.68 255 150.36 255 149 C250.71 149 246.42 149 242 149 C242 150.32 242 151.64 242 153 C235.07 153 228.14 153 221 153 C221 151.68 221 150.36 221 149 C216.38 149 211.76 149 207 149 C207 150.32 207 151.64 207 153 C200.07 153 193.14 153 186 153 C186 151.68 186 150.36 186 149 C181.71 149 177.42 149 173 149 C173 150.32 173 151.64 173 153 C165.74 153 158.48 153 151 153 C151 151.68 151 150.36 151 149 C146.71 149 142.42 149 138 149 C138 150.32 138 151.64 138 153 C130.74 153 123.48 153 116 153 C116 151.68 116 150.36 116 149 C111.71 149 107.42 149 103 149 C103 150.32 103 151.64 103 153 C95.74 153 88.48 153 81 153 C81 151.68 81 150.36 81 149 C76.71 149 72.42 149 68 149 C68 150.32 68 151.64 68 153 C60.74 153 53.48 153 46 153 C46 151.68 46 150.36 46 149 C41.71 149 37.42 149 33 149 C33 150.32 33 151.64 33 153 C25.74 153 18.48 153 11 153 C11 151.68 11 150.36 11 149 C6.71 149 2.42 149 -2 149 C-2 150.32 -2 151.64 -2 153 C-9.26 153 -16.52 153 -24 153 C-24 151.68 -24 150.36 -24 149 C-28.29 149 -32.58 149 -37 149 C-37 150.32 -37 151.64 -37 153 C-44.26 153 -51.52 153 -59 153 C-59 151.68 -59 150.36 -59 149 C-63.29 149 -67.58 149 -72 149 C-72 150.32 -72 151.64 -72 153 C-78.93 153 -85.86 153 -93 153 C-93 151.68 -93 150.36 -93 149 C-95.3131 149.1134 -97.6255 149.241 -99.9375 149.375 C-100.5814 149.4098 -100.5814 149.4098 -103.8398 149.5859 C-104.8827 149.7226 -105.9255 149.8592 -107 150 C-107.165 150.33 -107.165 150.33 -108 152 C-110.7764 152 -112.4486 151.5439 -114.4453 149.5742 C-118.7202 143.6749 -118.5298 138.0636 -118 131 C-116.68 131 -115.36 131 -114 131 C-114 126.38 -114 121.76 -114 117 C-115.32 117 -116.64 117 -118 117 C-118 110.07 -118 103.14 -118 96 C-116.68 96 -115.36 96 -114 96 C-114 91.38 -114 86.76 -114 82 C-115.32 82 -116.64 82 -118 82 C-118 75.07 -118 68.14 -118 61 C-116.68 61 -115.36 61 -114 61 C-114 56.38 -114 51.76 -114 47 C-115.32 47 -116.64 47 -118 47 C-118 40.07 -118 33.14 -118 26 C-116.68 26 -115.36 26 -114 26 C-114 21.38 -114 16.76 -114 12 C-114.99 12 -115.98 12 -117 12 C-116.8219 8.1705 -116.2546 6.3128 -113.8125 3.3125 C-108.7985 -0.6495 -102.1648 0.483 -96.125 0.6875 C-94.8643 0.7101 -93.6036 0.7326 -92.3047 0.7559 C-89.2019 0.8146 -86.1016 0.8967 -83 1 C-83 2.32 -83 3.64 -83 5 C-78.38 5 -73.76 5 -69 5 C-69 3.68 -69 2.36 -69 1 C-62.07 1 -55.14 1 -48 1 C-48 2.32 -48 3.64 -48 5 C-43.71 5 -39.42 5 -35 5 C-35 3.68 -35 2.36 -35 1 C-27.74 1 -20.48 1 -13 1 C-13 2.32 -13 3.64 -13 5 C-8.71 5 -4.42 5 0 5 C0 3.35 0 1.7 0 0 Z " fill="#E8E3D8" transform="translate(944,215)"/>
<path d="M0 0 C1.6889 -0.0054 3.3778 -0.0133 5.0667 -0.0237 C9.7096 -0.0446 14.3518 -0.0281 18.9946 -0.0055 C24.0448 0.0124 29.0949 -0.0045 34.1451 -0.017 C42.9966 -0.0341 51.848 -0.0288 60.6995 -0.0089 C73.8615 0.0205 87.0234 0.0156 100.1854 0.0038 C122.3266 -0.015 144.4677 -0.0056 166.6088 0.0206 C188.5357 0.0464 210.4625 0.0612 232.3895 0.0606 C233.7663 0.0606 235.1431 0.0605 236.5199 0.0605 C242.0526 0.0604 247.5853 0.0602 253.118 0.0599 C268.5836 0.0591 284.0493 0.0602 299.515 0.0629 C300.2192 0.063 300.9235 0.0631 301.6491 0.0632 C324.0892 0.0672 346.5292 0.0797 368.9693 0.0984 C369.3332 0.0987 369.3332 0.0987 371.1748 0.1003 C382.9944 0.1102 394.814 0.1207 406.6336 0.1312 C453.5302 0.1729 500.4267 0.1928 547.3233 0.1908 C548.8061 0.1907 550.2889 0.1906 551.7717 0.1906 C554.7338 0.1905 557.6959 0.1903 560.658 0.1902 C567.2994 0.1899 573.9407 0.1897 580.5821 0.1895 C582.053 0.1894 583.5239 0.1894 584.9948 0.1893 C624.2654 0.188 663.5359 0.2014 702.8064 0.2204 C703.1491 0.2205 703.1491 0.2205 704.8832 0.2214 C717.3774 0.2274 717.3774 0.2274 723.4873 0.2305 C738.5707 0.2379 753.654 0.2438 768.7373 0.2449 C769.4176 0.2449 770.0978 0.245 770.7987 0.2451 C773.5403 0.2453 776.282 0.2455 779.0237 0.2456 C804.4345 0.2474 829.8453 0.2587 855.2561 0.2891 C868.3441 0.3045 881.432 0.3116 894.52 0.3071 C903.2475 0.3049 911.975 0.3135 920.7026 0.3312 C925.6848 0.341 930.6668 0.346 935.649 0.3379 C940.1732 0.3308 944.6971 0.3371 949.2212 0.3548 C950.8555 0.3587 952.4899 0.3575 954.1242 0.3508 C956.3297 0.3425 958.5344 0.3524 960.7399 0.3672 C961.3525 0.3676 961.3525 0.3676 964.4525 0.3698 C967.7419 0.7889 968.3854 1.2606 970.4104 3.7467 C970.9776 4.056 970.9776 4.056 973.8479 5.6217 C979.1788 8.607 981.7021 12.5496 983.7795 18.2795 C985.0576 23.2775 984.8127 28.3854 984.7779 33.5131 C984.7812 34.7897 984.7844 36.0664 984.7878 37.3818 C984.7964 40.9095 984.7864 44.4369 984.7733 47.9647 C984.7623 51.7752 984.7688 55.5857 984.773 59.3962 C984.7787 66.8541 984.7684 74.312 984.7528 81.7699 C984.7352 90.4561 984.7338 99.1423 984.7331 107.8285 C984.7315 123.3262 984.7157 138.8238 984.6917 154.3214 C984.6684 169.3585 984.6542 184.3956 984.6506 199.4327 C984.6504 200.3592 984.6502 201.2856 984.65 202.2401 C984.6495 204.1065 984.6491 205.9729 984.6486 207.8392 C984.6485 208.2996 984.6485 208.2996 984.648 210.6291 C984.6478 211.5475 984.6475 212.4658 984.6473 213.412 C984.6436 227.7453 984.6323 242.0785 984.6198 256.4118 C984.6154 261.6058 984.612 266.7999 984.6092 271.994 C984.6048 280.2316 984.597 288.4692 984.5824 296.7067 C984.5758 300.4705 984.5708 304.2342 984.57 307.998 C984.5691 312.0768 984.5604 316.1555 984.5509 320.2342 C984.5513 320.8298 984.5513 320.8298 984.5535 323.8435 C984.5496 324.9373 984.5458 326.0311 984.5418 327.1581 C984.5412 327.6287 984.5412 327.6287 984.5381 330.0101 C984.3993 332.9847 983.9532 335.8211 983.4104 338.7467 C982.4204 338.7467 981.4304 338.7467 980.4104 338.7467 C980.3898 339.1798 980.3898 339.1798 980.2854 341.3717 C979.1623 345.7039 976.9666 348.0866 973.4104 350.7467 C972.7504 350.7467 972.0904 350.7467 971.4104 350.7467 C971.4104 351.4067 971.4104 352.0667 971.4104 352.7467 C967.3153 354.6949 964.0242 354.9975 959.5096 354.9997 C959.1663 355.0012 959.1663 355.0012 957.4293 355.0089 C955.1193 355.0167 952.8096 355.0103 950.4997 355.0039 C948.8235 355.0066 947.1474 355.0102 945.4713 355.0146 C940.8407 355.0241 936.2101 355.021 931.5795 355.016 C926.5511 355.0127 921.5226 355.021 916.4942 355.0278 C907.6728 355.0381 898.8515 355.041 890.0302 355.0389 C876.9127 355.0359 863.7952 355.0442 850.6776 355.0547 C825.8892 355.074 801.1008 355.0796 776.3124 355.0808 C773.5774 355.0809 770.8424 355.081 768.1074 355.0812 C767.768 355.0812 767.768 355.0812 766.0508 355.0813 C751.0173 355.0821 735.9838 355.0865 720.9503 355.0915 C714.7617 355.0935 708.5732 355.0955 702.3847 355.0975 C702.0428 355.0976 702.0428 355.0976 700.3127 355.0982 C661.1239 355.1108 621.9352 355.1191 582.7465 355.1182 C581.2796 355.1181 579.8127 355.1181 578.3458 355.1181 C571.7228 355.1179 565.0997 355.1178 558.4766 355.1176 C555.5232 355.1175 552.5698 355.1174 549.6163 355.1173 C548.1381 355.1173 546.6598 355.1173 545.1815 355.1172 C498.4354 355.1158 451.6893 355.1305 404.9431 355.1583 C393.1654 355.1653 381.3878 355.1722 369.6101 355.1788 C368.8849 355.1792 368.1597 355.1796 367.4126 355.18 C345.0654 355.1925 322.7183 355.2 300.3712 355.2025 C299.6697 355.2026 298.9681 355.2027 298.2454 355.2028 C282.8461 355.2045 267.4469 355.205 252.0477 355.2044 C246.5377 355.2042 241.0277 355.2041 235.5176 355.2041 C234.1469 355.2041 232.7761 355.204 231.4053 355.204 C209.5548 355.2037 187.7043 355.2151 165.8538 355.2323 C143.2365 355.2501 120.6191 355.2533 98.0018 355.2397 C84.9573 355.2323 71.9129 355.236 58.8684 355.2556 C50.162 355.2675 41.4557 355.265 32.7493 355.2506 C27.784 355.2428 22.8189 355.2414 17.8536 355.2576 C13.3377 355.2721 8.8221 355.2683 4.3062 355.2497 C2.6816 355.2463 1.057 355.2495 -0.5676 355.2603 C-10.6995 355.323 -18.0709 354.4258 -26.5896 348.7467 C-28.7771 345.0198 -29.5896 343.1317 -29.5896 338.7467 C-30.5796 338.7467 -31.5696 338.7467 -32.5896 338.7467 C-32.6354 298.6774 -32.6706 258.6081 -32.6917 218.5388 C-32.6942 213.8062 -32.6968 209.0737 -32.6995 204.3411 C-32.7 203.399 -32.7005 202.4569 -32.701 201.4862 C-32.7097 186.239 -32.7255 170.9919 -32.7439 155.7448 C-32.7626 140.0952 -32.7737 124.4457 -32.7778 108.7961 C-32.7805 99.1425 -32.7892 89.4891 -32.8054 79.8356 C-32.816 73.2122 -32.8192 66.5889 -32.8166 59.9655 C-32.8153 56.1465 -32.8172 52.3276 -32.828 48.5086 C-32.8396 44.361 -32.8356 40.2136 -32.8301 36.066 C-32.8359 34.8686 -32.8418 33.6711 -32.8478 32.4373 C-32.786 15.0414 -32.786 15.0414 -28.5896 8.7467 C-27.9296 8.7467 -27.2696 8.7467 -26.5896 8.7467 C-26.5896 8.0867 -26.5896 7.4267 -26.5896 6.7467 C-18.8682 -0.3841 -9.8545 -0.0979 0 0 Z M-22.5896 17.7467 C-23.6027 20.786 -23.7149 22.8164 -23.7154 25.9957 C-23.718 27.0901 -23.7206 28.1845 -23.7233 29.3121 C-23.7211 30.5192 -23.7189 31.7263 -23.7166 32.9699 C-23.7181 34.2485 -23.7197 35.5271 -23.7213 36.8445 C-23.7255 40.4006 -23.7234 43.9567 -23.7203 47.5128 C-23.7181 51.3452 -23.7215 55.1775 -23.7243 59.0099 C-23.7287 66.5203 -23.7278 74.0307 -23.7249 81.5411 C-23.7226 87.6432 -23.7223 93.7453 -23.7234 99.8475 C-23.7236 100.7149 -23.7237 101.5823 -23.7239 102.476 C-23.7242 104.2379 -23.7245 105.9999 -23.7248 107.7619 C-23.7277 124.2963 -23.7244 140.8308 -23.719 157.3652 C-23.7146 171.5625 -23.7154 185.7598 -23.72 199.9571 C-23.7253 216.4311 -23.7274 232.9051 -23.7243 249.3791 C-23.724 251.1347 -23.7237 252.8903 -23.7234 254.6459 C-23.7233 255.5097 -23.7231 256.3736 -23.7229 257.2636 C-23.7221 263.3607 -23.7235 269.4578 -23.7259 275.5548 C-23.7287 282.9819 -23.7279 290.4088 -23.7226 297.8358 C-23.72 301.6275 -23.719 305.4192 -23.7223 309.2109 C-23.7258 313.3151 -23.7216 317.4192 -23.7166 321.5234 C-23.7188 322.7305 -23.721 323.9376 -23.7233 325.1812 C-23.7207 326.2757 -23.7181 327.3701 -23.7154 328.4977 C-23.7153 329.4457 -23.7151 330.3938 -23.7149 331.3706 C-23.5896 333.7467 -23.5896 333.7467 -22.5896 336.7467 C-21.9296 336.7467 -21.2696 336.7467 -20.5896 336.7467 C-20.4658 337.1282 -20.4658 337.1282 -19.8396 339.0592 C-18.4035 342.1468 -17.5153 343.0549 -14.5896 344.7467 C-11.5193 345.1235 -11.5193 345.1235 -7.8246 345.1262 C-7.1407 345.1307 -6.4567 345.1353 -5.752 345.14 C-3.4446 345.1518 -1.1378 345.1421 1.1697 345.1326 C2.8415 345.1366 4.5134 345.142 6.1852 345.1485 C10.8087 345.1628 15.4319 345.1582 20.0553 345.1507 C25.0743 345.1458 30.0931 345.1582 35.112 345.1684 C43.9181 345.1839 52.724 345.1881 61.5301 345.185 C74.6249 345.1805 87.7196 345.1929 100.8144 345.2087 C125.5595 345.2377 150.3045 345.2461 175.0496 345.2478 C177.7801 345.248 180.5106 345.2482 183.2411 345.2484 C183.5799 345.2485 183.5799 345.2485 185.2943 345.2486 C200.3009 345.2498 215.3075 345.2564 230.3141 345.2639 C236.491 345.267 242.6678 345.27 248.8447 345.273 C249.1859 345.2731 249.1859 345.2731 250.9127 345.274 C290.0291 345.2929 329.1454 345.3053 368.2617 345.3039 C369.726 345.3039 371.1903 345.3038 372.6546 345.3038 C379.2659 345.3036 385.8773 345.3033 392.4887 345.303 C395.4369 345.3029 398.3852 345.3028 401.3334 345.3027 C402.8091 345.3026 404.2847 345.3025 405.7604 345.3025 C452.4245 345.3004 499.0886 345.3224 545.7527 345.3641 C557.5096 345.3746 569.2665 345.385 581.0234 345.3949 C581.3853 345.3952 581.3853 345.3952 583.217 345.3967 C605.5233 345.4154 627.8297 345.4267 650.1361 345.4305 C650.8363 345.4306 651.5365 345.4307 652.2579 345.4308 C667.6281 345.4334 682.9983 345.4342 698.3685 345.4333 C703.8681 345.433 709.3677 345.4329 714.8673 345.4328 C716.2355 345.4328 717.6037 345.4327 718.9719 345.4327 C740.7844 345.4322 762.5968 345.4493 784.4092 345.4752 C806.9864 345.5018 829.5635 345.5066 852.1407 345.4862 C865.1632 345.4751 878.1855 345.4807 891.208 345.51 C899.8985 345.528 908.5889 345.5242 917.2794 345.5026 C922.2365 345.4909 927.1932 345.4888 932.1503 345.513 C936.6578 345.5348 941.1643 345.5291 945.6718 345.5012 C947.2944 345.4961 948.9171 345.501 950.5396 345.5171 C965.1656 345.653 965.1656 345.653 971.0368 340.1306 C971.4901 339.6739 971.9434 339.2172 972.4104 338.7467 C973.0704 338.4167 973.7304 338.0867 974.4104 337.7467 C974.4333 297.9915 974.4509 258.2363 974.4615 218.4811 C974.4627 213.7884 974.464 209.0958 974.4653 204.4032 C974.4656 203.4689 974.4659 202.5347 974.4661 201.5722 C974.4705 186.442 974.4784 171.3118 974.4876 156.1816 C974.4969 140.6586 974.5025 125.1356 974.5045 109.6126 C974.5059 100.0328 974.5102 90.453 974.5183 80.8732 C974.5236 74.3055 974.5252 67.7378 974.5239 61.17 C974.5233 57.3799 974.5243 53.5898 974.5296 49.7996 C974.5354 45.6901 974.5334 41.5806 974.5307 37.4711 C974.5336 36.2737 974.5365 35.0762 974.5395 33.8424 C974.534 30.8084 974.4763 27.7798 974.4104 24.7467 C974.4286 23.4736 974.4467 22.2005 974.4654 20.8889 C972.7236 15.701 969.2192 13.1869 964.4104 10.7467 C958.9525 9.7275 953.5625 9.805 948.0359 9.8658 C946.3582 9.8585 944.6805 9.8481 943.0029 9.8349 C938.3863 9.8077 933.7707 9.824 929.1541 9.8474 C924.1342 9.8651 919.1145 9.8423 914.0946 9.8247 C905.2945 9.7994 896.4948 9.8002 887.6947 9.818 C874.6089 9.8445 861.5234 9.831 848.4377 9.8096 C826.4239 9.7748 804.4103 9.7736 782.3966 9.7926 C781.7263 9.7932 781.056 9.7938 780.3653 9.7944 C780.0297 9.7946 780.0297 9.7946 778.3309 9.7961 C757.8812 9.8138 737.4315 9.8183 716.9818 9.81 C715.6127 9.8094 714.2435 9.8089 712.8744 9.8083 C707.3725 9.8062 701.8705 9.8039 696.3686 9.8016 C680.9882 9.7952 665.6079 9.7912 650.2275 9.7891 C649.8773 9.7891 649.8773 9.7891 648.1051 9.7888 C625.7862 9.786 603.4674 9.7938 581.1485 9.8091 C580.4245 9.8096 579.7006 9.81 578.9547 9.8106 C567.1983 9.8186 555.4418 9.8271 543.6854 9.8357 C497.0547 9.8697 450.4242 9.8681 403.7935 9.8341 C392.0418 9.8255 380.2901 9.817 368.5384 9.8091 C368.1766 9.8088 368.1766 9.8088 366.3457 9.8076 C344.0493 9.7925 321.7529 9.7861 299.4565 9.7891 C298.7566 9.7892 298.0568 9.7893 297.3357 9.7894 C281.9731 9.7916 266.6105 9.796 251.2479 9.8025 C245.7511 9.8048 240.2544 9.807 234.7577 9.8091 C233.3902 9.8097 232.0228 9.8102 230.6553 9.8108 C210.21 9.8192 189.7647 9.812 169.3194 9.7944 C168.9842 9.7941 168.9842 9.7941 167.288 9.7926 C166.6188 9.792 165.9497 9.7914 165.2603 9.7908 C142.701 9.7715 120.1418 9.7786 97.5826 9.8156 C84.5711 9.8362 71.56 9.8374 58.5485 9.811 C49.8655 9.7954 41.1828 9.805 32.4998 9.8356 C27.547 9.8523 22.5949 9.8578 17.6421 9.8327 C13.1386 9.8102 8.6363 9.8197 4.1328 9.855 C2.5117 9.8621 0.8905 9.8573 -0.7305 9.8396 C-9.6854 9.7482 -16.9748 9.8584 -22.5896 17.7467 Z " fill="#46413A" transform="translate(324.58959102630615,59.25333309173584)"/>
<path d="M0 0 C0.6862 -0.0051 1.3725 -0.0102 2.0795 -0.0155 C4.3888 -0.0278 6.697 -0.0115 9.0063 0.0046 C10.6817 0.0016 12.3572 -0.0031 14.0326 -0.0094 C18.6613 -0.0217 23.2897 -0.0089 27.9184 0.0077 C32.9446 0.0214 37.9708 0.012 42.997 0.0054 C51.8141 -0.0029 60.6311 0.0037 69.4482 0.02 C82.5589 0.0441 95.6696 0.0453 108.7804 0.0418 C130.8326 0.0365 152.8849 0.0499 174.9371 0.0739 C196.7788 0.0976 218.6205 0.113 240.4622 0.1173 C241.1403 0.1174 241.8184 0.1176 242.517 0.1177 C248.7102 0.119 254.9034 0.1201 261.0966 0.1211 C276.4928 0.1237 291.889 0.1275 307.2852 0.1322 C307.6358 0.1323 307.6358 0.1323 309.4099 0.1329 C343.5242 0.1434 377.6385 0.1686 411.7528 0.195 C423.5926 0.2042 435.4324 0.2133 447.2722 0.2221 C447.6393 0.2224 447.6393 0.2224 449.4973 0.2238 C483.627 0.2492 517.7566 0.2641 551.8863 0.2763 C554.1018 0.2771 556.3173 0.2779 558.5327 0.2787 C573.2147 0.2839 587.8966 0.289 602.5785 0.294 C631.7924 0.3039 661.0063 0.3149 690.2202 0.3266 C691.6115 0.3271 693.0028 0.3277 694.394 0.3283 C781.8714 0.3632 869.3488 0.4221 972.1016 0.4968 C972.1016 0.8268 972.1016 1.1568 972.1016 1.4968 C971.6779 1.497 971.6779 1.497 969.5338 1.498 C881.4653 1.5397 793.3968 1.5835 692.8809 1.6558 C691.4903 1.6568 690.0998 1.6578 688.7093 1.6588 C659.523 1.6799 630.3366 1.7016 601.1503 1.7241 C586.4895 1.7354 571.8287 1.7465 557.1679 1.7576 C554.9563 1.7592 552.7448 1.7609 550.5332 1.7626 C516.4705 1.7883 482.4078 1.8114 448.345 1.8272 C447.9787 1.8274 447.9787 1.8274 446.125 1.8283 C434.3128 1.8337 422.5006 1.839 410.6884 1.8442 C376.6737 1.8592 342.659 1.8759 308.6443 1.9029 C307.9451 1.9035 307.2459 1.904 306.5255 1.9046 C291.1779 1.9168 275.8303 1.9298 260.4827 1.9436 C254.3078 1.9492 248.1328 1.9546 241.9578 1.96 C241.282 1.9606 240.6062 1.9612 239.9099 1.9618 C218.1195 1.9808 196.3291 1.9903 174.5388 1.9948 C151.9862 1.9996 129.4338 2.0148 106.8813 2.0425 C93.8693 2.0581 80.8574 2.0652 67.8454 2.0606 C59.1656 2.0583 50.4859 2.0667 41.8061 2.0841 C36.8527 2.0937 31.8993 2.0985 26.9459 2.0902 C22.4454 2.0827 17.945 2.0889 13.4445 2.1062 C11.821 2.11 10.1974 2.1088 8.5739 2.1019 C6.378 2.0935 4.183 2.1033 1.9872 2.1178 C0.7688 2.1186 -0.4496 2.1193 -1.7048 2.1201 C-5.1832 2.5304 -6.9953 3.6266 -9.8984 5.4968 C-10.5584 5.1668 -11.2184 4.8368 -11.8984 4.4968 C-7.9188 0.7094 -5.4503 -0.0028 0 0 Z " fill="#D9D8D7" transform="translate(316.89836913347244,69.50320601463318)"/>
<path d="M0 0 C1.3501 2.7001 0.6141 4.0737 0 7 C-0.0912 8.8484 -0.1335 10.6996 -0.1387 12.5503 C-0.1441 13.661 -0.1496 14.7717 -0.1553 15.9161 C-0.1562 17.1311 -0.1572 18.3461 -0.1582 19.5979 C-0.1632 20.8925 -0.1681 22.1872 -0.1732 23.5211 C-0.1867 27.1127 -0.1942 30.7043 -0.2006 34.2959 C-0.2086 38.1698 -0.2223 42.0436 -0.2353 45.9174 C-0.2571 52.6285 -0.2752 59.3395 -0.2909 66.0506 C-0.3136 75.7536 -0.3418 85.4567 -0.3712 95.1597 C-0.4189 110.9021 -0.4622 126.6445 -0.5027 142.387 C-0.542 157.6796 -0.5835 172.9723 -0.6277 188.2649 C-0.6304 189.2075 -0.6331 190.15 -0.6359 191.1212 C-0.6496 195.8498 -0.6633 200.5784 -0.6771 205.307 C-0.791 244.538 -0.8978 283.769 -1 323 C-0.01 323 0.98 323 2 323 C2.33 324.98 2.66 326.96 3 329 C2.34 328.67 1.68 328.34 1 328 C1 327.01 1 326.02 1 325 C0.01 325 -0.98 325 -2 325 C-3.1908 318.4383 -3.1453 311.964 -3.1404 305.3092 C-3.1434 304.0286 -3.1464 302.748 -3.1494 301.4286 C-3.1575 297.8853 -3.1593 294.3421 -3.16 290.7989 C-3.1619 286.9734 -3.1694 283.1479 -3.1762 279.3224 C-3.1897 270.9653 -3.1958 262.6082 -3.2002 254.2511 C-3.203 249.0333 -3.2072 243.8154 -3.2117 238.5976 C-3.2239 224.1496 -3.2342 209.7017 -3.2376 195.2537 C-3.2377 194.7918 -3.2377 194.7918 -3.2382 192.4542 C-3.2385 191.5281 -3.2387 190.6021 -3.2389 189.648 C-3.2393 187.7715 -3.2398 185.895 -3.2402 184.0186 C-3.2405 183.0878 -3.2407 182.157 -3.2409 181.198 C-3.2449 166.0992 -3.2623 151.0005 -3.2856 135.9017 C-3.3093 120.3988 -3.3218 104.896 -3.3229 89.3931 C-3.3239 80.689 -3.3296 71.985 -3.3478 63.281 C-3.3631 55.8739 -3.3683 48.4669 -3.36 41.0598 C-3.3561 37.2799 -3.3571 33.5002 -3.3711 29.7203 C-3.3861 25.6257 -3.378 21.5315 -3.3675 17.4369 C-3.3755 16.2383 -3.3836 15.0398 -3.3919 13.805 C-3.3886 13.257 -3.3886 13.257 -3.3719 10.4839 C-3.3725 9.5388 -3.3731 8.5937 -3.3737 7.6199 C-2.929 4.5025 -1.7646 2.5778 0 0 Z " fill="#A4A29F" transform="translate(293,75)"/>
<path d="M0 0 C1.213 0.0226 2.426 0.0451 3.6758 0.0684 C6.6601 0.1271 9.6419 0.2092 12.625 0.3125 C12.625 2.9525 12.625 5.5925 12.625 8.3125 C12.272 8.3224 12.272 8.3224 10.4854 8.3726 C7.2815 8.4679 4.0784 8.5775 0.875 8.6875 C-0.2362 8.7184 -1.3473 8.7494 -2.4922 8.7812 C-3.0271 8.8006 -3.0271 8.8006 -5.7344 8.8984 C-6.7189 8.9299 -7.7034 8.9613 -8.7178 8.9937 C-11.402 9.3157 -13.0185 10.0596 -15.375 11.3125 C-17.625 10.9375 -17.625 10.9375 -19.375 10.3125 C-19.75 8.125 -19.75 8.125 -19.375 5.3125 C-14.0258 -1.183 -7.9237 -0.279 0 0 Z " fill="#A19B8E" transform="translate(847.375,215.6875)"/>
<path d="M0 0 C1.213 0.0226 2.426 0.0451 3.6758 0.0684 C6.6601 0.1271 9.6419 0.2092 12.625 0.3125 C12.625 2.9525 12.625 5.5925 12.625 8.3125 C12.272 8.3224 12.272 8.3224 10.4854 8.3726 C7.2815 8.4679 4.0784 8.5775 0.875 8.6875 C-0.2362 8.7184 -1.3473 8.7494 -2.4922 8.7812 C-3.0271 8.8006 -3.0271 8.8006 -5.7344 8.8984 C-6.7189 8.9299 -7.7034 8.9613 -8.7178 8.9937 C-11.402 9.3157 -13.0185 10.0596 -15.375 11.3125 C-17.625 10.9375 -17.625 10.9375 -19.375 10.3125 C-19.75 8.125 -19.75 8.125 -19.375 5.3125 C-14.0258 -1.183 -7.9237 -0.279 0 0 Z " fill="#A29C8E" transform="translate(393.375,215.6875)"/>
<path d="M0 0 C0 7.26 0 14.52 0 22 C-2.64 22 -5.28 22 -8 22 C-8 15.07 -8 8.14 -8 1 C-4 0 -4 0 0 0 Z " fill="#AEA99D" transform="translate(834,310)"/>
<path d="M0 0 C0 7.26 0 14.52 0 22 C-2.64 22 -5.28 22 -8 22 C-8 15.07 -8 8.14 -8 1 C-4 0 -4 0 0 0 Z " fill="#AEA99D" transform="translate(380,310)"/>
<path d="M0 0 C2.64 0 5.28 0 8 0 C8.1212 0.7709 8.2423 1.5417 8.3672 2.3359 C8.5348 3.3388 8.7023 4.3417 8.875 5.375 C8.9562 5.8739 8.9562 5.8739 9.3672 8.3984 C10 11 10 11 12 13 C11.6875 14.875 11.6875 14.875 11 17 C10.8144 17.7425 10.6288 18.485 10.4375 19.25 C10.2931 19.8275 10.1488 20.405 10 21 C5.8241 20.2374 3.8752 18.5985 1.1953 15.3867 C-1.1994 10.6051 -0.4224 5.2016 0 0 Z " fill="#AEA99D" transform="translate(372,346)"/>
<path d="M0 0 C6.93 0 13.86 0 21 0 C21 2.64 21 5.28 21 8 C14.07 8 7.14 8 0 8 C0 5.36 0 2.72 0 0 Z " fill="#A09A8C" transform="translate(676,360)"/>
<path d="M0 0 C2.64 0 5.28 0 8 0 C8 6.93 8 13.86 8 21 C5.36 21 2.72 21 0 21 C0 14.07 0 7.14 0 0 Z " fill="#AEA89C" transform="translate(1220,328)"/>
<path d="M0 0 C2.64 0 5.28 0 8 0 C8 6.93 8 13.86 8 21 C5.36 21 2.72 21 0 21 C0 14.07 0 7.14 0 0 Z " fill="#AEA89C" transform="translate(766,328)"/>
<path d="M0 0 C2.64 0 5.28 0 8 0 C8 6.93 8 13.86 8 21 C5.36 21 2.72 21 0 21 C0 14.07 0 7.14 0 0 Z " fill="#ADA89C" transform="translate(826,241)"/>
<path d="M0 0 C0.8327 0.0052 1.6653 0.0105 2.5232 0.0159 C3.4223 0.0191 4.3214 0.0223 5.2478 0.0256 C5.7206 0.0298 5.7206 0.0298 8.113 0.051 C9.0624 0.0555 10.0118 0.06 10.99 0.0647 C13.3436 0.0765 15.697 0.093 18.0505 0.1135 C18.0505 2.7535 18.0505 5.3935 18.0505 8.1135 C11.1205 8.1135 4.1905 8.1135 -2.9495 8.1135 C-2.9495 0.1718 -2.9495 0.1718 0 0 Z " fill="#ADA79B" transform="translate(853.949462890625,359.886474609375)"/>
<path d="M0 0 C3.3125 -0.0289 6.6249 -0.0468 9.9375 -0.0625 C10.883 -0.0709 11.8286 -0.0793 12.8027 -0.0879 C13.2523 -0.0895 13.2523 -0.0895 15.5273 -0.0977 C15.9437 -0.1003 15.9437 -0.1003 18.0505 -0.1135 C20 0 20 0 21 1 C21 3.31 21 5.62 21 8 C14.07 8 7.14 8 0 8 C0 5.36 0 2.72 0 0 Z " fill="#ADA79B" transform="translate(711,360)"/>
<path d="M0 0 C2.31 0 4.62 0 7 0 C8 1 8 1 8.1135 2.9495 C8.1083 3.7821 8.1031 4.6148 8.0977 5.4727 C8.0944 6.3718 8.0912 7.2709 8.0879 8.1973 C8.0795 9.1428 8.0711 10.0883 8.0625 11.0625 C8.058 12.0119 8.0535 12.9613 8.0488 13.9395 C8.037 16.293 8.0205 18.6465 8 21 C5.36 21 2.72 21 0 21 C0 14.07 0 7.14 0 0 Z " fill="#ADA89B" transform="translate(372,241)"/>
<path d="M0 0 C6.6 0 13.2 0 20 0 C21 2 21 2 21 8 C14.07 8 7.14 8 0 8 C0 5.36 0 2.72 0 0 Z " fill="#A19B8E" transform="translate(735,216)"/>
<path d="M0 0 C3.1039 -0.1161 6.2071 -0.1872 9.3125 -0.25 C10.1936 -0.2835 11.0746 -0.317 11.9824 -0.3516 C18.4981 -0.4507 18.4981 -0.4507 21.1055 1.8906 C22 4 22 4 22 6 C18.8469 8.1021 18.139 8.2435 14.5508 8.1953 C14.127 8.1921 14.127 8.1921 11.9824 8.1758 C11.1013 8.159 10.2203 8.1423 9.3125 8.125 C8.4198 8.116 7.5271 8.107 6.6074 8.0977 C4.4047 8.0741 2.2025 8.0412 0 8 C0 5.36 0 2.72 0 0 Z " fill="#ACA69A" transform="translate(1200,360)"/>
<path d="M0 0 C3.1039 -0.1161 6.2071 -0.1872 9.3125 -0.25 C10.1936 -0.2835 11.0746 -0.317 11.9824 -0.3516 C18.4981 -0.4507 18.4981 -0.4507 21.1055 1.8906 C22 4 22 4 22 6 C18.8469 8.1021 18.139 8.2435 14.5508 8.1953 C14.127 8.1921 14.127 8.1921 11.9824 8.1758 C11.1013 8.159 10.2203 8.1423 9.3125 8.125 C8.4198 8.116 7.5271 8.107 6.6074 8.0977 C4.4047 8.0741 2.2025 8.0412 0 8 C0 5.36 0 2.72 0 0 Z " fill="#ACA69A" transform="translate(746,360)"/>
<path d="M0 0 C6.6 0 13.2 0 20 0 C20 2.31 20 4.62 20 7 C19 8 19 8 17.0505 8.1135 C16.2179 8.1083 15.3852 8.1031 14.5273 8.0977 C13.6282 8.0944 12.7291 8.0912 11.8027 8.0879 C10.8572 8.0795 9.9117 8.0711 8.9375 8.0625 C7.9881 8.058 7.0387 8.0535 6.0605 8.0488 C3.707 8.037 1.3535 8.0205 -1 8 C-0.67 5.36 -0.34 2.72 0 0 Z " fill="#A19B8E" transform="translate(875,216)"/>
<path d="M0 0 C6.6 0 13.2 0 20 0 C20 2.64 20 5.28 20 8 C13.4 8 6.8 8 0 8 C0 5.36 0 2.72 0 0 Z " fill="#AAA598" transform="translate(1096,360)"/>
<path d="M0 0 C6.6 0 13.2 0 20 0 C20 2.64 20 5.28 20 8 C13.4 8 6.8 8 0 8 C0 5.36 0 2.72 0 0 Z " fill="#AAA497" transform="translate(1026,360)"/>
<path d="M0 0 C6.6 0 13.2 0 20 0 C20 2.64 20 5.28 20 8 C13.4 8 6.8 8 0 8 C0 5.36 0 2.72 0 0 Z " fill="#AAA497" transform="translate(956,360)"/>
<path d="M0 0 C6.6 0 13.2 0 20 0 C20 2.64 20 5.28 20 8 C13.4 8 6.8 8 0 8 C0 5.36 0 2.72 0 0 Z " fill="#AAA498" transform="translate(886,360)"/>
<path d="M0 0 C6.6 0 13.2 0 20 0 C20 2.64 20 5.28 20 8 C13.4 8 6.8 8 0 8 C0 5.36 0 2.72 0 0 Z " fill="#ABA598" transform="translate(642,360)"/>
<path d="M0 0 C6.6 0 13.2 0 20 0 C20 2.64 20 5.28 20 8 C13.4 8 6.8 8 0 8 C0 5.36 0 2.72 0 0 Z " fill="#AAA498" transform="translate(572,360)"/>
<path d="M0 0 C6.6 0 13.2 0 20 0 C20 2.64 20 5.28 20 8 C13.4 8 6.8 8 0 8 C0 5.36 0 2.72 0 0 Z " fill="#AAA497" transform="translate(502,360)"/>
<path d="M0 0 C6.6 0 13.2 0 20 0 C20 2.64 20 5.28 20 8 C13.4 8 6.8 8 0 8 C0 5.36 0 2.72 0 0 Z " fill="#AAA497" transform="translate(432,360)"/>
<path d="M0 0 C2.64 0 5.28 0 8 0 C8 6.6 8 13.2 8 20 C5.36 20 2.72 20 0 20 C0 13.4 0 6.8 0 0 Z " fill="#ABA599" transform="translate(1220,294)"/>
<path d="M0 0 C2.64 0 5.28 0 8 0 C8 6.6 8 13.2 8 20 C5.36 20 2.72 20 0 20 C0 13.4 0 6.8 0 0 Z " fill="#ABA699" transform="translate(766,294)"/>
<path d="M0 0 C2.64 0 5.28 0 8 0 C8 6.6 8 13.2 8 20 C5.36 20 2.72 20 0 20 C0 13.4 0 6.8 0 0 Z " fill="#ABA699" transform="translate(826,276)"/>
<path d="M0 0 C2.64 0 5.28 0 8 0 C8 6.6 8 13.2 8 20 C5.36 20 2.72 20 0 20 C0 13.4 0 6.8 0 0 Z " fill="#ABA599" transform="translate(372,276)"/>
<path d="M0 0 C6.6 0 13.2 0 20 0 C20 2.64 20 5.28 20 8 C13.4 8 6.8 8 0 8 C0 5.36 0 2.72 0 0 Z " fill="#ABA599" transform="translate(1154,216)"/>
<path d="M0 0 C6.6 0 13.2 0 20 0 C20 2.64 20 5.28 20 8 C13.4 8 6.8 8 0 8 C0 5.36 0 2.72 0 0 Z " fill="#ABA598" transform="translate(700,216)"/>
<path d="M0 0 C6.6 0 13.2 0 20 0 C20 2.64 20 5.28 20 8 C13.4 8 6.8 8 0 8 C0 5.36 0 2.72 0 0 Z " fill="#ABA599" transform="translate(910,216)"/>
<path d="M0 0 C6.6 0 13.2 0 20 0 C20 2.64 20 5.28 20 8 C13.4 8 6.8 8 0 8 C0 5.36 0 2.72 0 0 Z " fill="#ABA599" transform="translate(456,216)"/>
<path d="M0 0 C3.1458 -0.0289 6.2916 -0.0468 9.4375 -0.0625 C10.3353 -0.0709 11.2332 -0.0793 12.1582 -0.0879 C13.0122 -0.0911 13.8662 -0.0943 14.7461 -0.0977 C15.1415 -0.1003 15.1415 -0.1003 17.1423 -0.1135 C19 0 19 0 20 1 C20 3.31 20 5.62 20 8 C13.4 8 6.8 8 0 8 C0 5.36 0 2.72 0 0 Z " fill="#A09A8C" transform="translate(1166,360)"/>
<path d="M0 0 C0.3954 0.0026 0.3954 0.0026 2.3962 0.0159 C2.8232 0.0175 2.8232 0.0175 4.9841 0.0256 C5.882 0.034 6.7798 0.0424 7.7048 0.051 C8.6065 0.0555 9.5082 0.06 10.4373 0.0647 C12.6723 0.0765 14.9073 0.093 17.1423 0.1135 C17.1423 2.7535 17.1423 5.3935 17.1423 8.1135 C10.5423 8.1135 3.9423 8.1135 -2.8577 8.1135 C-2.8577 0.1746 -2.8577 0.1746 0 0 Z " fill="#ABA599" transform="translate(399.857666015625,359.886474609375)"/>
<path d="M0 0 C0.3954 0.0026 0.3954 0.0026 2.3962 0.0159 C2.8232 0.0175 2.8232 0.0175 4.9841 0.0256 C5.882 0.034 6.7798 0.0424 7.7048 0.051 C8.6065 0.0555 9.5082 0.06 10.4373 0.0647 C12.6723 0.0765 14.9073 0.093 17.1423 0.1135 C17.1423 2.7535 17.1423 5.3935 17.1423 8.1135 C13.9965 8.1424 10.8507 8.1603 7.7048 8.176 C7.2559 8.1802 7.2559 8.1802 4.9841 8.2014 C4.5571 8.203 4.5571 8.203 2.3962 8.2112 C1.6055 8.2164 0.8147 8.2217 0 8.2271 C-1.8577 8.1135 -1.8577 8.1135 -2.8577 7.1135 C-2.9827 4.1135 -2.9827 4.1135 -2.8577 1.1135 C-1.8577 0.1135 -1.8577 0.1135 0 0 Z " fill="#A09A8C" transform="translate(1063.857666015625,359.886474609375)"/>
<path d="M0 0 C3 0.125 3 0.125 4 1.125 C4.0865 2.5407 4.107 3.9606 4.0977 5.3789 C4.0944 6.2329 4.0912 7.0869 4.0879 7.9668 C4.0795 8.8646 4.0711 9.7625 4.0625 10.6875 C4.058 11.5892 4.0535 12.4909 4.0488 13.4199 C4.037 15.655 4.0205 17.89 4 20.125 C1.36 20.125 -1.28 20.125 -4 20.125 C-4.0289 16.9792 -4.0468 13.8334 -4.0625 10.6875 C-4.0709 9.7897 -4.0793 8.8918 -4.0879 7.9668 C-4.0911 7.1128 -4.0943 6.2588 -4.0977 5.3789 C-4.1003 4.9835 -4.1003 4.9835 -4.1135 2.9827 C-3.9199 -0.1853 -3.2203 0.1342 0 0 Z " fill="#ABA69A" transform="translate(770,258.875)"/>
<path d="M0 0 C0.8044 -0.0013 1.6087 -0.0026 2.4375 -0.0039 C3.2831 -0 4.1287 0.0038 5 0.0078 C5.4228 0.0059 5.4228 0.0059 7.5625 -0.0039 C8.3669 -0.0026 9.1712 -0.0013 10 0 C10.7425 0.0011 11.485 0.0023 12.25 0.0034 C14 0.1328 14 0.1328 15 1.1328 C15.0409 3.4658 15.0424 5.7999 15 8.1328 C11.8542 8.1617 8.7084 8.1796 5.5625 8.1953 C5.1136 8.1995 5.1136 8.1995 2.8418 8.2207 C2.4148 8.2223 2.4148 8.2223 0.2539 8.2305 C-0.5369 8.2357 -1.3276 8.2409 -2.1423 8.2463 C-4 8.1328 -4 8.1328 -5 7.1328 C-5.125 4.1328 -5.125 4.1328 -5 1.1328 C-3.4779 -0.3893 -2.1179 0.0032 0 0 Z " fill="#A09A8C" transform="translate(996,359.8671875)"/>
<path d="M0 0 C0.8044 -0.0013 1.6087 -0.0026 2.4375 -0.0039 C3.2831 -0 4.1287 0.0038 5 0.0078 C5.4228 0.0059 5.4228 0.0059 7.5625 -0.0039 C8.3669 -0.0026 9.1712 -0.0013 10 0 C10.7425 0.0011 11.485 0.0023 12.25 0.0034 C14 0.1328 14 0.1328 15 1.1328 C15.0409 3.4658 15.0424 5.7999 15 8.1328 C11.8542 8.1617 8.7084 8.1796 5.5625 8.1953 C5.1136 8.1995 5.1136 8.1995 2.8418 8.2207 C2.4148 8.2223 2.4148 8.2223 0.2539 8.2305 C-0.5369 8.2357 -1.3276 8.2409 -2.1423 8.2463 C-4 8.1328 -4 8.1328 -5 7.1328 C-5.125 4.1328 -5.125 4.1328 -5 1.1328 C-3.4779 -0.3893 -2.1179 0.0032 0 0 Z " fill="#A09A8D" transform="translate(926,359.8671875)"/>
<path d="M0 0 C0.8044 -0.0013 1.6087 -0.0026 2.4375 -0.0039 C3.2831 -0 4.1287 0.0038 5 0.0078 C5.4228 0.0059 5.4228 0.0059 7.5625 -0.0039 C8.3669 -0.0026 9.1712 -0.0013 10 0 C10.7425 0.0011 11.485 0.0023 12.25 0.0034 C14 0.1328 14 0.1328 15 1.1328 C15.0409 3.4658 15.0424 5.7999 15 8.1328 C11.8542 8.1617 8.7084 8.1796 5.5625 8.1953 C5.1136 8.1995 5.1136 8.1995 2.8418 8.2207 C2.4148 8.2223 2.4148 8.2223 0.2539 8.2305 C-0.5369 8.2357 -1.3276 8.2409 -2.1423 8.2463 C-4 8.1328 -4 8.1328 -5 7.1328 C-5.125 4.1328 -5.125 4.1328 -5 1.1328 C-3.4779 -0.3893 -2.1179 0.0032 0 0 Z " fill="#A09A8D" transform="translate(612,359.8671875)"/>
<path d="M0 0 C0.8044 -0.0013 1.6087 -0.0026 2.4375 -0.0039 C3.2831 -0 4.1287 0.0038 5 0.0078 C5.4228 0.0059 5.4228 0.0059 7.5625 -0.0039 C8.3669 -0.0026 9.1712 -0.0013 10 0 C10.7425 0.0011 11.485 0.0023 12.25 0.0034 C14 0.1328 14 0.1328 15 1.1328 C15.0409 3.4658 15.0424 5.7999 15 8.1328 C11.8542 8.1617 8.7084 8.1796 5.5625 8.1953 C5.1136 8.1995 5.1136 8.1995 2.8418 8.2207 C2.4148 8.2223 2.4148 8.2223 0.2539 8.2305 C-0.5369 8.2357 -1.3276 8.2409 -2.1423 8.2463 C-4 8.1328 -4 8.1328 -5 7.1328 C-5.125 4.1328 -5.125 4.1328 -5 1.1328 C-3.4779 -0.3893 -2.1179 0.0032 0 0 Z " fill="#A09A8C" transform="translate(542,359.8671875)"/>
<path d="M0 0 C0.8044 -0.0013 1.6087 -0.0026 2.4375 -0.0039 C3.2831 -0 4.1288 0.0038 5 0.0078 C5.4228 0.0059 5.4228 0.0059 7.5625 -0.0039 C8.3669 -0.0026 9.1712 -0.0013 10 0 C10.7425 0.0011 11.485 0.0023 12.25 0.0034 C14 0.1328 14 0.1328 15 1.1328 C15.0409 3.4658 15.0424 5.7999 15 8.1328 C11.8542 8.1617 8.7084 8.1796 5.5625 8.1953 C5.1136 8.1995 5.1136 8.1995 2.8418 8.2207 C2.4148 8.2223 2.4148 8.2223 0.2539 8.2305 C-0.5369 8.2357 -1.3276 8.2409 -2.1423 8.2463 C-4 8.1328 -4 8.1328 -5 7.1328 C-5.125 4.1328 -5.125 4.1328 -5 1.1328 C-3.4779 -0.3893 -2.1179 0.0032 0 0 Z " fill="#ABA599" transform="translate(472,359.8671875)"/>
<path d="M0 0 C4.5556 0.5556 4.5556 0.5556 6 2 C6.0863 3.3427 6.1071 4.6897 6.0977 6.0352 C6.0944 6.844 6.0912 7.6529 6.0879 8.4863 C6.0795 9.3365 6.0711 10.1866 6.0625 11.0625 C6.058 11.9165 6.0535 12.7705 6.0488 13.6504 C6.037 15.767 6.0191 17.8835 6 20 C3.36 20 0.72 20 -2 20 C-2.0538 17.0414 -2.0936 14.0838 -2.125 11.125 C-2.1418 10.2832 -2.1585 9.4415 -2.1758 8.5742 C-2.1822 7.7686 -2.1887 6.9629 -2.1953 6.1328 C-2.2058 5.3892 -2.2163 4.6456 -2.2271 3.8794 C-2 2 -2 2 0 0 Z " fill="#AAA498" transform="translate(1222,224)"/>
<path d="M0 0 C4.5556 0.5556 4.5556 0.5556 6 2 C6.0863 3.3427 6.1071 4.6897 6.0977 6.0352 C6.0944 6.844 6.0912 7.6529 6.0879 8.4863 C6.0795 9.3365 6.0711 10.1866 6.0625 11.0625 C6.058 11.9165 6.0535 12.7705 6.0488 13.6504 C6.037 15.767 6.0191 17.8835 6 20 C3.36 20 0.72 20 -2 20 C-2.0538 17.0414 -2.0936 14.0838 -2.125 11.125 C-2.1418 10.2832 -2.1585 9.4415 -2.1758 8.5742 C-2.1822 7.7686 -2.1887 6.9629 -2.1953 6.1328 C-2.2058 5.3892 -2.2163 4.6456 -2.2271 3.8794 C-2 2 -2 2 0 0 Z " fill="#AAA498" transform="translate(768,224)"/>
<path d="M0 0 C2.31 0 4.62 0 7 0 C8 1 8 1 8.1135 2.7659 C8.1083 3.5147 8.1031 4.2636 8.0977 5.0352 C8.0944 5.844 8.0912 6.6529 8.0879 7.4863 C8.0795 8.3365 8.0711 9.1866 8.0625 10.0625 C8.058 10.9165 8.0535 11.7705 8.0488 12.6504 C8.037 14.767 8.0191 16.8835 8 19 C5.36 19 2.72 19 0 19 C0 12.73 0 6.46 0 0 Z " fill="#A19B8E" transform="translate(1220,259)"/>
<path d="M0 0 C2.64 0 5.28 0 8 0 C8.0606 0.7361 8.1212 1.4721 8.1836 2.2305 C8.2674 3.2063 8.3512 4.1821 8.4375 5.1875 C8.5187 6.1504 8.5999 7.1134 8.6836 8.1055 C9 11 9 11 9.5977 13.6758 C10 16 10 16 9 19 C5.198 18.4569 3.4987 16.8433 1 14 C-0.3823 11.2355 -0.0953 8.9539 -0.0625 5.875 C-0.0535 4.7793 -0.0445 3.6836 -0.0352 2.5547 C-0.0236 1.7116 -0.012 0.8686 0 0 Z " fill="#AAA498" transform="translate(826,346)"/>
<path d="M0 0 C6.6 0 13.2 0 20 0 C20 2.31 20 4.62 20 7 C13.4 7 6.8 7 0 7 C0 4.69 0 2.38 0 0 Z " fill="#A8A396" transform="translate(945,216)"/>
<path d="M0 0 C6.27 0 12.54 0 19 0 C19 2.31 19 4.62 19 7 C12.73 7 6.46 7 0 7 C0 4.69 0 2.38 0 0 Z " fill="#A6A094" transform="translate(1131,361)"/>
<path d="M0 0 C6.27 0 12.54 0 19 0 C19 2.31 19 4.62 19 7 C12.73 7 6.46 7 0 7 C0 4.69 0 2.38 0 0 Z " fill="#A7A194" transform="translate(1190,216)"/>
<path d="M0 0 C6.27 0 12.54 0 19 0 C19 2.31 19 4.62 19 7 C12.73 7 6.46 7 0 7 C0 4.69 0 2.38 0 0 Z " fill="#A7A194" transform="translate(1120,216)"/>
<path d="M0 0 C6.27 0 12.54 0 19 0 C19 2.31 19 4.62 19 7 C12.73 7 6.46 7 0 7 C0 4.69 0 2.38 0 0 Z " fill="#A6A093" transform="translate(1085,216)"/>
<path d="M0 0 C6.27 0 12.54 0 19 0 C19 2.31 19 4.62 19 7 C12.73 7 6.46 7 0 7 C0 4.69 0 2.38 0 0 Z " fill="#A6A194" transform="translate(1050,216)"/>
<path d="M0 0 C6.27 0 12.54 0 19 0 C19 2.31 19 4.62 19 7 C12.73 7 6.46 7 0 7 C0 4.69 0 2.38 0 0 Z " fill="#A6A194" transform="translate(1015,216)"/>
<path d="M0 0 C6.27 0 12.54 0 19 0 C19 2.31 19 4.62 19 7 C12.73 7 6.46 7 0 7 C0 4.69 0 2.38 0 0 Z " fill="#A7A194" transform="translate(666,216)"/>
<path d="M0 0 C6.27 0 12.54 0 19 0 C19 2.31 19 4.62 19 7 C12.73 7 6.46 7 0 7 C0 4.69 0 2.38 0 0 Z " fill="#A6A093" transform="translate(631,216)"/>
<path d="M0 0 C6.27 0 12.54 0 19 0 C19 2.31 19 4.62 19 7 C12.73 7 6.46 7 0 7 C0 4.69 0 2.38 0 0 Z " fill="#A6A194" transform="translate(596,216)"/>
<path d="M0 0 C6.27 0 12.54 0 19 0 C19 2.31 19 4.62 19 7 C12.73 7 6.46 7 0 7 C0 4.69 0 2.38 0 0 Z " fill="#A6A094" transform="translate(561,216)"/>
<path d="M0 0 C6.27 0 12.54 0 19 0 C19 2.31 19 4.62 19 7 C12.73 7 6.46 7 0 7 C0 4.69 0 2.38 0 0 Z " fill="#A6A194" transform="translate(491,216)"/>
<path d="M0 0 C6.27 0 12.54 0 19 0 C19 2.31 19 4.62 19 7 C12.73 7 6.46 7 0 7 C0 4.69 0 2.38 0 0 Z " fill="#A7A194" transform="translate(421,216)"/>
<path d="M0 0 C6.27 0 12.54 0 19 0 C19 2.31 19 4.62 19 7 C12.73 7 6.46 7 0 7 C0 4.69 0 2.38 0 0 Z " fill="#A6A094" transform="translate(980,216)"/>
<path d="M0 0 C6.27 0 12.54 0 19 0 C19 2.31 19 4.62 19 7 C12.73 7 6.46 7 0 7 C0 4.69 0 2.38 0 0 Z " fill="#A6A094" transform="translate(526,216)"/>
<path d="M0 0 C1.1602 0.0097 2.3203 0.0193 3.5156 0.0293 C4.7222 0.0544 5.9288 0.0796 7.1719 0.1055 C7.7829 0.1122 7.7829 0.1122 10.875 0.1465 C13.8911 0.1818 16.9062 0.2312 19.9219 0.293 C19.9219 2.933 19.9219 5.573 19.9219 8.293 C12.0019 8.293 4.0819 8.293 -4.0781 8.293 C-2.0781 6.293 -2.0781 6.293 0.0767 6.0659 C0.946 6.0764 1.8153 6.0869 2.7109 6.0977 C3.1814 6.1009 3.1814 6.1009 5.5625 6.1172 C6.5473 6.1339 7.5322 6.1507 8.5469 6.168 C9.5395 6.177 10.532 6.186 11.5547 6.1953 C14.0107 6.2189 16.4661 6.2519 18.9219 6.293 C18.9219 4.643 18.9219 2.993 18.9219 1.293 C15.2124 1.3451 11.5052 1.4402 7.7969 1.543 C6.7502 1.5571 5.7034 1.5713 4.625 1.5859 C-1.5903 1.7826 -5.2913 2.2438 -10.0781 6.293 C-10.4081 6.458 -10.4081 6.458 -12.0781 7.293 C-9.6101 1.3285 -6.2902 -0.0925 0 0 Z " fill="#BBB6AB" transform="translate(840.078125,215.70703125)"/>
<path d="M0 0 C1.1602 0.0097 2.3203 0.0193 3.5156 0.0293 C4.7222 0.0544 5.9287 0.0796 7.1719 0.1055 C7.7829 0.1122 7.7829 0.1122 10.875 0.1465 C13.8911 0.1818 16.9062 0.2312 19.9219 0.293 C19.9219 2.933 19.9219 5.573 19.9219 8.293 C12.0019 8.293 4.0819 8.293 -4.0781 8.293 C-2.0781 6.293 -2.0781 6.293 0.0767 6.0659 C0.946 6.0764 1.8153 6.0869 2.7109 6.0977 C3.1814 6.1009 3.1814 6.1009 5.5625 6.1172 C6.5473 6.1339 7.5322 6.1507 8.5469 6.168 C9.5395 6.177 10.532 6.186 11.5547 6.1953 C14.0107 6.2189 16.4661 6.2519 18.9219 6.293 C18.9219 4.643 18.9219 2.993 18.9219 1.293 C15.2124 1.3451 11.5052 1.4402 7.7969 1.543 C6.7502 1.5571 5.7034 1.5713 4.625 1.5859 C-1.5903 1.7826 -5.2913 2.2438 -10.0781 6.293 C-10.4081 6.458 -10.4081 6.458 -12.0781 7.293 C-9.6101 1.3285 -6.2902 -0.0925 0 0 Z " fill="#BBB6AB" transform="translate(386.078125,215.70703125)"/>
<path d="M0 0 C6.93 0 13.86 0 21 0 C21 2.64 21 5.28 21 8 C14.07 8 7.14 8 0 8 C0 5.36 0 2.72 0 0 Z M2 2 C2 3.65 2 5.3 2 7 C7.61 7 13.22 7 19 7 C19 5.35 19 3.7 19 2 C13.39 2 7.78 2 2 2 Z " fill="#BBB5AA" transform="translate(676,360)"/>
<path d="M0 0 C1.32 0.33 2.64 0.66 4 1 C2.625 2.5 2.625 2.5 1 4 C0.34 4 -0.32 4 -1 4 C-0.8924 12.0148 -0.7798 20.0295 -0.6607 28.0441 C-0.6055 31.7657 -0.5521 35.4873 -0.5027 39.209 C-0.4549 42.8011 -0.4026 46.3932 -0.3471 49.9852 C-0.3267 51.3551 -0.308 52.725 -0.2909 54.0949 C-0.2668 56.0148 -0.2362 57.9347 -0.2053 59.8545 C-0.1898 60.947 -0.1742 62.0396 -0.1582 63.1652 C-0.022 65.6067 0.2972 67.6689 1 70 C0.34 70 -0.32 70 -1 70 C-2.3875 67.2251 -2.1349 64.9588 -2.1453 61.8538 C-2.1516 60.5622 -2.158 59.2707 -2.1646 57.9401 C-2.1661 56.5239 -2.1672 55.1076 -2.168 53.6914 C-2.1712 52.2441 -2.1745 50.7969 -2.1781 49.3496 C-2.184 46.314 -2.1859 43.2785 -2.1853 40.2429 C-2.1852 36.3511 -2.1989 32.4594 -2.2161 28.5676 C-2.2272 25.5779 -2.2292 22.5883 -2.2287 19.5986 C-2.2299 18.1636 -2.2343 16.7287 -2.242 15.2938 C-2.2518 13.2878 -2.2477 11.2817 -2.2429 9.2756 C-2.2443 8.1336 -2.2458 6.9916 -2.2472 5.815 C-2 3 -2 3 0 0 Z " fill="#E0DBD0" transform="translate(378,112)"/>
<path d="M0 0 C6.6 0 13.2 0 20 0 C22.25 5.625 22.25 5.625 21 10 C17.6875 10.0289 14.3751 10.0468 11.0625 10.0625 C10.117 10.0709 9.1714 10.0793 8.1973 10.0879 C7.7477 10.0895 7.7477 10.0895 5.4727 10.0977 C4.64 10.1029 3.8073 10.1081 2.9495 10.1135 C1 10 1 10 0 9 C0 6.03 0 3.06 0 0 Z M1 1 C1 3.31 1 5.62 1 8 C7.27 8 13.54 8 20 8 C20 5.69 20 3.38 20 1 C13.73 1 7.46 1 1 1 Z " fill="#D7D3C9" transform="translate(420,215)"/>
<path d="M0 0 C6.6 0 13.2 0 20 0 C22.25 5.625 22.25 5.625 21 10 C17.6875 10.0289 14.3751 10.0468 11.0625 10.0625 C10.117 10.0709 9.1714 10.0793 8.1973 10.0879 C7.7477 10.0895 7.7477 10.0895 5.4727 10.0977 C4.64 10.1029 3.8073 10.1081 2.9495 10.1135 C1 10 1 10 0 9 C0 6.03 0 3.06 0 0 Z M1 1 C1 3.31 1 5.62 1 8 C7.27 8 13.54 8 20 8 C20 5.69 20 3.38 20 1 C13.73 1 7.46 1 1 1 Z " fill="#D7D3C9" transform="translate(1119,215)"/>
<path d="M0 0 C0.8327 0.0052 1.6653 0.0105 2.5232 0.0159 C3.4223 0.0191 4.3214 0.0223 5.2478 0.0256 C5.7206 0.0298 5.7206 0.0298 8.113 0.051 C9.0624 0.0555 10.0118 0.06 10.99 0.0647 C13.3436 0.0765 15.697 0.093 18.0505 0.1135 C18.2447 1.5918 18.4307 3.0712 18.613 4.551 C18.7175 5.3747 18.8219 6.1984 18.9294 7.0471 C18.9694 7.729 19.0094 8.4109 19.0505 9.1135 C17.4612 10.7029 15.8115 10.2433 13.613 10.2463 C13.1657 10.247 13.1657 10.247 10.9021 10.2502 C9.9611 10.2464 9.0201 10.2425 8.0505 10.2385 C7.58 10.2405 7.58 10.2405 5.199 10.2502 C4.3044 10.249 3.4098 10.2477 2.488 10.2463 C1.6617 10.2452 0.8355 10.2441 -0.0159 10.2429 C-1.9495 10.1135 -1.9495 10.1135 -2.9495 9.1135 C-3.0823 7.301 -3.0823 7.301 -3.0745 5.1135 C-3.0758 4.7526 -3.0758 4.7526 -3.0823 2.926 C-2.8949 0.3692 -2.5561 0.1489 0 0 Z M-1.9495 1.1135 C-1.9495 3.4235 -1.9495 5.7335 -1.9495 8.1135 C4.3205 8.1135 10.5905 8.1135 17.0505 8.1135 C17.0505 5.8035 17.0505 3.4935 17.0505 1.1135 C10.7805 1.1135 4.5105 1.1135 -1.9495 1.1135 Z " fill="#D7D3C9" transform="translate(981.949462890625,214.886474609375)"/>
<path d="M0 0 C6.6 0 13.2 0 20 0 C22.25 5.625 22.25 5.625 21 10 C17.6875 10.0289 14.3751 10.0468 11.0625 10.0625 C10.117 10.0709 9.1714 10.0793 8.1973 10.0879 C7.7477 10.0895 7.7477 10.0895 5.4727 10.0977 C4.64 10.1029 3.8073 10.1081 2.9495 10.1135 C1 10 1 10 0 9 C0 6.03 0 3.06 0 0 Z M1 1 C1 3.31 1 5.62 1 8 C7.27 8 13.54 8 20 8 C20 5.69 20 3.38 20 1 C13.73 1 7.46 1 1 1 Z " fill="#D7D3C9" transform="translate(665,215)"/>
<path d="M0 0 C6.6 0 13.2 0 20 0 C22.25 5.625 22.25 5.625 21 10 C17.6875 10.0289 14.3751 10.0468 11.0625 10.0625 C10.117 10.0709 9.1714 10.0793 8.1973 10.0879 C7.7477 10.0895 7.7477 10.0895 5.4727 10.0977 C4.64 10.1029 3.8073 10.1081 2.9495 10.1135 C1 10 1 10 0 9 C0 6.03 0 3.06 0 0 Z M1 1 C1 3.31 1 5.62 1 8 C7.27 8 13.54 8 20 8 C20 5.69 20 3.38 20 1 C13.73 1 7.46 1 1 1 Z " fill="#D7D3C9" transform="translate(595,215)"/>
<path d="M0 0 C0.8327 0.0052 1.6653 0.0105 2.5232 0.0159 C3.4223 0.0191 4.3214 0.0223 5.2478 0.0256 C5.7206 0.0298 5.7206 0.0298 8.113 0.051 C9.0624 0.0555 10.0118 0.06 10.99 0.0647 C13.3436 0.0765 15.697 0.093 18.0505 0.1135 C18.2447 1.5918 18.4307 3.0712 18.613 4.551 C18.7175 5.3747 18.8219 6.1984 18.9294 7.0471 C18.9694 7.729 19.0094 8.4109 19.0505 9.1135 C17.4612 10.7029 15.8115 10.2433 13.613 10.2463 C13.1657 10.247 13.1657 10.247 10.9021 10.2502 C9.9611 10.2464 9.0201 10.2425 8.0505 10.2385 C7.58 10.2405 7.58 10.2405 5.199 10.2502 C4.3044 10.249 3.4098 10.2477 2.488 10.2463 C1.6617 10.2452 0.8355 10.2441 -0.0159 10.2429 C-1.9495 10.1135 -1.9495 10.1135 -2.9495 9.1135 C-3.0823 7.301 -3.0823 7.301 -3.0745 5.1135 C-3.0758 4.7526 -3.0758 4.7526 -3.0823 2.926 C-2.8949 0.3692 -2.5561 0.1489 0 0 Z M-1.9495 1.1135 C-1.9495 3.4235 -1.9495 5.7335 -1.9495 8.1135 C4.3205 8.1135 10.5905 8.1135 17.0505 8.1135 C17.0505 5.8035 17.0505 3.4935 17.0505 1.1135 C10.7805 1.1135 4.5105 1.1135 -1.9495 1.1135 Z " fill="#D7D3C9" transform="translate(527.949462890625,214.886474609375)"/>
<path d="M0 0 C6.6 0 13.2 0 20 0 C22.25 5.625 22.25 5.625 21 10 C17.6875 10.0289 14.3751 10.0468 11.0625 10.0625 C10.117 10.0709 9.1714 10.0793 8.1973 10.0879 C7.7477 10.0895 7.7477 10.0895 5.4727 10.0977 C4.64 10.1029 3.8073 10.1081 2.9495 10.1135 C1 10 1 10 0 9 C0 6.03 0 3.06 0 0 Z M1 1 C1 3.31 1 5.62 1 8 C7.27 8 13.54 8 20 8 C20 5.69 20 3.38 20 1 C13.73 1 7.46 1 1 1 Z " fill="#D7D3C9" transform="translate(490,215)"/>
<path d="M0 0 C6.6 0 13.2 0 20 0 C21 2 21 2 21 8 C14.07 8 7.14 8 0 8 C0 5.36 0 2.72 0 0 Z M1 1 C1 2.65 1 4.3 1 6 C6.94 6 12.88 6 19 6 C19 4.35 19 2.7 19 1 C13.06 1 7.12 1 1 1 Z " fill="#BDB8AC" transform="translate(735,216)"/>
<path d="M0 0 C0.8044 -0.0013 1.6087 -0.0026 2.4375 -0.0039 C3.2831 -0 4.1287 0.0038 5 0.0078 C5.4228 0.0059 5.4228 0.0059 7.5625 -0.0039 C8.3669 -0.0026 9.1712 -0.0013 10 0 C10.7425 0.0011 11.485 0.0023 12.25 0.0034 C14 0.1328 14 0.1328 15 1.1328 C15.0409 3.4658 15.0424 5.7999 15 8.1328 C11.8542 8.1617 8.7084 8.1796 5.5625 8.1953 C5.1136 8.1995 5.1136 8.1995 2.8418 8.2207 C2.4148 8.2223 2.4148 8.2223 0.2539 8.2305 C-0.5369 8.2357 -1.3276 8.2409 -2.1423 8.2463 C-4 8.1328 -4 8.1328 -5 7.1328 C-5.125 4.1328 -5.125 4.1328 -5 1.1328 C-3.4779 -0.3893 -2.1179 0.0032 0 0 Z M-3 2.1328 C-3.33 3.7828 -3.66 5.4328 -4 7.1328 C1.61 7.1328 7.22 7.1328 13 7.1328 C13 5.4828 13 3.8328 13 2.1328 C7.72 2.1328 2.44 2.1328 -3 2.1328 Z " fill="#B7B2A6" transform="translate(996,359.8671875)"/>
<path d="M0 0 C0.8044 -0.0013 1.6087 -0.0026 2.4375 -0.0039 C3.2831 -0 4.1287 0.0038 5 0.0078 C5.4228 0.0059 5.4228 0.0059 7.5625 -0.0039 C8.3669 -0.0026 9.1712 -0.0013 10 0 C10.7425 0.0011 11.485 0.0023 12.25 0.0034 C14 0.1328 14 0.1328 15 1.1328 C15.0409 3.4658 15.0424 5.7999 15 8.1328 C11.8542 8.1617 8.7084 8.1796 5.5625 8.1953 C5.1136 8.1995 5.1136 8.1995 2.8418 8.2207 C2.4148 8.2223 2.4148 8.2223 0.2539 8.2305 C-0.5369 8.2357 -1.3276 8.2409 -2.1423 8.2463 C-4 8.1328 -4 8.1328 -5 7.1328 C-5.125 4.1328 -5.125 4.1328 -5 1.1328 C-3.4779 -0.3893 -2.1179 0.0032 0 0 Z M-3 2.1328 C-3.33 3.7828 -3.66 5.4328 -4 7.1328 C1.61 7.1328 7.22 7.1328 13 7.1328 C13 5.4828 13 3.8328 13 2.1328 C7.72 2.1328 2.44 2.1328 -3 2.1328 Z " fill="#B7B2A6" transform="translate(542,359.8671875)"/>
<path d="M0 0 C3.1458 -0.0289 6.2916 -0.0468 9.4375 -0.0625 C10.3353 -0.0709 11.2332 -0.0793 12.1582 -0.0879 C13.0122 -0.0911 13.8662 -0.0943 14.7461 -0.0977 C15.1415 -0.1003 15.1415 -0.1003 17.1423 -0.1135 C19 0 19 0 20 1 C20 3.31 20 5.62 20 8 C13.4 8 6.8 8 0 8 C0 5.36 0 2.72 0 0 Z M1 2 C1 3.65 1 5.3 1 7 C6.61 7 12.22 7 18 7 C18 5.35 18 3.7 18 2 C12.39 2 6.78 2 1 2 Z " fill="#B7B2A6" transform="translate(1166,360)"/>
<path d="M0 0 C0.3954 0.0026 0.3954 0.0026 2.3962 0.0159 C2.8232 0.0175 2.8232 0.0175 4.9841 0.0256 C5.882 0.034 6.7798 0.0424 7.7048 0.051 C8.6065 0.0555 9.5082 0.06 10.4373 0.0647 C12.6723 0.0765 14.9073 0.093 17.1423 0.1135 C17.1423 2.7535 17.1423 5.3935 17.1423 8.1135 C13.9965 8.1424 10.8507 8.1603 7.7048 8.176 C7.2559 8.1802 7.2559 8.1802 4.9841 8.2014 C4.5571 8.203 4.5571 8.203 2.3962 8.2112 C1.6055 8.2164 0.8147 8.2217 0 8.2271 C-1.8577 8.1135 -1.8577 8.1135 -2.8577 7.1135 C-2.9827 4.1135 -2.9827 4.1135 -2.8577 1.1135 C-1.8577 0.1135 -1.8577 0.1135 0 0 Z M-1.8577 2.1135 C-1.8577 3.7635 -1.8577 5.4135 -1.8577 7.1135 C3.7523 7.1135 9.3623 7.1135 15.1423 7.1135 C15.1423 5.4635 15.1423 3.8135 15.1423 2.1135 C9.5323 2.1135 3.9223 2.1135 -1.8577 2.1135 Z " fill="#B8B3A7" transform="translate(1063.857666015625,359.886474609375)"/>
<path d="M0 0 C6.6 0 13.2 0 20 0 C20 2.31 20 4.62 20 7 C19 8 19 8 17.0505 8.1135 C16.2179 8.1083 15.3852 8.1031 14.5273 8.0977 C13.6282 8.0944 12.7291 8.0912 11.8027 8.0879 C10.8572 8.0795 9.9117 8.0711 8.9375 8.0625 C7.9881 8.058 7.0387 8.0535 6.0605 8.0488 C3.707 8.037 1.3535 8.0205 -1 8 C-0.67 5.36 -0.34 2.72 0 0 Z M1 1 C1 2.65 1 4.3 1 6 C6.94 6 12.88 6 19 6 C19 4.35 19 2.7 19 1 C13.06 1 7.12 1 1 1 Z " fill="#BCB7AB" transform="translate(875,216)"/>
<path d="M0 0 C0.8044 -0.0013 1.6087 -0.0026 2.4375 -0.0039 C3.2831 -0 4.1287 0.0038 5 0.0078 C5.4228 0.0059 5.4228 0.0059 7.5625 -0.0039 C8.3669 -0.0026 9.1712 -0.0013 10 0 C10.7425 0.0011 11.485 0.0023 12.25 0.0034 C14 0.1328 14 0.1328 15 1.1328 C15.0409 3.4658 15.0424 5.7999 15 8.1328 C11.8542 8.1617 8.7084 8.1796 5.5625 8.1953 C5.1136 8.1995 5.1136 8.1995 2.8418 8.2207 C2.4148 8.2223 2.4148 8.2223 0.2539 8.2305 C-0.5369 8.2357 -1.3276 8.2409 -2.1423 8.2463 C-4 8.1328 -4 8.1328 -5 7.1328 C-5.125 4.1328 -5.125 4.1328 -5 1.1328 C-3.4779 -0.3893 -2.1179 0.0032 0 0 Z M-3 2.1328 C-3 3.7828 -3 5.4328 -3 7.1328 C2.61 7.1328 8.22 7.1328 14 7.1328 C14 5.4828 14 3.8328 14 2.1328 C8.39 2.1328 2.78 2.1328 -3 2.1328 Z " fill="#B8B2A7" transform="translate(926,359.8671875)"/>
<path d="M0 0 C0.8044 -0.0013 1.6087 -0.0026 2.4375 -0.0039 C3.2831 -0 4.1287 0.0038 5 0.0078 C5.4228 0.0059 5.4228 0.0059 7.5625 -0.0039 C8.3669 -0.0026 9.1712 -0.0013 10 0 C10.7425 0.0011 11.485 0.0023 12.25 0.0034 C14 0.1328 14 0.1328 15 1.1328 C15.0409 3.4658 15.0424 5.7999 15 8.1328 C11.8542 8.1617 8.7084 8.1796 5.5625 8.1953 C5.1136 8.1995 5.1136 8.1995 2.8418 8.2207 C2.4148 8.2223 2.4148 8.2223 0.2539 8.2305 C-0.5369 8.2357 -1.3276 8.2409 -2.1423 8.2463 C-4 8.1328 -4 8.1328 -5 7.1328 C-5.125 4.1328 -5.125 4.1328 -5 1.1328 C-3.4779 -0.3893 -2.1179 0.0032 0 0 Z M-4 2.1328 C-4 3.7828 -4 5.4328 -4 7.1328 C1.61 7.1328 7.22 7.1328 13 7.1328 C13 5.4828 13 3.8328 13 2.1328 C7.39 2.1328 1.78 2.1328 -4 2.1328 Z " fill="#B8B2A7" transform="translate(612,359.8671875)"/>
<path d="M0 0 C2.31 0 4.62 0 7 0 C8 1 8 1 8.1135 2.7659 C8.1083 3.5147 8.1031 4.2636 8.0977 5.0352 C8.0944 5.844 8.0912 6.6529 8.0879 7.4863 C8.0795 8.3365 8.0711 9.1866 8.0625 10.0625 C8.058 10.9165 8.0535 11.7705 8.0488 12.6504 C8.037 14.767 8.0191 16.8835 8 19 C5.36 19 2.72 19 0 19 C0 12.73 0 6.46 0 0 Z M2 2 C2 7.28 2 12.56 2 18 C3.65 18 5.3 18 7 18 C7 12.72 7 7.44 7 2 C5.35 2 3.7 2 2 2 Z " fill="#B4AFA3" transform="translate(1220,259)"/>
</svg>
