<?xml version="1.0" encoding="UTF-8"?>
<!-- Generator: visioncortex VTracer 0.6.12 -->
<svg version="1.1" xmlns="http://www.w3.org/2000/svg" width="1600" height="474">
<path d="M0 0 C528 0 1056 0 1600 0 C1600 156.42 1600 312.84 1600 474 C1072 474 544 474 0 474 C0 317.58 0 161.16 0 0 Z " fill="#FEFEFE" transform="translate(0,0)"/>
<path d="M0 0 C1.0593 -0.0083 2.1186 -0.0166 3.2101 -0.0251 C4.3752 -0.0189 5.5402 -0.0128 6.7406 -0.0064 C7.9824 -0.0117 9.2242 -0.0169 10.5036 -0.0223 C13.9679 -0.0339 17.4316 -0.032 20.8959 -0.0245 C24.6581 -0.0196 28.4202 -0.032 32.1824 -0.0422 C38.782 -0.0577 45.3814 -0.0619 51.981 -0.0589 C61.7947 -0.0543 71.6084 -0.0668 81.4221 -0.0825 C99.9672 -0.1115 118.5124 -0.1199 137.0576 -0.1217 C151.3762 -0.123 165.6948 -0.1292 180.0134 -0.1388 C184.1311 -0.1415 188.2489 -0.1441 192.3667 -0.1468 C193.3903 -0.1475 194.4139 -0.1481 195.4685 -0.1488 C224.271 -0.1673 253.0734 -0.1791 281.8758 -0.1778 C282.9623 -0.1777 284.0488 -0.1777 285.1682 -0.1776 C290.6752 -0.1774 296.1823 -0.1771 301.6893 -0.1768 C302.2362 -0.1767 302.2362 -0.1767 305.0038 -0.1766 C307.2156 -0.1765 309.4275 -0.1763 311.6394 -0.1762 C346.0589 -0.1744 380.4783 -0.1969 414.8978 -0.2379 C453.5448 -0.284 492.1917 -0.3098 530.8387 -0.307 C534.9574 -0.3068 539.0761 -0.3067 543.1949 -0.3066 C543.7019 -0.3066 543.7019 -0.3066 546.2681 -0.3065 C562.6093 -0.3064 578.9504 -0.3256 595.2915 -0.3514 C611.7067 -0.3768 628.1218 -0.3798 644.537 -0.36 C654.296 -0.3489 664.0546 -0.3545 673.8136 -0.3839 C680.3274 -0.4018 686.841 -0.3981 693.3549 -0.3765 C697.0696 -0.3648 700.7838 -0.3626 704.4985 -0.3868 C708.4967 -0.4126 712.4933 -0.3923 716.4915 -0.3672 C717.0705 -0.3746 717.0705 -0.3746 720.0008 -0.4123 C726.2859 -0.3284 730.0288 0.323 734.6211 4.764 C736.6682 7.5578 736.6779 9.9926 736.6642 13.3873 C736.6642 14.7034 736.6642 16.0196 736.6642 17.3756 C736.6549 17.7145 736.6549 17.7145 736.6076 19.4298 C736.5547 21.5078 736.5664 23.5784 736.5861 25.6568 C736.4693 35.5739 736.4693 35.5739 734.0205 38.5428 C729.0529 41.3802 724.3015 40.9265 718.6751 40.8801 C718.0499 40.8828 718.0499 40.8828 714.8855 40.8968 C711.4012 40.9116 707.9174 40.9013 704.4332 40.8872 C700.6476 40.8761 696.862 40.8883 693.0764 40.8975 C686.4374 40.9104 679.7986 40.9084 673.1596 40.8967 C663.2874 40.8793 653.4153 40.8848 643.5432 40.8949 C625.914 40.9121 608.285 40.9065 590.6558 40.8915 C575.2292 40.8785 559.8025 40.8733 544.3759 40.8758 C543.3537 40.876 542.3315 40.8761 541.2783 40.8763 C537.1292 40.877 532.98 40.8777 528.8309 40.8784 C489.8881 40.8855 450.9454 40.87 412.0026 40.8438 C377.3816 40.8207 342.7606 40.8153 308.1395 40.8255 C299.2744 40.8281 290.4092 40.8307 281.544 40.8331 C280.9984 40.8333 280.9984 40.8333 278.2371 40.834 C249.3328 40.8417 220.4285 40.8353 191.5242 40.8244 C188.4152 40.8233 185.3063 40.8222 182.1973 40.821 C180.1348 40.8203 178.0723 40.8195 176.0098 40.8187 C160.5897 40.8131 145.1696 40.8144 129.7495 40.819 C112.2223 40.8241 94.6952 40.8182 77.168 40.7981 C67.3507 40.787 57.5335 40.7843 47.7162 40.7933 C41.1673 40.7985 34.6186 40.7929 28.0697 40.7783 C24.3326 40.7702 20.5957 40.767 16.8586 40.7769 C12.8418 40.7873 8.8255 40.7748 4.8087 40.7598 C3.6366 40.7666 2.4645 40.7733 1.2569 40.7802 C0.7242 40.7763 0.7242 40.7763 -1.9721 40.7567 C-2.8912 40.7563 -3.8104 40.7558 -4.7574 40.7554 C-7.6739 40.3057 -9.0464 39.3675 -11.1952 37.3795 C-13.2059 32.3826 -12.4211 26.2354 -12.4452 20.942 C-12.4658 19.8096 -12.4864 18.6771 -12.5077 17.5104 C-12.5128 16.4166 -12.518 15.3228 -12.5233 14.1959 C-12.528 13.698 -12.528 13.698 -12.5516 11.1786 C-12.0287 7.0724 -10.4575 4.5273 -7.4118 1.758 C-4.7213 0.0848 -3.1525 0.003 0 0 Z " fill="#3F3A33" transform="translate(178.19516879320145,113.62050050497055)"/>
<path d="M0 0 C1.32 0 2.64 0 4 0 C4 4.62 4 9.24 4 14 C5.1114 13.9982 5.1114 13.9982 10.7355 13.9888 C63.4565 13.902 116.1775 13.8363 168.8985 13.7957 C175.3825 13.7907 181.8666 13.7856 188.3506 13.7803 C189.6415 13.7792 190.9324 13.7782 192.2624 13.7771 C213.1854 13.7597 234.1084 13.7281 255.0313 13.6914 C276.488 13.654 297.9447 13.6318 319.4014 13.6236 C332.6495 13.6181 345.8975 13.6008 359.1456 13.5683 C368.2208 13.5472 377.296 13.5408 386.3713 13.546 C391.6133 13.5486 396.8551 13.5445 402.097 13.5232 C406.8912 13.5038 411.6849 13.5027 416.4791 13.5164 C418.2181 13.5181 419.9571 13.513 421.696 13.5005 C424.0515 13.4845 426.4056 13.493 428.7611 13.5078 C429.4165 13.507 429.4165 13.507 432.7332 13.5032 C436.5259 14.08 437.7455 14.9491 440 18 C440 18.66 440 19.32 440 20 C440.66 20 441.32 20 442 20 C442.1737 24.038 442.3003 28.0746 442.3845 32.1155 C442.4196 33.4883 442.4673 34.8608 442.5281 36.2327 C442.6134 38.2099 442.6491 40.1892 442.6836 42.168 C442.7019 42.7623 442.7019 42.7623 442.7947 45.7703 C441.8577 49.5783 440.3997 50.8081 437.1921 52.9587 C433.0173 54.9418 428.7482 54.6808 424.2044 54.6264 C423.6633 54.6299 423.6633 54.6299 420.9254 54.6475 C417.2862 54.6648 413.648 54.6464 410.0089 54.6282 C407.3789 54.6332 404.7489 54.6403 402.119 54.6497 C396.3941 54.6662 390.6695 54.6641 384.9447 54.6499 C376.4319 54.6287 367.9193 54.6361 359.4065 54.6492 C344.2038 54.6717 329.0013 54.6657 313.7987 54.6478 C300.496 54.6322 287.1933 54.6264 273.8906 54.6301 C273.0087 54.6304 272.1268 54.6306 271.2182 54.6309 C267.6385 54.6318 264.0587 54.6329 260.479 54.6339 C226.8904 54.644 193.3019 54.6258 159.7133 54.5942 C129.8583 54.5664 100.0034 54.5614 70.1484 54.5764 C62.5028 54.5802 54.8571 54.584 47.2114 54.5876 C46.7408 54.5878 46.7408 54.5878 44.3593 54.5889 C19.4261 54.6001 -5.5071 54.5928 -30.4403 54.5797 C-33.1223 54.5783 -35.8043 54.5769 -38.4863 54.5756 C-40.2655 54.5747 -42.0448 54.5737 -43.824 54.5728 C-57.1212 54.566 -70.4183 54.5687 -83.7155 54.5757 C-98.8301 54.5837 -113.9446 54.5772 -129.0592 54.5516 C-137.5233 54.5376 -145.9872 54.5347 -154.4512 54.5475 C-160.7605 54.5558 -167.0696 54.5433 -173.3788 54.5225 C-175.9393 54.5173 -178.4997 54.519 -181.0601 54.5279 C-184.5258 54.539 -187.9905 54.5258 -191.456 54.5062 C-192.4629 54.5152 -193.4697 54.5243 -194.5071 54.5337 C-198.8764 54.485 -201.3215 54.4173 -205.1091 52.0878 C-209.4754 47.2668 -208.2576 40.2863 -208.3125 34.125 C-208.3415 33.0486 -208.3705 31.9723 -208.4004 30.8633 C-208.4506 24.5951 -208.3103 20.7064 -204 16 C-200.2515 13.501 -197.3466 13.7268 -193.0085 13.7595 C-192.1851 13.7578 -191.3618 13.7561 -190.5135 13.7543 C-187.745 13.751 -184.9767 13.762 -182.2083 13.7729 C-180.2275 13.7735 -178.2468 13.7732 -176.2661 13.7721 C-170.8801 13.7715 -165.4941 13.7833 -160.1081 13.7972 C-154.4826 13.8097 -148.8572 13.8109 -143.2317 13.8133 C-132.5752 13.8195 -121.9186 13.8359 -111.262 13.856 C-99.1316 13.8783 -87.0012 13.8893 -74.8707 13.8994 C-49.9138 13.9203 -24.9569 13.9555 0 14 C0 9.38 0 4.76 0 0 Z " fill="#A39D90" transform="translate(508,340)"/>
<path d="M0 0 C1.0271 -0.0038 2.0543 -0.0075 3.1126 -0.0114 C6.5647 -0.0204 10.0165 -0.0079 13.4686 0.0044 C15.9644 0.0024 18.4603 -0.0009 20.9561 -0.0055 C26.3879 -0.0123 31.8196 -0.0098 37.2514 0.0009 C45.3287 0.0167 53.4059 0.0154 61.4831 0.0106 C75.0727 0.003 88.6621 0.0095 102.2516 0.0242 C115.7128 0.0387 129.174 0.0475 142.6352 0.0484 C143.4723 0.0484 144.3094 0.0485 145.1719 0.0486 C148.5699 0.0488 151.9679 0.049 155.3658 0.0491 C186.3389 0.0503 217.312 0.066 248.285 0.0907 C277.5266 0.114 306.7681 0.1282 336.0096 0.1317 C336.46 0.1318 336.46 0.1318 338.7391 0.132 C342.3704 0.1325 346.0018 0.1329 349.6331 0.1334 C351.4427 0.1336 353.2524 0.1338 355.0621 0.134 C356.8673 0.1343 358.6725 0.1345 360.4777 0.1347 C389.223 0.1382 417.9684 0.1497 446.7138 0.1625 C455.1308 0.1662 463.5478 0.1695 471.9648 0.1717 C489.6678 0.1766 507.3708 0.1836 525.0738 0.1999 C532.3962 0.2065 539.7186 0.2117 547.0409 0.2124 C553.7402 0.213 560.4395 0.2185 567.1388 0.2277 C569.566 0.2302 571.9933 0.231 574.4205 0.23 C577.7134 0.2289 581.0063 0.2339 584.2992 0.2405 C584.773 0.2396 584.773 0.2396 587.1707 0.2351 C592.4421 0.2531 597.4956 0.6059 602.7125 1.3719 C602.7125 2.0319 602.7125 2.6919 602.7125 3.3719 C603.3725 3.3719 604.0325 3.3719 604.7125 3.3719 C605.9825 9.3576 606.0069 15.3421 606.0875 21.4344 C606.1249 22.5102 606.1623 23.5859 606.2008 24.6942 C606.287 32.4233 606.287 32.4233 604.608 35.1957 C603.2516 36.5555 603.2516 36.5555 600.7125 38.3719 C600.3825 38.7019 600.0525 39.0319 599.7125 39.3719 C598.3653 39.4702 597.0131 39.4994 595.6623 39.5007 C594.7824 39.504 593.9025 39.5073 592.9959 39.5107 C592.5061 39.5099 592.5061 39.5099 590.0272 39.5062 C588.9923 39.5085 587.9573 39.5109 586.891 39.5133 C583.3764 39.52 579.8619 39.5195 576.3473 39.5191 C573.8208 39.5224 571.2943 39.5261 568.7678 39.5302 C562.5223 39.5392 556.2769 39.5435 550.0314 39.5458 C542.5553 39.5487 535.0793 39.5574 527.6032 39.5662 C509.5308 39.5871 491.4584 39.5975 473.386 39.6063 C464.8417 39.6105 456.2974 39.6157 447.7531 39.621 C418.5227 39.6389 389.2922 39.6539 360.0618 39.6613 C358.2258 39.6618 356.3899 39.6623 354.5539 39.6627 C354.0987 39.6629 354.0987 39.6629 351.7948 39.6635 C347.1815 39.6647 342.5682 39.6659 337.9549 39.6671 C337.0394 39.6673 336.1239 39.6676 335.1806 39.6678 C305.4836 39.6757 275.7867 39.6992 246.0897 39.7317 C214.7149 39.7659 183.3402 39.7857 151.9654 39.789 C148.5238 39.7894 145.0822 39.7899 141.6406 39.7904 C140.7932 39.7905 139.9457 39.7906 139.0726 39.7908 C125.4114 39.7931 111.7502 39.8088 98.089 39.8292 C84.3676 39.8494 70.6463 39.855 56.9249 39.8455 C48.7651 39.8402 40.6054 39.8462 32.4456 39.868 C26.3643 39.883 20.2832 39.8773 14.2019 39.8633 C11.7328 39.8609 9.2637 39.8654 6.7947 39.8771 C3.4546 39.8921 0.1154 39.8827 -3.2247 39.8669 C-3.711 39.872 -3.711 39.872 -6.1721 39.8979 C-12.6704 39.8302 -12.6704 39.8302 -15.8539 37.466 C-18.3165 33.8688 -18.4158 31.7326 -18.4203 27.3758 C-18.4216 26.1777 -18.4229 24.9795 -18.4242 23.745 C-18.4223 23.1162 -18.4223 23.1162 -18.4125 19.9344 C-18.4164 18.6808 -18.4202 17.4272 -18.4242 16.1356 C-18.4229 14.9361 -18.4216 13.7367 -18.4203 12.5008 C-18.4192 11.3981 -18.4181 10.2954 -18.4169 9.1593 C-18.2875 6.3719 -18.2875 6.3719 -17.2875 3.3719 C-11.5515 0.1022 -6.4977 -0.052 0 0 Z " fill="#A39D90" transform="translate(319.2874975204468,194.6280632019043)"/>
<path d="M0 0 C0.8662 -0.0093 1.7324 -0.0186 2.6248 -0.0281 C5.5362 -0.0507 8.445 -0.0233 11.3563 0.0038 C13.4609 -0.0021 15.5655 -0.0111 17.67 -0.0229 C23.46 -0.0463 29.2491 -0.026 35.039 0.0014 C41.2804 0.0234 47.5217 0.0051 53.7631 -0.0082 C65.2855 -0.0267 76.8076 -0.0135 88.3299 0.0155 C98.974 0.042 109.618 0.0543 120.2621 0.0526 C120.6149 0.0526 120.6149 0.0526 122.4007 0.0523 C125.2655 0.0519 128.1303 0.0514 130.9951 0.0507 C157.8751 0.045 184.7549 0.0776 211.6349 0.1291 C235.5216 0.1747 259.4083 0.193 283.2951 0.1862 C284.8288 0.1858 286.3625 0.1854 287.8963 0.1849 C288.2754 0.1848 288.2754 0.1848 290.194 0.1843 C294.0108 0.1833 297.8276 0.1822 301.6445 0.1813 C302.021 0.1812 302.021 0.1812 303.9262 0.1807 C323.8796 0.176 343.8329 0.1905 363.7863 0.2115 C364.496 0.2122 365.2057 0.2129 365.9369 0.2137 C366.6454 0.2144 367.3538 0.2152 368.0837 0.2159 C368.7908 0.2167 369.4979 0.2174 370.2265 0.2182 C371.6506 0.2197 373.0747 0.2212 374.4989 0.2227 C384.4317 0.2333 394.3645 0.2369 404.2973 0.2358 C417.097 0.2346 429.8966 0.2471 442.6963 0.2819 C448.8701 0.2984 455.0438 0.3085 461.2177 0.3015 C466.8654 0.2952 472.5127 0.3074 478.1604 0.3344 C480.2074 0.341 482.2544 0.3408 484.3014 0.3332 C487.0771 0.324 489.8516 0.3393 492.6272 0.3608 C493.0276 0.3565 493.0276 0.3565 495.0537 0.335 C500.246 0.4103 503.1727 1.4743 507.3136 4.8725 C509.5809 8.0226 509.5597 10.8088 509.5441 14.6264 C509.5421 15.7279 509.5402 16.8294 509.5382 17.9643 C509.526 19.1096 509.5137 20.255 509.5011 21.435 C509.5005 22.5842 509.4998 23.7334 509.4992 24.9174 C509.4445 35.2809 509.4445 35.2809 506.7817 39.0284 C503.2785 41.6459 500.0271 41.4257 495.8237 41.3787 C494.9544 41.3848 494.0852 41.3909 493.1896 41.3972 C490.2564 41.4129 487.324 41.3999 484.3908 41.3872 C482.2749 41.3925 480.1589 41.3996 478.043 41.4082 C472.2126 41.4269 466.3825 41.4205 460.5521 41.4101 C454.2705 41.4031 447.9889 41.4191 441.7073 41.4321 C430.1072 41.4525 418.5073 41.4545 406.9073 41.4468 C396.1913 41.4398 385.4754 41.4397 374.7594 41.4467 C373.3233 41.4476 371.8872 41.4485 370.451 41.4494 C368.287 41.4508 366.123 41.4522 363.959 41.4536 C343.8338 41.4666 323.7087 41.4717 303.5835 41.4601 C302.8244 41.4597 302.0654 41.4592 301.2834 41.4588 C295.1192 41.4552 288.9551 41.4513 282.7909 41.4475 C258.7433 41.4326 234.6959 41.4414 210.6483 41.4694 C183.644 41.5008 156.6397 41.5158 129.6353 41.5056 C126.7574 41.5046 123.8795 41.5036 121.0016 41.5026 C120.6473 41.5025 120.6473 41.5025 118.8542 41.5019 C108.1446 41.4985 97.4351 41.5078 86.7255 41.5234 C74.5496 41.5412 62.3739 41.5409 50.198 41.5181 C43.9817 41.5069 37.7657 41.5038 31.5494 41.5224 C25.864 41.5391 20.1791 41.5329 14.4937 41.5082 C12.4319 41.5032 10.37 41.5069 8.3081 41.5196 C5.5146 41.5357 2.7228 41.5213 -0.0706 41.4989 C-0.8794 41.5109 -1.6881 41.5229 -2.5214 41.5353 C-6.6534 41.4673 -8.4392 41.0782 -11.6624 38.3959 C-12.3303 37.5632 -12.9982 36.7304 -13.6864 35.8725 C-14.0164 35.5425 -14.3464 35.2125 -14.6864 34.8725 C-15.0537 30.5064 -15.0583 26.1269 -15.1239 21.7475 C-15.1696 20.5229 -15.2154 19.2983 -15.2626 18.0366 C-15.27 17.441 -15.27 17.441 -15.3075 14.4272 C-15.3325 13.3391 -15.3576 12.2509 -15.3834 11.1298 C-13.5669 2.6409 -8.125 -0.175 0 0 Z " fill="#A49E91" transform="translate(450.68638610839844,273.12749195098877)"/>
<path d="M0 0 C0.5291 -0.0025 0.5291 -0.0025 3.2064 -0.0152 C4.3752 -0.0105 5.5441 -0.0058 6.7483 -0.001 C7.9902 -0.0039 9.232 -0.0068 10.5115 -0.0098 C13.9804 -0.0159 17.4491 -0.0129 20.918 -0.0062 C24.6836 -0.0012 28.4491 -0.0077 32.2146 -0.0127 C38.8215 -0.02 45.4284 -0.0197 52.0352 -0.0146 C61.8596 -0.0071 71.684 -0.0109 81.5084 -0.017 C99.0516 -0.0276 116.5947 -0.0267 134.1379 -0.0209 C149.4899 -0.0159 164.8418 -0.0145 180.1938 -0.0169 C180.7023 -0.017 180.7023 -0.017 183.2755 -0.0174 C187.4032 -0.018 191.5309 -0.0187 195.6586 -0.0193 C234.4076 -0.0254 273.1567 -0.0199 311.9057 -0.0091 C346.3586 0.0004 380.8114 -0.0005 415.2643 -0.01 C453.9408 -0.0207 492.6174 -0.025 531.294 -0.0188 C535.4143 -0.0182 539.5347 -0.0176 543.655 -0.0169 C544.6696 -0.0168 545.6842 -0.0166 546.7295 -0.0165 C562.0747 -0.0142 577.4199 -0.0168 592.7651 -0.0219 C610.2071 -0.0276 627.6491 -0.0262 645.0911 -0.0153 C654.8619 -0.0094 664.6327 -0.0091 674.4035 -0.0166 C680.9201 -0.0211 687.4368 -0.0184 693.9535 -0.0096 C697.673 -0.0048 701.3924 -0.0033 705.112 -0.0104 C709.1082 -0.018 713.1043 -0.0103 717.1005 -0.001 C718.2694 -0.0057 719.4382 -0.0103 720.6425 -0.0152 C721.7006 -0.0102 722.7587 -0.0052 723.8489 0 C724.3062 0.0001 724.3062 0.0001 726.6209 0.0004 C728.9244 0.2507 728.9244 0.2507 731.9244 2.2507 C731.9244 3.2407 731.9244 4.2307 731.9244 5.2507 C488.0544 5.2507 244.1844 5.2507 -7.0756 5.2507 C-7.0756 5.9107 -7.0756 6.5707 -7.0756 7.2507 C-7.7356 7.2507 -8.3956 7.2507 -9.0756 7.2507 C-8.7631 4.8757 -8.7631 4.8757 -8.0756 2.2507 C-4.7807 0.0541 -3.8237 0.0006 0 0 Z " fill="#5E5A54" transform="translate(178.0755729675293,113.74930167198181)"/>
<path d="M0 0 C242.55 0 485.1 0 735 0 C734.67 0.66 734.34 1.32 734 2 C515.21 2 296.42 2 71 2 C71 5.3 71 8.6 71 12 C67 13 67 13 65 12 C65 8.7 65 5.4 65 2 C43.88 2 22.76 2 1 2 C0.67 1.34 0.34 0.68 0 0 Z " fill="#BCBAB7" transform="translate(173,154)"/>
<path d="M0 0 C1.6754 0.286 3.3439 0.6178 5 1 C5.0269 3.1458 5.0463 5.2916 5.0625 7.4375 C5.0741 8.6325 5.0857 9.8274 5.0977 11.0586 C5 14 5 14 4 15 C182.2 15.33 360.4 15.66 544 16 C544 16.66 544 17.32 544 18 C544.66 18.33 545.32 18.66 546 19 C544.709 18.9992 543.4181 18.9985 542.088 18.9977 C485.2117 18.9644 428.3354 18.9335 371.4592 18.9153 C370.5985 18.915 369.7378 18.9148 368.8511 18.9145 C350.148 18.9085 331.445 18.903 312.742 18.8979 C303.5704 18.8954 294.3988 18.8928 285.2273 18.8901 C284.3146 18.8899 283.4019 18.8896 282.4616 18.8893 C252.8619 18.8808 223.2622 18.8658 193.6626 18.8474 C163.253 18.8286 132.8434 18.8162 102.4338 18.8122 C98.1417 18.8116 93.8497 18.8109 89.5576 18.8102 C88.7128 18.8101 87.8681 18.81 86.9977 18.8098 C73.3822 18.8075 59.7667 18.7982 46.1512 18.7863 C32.4734 18.7746 18.7956 18.7701 5.1178 18.773 C-3.0152 18.7745 -11.148 18.7704 -19.2809 18.7584 C-25.344 18.75 -31.407 18.7521 -37.4701 18.7582 C-39.9304 18.7591 -42.3908 18.7565 -44.8512 18.7502 C-48.1817 18.7423 -51.512 18.7465 -54.8425 18.7539 C-55.3261 18.7513 -55.3261 18.7513 -57.7732 18.738 C-62.2855 18.7608 -65.909 18.8404 -70 21 C-69 18 -69 18 -66 16 C-63.1336 15.7215 -63.1336 15.7215 -59.6008 15.6812 C-58.9567 15.6711 -58.3125 15.6611 -57.6488 15.6507 C-55.5224 15.6199 -53.3961 15.6028 -51.2695 15.5859 C-49.7941 15.5672 -48.3186 15.5477 -46.8432 15.5273 C-42.9618 15.4759 -39.0804 15.4363 -35.1989 15.3991 C-31.2373 15.3591 -27.2759 15.308 -23.3145 15.2578 C-15.5431 15.161 -7.7716 15.0766 0 15 C-0.165 14.835 -0.165 14.835 -1 14 C-1.0989 11.8352 -1.1297 9.6671 -1.125 7.5 C-1.1263 6.907 -1.1263 6.907 -1.1328 3.9062 C-1 1 -1 1 0 0 Z " fill="#DEDBD7" transform="translate(374,177)"/>
<path d="M0 0 C0.66 0.33 1.32 0.66 2 1 C-0.8845 3.8845 -2.9188 3.2547 -6.9616 3.2617 C-7.6899 3.2657 -8.4182 3.2697 -9.1686 3.2738 C-11.6341 3.2849 -14.0994 3.2816 -16.565 3.2785 C-18.3404 3.2835 -20.1158 3.2893 -21.8911 3.296 C-26.7893 3.3119 -31.6874 3.3153 -36.5856 3.3167 C-41.8604 3.3204 -47.1351 3.3355 -52.4098 3.3493 C-61.5551 3.3716 -70.7004 3.3866 -79.8457 3.3967 C-93.0684 3.4112 -106.2911 3.4367 -119.5139 3.465 C-140.9648 3.5105 -162.4157 3.5471 -183.8667 3.5781 C-204.7092 3.6083 -225.5516 3.6426 -246.394 3.6826 C-247.6779 3.6851 -248.9618 3.6875 -250.2846 3.6901 C-256.7252 3.7025 -263.1658 3.7149 -269.6064 3.7274 C-323.0709 3.831 -376.5355 3.9202 -430 4 C-430 7.96 -430 11.92 -430 16 C-431.98 16 -433.96 16 -436 16 C-436 11.71 -436 7.42 -436 3 C-502.33 3 -568.66 3 -637 3 C-637 2.67 -637 2.34 -637 2 C-636.724 1.9996 -636.724 1.9996 -635.3274 1.9978 C-575.2647 1.9203 -515.2021 1.8416 -455.1395 1.7563 C-454.6913 1.7557 -454.6913 1.7557 -452.423 1.7525 C-432.943 1.7248 -413.4631 1.697 -393.9831 1.6689 C-384.4309 1.6551 -374.8787 1.6414 -365.3264 1.6277 C-364.3758 1.6263 -363.4252 1.625 -362.4458 1.6236 C-331.6057 1.5793 -300.7655 1.5383 -269.9254 1.499 C-238.2468 1.4586 -206.5683 1.415 -174.8898 1.3672 C-170.4207 1.3604 -165.9517 1.3537 -161.4826 1.3471 C-161.0428 1.3464 -161.0428 1.3464 -158.8171 1.3431 C-144.6281 1.3219 -130.439 1.3043 -116.25 1.2879 C-102.0031 1.2713 -87.7563 1.2512 -73.5095 1.2273 C-65.0336 1.2132 -56.5577 1.202 -48.0818 1.1946 C-41.7705 1.1889 -35.4593 1.178 -29.148 1.165 C-26.5814 1.1605 -24.0148 1.1578 -21.4482 1.1568 C-17.984 1.1553 -14.5199 1.1478 -11.0557 1.1387 C-10.038 1.1397 -9.0202 1.1407 -7.9716 1.1418 C-7.5147 1.1399 -7.5147 1.1399 -5.2022 1.1306 C-4.4088 1.1295 -3.6153 1.1284 -2.7978 1.1273 C-1 1 -1 1 0 0 Z " fill="#E6E4E1" transform="translate(944,392)"/>
<path d="M0 0 C201.3 0 402.6 0 610 0 C610 0.33 610 0.66 610 1 C431.8 1 253.6 1 70 1 C70 4.63 70 8.26 70 12 C68.68 12 67.36 12 66 12 C66 8.37 66 4.74 66 1 C44.22 1 22.44 1 0 1 C0 0.67 0 0.34 0 0 Z " fill="#D4D2CB" transform="translate(308,234)"/>
<path d="M0 0 C1.32 0 2.64 0 4 0 C4 4.62 4 9.24 4 14 C146.56 14 289.12 14 436 14 C436.33 14.66 436.66 15.32 437 16 C343.445 15.835 343.445 15.835 -130 15 C-130 14.67 -130 14.34 -130 14 C-87.1 14 -44.2 14 0 14 C0 9.38 0 4.76 0 0 Z " fill="#C1BDB6" transform="translate(508,340)"/>
<path d="M0 0 C0.4856 0.3246 0.9711 0.6492 1.4714 0.9836 C5.0916 2.4388 8.6147 2.2791 12.4571 2.2617 C12.8899 2.2637 12.8899 2.2637 15.0803 2.2738 C18.0011 2.2849 20.9218 2.2816 23.8426 2.2785 C25.9497 2.2835 28.0568 2.2893 30.1639 2.296 C35.9697 2.3119 41.7754 2.3153 47.5812 2.3167 C53.8361 2.3204 60.091 2.3355 66.346 2.3493 C77.1883 2.3716 88.0305 2.3867 98.8728 2.3967 C110.246 2.4072 121.6192 2.4218 132.9923 2.4419 C133.6991 2.4432 134.4059 2.4444 135.134 2.4457 C138.7232 2.4521 142.3124 2.4585 145.9016 2.465 C171.3335 2.5107 196.7654 2.5471 222.1973 2.5781 C246.9063 2.6083 271.6152 2.6426 296.3242 2.6826 C297.0857 2.6838 297.8471 2.6851 298.6316 2.6863 C306.2782 2.6987 313.9249 2.7112 321.5715 2.7237 C337.1489 2.7492 352.7264 2.7741 368.3039 2.7987 C369.0201 2.7998 369.7364 2.8009 370.4743 2.8021 C418.3162 2.8776 466.1581 2.9398 514 3 C514 3.33 514 3.66 514 4 C369.46 4 224.92 4 76 4 C76 7.63 76 11.26 76 15 C74.35 15.33 72.7 15.66 71 16 C70 15 70 15 69.9023 12.4961 C69.9139 11.4868 69.9255 10.4774 69.9375 9.4375 C69.9465 8.4256 69.9555 7.4137 69.9648 6.3711 C69.9764 5.5886 69.988 4.8062 70 4 C69.1673 4.0089 68.3346 4.0178 67.4766 4.0269 C59.6339 4.107 51.7913 4.1679 43.9483 4.2072 C39.916 4.2281 35.884 4.2565 31.8518 4.3018 C27.9614 4.3452 24.0714 4.3691 20.1808 4.3795 C18.6956 4.3869 17.2104 4.4014 15.7253 4.4229 C13.6468 4.4519 11.5696 4.456 9.491 4.4541 C8.3074 4.463 7.1238 4.4719 5.9043 4.481 C3 4 3 4 1.0943 1.9716 C0.7332 1.321 0.3721 0.6704 0 0 Z " fill="#DCD9D4" transform="translate(438,311)"/>
<path d="M0 0 C67.65 0 135.3 0 205 0 C206.0498 3.1493 206.1013 5.3881 206.0625 8.6875 C206.0535 9.6814 206.0445 10.6752 206.0352 11.6992 C206.0294 12.0788 206.0294 12.0788 206 14 C204.35 14 202.7 14 201 14 C201 9.71 201 5.42 201 1 C134.67 1 68.34 1 0 1 C0 0.67 0 0.34 0 0 Z " fill="#E1DED9" transform="translate(307,394)"/>
<path d="M0 0 C1.98 0 3.96 0 6 0 C6 3.63 6 7.26 6 11 C48.57 11 91.14 11 135 11 C135 11.33 135 11.66 135 12 C68.67 12 2.34 12 -66 12 C-66 11.67 -66 11.34 -66 11 C-44.22 11 -22.44 11 0 11 C0 7.37 0 3.74 0 0 Z " fill="#EEEDEB" transform="translate(373,342)"/>
<path d="M0 0 C1.6754 0.286 3.3439 0.6178 5 1 C5.027 3.1041 5.0464 5.2083 5.0625 7.3125 C5.0741 8.4843 5.0857 9.656 5.0977 10.8633 C5 14 5 14 4 17 C-18.77 17 -41.54 17 -65 17 C-65 17.66 -65 18.32 -65 19 C-66.65 19.66 -68.3 20.32 -70 21 C-69 18 -69 18 -66 16 C-63.1336 15.7215 -63.1336 15.7215 -59.6008 15.6812 C-58.9567 15.6711 -58.3125 15.6611 -57.6488 15.6507 C-55.5224 15.6199 -53.3961 15.6028 -51.2695 15.5859 C-49.7941 15.5672 -48.3186 15.5477 -46.8432 15.5273 C-42.9618 15.4759 -39.0804 15.4363 -35.1989 15.3991 C-31.2373 15.3591 -27.2759 15.308 -23.3145 15.2578 C-15.5431 15.161 -7.7716 15.0766 0 15 C-0.165 14.835 -0.165 14.835 -1 14 C-1.0989 11.8352 -1.1297 9.6671 -1.125 7.5 C-1.1263 6.907 -1.1263 6.907 -1.1328 3.9062 C-1 1 -1 1 0 0 Z " fill="#E4E1DB" transform="translate(374,177)"/>
<path d="M0 0 C0.2581 0.1617 0.2581 0.1617 1.5643 0.9801 C4.7924 2.3318 7.4725 2.2816 10.9717 2.3188 C11.3182 2.3239 11.3182 2.3239 13.0719 2.3493 C15.3552 2.3801 17.6384 2.3971 19.9219 2.4141 C21.508 2.4328 23.0941 2.4523 24.6802 2.4727 C28.8493 2.5241 33.0184 2.5637 37.1876 2.6009 C41.4441 2.6409 45.7006 2.692 49.957 2.7422 C58.3046 2.8389 66.6522 2.9233 75 3 C75 6.96 75 10.92 75 15 C73.68 15.33 72.36 15.66 71 16 C70 15 70 15 69.9023 12.4961 C69.9139 11.4868 69.9255 10.4774 69.9375 9.4375 C69.9465 8.4256 69.9555 7.4137 69.9648 6.3711 C69.9764 5.5886 69.988 4.8062 70 4 C69.1673 4.0089 68.3346 4.0178 67.4766 4.0269 C59.6339 4.107 51.7913 4.1679 43.9483 4.2072 C39.916 4.2281 35.884 4.2565 31.8518 4.3018 C27.9614 4.3452 24.0714 4.3691 20.1808 4.3795 C18.6956 4.3869 17.2104 4.4014 15.7253 4.4229 C13.6468 4.4519 11.5696 4.456 9.491 4.4541 C8.3074 4.463 7.1238 4.4719 5.9043 4.481 C3 4 3 4 1.0943 1.9716 C0.7332 1.321 0.3721 0.6704 0 0 Z " fill="#D8D4CC" transform="translate(438,311)"/>
<path d="M0 0 C1.65 0 3.3 0 5 0 C5 3.96 5 7.92 5 12 C-18.43 12 -41.86 12 -66 12 C-66 11.67 -66 11.34 -66 11 C-44.22 11 -22.44 11 0 11 C0 7.37 0 3.74 0 0 Z " fill="#E3E0D9" transform="translate(373,342)"/>
<path d="M0 0 C1.98 0 3.96 0 6 0 C6 4.62 6 9.24 6 14 C4.35 14.33 2.7 14.66 1 15 C0 14 0 14 -0.0977 10.8398 C-0.0919 10.196 -0.0919 10.196 -0.0625 6.9375 C-0.0535 5.6471 -0.0445 4.3568 -0.0352 3.0273 C-0.0236 2.0283 -0.012 1.0293 0 0 Z " fill="#DAD6CC" transform="translate(238,372)"/>
<path d="M0 0 C1.32 0.66 2.64 1.32 4 2 C4 6.62 4 11.24 4 16 C2.35 16 0.7 16 -1 16 C-2.3627 13.2746 -2.1692 11.0391 -2.1875 8 C-2.2017 6.9275 -2.2159 5.855 -2.2305 4.75 C-2 2 -2 2 0 0 Z " fill="#DAD6CC" transform="translate(240,316)"/>
<path d="M0 0 C1.65 0.33 3.3 0.66 5 1 C5 5.62 5 10.24 5 15 C3.35 15 1.7 15 0 15 C-1 14 -1 14 -1.1328 11.0938 C-1.1302 9.9078 -1.1277 8.7219 -1.125 7.5 C-1.1276 6.3141 -1.1302 5.1281 -1.1328 3.9062 C-1 1 -1 1 0 0 Z " fill="#DAD6CB" transform="translate(239,289)"/>
<path d="M0 0 C1.65 0 3.3 0 5 0 C5 4.62 5 9.24 5 14 C3.35 14.33 1.7 14.66 0 15 C-1 14 -1 14 -1.1328 11.0938 C-1.1302 9.9078 -1.1277 8.7219 -1.125 7.5 C-1.1276 6.3141 -1.1302 5.1281 -1.1328 3.9062 C-1 1 -1 1 0 0 Z " fill="#DAD5CB" transform="translate(239,262)"/>
<path d="M0 0 C1.6754 0.286 3.3439 0.6178 5 1 C5.0269 3.1458 5.0463 5.2916 5.0625 7.4375 C5.0741 8.6325 5.0857 9.8274 5.0977 11.0586 C5 14 5 14 4 15 C2.3338 15.0406 0.6661 15.0427 -1 15 C-1.0269 12.6876 -1.0463 10.375 -1.0625 8.0625 C-1.0741 6.7747 -1.0857 5.487 -1.0977 4.1602 C-1 1 -1 1 0 0 Z " fill="#DAD5CB" transform="translate(239,207)"/>
<path d="M0 0 C1.98 0 3.96 0 6 0 C6 4.62 6 9.24 6 14 C2 15 2 15 0 14 C0 9.38 0 4.76 0 0 Z " fill="#DAD6CB" transform="translate(238,180)"/>
<path d="M0 0 C1.98 0 3.96 0 6 0 C6.0269 2.1249 6.0464 4.25 6.0625 6.375 C6.0741 7.5584 6.0857 8.7417 6.0977 9.9609 C6 13 6 13 5 15 C3.68 15 2.36 15 1 15 C-0.4421 12.1158 -0.0939 9.5828 -0.0625 6.375 C-0.0535 5.1865 -0.0445 3.998 -0.0352 2.7734 C-0.0236 1.8582 -0.012 0.943 0 0 Z " fill="#DBD6CC" transform="translate(373,397)"/>
<path d="M0 0 C1.65 0.33 3.3 0.66 5 1 C5 5.29 5 9.58 5 14 C3.35 14.33 1.7 14.66 0 15 C-1 14 -1 14 -1.1328 11.0938 C-1.1302 9.9078 -1.1277 8.7219 -1.125 7.5 C-1.1276 6.3141 -1.1302 5.1281 -1.1328 3.9062 C-1 1 -1 1 0 0 Z " fill="#DBD6CC" transform="translate(374,314)"/>
<path d="M0 0 C1.65 0.33 3.3 0.66 5 1 C5 5.29 5 9.58 5 14 C1 15 1 15 -1 14 C-1.0269 12.0417 -1.0464 10.0834 -1.0625 8.125 C-1.0741 7.0345 -1.0857 5.9439 -1.0977 4.8203 C-1 2 -1 2 0 0 Z " fill="#D9D5CA" transform="translate(239,344)"/>
<path d="M0 0 C1.32 0.33 2.64 0.66 4 1 C4 5.29 4 9.58 4 14 C0 15 0 15 -2 14 C-2.0539 12.042 -2.0927 10.0835 -2.125 8.125 C-2.1482 7.0345 -2.1714 5.9439 -2.1953 4.8203 C-2 2 -2 2 0 0 Z " fill="#D9D5CA" transform="translate(240,234)"/>
<path d="M0 0 C1.98 0 3.96 0 6 0 C6 4.29 6 8.58 6 13 C4.35 13.33 2.7 13.66 1 14 C0 13 0 13 -0.0977 10.0586 C-0.0861 8.8636 -0.0745 7.6687 -0.0625 6.4375 C-0.0535 5.24 -0.0445 4.0424 -0.0352 2.8086 C-0.0236 1.8818 -0.012 0.9549 0 0 Z " fill="#D9D4C9" transform="translate(238,98)"/>
<path d="M0 0 C0.6542 -0.0006 1.3084 -0.0012 1.9825 -0.0018 C4.131 0.001 6.2782 0.0321 8.4265 0.0635 C9.9215 0.0709 11.4165 0.0766 12.9115 0.0806 C16.836 0.0959 20.7598 0.1351 24.684 0.1794 C28.6925 0.2204 32.7011 0.2386 36.7097 0.2588 C44.5674 0.3016 52.4246 0.3698 60.282 0.4541 C60.282 0.7841 60.282 1.1141 60.282 1.4541 C59.4788 1.46 58.6755 1.4658 57.848 1.4719 C50.2705 1.5298 42.6934 1.6019 35.1162 1.6898 C31.2209 1.7345 27.3257 1.7738 23.4302 1.8005 C19.6693 1.8266 15.9088 1.867 12.1482 1.9173 C10.715 1.9339 9.2817 1.9455 7.8484 1.9517 C5.8376 1.9614 3.827 1.9911 1.8164 2.0217 C0.6728 2.0328 -0.4708 2.0439 -1.6491 2.0554 C-5.0334 2.4951 -6.8755 3.6453 -9.718 5.4541 C-10.378 5.1241 -11.038 4.7941 -11.718 4.4541 C-7.7829 0.7243 -5.3847 -0.0406 0 0 Z " fill="#C1BDB6" transform="translate(313.718017578125,353.5458984375)"/>
<path d="M0 0 C0.825 0.165 0.825 0.165 5 1 C5 1.66 5 2.32 5 3 C26.78 3 48.56 3 71 3 C71 3.33 71 3.66 71 4 C62.1857 4.0463 53.3715 4.0819 44.5571 4.1036 C40.4644 4.1141 36.3717 4.1282 32.2791 4.1509 C28.3304 4.1726 24.3818 4.1846 20.433 4.1898 C18.9255 4.1935 17.418 4.2007 15.9105 4.2115 C13.8012 4.226 11.6922 4.228 9.5828 4.2271 C8.3814 4.2315 7.1801 4.2359 5.9423 4.2405 C3 4 3 4 0 2 C0 1.34 0 0.68 0 0 Z " fill="#B2ADA1" transform="translate(303,230)"/>
<path d="M0 0 C0.99 0 1.98 0 3 0 C4.4421 2.8842 4.0939 5.4172 4.0625 8.625 C4.0535 9.8135 4.0445 11.002 4.0352 12.2266 C4.0236 13.1418 4.012 14.057 4 15 C2.0625 15.5625 2.0625 15.5625 0 16 C-1 15 -1 15 -1.1328 11.875 C-1.1302 10.5962 -1.1277 9.3175 -1.125 8 C-1.1276 6.7212 -1.1302 5.4425 -1.1328 4.125 C-1 1 -1 1 0 0 Z " fill="#D7D2C8" transform="translate(509,256)"/>
<path d="M0 0 C1.65 0.33 3.3 0.66 5 1 C5 4.96 5 8.92 5 13 C3.35 13 1.7 13 0 13 C-1.2507 10.4986 -1.133 8.7261 -1.125 5.9375 C-1.1276 5.039 -1.1302 4.1405 -1.1328 3.2148 C-1 1 -1 1 0 0 Z " fill="#DBD7CD" transform="translate(239,399)"/>
<path d="M0 0 C0.66 0.165 0.66 0.165 4 1 C4 5.62 4 10.24 4 15 C2.68 15 1.36 15 0 15 C-1.3725 12.2549 -1.1323 9.9967 -1.125 6.9375 C-1.1276 5.8534 -1.1302 4.7693 -1.1328 3.6523 C-1 1 -1 1 0 0 Z " fill="#D6D1C6" transform="translate(374,287)"/>
</svg>
