<?xml version="1.0" encoding="UTF-8"?>
<!-- Generator: visioncortex VTracer 0.6.12 -->
<svg version="1.1" xmlns="http://www.w3.org/2000/svg" width="1600" height="474">
<path d="M0 0 C528 0 1056 0 1600 0 C1600 156.42 1600 312.84 1600 474 C1072 474 544 474 0 474 C0 317.58 0 161.16 0 0 Z " fill="#FEFEFE" transform="translate(0,0)"/>
<path d="M0 0 C1.2692 -0.011 2.5385 -0.0221 3.8462 -0.0335 C5.2471 -0.0255 6.6481 -0.0172 8.0491 -0.0085 C9.5431 -0.0138 11.0372 -0.0209 12.5313 -0.0296 C16.6336 -0.0482 20.7356 -0.0419 24.838 -0.0314 C29.2634 -0.0244 33.6888 -0.0404 38.1142 -0.0534 C46.7823 -0.075 55.4503 -0.0749 64.1184 -0.0668 C71.1624 -0.0605 78.2064 -0.0616 85.2505 -0.068 C86.2526 -0.0689 87.2548 -0.0698 88.2873 -0.0708 C90.323 -0.0726 92.3588 -0.0745 94.3945 -0.0764 C113.4886 -0.0929 132.5826 -0.0842 151.6767 -0.0674 C169.1513 -0.0527 186.6258 -0.0673 204.1004 -0.0961 C222.0385 -0.1255 239.9765 -0.1365 257.9145 -0.127 C259.9429 -0.1259 261.9712 -0.1249 263.9995 -0.124 C264.9975 -0.1235 265.9955 -0.123 267.0237 -0.1225 C274.0602 -0.1204 281.0966 -0.1302 288.1331 -0.1448 C296.707 -0.1623 305.2806 -0.1622 313.8545 -0.1394 C318.23 -0.1282 322.6051 -0.1251 326.9806 -0.1437 C330.9852 -0.1605 334.9892 -0.1542 338.9938 -0.1295 C340.4432 -0.1246 341.8927 -0.1282 343.3421 -0.141 C355.5248 -0.241 355.5248 -0.241 359.4789 2.9055 C361.6909 5.586 362.3798 6.6237 362.4014 10.0335 C362.4203 10.8979 362.4392 11.7623 362.4587 12.6529 C362.4526 13.1134 362.4526 13.1134 362.4219 15.4437 C362.4247 15.9225 362.4247 15.9225 362.4393 18.3458 C362.4433 20.3664 362.4323 22.3871 362.4072 24.4075 C362.3751 27.4969 362.4069 30.581 362.4453 33.6702 C362.4413 35.6364 362.4336 37.6025 362.4219 39.5687 C362.434 40.4896 362.4462 41.4106 362.4587 42.3594 C362.4492 42.7916 362.4492 42.7916 362.4014 44.9788 C362.3966 45.7343 362.3918 46.4898 362.3869 47.2681 C361.451 50.0173 360.08 51.6295 357.8171 53.4303 C352.7434 55.9205 346.7208 55.1792 341.1875 55.1276 C339.6919 55.1319 338.1964 55.1385 336.7009 55.147 C332.5946 55.164 328.4889 55.1498 324.3827 55.1305 C319.9532 55.115 315.5238 55.1284 311.0943 55.1382 C302.4188 55.1527 293.7435 55.1405 285.0681 55.1191 C274.9695 55.0951 264.871 55.0968 254.7724 55.0994 C236.7579 55.1031 218.7435 55.0823 200.729 55.0482 C183.2394 55.015 165.7499 55.0009 148.2602 55.0071 C129.2226 55.0139 110.1849 55.0114 91.1472 54.9918 C90.1411 54.9907 89.135 54.9897 88.0983 54.9886 C86.0775 54.9865 84.0566 54.9844 82.0357 54.9823 C74.9923 54.9754 67.9489 54.9747 60.9054 54.9762 C52.3264 54.9776 43.7475 54.968 35.1684 54.9442 C30.7892 54.9323 26.4102 54.9253 22.031 54.9311 C18.0253 54.9362 14.02 54.9276 10.0144 54.9078 C8.5623 54.903 7.1102 54.9034 5.6581 54.9092 C3.69 54.9163 1.7219 54.9034 -0.2461 54.8893 C-1.341 54.8877 -2.4359 54.8861 -3.564 54.8845 C-6.7174 54.4601 -8.1283 53.7308 -10.375 51.5062 C-10.375 50.8462 -10.375 50.1862 -10.375 49.5062 C-11.035 49.5062 -11.695 49.5062 -12.375 49.5062 C-12.5271 43.171 -12.6322 36.8364 -12.7046 30.4998 C-12.7348 28.3444 -12.7757 26.189 -12.8277 24.034 C-12.9004 20.9359 -12.9345 17.8394 -12.961 14.7405 C-12.9919 13.7769 -13.0229 12.8132 -13.0548 11.8203 C-13.0552 10.9197 -13.0557 10.019 -13.0562 9.0911 C-13.0695 8.3006 -13.0828 7.51 -13.0965 6.6955 C-11.2384 1.0572 -5.2671 0.0057 0 0 Z " fill="#3F3A33" transform="translate(528.3750152587891,199.49384212493896)"/>
<path d="M0 0 C1.2166 -0.0072 2.4332 -0.0143 3.6867 -0.0217 C5.0322 -0.0245 6.3776 -0.0272 7.723 -0.0298 C9.1425 -0.0361 10.5621 -0.0427 11.9816 -0.0497 C16.6421 -0.0708 21.3027 -0.0811 25.9633 -0.0911 C27.5714 -0.0952 29.1796 -0.0993 30.7878 -0.1035 C38.3484 -0.1225 45.9089 -0.1367 53.4695 -0.1451 C62.1754 -0.1548 70.8811 -0.1811 79.587 -0.2216 C86.3286 -0.2518 93.0701 -0.2665 99.8118 -0.2699 C103.832 -0.2722 107.8518 -0.281 111.8719 -0.3063 C115.6608 -0.3298 119.4493 -0.3338 123.2383 -0.3236 C125.2732 -0.3228 127.3082 -0.3418 129.343 -0.3616 C137.3727 -0.3166 147.4747 -0.069 153.7418 5.6973 C154.1758 6.1758 154.6098 6.6542 155.057 7.1472 C155.8201 7.5945 156.5833 8.0418 157.3695 8.5026 C168.4368 15.2749 173.6418 23.9946 177.057 36.1472 C177.387 36.4772 177.717 36.8072 178.057 37.1472 C178.3398 40.4508 178.289 43.7704 178.307 47.0847 C178.3173 47.5413 178.3173 47.5413 178.3695 49.8522 C178.4276 60.1095 175.4836 69.4293 170.057 78.1472 C167.557 80.4597 167.557 80.4597 165.057 82.1472 C164.2733 82.9515 163.4895 83.7559 162.682 84.5847 C149.9053 97.0572 134.6961 97.3054 117.7103 97.2766 C116.4227 97.2783 115.1352 97.2801 113.8085 97.2819 C110.3109 97.2864 106.8133 97.2847 103.3156 97.2815 C99.6394 97.2789 95.9632 97.2813 92.2869 97.2829 C86.1206 97.2847 79.9543 97.2823 73.788 97.2775 C66.6721 97.2721 59.5562 97.2739 52.4403 97.2794 C46.3101 97.2839 40.1799 97.2845 34.0496 97.2819 C30.3971 97.2804 26.7445 97.2801 23.092 97.2835 C19.0233 97.2869 14.9547 97.2821 10.8861 97.2766 C10.2855 97.2776 10.2855 97.2776 7.2461 97.2827 C-6.1494 97.2488 -17.7346 95.1785 -27.775 85.5222 C-33.5656 79.1786 -39.291 72.4151 -41.943 64.1472 C-42.1441 63.522 -42.3452 62.8968 -42.5524 62.2526 C-46.047 49.5256 -44.5566 36.7463 -38.3649 25.2058 C-32.3646 15.2729 -25.6255 8.6451 -14.943 4.1472 C-14.0561 3.6109 -13.1692 3.0747 -12.2555 2.5222 C-8.2223 0.124 -4.6435 0.0188 0 0 Z " fill="#E7E2D7" transform="translate(1213.9429931640625,95.85282897949219)"/>
<path d="M0 0 C1.1802 -0.0078 2.3604 -0.0156 3.5763 -0.0236 C6.8488 -0.0401 10.1204 -0.0342 13.3928 -0.0187 C16.9233 -0.0074 20.4536 -0.0249 23.984 -0.0386 C30.899 -0.0608 37.8137 -0.056 44.7287 -0.0415 C50.3488 -0.0303 55.9688 -0.0287 61.5889 -0.0342 C61.9887 -0.0345 61.9887 -0.0345 64.0121 -0.0365 C65.6366 -0.0381 67.2611 -0.0397 68.8856 -0.0413 C84.1221 -0.0556 99.3585 -0.0392 114.595 -0.0123 C127.6685 0.01 140.7419 0.0061 153.8154 -0.0169 C168.9956 -0.0437 184.1757 -0.0542 199.3558 -0.0389 C200.9747 -0.0373 202.5935 -0.0357 204.2124 -0.0342 C205.0089 -0.0334 205.8054 -0.0326 206.626 -0.0318 C212.2388 -0.0275 217.8516 -0.0348 223.4644 -0.0466 C230.3054 -0.0606 237.1462 -0.0568 243.9872 -0.0302 C247.4776 -0.017 250.9676 -0.0119 254.4581 -0.0284 C258.2419 -0.042 262.0244 -0.025 265.8081 0 C266.9117 -0.0112 268.0153 -0.0223 269.1523 -0.0338 C277.4363 0.0726 277.4363 0.0726 281.1491 3.0403 C283.4856 5.6552 284.2196 6.5301 284.228 9.9469 C284.2359 10.3559 284.2359 10.3559 284.2756 12.4254 C284.2679 12.8609 284.2679 12.8609 284.2293 15.0646 C284.2309 15.5189 284.2309 15.5189 284.2395 17.8178 C284.2392 19.7359 284.224 21.6541 284.1948 23.5719 C284.1553 26.4942 284.1741 29.4118 284.2 32.3341 C284.1924 34.2026 284.1814 36.0711 284.1668 37.9396 C284.1737 38.8065 284.1807 39.6734 284.1879 40.5665 C284.1689 41.3907 284.15 42.2149 284.1304 43.0641 C284.1234 43.7796 284.1164 44.4951 284.1092 45.2323 C283.0758 49.1018 281.5478 52.0097 278.4675 54.6349 C274.625 55.6972 270.8566 55.5796 266.8904 55.5238 C266.2979 55.5293 266.2979 55.5293 263.2996 55.5569 C260.0134 55.58 256.7291 55.5717 253.443 55.55 C249.8983 55.5342 246.3537 55.5586 242.809 55.5779 C235.8662 55.609 228.9239 55.6022 221.9811 55.582 C216.339 55.5662 210.6971 55.564 205.0551 55.5716 C204.2523 55.5727 203.4496 55.5738 202.6225 55.5749 C200.9918 55.5771 199.3612 55.5794 197.7305 55.5817 C182.4362 55.6017 167.1423 55.5787 151.8481 55.5411 C138.7224 55.5098 125.5971 55.5152 112.4715 55.5475 C97.2323 55.585 81.9934 55.5997 66.7542 55.5782 C65.1295 55.576 63.5047 55.5738 61.88 55.5716 C61.0806 55.5705 60.2812 55.5695 59.4576 55.5684 C53.8217 55.5623 48.186 55.5725 42.5502 55.589 C35.6827 55.6086 28.8157 55.6033 21.9482 55.566 C18.4436 55.5476 14.9398 55.5404 11.4352 55.5636 C7.6374 55.5826 3.8423 55.5588 0.0447 55.5238 C-0.5105 55.5316 -0.5105 55.5316 -3.3202 55.5711 C-10.5869 55.4407 -10.5869 55.4407 -13.3315 53.1018 C-15.6737 49.9351 -17.1571 47.0743 -17.1794 43.0641 C-17.1952 42.2399 -17.2109 41.4157 -17.2272 40.5665 C-17.2171 39.6996 -17.2069 38.8328 -17.1965 37.9396 C-17.2013 37.0291 -17.2061 36.1187 -17.211 35.1806 C-17.2144 33.2661 -17.2053 31.3515 -17.1843 29.4372 C-17.1575 26.5109 -17.1841 23.5884 -17.216 20.6623 C-17.2127 18.7964 -17.2063 16.9305 -17.1965 15.0646 C-17.2066 14.1937 -17.2168 13.3227 -17.2272 12.4254 C-17.2114 11.6075 -17.1957 10.7896 -17.1794 9.9469 C-17.1755 9.233 -17.1715 8.5191 -17.1674 7.7836 C-14.6551 -0.7182 -7.3208 -0.0738 0 0 Z " fill="#A39D90" transform="translate(192.53245544433594,199.36508178710938)"/>
<path d="M0 0 C0.9986 -0.0045 1.9973 -0.0089 3.0262 -0.0135 C3.5814 -0.0134 3.5814 -0.0134 6.391 -0.0129 C7.5603 -0.0166 8.7296 -0.0203 9.9343 -0.0241 C13.1947 -0.0332 16.455 -0.0378 19.7153 -0.0405 C23.226 -0.0444 26.7367 -0.054 30.2474 -0.0627 C38.7335 -0.0825 47.2197 -0.0925 55.7058 -0.1014 C59.6989 -0.1058 63.692 -0.1112 67.6852 -0.1164 C80.9542 -0.1334 94.2232 -0.1479 107.4923 -0.1552 C110.9379 -0.1571 114.3835 -0.159 117.8291 -0.1609 C118.6856 -0.1614 119.542 -0.1619 120.4244 -0.1624 C134.3014 -0.1707 148.1783 -0.1961 162.0553 -0.2285 C176.2923 -0.2616 190.5294 -0.2796 204.7665 -0.2828 C212.7642 -0.285 220.7618 -0.2938 228.7594 -0.3193 C235.5701 -0.3409 242.3807 -0.349 249.1915 -0.3393 C252.6676 -0.3347 256.1434 -0.3367 259.6194 -0.3561 C263.3861 -0.3736 267.1519 -0.3667 270.9186 -0.3535 C272.02 -0.3645 273.1215 -0.3755 274.2563 -0.3868 C281.6348 -0.324 281.6348 -0.324 285.6269 2.0397 C287.4087 4.1342 287.4087 4.1342 287.4087 6.1342 C288.0687 6.1342 288.7287 6.1342 289.4087 6.1342 C289.4087 19.9942 289.4087 33.8542 289.4087 48.1342 C288.7487 48.1342 288.0887 48.1342 287.4087 48.1342 C287.285 48.753 287.1612 49.3717 287.0337 50.0092 C286.4087 52.1342 286.4087 52.1342 284.4087 54.1342 C282.313 54.3884 282.313 54.3884 279.6632 54.3943 C278.6556 54.4013 277.648 54.4084 276.6099 54.4157 C276.0522 54.4145 276.0522 54.4145 273.2303 54.4084 C272.052 54.4136 270.8737 54.4188 269.6596 54.4242 C266.3787 54.4367 263.0979 54.4401 259.817 54.4396 C256.2824 54.4413 252.7479 54.4544 249.2134 54.4658 C241.48 54.4887 233.7466 54.4966 226.0131 54.5017 C221.1864 54.5049 216.3597 54.5114 211.5331 54.5187 C198.1756 54.5382 184.8182 54.5546 171.4608 54.5575 C170.6055 54.5577 169.7501 54.5579 168.8689 54.5581 C167.1349 54.5585 165.4009 54.5588 163.6669 54.5592 C162.8061 54.5594 161.9453 54.5596 161.0584 54.5598 C160.1965 54.5599 159.3347 54.5601 158.4467 54.5603 C144.4792 54.5638 130.5119 54.5909 116.5445 54.6283 C102.2124 54.6663 87.8805 54.6857 73.5484 54.686 C65.4981 54.6866 57.4481 54.6951 49.3979 54.724 C42.5432 54.7485 35.6888 54.7558 28.8341 54.7408 C25.3357 54.7336 21.8377 54.7345 18.3393 54.7572 C14.5485 54.7775 10.7589 54.7672 6.9681 54.749 C5.8595 54.7622 4.751 54.7754 3.6088 54.789 C-4.6718 54.6977 -4.6718 54.6977 -7.7512 51.6583 C-8.3584 50.8254 -8.9657 49.9924 -9.5913 49.1342 C-9.9213 48.8042 -10.2513 48.4742 -10.5913 48.1342 C-10.8844 42.2222 -10.9054 36.3077 -10.9414 30.3891 C-10.9579 28.3929 -10.9852 26.3967 -11.0234 24.4008 C-11.0782 21.5252 -11.1 18.6509 -11.1147 15.7748 C-11.1374 14.8851 -11.16 13.9953 -11.1834 13.0786 C-11.1679 8.5262 -11.0877 6.7452 -8.1211 3.0942 C-7.2862 2.4474 -6.4514 1.8006 -5.5913 1.1342 C-3.9775 -0.4796 -2.2329 0.0046 0 0 Z " fill="#A29C8F" transform="translate(940.5912666320801,199.86577892303467)"/>
<path d="M0 0 C4.1829 1.0722 7.4167 2.6217 11 5 C11.7322 5.4344 12.4644 5.8688 13.2188 6.3164 C20.9463 11.3768 24.9453 19.1621 27 28 C27.2078 30.6957 27.3338 33.2483 27.3125 35.9375 C27.3098 36.6404 27.307 37.3434 27.3042 38.0676 C27.1959 43.4298 26.3435 47.2229 24 52 C23.7164 52.7992 23.4328 53.5984 23.1406 54.4219 C21.8492 57.3407 20.2837 59.2205 18.125 61.5625 C17.447 62.3063 16.7689 63.0501 16.0703 63.8164 C15.3871 64.537 14.7039 65.2576 14 66 C13.3439 66.7051 12.6877 67.4102 12.0117 68.1367 C5.4221 74.2401 -2.8368 74.4996 -11.4141 74.2734 C-15.8064 73.9385 -19.7636 73.1892 -24 72 C-24 71.34 -24 70.68 -24 70 C-24.6806 69.9588 -25.3612 69.9175 -26.0625 69.875 C-30.185 68.647 -33.1 66.1508 -36 63 C-36 62.34 -36 61.68 -36 61 C-36.66 61 -37.32 61 -38 61 C-39.2188 59.5039 -39.2188 59.5039 -40.5 57.5625 C-42.7915 54.1042 -42.7915 54.1042 -45 53 C-47.7846 43.6835 -48.3544 33.1804 -45 24 C-44.6081 22.8656 -44.2162 21.7312 -43.8125 20.5625 C-41.5025 16.0222 -38.4788 12.6796 -35 9 C-34.34 8.2369 -33.68 7.4737 -33 6.6875 C-30.2733 4.3868 -27.2956 3.3182 -24 2 C-17.638 -2.2413 -7.4062 -0.7193 0 0 Z " fill="#C8962F" transform="translate(1348,108)"/>
<path d="M0 0 C0.7206 0.3132 1.4412 0.6265 2.1836 0.9492 C6.1996 2.8135 8.9897 4.7075 12 8 C13.9251 9.7343 15.8829 11.4273 17.8438 13.1211 C19.2968 14.3873 20.7342 15.6717 22.1562 16.9727 C22.8472 17.6004 23.5381 18.2282 24.25 18.875 C24.8739 19.4499 25.4978 20.0248 26.1406 20.6172 C28.114 22.0848 29.5964 22.5852 32 23 C32 23.66 32 24.32 32 25 C39.0897 27.1759 48.1618 27.4948 55.1094 24.7891 C61.159 21.0649 66.3501 16.2055 71.4922 11.332 C76.1156 7.0327 80.1505 4.4025 86 2 C86.8456 1.4844 87.6912 0.9688 88.5625 0.4375 C96.577 -4.289 107.0148 -4.3239 115.9492 -2.3477 C124.6376 0.8304 131.2108 7.2702 138.0273 13.3008 C143.0418 17.6201 148.01 21.1476 154 24 C154.33 24.33 154.33 24.33 156 26 C167.0755 27.3006 174.2333 25.5397 182.9375 18.6875 C183.6181 18.1306 184.2988 17.5738 185 17 C185.66 17 186.32 17 187 17 C187 16.34 187 15.68 187 15 C187.66 15 188.32 15 189 15 C189 14.34 189 13.68 189 13 C194.4181 7.6629 199.8173 3.315 207.3203 1.6328 C207.8746 1.424 208.4289 1.2152 209 1 C209.33 0.01 209.66 -0.98 210 -2 C221.082 -4.1432 232.9478 -4.6475 243 1 C243.3751 1.2043 243.3751 1.2043 245.2734 2.2383 C249.0178 4.4214 251.5413 6.3766 254 10 C254.99 10.33 255.98 10.66 257 11 C257.75 12.9375 257.75 12.9375 258 15 C257.67 15.66 257.34 16.32 257 17 C256.34 17 255.68 17 255 17 C255 17.66 255 18.32 255 19 C254.34 19 253.68 19 253 19 C253 19.66 253 20.32 253 21 C252.34 21 251.68 21 251 21 C251 21.66 251 22.32 251 23 C247.7843 21.5175 245.092 19.6668 242.25 17.5625 C234.2159 11.9327 227.8709 10.1109 218 11 C214.3629 11.8933 212.6267 12.3733 210 15 C208.3456 15.6966 206.6775 16.361 205 17 C203.6595 17.6521 202.3234 18.3138 201 19 C201 19.66 201 20.32 201 21 C192.8144 29.9275 181.2386 38.2181 169.0898 39.3711 C153.9215 39.8272 142.81 35.7954 131.5469 25.6211 C129.3507 23.3609 128.2653 21.7977 127 19 C125.3501 18.2929 123.6792 17.6344 122 17 C120.8374 16.1688 119.6925 15.3125 118.5625 14.4375 C112.7392 10.1704 105.6912 10.361 98.7344 11.3086 C92.0363 12.5958 86.5978 14.7635 82.25 20.25 C81.5075 21.1575 80.765 22.065 80 23 C79.01 23 78.02 23 77 23 C77 23.66 77 24.32 77 25 C75.5391 26.1836 75.5391 26.1836 73.625 27.4375 C70.9141 29.2169 69.872 30.1919 68 33 C66.343 33.6904 64.6744 34.3531 63 35 C62.2085 35.6768 61.417 36.3535 60.6016 37.0508 C55.846 40.2844 50.1363 39.4188 44.625 39.25 C43.5074 39.232 42.3898 39.2139 41.2383 39.1953 C38.4913 39.1484 35.7461 39.0827 33 39 C33 38.34 33 37.68 33 37 C32.3194 37.0825 31.6387 37.165 30.9375 37.25 C26.8312 36.9005 24.4768 35.1815 21 33 C21 32.34 21 31.68 21 31 C20.2678 30.7615 19.5356 30.523 18.7812 30.2773 C15.5928 28.813 13.8846 27.1193 11.5 24.5625 C8.5284 21.3869 5.8113 19.1011 2 17 C1.3916 16.6378 0.7831 16.2755 0.1562 15.9023 C-3.1517 13.9753 -6.3883 12.3134 -10 11 C-10 10.34 -10 9.68 -10 9 C-20.0439 10.0548 -28.6824 11.9227 -36.3125 18.875 C-39 21 -39 21 -41.5625 21.125 C-44.8076 19.6273 -46.7218 17.7338 -49 15 C-49 14.01 -49 13.02 -49 12 C-48.34 12 -47.68 12 -47 12 C-47 11.34 -47 10.68 -47 10 C-45.1719 8.2734 -45.1719 8.2734 -42.75 6.375 C-42.3555 6.0592 -42.3555 6.0592 -40.3594 4.4609 C-38 3 -38 3 -34 3 C-34 2.34 -34 1.68 -34 1 C-22.8754 -4.0855 -11.3126 -5.1223 0 0 Z " fill="#C34336" transform="translate(561,271)"/>
<path d="M0 0 C1.2166 -0.0072 2.4332 -0.0143 3.6867 -0.0217 C5.0322 -0.0245 6.3776 -0.0272 7.723 -0.0298 C9.1425 -0.0361 10.5621 -0.0427 11.9816 -0.0497 C16.6421 -0.0708 21.3027 -0.0811 25.9633 -0.0911 C27.5714 -0.0952 29.1796 -0.0993 30.7878 -0.1035 C38.3484 -0.1225 45.9089 -0.1367 53.4695 -0.1451 C62.1754 -0.1548 70.8811 -0.1811 79.587 -0.2216 C86.3286 -0.2518 93.0701 -0.2665 99.8118 -0.2699 C103.832 -0.2722 107.8518 -0.281 111.8719 -0.3063 C115.6608 -0.3298 119.4493 -0.3338 123.2383 -0.3236 C125.2732 -0.3228 127.3082 -0.3418 129.343 -0.3616 C137.3727 -0.3166 147.4747 -0.069 153.7418 5.6973 C154.1758 6.1758 154.6098 6.6542 155.057 7.1472 C155.8201 7.5945 156.5833 8.0418 157.3695 8.5026 C168.4368 15.2749 173.6418 23.9946 177.057 36.1472 C177.387 36.4772 177.717 36.8072 178.057 37.1472 C178.3398 40.4508 178.289 43.7704 178.307 47.0847 C178.3173 47.5413 178.3173 47.5413 178.3695 49.8522 C178.4276 60.1095 175.4836 69.4293 170.057 78.1472 C167.557 80.4597 167.557 80.4597 165.057 82.1472 C164.2733 82.9515 163.4895 83.7559 162.682 84.5847 C149.9053 97.0572 134.6961 97.3054 117.7103 97.2766 C116.4227 97.2783 115.1352 97.2801 113.8085 97.2819 C110.3109 97.2864 106.8133 97.2847 103.3156 97.2815 C99.6394 97.2789 95.9632 97.2813 92.2869 97.2829 C86.1206 97.2847 79.9543 97.2823 73.788 97.2775 C66.6721 97.2721 59.5562 97.2739 52.4403 97.2794 C46.3101 97.2839 40.1799 97.2845 34.0496 97.2819 C30.3971 97.2804 26.7445 97.2801 23.092 97.2835 C19.0233 97.2869 14.9547 97.2821 10.8861 97.2766 C10.2855 97.2776 10.2855 97.2776 7.2461 97.2827 C-6.1494 97.2488 -17.7346 95.1785 -27.775 85.5222 C-33.5656 79.1786 -39.291 72.4151 -41.943 64.1472 C-42.1441 63.522 -42.3452 62.8968 -42.5524 62.2526 C-46.047 49.5256 -44.5566 36.7463 -38.3649 25.2058 C-32.3646 15.2729 -25.6255 8.6451 -14.943 4.1472 C-14.0561 3.6109 -13.1692 3.0747 -12.2555 2.5222 C-8.2223 0.124 -4.6435 0.0188 0 0 Z M-13.943 12.1472 C-14.449 12.4166 -14.449 12.4166 -17.0094 13.78 C-17.8331 14.2724 -18.6568 14.7648 -19.5055 15.2722 C-20.3524 15.7697 -21.1993 16.2673 -22.0719 16.78 C-22.6894 17.2312 -23.3068 17.6823 -23.943 18.1472 C-23.943 18.8072 -23.943 19.4672 -23.943 20.1472 C-24.603 20.1472 -25.263 20.1472 -25.943 20.1472 C-29.2986 23.7171 -30.976 27.2575 -32.6305 31.8347 C-34.9303 38.1219 -34.9303 38.1219 -35.943 40.1472 C-36.0261 41.5227 -36.0504 42.902 -36.0406 44.28 C-36.0374 45.0856 -36.0342 45.8913 -36.0309 46.7214 C-36.0225 47.5631 -36.0141 48.4049 -36.0055 49.2722 C-36.001 50.1217 -35.9965 50.9712 -35.9918 51.8464 C-35.98 53.9467 -35.9621 56.0469 -35.943 58.1472 C-35.283 58.1472 -34.623 58.1472 -33.943 58.1472 C-34.0049 59.0547 -34.0667 59.9622 -34.1305 60.8972 C-33.9188 64.566 -33.235 65.4144 -30.943 68.1472 C-30.8076 68.53 -30.8076 68.53 -30.1227 70.4675 C-28.713 73.6696 -26.9364 75.5189 -24.443 77.9597 C-24.046 78.3548 -24.046 78.3548 -22.0367 80.3542 C-19.943 82.1472 -19.943 82.1472 -17.943 82.1472 C-17.943 82.8072 -17.943 83.4672 -17.943 84.1472 C-7.6501 88.8461 1.274 90.5914 12.6256 90.5354 C13.9622 90.5394 15.2988 90.5448 16.6354 90.5513 C20.2367 90.5649 23.8376 90.5597 27.4388 90.5501 C31.2236 90.5425 35.0083 90.5496 38.7931 90.5543 C45.1453 90.5597 51.4975 90.5526 57.8497 90.5383 C65.1753 90.522 72.5005 90.5273 79.826 90.5438 C86.1372 90.5574 92.4482 90.5593 98.7594 90.5514 C102.5194 90.5468 106.2793 90.5461 110.0392 90.5561 C113.5746 90.5648 117.1096 90.5586 120.645 90.5414 C122.548 90.5356 124.4511 90.5444 126.3541 90.5538 C133.1472 90.5038 138.7945 89.8364 145.057 87.1472 C146.0483 86.7218 147.0396 86.2964 148.0609 85.8581 C154.7004 82.3914 159.7388 78.3338 164.057 72.1472 C164.057 71.4872 164.057 70.8272 164.057 70.1472 C164.717 70.1472 165.377 70.1472 166.057 70.1472 C169.5655 62.8506 170.6858 56.7061 170.557 48.6472 C170.5725 47.6791 170.5879 46.711 170.6039 45.7136 C170.5479 35.2925 167.3839 27.5657 160.1195 20.1472 C159.6071 19.589 159.0947 19.0308 158.5668 18.4558 C155.6535 15.3833 153.2502 13.2824 149.057 12.1472 C148.067 12.1472 147.077 12.1472 146.057 12.1472 C146.057 11.4872 146.057 10.8272 146.057 10.1472 C141.855 8.5669 138.3732 7.894 133.8913 7.8797 C132.676 7.8712 131.4607 7.8627 130.2086 7.8539 C128.8751 7.8546 127.5416 7.8555 126.2081 7.8566 C124.7933 7.8507 123.3785 7.8438 121.9636 7.8363 C118.1308 7.8187 114.2981 7.8139 110.4653 7.8127 C108.0675 7.8112 105.6696 7.807 103.2718 7.8017 C94.8972 7.7832 86.5227 7.775 78.1481 7.7766 C70.3568 7.7778 62.5658 7.7567 54.7746 7.7251 C48.0729 7.6989 41.3713 7.6882 34.6696 7.6895 C30.6725 7.69 26.6756 7.6844 22.6786 7.6631 C18.9167 7.6437 15.1553 7.6437 11.3934 7.6582 C9.3663 7.6612 7.3391 7.6446 5.312 7.6273 C-2.0396 7.6777 -7.5398 8.4618 -13.943 12.1472 Z " fill="#47423B" transform="translate(1213.9429931640625,95.85282897949219)"/>
<path d="M0 0 C1.4201 -0.0057 2.8402 -0.0127 4.2603 -0.0208 C8.0995 -0.0387 11.9384 -0.0376 15.7775 -0.0319 C18.9928 -0.0288 22.2081 -0.0349 25.4234 -0.0409 C33.0163 -0.0549 40.6092 -0.0534 48.2021 -0.042 C56.0093 -0.0305 63.8161 -0.0446 71.6232 -0.0714 C78.348 -0.0936 85.0726 -0.1002 91.7974 -0.0943 C95.804 -0.091 99.8104 -0.0933 103.817 -0.1106 C107.5896 -0.1261 111.3617 -0.122 115.1343 -0.1033 C117.1597 -0.0979 119.1851 -0.112 121.2104 -0.127 C129.2206 -0.0631 139.3155 0.2053 145.5649 5.9541 C145.7819 6.1933 145.7819 6.1933 146.8799 7.4041 C147.643 7.8514 148.4061 8.2987 149.1924 8.7595 C160.2597 15.5318 165.4647 24.2515 168.8799 36.4041 C169.2099 36.7341 169.5399 37.0641 169.8799 37.4041 C170.1627 40.7077 170.1119 44.0273 170.1299 47.3416 C170.1402 47.7982 170.1402 47.7982 170.1924 50.1091 C170.2505 60.3663 167.3065 69.6862 161.8799 78.4041 C159.3799 80.7166 159.3799 80.7166 156.8799 82.4041 C156.0961 83.2084 155.3124 84.0128 154.5049 84.8416 C151.4424 87.8312 148.5056 90.1212 144.8799 92.4041 C143.8899 92.0741 142.8999 91.7441 141.8799 91.4041 C142.5399 91.4041 143.1999 91.4041 143.8799 91.4041 C143.8799 90.7441 143.8799 90.0841 143.8799 89.4041 C142.8899 89.7341 141.8999 90.0641 140.8799 90.4041 C140.8799 89.7441 140.8799 89.0841 140.8799 88.4041 C139.2299 88.4041 137.5799 88.4041 135.8799 88.4041 C137.2872 85.5894 139.1156 85.2416 141.9424 83.9041 C147.5351 80.9766 150.6994 77.4858 154.3213 72.3806 C154.8356 71.7283 155.35 71.0761 155.8799 70.4041 C156.5399 70.4041 157.1999 70.4041 157.8799 70.4041 C157.9418 70.0431 157.9418 70.0431 158.2549 68.2166 C158.8799 65.4041 158.8799 65.4041 159.8979 63.0513 C161.571 58.5409 161.2488 53.9797 161.2549 49.2166 C161.2794 48.2259 161.3039 47.2353 161.3291 46.2146 C161.3686 36.1804 158.6306 28.2214 151.6299 20.9666 C151.1519 20.4558 150.6739 19.945 150.1814 19.4187 C146.3596 15.5094 143.1643 13.6005 137.8799 12.4041 C137.8799 11.7441 137.8799 11.0841 137.8799 10.4041 C137.0755 10.4247 136.2711 10.4453 135.4424 10.4666 C132.8799 10.4041 132.8799 10.4041 131.8799 9.4041 C130.0706 9.2954 128.2572 9.2572 126.4447 9.2458 C125.2653 9.236 124.086 9.2263 122.8709 9.2162 C121.5654 9.2104 120.2599 9.2047 118.9148 9.1987 C117.5354 9.1892 116.1559 9.1791 114.7765 9.1687 C111.0205 9.1416 107.2645 9.1206 103.5084 9.1007 C99.5873 9.0789 95.6661 9.0515 91.745 9.0247 C84.3148 8.9747 76.8846 8.9298 69.4543 8.8867 C60.9973 8.8373 52.5404 8.7824 44.0835 8.727 C26.6823 8.6131 9.2811 8.5062 -8.1201 8.4041 C-8.1201 8.0741 -8.1201 7.7441 -8.1201 7.4041 C38.7399 7.4041 85.5999 7.4041 133.8799 7.4041 C133.8799 8.0641 133.8799 8.7241 133.8799 9.4041 C134.6224 9.3628 135.3649 9.3216 136.1299 9.2791 C138.9675 9.408 140.4676 9.9746 142.8799 11.4041 C142.8799 10.7441 142.8799 10.0841 142.8799 9.4041 C143.5399 9.4041 144.1999 9.4041 144.8799 9.4041 C144.8799 8.7441 144.8799 8.0841 144.8799 7.4041 C143.8899 7.4041 142.8999 7.4041 141.8799 7.4041 C141.8799 6.7441 141.8799 6.0841 141.8799 5.4041 C140.2299 5.4041 138.5799 5.4041 136.8799 5.4041 C136.8799 4.7441 136.8799 4.0841 136.8799 3.4041 C130.0588 2.1428 123.2798 2.2563 116.3606 2.2588 C114.9932 2.2558 113.6259 2.2524 112.2586 2.2486 C108.5602 2.2398 104.8619 2.2374 101.1635 2.2368 C98.8496 2.2361 96.5357 2.2339 94.2218 2.2313 C86.1401 2.2221 78.0585 2.218 69.9768 2.2188 C62.4577 2.2194 54.9386 2.2088 47.4195 2.193 C40.9505 2.1799 34.4815 2.1746 28.0125 2.1752 C24.1547 2.1755 20.297 2.1726 16.4392 2.162 C12.8104 2.1523 9.1817 2.1523 5.5529 2.1595 C3.5959 2.1611 1.639 2.1528 -0.3179 2.1441 C-9.9577 2.1784 -9.9577 2.1784 -14.7232 3.4817 C-18.0566 4.3868 -19.0011 4.377 -22.1201 3.4041 C-14.7699 -0.073 -8.0411 -0.0275 0 0 Z " fill="#4A453E" transform="translate(1222.1201171875,95.595947265625)"/>
<path d="M0 0 C1.3699 -0.0024 2.7397 -0.0062 4.1096 -0.0111 C7.7869 -0.0204 11.464 -0.0111 15.1414 0.0023 C19.0084 0.0137 22.8755 0.0095 26.7426 0.0075 C33.2265 0.0066 39.7104 0.0176 46.1943 0.0361 C53.6773 0.0573 61.16 0.0608 68.643 0.0546 C75.8688 0.0489 83.0945 0.0545 90.3203 0.0657 C93.3847 0.0704 96.4491 0.0713 99.5135 0.0692 C103.1202 0.0673 106.7268 0.0754 110.3335 0.0912 C112.2799 0.0975 114.2262 0.094 116.1726 0.0901 C122.0876 0.126 127.212 0.3136 132.7837 2.3723 C132.7837 3.0323 132.7837 3.6923 132.7837 4.3723 C134.4337 4.3723 136.0837 4.3723 137.7837 4.3723 C137.7837 5.0323 137.7837 5.6923 137.7837 6.3723 C138.7737 6.3723 139.7637 6.3723 140.7837 6.3723 C140.7837 7.0323 140.7837 7.6923 140.7837 8.3723 C140.1237 8.3723 139.4637 8.3723 138.7837 8.3723 C138.7837 9.0323 138.7837 9.6923 138.7837 10.3723 C137.2987 10.0423 137.2987 10.0423 129.7837 8.3723 C129.7837 7.7123 129.7837 7.0523 129.7837 6.3723 C111.3555 6.4796 92.9274 6.5923 74.4992 6.7117 C65.9428 6.7669 57.3863 6.8204 48.8298 6.8696 C41.3721 6.9125 33.9145 6.9588 26.4568 7.0092 C22.5079 7.0357 18.5591 7.0606 14.6102 7.0814 C10.8928 7.101 7.1755 7.1252 3.4582 7.1528 C1.4446 7.1666 -0.569 7.1756 -2.5827 7.1844 C-3.7844 7.1942 -4.9861 7.204 -6.2242 7.2141 C-7.2667 7.2205 -8.3093 7.227 -9.3834 7.2336 C-12.1 7.3666 -14.56 7.8172 -17.2163 8.3723 C-19.5493 8.4106 -21.8834 8.4181 -24.2163 8.3723 C-24.2163 7.7123 -24.2163 7.0523 -24.2163 6.3723 C-24.8763 6.3723 -25.5363 6.3723 -26.2163 6.3723 C-26.5463 5.3823 -26.8763 4.3923 -27.2163 3.3723 C-18.0151 0.8476 -9.5195 -0.0581 0 0 Z " fill="#3F3A33" transform="translate(1226.21630859375,96.627685546875)"/>
<path d="M0 0 C0.6078 -0.0028 0.6078 -0.0028 3.6833 -0.0171 C5.0325 -0.0132 6.3816 -0.0091 7.7308 -0.0048 C9.15 -0.0075 10.5693 -0.0111 11.9885 -0.0154 C15.8461 -0.0246 19.7036 -0.021 23.5612 -0.0147 C27.5983 -0.0096 31.6354 -0.0143 35.6725 -0.0175 C42.4557 -0.0211 49.239 -0.0163 56.0223 -0.0068 C63.8595 0.0041 71.6965 0.0006 79.5337 -0.0104 C86.2633 -0.0195 92.9929 -0.0208 99.7226 -0.0156 C103.7413 -0.0124 107.76 -0.012 111.7788 -0.0186 C115.5602 -0.0244 119.3415 -0.0204 123.1229 -0.0088 C124.5088 -0.0062 125.8947 -0.0069 127.2806 -0.0114 C129.1766 -0.0168 131.0727 -0.0087 132.9688 0 C134.0286 0.0008 135.0885 0.0015 136.1804 0.0023 C139.4366 0.276 142.126 1.1053 145.1749 2.254 C145.1749 2.914 145.1749 3.574 145.1749 4.254 C145.7317 4.3777 146.2886 4.5015 146.8624 4.629 C153.36 6.3851 156.685 9.356 161.1749 14.254 C161.8967 15.0171 162.6186 15.7802 163.3624 16.5665 C168.5162 24.2085 169.8199 31.677 169.6749 40.754 C169.6826 41.238 169.6826 41.238 169.7217 43.6876 C169.6845 50.6238 168.1741 56.0163 165.1749 62.254 C164.5149 62.254 163.8549 62.254 163.1749 62.254 C162.8938 62.8456 162.6128 63.4373 162.3233 64.0469 C158.1565 72.0545 151.2402 76.5372 143.1749 80.254 C140.36 80.9813 138.0981 81.1978 135.1749 81.254 C135.8349 80.594 136.4949 79.934 137.1749 79.254 C138.4949 79.254 139.8149 79.254 141.1749 79.254 C141.1749 78.594 141.1749 77.934 141.1749 77.254 C138.5349 77.584 135.8949 77.914 133.1749 78.254 C134.1749 76.254 134.1749 76.254 136.0655 75.5782 C136.8441 75.3681 137.6227 75.158 138.4249 74.9415 C142.8655 73.5266 145.1214 71.8699 148.1749 68.254 C148.764 67.6185 149.3531 66.983 149.96 66.3282 C155.8684 59.886 155.8684 59.886 157.1749 55.254 C157.3437 54.7325 157.3437 54.7325 158.1983 52.0938 C159.2089 48.1199 159.5217 44.45 159.4874 40.379 C159.4845 40.0273 159.4845 40.0273 159.4703 38.2479 C159.239 28.3311 155.83 19.7012 148.5811 12.7188 C146.8448 11.3798 145.095 10.3112 143.1749 9.254 C142.5381 8.8621 141.9013 8.4702 141.2452 8.0665 C135.1883 4.9626 129.0967 4.8347 122.4249 4.754 C121.5133 4.7355 120.6018 4.7171 119.6626 4.6981 C113.8706 4.7518 110.6477 5.5217 106.1749 9.254 C105.8449 9.089 105.8449 9.089 104.1749 8.254 C107.9249 5.254 107.9249 5.254 110.1749 5.254 C110.1749 4.594 110.1749 3.934 110.1749 3.254 C118.7549 3.254 127.3349 3.254 136.1749 3.254 C136.1749 2.594 136.1749 1.934 136.1749 1.254 C88.3249 1.584 40.4749 1.914 -8.8251 2.254 C-5.3667 -0.0516 -4.0757 0.0029 0 0 Z " fill="#DED8CA" transform="translate(1214.8251495361328,103.74603271484375)"/>
<path d="M0 0 C0 0.66 0 1.32 0 2 C0.66 2 1.32 2 2 2 C2 2.66 2 3.32 2 4 C3.32 4.33 4.64 4.66 6 5 C0.6667 7.6667 -4.6667 10.3333 -10 13 C-10 13.66 -10 14.32 -10 15 C-10.66 15 -11.32 15 -12 15 C-13.5811 18.111 -15.055 21.2611 -16.5 24.4375 C-16.9228 25.3643 -17.3456 26.2912 -17.7812 27.2461 C-18.1834 28.1549 -18.5856 29.0637 -19 30 C-19.3687 30.7477 -19.7373 31.4953 -20.1172 32.2656 C-21.4018 36.2446 -21.4675 40.1546 -21.625 44.3125 C-21.6637 45.1485 -21.7023 45.9844 -21.7422 46.8457 C-21.836 48.8968 -21.919 50.9484 -22 53 C-21.34 53 -20.68 53 -20 53 C-19.7525 53.99 -19.505 54.98 -19.25 56 C-16.7587 64.4808 -12.6957 70.1884 -6 76 C-5.34 76.33 -4.68 76.66 -4 77 C-4 77.66 -4 78.32 -4 79 C-3.6081 79.0619 -3.6081 79.0619 -1.625 79.375 C1 80 1 80 3 82 C1.35 82 -0.3 82 -2 82 C-2 81.34 -2 80.68 -2 80 C-2.495 80.165 -2.495 80.165 -5 81 C-5 80.01 -5 79.02 -5 78 C-5.66 78 -6.32 78 -7 78 C-7 78.66 -7 79.32 -7 80 C-8.32 79.67 -9.64 79.34 -11 79 C-10.34 80.32 -9.68 81.64 -9 83 C-12.9618 81.4603 -14.8978 78.9803 -17.5 75.6875 C-17.8764 75.2151 -17.8764 75.2151 -19.7812 72.8242 C-20.5134 71.8922 -21.2456 70.9602 -22 70 C-22.3532 69.5997 -22.3532 69.5997 -24.1406 67.5742 C-30.4793 58.7986 -31.0994 45.3481 -30 35 C-27.5675 23.1251 -21.0584 12.9432 -12 5 C-11.6597 4.7009 -11.6597 4.7009 -9.9375 3.1875 C-6.8809 1.3141 -3.6123 0 0 0 Z " fill="#4D4841" transform="translate(1200,101)"/>
<path d="M0 0 C0.66 0 1.32 0 2 0 C2 13.86 2 27.72 2 42 C1.34 42 0.68 42 0 42 C-0.1237 42.6188 -0.2475 43.2375 -0.375 43.875 C-1 46 -1 46 -3 48 C-5.1015 48.2484 -5.1015 48.2484 -7.7595 48.2461 C-8.7702 48.2501 -9.7809 48.2541 -10.8222 48.2582 C-11.9409 48.2523 -13.0595 48.2465 -14.2121 48.2405 C-15.3939 48.2422 -16.5758 48.2439 -17.7934 48.2457 C-21.0841 48.2484 -24.3745 48.2421 -27.6651 48.2321 C-31.2097 48.2235 -34.7543 48.2264 -38.299 48.2279 C-44.4437 48.229 -50.5884 48.2227 -56.7331 48.2115 C-65.6174 48.1952 -74.5016 48.19 -83.3859 48.1875 C-97.7989 48.1831 -112.212 48.1698 -126.625 48.1509 C-140.6286 48.1325 -154.6322 48.1184 -168.6357 48.1099 C-169.0671 48.1096 -169.0671 48.1096 -171.25 48.1083 C-175.5779 48.1057 -179.9057 48.1031 -184.2336 48.1006 C-220.1557 48.0799 -256.0779 48.0447 -292 48 C-292 47.67 -292 47.34 -292 47 C-291.3914 46.9986 -290.7827 46.9973 -290.1556 46.9959 C-254.1149 46.9153 -218.0743 46.8244 -182.0336 46.7199 C-177.7101 46.7074 -173.3865 46.695 -169.063 46.6826 C-168.2022 46.6802 -167.3414 46.6777 -166.4546 46.6751 C-152.5012 46.6354 -138.5478 46.6026 -124.5943 46.5725 C-110.2861 46.5414 -95.9779 46.5028 -81.6697 46.4572 C-72.8346 46.4293 -63.9995 46.4073 -55.1643 46.3927 C-49.1129 46.3822 -43.0615 46.3644 -37.0101 46.3408 C-33.5142 46.3274 -30.0184 46.3173 -26.5225 46.3158 C-22.7396 46.3125 -18.957 46.2971 -15.1741 46.2785 C-14.0593 46.2804 -12.9446 46.2823 -11.796 46.2843 C-10.7888 46.2769 -9.7816 46.2694 -8.7439 46.2617 C-7.8698 46.2594 -6.9957 46.2572 -6.0951 46.2548 C-4 46 -4 46 -2 44 C-1.1062 41.2738 -0.858 38.7308 -0.7947 35.874 C-0.7747 35.0735 -0.7548 34.273 -0.7342 33.4482 C-0.7175 32.5939 -0.7008 31.7396 -0.6836 30.8594 C-0.6732 30.4183 -0.6732 30.4183 -0.6206 28.1861 C-0.5554 25.3741 -0.4963 22.5621 -0.4375 19.75 C-0.3943 17.8411 -0.3507 15.9323 -0.3066 14.0234 C-0.1997 9.3491 -0.0984 4.6746 0 0 Z " fill="#B1ACA1" transform="translate(1228,206)"/>
<path d="M0 0 C1.4201 -0.0057 2.8402 -0.0127 4.2603 -0.0208 C8.0995 -0.0387 11.9384 -0.0376 15.7775 -0.0319 C18.9928 -0.0288 22.2081 -0.0349 25.4234 -0.0409 C33.0163 -0.0549 40.6092 -0.0534 48.2021 -0.042 C56.0093 -0.0305 63.8161 -0.0446 71.6232 -0.0714 C78.348 -0.0936 85.0726 -0.1002 91.7974 -0.0943 C95.804 -0.091 99.8104 -0.0933 103.817 -0.1106 C107.5896 -0.1261 111.3617 -0.122 115.1343 -0.1033 C117.1597 -0.0979 119.1851 -0.112 121.2104 -0.127 C129.1983 -0.0633 139.3187 0.1944 145.5454 5.9412 C145.9858 6.4239 146.4261 6.9067 146.8799 7.4041 C147.7461 7.9197 148.6124 8.4353 149.5049 8.9666 C151.8799 10.4041 151.8799 10.4041 152.8799 12.4041 C151.2299 12.0741 149.5799 11.7441 147.8799 11.4041 C147.8799 10.7441 147.8799 10.0841 147.8799 9.4041 C147.2199 9.4041 146.5599 9.4041 145.8799 9.4041 C145.8799 10.0641 145.8799 10.7241 145.8799 11.4041 C145.2199 11.4041 144.5599 11.4041 143.8799 11.4041 C143.8799 12.3941 143.8799 13.3841 143.8799 14.4041 C141.8999 13.7441 139.9199 13.0841 137.8799 12.4041 C137.8799 11.7441 137.8799 11.0841 137.8799 10.4041 C137.0755 10.4247 136.2711 10.4453 135.4424 10.4666 C132.8799 10.4041 132.8799 10.4041 131.8799 9.4041 C130.0706 9.2954 128.2572 9.2572 126.4447 9.2458 C125.2653 9.236 124.086 9.2263 122.8709 9.2162 C121.5654 9.2104 120.2599 9.2047 118.9148 9.1987 C117.5354 9.1892 116.1559 9.1791 114.7765 9.1687 C111.0205 9.1416 107.2645 9.1206 103.5084 9.1007 C99.5873 9.0789 95.6661 9.0515 91.745 9.0247 C84.3148 8.9747 76.8846 8.9298 69.4543 8.8867 C60.9973 8.8373 52.5404 8.7824 44.0835 8.727 C26.6823 8.6131 9.2811 8.5062 -8.1201 8.4041 C-8.1201 8.0741 -8.1201 7.7441 -8.1201 7.4041 C38.7399 7.4041 85.5999 7.4041 133.8799 7.4041 C133.8799 8.0641 133.8799 8.7241 133.8799 9.4041 C134.6224 9.3628 135.3649 9.3216 136.1299 9.2791 C138.9675 9.408 140.4676 9.9746 142.8799 11.4041 C142.8799 10.7441 142.8799 10.0841 142.8799 9.4041 C143.5399 9.4041 144.1999 9.4041 144.8799 9.4041 C144.8799 8.7441 144.8799 8.0841 144.8799 7.4041 C143.8899 7.4041 142.8999 7.4041 141.8799 7.4041 C141.8799 6.7441 141.8799 6.0841 141.8799 5.4041 C140.2299 5.4041 138.5799 5.4041 136.8799 5.4041 C136.8799 4.7441 136.8799 4.0841 136.8799 3.4041 C130.0588 2.1428 123.2798 2.2563 116.3606 2.2588 C114.9932 2.2558 113.6259 2.2524 112.2586 2.2486 C108.5602 2.2398 104.8619 2.2374 101.1635 2.2368 C98.8496 2.2361 96.5357 2.2339 94.2218 2.2313 C86.1401 2.2221 78.0585 2.218 69.9768 2.2188 C62.4577 2.2194 54.9386 2.2088 47.4195 2.193 C40.9505 2.1799 34.4815 2.1746 28.0125 2.1752 C24.1547 2.1755 20.297 2.1726 16.4392 2.162 C12.8104 2.1523 9.1817 2.1523 5.5529 2.1595 C3.5959 2.1611 1.639 2.1528 -0.3179 2.1441 C-9.9577 2.1784 -9.9577 2.1784 -14.7232 3.4817 C-18.0566 4.3868 -19.0011 4.377 -22.1201 3.4041 C-14.7699 -0.073 -8.0411 -0.0275 0 0 Z " fill="#78746D" transform="translate(1222.1201171875,95.595947265625)"/>
<path d="M0 0 C0.841 0.2126 1.6819 0.4252 2.5484 0.6443 C11.3974 2.7315 19.5226 3.4174 28.6245 3.3406 C30.0256 3.3397 31.4266 3.3402 32.8277 3.3419 C36.5831 3.3428 40.3381 3.3253 44.0934 3.3042 C48.0358 3.2853 51.9782 3.2837 55.9207 3.2801 C63.3647 3.2708 70.8086 3.2463 78.2526 3.2161 C86.7364 3.1824 95.2202 3.166 103.7041 3.151 C121.1362 3.1197 138.5681 3.0671 156 3 C156 3.66 156 4.32 156 5 C152.8884 6.0372 150.7204 6.1333 147.4565 6.1472 C146.303 6.1543 145.1495 6.1615 143.9611 6.1689 C142.6942 6.1715 141.4272 6.1742 140.1218 6.177 C138.7747 6.1833 137.4275 6.1899 136.0803 6.1969 C131.6512 6.218 127.2221 6.2283 122.793 6.2383 C121.2644 6.2423 119.7358 6.2464 118.2072 6.2506 C111.0172 6.2697 103.8272 6.2839 96.6372 6.2922 C88.3637 6.302 80.0904 6.3282 71.817 6.3687 C65.4082 6.399 58.9996 6.4137 52.5908 6.417 C48.7707 6.4194 44.9508 6.4281 41.1308 6.4535 C37.5265 6.477 33.9227 6.4809 30.3184 6.4707 C28.3888 6.47 26.4592 6.4889 24.5297 6.5088 C15.6923 6.457 8.3253 4.7921 0 2 C0 1.34 0 0.68 0 0 Z " fill="#C4C2C1" transform="translate(1198,189)"/>
<path d="M0 0 C36.494 -0.0915 72.988 -0.162 109.4821 -0.2043 C113.788 -0.2093 118.094 -0.2144 122.3999 -0.2197 C122.8285 -0.2203 122.8285 -0.2203 124.9977 -0.2229 C138.8883 -0.2403 152.7789 -0.2719 166.6695 -0.3086 C180.9168 -0.346 195.1639 -0.3682 209.4112 -0.3764 C218.2064 -0.3818 227.0015 -0.3992 235.7967 -0.4317 C241.8234 -0.4528 247.85 -0.4592 253.8767 -0.454 C257.3568 -0.4514 260.8365 -0.4554 264.3164 -0.4768 C268.0857 -0.4966 271.8541 -0.492 275.6234 -0.481 C276.7284 -0.4927 277.8335 -0.5043 278.972 -0.5163 C279.9797 -0.5084 280.9874 -0.5004 282.0256 -0.4922 C282.8959 -0.4937 283.7663 -0.4952 284.663 -0.4968 C287.7498 0.1594 288.9818 1.6471 291 4 C289.35 3.67 287.7 3.34 286 3 C286 2.34 286 1.68 286 1 C191.62 1 97.24 1 0 1 C0 0.67 0 0.34 0 0 Z " fill="#B0ABA0" transform="translate(936,200)"/>
<path d="M0 0 C0 0.66 0 1.32 0 2 C-4.0555 3.5121 -7.4099 4.2487 -11.7328 4.2405 C-12.8517 4.2433 -13.9706 4.246 -15.1234 4.2488 C-16.3361 4.2416 -17.5489 4.2345 -18.7983 4.2271 C-19.4425 4.2272 -19.4425 4.2272 -22.7024 4.2279 C-26.2227 4.2285 -29.7428 4.2168 -33.263 4.2028 C-36.9465 4.1903 -40.6301 4.1891 -44.3136 4.1867 C-51.2833 4.1805 -58.253 4.1641 -65.2226 4.144 C-73.1597 4.1217 -81.0968 4.1107 -89.0339 4.1006 C-105.356 4.0798 -121.678 4.0446 -138 4 C-138 3.34 -138 2.68 -138 2 C-137.3319 1.9958 -136.6637 1.9915 -135.9753 1.9872 C-119.7348 1.884 -103.4944 1.7754 -87.2539 1.6607 C-79.4003 1.6053 -71.5466 1.5518 -63.6929 1.5027 C-56.8494 1.4598 -50.0059 1.4136 -43.1625 1.3631 C-39.5373 1.3365 -35.9121 1.3117 -32.2869 1.2909 C-28.2448 1.2677 -24.2027 1.2369 -20.1606 1.2053 C-19.5564 1.2024 -19.5564 1.2024 -16.4988 1.1879 C-15.4022 1.1781 -14.3056 1.1683 -13.1758 1.1582 C-12.6974 1.155 -12.6974 1.155 -10.2764 1.1387 C-6.6943 0.9205 -3.7941 -0.0825 0 0 Z " fill="#EFEBE1" transform="translate(1356,181)"/>
<path d="M0 0 C1.3955 2.791 0.5838 4.7322 -0.207 7.6406 C-2.4584 14.3393 -5.0258 19.9674 -11 24 C-11.7838 24.8044 -12.5675 25.6087 -13.375 26.4375 C-16.4375 29.4271 -19.3743 31.7172 -23 34 C-23.99 33.67 -24.98 33.34 -26 33 C-25.34 33 -24.68 33 -24 33 C-24 32.34 -24 31.68 -24 31 C-24.99 31.33 -25.98 31.66 -27 32 C-27 31.34 -27 30.68 -27 30 C-28.65 30 -30.3 30 -32 30 C-30.5927 27.1854 -28.7642 26.8375 -25.9375 25.5 C-20.3448 22.5726 -17.1804 19.0818 -13.5586 13.9766 C-13.3014 13.6504 -13.3014 13.6504 -12 12 C-11.34 12 -10.68 12 -10 12 C-9.8763 11.2369 -9.7525 10.4737 -9.625 9.6875 C-9 7 -9 7 -7 4 C-6.67 5.32 -6.34 6.64 -6 8 C-5.01 7.01 -4.02 6.02 -3 5 C-3 5.66 -3 6.32 -3 7 C-2.34 7 -1.68 7 -1 7 C-1.0206 6.0306 -1.0412 5.0613 -1.0625 4.0625 C-1 1 -1 1 0 0 Z " fill="#555049" transform="translate(1390,154)"/>
<path d="M0 0 C0.8757 2.6272 0.9885 4.6333 0.9375 7.4375 C0.8483 13.371 1.9779 19.1736 3 25 C3.0722 25.4641 3.0722 25.4641 3.4375 27.8125 C4 30 4 30 6.0625 31.3125 C6.7019 31.5394 7.3412 31.7663 8 32 C8.66 30.68 9.32 29.36 10 28 C9.34 28 8.68 28 8 28 C8 26.02 8 24.04 8 22 C7.34 22 6.68 22 6 22 C6 15.07 6 8.14 6 1 C6.66 0.67 7.32 0.34 8 0 C7.67 6.6 7.34 13.2 7 20 C7.66 20 8.32 20 9 20 C9.2475 20.99 9.495 21.98 9.75 23 C12.2413 31.4808 16.3043 37.1884 23 43 C23.66 43.33 24.32 43.66 25 44 C25 44.66 25 45.32 25 46 C25.3919 46.0619 25.3919 46.0619 27.375 46.375 C30 47 30 47 32 49 C30.35 49 28.7 49 27 49 C27 48.34 27 47.68 27 47 C26.505 47.165 26.505 47.165 24 48 C24 47.01 24 46.02 24 45 C23.34 45 22.68 45 22 45 C22 45.66 22 46.32 22 47 C20.68 46.67 19.36 46.34 18 46 C18.66 47.32 19.32 48.64 20 50 C16.0382 48.4603 14.1022 45.9803 11.5 42.6875 C10.7472 41.7426 9.9944 40.7977 9.2188 39.8242 C8.4866 38.8922 7.7544 37.9602 7 37 C6.6468 36.5997 6.6468 36.5997 4.8594 34.5742 C-1.5854 25.6518 -1.8546 12.5769 -1 2 C-0.67 1.34 -0.34 0.68 0 0 Z " fill="#646059" transform="translate(1171,134)"/>
<path d="M0 0 C0.66 0 1.32 0 2 0 C2 0.99 2 1.98 2 3 C2.66 3 3.32 3 4 3 C4.0427 4.6661 4.0406 6.3338 4 8 C3.67 8.33 3.34 8.66 3 9 C2.8431 10.5595 2.7492 12.1254 2.6836 13.6914 C2.6417 14.6356 2.5998 15.5799 2.5566 16.5527 C2.5173 17.546 2.478 18.5392 2.4375 19.5625 C2.4159 20.061 2.4159 20.061 2.3066 22.584 C2.2002 25.0558 2.0982 27.5278 2 30 C2.66 30 3.32 30 4 30 C4 31.98 4 33.96 4 36 C4.66 36 5.32 36 6 36 C5.625 37.9375 5.625 37.9375 5 40 C4.67 40.165 4.67 40.165 3 41 C-2.9323 35.8766 -3.3988 27.366 -4 20 C-3.9698 14.6486 -3.5058 9.3243 -3 4 C-2.01 4 -1.02 4 0 4 C0 2.68 0 1.36 0 0 Z " fill="#3A342E" transform="translate(1175,126)"/>
<path d="M0 0 C0.66 0 1.32 0 2 0 C1.4359 5.0767 -2.3019 7.57 -6.0039 10.6875 C-10.085 13.9343 -10.085 13.9343 -12 15 C-12.99 14.67 -13.98 14.34 -15 14 C-14.34 14 -13.68 14 -13 14 C-13 13.34 -13 12.68 -13 12 C-13.99 12.33 -14.98 12.66 -16 13 C-16 12.34 -16 11.68 -16 11 C-17.65 11 -19.3 11 -21 11 C-18.8454 6.6909 -12.5132 4.739 -8.3125 2.6875 C-5.4702 1.8425 -2.9482 1.8629 0 2 C0 1.34 0 0.68 0 0 Z " fill="#4B4640" transform="translate(1379,173)"/>
<path d="M0 0 C0.66 0 1.32 0 2 0 C2.0544 2.6878 2.0939 5.3744 2.125 8.0625 C2.1418 8.8147 2.1585 9.5668 2.1758 10.3418 C2.2187 15.2933 1.584 19.3041 0 24 C-0.99 23.67 -1.98 23.34 -3 23 C-3.99 23.99 -4.98 24.98 -6 26 C-6.332 20.7982 -5.5043 17.0253 -3.7266 12.1406 C-2.8198 9.4692 -2.4524 6.7792 -2 4 C-0.9375 1.625 -0.9375 1.625 0 0 Z " fill="#3D3831" transform="translate(1389,137)"/>
<path d="M0 0 C0.4589 0.3983 0.9178 0.7966 1.3906 1.207 C6.6535 5.7512 6.6535 5.7512 9.4375 7.75 C9.9531 8.1625 10.4688 8.575 11 9 C11 9.66 11 10.32 11 11 C11.7838 11.1238 12.5675 11.2475 13.375 11.375 C16 12 16 12 18 14 C16.35 14 14.7 14 13 14 C13 13.34 13 12.68 13 12 C12.01 12.33 11.02 12.66 10 13 C10 12.01 10 11.02 10 10 C9.34 10 8.68 10 8 10 C8 10.66 8 11.32 8 12 C6.68 11.67 5.36 11.34 4 11 C4.66 12.32 5.32 13.64 6 15 C2.204 13.5087 0.2828 11.3427 -2 8 C-2 4.796 -1.2566 2.906 0 0 Z " fill="#524D46" transform="translate(1185,169)"/>
<path d="M0 0 C0.66 0 1.32 0 2 0 C2 13.86 2 27.72 2 42 C1.34 42 0.68 42 0 42 C-0.0825 42.6188 -0.165 43.2375 -0.25 43.875 C-1 46 -1 46 -3.0625 47.25 C-3.7019 47.4975 -4.3412 47.745 -5 48 C-4.5256 47.4225 -4.0512 46.845 -3.5625 46.25 C-1.2468 42.9155 -0.8832 39.8721 -0.7947 35.874 C-0.7747 35.0735 -0.7548 34.273 -0.7342 33.4482 C-0.7259 33.021 -0.7259 33.021 -0.6836 30.8594 C-0.6628 29.9772 -0.642 29.095 -0.6206 28.1861 C-0.5554 25.3741 -0.4963 22.5621 -0.4375 19.75 C-0.3943 17.8411 -0.3507 15.9323 -0.3066 14.0234 C-0.1997 9.3491 -0.0984 4.6746 0 0 Z " fill="#CECBC4" transform="translate(1228,206)"/>
<path d="M0 0 C0.3094 0.6394 0.6188 1.2788 0.9375 1.9375 C2 4 2 4 3 5 C3.0869 6.5617 3.107 8.1273 3.0977 9.6914 C3.0944 10.6356 3.0912 11.5799 3.0879 12.5527 C3.0795 13.546 3.0711 14.5392 3.0625 15.5625 C3.058 16.5596 3.0535 17.5567 3.0488 18.584 C3.037 21.056 3.0205 23.528 3 26 C2.67 26 2.34 26 2 26 C2 20.39 2 14.78 2 9 C1.34 9 0.68 9 0 9 C0.0412 9.9075 0.0825 10.815 0.125 11.75 C0.0001 14.9973 -0.4141 16.2687 -2 19 C-2.6797 20.6614 -3.3494 22.327 -4 24 C-4.33 24 -4.66 24 -5 24 C-5 18.72 -5 13.44 -5 8 C-4.01 7.67 -3.02 7.34 -2 7 C-0.8125 3.4375 -0.8125 3.4375 0 0 Z " fill="#625D57" transform="translate(1389,128)"/>
<path d="M0 0 C0 0.66 0 1.32 0 2 C0.66 2 1.32 2 2 2 C2 2.66 2 3.32 2 4 C3.32 4.33 4.64 4.66 6 5 C-0.75 9 -0.75 9 -3 9 C-3.33 7.35 -3.66 5.7 -4 4 C-4.99 4 -5.98 4 -7 4 C-7.0516 4.2991 -7.0516 4.2991 -7.3125 5.8125 C-8.1232 8.392 -8.8426 9.3819 -11 11 C-12.665 11.3415 -14.3318 11.6745 -16 12 C-18.3125 13.5625 -18.3125 13.5625 -20 15 C-18.4664 11.2683 -16.2201 9.0661 -13.25 6.375 C-12.4095 5.599 -11.5691 4.823 -10.7031 4.0234 C-7.4058 1.5552 -4.1787 0 0 0 Z " fill="#5C5751" transform="translate(1200,101)"/>
<path d="M0 0 C3.2894 4.9341 4.3576 7.7522 4.3125 13.625 C4.309 14.3441 4.3056 15.0633 4.302 15.8042 C4.1375 23.8636 1.71 29.9027 -2 37 C-2.2887 37.8869 -2.5775 38.7738 -2.875 39.6875 C-4.3467 42.7126 -5.9715 43.6372 -9 45 C-9.66 44.67 -10.32 44.34 -11 44 C-10.4457 43.4083 -9.8914 42.8166 -9.3203 42.207 C-8.5959 41.4168 -7.8714 40.6266 -7.125 39.8125 C-6.4057 39.0352 -5.6864 38.2579 -4.9453 37.457 C-2.9584 34.9475 -1.9949 33.0249 -1 30 C-0.8163 29.4534 -0.8163 29.4534 0.1133 26.6875 C1.0663 22.7242 1.2611 19.0453 1.1875 15 C1.1869 14.3271 1.1862 13.6542 1.1855 12.9609 C1.1472 8.543 0.7076 4.3472 0 0 Z " fill="#D8BD84" transform="translate(1373,129)"/>
<path d="M0 0 C0.33 0.66 0.66 1.32 1 2 C0.5785 2.4963 0.157 2.9926 -0.2773 3.5039 C-3.9598 8.0701 -5.7546 11.1102 -6 17 C-6.66 17 -7.32 17 -8 17 C-7.221 34.8565 -7.221 34.8565 -5 43 C-5.99 42.67 -6.98 42.34 -8 42 C-10.8326 28.9246 -11.0155 18.2538 -5 6 C-3.4351 3.8729 -1.7733 1.965 0 0 Z " fill="#D5B572" transform="translate(1311,119)"/>
<path d="M0 0 C2.31 0 4.62 0 7 0 C7 0.66 7 1.32 7 2 C8.65 2 10.3 2 12 2 C12 2.66 12 3.32 12 4 C12.99 4 13.98 4 15 4 C15 4.66 15 5.32 15 6 C14.34 6 13.68 6 13 6 C13 6.66 13 7.32 13 8 C11.515 7.67 11.515 7.67 4 6 C4 5.34 4 4.68 4 4 C1.36 4 -1.28 4 -4 4 C-4 3.34 -4 2.68 -4 2 C-2.68 2 -1.36 2 0 2 C0 1.34 0 0.68 0 0 Z " fill="#3A352E" transform="translate(1352,99)"/>
<path d="M0 0 C0.66 0 1.32 0 2 0 C2 0.66 2 1.32 2 2 C2.9281 2.0825 3.8563 2.165 4.8125 2.25 C8 3 8 3 9.875 5.0625 C10.0606 5.3822 10.0606 5.3822 11 7 C10.01 7.66 9.02 8.32 8 9 C7.67 9.495 7.67 9.495 6 12 C4.6579 10.9065 3.3265 9.7998 2 8.6875 C1.2575 8.0726 0.515 7.4577 -0.25 6.8242 C-2 5 -2 5 -2 2 C-1.34 2 -0.68 2 0 2 C0 1.34 0 0.68 0 0 Z " fill="#433E37" transform="translate(1368,105)"/>
<path d="M0 0 C0.33 0 0.66 0 1 0 C1.33 2.97 1.66 5.94 2 9 C2.33 9 2.66 9 3 9 C3.33 14.94 3.66 20.88 4 27 C-0.3792 22.6208 -0.6548 21.8561 -1 16 C-0.9632 13.1758 -0.7866 10.3775 -0.5625 7.5625 C-0.5364 7.1967 -0.5364 7.1967 -0.4043 5.3457 C-0.2762 3.5633 -0.139 1.7816 0 0 Z " fill="#49443E" transform="translate(1172,130)"/>
</svg>
