<?xml version="1.0" encoding="UTF-8"?>
<!-- Generator: visioncortex VTracer 0.6.12 -->
<svg version="1.1" xmlns="http://www.w3.org/2000/svg" width="1600" height="474">
<path d="M0 0 C528 0 1056 0 1600 0 C1600 156.42 1600 312.84 1600 474 C1072 474 544 474 0 474 C0 317.58 0 161.16 0 0 Z " fill="#FEFEFE" transform="translate(0,0)"/>
<path d="M0 0 C4.1742 3.0611 7.7137 6.5639 11.3477 10.2383 C12.0502 10.9331 12.7527 11.6279 13.4766 12.3438 C27.3298 26.2494 30.4797 42.3293 30.4714 61.4189 C30.3373 72.4431 28.0217 81.0058 22.2227 90.3633 C21.9958 90.7809 21.9958 90.7809 20.8477 92.8945 C17.4642 98.9995 13.6866 103.0748 8.2227 107.3633 C7.0962 108.3408 5.9711 109.3198 4.8477 110.3008 C2.2227 112.3633 2.2227 112.3633 0.2227 112.3633 C0.2227 113.0233 0.2227 113.6833 0.2227 114.3633 C-14.0272 123.6423 -32.0726 125.1318 -48.5938 122.832 C-55.014 121.4373 -60.9234 119.3432 -66.7773 116.3633 C-66.7773 115.7033 -66.7773 115.0433 -66.7773 114.3633 C-67.7467 114.1983 -68.7161 114.0333 -69.7148 113.8633 C-80.469 110.6521 -88.1411 98.4875 -93.7773 89.3633 C-95.3892 86.0827 -96.6243 82.8224 -97.7773 79.3633 C-98.1073 79.0333 -98.4373 78.7033 -98.7773 78.3633 C-99.145 76.0351 -99.4798 73.7014 -99.7773 71.3633 C-100.382 71.3633 -100.9868 71.3634 -101.6098 71.3635 C-167.4312 71.3706 -233.2527 71.3704 -299.0741 71.3313 C-300.057 71.3307 -301.0399 71.3302 -302.0526 71.3296 C-323.4124 71.3169 -344.7722 71.3029 -366.132 71.2875 C-376.6066 71.28 -387.0811 71.2727 -397.5557 71.2656 C-398.598 71.2649 -399.6404 71.2642 -400.7143 71.2635 C-434.5127 71.2406 -468.311 71.2371 -502.1093 71.2438 C-536.8355 71.2505 -571.5617 71.2376 -606.2878 71.2 C-611.1903 71.1947 -616.0928 71.1897 -620.9953 71.1847 C-621.9602 71.1837 -622.9251 71.1828 -623.9192 71.1818 C-639.4645 71.1666 -655.0097 71.1721 -670.5549 71.1853 C-686.1753 71.1982 -701.7955 71.1893 -717.4158 71.1581 C-726.7013 71.1403 -735.9865 71.1392 -745.272 71.1619 C-751.4717 71.1754 -757.6711 71.1673 -763.8707 71.1415 C-767.4053 71.1273 -770.9392 71.1227 -774.4738 71.1445 C-778.2802 71.1678 -782.0856 71.1448 -785.892 71.1172 C-786.9909 71.1313 -788.0897 71.1455 -789.2218 71.1601 C-795.5964 71.0667 -799.3847 70.0433 -804.3414 65.9602 C-806.6589 63.3829 -806.8427 61.3267 -806.7773 57.9258 C-806.798 56.8546 -806.8186 55.7834 -806.8398 54.6797 C-805.2439 49.6982 -802.2115 47.0539 -797.7773 44.3633 C-793.8017 43.3836 -789.9715 43.424 -785.892 43.4863 C-784.7043 43.4766 -783.5166 43.4668 -782.2929 43.4567 C-778.9981 43.4367 -775.7062 43.448 -772.4116 43.4725 C-768.8272 43.4914 -765.2429 43.4696 -761.6585 43.453 C-755.3774 43.4296 -749.0967 43.432 -742.8157 43.4515 C-733.476 43.4803 -724.1367 43.469 -714.7971 43.4495 C-699.0863 43.4178 -683.3756 43.4186 -667.6647 43.438 C-652.1082 43.457 -636.5518 43.4616 -620.9953 43.447 C-620.0282 43.4461 -619.061 43.4451 -618.0646 43.4442 C-613.1531 43.4395 -608.2417 43.4346 -603.3302 43.4296 C-568.5388 43.3944 -533.7475 43.3917 -498.9561 43.408 C-465.1559 43.4237 -431.3558 43.4248 -397.5557 43.406 C-396.5139 43.4054 -395.4721 43.4049 -394.3987 43.4043 C-383.9366 43.3985 -373.4744 43.3924 -363.0123 43.3861 C-341.6996 43.3733 -320.3868 43.3625 -299.0741 43.3529 C-298.5841 43.3527 -298.5841 43.3527 -296.1046 43.3515 C-230.6622 43.3221 -165.2198 43.3391 -99.7773 43.3633 C-99.5862 42.5565 -99.395 41.7497 -99.198 40.9185 C-98.9393 39.851 -98.6806 38.7834 -98.4141 37.6836 C-98.161 36.6293 -97.9079 35.575 -97.6472 34.4888 C-95.1787 25.6195 -90.1504 17.963 -83.7773 11.3633 C-82.7873 11.0333 -81.7973 10.7033 -80.7773 10.3633 C-80.7773 9.7033 -80.7773 9.0433 -80.7773 8.3633 C-80.1173 8.3633 -79.4573 8.3633 -78.7773 8.3633 C-78.7773 7.7033 -78.7773 7.0433 -78.7773 6.3633 C-77.168 4.8555 -77.168 4.8555 -75.0273 3.2383 C-74.3312 2.6995 -73.6352 2.1606 -72.918 1.6055 C-70.7773 0.3633 -70.7773 0.3633 -66.7773 0.3633 C-66.7773 -0.2967 -66.7773 -0.9567 -66.7773 -1.6367 C-63.3754 -3.7302 -60.7246 -3.8161 -56.7773 -3.6367 C-56.7773 -4.2967 -56.7773 -4.9567 -56.7773 -5.6367 C-38.377 -11.8069 -16.7856 -9.8919 0 0 Z " fill="#443F38" transform="translate(934.77734375,179.63671875)"/>
<path d="M0 0 C2.4967 1.9973 4.2543 3.4798 5.8125 6.25 C5.8125 7.57 5.8125 8.89 5.8125 10.25 C69.1725 10.25 132.5325 10.25 197.8125 10.25 C197.8125 10.91 197.8125 11.57 197.8125 12.25 C198.4313 12.3531 199.05 12.4563 199.6875 12.5625 C201.8125 13.25 201.8125 13.25 203.8125 16.25 C204.1133 19.4297 204.1133 19.4297 204.125 23.125 C204.1418 24.3393 204.1585 25.5536 204.1758 26.8047 C203.7705 30.6487 203.3024 32.3073 200.8125 35.25 C198.0135 35.752 195.8133 35.9054 193.0108 35.8513 C192.2079 35.8555 191.4049 35.8598 190.5777 35.8642 C187.8778 35.8725 185.1795 35.8449 182.4797 35.8176 C180.5483 35.8162 178.6168 35.817 176.6854 35.8198 C171.4334 35.8213 166.182 35.7918 160.9302 35.757 C155.4449 35.7258 149.9596 35.7228 144.4743 35.7168 C134.0832 35.7013 123.6924 35.6602 113.3015 35.6101 C101.4734 35.5543 89.6452 35.5267 77.817 35.5016 C53.482 35.4493 29.1473 35.3613 4.8125 35.25 C4.8246 36.1497 4.8367 37.0494 4.8492 37.9763 C6.0022 123.9124 6.0022 123.9124 5.9978 156.4719 C5.9977 160.8209 6.0121 165.1698 6.0286 169.5187 C6.0396 172.999 6.0417 176.4793 6.0412 179.9596 C6.0424 181.5715 6.0467 183.1834 6.0545 184.7953 C6.0643 186.9746 6.0615 189.1535 6.0554 191.3328 C6.0568 192.5549 6.0583 193.7769 6.0597 195.0361 C5.71 199.5823 4.4356 202.3737 1.8125 206.0625 C-2.4471 209.1685 -6.0832 208.696 -11.1875 208.25 C-11.1875 207.59 -11.1875 206.93 -11.1875 206.25 C-11.4866 206.1263 -11.4866 206.1263 -13 205.5 C-15.6189 204.0035 -16.6408 202.8441 -18.1875 200.25 C-18.5862 197.2621 -18.5862 197.2621 -18.6199 193.6912 C-18.625 193.3612 -18.625 193.3612 -18.6507 191.6913 C-18.6812 189.4699 -18.6902 187.2489 -18.6992 185.0273 C-18.7164 183.4192 -18.7347 181.8111 -18.7542 180.203 C-18.8032 175.7909 -18.8327 171.3789 -18.8579 166.9665 C-18.8808 163.2507 -18.9132 159.535 -18.9454 155.8193 C-19.0416 144.555 -19.1027 133.2908 -19.155 122.0262 C-19.1822 116.1858 -19.215 110.3455 -19.2489 104.5051 C-19.3266 91.0145 -19.3819 77.5238 -19.4167 64.033 C-19.4293 59.2187 -19.448 54.4045 -19.4718 49.5903 C-19.4991 43.8791 -19.5112 38.168 -19.5118 32.4566 C-19.5143 30.3418 -19.522 28.227 -19.5351 26.1122 C-19.5521 23.2095 -19.5504 20.3073 -19.5439 17.4045 C-19.5532 16.5589 -19.5624 15.7133 -19.5719 14.8421 C-19.5311 9.0936 -18.4095 5.0517 -14.75 0.4375 C-10.3122 -2.9352 -4.6841 -2.5716 0 0 Z " fill="#C99731" transform="translate(1255.1875,133.75)"/>
<path d="M0 0 C0.8946 -0.0077 1.7892 -0.0155 2.7109 -0.0234 C11.6963 0.0027 19.0727 1.1981 26.5625 6.3125 C26.8592 6.5099 26.8592 6.5099 28.3606 7.509 C35.9834 12.6988 42.6479 17.7841 46.625 26.25 C48.4255 29.2337 50.2556 32.1965 52.1016 35.1523 C57.5853 46.3025 55.1263 60.3447 51.5 71.7148 C51.2113 72.5514 50.9225 73.388 50.625 74.25 C49.965 74.25 49.305 74.25 48.625 74.25 C48.5013 74.8069 48.3775 75.3637 48.25 75.9375 C46.7598 81.4512 44.7886 84.2846 40.625 88.25 C40.0681 89.0337 39.5113 89.8175 38.9375 90.625 C34.635 95.509 28.6448 99.7041 22.625 102.25 C21.635 102.25 20.645 102.25 19.625 102.25 C19.625 102.91 19.625 103.57 19.625 104.25 C12.6316 106.0744 6.212 106.5563 -1 106.5 C-1.9977 106.5077 -2.9955 106.5155 -4.0234 106.5234 C-9.5339 106.5089 -14.1705 106.0869 -19.375 104.25 C-19.375 103.59 -19.375 102.93 -19.375 102.25 C-20.0556 102.1675 -20.7363 102.085 -21.4375 102 C-30.8484 99.5972 -39.3371 91.4703 -44.5513 83.438 C-46.7878 79.5045 -48.6164 75.4186 -50.375 71.25 C-50.6483 70.7099 -50.6483 70.7099 -52.0312 67.9766 C-53.7589 63.1854 -53.8675 58.991 -53.8125 53.9375 C-53.8078 53.0049 -53.8032 52.0722 -53.7983 51.1113 C-53.6541 44.4171 -52.635 39.1513 -49.375 33.25 C-48.6913 31.5902 -48.0206 29.925 -47.375 28.25 C-46.385 28.25 -45.395 28.25 -44.375 28.25 C-44.2925 26.9712 -44.21 25.6925 -44.125 24.375 C-43.8555 22.1484 -43.8555 22.1484 -43.375 20.25 C-41.4375 19 -41.4375 19 -39.375 18.25 C-38.6735 16.9347 -38.0097 15.5988 -37.375 14.25 C-34.7488 11.0402 -32.2061 9.5992 -28.3633 8.1016 C-25.351 6.8114 -22.5894 5.1153 -19.7812 3.4336 C-13.2548 0.2234 -7.1142 -0.061 0 0 Z " fill="#FDFDFD" transform="translate(899.375,183.75)"/>
<path d="M0 0 C0.33 0.165 0.33 0.165 2 1 C2.33 3.64 2.66 6.28 3 9 C47.715 9.165 47.715 9.165 274 10 C274.62 24.88 275.144 39.6288 275.0977 54.5 C275.0958 56.3266 275.0944 58.1532 275.0934 59.9797 C275.0896 64.6944 275.0799 69.409 275.0687 74.1236 C275.0583 78.9717 275.0538 83.8198 275.0488 88.668 C275.0382 98.112 275.0213 107.556 275 117 C274.67 117 274.34 117 274 117 C273.67 90.27 273.34 63.54 273 36 C228.45 35.835 228.45 35.835 3 35 C2.67 35.99 2.34 36.98 2 38 C2.0052 37.2846 2.0105 36.5691 2.0159 35.832 C2.0368 32.5547 2.0497 29.2774 2.0625 26 C2.0709 24.8746 2.0793 23.7493 2.0879 22.5898 C2.1105 14.8518 1.6579 7.5791 0 0 Z " fill="#D0CABD" transform="translate(962,215)"/>
<path d="M0 0 C64.02 0 128.04 0 194 0 C194 0.33 194 0.66 194 1 C130.64 1 67.28 1 2 1 C2 18.82 2 36.64 2 55 C5.0261 54.9843 5.0261 54.9843 20.3401 54.9048 C40.3129 54.8055 60.2857 54.7388 80.2588 54.6891 C92.3711 54.6582 104.4832 54.616 116.5955 54.5474 C127.1522 54.4876 137.7088 54.4489 148.2658 54.4355 C153.8559 54.4276 159.4455 54.4093 165.0355 54.3656 C170.2977 54.3249 175.5592 54.3123 180.8216 54.3214 C182.7521 54.3197 184.6827 54.3078 186.6131 54.2848 C189.2521 54.2549 191.8885 54.2621 194.5275 54.2785 C195.2892 54.261 196.0509 54.2435 196.8356 54.2255 C202.0451 54.3127 204.7474 55.8187 208.5713 59.3222 C210.823 61.9665 211.8687 64.3579 212.5625 67.75 C211.7161 72.6401 208.6524 75.7442 205 79 C204.34 79 203.68 79 203 79 C203 79.66 203 80.32 203 81 C136.67 81 70.34 81 2 81 C2 108.39 2 135.78 2 164 C1.34 164.33 0.68 164.66 0 165 C0 110.55 0 56.1 0 0 Z " fill="#D1C9B7" transform="translate(1260,169)"/>
<path d="M0 0 C2.0899 1.1831 4.0577 2.4249 5.7656 4.1328 C5.9228 5.7654 6.0165 7.4042 6.082 9.043 C6.1239 10.0323 6.1658 11.0217 6.209 12.041 C6.2483 13.0819 6.2876 14.1229 6.3281 15.1953 C6.3713 16.2401 6.4145 17.2849 6.459 18.3613 C6.5654 20.9517 6.6675 23.5421 6.7656 26.1328 C8.7456 27.1228 10.7256 28.1128 12.7656 29.1328 C14.1164 27.4383 15.4457 25.7265 16.7656 24.0078 C17.5081 23.0565 18.2506 22.1052 19.0156 21.125 C20.9879 17.7527 21.2414 15.9716 20.7656 12.1328 C19.2656 9.8828 19.2656 9.8828 17.7656 8.1328 C17.7656 7.4728 17.7656 6.8128 17.7656 6.1328 C17.1056 6.1328 16.4456 6.1328 15.7656 6.1328 C13.4691 3.5713 12.7656 2.6531 12.7656 -0.8672 C17.7806 -1.659 17.7806 -1.659 20.7656 -0.8672 C22.968 1.2798 24.605 3.5173 26.3203 6.0664 C27.7656 8.1328 27.7656 8.1328 29.7656 9.1328 C29.8481 8.5966 29.9306 8.0603 30.0156 7.5078 C31.1183 4.016 32.2836 1.863 34.7656 -0.8672 C37.8263 -1.3843 40.6919 -1.2218 43.7656 -0.8672 C43.2596 1.3016 42.7658 3.1325 41.7656 5.1328 C41.1056 5.1328 40.4456 5.1328 39.7656 5.1328 C39.4975 5.8753 39.2294 6.6178 38.9531 7.3828 C37.7656 10.1328 37.7656 10.1328 36.0781 12.0703 C34.7656 14.1328 34.7656 14.1328 35.0781 17.3828 C35.305 18.2903 35.5319 19.1978 35.7656 20.1328 C36.4256 20.1328 37.0856 20.1328 37.7656 20.1328 C39.457 22.1797 39.457 22.1797 41.3281 24.8828 C41.9482 25.7645 42.5682 26.6463 43.207 27.5547 C44.5923 29.846 45.3204 31.5222 45.7656 34.1328 C42.2861 34.6898 39.222 34.9043 35.7656 34.1328 C33.0079 31.5151 31.2486 28.6231 29.7656 25.1328 C29.7656 24.1428 29.7656 23.1528 29.7656 22.1328 C26.7656 23.1328 26.7656 23.1328 25.4492 25.3828 C25.038 26.2903 24.6268 27.1978 24.2031 28.1328 C21.9699 33.0307 21.9699 33.0307 19.7656 34.1328 C18.3901 34.2159 17.0108 34.2402 15.6328 34.2305 C14.8271 34.2272 14.0215 34.224 13.1914 34.2207 C12.7705 34.2165 12.7705 34.2165 10.6406 34.1953 C10.2159 34.1931 10.2159 34.1931 8.0664 34.1816 C5.9661 34.1698 3.8659 34.1519 1.7656 34.1328 C1.7656 33.4728 1.7656 32.8128 1.7656 32.1328 C1.1056 32.1328 0.4456 32.1328 -0.2344 32.1328 C-0.5644 31.4728 -0.8944 30.8128 -1.2344 30.1328 C-3.7259 30.5777 -5.037 30.9501 -6.9219 32.6953 C-10.5582 34.9558 -14.0711 34.6374 -18.2344 34.1328 C-21.2344 33.2578 -21.2344 33.2578 -23.2344 31.1328 C-24.4018 26.6797 -24.6012 22.6001 -23.4844 18.1328 C-22.2344 16.1328 -22.2344 16.1328 -19.2344 14.1328 C-16.491 13.6751 -13.807 13.3019 -11.0469 13.0078 C-10.2973 12.9214 -9.5477 12.8351 -8.7754 12.7461 C-6.9292 12.5344 -5.0819 12.3327 -3.2344 12.1328 C-4.1094 6.2578 -4.1094 6.2578 -5.2344 5.1328 C-8.1719 4.8828 -8.1719 4.8828 -11.2344 5.1328 C-11.5644 5.6278 -11.5644 5.6278 -13.2344 8.1328 C-16.8594 8.3203 -16.8594 8.3203 -20.2344 8.1328 C-19.4265 4.828 -18.7688 2.65 -16.2969 0.2578 C-11.0674 -1.6632 -5.2648 -2.0433 0 0 Z " fill="#CA9A36" transform="translate(1372.234375,285.8671875)"/>
<path d="M0 0 C2.64 0 5.28 0 8 0 C8 0.66 8 1.32 8 2 C10.6523 3.0753 13.2837 4.0946 16 5 C16.2887 4.3606 16.5775 3.7212 16.875 3.0625 C18 1 18 1 20 0 C22.6724 -0.1342 25.3225 -0.0432 28 0 C28 0.66 28 1.32 28 2 C28.7838 2.2887 29.5675 2.5775 30.375 2.875 C33 4 33 4 35 6 C35.2429 8.8733 35.2429 8.8733 35.2305 12.5039 C35.2285 13.8013 35.2266 15.0988 35.2246 16.4355 C35.2215 16.7739 35.2215 16.7739 35.2058 18.4861 C35.1875 20.5579 35.1853 22.6293 35.1855 24.7012 C35.1401 34.8599 35.1401 34.8599 34 36 C31.36 36 28.72 36 26 36 C26 27.42 26 18.84 26 10 C25.34 10 24.68 10 24 10 C24 9.34 24 8.68 24 8 C21.69 8.33 19.38 8.66 17 9 C16.11 12.0937 15.8276 14.9546 15.7188 18.168 C15.6814 19.1431 15.644 20.1183 15.6055 21.123 C15.5348 23.1777 15.4644 25.2324 15.3945 27.2871 C15.3571 28.2584 15.3198 29.2297 15.2812 30.2305 C15.2661 30.676 15.2661 30.676 15.1895 32.9304 C15 35 15 35 14 36 C11.3294 36.1412 8.6757 36.0425 6 36 C5.9749 35.2939 5.9499 34.5878 5.9241 33.8604 C5.8079 30.6567 5.6853 27.4534 5.5625 24.25 C5.5232 23.1388 5.4839 22.0277 5.4434 20.8828 C5.4015 19.8129 5.3596 18.743 5.3164 17.6406 C5.2797 16.6561 5.2431 15.6716 5.2053 14.6572 C5.024 12.3108 4.6567 10.2528 4 8 C0.625 8.3125 0.625 8.3125 -3 9 C-5.1916 12.2875 -5.2868 13.4849 -5.4141 17.3242 C-5.4334 17.8382 -5.4334 17.8382 -5.5312 20.4395 C-5.5622 21.5113 -5.5931 22.5832 -5.625 23.6875 C-5.6443 24.2292 -5.6443 24.2292 -5.7422 26.9707 C-5.8365 29.647 -5.9221 32.3232 -6 35 C-8.64 35 -11.28 35 -14 35 C-14 24.11 -14 13.22 -14 2 C-11.36 2 -8.72 2 -6 2 C-6 3.32 -6 4.64 -6 6 C-5.34 6 -4.68 6 -4 6 C-3.34 4.68 -2.68 3.36 -2 2 C-1.34 2 -0.68 2 0 2 C0 1.34 0 0.68 0 0 Z " fill="#CEA145" transform="translate(1308,284)"/>
<path d="M0 0 C66.8171 0.0782 133.6341 0.1576 200.4512 0.2437 C200.9452 0.2443 200.9452 0.2443 203.4454 0.2475 C224.9165 0.2752 246.3876 0.303 267.8587 0.3311 C278.3873 0.3449 288.916 0.3586 299.4446 0.3723 C300.4923 0.3737 301.5401 0.375 302.6196 0.3764 C336.6124 0.4207 370.6051 0.4617 404.5979 0.501 C439.5147 0.5414 474.4314 0.585 509.3481 0.6328 C514.2739 0.6396 519.1997 0.6463 524.1255 0.6529 C524.6103 0.6536 524.6103 0.6536 527.0635 0.6569 C542.7031 0.6781 558.3427 0.6957 573.9823 0.7121 C589.6854 0.7287 605.3884 0.7488 621.0915 0.7727 C630.4339 0.7868 639.7763 0.798 649.1187 0.8054 C655.3474 0.8105 661.576 0.8193 667.8047 0.831 C671.3614 0.8376 674.9181 0.8425 678.4748 0.8432 C682.2929 0.8439 686.111 0.8522 689.9292 0.8613 C691.0512 0.8603 692.1732 0.8593 693.3292 0.8582 C694.3363 0.8619 695.3434 0.8656 696.381 0.8694 C697.2556 0.8705 698.1301 0.8716 699.0312 0.8727 C701 1 701 1 702 2 C702.0408 3.9996 702.0425 6.0005 702 8 C702.66 8 703.32 8 704 8 C704 9.98 704 11.96 704 14 C700.8309 10.5553 700.5477 7.557 700 3 C699.3944 2.9994 698.7887 2.9989 698.1647 2.9983 C632.2595 2.9377 566.3544 2.8747 500.4492 2.7987 C499.4655 2.7975 498.4817 2.7964 497.4682 2.7952 C476.0918 2.7706 454.7153 2.7455 433.3389 2.7199 C422.8566 2.7074 412.3744 2.695 401.8921 2.6826 C400.849 2.6814 399.8058 2.6802 398.7311 2.6789 C364.8908 2.6389 331.0505 2.6054 297.2102 2.5753 C262.4488 2.5443 227.6874 2.5068 192.926 2.4611 C188.0216 2.4546 183.1172 2.4483 178.2128 2.4419 C177.2475 2.4407 176.2822 2.4394 175.2876 2.4382 C159.7189 2.4182 144.1502 2.4052 128.5814 2.3947 C112.9478 2.384 97.3141 2.3662 81.6805 2.3408 C72.3805 2.326 63.0806 2.3168 53.7806 2.3154 C47.5789 2.314 41.3773 2.3054 35.1756 2.2908 C31.6351 2.2827 28.0947 2.2779 24.5542 2.2817 C20.7518 2.2858 16.9495 2.2746 13.147 2.2617 C12.0324 2.2654 10.9179 2.269 9.7695 2.2728 C9.267 2.2698 9.267 2.2698 6.724 2.2548 C5.8533 2.2539 4.9826 2.2529 4.0856 2.252 C2 2 2 2 0 0 Z " fill="#8B8881" transform="translate(135,248)"/>
<path d="M0 0 C-0.66 0 -1.32 0 -2 0 C-2 0.66 -2 1.32 -2 2 C-68.33 2 -134.66 2 -203 2 C-202.67 1.34 -202.34 0.68 -202 0 C-176.2531 -0.1538 -150.5062 -0.3019 -124.7593 -0.443 C-112.805 -0.5086 -100.8507 -0.5762 -88.8965 -0.6482 C-78.4793 -0.711 -68.0621 -0.7702 -57.6449 -0.8251 C-52.1271 -0.8543 -46.6094 -0.8853 -41.0917 -0.9205 C-35.9011 -0.9537 -30.7105 -0.982 -25.5199 -1.0067 C-23.6123 -1.0166 -21.7047 -1.0283 -19.7972 -1.0418 C-17.1974 -1.06 -14.5977 -1.072 -11.9979 -1.0823 C-11.6185 -1.0857 -11.6185 -1.0857 -9.6986 -1.1029 C-6.3218 -1.1101 -3.2269 -1.0645 0 0 Z " fill="#DDD8CF" transform="translate(1465,248)"/>
<path d="M0 0 C0.2991 0.2449 0.2991 0.2449 1.8125 1.4844 C0.9089 1.4496 0.0052 1.4148 -0.9258 1.3789 C-1.5155 1.3654 -1.5155 1.3654 -4.5 1.2969 C-5.6718 1.2621 -6.8435 1.2273 -8.0508 1.1914 C-11.1875 1.4844 -11.1875 1.4844 -13.043 2.5586 C-15.9286 7.414 -15.3347 13.895 -15.3279 19.4052 C-15.3309 20.1727 -15.3339 20.9402 -15.3369 21.7309 C-15.3456 24.2865 -15.3471 26.8419 -15.3486 29.3975 C-15.3533 31.236 -15.3583 33.0745 -15.3637 34.913 C-15.3768 39.894 -15.3832 44.875 -15.3877 49.8561 C-15.3906 52.9673 -15.3947 56.0785 -15.3992 59.1897 C-15.4129 68.9228 -15.4225 78.6559 -15.4264 88.389 C-15.4309 99.6289 -15.4485 110.8687 -15.4774 122.1085 C-15.499 130.7982 -15.5091 139.4879 -15.5104 148.1776 C-15.5115 153.3683 -15.5174 158.5589 -15.5353 163.7495 C-15.5517 168.6251 -15.5539 173.5004 -15.5451 178.376 C-15.5443 180.168 -15.5487 181.9599 -15.5586 183.7518 C-15.5712 186.1919 -15.5655 188.6313 -15.555 191.0715 C-15.563 191.7856 -15.5711 192.4997 -15.5794 193.2354 C-15.5306 198.0702 -15.5306 198.0702 -13.6645 200.3227 C-13.1771 200.706 -12.6897 201.0894 -12.1875 201.4844 C-12.1875 202.1444 -12.1875 202.8044 -12.1875 203.4844 C-8.6446 205.6101 -5.2427 205.9587 -1.1875 206.4844 C-0.5275 206.8144 0.1325 207.1444 0.8125 207.4844 C-0.1875 208.4844 -0.1875 208.4844 -2.4727 208.582 C-2.9309 208.5762 -2.9309 208.5762 -5.25 208.5469 C-6.1691 208.5379 -7.0882 208.5288 -8.0352 208.5195 C-8.7454 208.5079 -9.4557 208.4963 -10.1875 208.4844 C-10.1875 207.8244 -10.1875 207.1644 -10.1875 206.4844 C-10.4866 206.3606 -10.4866 206.3606 -12 205.7344 C-14.6189 204.2379 -15.6408 203.0784 -17.1875 200.4844 C-17.5862 197.4964 -17.5862 197.4964 -17.6199 193.9255 C-17.625 193.5956 -17.625 193.5956 -17.6507 191.9256 C-17.6812 189.7043 -17.6902 187.4833 -17.6992 185.2617 C-17.7164 183.6536 -17.7347 182.0455 -17.7542 180.4374 C-17.8032 176.0253 -17.8327 171.6132 -17.8579 167.2009 C-17.8808 163.4851 -17.9132 159.7694 -17.9454 156.0536 C-18.0416 144.7894 -18.1027 133.5251 -18.155 122.2606 C-18.1822 116.4202 -18.215 110.5799 -18.2489 104.7395 C-18.3266 91.2488 -18.3819 77.7582 -18.4167 64.2674 C-18.4293 59.4531 -18.448 54.6389 -18.4718 49.8247 C-18.4991 44.1134 -18.5112 38.4023 -18.5118 32.691 C-18.5143 30.5762 -18.522 28.4614 -18.5351 26.3466 C-18.5521 23.4438 -18.5504 20.5417 -18.5439 17.6389 C-18.5532 16.7933 -18.5624 15.9477 -18.5719 15.0765 C-18.5311 9.328 -17.4095 5.2861 -13.75 0.6719 C-9.8687 -2.2779 -4.01 -2.7783 0 0 Z " fill="#D6B26A" transform="translate(1254.1875,133.515625)"/>
<path d="M0 0 C0.33 0.66 0.66 1.32 1 2 C-1.64 2.165 -1.64 2.165 -15 3 C-15 3.66 -15 4.32 -15 5 C-14.4644 4.9942 -14.4644 4.9942 -11.7539 4.9648 C-10.3568 4.9555 -8.9596 4.9464 -7.5625 4.9375 C-6.8554 4.9291 -6.1484 4.9207 -5.4199 4.9121 C-3.6131 4.9035 -1.8061 4.9478 0 5 C0.33 5.33 0.66 5.66 1 6 C0.9106 7.5252 0.7546 9.0468 0.5625 10.5625 C0.4607 11.3888 0.3588 12.2151 0.2539 13.0664 C0.1701 13.7045 0.0863 14.3426 0 15 C1.32 15.33 2.64 15.66 4 16 C4.33 17.32 4.66 18.64 5 20 C4.34 20 3.68 20 3 20 C2.67 19.34 2.34 18.68 2 18 C-0.4915 18.4449 -1.8027 18.8173 -3.6875 20.5625 C-7.3239 22.8229 -10.8367 22.5046 -15 22 C-18 21.125 -18 21.125 -20 19 C-21.1674 14.5469 -21.3668 10.4673 -20.25 6 C-19 4 -19 4 -16 2 C-13.2566 1.5423 -10.5726 1.1691 -7.8125 0.875 C-7.0629 0.7886 -6.3133 0.7023 -5.541 0.6133 C-3.6948 0.4016 -1.8475 0.1998 0 0 Z " fill="#CFA349" transform="translate(1369,298)"/>
<path d="M0 0 C2.64 0 5.28 0 8 0 C8.9912 7.4563 8.9776 14.6249 8.5625 22.125 C8.5103 23.1769 8.4581 24.2287 8.4043 25.3125 C8.2762 27.8754 8.1413 30.4378 8 33 C5.36 33 2.72 33 0 33 C0 22.11 0 11.22 0 0 Z " fill="#C99832" transform="translate(1294,286)"/>
<path d="M0 0 C2.0899 1.1831 4.0577 2.4249 5.7656 4.1328 C5.9107 5.7423 5.9927 7.3576 6.0469 8.9727 C6.0843 9.953 6.1216 10.9333 6.1602 11.9434 C6.1776 12.4593 6.1776 12.4593 6.2656 15.0703 C6.3344 17.1004 6.4071 19.1304 6.4844 21.1602 C6.5147 22.065 6.545 22.9698 6.5762 23.9021 C6.7656 26.1328 6.7656 26.1328 7.7656 28.1328 C6.7756 28.1328 5.7856 28.1328 4.7656 28.1328 C4.7656 21.2028 4.7656 14.2728 4.7656 7.1328 C3.7756 7.4628 2.7856 7.7928 1.7656 8.1328 C0.5781 10.6953 0.5781 10.6953 -0.2344 13.1328 C-3.4817 11.5091 -3.9359 8.3789 -5.2344 5.1328 C-8.1094 4.9453 -8.1094 4.9453 -11.2344 5.1328 C-11.5644 5.6278 -11.5644 5.6278 -13.2344 8.1328 C-16.8594 8.3203 -16.8594 8.3203 -20.2344 8.1328 C-19.4265 4.828 -18.7688 2.65 -16.2969 0.2578 C-11.0674 -1.6632 -5.2648 -2.0433 0 0 Z " fill="#CEA246" transform="translate(1372.234375,285.8671875)"/>
<path d="M0 0 C0.66 0.33 1.32 0.66 2 1 C1.34 2.65 0.68 4.3 0 6 C3.375 5.6875 3.375 5.6875 7 5 C7.66 4.01 8.32 3.02 9 2 C11.9375 1.5625 11.9375 1.5625 15 2 C16.9375 3.6875 16.9375 3.6875 18 6 C17.67 7.65 17.34 9.3 17 11 C12.38 11.33 7.76 11.66 3 12 C3.66 11.67 4.32 11.34 5 11 C5 10.34 5 9.68 5 9 C4.5153 9.0103 4.5153 9.0103 2.0625 9.0625 C-1 9 -1 9 -2 8 C-1.28 1.28 -1.28 1.28 0 0 Z " fill="#F0E3C8" transform="translate(1352,288)"/>
<path d="M0 0 C0.66 0.33 1.32 0.66 2 1 C2 1.66 2 2.32 2 3 C2.66 3 3.32 3 4 3 C5.6914 5.0469 5.6914 5.0469 7.5625 7.75 C8.1825 8.6317 8.8026 9.5134 9.4414 10.4219 C10.8266 12.7132 11.5547 14.3894 12 17 C8.5203 17.557 5.4558 17.7765 2 17 C-0.7245 14.366 -2.4666 11.4533 -4 8 C-4 7.34 -4 6.68 -4 6 C-3.01 6 -2.02 6 -1 6 C-1 5.34 -1 4.68 -1 4 C-0.34 4 0.32 4 1 4 C0.67 2.68 0.34 1.36 0 0 Z " fill="#D1A750" transform="translate(1406,303)"/>
<path d="M0 0 C0.66 0 1.32 0 2 0 C1.4929 3.7189 0.8839 6.7345 -1 10 C-0.34 10 0.32 10 1 10 C1 10.66 1 11.32 1 12 C0.34 12 -0.32 12 -1 12 C-1 12.99 -1 13.98 -1 15 C-0.01 15 0.98 15 2 15 C0.25 19.875 0.25 19.875 -2 21 C-3.3755 21.0831 -4.7549 21.1074 -6.1328 21.0977 C-6.9385 21.0944 -7.7441 21.0912 -8.5742 21.0879 C-9.416 21.0795 -10.2577 21.0711 -11.125 21.0625 C-11.9745 21.058 -12.824 21.0535 -13.6992 21.0488 C-15.7995 21.037 -17.8998 21.0191 -20 21 C-20 20.67 -20 20.34 -20 20 C-18.845 19.835 -18.845 19.835 -13 19 C-12.67 18.01 -12.34 17.02 -12 16 C-12.66 15.67 -13.32 15.34 -14 15 C-12.35 15.33 -10.7 15.66 -9 16 C-7.6768 14.279 -6.3669 12.5478 -5.0625 10.8125 C-4.3316 9.8496 -3.6007 8.8866 -2.8477 7.8945 C-1.0705 5.1104 -0.3735 3.2433 0 0 Z " fill="#D5B062" transform="translate(1394,299)"/>
<path d="M0 0 C0.33 0 0.66 0 1 0 C1.0059 1.0206 1.0117 2.0413 1.0178 3.0928 C1.0749 12.7017 1.1477 22.3103 1.2357 31.919 C1.2805 36.8591 1.3197 41.7992 1.3464 46.7395 C1.3724 51.5053 1.4128 56.2708 1.4632 61.0364 C1.4799 62.8565 1.4914 64.6766 1.4976 66.4967 C1.5072 69.0422 1.5352 71.5868 1.5676 74.1321 C1.5662 74.8881 1.5648 75.644 1.5633 76.4229 C1.6564 81.58 1.6564 81.58 3.527 83.8667 C4.0131 84.2407 4.4992 84.6147 5 85 C5 85.66 5 86.32 5 87 C8.5429 89.1257 11.9448 89.4743 16 90 C16.66 90.33 17.32 90.66 18 91 C17 92 17 92 14.7148 92.0977 C13.7983 92.0861 12.8818 92.0745 11.9375 92.0625 C11.4779 92.058 11.4779 92.058 9.1523 92.0352 C8.7972 92.0294 8.7972 92.0294 7 92 C7 91.34 7 90.68 7 90 C6.7009 89.8763 6.7009 89.8763 5.1875 89.25 C2.5132 87.7218 1.5323 86.6918 0 84 C-0.2751 81.2012 -0.3797 78.6306 -0.3406 75.835 C-0.341 75.0151 -0.3415 74.1952 -0.3419 73.3505 C-0.3398 70.6449 -0.3165 67.9399 -0.293 65.2344 C-0.2874 63.3568 -0.2831 61.4792 -0.2801 59.6016 C-0.2687 54.663 -0.2392 49.7246 -0.206 44.7861 C-0.1753 39.7455 -0.1616 34.7048 -0.1465 29.6641 C-0.1143 19.7759 -0.0631 9.888 0 0 Z " fill="#D2A854" transform="translate(1237,250)"/>
<path d="M0 0 C3.3 0 6.6 0 10 0 C10.66 1.98 11.32 3.96 12 6 C11.34 6 10.68 6 10 6 C10 4.68 10 3.36 10 2 C7.36 2 4.72 2 2 2 C2 12.89 2 23.78 2 35 C4.64 35 7.28 35 10 35 C10 35.33 10 35.66 10 36 C8.5209 36.0269 7.0417 36.0463 5.5625 36.0625 C4.7388 36.0741 3.9151 36.0857 3.0664 36.0977 C1 36 1 36 0 35 C-0.0885 32.4064 -0.1153 29.8396 -0.0977 27.2461 C-0.0969 26.8584 -0.0969 26.8584 -0.0934 24.8963 C-0.0878 22.41 -0.0752 19.9238 -0.0625 17.4375 C-0.0575 15.7559 -0.0529 14.0742 -0.0488 12.3926 C-0.0378 8.2617 -0.0205 4.1309 0 0 Z " fill="#ECDBB9" transform="translate(1292,284)"/>
<path d="M0 0 C0.4041 0.0135 0.4041 0.0135 2.4492 0.082 C3.0641 0.1168 3.679 0.1516 4.3125 0.1875 C4.3125 1.8375 4.3125 3.4875 4.3125 5.1875 C3.6525 5.1875 2.9925 5.1875 2.3125 5.1875 C2.3125 6.1775 2.3125 7.1675 2.3125 8.1875 C-0.9112 10.3367 -1.9545 10.5704 -5.6875 10.1875 C-7.6875 8.1875 -7.6875 8.1875 -8 5.75 C-7.6875 3.1875 -7.6875 3.1875 -6.4609 1.5391 C-4.1657 -0.2102 -2.8502 -0.1239 0 0 Z " fill="#F7F0E2" transform="translate(1365.6875,303.8125)"/>
<path d="M0 0 C1.5821 0.0067 3.1641 0.0186 4.7461 0.0352 C5.5524 0.0397 6.3587 0.0442 7.1895 0.0488 C9.1875 0.0607 11.1856 0.0786 13.1836 0.0977 C13.1836 0.7577 13.1836 1.4177 13.1836 2.0977 C10.3143 3.5323 7.4518 3.4253 4.2773 3.6211 C2.1836 4.0977 2.1836 4.0977 0.1836 7.0977 C-3.4414 7.2852 -3.4414 7.2852 -6.8164 7.0977 C-4.5887 0.1174 -4.5887 0.1174 0 0 Z " fill="#C8962E" transform="translate(1358.81640625,286.90234375)"/>
<path d="M0 0 C5.3327 5.7964 4.323 14.5525 4.3008 21.9766 C4.0021 28.2538 2.0389 34.0928 0 40 C-0.33 40 -0.66 40 -1 40 C-1.1629 36.6604 -1.0442 34.1354 0 30.9375 C2.9661 21.3451 0.8242 9.8173 0 0 Z " fill="#B3B1AF" transform="translate(950,218)"/>
</svg>
