<?xml version="1.0" encoding="UTF-8"?>
<!-- Generator: visioncortex VTracer 0.6.12 -->
<svg version="1.1" xmlns="http://www.w3.org/2000/svg" width="1600" height="474">
<path d="M0 0 C528 0 1056 0 1600 0 C1600 156.42 1600 312.84 1600 474 C1072 474 544 474 0 474 C0 317.58 0 161.16 0 0 Z " fill="#FEFEFE" transform="translate(0,0)"/>
<path d="M0 0 C0.4813 -0.0007 0.4813 -0.0007 2.9169 -0.0042 C6.1558 -0.0077 9.3946 -0.0041 12.6335 -0.0005 C14.9837 -0.0015 17.3339 -0.003 19.6841 -0.0049 C24.8169 -0.008 29.9497 -0.008 35.0825 -0.0052 C42.7664 -0.0011 50.4503 -0.0028 58.1343 -0.0056 C71.2294 -0.0102 84.3244 -0.01 97.4195 -0.0073 C110.6928 -0.0046 123.966 -0.004 137.2392 -0.0061 C138.0771 -0.0062 138.915 -0.0063 139.7782 -0.0064 C143.1906 -0.007 146.6029 -0.0075 150.0153 -0.0081 C181.8109 -0.0134 213.6065 -0.0137 245.4021 -0.0109 C246.3446 -0.0109 247.2871 -0.0108 248.2582 -0.0107 C248.7302 -0.0107 248.7302 -0.0107 251.1187 -0.0104 C279.8563 -0.0079 308.5939 -0.0073 337.3315 -0.0085 C339.2546 -0.0085 341.1776 -0.0086 343.1006 -0.0087 C350.828 -0.009 358.5553 -0.0093 366.2827 -0.0097 C387.8848 -0.0106 409.4869 -0.0111 431.089 -0.0114 C432.0728 -0.0115 433.0565 -0.0115 434.0701 -0.0115 C465.425 -0.0119 496.7799 -0.0108 528.1348 -0.0086 C528.6434 -0.0086 528.6434 -0.0086 531.2173 -0.0084 C547.7373 -0.0072 564.2573 -0.006 580.7773 -0.0048 C646.3088 0.0001 711.8402 -0.0002 777.3717 -0.005 C793.8869 -0.0062 810.402 -0.0075 826.9172 -0.0086 C827.934 -0.0087 828.9508 -0.0087 829.9985 -0.0088 C861.3228 -0.011 892.6472 -0.0119 923.9716 -0.0114 C924.9546 -0.0114 925.9376 -0.0114 926.9504 -0.0114 C948.5264 -0.0111 970.1025 -0.0105 991.6786 -0.0095 C999.3982 -0.0092 1007.1178 -0.0089 1014.8374 -0.0086 C1016.7579 -0.0085 1018.6785 -0.0084 1020.599 -0.0083 C1049.3327 -0.0072 1078.0664 -0.0082 1106.8001 -0.0107 C1107.2715 -0.0107 1107.2715 -0.0107 1109.6569 -0.0109 C1110.5979 -0.011 1111.5389 -0.0111 1112.5085 -0.0112 C1144.2073 -0.014 1175.9061 -0.0129 1207.605 -0.0077 C1211.005 -0.0071 1214.4051 -0.0066 1217.8051 -0.0061 C1218.2224 -0.006 1218.2224 -0.006 1220.3338 -0.0057 C1233.5757 -0.0037 1246.8176 -0.0051 1260.0595 -0.0078 C1273.063 -0.0105 1286.0665 -0.0096 1299.0701 -0.0048 C1306.7047 -0.0021 1314.3392 -0.0022 1321.9738 -0.0063 C1327.6251 -0.009 1333.2764 -0.0066 1338.9277 -0.002 C1341.212 -0.001 1343.4963 -0.0017 1345.7806 -0.0042 C1348.8625 -0.0074 1351.9443 -0.0045 1355.0262 0 C1355.9212 -0.0024 1356.8161 -0.0048 1357.7382 -0.0072 C1358.5556 -0.0048 1359.373 -0.0023 1360.2152 0.0002 C1360.5665 0.0002 1360.5665 0.0002 1362.3444 0.0003 C1364.4403 0.1326 1366.3076 0.5557 1368.3251 1.1253 C1368.3251 1.7853 1368.3251 2.4453 1368.3251 3.1253 C1368.9026 3.2078 1369.4801 3.2903 1370.0751 3.3753 C1372.979 4.3433 1374.3625 5.8123 1376.3251 8.1253 C1376.3251 8.7853 1376.3251 9.4453 1376.3251 10.1253 C1376.9851 10.1253 1377.6451 10.1253 1378.3251 10.1253 C1378.3251 11.4453 1378.3251 12.7653 1378.3251 14.1253 C1378.9851 14.1253 1379.6451 14.1253 1380.3251 14.1253 C1380.3952 34.0835 1380.4481 54.0417 1380.4805 74 C1380.496 83.2672 1380.5171 92.5343 1380.5514 101.8014 C1380.5813 109.8795 1380.6007 117.9575 1380.6074 126.0357 C1380.6113 130.3122 1380.6204 134.5886 1380.6423 138.8651 C1380.6627 142.8927 1380.6689 146.9201 1380.6644 150.9478 C1380.6652 152.4236 1380.6712 153.8994 1380.6827 155.3751 C1380.7951 170.5077 1380.7951 170.5077 1375.8251 177.1214 C1371.6584 181.1253 1371.6584 181.1253 1368.3251 181.1253 C1368.3251 181.7853 1368.3251 182.4453 1368.3251 183.1253 C1363.8947 185.3403 1359.7897 185.382 1354.9457 185.3172 C1354.5299 185.3158 1354.5299 185.3158 1352.4256 185.3087 C1350.6239 185.3023 1348.8223 185.2917 1347.0206 185.2775 C1344.1606 185.2579 1341.3011 185.2558 1338.4411 185.2594 C1330.3107 185.269 1322.1808 185.2696 1314.0507 185.2045 C1309.0713 185.1658 1304.0933 185.1664 1299.1139 185.192 C1297.225 185.1944 1295.336 185.1825 1293.4473 185.1554 C1281.5172 184.9916 1274.4684 185.7472 1265.3251 194.1253 C1254.6142 201.1161 1241.7312 201.4911 1229.3251 201.5003 C1228.1802 201.5019 1227.0354 201.5034 1225.8558 201.505 C1216.7552 201.386 1209.4221 200.3425 1201.3251 196.1253 C1199.8912 195.6965 1198.4533 195.2809 1197.0126 194.8753 C1193.2865 193.7348 1191.4516 192.3397 1188.7654 189.5703 C1181.5193 183.8513 1172.3651 185.1722 1163.5929 185.2568 C1161.5485 185.2508 1159.5041 185.2417 1157.4598 185.2299 C1151.8252 185.2062 1146.1915 185.2262 1140.5569 185.2532 C1134.4334 185.2747 1128.31 185.2557 1122.1865 185.2417 C1111.4488 185.2228 1100.7114 185.2297 1089.9737 185.2539 C1078.4525 185.2797 1066.9314 185.2903 1055.4101 185.2821 C1055.0463 185.2818 1055.0463 185.2818 1053.2049 185.2805 C1049.4942 185.2779 1045.7835 185.2749 1042.0728 185.2719 C1015.2132 185.2505 988.3537 185.2625 961.4941 185.2917 C934.8885 185.3205 908.283 185.3335 881.6774 185.3258 C880.8511 185.3256 880.0247 185.3254 879.1734 185.3251 C870.7837 185.3227 862.3941 185.32 854.0044 185.3171 C836.0842 185.3108 818.164 185.3068 800.2438 185.3039 C799.3894 185.3037 798.535 185.3036 797.6547 185.3034 C756.987 185.2968 716.3193 185.3133 675.6516 185.3335 C671.1527 185.3357 666.6538 185.3379 662.1549 185.3401 C661.7091 185.3404 661.7091 185.3404 659.4531 185.3415 C649.5288 185.3464 639.6046 185.3512 629.6804 185.356 C628.7858 185.3564 627.8913 185.3569 626.9696 185.3573 C585.4013 185.3774 543.833 185.3877 502.2648 185.394 C499.5667 185.3944 496.8687 185.3948 494.1707 185.3952 C453.537 185.4015 412.9033 185.4038 372.2695 185.3997 C370.5454 185.3995 368.8214 185.3993 367.0973 185.3991 C351.7449 185.3976 336.3926 185.3959 321.0402 185.3935 C310.9731 185.3919 300.9061 185.3906 290.839 185.3896 C290.0138 185.3895 289.1885 185.3894 288.3383 185.3893 C260.0953 185.3868 231.8523 185.3995 203.6093 185.4188 C186.827 185.4303 170.0448 185.4401 153.2625 185.4421 C152.8805 185.4422 152.8805 185.4422 150.9475 185.4424 C143.3662 185.4432 135.7849 185.4436 128.2035 185.4432 C124.5052 185.443 120.8069 185.443 117.1086 185.443 C116.7461 185.443 116.7461 185.443 114.9117 185.443 C103.4198 185.4434 91.9279 185.454 80.436 185.4689 C69.1434 185.4833 57.8509 185.4869 46.5583 185.4798 C40.5145 185.4763 34.4709 185.4776 28.4271 185.4922 C22.9338 185.5054 17.4407 185.5048 11.9475 185.4932 C9.9679 185.4915 7.9884 185.4948 6.0089 185.5037 C3.3271 185.5151 0.646 185.508 -2.0357 185.4963 C-2.8017 185.504 -3.5677 185.5117 -4.357 185.5196 C-10.8628 185.4573 -16.2512 184.0105 -21.4874 179.9378 C-27.5776 172.1076 -27.1067 163.8212 -27.0631 154.315 C-27.0672 152.8211 -27.0725 151.3271 -27.079 149.8332 C-27.0927 145.7939 -27.0874 141.7548 -27.0779 137.7154 C-27.0703 133.4769 -27.0773 129.2384 -27.0821 124.9998 C-27.0875 117.8824 -27.0803 110.765 -27.066 103.6476 C-27.0497 95.4348 -27.055 87.2223 -27.0715 79.0096 C-27.0852 71.9426 -27.087 64.8758 -27.0792 57.8088 C-27.0745 53.595 -27.0738 49.3812 -27.0838 45.1674 C-27.0925 41.2036 -27.0864 37.2401 -27.0691 33.2764 C-27.0652 31.8273 -27.0663 30.3781 -27.0729 28.929 C-27.144 11.8653 -27.144 11.8653 -22.0968 4.9691 C-21.5451 4.5257 -20.9934 4.0822 -20.4249 3.6253 C-19.8835 3.1613 -19.3421 2.6972 -18.7843 2.2191 C-13.2027 -0.6751 -6.1504 -0.0166 0 0 Z " fill="#DDD7CA" transform="translate(133.67491501569748,144.8746508359909)"/>
<path d="M0 0 C0.4813 -0.0007 0.4813 -0.0007 2.9169 -0.0042 C6.1558 -0.0077 9.3946 -0.0041 12.6335 -0.0005 C14.9837 -0.0015 17.3339 -0.003 19.6841 -0.0049 C24.8169 -0.008 29.9497 -0.008 35.0825 -0.0052 C42.7664 -0.0011 50.4503 -0.0028 58.1343 -0.0056 C71.2294 -0.0102 84.3244 -0.01 97.4195 -0.0073 C110.6928 -0.0046 123.966 -0.004 137.2392 -0.0061 C138.0771 -0.0062 138.915 -0.0063 139.7782 -0.0064 C143.1906 -0.007 146.6029 -0.0075 150.0153 -0.0081 C181.8109 -0.0134 213.6065 -0.0137 245.4021 -0.0109 C246.3446 -0.0109 247.2871 -0.0108 248.2582 -0.0107 C248.7302 -0.0107 248.7302 -0.0107 251.1187 -0.0104 C279.8563 -0.0079 308.5939 -0.0073 337.3315 -0.0085 C339.2546 -0.0085 341.1776 -0.0086 343.1006 -0.0087 C350.828 -0.009 358.5553 -0.0093 366.2827 -0.0097 C387.8848 -0.0106 409.4869 -0.0111 431.089 -0.0114 C432.0728 -0.0115 433.0565 -0.0115 434.0701 -0.0115 C465.425 -0.0119 496.7799 -0.0108 528.1348 -0.0086 C528.6434 -0.0086 528.6434 -0.0086 531.2173 -0.0084 C547.7373 -0.0072 564.2573 -0.006 580.7773 -0.0048 C646.3088 0.0001 711.8402 -0.0002 777.3717 -0.005 C793.8869 -0.0062 810.402 -0.0075 826.9172 -0.0086 C827.934 -0.0087 828.9508 -0.0087 829.9985 -0.0088 C861.3228 -0.011 892.6472 -0.0119 923.9716 -0.0114 C924.9546 -0.0114 925.9376 -0.0114 926.9504 -0.0114 C948.5264 -0.0111 970.1025 -0.0105 991.6786 -0.0095 C999.3982 -0.0092 1007.1178 -0.0089 1014.8374 -0.0086 C1016.7579 -0.0085 1018.6785 -0.0084 1020.599 -0.0083 C1049.3327 -0.0072 1078.0664 -0.0082 1106.8001 -0.0107 C1107.2715 -0.0107 1107.2715 -0.0107 1109.6569 -0.0109 C1110.5979 -0.011 1111.5389 -0.0111 1112.5085 -0.0112 C1144.2073 -0.014 1175.9061 -0.0129 1207.605 -0.0077 C1211.005 -0.0071 1214.4051 -0.0066 1217.8051 -0.0061 C1218.2224 -0.006 1218.2224 -0.006 1220.3338 -0.0057 C1233.5757 -0.0037 1246.8176 -0.0051 1260.0595 -0.0078 C1273.063 -0.0105 1286.0665 -0.0096 1299.0701 -0.0048 C1306.7047 -0.0021 1314.3392 -0.0022 1321.9738 -0.0063 C1327.6251 -0.009 1333.2764 -0.0066 1338.9277 -0.002 C1341.212 -0.001 1343.4963 -0.0017 1345.7806 -0.0042 C1348.8625 -0.0074 1351.9443 -0.0045 1355.0262 0 C1355.9212 -0.0024 1356.8161 -0.0048 1357.7382 -0.0072 C1358.5556 -0.0048 1359.373 -0.0023 1360.2152 0.0002 C1360.5665 0.0002 1360.5665 0.0002 1362.3444 0.0003 C1364.4403 0.1326 1366.3076 0.5557 1368.3251 1.1253 C1368.3251 1.7853 1368.3251 2.4453 1368.3251 3.1253 C1368.9026 3.2078 1369.4801 3.2903 1370.0751 3.3753 C1372.979 4.3433 1374.3625 5.8123 1376.3251 8.1253 C1376.3251 8.7853 1376.3251 9.4453 1376.3251 10.1253 C1376.9851 10.1253 1377.6451 10.1253 1378.3251 10.1253 C1378.3251 11.4453 1378.3251 12.7653 1378.3251 14.1253 C1378.9851 14.1253 1379.6451 14.1253 1380.3251 14.1253 C1380.3952 34.0835 1380.4481 54.0417 1380.4805 74 C1380.496 83.2672 1380.5171 92.5343 1380.5514 101.8014 C1380.5813 109.8795 1380.6007 117.9575 1380.6074 126.0357 C1380.6113 130.3122 1380.6204 134.5886 1380.6423 138.8651 C1380.6627 142.8927 1380.6689 146.9201 1380.6644 150.9478 C1380.6652 152.4236 1380.6712 153.8994 1380.6827 155.3751 C1380.7951 170.5077 1380.7951 170.5077 1375.8251 177.1214 C1371.6584 181.1253 1371.6584 181.1253 1368.3251 181.1253 C1368.3251 181.7853 1368.3251 182.4453 1368.3251 183.1253 C1363.8947 185.3403 1359.7897 185.382 1354.9457 185.3172 C1354.5299 185.3158 1354.5299 185.3158 1352.4256 185.3087 C1350.6239 185.3023 1348.8223 185.2917 1347.0206 185.2775 C1344.1606 185.2579 1341.3011 185.2558 1338.4411 185.2594 C1330.3107 185.269 1322.1808 185.2696 1314.0507 185.2045 C1309.0713 185.1658 1304.0933 185.1664 1299.1139 185.192 C1297.225 185.1944 1295.336 185.1825 1293.4473 185.1554 C1281.5172 184.9916 1274.4684 185.7472 1265.3251 194.1253 C1254.6142 201.1161 1241.7312 201.4911 1229.3251 201.5003 C1228.1802 201.5019 1227.0354 201.5034 1225.8558 201.505 C1216.7552 201.386 1209.4221 200.3425 1201.3251 196.1253 C1199.8912 195.6965 1198.4533 195.2809 1197.0126 194.8753 C1193.2865 193.7348 1191.4516 192.3397 1188.7654 189.5703 C1181.5193 183.8513 1172.3651 185.1722 1163.5929 185.2568 C1161.5485 185.2508 1159.5041 185.2417 1157.4598 185.2299 C1151.8252 185.2062 1146.1915 185.2262 1140.5569 185.2532 C1134.4334 185.2747 1128.31 185.2557 1122.1865 185.2417 C1111.4488 185.2228 1100.7114 185.2297 1089.9737 185.2539 C1078.4525 185.2797 1066.9314 185.2903 1055.4101 185.2821 C1055.0463 185.2818 1055.0463 185.2818 1053.2049 185.2805 C1049.4942 185.2779 1045.7835 185.2749 1042.0728 185.2719 C1015.2132 185.2505 988.3537 185.2625 961.4941 185.2917 C934.8885 185.3205 908.283 185.3335 881.6774 185.3258 C880.8511 185.3256 880.0247 185.3254 879.1734 185.3251 C870.7837 185.3227 862.3941 185.32 854.0044 185.3171 C836.0842 185.3108 818.164 185.3068 800.2438 185.3039 C799.3894 185.3037 798.535 185.3036 797.6547 185.3034 C756.987 185.2968 716.3193 185.3133 675.6516 185.3335 C671.1527 185.3357 666.6538 185.3379 662.1549 185.3401 C661.7091 185.3404 661.7091 185.3404 659.4531 185.3415 C649.5288 185.3464 639.6046 185.3512 629.6804 185.356 C628.7858 185.3564 627.8913 185.3569 626.9696 185.3573 C585.4013 185.3774 543.833 185.3877 502.2648 185.394 C499.5667 185.3944 496.8687 185.3948 494.1707 185.3952 C453.537 185.4015 412.9033 185.4038 372.2695 185.3997 C370.5454 185.3995 368.8214 185.3993 367.0973 185.3991 C351.7449 185.3976 336.3926 185.3959 321.0402 185.3935 C310.9731 185.3919 300.9061 185.3906 290.839 185.3896 C290.0138 185.3895 289.1885 185.3894 288.3383 185.3893 C260.0953 185.3868 231.8523 185.3995 203.6093 185.4188 C186.827 185.4303 170.0448 185.4401 153.2625 185.4421 C152.8805 185.4422 152.8805 185.4422 150.9475 185.4424 C143.3662 185.4432 135.7849 185.4436 128.2035 185.4432 C124.5052 185.443 120.8069 185.443 117.1086 185.443 C116.7461 185.443 116.7461 185.443 114.9117 185.443 C103.4198 185.4434 91.9279 185.454 80.436 185.4689 C69.1434 185.4833 57.8509 185.4869 46.5583 185.4798 C40.5145 185.4763 34.4709 185.4776 28.4271 185.4922 C22.9338 185.5054 17.4407 185.5048 11.9475 185.4932 C9.9679 185.4915 7.9884 185.4948 6.0089 185.5037 C3.3271 185.5151 0.646 185.508 -2.0357 185.4963 C-2.8017 185.504 -3.5677 185.5117 -4.357 185.5196 C-10.8628 185.4573 -16.2512 184.0105 -21.4874 179.9378 C-27.5776 172.1076 -27.1067 163.8212 -27.0631 154.315 C-27.0672 152.8211 -27.0725 151.3271 -27.079 149.8332 C-27.0927 145.7939 -27.0874 141.7548 -27.0779 137.7154 C-27.0703 133.4769 -27.0773 129.2384 -27.0821 124.9998 C-27.0875 117.8824 -27.0803 110.765 -27.066 103.6476 C-27.0497 95.4348 -27.055 87.2223 -27.0715 79.0096 C-27.0852 71.9426 -27.087 64.8758 -27.0792 57.8088 C-27.0745 53.595 -27.0738 49.3812 -27.0838 45.1674 C-27.0925 41.2036 -27.0864 37.2401 -27.0691 33.2764 C-27.0652 31.8273 -27.0663 30.3781 -27.0729 28.929 C-27.144 11.8653 -27.144 11.8653 -22.0968 4.9691 C-21.5451 4.5257 -20.9934 4.0822 -20.4249 3.6253 C-19.8835 3.1613 -19.3421 2.6972 -18.7843 2.2191 C-13.2027 -0.6751 -6.1504 -0.0166 0 0 Z M-16.6749 14.1253 C-17.7618 17.386 -17.798 19.7492 -17.7952 23.1807 C-17.7965 24.4469 -17.7979 25.7132 -17.7993 27.0178 C-17.7958 28.4237 -17.7922 29.8296 -17.7884 31.2355 C-17.7882 32.7137 -17.7883 34.192 -17.7889 35.6702 C-17.7892 39.6865 -17.7833 43.7027 -17.7763 47.7189 C-17.7701 51.915 -17.7695 56.111 -17.7683 60.3071 C-17.7652 68.2543 -17.757 76.2016 -17.7469 84.1488 C-17.7358 93.1958 -17.7303 102.2429 -17.7252 111.29 C-17.7148 129.9018 -17.6972 148.5136 -17.6749 167.1253 C-17.0149 167.1253 -16.3549 167.1253 -15.6749 167.1253 C-15.6027 167.4347 -15.6027 167.4347 -15.2374 169.0003 C-14.6749 171.1253 -14.6749 171.1253 -13.6749 173.1253 C-9.9808 174.3567 -6.5761 174.2621 -2.7297 174.2495 C-1.9058 174.2508 -1.0818 174.2521 -0.2329 174.2534 C2.5575 174.2565 5.3479 174.2524 8.1383 174.2484 C10.156 174.2491 12.1736 174.2503 14.1912 174.2519 C19.7791 174.255 25.3671 174.2518 30.9551 174.2476 C37.0178 174.2442 43.0804 174.2465 49.1431 174.2482 C59.7831 174.2503 70.4231 174.2486 81.0631 174.2446 C92.4835 174.2402 103.904 174.238 115.3245 174.2385 C116.0449 174.2385 116.7654 174.2385 117.5076 174.2385 C121.1809 174.2387 124.8541 174.2389 128.5273 174.2391 C155.1378 174.2405 181.7482 174.2371 208.3587 174.2311 C234.718 174.2252 261.0773 174.2213 287.4367 174.2202 C288.2548 174.2202 289.0729 174.2202 289.9158 174.2201 C297.3877 174.2198 304.8596 174.2195 312.3315 174.2193 C330.9073 174.2186 349.483 174.2177 368.0588 174.2165 C368.9047 174.2164 369.7507 174.2164 370.6223 174.2163 C411.7912 174.2137 452.9601 174.2074 494.129 174.2008 C508.4186 174.1985 522.7082 174.1962 536.9978 174.194 C537.884 174.1939 538.7703 174.1937 539.6833 174.1936 C580.8683 174.1873 622.0534 174.1835 663.2384 174.1805 C665.9116 174.1803 668.5848 174.1801 671.258 174.1799 C688.9731 174.1786 706.6883 174.1773 724.4035 174.176 C759.6534 174.1736 794.9033 174.1708 830.1532 174.1679 C831.832 174.1678 833.5107 174.1676 835.1895 174.1675 C910.7799 174.1612 986.3702 174.1519 1061.9606 174.1412 C1062.6685 174.1411 1063.3764 174.141 1064.1058 174.1409 C1099.5122 174.1359 1134.9187 174.1307 1170.3251 174.1253 C1169.0047 171.426 1167.622 169.0359 1165.8251 166.6253 C1164.3758 164.6564 1163.2658 162.9927 1162.2626 160.7503 C1161.3251 159.1253 1161.3251 159.1253 1159.5615 158.531 C1157.1893 158.1007 1155.0153 158.0048 1152.6045 158.0107 C1151.6534 158.0105 1150.7023 158.0104 1149.7223 158.0103 C1149.2014 158.0127 1149.2014 158.0127 1146.565 158.0253 C1145.4558 158.0265 1144.3466 158.0278 1143.2038 158.0291 C1139.4736 158.0345 1135.7435 158.047 1132.0133 158.0594 C1129.3443 158.0646 1126.6753 158.0694 1124.0063 158.0736 C1118.2518 158.0833 1112.4973 158.0963 1106.7428 158.1113 C1097.6463 158.1347 1088.5497 158.1477 1079.4531 158.159 C1076.3406 158.163 1073.2281 158.1671 1070.1157 158.1712 C1069.7267 158.1717 1069.7267 158.1717 1067.7586 158.1743 C1058.9047 158.186 1050.0508 158.1999 1041.1969 158.2147 C1040.3876 158.2161 1039.5782 158.2174 1038.7443 158.2188 C1025.6287 158.241 1012.5131 158.2709 999.3975 158.3027 C985.931 158.3351 972.4645 158.3559 958.998 158.3669 C950.6923 158.3742 942.3868 158.3909 934.0811 158.4197 C928.3885 158.4387 922.696 158.4468 917.0034 158.4463 C913.7194 158.4464 910.4357 158.453 907.1518 158.4695 C903.5898 158.4867 900.0282 158.4853 896.4661 158.4794 C895.4309 158.4888 894.3957 158.4982 893.3291 158.5079 C887.588 158.4759 883.3387 158.0385 878.3251 155.1253 C877.3484 152.1953 877.1928 150.2951 877.1779 147.2426 C877.1743 146.7393 877.1743 146.7393 877.1562 144.1923 C877.1549 143.6406 877.1549 143.6406 877.1481 140.8485 C877.1448 140.2671 877.1448 140.2671 877.1282 137.3248 C877.1084 133.4692 877.0968 129.6137 877.0868 125.7582 C877.0827 124.4432 877.0787 123.1283 877.0745 121.7736 C877.0554 115.5345 877.0412 109.2955 877.0328 103.0564 C877.0231 95.857 876.9967 88.6579 876.9563 81.4586 C876.9262 75.8917 876.9114 70.3248 876.9081 64.7577 C876.9057 61.4336 876.8948 58.1099 876.8716 54.7858 C876.8473 51.0773 876.8481 47.3696 876.8551 43.661 C876.8423 42.5616 876.8295 41.4622 876.8163 40.3295 C876.867 32.9385 876.867 32.9385 879.1045 28.9669 C882.5884 26.0777 885.7664 26.0004 890.189 25.9995 C891.1721 25.9969 892.1552 25.9943 893.1681 25.9916 C894.2457 25.9938 895.3233 25.9961 896.4336 25.9984 C897.5802 25.9968 898.7269 25.9952 899.9083 25.9936 C903.0915 25.9903 906.2747 25.9915 909.458 25.9946 C912.8909 25.9969 916.3238 25.9934 919.7568 25.9906 C926.4826 25.9862 933.2085 25.9872 939.9344 25.9901 C945.401 25.9923 950.8675 25.9926 956.3341 25.9915 C957.1117 25.9914 957.8893 25.9912 958.6905 25.9911 C960.2701 25.9907 961.8498 25.9904 963.4294 25.9901 C978.249 25.9872 993.0687 25.9905 1007.8883 25.9959 C1020.6042 26.0004 1033.3201 25.9996 1046.036 25.995 C1060.799 25.9896 1075.562 25.9875 1090.325 25.9906 C1091.8995 25.9909 1093.4739 25.9912 1095.0484 25.9915 C1095.8231 25.9917 1096.5978 25.9918 1097.396 25.992 C1102.855 25.9929 1108.3139 25.9914 1113.7729 25.9891 C1120.4272 25.9862 1127.0815 25.987 1133.7358 25.9923 C1137.131 25.995 1140.5261 25.996 1143.9212 25.9927 C1147.6017 25.99 1151.2821 25.9934 1154.9626 25.9984 C1156.0358 25.9961 1157.1089 25.9939 1158.2146 25.9916 C1163.031 26.0043 1167.5911 26.1081 1172.3251 27.1253 C1172.3251 27.7853 1172.3251 28.4453 1172.3251 29.1253 C1172.9851 29.1253 1173.6451 29.1253 1174.3251 29.1253 C1173.9951 32.0953 1173.6651 35.0653 1173.3251 38.1253 C1176.5626 39.2045 1178.9026 39.2396 1182.3056 39.223 C1182.8872 39.2214 1182.8872 39.2214 1185.8309 39.2132 C1186.4384 39.2091 1186.4384 39.2091 1189.5126 39.1878 C1190.1259 39.1856 1190.1259 39.1856 1193.2294 39.1742 C1196.2613 39.1624 1199.2932 39.1459 1202.3251 39.1253 C1202.3251 39.7853 1202.3251 40.4453 1202.3251 41.1253 C1202.9851 41.4553 1203.6451 41.7853 1204.3251 42.1253 C1204.3745 46.9308 1204.4108 51.7362 1204.4349 56.5419 C1204.445 58.1773 1204.4587 59.8127 1204.476 61.4481 C1204.5002 63.7963 1204.5116 66.1442 1204.5204 68.4925 C1204.5256 68.8592 1204.5256 68.8592 1204.5517 70.7149 C1204.5521 72.52 1204.4472 74.3244 1204.3251 76.1253 C1201.7257 78.7247 1200.5352 78.4125 1196.9149 78.5043 C1195.8431 78.5384 1194.7712 78.5726 1193.6669 78.6078 C1192.5435 78.6342 1191.42 78.6606 1190.2626 78.6878 C1188.0424 78.7475 1185.8224 78.8111 1183.6024 78.8793 C1182.6149 78.9032 1181.6274 78.9271 1180.61 78.9518 C1178.3251 79.1253 1178.3251 79.1253 1177.3251 80.1253 C1177.2215 81.6375 1177.1866 83.1544 1177.1798 84.67 C1177.1734 85.6387 1177.1671 86.6074 1177.1605 87.6054 C1177.1594 88.6626 1177.1583 89.7198 1177.1571 90.8089 C1177.1538 91.8936 1177.1505 92.9783 1177.147 94.0958 C1177.142 96.4018 1177.1396 98.7078 1177.1398 101.0138 C1177.1376 104.5166 1177.1195 108.0191 1177.1005 111.5218 C1177.0975 113.7634 1177.0956 116.0049 1177.0946 118.2464 C1177.0874 119.2854 1177.0802 120.3243 1177.0728 121.3947 C1177.1212 137.0758 1181.8553 149.7741 1192.3876 161.3753 C1192.8818 161.9242 1193.376 162.4731 1193.8851 163.0387 C1197.0923 166.3865 1199.8279 168.0294 1204.3251 169.1253 C1204.3251 169.7853 1204.3251 170.4453 1204.3251 171.1253 C1205.6451 171.1253 1206.9651 171.1253 1208.3251 171.1253 C1208.3251 171.7853 1208.3251 172.4453 1208.3251 173.1253 C1212.1911 174.3692 1216.0727 174.3048 1220.0907 174.3285 C1220.8429 174.3342 1221.5952 174.3399 1222.3702 174.3457 C1223.9604 174.3552 1225.5507 174.3617 1227.141 174.3656 C1229.553 174.3753 1231.9641 174.4063 1234.3759 174.4378 C1235.9266 174.4444 1237.4774 174.4496 1239.0282 174.4535 C1239.74 174.4658 1240.4517 174.4782 1241.185 174.4909 C1249.055 174.4565 1254.981 171.699 1261.3251 167.1253 C1261.8201 166.7953 1261.8201 166.7953 1264.3251 165.1253 C1264.3251 164.4653 1264.3251 163.8053 1264.3251 163.1253 C1265.3151 162.7953 1266.3051 162.4653 1267.3251 162.1253 C1269.079 160.1644 1269.079 160.1644 1270.8876 157.7503 C1271.1873 157.3546 1271.1873 157.3546 1272.704 155.3519 C1276.3251 150.3784 1276.3251 150.3784 1276.3251 147.1253 C1277.3151 146.7953 1278.3051 146.4653 1279.3251 146.1253 C1284.6568 133.6944 1282.6516 117.9142 1282.5126 104.7503 C1282.4975 102.2608 1282.4838 99.7712 1282.4716 97.2816 C1282.4413 91.2291 1282.3826 85.1779 1282.3251 79.1253 C1273.7451 79.1253 1265.1651 79.1253 1256.3251 79.1253 C1256.2792 73.8924 1256.2394 68.6601 1256.2152 63.4271 C1256.2052 61.6462 1256.1915 59.8652 1256.1742 58.0843 C1256.15 55.5277 1256.1386 52.9712 1256.1298 50.4144 C1256.1194 49.6154 1256.1091 48.8164 1256.0985 47.9932 C1256.0981 46.0358 1256.2027 44.0789 1256.3251 42.1253 C1258.3251 40.1253 1258.3251 40.1253 1260.4258 39.8848 C1260.8588 39.8871 1260.8588 39.8871 1263.0502 39.8983 C1264.0448 39.8985 1265.0394 39.8988 1266.0641 39.899 C1267.1119 39.9093 1268.1596 39.9195 1269.2391 39.93 C1270.2004 39.9321 1271.1616 39.9341 1272.152 39.9361 C1275.7514 39.9466 1279.3507 39.9745 1282.9501 40.0003 C1286.972 40.021 1286.972 40.021 1307.3251 40.1253 C1307.6551 70.8153 1307.9851 101.5053 1308.3251 133.1253 C1307.6651 133.1253 1307.0051 133.1253 1306.3251 133.1253 C1306.222 134.301 1306.1188 135.4766 1306.0126 136.6878 C1305.5803 140.1703 1304.6517 142.9604 1303.1376 146.1488 C1302.1403 148.5748 1301.5679 151.0145 1300.9501 153.5628 C1299.7611 158.179 1298.0513 161.682 1295.3134 165.5668 C1294.3251 167.1253 1294.3251 167.1253 1294.3251 169.1253 C1293.0051 169.7853 1291.6851 170.4453 1290.3251 171.1253 C1290.3251 172.1153 1290.3251 173.1053 1290.3251 174.1253 C1299.4614 174.1718 1308.5977 174.2073 1317.7342 174.229 C1321.977 174.2394 1326.2197 174.2535 1330.4625 174.2762 C1334.5604 174.298 1338.6581 174.3099 1342.756 174.3151 C1344.316 174.3188 1345.8761 174.326 1347.4361 174.3368 C1349.6284 174.3514 1351.8204 174.3533 1354.0128 174.3524 C1355.2586 174.3568 1356.5044 174.3613 1357.7879 174.3659 C1361.5915 174.1072 1364.7506 173.4492 1368.3251 172.1253 C1370.6723 168.6045 1370.5819 167.1589 1370.5992 162.9898 C1370.6092 161.7055 1370.6192 160.4212 1370.6295 159.0981 C1370.6304 157.6718 1370.631 156.2455 1370.6315 154.8192 C1370.6391 153.3195 1370.6475 151.8198 1370.6567 150.3201 C1370.6787 146.2436 1370.6875 142.1672 1370.6925 138.0907 C1370.6962 135.5443 1370.7024 132.9979 1370.7095 130.4516 C1370.734 121.5694 1370.7471 112.6873 1370.7506 103.805 C1370.7543 95.5235 1370.7842 87.2423 1370.826 78.9609 C1370.8607 71.8525 1370.8762 64.7443 1370.8769 57.6358 C1370.8777 53.3895 1370.8864 49.1435 1370.9149 44.8973 C1370.941 40.9031 1370.9433 36.9096 1370.9272 32.9154 C1370.9254 31.4501 1370.9321 29.9847 1370.948 28.5194 C1370.9684 26.518 1370.955 24.5164 1370.9398 22.5149 C1370.9418 21.3951 1370.9438 20.2754 1370.9459 19.1217 C1370.1222 15.1462 1368.4644 13.6148 1365.3251 11.1253 C1364.3351 11.1253 1363.3451 11.1253 1362.3251 11.1253 C1362.3251 10.4653 1362.3251 9.8053 1362.3251 9.1253 C1320.3445 9.0979 1278.3638 9.0715 1236.3832 9.046 C1235.9725 9.0458 1235.9725 9.0458 1233.8939 9.0445 C1145.8914 8.9911 1057.8889 8.9449 969.8864 8.9136 C967.9321 8.9129 965.9778 8.9122 964.0235 8.9115 C923.0046 8.8969 881.9856 8.8833 840.9667 8.871 C820.3622 8.8647 799.7577 8.8583 779.1532 8.8517 C776.045 8.8507 772.9369 8.8497 769.8287 8.8487 C721.955 8.8334 674.0814 8.8139 626.2077 8.782 C625.6929 8.7817 625.6929 8.7817 623.0874 8.78 C606.4851 8.7689 589.8829 8.7575 573.2806 8.746 C525.4737 8.713 477.6669 8.6826 429.86 8.6697 C428.8774 8.6694 427.8947 8.6691 426.8823 8.6688 C405.313 8.663 383.7438 8.6585 362.1746 8.6553 C353.4965 8.654 344.8184 8.6525 336.1402 8.651 C335.1904 8.6508 334.2407 8.6506 333.2621 8.6505 C302.6357 8.645 272.0094 8.6236 241.383 8.5939 C210.5437 8.5641 179.7045 8.5498 148.8653 8.5572 C144.6078 8.5582 140.3504 8.5591 136.0929 8.5598 C135.6756 8.5599 135.6756 8.5599 133.5638 8.5603 C120.3249 8.5622 107.0861 8.5472 93.8472 8.5253 C80.8431 8.5041 67.839 8.5006 54.8348 8.5162 C47.2019 8.5248 39.5692 8.5196 31.9363 8.4943 C26.2825 8.477 20.6291 8.4856 14.9753 8.5046 C12.6927 8.5082 10.41 8.5033 8.1273 8.4892 C5.0423 8.4713 1.9589 8.4838 -1.126 8.5044 C-2.0161 8.4918 -2.9062 8.4793 -3.8233 8.4663 C-9.8118 8.552 -12.5613 9.7064 -16.6749 14.1253 Z " fill="#D7CFC1" transform="translate(133.67491501569748,144.8746508359909)"/>
<path d="M0 0 C0.4813 -0.0007 0.4813 -0.0007 2.9169 -0.0042 C6.1558 -0.0077 9.3946 -0.0041 12.6335 -0.0005 C14.9837 -0.0015 17.3339 -0.003 19.6841 -0.0049 C24.8169 -0.008 29.9497 -0.008 35.0825 -0.0052 C42.7664 -0.0011 50.4503 -0.0028 58.1343 -0.0056 C71.2294 -0.0102 84.3244 -0.01 97.4195 -0.0073 C110.6928 -0.0046 123.966 -0.004 137.2392 -0.0061 C138.0771 -0.0062 138.915 -0.0063 139.7782 -0.0064 C143.1906 -0.007 146.6029 -0.0075 150.0153 -0.0081 C181.8109 -0.0134 213.6065 -0.0137 245.4021 -0.0109 C246.3446 -0.0109 247.2871 -0.0108 248.2582 -0.0107 C248.7302 -0.0107 248.7302 -0.0107 251.1187 -0.0104 C279.8563 -0.0079 308.5939 -0.0073 337.3315 -0.0085 C339.2546 -0.0085 341.1776 -0.0086 343.1006 -0.0087 C350.828 -0.009 358.5553 -0.0093 366.2827 -0.0097 C387.8848 -0.0106 409.4869 -0.0111 431.089 -0.0114 C432.0728 -0.0115 433.0565 -0.0115 434.0701 -0.0115 C465.425 -0.0119 496.7799 -0.0108 528.1348 -0.0086 C528.6434 -0.0086 528.6434 -0.0086 531.2173 -0.0084 C547.7373 -0.0072 564.2573 -0.006 580.7773 -0.0048 C646.3088 0.0001 711.8402 -0.0002 777.3717 -0.005 C793.8869 -0.0062 810.402 -0.0075 826.9172 -0.0086 C827.934 -0.0087 828.9508 -0.0087 829.9985 -0.0088 C861.3228 -0.011 892.6472 -0.0119 923.9716 -0.0114 C924.9546 -0.0114 925.9376 -0.0114 926.9504 -0.0114 C948.5264 -0.0111 970.1025 -0.0105 991.6786 -0.0095 C999.3982 -0.0092 1007.1178 -0.0089 1014.8374 -0.0086 C1016.7579 -0.0085 1018.6785 -0.0084 1020.599 -0.0083 C1049.3327 -0.0072 1078.0664 -0.0082 1106.8001 -0.0107 C1107.2715 -0.0107 1107.2715 -0.0107 1109.6569 -0.0109 C1110.5979 -0.011 1111.5389 -0.0111 1112.5085 -0.0112 C1144.2073 -0.014 1175.9061 -0.0129 1207.605 -0.0077 C1211.005 -0.0071 1214.4051 -0.0066 1217.8051 -0.0061 C1218.2224 -0.006 1218.2224 -0.006 1220.3338 -0.0057 C1233.5757 -0.0037 1246.8176 -0.0051 1260.0595 -0.0078 C1273.063 -0.0105 1286.0665 -0.0096 1299.0701 -0.0048 C1306.7047 -0.0021 1314.3392 -0.0022 1321.9738 -0.0063 C1327.6251 -0.009 1333.2764 -0.0066 1338.9277 -0.002 C1341.212 -0.001 1343.4963 -0.0017 1345.7806 -0.0042 C1348.8625 -0.0074 1351.9443 -0.0045 1355.0262 0 C1355.9212 -0.0024 1356.8161 -0.0048 1357.7382 -0.0072 C1358.5556 -0.0048 1359.373 -0.0023 1360.2152 0.0002 C1360.5665 0.0002 1360.5665 0.0002 1362.3444 0.0003 C1364.4403 0.1326 1366.3076 0.5557 1368.3251 1.1253 C1368.3251 1.7853 1368.3251 2.4453 1368.3251 3.1253 C1368.9026 3.2078 1369.4801 3.2903 1370.0751 3.3753 C1372.979 4.3433 1374.3625 5.8123 1376.3251 8.1253 C1376.3251 8.7853 1376.3251 9.4453 1376.3251 10.1253 C1376.9851 10.1253 1377.6451 10.1253 1378.3251 10.1253 C1378.3251 11.4453 1378.3251 12.7653 1378.3251 14.1253 C1378.9851 14.1253 1379.6451 14.1253 1380.3251 14.1253 C1380.3952 34.0835 1380.4481 54.0417 1380.4805 74 C1380.496 83.2672 1380.5171 92.5343 1380.5514 101.8014 C1380.5813 109.8795 1380.6007 117.9575 1380.6074 126.0357 C1380.6113 130.3122 1380.6204 134.5886 1380.6423 138.8651 C1380.6627 142.8927 1380.6689 146.9201 1380.6644 150.9478 C1380.6652 152.4236 1380.6712 153.8994 1380.6827 155.3751 C1380.7951 170.5077 1380.7951 170.5077 1375.8251 177.1214 C1371.6584 181.1253 1371.6584 181.1253 1368.3251 181.1253 C1368.3251 181.7853 1368.3251 182.4453 1368.3251 183.1253 C1364.2306 184.2657 1360.2909 184.2583 1356.0682 184.2389 C1355.2386 184.239 1354.409 184.2392 1353.5542 184.2393 C1350.8163 184.2386 1348.0786 184.2308 1345.3407 184.223 C1343.4407 184.2211 1341.5407 184.2197 1339.6407 184.2187 C1334.643 184.2149 1329.6453 184.2051 1324.6477 184.194 C1319.5466 184.1838 1314.4456 184.1792 1309.3446 184.1742 C1299.3381 184.1635 1289.3316 184.1464 1279.3251 184.1253 C1280.0882 183.3828 1280.8513 182.6403 1281.6376 181.8753 C1284.3251 179.1253 1284.3251 179.1253 1285.6795 176.842 C1287.3251 175.1253 1287.3251 175.1253 1290.5754 174.64 C1291.9351 174.6259 1293.2951 174.6338 1294.6547 174.6588 C1295.0264 174.6576 1295.0264 174.6576 1296.9075 174.6518 C1298.5215 174.6492 1300.1356 174.6556 1301.7495 174.6701 C1304.3055 174.6919 1306.8603 174.6882 1309.4163 174.6776 C1315.7651 174.6559 1322.1136 174.6733 1328.4624 174.6991 C1333.825 174.7205 1339.1869 174.7224 1344.5495 174.6962 C1347.0654 174.6918 1349.5799 174.7165 1352.0957 174.7417 C1353.6427 174.7364 1355.1897 174.7297 1356.7367 174.7213 C1357.434 174.7362 1358.1313 174.7511 1358.8498 174.7665 C1362.4652 174.7136 1364.1516 174.2634 1367.0065 171.9924 C1369.7923 168.5476 1369.9441 167.0158 1369.9264 162.6397 C1369.9298 161.9841 1369.9298 161.9841 1369.9472 158.6667 C1369.9295 157.2209 1369.9113 155.775 1369.8927 154.3292 C1369.8913 152.8014 1369.8921 151.2736 1369.8949 149.7458 C1369.8964 145.6033 1369.867 141.4616 1369.8321 137.3194 C1369.8008 132.9886 1369.7979 128.6577 1369.7919 124.3268 C1369.7764 116.1281 1369.7354 107.9296 1369.6852 99.731 C1369.6293 90.3961 1369.6018 81.0613 1369.5767 71.7263 C1369.5244 52.5258 1369.4365 33.3256 1369.3251 14.1253 C1366.9929 12.9191 1364.8287 11.9599 1362.3251 11.1253 C1362.3251 10.4653 1362.3251 9.8053 1362.3251 9.1253 C1320.3392 9.134 1278.3532 9.1435 1236.3673 9.1537 C1235.9565 9.1538 1235.9565 9.1538 1233.8777 9.1543 C1145.8665 9.1757 1057.8553 9.2029 969.8441 9.242 C967.8896 9.2429 965.9352 9.2437 963.9808 9.2446 C922.9591 9.2628 881.9375 9.2818 840.9158 9.3018 C820.31 9.3118 799.7042 9.3217 779.0984 9.3314 C775.9901 9.3329 772.8817 9.3343 769.7734 9.3358 C721.8953 9.3585 674.0172 9.3777 626.139 9.3871 C625.6241 9.3872 625.6241 9.3872 623.0183 9.3877 C606.4138 9.391 589.8093 9.394 573.2047 9.3969 C525.3928 9.4053 477.5808 9.4159 429.7689 9.4403 C428.7862 9.4408 427.8035 9.4413 426.791 9.4419 C405.2208 9.4529 383.6507 9.465 362.0806 9.4782 C353.4022 9.4835 344.7238 9.4886 336.0454 9.4937 C335.5705 9.4939 335.5705 9.4939 333.1671 9.4953 C302.537 9.5133 271.9069 9.5185 241.2767 9.5171 C210.435 9.5158 179.5933 9.5268 148.7516 9.5552 C144.4944 9.5591 140.2371 9.5628 135.9798 9.5665 C135.5625 9.5669 135.5625 9.5669 133.4508 9.5687 C120.2096 9.5799 106.9684 9.5776 93.7272 9.5697 C80.7225 9.5623 67.7178 9.5689 54.713 9.5908 C47.0786 9.6033 39.4444 9.6046 31.8101 9.59 C26.157 9.5804 20.5042 9.5913 14.8512 9.6106 C12.5675 9.6152 10.2838 9.6129 8.0001 9.6033 C4.9163 9.5912 1.8335 9.6035 -1.2502 9.6221 C-2.1428 9.6128 -3.0354 9.6034 -3.9551 9.5937 C-8.0213 9.6433 -10.1579 9.8104 -13.7015 11.9693 C-16.9405 15.508 -16.8062 18.5704 -16.8331 23.1807 C-16.8429 24.4469 -16.8527 25.7132 -16.8628 27.0178 C-16.8687 28.4237 -16.8745 29.8296 -16.8802 31.2355 C-16.8898 32.7137 -16.8998 34.192 -16.9102 35.6702 C-16.9373 39.6864 -16.9583 43.7026 -16.9782 47.7189 C-17.0001 51.915 -17.0275 56.111 -17.0543 60.3071 C-17.1042 68.2543 -17.1492 76.2015 -17.1923 84.1488 C-17.2417 93.1959 -17.2966 102.2429 -17.352 111.29 C-17.4658 129.9017 -17.5727 148.5135 -17.6749 167.1253 C-17.0149 167.1253 -16.3549 167.1253 -15.6749 167.1253 C-15.0149 169.1053 -14.3549 171.0853 -13.6749 173.1253 C-12.6849 173.1253 -11.6949 173.1253 -10.6749 173.1253 C-10.6749 173.7853 -10.6749 174.4453 -10.6749 175.1253 C-10.162 175.1247 -10.162 175.1247 -7.5661 175.1216 C27.5591 175.0789 62.6844 175.038 97.8097 174.9984 C98.5173 174.9976 99.2249 174.9968 99.954 174.996 C175.7624 174.9105 251.5709 174.8367 327.3794 174.7866 C329.063 174.7855 330.7466 174.7844 332.4302 174.7833 C367.7678 174.7599 403.1055 174.7381 438.4432 174.7183 C456.194 174.7083 473.9448 174.6981 491.6957 174.6875 C494.3734 174.6859 497.051 174.6843 499.7287 174.6827 C540.9693 174.6582 582.21 174.627 623.4506 174.576 C624.3375 174.5749 625.2245 174.5738 626.1383 174.5727 C640.439 174.555 654.7396 174.5367 669.0403 174.5184 C710.2222 174.4656 751.404 174.417 792.5859 174.3962 C793.4325 174.3958 794.2791 174.3954 795.1513 174.3949 C813.7341 174.3856 832.3168 174.3784 850.8996 174.3733 C858.3763 174.3712 865.853 174.3688 873.3296 174.3663 C874.1479 174.3661 874.9662 174.3658 875.8093 174.3655 C902.1907 174.3567 928.5719 174.3226 954.9532 174.2751 C981.5204 174.2274 1008.0874 174.2045 1034.6546 174.2164 C1038.3232 174.218 1041.9918 174.2193 1045.6604 174.2205 C1046.3796 174.2207 1047.0988 174.221 1047.8397 174.2212 C1059.2424 174.2243 1070.6448 174.2003 1082.0474 174.1653 C1093.2509 174.1314 1104.4542 174.1265 1115.6578 174.1507 C1121.6549 174.1628 1127.6513 174.162 1133.6483 174.1263 C1139.0984 174.094 1144.5472 174.0983 1149.9972 174.1322 C1151.9621 174.138 1153.9271 174.1301 1155.8919 174.1075 C1170.5462 173.949 1170.5462 173.949 1175.0646 176.9369 C1179.3251 181.67 1179.3251 181.67 1179.3251 184.1253 C1142.8217 184.1473 1106.3182 184.1684 1069.8148 184.1888 C1069.1005 184.1892 1068.3863 184.1896 1067.6503 184.19 C991.1277 184.2328 914.605 184.2697 838.0823 184.2947 C836.3829 184.2953 834.6835 184.2958 832.9841 184.2964 C797.315 184.3081 761.6459 184.319 725.9767 184.3289 C708.0595 184.3338 690.1422 184.339 672.225 184.3443 C669.5222 184.3451 666.8194 184.3459 664.1166 184.3467 C622.4878 184.3589 580.8589 184.3745 539.2301 184.4 C538.3348 184.4006 537.4394 184.4011 536.5169 184.4017 C522.0809 184.4105 507.6449 184.4197 493.2088 184.4288 C451.6386 184.4552 410.0684 184.4795 368.4981 184.4899 C367.6436 184.4901 366.7891 184.4903 365.9087 184.4906 C347.1522 184.4952 328.3957 184.4988 309.6392 184.5014 C302.0927 184.5024 294.5462 184.5036 286.9997 184.5049 C286.5867 184.5049 286.5867 184.5049 284.4968 184.5053 C257.8662 184.5097 231.2356 184.5267 204.605 184.5505 C177.7882 184.5743 150.9715 184.5858 124.1547 184.5798 C120.4521 184.579 116.7496 184.5784 113.0471 184.5778 C112.3212 184.5777 111.5954 184.5775 110.8476 184.5774 C99.3365 184.5759 87.8255 184.5879 76.3144 184.6054 C65.0061 184.6223 53.6979 184.6248 42.3895 184.6127 C36.3358 184.6066 30.2822 184.607 24.2284 184.6249 C18.7283 184.641 13.2285 184.6389 7.7284 184.6219 C5.7441 184.619 3.7598 184.623 1.7756 184.6343 C-0.9079 184.6486 -3.5903 184.6385 -6.2738 184.6221 C-7.0459 184.6322 -7.818 184.6422 -8.6134 184.6526 C-14.6739 184.573 -17.994 182.4658 -22.446 178.5792 C-28.1412 171.8416 -27.1009 162.5582 -27.0631 154.315 C-27.0672 152.8211 -27.0725 151.3271 -27.079 149.8332 C-27.0927 145.7939 -27.0874 141.7548 -27.0779 137.7154 C-27.0703 133.4769 -27.0773 129.2384 -27.0821 124.9998 C-27.0875 117.8824 -27.0803 110.765 -27.066 103.6476 C-27.0497 95.4348 -27.055 87.2223 -27.0715 79.0096 C-27.0852 71.9426 -27.087 64.8758 -27.0792 57.8088 C-27.0745 53.595 -27.0738 49.3812 -27.0838 45.1674 C-27.0925 41.2036 -27.0864 37.2401 -27.0691 33.2764 C-27.0652 31.8273 -27.0663 30.3781 -27.0729 28.929 C-27.144 11.8653 -27.144 11.8653 -22.0968 4.9691 C-21.5451 4.5257 -20.9934 4.0822 -20.4249 3.6253 C-19.8835 3.1613 -19.3421 2.6972 -18.7843 2.2191 C-13.2027 -0.6751 -6.1504 -0.0166 0 0 Z " fill="#403B34" transform="translate(133.67491501569748,144.8746508359909)"/>
<path d="M0 0 C16.5 0 33 0 50 0 C50 0.66 50 1.32 50 2 C50.99 2.33 51.98 2.66 53 3 C53.0742 7.7872 53.1286 12.574 53.1648 17.3616 C53.1799 18.9902 53.2004 20.6188 53.2263 22.2473 C53.2627 24.5882 53.2797 26.9285 53.293 29.2695 C53.3085 29.9978 53.3239 30.726 53.3399 31.4763 C53.3416 36.5103 53.3416 36.5103 51.8251 38.6844 C49.3236 40.4876 47.524 40.4306 44.457 40.5117 C43.3839 40.5472 42.3107 40.5826 41.2051 40.6191 C40.0855 40.6417 38.966 40.6643 37.8125 40.6875 C36.6813 40.7217 35.5502 40.7558 34.3848 40.791 C31.5899 40.8736 28.7954 40.9427 26 41 C25.949 47.9376 25.9141 54.8752 25.8901 61.813 C25.8801 64.1698 25.8665 66.5266 25.8491 68.8833 C25.8247 72.2842 25.8135 75.685 25.8047 79.0859 C25.7944 80.128 25.784 81.1701 25.7734 82.2437 C25.7708 99.4357 31.7037 112.1858 43.2539 124.5742 C46.031 127.0274 48.6204 128.5161 52 130 C52 130.66 52 131.32 52 132 C53.32 132 54.64 132 56 132 C56 132.66 56 133.32 56 134 C61.4077 134.0746 66.8151 134.1288 72.2231 134.1648 C74.0601 134.1798 75.897 134.2002 77.7339 134.2263 C80.3852 134.263 83.036 134.2798 85.6875 134.293 C86.4993 134.3085 87.3111 134.3239 88.1475 134.3399 C96.3945 134.3423 102.2151 131.7337 109 127 C109.495 126.835 109.495 126.835 112 126 C112 125.34 112 124.68 112 124 C113.875 121.875 113.875 121.875 116 120 C116.66 120 117.32 120 118 120 C118.2475 119.3194 118.495 118.6388 118.75 117.9375 C122.7027 108.6486 122.7027 108.6486 126 107 C130.8476 94.1236 129.5628 79.1267 129.6875 65.625 C129.7207 63.1354 129.7552 60.6458 129.791 58.1562 C129.8776 52.1042 129.9382 46.0526 130 40 C121.42 40 112.84 40 104 40 C102.4553 36.9107 102.8162 33.6455 102.7969 30.2539 C102.7912 29.487 102.7855 28.7201 102.7796 27.9299 C102.7702 26.3067 102.7636 24.6835 102.7598 23.0603 C102.7501 20.5757 102.719 18.0919 102.6875 15.6074 C102.681 14.0313 102.6757 12.4551 102.6719 10.8789 C102.6657 10.507 102.6657 10.507 102.6345 8.6249 C102.6567 3.4774 102.6567 3.4774 104.2209 1.3022 C106.5503 -0.4027 107.9503 -0.3686 110.8228 -0.3564 C111.8003 -0.3594 112.7779 -0.3624 113.7851 -0.3655 C114.8383 -0.3532 115.8915 -0.3408 116.9766 -0.3281 C118.0576 -0.3263 119.1385 -0.3244 120.2523 -0.3224 C122.537 -0.3157 124.8218 -0.3018 127.1064 -0.2812 C130.6179 -0.2501 134.129 -0.2403 137.6406 -0.2344 C139.8568 -0.2252 142.0729 -0.2148 144.2891 -0.2031 C145.3463 -0.1989 146.4035 -0.1946 147.4928 -0.1902 C148.4641 -0.1806 149.4353 -0.171 150.436 -0.1611 C151.2952 -0.1543 152.1545 -0.1475 153.0397 -0.1404 C155 0 155 0 156 1 C156.0952 3.8914 156.1255 6.7589 156.1135 9.6506 C156.1137 10.5579 156.1138 11.4651 156.114 12.3998 C156.1133 15.4137 156.1055 18.4275 156.0977 21.4414 C156.0958 23.5251 156.0944 25.6087 156.0934 27.6924 C156.0895 33.1882 156.0797 38.6841 156.0687 44.1799 C156.0585 49.7834 156.0539 55.3868 156.0488 60.9902 C156.0381 71.9935 156.021 82.9967 156 94 C155.34 94 154.68 94 154 94 C154.0619 95.1756 154.1237 96.3512 154.1875 97.5625 C154.1875 101.1914 153.4596 103.7397 151.8438 107.0312 C150.8224 109.4143 150.2827 111.7899 149.6875 114.3125 C147.9084 121.1278 144.9904 128.0064 139 132 C138.67 132.99 138.34 133.98 138 135 C162.75 134.67 187.5 134.34 213 134 C212.67 134.66 212.34 135.32 212 136 C211.0464 136.0014 210.0929 136.0029 209.1104 136.0043 C200.1202 136.021 191.1304 136.0638 182.1404 136.1321 C177.5186 136.1664 172.8971 136.1915 168.2751 136.1956 C163.8139 136.1998 159.3534 136.2283 154.8924 136.2734 C153.1912 136.2864 151.49 136.2907 149.7887 136.2862 C147.4037 136.2813 145.0208 136.3073 142.636 136.3406 C141.934 136.332 141.2319 136.3233 140.5086 136.3144 C136.6576 136.4044 135.1279 136.8916 132.1478 139.4162 C131.439 140.2689 130.7302 141.1215 130 142 C129.34 142.66 128.68 143.32 128 144 C155.39 144.33 182.78 144.66 211 145 C211 145.33 211 145.66 211 146 C209.9345 145.9948 208.869 145.9895 207.7712 145.9841 C197.6938 145.9398 187.6172 145.9379 177.5398 145.9767 C172.3596 145.9952 167.1803 145.9993 162.0002 145.9692 C156.9942 145.9408 151.9895 145.9516 146.9835 145.9888 C145.0807 145.9962 143.1778 145.9898 141.2751 145.969 C129.3097 145.8486 122.1631 146.5903 113 155 C102.2897 161.9911 89.4057 162.3657 77 162.375 C75.8552 162.3765 74.7103 162.3781 73.5308 162.3796 C64.4301 162.2607 57.097 161.2172 49 157 C47.5661 156.5712 46.1282 156.1556 44.6875 155.75 C40.9616 154.6095 39.1274 153.2149 36.4417 150.4454 C29.1914 144.7232 20.0231 146.0425 11.2454 146.123 C9.1986 146.1162 7.1519 146.1062 5.1051 146.0935 C-0.5361 146.0673 -6.1766 146.0848 -11.8178 146.1092 C-17.9484 146.1281 -24.0789 146.1064 -30.2095 146.0898 C-40.9595 146.0662 -51.7091 146.0685 -62.4591 146.0882 C-73.9932 146.1091 -85.5272 146.1148 -97.0613 146.1018 C-97.7898 146.101 -98.5183 146.1002 -99.269 146.0994 C-102.9837 146.0952 -106.6985 146.0907 -110.4133 146.0862 C-137.3007 146.0538 -164.1881 146.0553 -191.0755 146.0747 C-217.7034 146.0938 -244.3313 146.0984 -270.9592 146.0837 C-271.7861 146.0832 -272.613 146.0828 -273.465 146.0823 C-281.0174 146.0782 -288.5699 146.0739 -296.1223 146.0693 C-314.897 146.0581 -333.6718 146.0491 -352.4465 146.0416 C-353.3014 146.0412 -354.1564 146.0409 -355.0373 146.0405 C-396.6284 146.024 -438.2196 146.0333 -479.8108 146.0447 C-494.2442 146.0486 -508.6776 146.0524 -523.111 146.0558 C-524.0062 146.056 -524.9013 146.0562 -525.8236 146.0564 C-567.4359 146.0659 -609.0481 146.0571 -650.6604 146.0436 C-653.3619 146.0427 -656.0633 146.0419 -658.7647 146.041 C-676.6673 146.0352 -694.5698 146.0291 -712.4724 146.0228 C-748.0941 146.0103 -783.7158 145.9997 -819.3376 145.9903 C-821.034 145.9898 -822.7304 145.9894 -824.4268 145.9889 C-900.797 145.9687 -977.1672 145.97 -1053.5374 145.9807 C-1054.2525 145.9808 -1054.9676 145.9809 -1055.7044 145.981 C-1091.4696 145.986 -1127.2348 145.9923 -1163 146 C-1163 145.67 -1163 145.34 -1163 145 C-966.815 144.835 -966.815 144.835 26 144 C24.02 142.02 22.04 140.04 20 138 C20 137.34 20 136.68 20 136 C-370.39 136 -760.78 136 -1163 136 C-1163 135.67 -1163 135.34 -1163 135 C-773.27 135 -383.54 135 18 135 C15.36 131.37 12.72 127.74 10 124 C6.4379 118.3471 4.4787 113.9227 3.3984 107.3594 C2.8554 104.1438 1.9366 101.1219 1 98 C0.2173 95.2414 -0.1241 92.8164 -0.1203 89.9504 C-0.1216 89.1539 -0.123 88.3575 -0.1244 87.537 C-0.1208 86.6724 -0.1172 85.8078 -0.1135 84.917 C-0.1137 83.9996 -0.1138 83.0822 -0.114 82.1369 C-0.1133 79.1069 -0.1055 76.0769 -0.0977 73.0469 C-0.0958 70.9451 -0.0944 68.8433 -0.0934 66.7415 C-0.0896 61.2112 -0.0797 55.6808 -0.0687 50.1505 C-0.0566 43.5142 -0.052 36.8779 -0.0462 30.2415 C-0.0365 20.161 -0.0174 10.0805 0 0 Z " fill="#BF9642" transform="translate(1286,184)"/>
<path d="M0 0 C41.9447 -0.011 83.8895 -0.0215 125.8342 -0.0317 C126.655 -0.0319 127.4758 -0.0321 128.3214 -0.0323 C216.251 -0.0537 304.1807 -0.0722 392.1103 -0.0847 C394.0631 -0.085 396.0158 -0.0852 397.9685 -0.0855 C438.9549 -0.0914 479.9412 -0.0968 520.9276 -0.1018 C541.5158 -0.1043 562.104 -0.1068 582.6922 -0.1095 C585.7979 -0.1099 588.9036 -0.1103 592.0093 -0.1107 C639.8436 -0.1168 687.6779 -0.1246 735.5123 -0.1373 C736.5411 -0.1376 737.5699 -0.1379 738.6299 -0.1382 C755.2178 -0.1426 771.8057 -0.1472 788.3936 -0.1517 C836.1605 -0.1649 883.9275 -0.1771 931.6944 -0.1823 C932.6763 -0.1824 933.6582 -0.1825 934.6698 -0.1826 C956.2224 -0.1849 977.775 -0.1867 999.3277 -0.188 C1007.9991 -0.1885 1016.6706 -0.1891 1025.3421 -0.1898 C1026.2912 -0.1898 1027.2403 -0.1899 1028.2181 -0.19 C1058.8184 -0.1922 1089.4186 -0.2007 1120.0189 -0.2126 C1150.8332 -0.2245 1181.6476 -0.2302 1212.4619 -0.2272 C1216.7164 -0.2268 1220.9709 -0.2265 1225.2255 -0.2262 C1226.0595 -0.2262 1226.8935 -0.2261 1227.7528 -0.226 C1240.9797 -0.2253 1254.2066 -0.2313 1267.4334 -0.24 C1280.4275 -0.2485 1293.4215 -0.2499 1306.4156 -0.2437 C1313.3717 -0.2405 1320.3277 -0.2406 1327.2838 -0.2498 C1333.6038 -0.2578 1339.9238 -0.2568 1346.2438 -0.2483 C1348.5237 -0.2468 1350.8037 -0.2488 1353.0837 -0.2545 C1356.167 -0.2616 1359.25 -0.2566 1362.3333 -0.2484 C1363.2202 -0.2534 1364.1072 -0.2584 1365.021 -0.2636 C1370.0636 -0.2348 1374.219 0.3746 1379 2 C1379 2.99 1379 3.98 1379 5 C1378.34 5 1377.68 5 1377 5 C1377 4.34 1377 3.68 1377 3 C922.59 3 468.18 3 0 3 C0 2.01 0 1.02 0 0 Z " fill="#E9E4D9" transform="translate(122,156)"/>
<path d="M0 0 C0.4813 -0.0007 0.4813 -0.0007 2.9169 -0.0042 C6.1558 -0.0077 9.3946 -0.0041 12.6335 -0.0005 C14.9837 -0.0015 17.3339 -0.003 19.6841 -0.0049 C24.8169 -0.008 29.9497 -0.008 35.0825 -0.0052 C42.7664 -0.0011 50.4503 -0.0028 58.1343 -0.0056 C71.2294 -0.0102 84.3244 -0.01 97.4195 -0.0073 C110.6928 -0.0046 123.966 -0.004 137.2392 -0.0061 C138.0771 -0.0062 138.915 -0.0063 139.7782 -0.0064 C143.1906 -0.007 146.6029 -0.0075 150.0153 -0.0081 C181.8109 -0.0134 213.6065 -0.0137 245.4021 -0.0109 C246.3446 -0.0109 247.2871 -0.0108 248.2582 -0.0107 C248.7302 -0.0107 248.7302 -0.0107 251.1187 -0.0104 C279.8563 -0.0079 308.5939 -0.0073 337.3315 -0.0085 C339.2546 -0.0085 341.1776 -0.0086 343.1006 -0.0087 C350.828 -0.009 358.5553 -0.0093 366.2827 -0.0097 C387.8848 -0.0106 409.4869 -0.0111 431.089 -0.0114 C432.0728 -0.0115 433.0565 -0.0115 434.0701 -0.0115 C465.425 -0.0119 496.7799 -0.0108 528.1348 -0.0086 C528.6434 -0.0086 528.6434 -0.0086 531.2173 -0.0084 C547.7373 -0.0072 564.2573 -0.006 580.7773 -0.0048 C646.3088 0.0001 711.8402 -0.0002 777.3717 -0.005 C793.8869 -0.0062 810.402 -0.0075 826.9172 -0.0086 C827.934 -0.0087 828.9508 -0.0087 829.9985 -0.0088 C861.3228 -0.011 892.6472 -0.0119 923.9716 -0.0114 C924.9546 -0.0114 925.9376 -0.0114 926.9504 -0.0114 C948.5264 -0.0111 970.1025 -0.0105 991.6786 -0.0095 C999.3982 -0.0092 1007.1178 -0.0089 1014.8374 -0.0086 C1016.7579 -0.0085 1018.6785 -0.0084 1020.599 -0.0083 C1049.3327 -0.0072 1078.0664 -0.0082 1106.8001 -0.0107 C1107.2715 -0.0107 1107.2715 -0.0107 1109.6569 -0.0109 C1110.5979 -0.011 1111.5389 -0.0111 1112.5085 -0.0112 C1144.2073 -0.014 1175.9061 -0.0129 1207.605 -0.0077 C1211.005 -0.0071 1214.4051 -0.0066 1217.8051 -0.0061 C1218.2224 -0.006 1218.2224 -0.006 1220.3338 -0.0057 C1233.5757 -0.0037 1246.8176 -0.0051 1260.0595 -0.0078 C1273.063 -0.0105 1286.0665 -0.0096 1299.0701 -0.0048 C1306.7047 -0.0021 1314.3392 -0.0022 1321.9738 -0.0063 C1327.6251 -0.009 1333.2764 -0.0066 1338.9277 -0.002 C1341.212 -0.001 1343.4963 -0.0017 1345.7806 -0.0042 C1348.8625 -0.0074 1351.9443 -0.0045 1355.0262 0 C1355.9212 -0.0024 1356.8161 -0.0048 1357.7382 -0.0072 C1358.5556 -0.0048 1359.373 -0.0023 1360.2152 0.0002 C1360.5665 0.0002 1360.5665 0.0002 1362.3444 0.0003 C1364.4403 0.1326 1366.3076 0.5557 1368.3251 1.1253 C1368.3251 1.7853 1368.3251 2.4453 1368.3251 3.1253 C1369.3151 3.4553 1370.3051 3.7853 1371.3251 4.1253 C1370.0051 4.1253 1368.6851 4.1253 1367.3251 4.1253 C1367.3251 3.4653 1367.3251 2.8053 1367.3251 2.1253 C1325.0332 2.1285 1282.7413 2.1327 1240.4494 2.1378 C1239.6218 2.1379 1238.7943 2.138 1237.9416 2.1381 C1149.2891 2.1488 1060.6365 2.1668 971.9839 2.1996 C970.0153 2.2004 968.0466 2.2011 966.078 2.2018 C924.7574 2.2171 883.4369 2.2334 842.1164 2.2509 C821.3605 2.2597 800.6045 2.2683 779.8486 2.2767 C776.7176 2.2779 773.5866 2.2792 770.4556 2.2805 C722.2286 2.3001 674.0017 2.3154 625.7747 2.3185 C625.256 2.3185 625.256 2.3185 622.6312 2.3187 C605.9057 2.3197 589.1801 2.3204 572.4546 2.321 C524.2942 2.3229 476.1338 2.3273 427.9734 2.3492 C426.9836 2.3496 425.9937 2.3501 424.9738 2.3506 C403.2466 2.3604 381.5193 2.3717 359.7921 2.3842 C351.0504 2.3892 342.3088 2.394 333.5672 2.3988 C332.6104 2.3993 331.6537 2.3998 330.668 2.4004 C299.8146 2.4172 268.9613 2.4182 238.1079 2.4108 C207.0415 2.4035 175.9751 2.4117 144.9087 2.4415 C140.6204 2.4456 136.3321 2.4496 132.0438 2.4534 C131.2032 2.4542 130.3625 2.4549 129.4964 2.4557 C116.1586 2.4673 102.821 2.462 89.4833 2.4497 C76.3837 2.438 63.2843 2.444 50.1848 2.469 C42.4947 2.4832 34.805 2.4835 27.1149 2.4638 C21.4207 2.4507 15.7268 2.4634 10.0326 2.4865 C7.7322 2.4918 5.4318 2.4885 3.1315 2.476 C0.0251 2.4604 -3.0797 2.4752 -6.1861 2.4979 C-7.0853 2.4861 -7.9845 2.4742 -8.9109 2.4619 C-13.0957 2.5245 -15.7064 2.636 -18.768 5.6646 C-19.0826 6.0706 -19.0826 6.0706 -20.6749 8.1253 C-20.0149 8.4553 -19.3549 8.7853 -18.6749 9.1253 C-20.6549 9.7853 -22.6349 10.4453 -24.6749 11.1253 C-23.5351 7.1361 -21.6879 4.889 -18.6007 2.141 C-13.1725 -0.7218 -5.9753 -0.0161 0 0 Z M-18.6749 6.1253 C-18.3449 6.2903 -18.3449 6.2903 -16.6749 7.1253 C-17.0049 7.2903 -17.0049 7.2903 -18.6749 8.1253 C-18.6749 7.4653 -18.6749 6.8053 -18.6749 6.1253 Z " fill="#54504A" transform="translate(133.67491501569748,144.8746508359909)"/>
<path d="M0 0 C3.0879 -0.2998 5.9758 -0.4006 9.0667 -0.376 C9.5455 -0.3782 9.5455 -0.3782 11.9685 -0.3888 C15.2206 -0.3993 18.4723 -0.3883 21.7244 -0.3775 C24.0722 -0.3806 26.42 -0.3851 28.7678 -0.3907 C33.9109 -0.4 39.0538 -0.3999 44.1969 -0.3917 C51.8963 -0.3794 59.5956 -0.3844 67.295 -0.3928 C80.4144 -0.4067 93.5337 -0.4062 106.6531 -0.398 C119.9559 -0.3897 133.2587 -0.388 146.5614 -0.3942 C147.4004 -0.3946 148.2393 -0.395 149.1037 -0.3954 C152.5203 -0.397 155.9369 -0.3986 159.3535 -0.4003 C191.2086 -0.4162 223.0637 -0.4173 254.9188 -0.4089 C255.8636 -0.4086 256.8083 -0.4084 257.7817 -0.4081 C258.2549 -0.408 258.2549 -0.408 260.6493 -0.4074 C289.445 -0.3998 318.2407 -0.3979 347.0364 -0.4014 C348.9626 -0.4017 350.8888 -0.4019 352.8149 -0.4021 C360.5548 -0.4031 368.2947 -0.404 376.0346 -0.405 C397.6728 -0.4078 419.3109 -0.4095 440.9491 -0.4104 C441.9346 -0.4104 442.9201 -0.4105 443.9354 -0.4105 C475.3507 -0.4117 506.7661 -0.4083 538.1814 -0.4018 C539.2007 -0.4016 540.2201 -0.4014 541.2704 -0.4012 C557.8257 -0.3978 574.3809 -0.3941 590.9362 -0.3904 C656.5966 -0.3759 722.257 -0.3765 787.9175 -0.3911 C804.4619 -0.3948 821.0063 -0.3984 837.5507 -0.4018 C838.5694 -0.402 839.588 -0.4023 840.6375 -0.4025 C872.0174 -0.4089 903.3973 -0.4117 934.7773 -0.4104 C935.7621 -0.4103 936.7468 -0.4103 937.7615 -0.4103 C959.3766 -0.4093 980.9917 -0.4074 1002.6068 -0.4046 C1010.3405 -0.4037 1018.0743 -0.4027 1025.808 -0.4018 C1027.732 -0.4016 1029.6561 -0.4013 1031.5801 -0.4011 C1060.3688 -0.3975 1089.1575 -0.4006 1117.9462 -0.4081 C1118.8908 -0.4084 1119.8354 -0.4086 1120.8086 -0.4089 C1121.7515 -0.4091 1122.6944 -0.4094 1123.6658 -0.4096 C1155.4288 -0.4179 1187.1917 -0.4149 1218.9547 -0.399 C1222.3617 -0.3974 1225.7687 -0.3958 1229.1758 -0.3942 C1229.5939 -0.394 1229.5939 -0.394 1231.7096 -0.393 C1244.9789 -0.3871 1258.2481 -0.3912 1271.5174 -0.3995 C1284.5479 -0.4074 1297.5785 -0.4047 1310.609 -0.3905 C1318.2596 -0.3824 1325.9101 -0.3827 1333.5606 -0.3949 C1339.2238 -0.4031 1344.8869 -0.3957 1350.5501 -0.3821 C1352.8392 -0.3791 1355.1284 -0.3812 1357.4175 -0.3888 C1360.5061 -0.3983 1363.594 -0.3896 1366.6826 -0.376 C1367.131 -0.3796 1367.131 -0.3796 1369.4003 -0.3978 C1370.2194 -0.3904 1371.0385 -0.383 1371.8824 -0.3754 C1372.5866 -0.3753 1373.2907 -0.3753 1374.0162 -0.3752 C1376 0 1376 0 1380 3 C923.94 3 467.88 3 -2 3 C-1.34 2.01 -0.68 1.02 0 0 Z " fill="#C4C2C1" transform="translate(122,143)"/>
<path d="M0 0 C0.9586 -0.0038 1.9171 -0.0077 2.9047 -0.0116 C6.1481 -0.0209 9.391 -0.0086 12.6343 0.0035 C14.9805 0.0012 17.3268 -0.0023 19.673 -0.007 C24.8063 -0.0144 29.9396 -0.0122 35.073 -0.0021 C42.7578 0.0131 50.4425 0.0111 58.1273 0.0055 C71.2224 -0.0034 84.3176 0.002 97.4128 0.015 C110.6889 0.0281 123.965 0.0347 137.2411 0.0333 C138.0787 0.0332 138.9162 0.0331 139.7792 0.033 C144.0497 0.0325 148.3202 0.032 152.5907 0.0314 C183.5259 0.0271 214.4612 0.0374 245.3964 0.0554 C276.0392 0.0732 306.6821 0.0847 337.3249 0.088 C338.276 0.0881 339.2271 0.0882 340.207 0.0883 C348.8935 0.0892 357.58 0.0901 366.2665 0.0909 C387.8617 0.0928 409.4569 0.0956 431.0521 0.0992 C432.0356 0.0993 433.0191 0.0995 434.0324 0.0997 C481.8916 0.1075 529.7509 0.1265 577.6101 0.1463 C594.2217 0.1532 610.8332 0.16 627.4448 0.1666 C627.9599 0.1668 627.9599 0.1668 630.5667 0.1678 C678.4451 0.1869 726.3235 0.1981 774.2018 0.2072 C777.3095 0.2078 780.4172 0.2084 783.5249 0.209 C804.1195 0.213 824.714 0.2168 845.3086 0.2205 C886.2878 0.2279 927.2671 0.2362 968.2463 0.2449 C970.1979 0.2454 972.1495 0.2458 974.1011 0.2462 C1061.976 0.265 1149.851 0.293 1237.7259 0.325 C1238.5488 0.3253 1239.3718 0.3256 1240.2197 0.3259 C1281.3796 0.3409 1322.5395 0.3564 1363.6995 0.3726 C1363.6995 1.0326 1363.6995 1.6926 1363.6995 2.3726 C1364.6895 2.7026 1365.6795 3.0326 1366.6995 3.3726 C1280.7696 3.3726 1194.8398 3.3726 -13.3005 3.3726 C-9.4541 -0.6311 -5.1798 -0.0436 0 0 Z " fill="#ACA79E" transform="translate(132.30051016807556,153.62740451097488)"/>
<path d="M0 0 C2.0205 1.6417 4.0204 3.3091 6 5 C6 5.33 6 5.66 6 6 C-30.5246 6.011 -67.0492 6.0215 -103.5737 6.0317 C-104.2884 6.0319 -105.0031 6.0321 -105.7394 6.0323 C-182.297 6.0537 -258.8546 6.0722 -335.4121 6.0847 C-337.1121 6.085 -338.812 6.0852 -340.512 6.0855 C-376.1919 6.0914 -411.8719 6.0968 -447.5519 6.1018 C-465.4743 6.1043 -483.3967 6.1068 -501.3191 6.1095 C-504.0226 6.1099 -506.7262 6.1103 -509.4298 6.1107 C-551.0764 6.1168 -592.723 6.1246 -634.3696 6.1373 C-634.8176 6.1375 -634.8176 6.1375 -637.0845 6.1382 C-651.5296 6.1426 -665.9746 6.1472 -680.4197 6.1517 C-722.0103 6.1649 -763.6009 6.1771 -805.1915 6.1823 C-806.0462 6.1824 -806.901 6.1825 -807.7816 6.1826 C-826.5417 6.1849 -845.3018 6.1867 -864.0619 6.188 C-871.6096 6.1885 -879.1573 6.1891 -886.7049 6.1898 C-887.118 6.1898 -887.118 6.1898 -889.2082 6.19 C-915.8539 6.1922 -942.4995 6.2007 -969.1452 6.2126 C-995.9718 6.2245 -1022.7984 6.2302 -1049.6249 6.2272 C-1053.3268 6.2268 -1057.0286 6.2265 -1060.7305 6.2262 C-1061.4562 6.2262 -1062.1819 6.2261 -1062.9296 6.226 C-1074.45 6.2253 -1085.9703 6.2313 -1097.4907 6.24 C-1108.8014 6.2485 -1120.1121 6.2497 -1131.4229 6.2437 C-1137.4807 6.2406 -1143.5384 6.2409 -1149.5962 6.2498 C-1155.0952 6.2578 -1160.5942 6.2568 -1166.0933 6.2483 C-1168.0817 6.2468 -1170.0701 6.2488 -1172.0585 6.2545 C-1174.7376 6.2616 -1177.4165 6.2566 -1180.0956 6.2484 C-1180.4867 6.2509 -1180.4867 6.2509 -1182.4657 6.2636 C-1187.7717 6.2283 -1187.7717 6.2283 -1190 4 C-797.3 3.67 -404.6 3.34 0 3 C0 2.01 0 1.02 0 0 Z " fill="#54504A" transform="translate(1307,323)"/>
<path d="M0 0 C0.66 0.99 1.32 1.98 2 3 C0.2495 4.7505 -2.0433 4.124 -4.376 4.1318 C-5.1567 4.1293 -5.9373 4.1268 -6.7417 4.1242 C-7.5679 4.1255 -8.3942 4.1268 -9.2455 4.1281 C-12.0558 4.1312 -14.8661 4.127 -17.6765 4.123 C-19.7037 4.1238 -21.7309 4.125 -23.7581 4.1265 C-29.3821 4.1296 -35.0061 4.1264 -40.63 4.1223 C-46.7283 4.1189 -52.8265 4.1212 -58.9247 4.1228 C-69.6302 4.1249 -80.3357 4.1233 -91.0412 4.1192 C-102.5335 4.1148 -114.0257 4.1126 -125.518 4.1131 C-126.2427 4.1131 -126.9673 4.1132 -127.7139 4.1132 C-131.4085 4.1134 -135.1032 4.1135 -138.7978 4.1137 C-165.5714 4.1152 -192.3449 4.1117 -219.1185 4.1057 C-245.6414 4.0998 -272.1642 4.096 -298.6871 4.0949 C-299.5101 4.0948 -300.3331 4.0948 -301.1811 4.0948 C-308.6979 4.0945 -316.2147 4.0942 -323.7314 4.0939 C-342.4192 4.0933 -361.1069 4.0923 -379.7946 4.0911 C-380.6457 4.0911 -381.4968 4.091 -382.3737 4.091 C-423.7971 4.0884 -465.2204 4.082 -506.6438 4.0754 C-521.0226 4.0731 -535.4015 4.0709 -549.7803 4.0687 C-550.6721 4.0685 -551.5638 4.0684 -552.4826 4.0682 C-593.9206 4.0619 -635.3585 4.0582 -676.7964 4.0551 C-679.4859 4.0549 -682.1753 4.0547 -684.8648 4.0545 C-702.6875 4.0532 -720.5103 4.0519 -738.3331 4.0507 C-773.7974 4.0482 -809.2617 4.0455 -844.726 4.0426 C-846.415 4.0424 -848.104 4.0423 -849.793 4.0421 C-925.8491 4.0359 -1001.9051 4.0265 -1077.9612 4.0159 C-1078.6735 4.0158 -1079.3858 4.0157 -1080.1197 4.0156 C-1115.7465 4.0106 -1151.3732 4.0054 -1187 4 C-1187 3.34 -1187 2.68 -1187 2 C-1185.9706 1.9993 -1184.9411 1.9986 -1183.8805 1.9978 C-1148.6352 1.9735 -1113.39 1.9488 -1078.1448 1.9241 C-1077.7898 1.9238 -1077.7898 1.9238 -1075.9933 1.9226 C-999.94 1.8691 -923.8868 1.8142 -847.8336 1.7563 C-846.1449 1.755 -844.4562 1.7538 -842.7675 1.7525 C-807.3239 1.7255 -771.8804 1.6983 -736.4368 1.6709 C-718.6332 1.6572 -700.8296 1.6434 -683.0261 1.6298 C-680.3404 1.6277 -677.6547 1.6256 -674.9691 1.6236 C-633.5971 1.5917 -592.2252 1.5608 -550.8532 1.5322 C-550.4082 1.5319 -550.4082 1.5319 -548.1562 1.5304 C-533.8056 1.5205 -519.4551 1.5107 -505.1045 1.5009 C-463.7876 1.4726 -422.4706 1.4438 -381.1537 1.4116 C-380.7292 1.4113 -380.7292 1.4113 -378.5808 1.4096 C-359.9455 1.395 -341.3102 1.3802 -322.6749 1.3651 C-315.1775 1.3591 -307.6801 1.3531 -300.1827 1.3471 C-299.3622 1.3464 -298.5416 1.3457 -297.6961 1.3451 C-271.2253 1.3238 -244.7544 1.3058 -218.2835 1.2894 C-191.6343 1.2729 -164.9851 1.2533 -138.3358 1.2293 C-134.659 1.226 -130.9821 1.2228 -127.3052 1.2195 C-126.9448 1.2192 -126.9448 1.2192 -125.1209 1.2176 C-113.6754 1.2075 -102.23 1.2009 -90.7845 1.1956 C-79.5489 1.1904 -68.3134 1.1815 -57.0778 1.169 C-51.0597 1.1624 -45.0415 1.1575 -39.0233 1.1568 C-33.5613 1.1562 -28.0994 1.1511 -22.6375 1.1423 C-20.6614 1.1399 -18.6853 1.1392 -16.7092 1.1404 C-14.0491 1.1417 -11.389 1.137 -8.7289 1.1306 C-7.9495 1.1325 -7.1701 1.1343 -6.3672 1.1362 C-1.1142 1.1142 -1.1142 1.1142 0 0 Z " fill="#3B362F" transform="translate(1306,323)"/>
<path d="M0 0 C0.66 0 1.32 0 2 0 C2 0.99 2 1.98 2 3 C-386.74 3 -775.48 3 -1176 3 C-1176 2.67 -1176 2.34 -1176 2 C-1175.4901 1.9996 -1175.4901 1.9996 -1172.9094 1.9978 C-1137.9911 1.9735 -1103.0728 1.9488 -1068.1545 1.9241 C-1067.4511 1.9236 -1066.7477 1.9231 -1066.023 1.9226 C-990.6752 1.8691 -915.3275 1.8142 -839.9797 1.7563 C-838.3067 1.755 -836.6337 1.7538 -834.9606 1.7525 C-799.8458 1.7255 -764.731 1.6983 -729.6162 1.6709 C-711.9778 1.6572 -694.3393 1.6434 -676.7009 1.6298 C-674.0401 1.6277 -671.3794 1.6256 -668.7186 1.6236 C-627.7304 1.5917 -586.7422 1.5608 -545.754 1.5322 C-545.3131 1.5319 -545.3131 1.5319 -543.082 1.5304 C-528.8646 1.5205 -514.6472 1.5107 -500.4297 1.5009 C-459.496 1.4726 -418.5623 1.4438 -377.6287 1.4116 C-376.7875 1.4109 -375.9463 1.4103 -375.0797 1.4096 C-356.6172 1.395 -338.1547 1.3802 -319.6923 1.3651 C-312.2644 1.3591 -304.8366 1.3531 -297.4087 1.3471 C-297.0023 1.3467 -297.0023 1.3467 -294.9452 1.3451 C-268.7199 1.3238 -242.4946 1.3058 -216.2693 1.2894 C-189.8672 1.2729 -163.4652 1.2533 -137.0631 1.2293 C-133.4203 1.226 -129.7776 1.2228 -126.1348 1.2195 C-125.7777 1.2192 -125.7777 1.2192 -123.9708 1.2176 C-112.6315 1.2075 -101.2922 1.2009 -89.9528 1.1956 C-78.8215 1.1904 -67.6902 1.1815 -56.5589 1.169 C-50.5965 1.1624 -44.6342 1.1575 -38.6718 1.1568 C-33.2605 1.1562 -27.8492 1.1511 -22.4379 1.1423 C-20.4802 1.1399 -18.5224 1.1392 -16.5647 1.1404 C-13.9292 1.1417 -11.2938 1.137 -8.6583 1.1306 C-7.8862 1.1325 -7.1141 1.1343 -6.3186 1.1362 C-1.1142 1.1142 -1.1142 1.1142 0 0 Z " fill="#E4DED3" transform="translate(1300,315)"/>
<path d="M0 0 C1.085 3.5193 1.1232 6.7704 1.1203 10.4413 C1.1211 11.0859 1.122 11.7304 1.1228 12.3945 C1.1245 14.5518 1.119 16.7089 1.1135 18.8662 C1.1132 20.4136 1.1134 21.9609 1.114 23.5083 C1.1143 27.7084 1.1084 31.9084 1.1014 36.1084 C1.0951 40.498 1.0946 44.8876 1.0934 49.2772 C1.0903 57.5892 1.0821 65.9011 1.072 74.2131 C1.0608 83.6762 1.0553 93.1392 1.0503 102.6022 C1.0399 122.0682 1.0223 141.5341 1 161 C-2.1217 157.6052 -2.3749 155.2404 -2.3742 150.6927 C-2.3812 149.3958 -2.3883 148.0988 -2.3955 146.7626 C-2.388 145.3273 -2.3803 143.8921 -2.3723 142.4568 C-2.3747 140.9438 -2.3785 139.4309 -2.3834 137.918 C-2.3928 133.8106 -2.3834 129.7035 -2.37 125.5961 C-2.3587 121.3001 -2.3628 117.004 -2.3648 112.7079 C-2.3657 105.4943 -2.3546 98.2807 -2.3362 91.0671 C-2.315 82.7226 -2.3115 74.3782 -2.3177 66.0337 C-2.3234 58.0107 -2.3178 49.9878 -2.3066 41.9649 C-2.3019 38.5483 -2.3011 35.1317 -2.3032 31.7151 C-2.305 27.694 -2.297 23.673 -2.2811 19.652 C-2.2768 18.1745 -2.276 16.6971 -2.2788 15.2196 C-2.282 13.2065 -2.2717 11.1934 -2.2607 9.1803 C-2.2586 8.0526 -2.2566 6.9249 -2.2545 5.763 C-2 3 -2 3 0 0 Z " fill="#B9B8B4" transform="translate(107,157)"/>
<path d="M0 0 C0.33 1.32 0.66 2.64 1 4 C1.66 4 2.32 4 3 4 C3 54.82 3 105.64 3 158 C2.34 158.33 1.68 158.66 1 159 C0.67 106.53 0.34 54.06 0 0 Z " fill="#74716C" transform="translate(1511,155)"/>
<path d="M0 0 C6.96 -0.0253 13.9201 -0.0428 20.8801 -0.0549 C23.2499 -0.06 25.6197 -0.0668 27.9895 -0.0754 C31.3875 -0.0875 34.7855 -0.0932 38.1836 -0.0977 C39.2502 -0.1028 40.3169 -0.108 41.4159 -0.1133 C41.9063 -0.1133 41.9063 -0.1133 44.3884 -0.1135 C45.2567 -0.1157 46.1249 -0.118 47.0195 -0.1203 C49 0 49 0 50 1 C50.0952 3.8914 50.1255 6.7589 50.1135 9.6506 C50.1137 10.5579 50.1138 11.4651 50.114 12.3998 C50.1133 15.4137 50.1055 18.4275 50.0977 21.4414 C50.0958 23.5251 50.0944 25.6087 50.0934 27.6924 C50.0895 33.1882 50.0797 38.6841 50.0687 44.1799 C50.0585 49.7834 50.0539 55.3868 50.0488 60.9902 C50.0381 71.9935 50.021 82.9967 50 94 C49.34 94 48.68 94 48 94 C48 63.64 48 33.28 48 2 C31.83 2 15.66 2 -1 2 C-0.67 1.34 -0.34 0.68 0 0 Z " fill="#D6B778" transform="translate(1392,184)"/>
<path d="M0 0 C0.33 0.99 0.66 1.98 1 3 C28.06 3.33 55.12 3.66 83 4 C78.6251 6.1874 75.4806 6.2707 70.7432 6.2271 C69.9135 6.2273 69.0839 6.2276 68.2291 6.2279 C65.4912 6.2265 62.7535 6.211 60.0156 6.1953 C58.1156 6.1916 56.2156 6.1887 54.3156 6.1867 C49.3179 6.1791 44.3203 6.1595 39.3226 6.1373 C34.2216 6.1169 29.1206 6.1077 24.0195 6.0977 C14.013 6.0762 4.0065 6.0421 -6 6 C-4 4 -2 2 0 0 Z " fill="#575249" transform="translate(1419,323)"/>
<path d="M0 0 C0.9583 0.0052 1.9167 0.0105 2.9041 0.0159 C3.4213 0.0175 3.4213 0.0175 6.0388 0.0256 C7.1274 0.034 8.216 0.0424 9.3376 0.051 C9.8839 0.0533 9.8839 0.0533 12.6482 0.0647 C15.3572 0.0765 18.0662 0.093 20.7751 0.1135 C20.4451 0.7735 20.1151 1.4335 19.7751 2.1135 C12.8451 2.1135 5.9151 2.1135 -1.2249 2.1135 C-0.8949 21.5835 -0.5649 41.0535 -0.2249 61.1135 C-4.3865 54.8711 -3.3716 46.784 -3.3577 39.5276 C-3.3586 38.4301 -3.3596 37.3325 -3.3606 36.2018 C-3.3612 33.8939 -3.3594 31.586 -3.3552 29.2781 C-3.3498 25.7297 -3.3552 22.1814 -3.3616 18.6331 C-3.3609 16.3896 -3.3596 14.1461 -3.3577 11.9026 C-3.3597 10.836 -3.3617 9.7695 -3.3638 8.6706 C-3.3606 7.6922 -3.3575 6.7138 -3.3542 5.7058 C-3.3535 4.8409 -3.3527 3.976 -3.3518 3.0849 C-3.1692 0.25 -2.8394 0.1449 0 0 Z " fill="#DECAA0" transform="translate(1314.224853515625,223.886474609375)"/>
<path d="M0 0 C1.0248 0.0064 2.0496 0.0129 3.1055 0.0195 C4.1689 0.0363 5.2324 0.053 6.3281 0.0703 C6.8676 0.0748 6.8676 0.0748 9.5977 0.0977 C12.258 0.1212 14.918 0.1541 17.5781 0.1953 C17.5781 0.5253 17.5781 0.8553 17.5781 1.1953 C16.988 1.2204 16.3978 1.2454 15.7898 1.2712 C13.1149 1.3873 10.4403 1.51 7.7656 1.6328 C7.3012 1.6525 7.3012 1.6525 4.9512 1.752 C4.5048 1.7729 4.5048 1.7729 2.2461 1.8789 C1.835 1.8972 1.835 1.8972 -0.2454 1.99 C-2.4219 2.1953 -2.4219 2.1953 -5.4219 3.1953 C-6.0819 2.8653 -6.7419 2.5353 -7.4219 2.1953 C-7.0919 13.7453 -6.7619 25.2953 -6.4219 37.1953 C1.4981 37.5253 9.4181 37.8553 17.5781 38.1953 C17.5781 38.5253 17.5781 38.8553 17.5781 39.1953 C8.9981 39.1953 0.4181 39.1953 -8.4219 39.1953 C-9.9816 36.0758 -9.5429 32.7657 -9.5195 29.3438 C-9.5181 28.5697 -9.5167 27.7957 -9.5152 26.9982 C-9.5096 24.5222 -9.4971 22.0463 -9.4844 19.5703 C-9.4794 17.8932 -9.4748 16.2161 -9.4707 14.5391 C-9.4597 10.4244 -9.4424 6.3099 -9.4219 2.1953 C-6.1643 0.2582 -3.7658 -0.0418 0 0 Z " fill="#CDA248" transform="translate(1398.421875,184.8046875)"/>
<path d="M0 0 C1.32 0.33 2.64 0.66 4 1 C3.67 1.33 3.34 1.66 3 2 C2.8774 3.5645 2.8222 5.1343 2.7947 6.7034 C2.7747 7.7043 2.7548 8.7053 2.7342 9.7366 C2.7175 10.8251 2.7008 11.9136 2.6836 13.0352 C2.6628 14.1435 2.642 15.2519 2.6206 16.3939 C2.555 19.95 2.4962 23.5062 2.4375 27.0625 C2.3943 29.4668 2.3507 31.8711 2.3066 34.2754 C2.1993 40.1835 2.0976 46.0917 2 52 C1.67 52.165 1.67 52.165 0 53 C0 35.51 0 18.02 0 0 Z " fill="#EAE7E1" transform="translate(1313,226)"/>
<path d="M0 0 C10.56 0 21.12 0 32 0 C28 4 28 4 25.3428 4.4541 C24.3583 4.4332 23.3737 4.4122 22.3594 4.3906 C21.2895 4.3777 20.2195 4.3648 19.1172 4.3516 C18.006 4.318 16.8948 4.2845 15.75 4.25 C14.6234 4.232 13.4967 4.2139 12.3359 4.1953 C9.5564 4.1482 6.7786 4.0824 4 4 C3.67 3.34 3.34 2.68 3 2 C2.01 1.34 1.02 0.68 0 0 Z " fill="#917949" transform="translate(1348,319)"/>
<path d="M0 0 C0.66 0 1.32 0 2 0 C2 0.66 2 1.32 2 2 C24.11 2 46.22 2 69 2 C69 2.33 69 2.66 69 3 C45.57 3 22.14 3 -2 3 C-1.34 2.01 -0.68 1.02 0 0 Z " fill="#E4DFD4" transform="translate(1427,315)"/>
</svg>
